M48
;Layer_Color=9474304
;FILE_FORMAT=2:4
INCH,TZ
;TYPE=PLATED
T1F00S00C0.0098
T2F00S00C0.0118
T3F00S00C0.0157
T4F00S00C0.0197
T5F00S00C0.0276
T6F00S00C0.0453
T7F00S00C0.0531
T8F00S00C0.0886
T9F00S00C0.1260
;TYPE=NON_PLATED
T10F00S00C0.1260
%
T01
X4321Y4183
X6378Y4400
X5925Y3287
X10315Y2785
X11358Y2943
X11481Y4429
X11451Y4724
X11053Y5157
X9429Y4685
X12402Y1936
X14646Y1634
X14685Y1240
X16289Y1722
X16732Y2717
X17303Y3545
X17805Y3681
X17874Y3002
Y1152
X15925Y3868
X15913Y4555
X16447Y5118
X21447Y3002
X22667Y2717
X24380Y5207
X24793
X28159Y4547
X28459Y4144
X27913Y3976
X28603Y3514
X29705Y4125
X30295Y4783
X30516Y5055
X33819Y4862
X34485Y4900
X35036
X35587
X36138
X36689
X36831Y2938
X37136Y2530
X36811Y2106
X36077Y1738
X35802
X35329
X35054
X34996Y772
X35291
X35586
X35881
X36177
X36676Y838
X38135Y1722
X38494Y1662
X38839Y2311
Y2598
X39213Y2352
X39813Y2343
X40089Y2404
Y3504
X40620Y1689
X41031Y1815
X41465Y1827
X41813Y1398
X42522Y2401
X43248Y2648
X44118Y1398
X32825Y2736
X32490Y2451
X32126Y2726
X31467Y2411
X32913Y3392
X44955Y2402
X44866Y8494
X44859Y14680
X43246Y14926
X42539Y14675
X41459Y14006
X41035Y14006
X41713Y13684
X40246Y14378
X39892Y14596
X38996Y14695
Y15198
X39616Y15512
X39173Y16713
X38898Y16742
X38894Y17608
X39145Y17619
X38957Y19094
X38967Y19429
X38967Y19793
X39518Y20020
X37444Y19587
X37148Y19532
X36880Y20402
X36181Y19045
Y18789
X35886
Y19045
Y17805
X36181
X35591
X35295
X35000
X35173Y15955
X34759
X35586
X36019
X36433
X37480Y15906
X37759Y15834
X37968Y14537
X37008Y14370
X36437Y14774
X36014
X35600
X35167
X34754
X33977Y15197
X33366Y13760
X32289Y14085
X32820Y16132
X32864Y17431
Y17943
X32274
Y17431
X32146Y19902
X32963Y20295
X33967Y20463
X30531Y20325
X30665Y16132
X29468Y15139
X29488Y14882
X29267Y13937
X29470Y12907
X29606Y12659
X30364Y13396
X29783Y11227
X32756Y11850
X32864Y9626
Y9114
X32274
Y9626
X32820Y7589
X33612Y7461
X33977Y6653
X34750Y7411
X35173
X35586
X36019
X36433
X37409Y7470
X37656Y7372
X38258Y7539
X38789Y6467
X39567Y6762
X37968Y5994
X36959Y5843
X37278Y8238
X37274Y9085
Y9321
X37569
Y9085
X37864
Y9321
X37742Y10301
X38294Y10266
X38839Y10979
X39119Y11040
X38957Y11240
X39272Y10610
X37470Y11076
X37087Y11169
X36831Y12146
X36689Y13443
X36138
X35587
X35036
X34485
X35049Y10285
X35325
X35797
X36073
X36181Y9311
X35886
X35591
X35295
X35000
X40454Y9160
X40984Y7854
X41624Y7470
X42520Y8494
X43246Y8741
X30665Y7589
X30152Y6348
X29665Y6644
X30049Y5384
X32175Y5295
X37008Y16693
X37126Y17303
Y17539
Y17795
X37421
Y17539
Y17303
X28603Y20551
X22518Y20419
Y19919
Y19403
X22512Y18425
X22518Y17919
X23465Y17402
X24370Y14783
X24813
X24764Y13681
X24370Y13681
X26860Y13878
X27466Y14498
Y15138
X26270Y15197
X25965Y14862
X27819Y13140
X28406Y13317
X27756Y11270
X27466Y6595
Y5955
X26831Y6339
X26043Y6289
X26270Y6663
X24813Y6309
X24360
X23799Y6604
X23169Y6181
X22518Y7132
X22512Y7638
X22518Y8616
Y9132
Y9632
X22518Y10112
X21122Y10817
X19478Y11014
X16693Y11021
X16289Y12254
X15335Y12244
X14577Y11437
X15394Y10602
X13963Y9646
X16939Y9626
X17505Y9124
X17401Y8179
X17471Y7913
X16831Y8642
X16289Y6950
X15699Y6988
X14675Y6161
X17736Y5758
X18593Y6364
X18760Y7648
X25413Y8396
X20728Y13484
X17736Y14035
X17725Y14666
X17722Y15414
X17181Y15876
X16260Y15788
X15620Y16427
X15369Y15304
X15835Y14911
X16022Y13521
X16624Y17362
X16289Y17787
X17420Y17441
X17333Y18711
X17293Y18976
X17539Y20157
X16654Y20423
X18775Y18431
X14636Y16998
X13287Y15344
X12795Y15216
X11481
X10413Y15228
X10443Y16033
X9931Y17165
X9459Y15304
X9157Y15259
X6978Y15433
X6339Y16447
X5571Y16015
X5305Y17372
X4528Y16831
X3179Y16919
X3159Y15681
X1959Y15246
X720Y16722
X-89Y16432
X-915Y17697
X-2244Y17374
X-1902Y18795
X118Y19675
X-197Y20157
X-10Y20817
X1752Y18169
X2724Y18606
X3571Y18205
X4154Y19872
X5906Y20630
X10837Y19587
X11327Y18969
X11870Y20187
X11358Y13474
X11302Y10915
X11811Y10317
X11870Y9075
X11782Y8661
X10692Y9559
X9596Y9793
X9272Y11398
X8661Y11486
X7460Y10856
X7212Y10856
X6742Y11122
X6309Y10344
X7648Y10325
X4823Y10207
X5561Y11496
X5098Y12500
X5837Y13396
X2805Y10581
X3071Y6890
X2028Y7195
X285Y12825
X-2146Y12110
X10815Y6909
X11270Y5811
X11545Y5807
X-4035Y11650
Y13224
Y14181
Y15102
Y15744
Y16386
Y17008
X-3770Y17146
X-4035Y17634
Y18319
X-3516Y17945
X-3553Y15453
X-3543Y20482
X-4035Y20787
Y20157
X-2677Y20827
X-3238Y21368
X-3192Y21626
X-4035Y21417
Y22055
Y22669
Y23307
Y23925
Y24567
Y25189
Y25831
X-3760Y25669
X-3553Y25374
X-3296Y25122
X-3081Y24890
X-3051Y23640
X-3533Y22362
X-3317Y26230
X-2608Y26314
X-4035Y26453
Y27075
Y27709
Y28024
X-2197Y27142
X-488Y26762
X-541Y26289
X-466Y25890
X-795Y25689
X-484Y27524
X1398Y26988
X2943Y24557
X2996Y23638
X3711Y23474
X4222Y23778
X3632Y22598
X3095Y21528
X3258Y20965
X4026Y21260
X5561Y21506
X5797Y21834
X5650Y22382
X6132Y22638
X6969Y23110
X6929Y22096
X7115Y21673
X7362
X7648Y21112
X6004Y21181
X6655Y24035
X6801Y24744
X6398Y24734
X5846Y25138
X5167Y24783
X5362Y26941
X3928Y28968
X3671Y32756
X2825Y31969
X3276Y34736
X4457Y34480
X7234Y31909
X7530
X7648Y31201
X11329Y29916
X11437Y28593
X10787Y28976
X11555Y27047
X11230Y26201
X10955Y26204
X10344Y25748
X9724Y25139
X9409Y24882
Y24547
X10925Y24378
X11481Y25305
X11614Y23386
X10522Y22982
X10423Y22380
X9724Y22895
X9469Y22087
X9862Y27106
X12467Y26486
X1772Y23278
X-2105Y23614
X-2051Y24335
X-2077Y22630
X13248Y21767
X13642Y20915
X14631Y22366
X14833Y23237
X16289Y23287
X17224Y23545
X17904Y24053
X17617Y24369
X17722Y25502
X17530Y25915
X18128Y27240
X18775Y28519
X17372Y29140
X17479Y30000
X16988Y30512
X16289Y28732
X15364Y28652
X14596Y27938
X14990Y26949
X15492Y26309
X15718Y25502
X15704Y24746
X13375Y29272
X14429Y31447
X17736Y32510
X20925Y34508
X20984Y36201
X24911Y36211
Y35915
X26594
Y36211
X25935Y32372
X25640
X25600Y31506
X25896
X23248Y32510
X22518Y30988
X22518Y30508
Y30008
Y29492
X22512Y28514
X22518Y28008
X23342Y27496
X23179Y28819
X21112Y30030
X23199Y22283
X24370Y22146
X24793
X24813Y23248
X24370
X25984Y23268
X26270Y23622
X26909Y23071
X27466Y22992
Y23632
X27520Y21900
X26791Y21014
X28588Y21181
X22518Y20899
X30033Y21124
X29892Y21329
X30364Y21811
X29327Y22509
X28957Y23627
X28957Y23883
X29764Y24341
X32743Y24625
X32864Y25177
Y25689
X32274
Y25177
X32289Y22579
Y22313
X33406Y22352
X34485Y21937
X35036
X35587
X36138
X36689
X36962Y23008
X36437Y23268
X36014
X35600
X35167
X34754
X33976Y23691
X35173Y24449
X35586
X36019
X36433
X37194Y24518
X37470Y24438
X36713Y25217
X37175Y26319
X37461Y26388
X34833Y26939
X38947Y24065
X38971Y23514
X37968Y23032
X38327Y20876
X40335Y22785
X41152Y22165
X43038Y21115
X41447Y25965
X42146Y27224
X43740Y27205
X41398Y28740
X42677Y30089
X42598Y30856
X42618Y32981
X44175Y33017
X43711Y36024
X32864Y33533
Y33022
X32274
Y33533
X44505Y32778
X44734Y34232
X45423
X45248Y34057
X46250Y34193
X46644Y33151
Y32904
X46880Y35020
Y35267
X47052Y36365
X44960Y35548
X44695Y35347
X45758Y30610
X46575
X47746
X46289Y27067
X45226Y27490
X44429Y28268
X46929Y36634
X46093Y38484
X46142Y38878
X20827Y38100
X20532
T02
X34754Y6230
X35167
X35600
X36014
X36437
T03
X7096Y2431
X6811Y5138
X8701Y3937
X11191Y2185
X14516Y4455
X16811Y3553
X19596Y3957
X19035Y2372
X22608Y719
X24646Y2283
X21949Y5118
X40217Y4892
Y4508
Y4124
X40541Y3947
Y4331
Y4715
Y5098
X45285Y5120
Y4736
Y4352
Y3968
X45610Y4175
Y4559
Y4943
Y5327
Y5711
X45285Y5888
Y5504
Y10075
Y10459
Y10843
Y11226
Y11610
Y11994
X45610Y11817
Y11433
Y11049
Y10665
Y10281
Y16467
Y16850
Y17234
Y17618
Y18002
X45285Y18179
Y17795
Y17411
Y17028
Y16644
Y16260
X40541Y16238
Y16622
Y17006
Y17390
Y17774
Y18157
X40217Y17951
Y17567
Y17183
Y16799
Y16415
Y11766
Y11382
Y10998
Y10614
Y10230
X40541Y10053
Y10437
Y10821
Y11205
Y11589
Y11972
Y5866
Y5482
X40217Y5659
Y5276
X28209Y10837
X26811Y10354
X25315Y11870
X21919Y12264
X22146Y13770
X22096Y16417
X19744Y17333
X20768Y18770
X24173Y18957
X24577Y17343
X25453Y16378
X26752Y14803
X19596Y12234
X18346Y10699
X19793Y9065
X18829Y6978
X20384Y5935
X13130Y7293
X14380Y9341
X15679Y14596
X15384Y17687
X13150Y17923
X10758Y17421
X10236Y16654
X10817Y14075
X8524Y13927
X6722Y16407
X7461Y19390
X9852Y20384
X7530Y8750
X6673Y5827
X10059Y5827
X1742Y9124
X10364Y21535
X12746Y25089
X6850Y26083
X7638Y29400
X6398Y31772
X15787Y31841
X16398Y31545
X19154Y31496
X19528Y30709
X19951Y33012
X17313Y28297
X19626Y23720
X22156Y23701
X22018Y25000
X21142Y21722
X19596Y20915
X15758Y21427
X24528Y21191
X26486Y27323
X40217Y25152
Y24768
Y24384
Y24000
Y23616
X40541Y23439
Y23823
Y24207
Y24591
Y24974
Y25358
X45285Y25380
Y24996
Y24612
Y24228
Y23844
Y23461
X45610Y23667
Y24051
Y24435
Y24819
Y25203
T04
X42441Y21722
X43612Y21762
X43602Y23907
X42441
X45994Y29350
X47175
T05
X2835Y1663
X23500Y3720
Y4213
X23992
Y3720
X27480Y915
X24626Y6959
X23992Y7657
Y8150
X23500
Y7657
X23500Y11998
Y12490
X23992
Y11998
X24006Y15974
X23992Y16467
X23500
Y15974
X23500Y20679
X23992Y20679
X10915Y12185
X3898Y11309
X-2252Y18484
X-1768Y19846
X-2941Y13449
X1181Y23671
X1693Y25925
X3122Y29429
X953Y32988
X24598Y33573
Y34065
X25090
Y33573
X28346Y34301
X26319Y29724
X23992Y25148
Y24656
X23500Y24656
Y25148
Y21171
X23992
X34085Y29596
X40075Y34394
X40874
X41752Y34398
X52332Y34145
Y34735
X51063Y30232
Y29642
X48622Y37343
Y37933
X19124Y38612
T06
X12349Y1242
X12349Y6165
X12319Y11469
X12349Y17002
X12349Y22502
X12349Y27947
T07
X48756Y1350
X52756
Y5350
Y6980
X48756
Y5350
Y10980
Y12610
X52756
Y10980
Y16610
Y18240
X48756
Y16610
Y22240
Y23870
X52756
Y22240
Y27870
X48756
T08
X50252Y3350
Y8980
Y14610
Y20240
Y25870
T09
X39528Y8140
X28504
Y29281
X39528
T10
X54189Y30571
Y32402
Y35571
Y37402
M30
