G04*
G04 #@! TF.GenerationSoftware,Altium Limited,Altium Designer,23.5.1 (21)*
G04*
G04 Layer_Physical_Order=5*
G04 Layer_Color=16737945*
%FSLAX25Y25*%
%MOIN*%
G70*
G04*
G04 #@! TF.SameCoordinates,A7032A41-41AC-4FC5-B0B4-DDE5E9F1EB3E*
G04*
G04*
G04 #@! TF.FilePolarity,Positive*
G04*
G01*
G75*
%ADD13C,0.00787*%
%ADD21C,0.00100*%
%ADD98C,0.03937*%
%ADD104C,0.01772*%
%ADD107C,0.01181*%
%ADD108C,0.01575*%
%ADD116C,0.05394*%
%ADD118C,0.13287*%
%ADD122C,0.01968*%
%ADD126C,0.03937*%
%ADD128C,0.01200*%
G36*
X545972Y392535D02*
X547338Y392169D01*
X548645Y391628D01*
X549870Y390920D01*
X550993Y390059D01*
X551993Y389059D01*
X552854Y387937D01*
X553561Y386712D01*
X554103Y385405D01*
X554469Y384038D01*
X554654Y382636D01*
Y381928D01*
Y310559D01*
X551285Y307191D01*
X549043Y304948D01*
X548562Y305175D01*
X548615Y305709D01*
X548486Y307021D01*
X548103Y308282D01*
X547482Y309445D01*
X546645Y310464D01*
X545626Y311300D01*
X544463Y311922D01*
X543202Y312305D01*
X541890Y312434D01*
X540578Y312305D01*
X539316Y311922D01*
X538153Y311300D01*
X537134Y310464D01*
X536298Y309445D01*
X535676Y308282D01*
X535294Y307021D01*
X535164Y305709D01*
X535251Y304831D01*
X534805Y304331D01*
X511877D01*
X511552Y304548D01*
X510630Y304731D01*
X509708Y304548D01*
X509497Y304407D01*
X509440Y304404D01*
X508970Y304529D01*
X508962Y304533D01*
X508675Y305031D01*
X508571Y305150D01*
X508483Y305281D01*
X508417Y305325D01*
X508365Y305384D01*
X508224Y305454D01*
X508093Y305542D01*
X508015Y305557D01*
X507943Y305592D01*
X507786Y305603D01*
X507632Y305633D01*
X426896D01*
X425933Y306597D01*
X425944Y306702D01*
X426130Y307107D01*
X426553Y307191D01*
X427035Y307513D01*
X427356Y307995D01*
X427469Y308563D01*
X427356Y309131D01*
X427035Y309613D01*
X426553Y309935D01*
X425984Y310048D01*
X425416Y309935D01*
X424934Y309613D01*
X424612Y309131D01*
X424528Y308709D01*
X424123Y308523D01*
X424018Y308512D01*
X401975Y330555D01*
X401961Y330571D01*
X401936Y330609D01*
X401821Y331073D01*
X401875Y331231D01*
X402225Y331755D01*
X402304Y332153D01*
X402814D01*
X402893Y331755D01*
X403415Y330974D01*
X404196Y330452D01*
X405118Y330269D01*
X406040Y330452D01*
X406821Y330974D01*
X407343Y331755D01*
X407527Y332677D01*
X407343Y333599D01*
X406821Y334380D01*
X406267Y334751D01*
Y335328D01*
X406821Y335699D01*
X407343Y336480D01*
X407527Y337402D01*
X407343Y338323D01*
X406821Y339105D01*
X406040Y339627D01*
X405118Y339810D01*
X404196Y339627D01*
X403415Y339105D01*
X402893Y338323D01*
X402814Y337926D01*
X402304D01*
X402225Y338323D01*
X401703Y339105D01*
X400922Y339627D01*
X400000Y339810D01*
X399078Y339627D01*
X398297Y339105D01*
X397775Y338323D01*
X397591Y337402D01*
X397775Y336480D01*
X398297Y335699D01*
X398851Y335328D01*
Y334751D01*
X398554Y334552D01*
X398396Y334498D01*
X397932Y334614D01*
X397894Y334638D01*
X397877Y334652D01*
X384040Y348489D01*
X383650Y348750D01*
X383189Y348842D01*
X383189Y348842D01*
X280906D01*
X280445Y348750D01*
X280054Y348489D01*
X279793Y348099D01*
X279701Y347638D01*
Y329960D01*
X216126D01*
X215358Y329807D01*
X214707Y329372D01*
X206668Y321333D01*
X206610Y321322D01*
X205894Y320843D01*
X205416Y320127D01*
X205248Y319282D01*
X205416Y318437D01*
X205894Y317721D01*
X206610Y317242D01*
X207455Y317074D01*
X208300Y317242D01*
X209016Y317721D01*
X209495Y318437D01*
X209507Y318495D01*
X216958Y325946D01*
X230834D01*
X231144Y325446D01*
X231075Y325098D01*
X231182Y324561D01*
X231487Y324105D01*
X231943Y323800D01*
X232480Y323693D01*
X233018Y323800D01*
X233474Y324105D01*
X233778Y324561D01*
X233885Y325098D01*
X233816Y325446D01*
X234127Y325946D01*
X279701D01*
Y304623D01*
X279742Y304417D01*
X279775Y304210D01*
X279788Y304188D01*
X279793Y304163D01*
X279910Y303988D01*
X280019Y303808D01*
X280297Y303506D01*
X280284Y303149D01*
X280235Y303023D01*
X280179Y302947D01*
X279930Y302843D01*
X278424Y301921D01*
X277081Y300774D01*
X275934Y299431D01*
X275011Y297925D01*
X274335Y296293D01*
X273923Y294576D01*
X273784Y292815D01*
X273923Y291054D01*
X274335Y289337D01*
X275011Y287705D01*
X275934Y286199D01*
X277081Y284856D01*
X278424Y283709D01*
X279930Y282786D01*
X280177Y282684D01*
X280244Y282115D01*
X280198Y282081D01*
X280133Y282011D01*
X280054Y281959D01*
X279975Y281840D01*
X279879Y281736D01*
X279846Y281647D01*
X279793Y281568D01*
X279765Y281429D01*
X279716Y281295D01*
X279720Y281200D01*
X279701Y281107D01*
Y273659D01*
Y237445D01*
X279706Y237420D01*
X279702Y237395D01*
X279752Y237190D01*
X279793Y236984D01*
X279807Y236963D01*
X279813Y236938D01*
X279937Y236769D01*
X280054Y236594D01*
X280075Y236579D01*
X280090Y236559D01*
X280496Y236186D01*
X280656Y235618D01*
X280621Y235557D01*
X280585Y235503D01*
X280478Y234965D01*
X280585Y234428D01*
X280890Y233972D01*
X281346Y233667D01*
X281607Y233615D01*
X281609Y233614D01*
X281580Y233134D01*
X281557Y233074D01*
X281217Y233007D01*
X280761Y232702D01*
X280456Y232246D01*
X280353Y231726D01*
X280277Y231675D01*
X279883Y231488D01*
X256104Y255268D01*
X255843Y255442D01*
X255536Y255503D01*
X239160D01*
X239033Y255694D01*
X238577Y255998D01*
X238039Y256105D01*
X237501Y255998D01*
X237046Y255694D01*
X236741Y255238D01*
X236634Y254700D01*
X236741Y254163D01*
X237046Y253707D01*
X237501Y253402D01*
X238039Y253295D01*
X238577Y253402D01*
X239033Y253707D01*
X239160Y253897D01*
X255204D01*
X280917Y228184D01*
X280916Y228137D01*
X280749Y227645D01*
X280445Y227519D01*
X280249Y227389D01*
X280054Y227258D01*
X279793Y226868D01*
X279701Y226407D01*
Y221192D01*
X279762Y220889D01*
X279466Y220389D01*
X277498D01*
X277190Y220328D01*
X276930Y220154D01*
X276930Y220154D01*
X275295Y218519D01*
X269230D01*
X260410Y227339D01*
X260150Y227513D01*
X259842Y227574D01*
X244427D01*
X233874Y238128D01*
Y254392D01*
X239122Y259641D01*
X239164Y259636D01*
X239620Y259332D01*
X240158Y259225D01*
X240695Y259332D01*
X241151Y259636D01*
X241456Y260092D01*
X241562Y260630D01*
X241456Y261168D01*
X241151Y261623D01*
X240695Y261928D01*
X240158Y262035D01*
X239620Y261928D01*
X239164Y261623D01*
X238934Y261280D01*
X238823D01*
X238516Y261219D01*
X238256Y261044D01*
X238256Y261044D01*
X232503Y255292D01*
X232329Y255032D01*
X232268Y254724D01*
Y237795D01*
X232329Y237488D01*
X232503Y237228D01*
X243527Y226204D01*
X243527Y226204D01*
X243787Y226030D01*
X244094Y225969D01*
X259510D01*
X268330Y217149D01*
X268590Y216975D01*
X268898Y216914D01*
X268898Y216914D01*
X275628D01*
X275935Y216975D01*
X276195Y217149D01*
X277830Y218784D01*
X279466D01*
X279762Y218284D01*
X279701Y217981D01*
Y213749D01*
Y207283D01*
X279758Y206998D01*
X279280Y206679D01*
X278802Y205963D01*
X278634Y205118D01*
X278802Y204273D01*
X279280Y203557D01*
X279758Y203238D01*
X279701Y202953D01*
X279701Y161672D01*
X279793Y161212D01*
X279897Y161055D01*
X280054Y160821D01*
X280445Y160560D01*
X280749Y160434D01*
X280891Y160015D01*
X280885Y159863D01*
X277537Y156515D01*
X251561D01*
X244375Y163702D01*
X244050Y163919D01*
X243666Y163996D01*
X219685D01*
X219301Y163919D01*
X218975Y163702D01*
X211920Y156646D01*
X211702Y156321D01*
X211626Y155936D01*
Y153669D01*
X205184Y147227D01*
X204664Y147124D01*
X204209Y146819D01*
X203904Y146363D01*
X203797Y145826D01*
X203904Y145288D01*
X204209Y144832D01*
X204664Y144528D01*
X205202Y144421D01*
X205740Y144528D01*
X206195Y144832D01*
X206500Y145288D01*
X206603Y145808D01*
X213339Y152543D01*
X213557Y152869D01*
X213633Y153253D01*
Y155521D01*
X220101Y161989D01*
X243250D01*
X250436Y154802D01*
X250762Y154585D01*
X251146Y154508D01*
X277953D01*
X278337Y154585D01*
X278662Y154802D01*
X279239Y155379D01*
X279701Y155188D01*
Y138032D01*
X279710Y137990D01*
X279704Y137947D01*
X279755Y137761D01*
X279793Y137571D01*
X279817Y137536D01*
X279828Y137494D01*
X279947Y137341D01*
X280054Y137181D01*
X280090Y137157D01*
X280116Y137123D01*
X280346Y136923D01*
X280493Y136456D01*
X280382Y136247D01*
X280198Y135971D01*
X280091Y135433D01*
X280189Y134941D01*
X280170Y134813D01*
X279972Y134441D01*
X265989D01*
X265912Y134935D01*
X266628Y135414D01*
X267107Y136130D01*
X267275Y136975D01*
X267107Y137820D01*
X266628Y138536D01*
X265912Y139015D01*
X265067Y139183D01*
X264222Y139015D01*
X263506Y138536D01*
X263027Y137820D01*
X262859Y136975D01*
X263027Y136130D01*
X263506Y135414D01*
X264222Y134935D01*
X264144Y134441D01*
X261970D01*
X259901Y136510D01*
Y137709D01*
X259840Y138016D01*
X259665Y138276D01*
X259665Y138276D01*
X249302Y148640D01*
X249042Y148814D01*
X248734Y148875D01*
X247536D01*
X237974Y158437D01*
X238019Y158661D01*
X237912Y159199D01*
X237608Y159655D01*
X237152Y159959D01*
X236614Y160066D01*
X236076Y159959D01*
X235621Y159655D01*
X235316Y159199D01*
X235209Y158661D01*
X235316Y158124D01*
X235621Y157668D01*
X236076Y157363D01*
X236614Y157256D01*
X236839Y157301D01*
X246636Y147504D01*
X246636Y147504D01*
X246896Y147330D01*
X247203Y147269D01*
X248402D01*
X256235Y139436D01*
X256163Y138802D01*
X255765Y138536D01*
X255287Y137820D01*
X255168Y137225D01*
X254631Y137055D01*
X247934Y143752D01*
X247674Y143926D01*
X247367Y143987D01*
X243427D01*
X241105Y146309D01*
X241149Y146534D01*
X241042Y147072D01*
X240738Y147528D01*
X240282Y147832D01*
X239744Y147939D01*
X239207Y147832D01*
X238751Y147528D01*
X238446Y147072D01*
X238339Y146534D01*
X238446Y145997D01*
X238751Y145541D01*
X239207Y145236D01*
X239744Y145129D01*
X239969Y145174D01*
X242527Y142617D01*
X242787Y142443D01*
X243094Y142382D01*
X247034D01*
X253986Y135430D01*
Y131432D01*
X254047Y131125D01*
X254221Y130865D01*
X261638Y123448D01*
X261638Y123448D01*
X261898Y123274D01*
X262206Y123213D01*
X262206Y123213D01*
X280546D01*
X280717Y122949D01*
X280544Y122403D01*
X280445Y122362D01*
X280054Y122100D01*
X279793Y121710D01*
X279701Y121249D01*
Y119818D01*
Y114288D01*
X279724Y114172D01*
Y114053D01*
X279770Y113944D01*
X279793Y113827D01*
X279859Y113729D01*
X279904Y113619D01*
X279988Y113535D01*
X280054Y113437D01*
X280153Y113371D01*
X280237Y113287D01*
X280512Y113103D01*
X280672Y112545D01*
X280658Y112454D01*
X280651Y112437D01*
X280592Y112349D01*
X280485Y111811D01*
X280578Y111344D01*
X280550Y111144D01*
X280408Y110800D01*
X280103Y110739D01*
X279386Y110261D01*
X278908Y109545D01*
X278740Y108700D01*
X278908Y107855D01*
X279386Y107139D01*
X279770Y106882D01*
X279701Y106534D01*
Y93206D01*
X279713Y93149D01*
X279707Y93091D01*
X279758Y92920D01*
X279793Y92745D01*
X279825Y92697D01*
X279842Y92641D01*
X279955Y92503D01*
X280054Y92355D01*
X280102Y92322D01*
X280139Y92277D01*
X280319Y92129D01*
X280233Y91552D01*
X279930Y91426D01*
X278424Y90503D01*
X277081Y89356D01*
X275934Y88013D01*
X275011Y86507D01*
X274335Y84876D01*
X273923Y83158D01*
X273784Y81398D01*
X273923Y79637D01*
X274335Y77920D01*
X275011Y76288D01*
X275934Y74782D01*
X277081Y73439D01*
X278424Y72292D01*
X279930Y71369D01*
X280177Y71267D01*
X280244Y70698D01*
X280198Y70664D01*
X280133Y70594D01*
X280054Y70541D01*
X279975Y70423D01*
X279879Y70319D01*
X279846Y70230D01*
X279793Y70151D01*
X279765Y70011D01*
X279716Y69878D01*
X279720Y69783D01*
X279701Y69690D01*
Y51848D01*
X279793Y51387D01*
X280054Y50997D01*
X279757Y50699D01*
X279730Y50676D01*
X279730Y50676D01*
X279426Y50220D01*
X279319Y49683D01*
X279426Y49145D01*
X279730Y48689D01*
X279928Y48557D01*
X279996Y48500D01*
X280165Y48096D01*
X280149Y47882D01*
X280120Y47813D01*
Y47695D01*
X280097Y47578D01*
X280120Y47462D01*
Y47343D01*
X280220Y46843D01*
X280248Y46775D01*
X280196Y46629D01*
X280032Y46382D01*
X279918Y46278D01*
X279914Y46275D01*
X268751D01*
X268392Y46775D01*
X268502Y47328D01*
X268334Y48173D01*
X268080Y48552D01*
X268286Y48690D01*
X268765Y49406D01*
X268933Y50251D01*
X268843Y50704D01*
X269314Y50899D01*
X269487Y50640D01*
X269943Y50335D01*
X270480Y50228D01*
X271018Y50335D01*
X271474Y50640D01*
X271778Y51095D01*
X271885Y51633D01*
X271778Y52171D01*
X271474Y52627D01*
X271018Y52931D01*
X270480Y53038D01*
X269943Y52931D01*
X269487Y52627D01*
X269182Y52171D01*
X269076Y51633D01*
X269105Y51487D01*
X268634Y51292D01*
X268286Y51812D01*
X267570Y52291D01*
X266725Y52459D01*
X265880Y52291D01*
X265164Y51812D01*
X264685Y51096D01*
X264517Y50251D01*
X264685Y49406D01*
X264939Y49026D01*
X264733Y48889D01*
X264255Y48173D01*
X264087Y47328D01*
X264196Y46775D01*
X263838Y46275D01*
X247138D01*
X244814Y48599D01*
X244553Y48773D01*
X244246Y48834D01*
X237954D01*
X237892Y48927D01*
X237436Y49232D01*
X236898Y49339D01*
X236361Y49232D01*
X235905Y48927D01*
X235600Y48472D01*
X235493Y47934D01*
X235600Y47396D01*
X235905Y46941D01*
X236361Y46636D01*
X236898Y46529D01*
X237436Y46636D01*
X237892Y46941D01*
X238084Y47229D01*
X243914D01*
X246237Y44905D01*
X246498Y44731D01*
X246805Y44670D01*
X286582D01*
X287402Y43850D01*
Y25183D01*
X281461D01*
X279820Y26824D01*
X279560Y26998D01*
X279253Y27059D01*
X272895D01*
X256292Y43662D01*
X256031Y43836D01*
X255724Y43898D01*
X239354D01*
X239256Y43995D01*
X238996Y44170D01*
X238688Y44231D01*
X237583D01*
X237456Y44421D01*
X237000Y44726D01*
X236462Y44833D01*
X235925Y44726D01*
X235469Y44421D01*
X235164Y43966D01*
X235057Y43428D01*
X235164Y42890D01*
X235469Y42434D01*
X235925Y42130D01*
X236462Y42023D01*
X237000Y42130D01*
X237456Y42434D01*
X237583Y42625D01*
X238356D01*
X238454Y42527D01*
X238714Y42353D01*
X239021Y42292D01*
X255392D01*
X271995Y25688D01*
X271995Y25688D01*
X272256Y25514D01*
X272563Y25453D01*
X277927D01*
X278079Y24953D01*
X277963Y24876D01*
X277485Y24160D01*
X277317Y23315D01*
X277409Y22850D01*
X277009Y22350D01*
X245307D01*
X244919Y22273D01*
X244590Y22054D01*
X243114Y20577D01*
X242611Y20477D01*
X242156Y20173D01*
X241851Y19717D01*
X241744Y19179D01*
X241851Y18642D01*
X242156Y18186D01*
X242611Y17881D01*
X243149Y17774D01*
X243687Y17881D01*
X244142Y18186D01*
X244447Y18642D01*
X244547Y19144D01*
X245726Y20324D01*
X248990D01*
X249257Y19824D01*
X249065Y19537D01*
X248897Y18692D01*
X249065Y17847D01*
X249544Y17131D01*
X250260Y16652D01*
X251105Y16484D01*
X251950Y16652D01*
X252666Y17131D01*
X253145Y17847D01*
X253313Y18692D01*
X253145Y19537D01*
X252953Y19824D01*
X253220Y20324D01*
X281879D01*
X282266Y20401D01*
X282595Y20621D01*
X283762Y21788D01*
X287402D01*
Y3543D01*
X176726D01*
X164352Y15917D01*
X164397Y16142D01*
X164290Y16679D01*
X163986Y17135D01*
X163530Y17440D01*
X162992Y17547D01*
X162454Y17440D01*
X161999Y17135D01*
X161694Y16679D01*
X161587Y16142D01*
X161694Y15604D01*
X161999Y15148D01*
X162454Y14844D01*
X162992Y14737D01*
X163217Y14782D01*
X175826Y2173D01*
X176086Y1998D01*
X176394Y1937D01*
X287402D01*
Y1020D01*
X11811Y1020D01*
X11104D01*
X9701Y1204D01*
X8335Y1570D01*
X7028Y2112D01*
X5803Y2819D01*
X4680Y3680D01*
X3680Y4680D01*
X2819Y5803D01*
X2112Y7028D01*
X1570Y8335D01*
X1204Y9701D01*
X1020Y11104D01*
X1020Y11811D01*
X1020Y99508D01*
X942Y99898D01*
X721Y100229D01*
X390Y100450D01*
X-0Y100527D01*
Y163253D01*
X108Y163325D01*
X412Y163781D01*
X519Y164319D01*
X412Y164857D01*
X108Y165312D01*
X-0Y165384D01*
Y195283D01*
X500Y195550D01*
X643Y195454D01*
X1181Y195347D01*
X1719Y195454D01*
X2175Y195758D01*
X2479Y196214D01*
X2586Y196752D01*
X2479Y197290D01*
X2175Y197745D01*
X1719Y198050D01*
X1181Y198157D01*
X643Y198050D01*
X500Y197954D01*
X-0Y198221D01*
Y227345D01*
X462Y227537D01*
X49870Y178128D01*
Y153438D01*
X49931Y153131D01*
X50106Y152870D01*
X68996Y133980D01*
Y112243D01*
X68496Y112092D01*
X68415Y112214D01*
X67959Y112519D01*
X67421Y112625D01*
X66884Y112519D01*
X66428Y112214D01*
X66123Y111758D01*
X66016Y111221D01*
X66123Y110683D01*
X66428Y110227D01*
X66884Y109923D01*
X67421Y109816D01*
X67959Y109923D01*
X68415Y110227D01*
X68889Y110138D01*
X68935Y110106D01*
Y89138D01*
X68996Y88830D01*
X69170Y88570D01*
X84031Y73709D01*
X84031Y73709D01*
X84292Y73535D01*
X84599Y73474D01*
X88169D01*
X101175Y60468D01*
X100929Y60007D01*
X100591Y60074D01*
X99899Y59937D01*
X99313Y59545D01*
X98922Y58959D01*
X98784Y58268D01*
X98922Y57577D01*
X99313Y56990D01*
X99899Y56599D01*
X100591Y56461D01*
X101282Y56599D01*
X101868Y56990D01*
X102059Y57277D01*
X102559Y57125D01*
Y55381D01*
X102620Y55074D01*
X102795Y54813D01*
X108554Y49054D01*
X108814Y48880D01*
X109121Y48819D01*
X109121Y48819D01*
X135102D01*
X148037Y35884D01*
X148037Y35884D01*
X148298Y35710D01*
X148605Y35649D01*
X148605Y35649D01*
X171365D01*
X171517Y35149D01*
X171395Y35067D01*
X171090Y34612D01*
X170983Y34074D01*
X171090Y33536D01*
X171395Y33081D01*
X171850Y32776D01*
X172388Y32669D01*
X172926Y32776D01*
X173381Y33081D01*
X173686Y33536D01*
X173793Y34074D01*
X173760Y34238D01*
X173817Y34303D01*
X174214Y34518D01*
X174346Y34430D01*
X174654Y34369D01*
X174654Y34369D01*
X183605D01*
X183912Y34430D01*
X184172Y34604D01*
X186111Y36542D01*
X186285Y36803D01*
X186346Y37110D01*
X186346Y37110D01*
Y40441D01*
X186285Y40748D01*
X186111Y41009D01*
X186111Y41009D01*
X184250Y42870D01*
X184294Y43095D01*
X184188Y43632D01*
X183883Y44088D01*
X183427Y44393D01*
X182890Y44500D01*
X182352Y44393D01*
X181896Y44088D01*
X181592Y43632D01*
X181485Y43095D01*
X181592Y42557D01*
X181896Y42101D01*
X182352Y41797D01*
X182890Y41690D01*
X183114Y41734D01*
X184740Y40109D01*
Y39118D01*
X184240Y38966D01*
X184159Y39088D01*
X183703Y39393D01*
X183165Y39500D01*
X182627Y39393D01*
X182172Y39088D01*
X181867Y38632D01*
X181805Y38322D01*
X181430Y37947D01*
X177374D01*
X177223Y38447D01*
X177436Y38589D01*
X177740Y39045D01*
X177847Y39582D01*
X177814Y39748D01*
X178876Y40810D01*
X179093Y41135D01*
X179170Y41519D01*
Y62287D01*
X179620Y62587D01*
X179777Y62481D01*
X180315Y62375D01*
X180853Y62481D01*
X181308Y62786D01*
X181613Y63242D01*
X181720Y63779D01*
X181613Y64317D01*
X181308Y64773D01*
X180853Y65078D01*
X180315Y65184D01*
X179777Y65078D01*
X179322Y64773D01*
X179017Y64317D01*
X178910Y63779D01*
X178937Y63642D01*
X178477Y63396D01*
X177446Y64426D01*
Y95101D01*
X177369Y95485D01*
X177152Y95811D01*
X171031Y101931D01*
X170928Y102451D01*
X170624Y102907D01*
X170168Y103211D01*
X169630Y103318D01*
X169092Y103211D01*
X168637Y102907D01*
X168332Y102451D01*
X168225Y101913D01*
X168332Y101376D01*
X168637Y100920D01*
X169092Y100616D01*
X169612Y100512D01*
X175439Y94686D01*
Y64011D01*
X175515Y63627D01*
X175733Y63301D01*
X177163Y61871D01*
Y45532D01*
X176663Y45381D01*
X176585Y45497D01*
X176129Y45802D01*
X175592Y45909D01*
X175054Y45802D01*
X174598Y45497D01*
X174293Y45041D01*
X174187Y44504D01*
X174293Y43966D01*
X174598Y43510D01*
X175054Y43206D01*
X175592Y43099D01*
X176129Y43206D01*
X176585Y43510D01*
X176663Y43627D01*
X177163Y43475D01*
Y41935D01*
X176158Y40931D01*
X175905Y40880D01*
X175449Y40576D01*
X175144Y40120D01*
X175037Y39582D01*
X175078Y39379D01*
X174617Y39133D01*
X171567Y42183D01*
Y85930D01*
X171865Y86376D01*
X171972Y86914D01*
X171865Y87451D01*
X171560Y87907D01*
X171105Y88212D01*
X170567Y88318D01*
X170029Y88212D01*
X169573Y87907D01*
X169269Y87451D01*
X169162Y86914D01*
X169269Y86376D01*
X169560Y85941D01*
Y41767D01*
X169636Y41383D01*
X169853Y41058D01*
X173156Y37755D01*
X172949Y37255D01*
X148937D01*
X143510Y42682D01*
X143756Y43143D01*
X144095Y43075D01*
X144786Y43213D01*
X145372Y43605D01*
X145763Y44191D01*
X145901Y44882D01*
X145763Y45573D01*
X145372Y46159D01*
X144786Y46551D01*
X144095Y46688D01*
X143403Y46551D01*
X142817Y46159D01*
X142426Y45573D01*
X142288Y44882D01*
X142355Y44544D01*
X141895Y44298D01*
X136002Y50190D01*
X135742Y50364D01*
X135435Y50425D01*
X112022D01*
X111755Y50925D01*
X111829Y51037D01*
X111936Y51575D01*
X111829Y52113D01*
X111525Y52568D01*
X111069Y52873D01*
X110531Y52980D01*
X109994Y52873D01*
X109538Y52568D01*
X109233Y52113D01*
X109126Y51575D01*
X109155Y51431D01*
X108694Y51184D01*
X104165Y55714D01*
Y59416D01*
X104104Y59723D01*
X103930Y59983D01*
X89069Y74844D01*
X88809Y75018D01*
X88501Y75080D01*
X84931D01*
X74711Y85300D01*
X74957Y85761D01*
X75295Y85694D01*
X75986Y85831D01*
X76573Y86223D01*
X76964Y86809D01*
X77102Y87500D01*
X76964Y88191D01*
X76573Y88777D01*
X75986Y89169D01*
X75295Y89306D01*
X74604Y89169D01*
X74018Y88777D01*
X73626Y88191D01*
X73489Y87500D01*
X73556Y87162D01*
X73095Y86916D01*
X70541Y89470D01*
Y107540D01*
X71041Y107692D01*
X71122Y107570D01*
X71578Y107265D01*
X72116Y107158D01*
X72654Y107265D01*
X73109Y107570D01*
X73427D01*
X73678Y107521D01*
X74062Y107265D01*
X74599Y107158D01*
X75137Y107265D01*
X75593Y107570D01*
X75897Y108025D01*
X76004Y108563D01*
X75897Y109101D01*
X75593Y109556D01*
X75137Y109861D01*
X74599Y109968D01*
X74062Y109861D01*
X73606Y109556D01*
X73288D01*
X73037Y109605D01*
X72654Y109861D01*
X72116Y109968D01*
X71578Y109861D01*
X71215Y109618D01*
X70795Y109681D01*
X70643Y109739D01*
X70541Y109928D01*
X70602Y110236D01*
X70602Y110236D01*
Y134312D01*
X70541Y134619D01*
X70367Y134880D01*
X51476Y153771D01*
Y172698D01*
X51976Y172849D01*
X52058Y172727D01*
X52513Y172423D01*
X53051Y172316D01*
X53589Y172423D01*
X54045Y172727D01*
X54349Y173183D01*
X54456Y173721D01*
X54349Y174258D01*
X54045Y174714D01*
X53589Y175019D01*
X53051Y175125D01*
X52513Y175019D01*
X52058Y174714D01*
X51976Y174592D01*
X51476Y174743D01*
Y178461D01*
X51476Y178461D01*
X51415Y178768D01*
X51241Y179028D01*
X-0Y230269D01*
Y237315D01*
X462Y237506D01*
X7729Y230239D01*
X7989Y230065D01*
X8296Y230004D01*
X18073D01*
X24074Y224003D01*
X24072Y224000D01*
X23761Y223248D01*
X23654Y222441D01*
X23761Y221634D01*
X24072Y220882D01*
X24567Y220237D01*
X25213Y219741D01*
X25965Y219430D01*
X26772Y219324D01*
X27578Y219430D01*
X28330Y219741D01*
X28976Y220237D01*
X29471Y220882D01*
X29783Y221634D01*
X29889Y222441D01*
X29783Y223248D01*
X29471Y224000D01*
X28976Y224645D01*
X28330Y225141D01*
X27578Y225452D01*
X26772Y225558D01*
X25965Y225452D01*
X25213Y225141D01*
X25210Y225138D01*
X18984Y231364D01*
X18970Y231379D01*
X18948Y231413D01*
X18852Y231983D01*
X18860Y232006D01*
X19015Y232238D01*
X19121Y232776D01*
X19015Y233313D01*
X18710Y233769D01*
X18254Y234074D01*
X17717Y234180D01*
X17179Y234074D01*
X16723Y233769D01*
X16419Y233313D01*
X16312Y232776D01*
X16419Y232238D01*
X16504Y232110D01*
X16237Y231610D01*
X8629D01*
X-0Y240239D01*
Y293173D01*
X390Y293251D01*
X721Y293472D01*
X942Y293803D01*
X1020Y294193D01*
Y381890D01*
X1020Y382597D01*
X1204Y384000D01*
X1570Y385366D01*
X2112Y386673D01*
X2819Y387898D01*
X3680Y389020D01*
X4681Y390021D01*
X5803Y390882D01*
X7028Y391589D01*
X8335Y392130D01*
X9701Y392497D01*
X11104Y392681D01*
X11811Y392681D01*
X11811Y392681D01*
X11811Y392681D01*
X543862Y392720D01*
X544569D01*
X545972Y392535D01*
D02*
G37*
G36*
X397037Y333789D02*
X396850Y333092D01*
Y332262D01*
X397065Y331462D01*
X397480Y330743D01*
X398066Y330157D01*
X398784Y329742D01*
X399585Y329528D01*
X400415D01*
X401112Y329714D01*
X426398Y304429D01*
X507632D01*
X507921Y303929D01*
X507695Y303538D01*
X507480Y302737D01*
Y301908D01*
X507695Y301107D01*
X508110Y300389D01*
X508696Y299802D01*
X508945Y299659D01*
Y299081D01*
X508696Y298938D01*
X508110Y298351D01*
X507695Y297633D01*
X507480Y296832D01*
Y296003D01*
X507695Y295202D01*
X508110Y294483D01*
X508696Y293897D01*
X509414Y293482D01*
X510215Y293268D01*
X511045D01*
X511846Y293482D01*
X512564Y293897D01*
X513150Y294483D01*
X513565Y295202D01*
X513589Y295291D01*
X514089Y295226D01*
Y228543D01*
X422469D01*
X421766Y229246D01*
X421082Y229703D01*
X420276Y229863D01*
X417106D01*
X416966Y229921D01*
X416105D01*
X415309Y229592D01*
X414700Y228982D01*
X414518Y228543D01*
X405405D01*
X405182Y229081D01*
X404573Y229690D01*
X403777Y230020D01*
X402916D01*
X402120Y229690D01*
X401511Y229081D01*
X401288Y228543D01*
X381624D01*
X381433Y229005D01*
X381516Y229089D01*
X381846Y229884D01*
Y230746D01*
X381516Y231542D01*
X380907Y232151D01*
X380111Y232481D01*
X379250D01*
X378454Y232151D01*
X377845Y231542D01*
X377515Y230746D01*
Y229884D01*
X377845Y229089D01*
X377928Y229005D01*
X377737Y228543D01*
X369094D01*
Y227133D01*
X368852Y227032D01*
X368243Y226423D01*
X367913Y225628D01*
Y224766D01*
X368243Y223970D01*
X368852Y223361D01*
X369094Y223261D01*
Y212402D01*
X368861D01*
X368065Y212072D01*
X367456Y211463D01*
X367423Y211385D01*
X366882D01*
X366635Y211982D01*
X366562Y212054D01*
X366599Y212091D01*
X366929Y212887D01*
Y213749D01*
X366599Y214545D01*
X365990Y215154D01*
X365195Y215483D01*
X364333D01*
X363537Y215154D01*
X363099Y214716D01*
X362778Y214599D01*
X362458Y214716D01*
X362020Y215154D01*
X361224Y215483D01*
X360362D01*
X359567Y215154D01*
X359040Y214627D01*
X358514Y215154D01*
X357718Y215483D01*
X356856D01*
X356060Y215154D01*
X355627Y214721D01*
X355194Y215154D01*
X354398Y215483D01*
X353537D01*
X352741Y215154D01*
X352263Y214676D01*
X351786Y215154D01*
X350990Y215483D01*
X350129D01*
X349333Y215154D01*
X348724Y214545D01*
X348394Y213749D01*
Y212887D01*
X348724Y212091D01*
X348796Y212019D01*
X348759Y211982D01*
X348429Y211186D01*
Y210325D01*
X348759Y209529D01*
X348985Y209303D01*
X348759Y209077D01*
X348497Y208444D01*
X348049Y208294D01*
X347936Y208297D01*
X347585Y208649D01*
X346789Y208978D01*
X345928D01*
X345132Y208649D01*
X344523Y208039D01*
X344193Y207244D01*
Y206382D01*
X344523Y205586D01*
X344947Y205162D01*
X345076Y204837D01*
X344947Y204512D01*
X344523Y204088D01*
X344193Y203292D01*
Y202430D01*
X344523Y201635D01*
X345132Y201025D01*
X345928Y200696D01*
X346789D01*
X347585Y201025D01*
X348194Y201635D01*
X348226Y201713D01*
X348727D01*
X348759Y201635D01*
X349368Y201025D01*
X350164Y200696D01*
X351025D01*
X351821Y201025D01*
X352299Y201503D01*
X352776Y201025D01*
X353572Y200696D01*
X354433D01*
X355229Y201025D01*
X355665Y201462D01*
X356101Y201025D01*
X356897Y200696D01*
X357759D01*
X358555Y201025D01*
X359081Y201552D01*
X359608Y201025D01*
X360403Y200696D01*
X361265D01*
X362061Y201025D01*
X362499Y201463D01*
X362819Y201580D01*
X363140Y201463D01*
X363578Y201025D01*
X364374Y200696D01*
X365235D01*
X366031Y201025D01*
X366640Y201635D01*
X366970Y202430D01*
Y203292D01*
X366651Y204062D01*
X366964Y204819D01*
Y205680D01*
X366635Y206476D01*
X366561Y206550D01*
X366635Y206624D01*
X366964Y207420D01*
Y208281D01*
X366635Y209077D01*
X366560Y209151D01*
X366746Y209488D01*
X367262Y209477D01*
X367456Y209010D01*
X368065Y208401D01*
X368861Y208071D01*
X369094D01*
Y185069D01*
X368595Y184862D01*
X368156Y185300D01*
X367360Y185630D01*
X366498D01*
X365703Y185300D01*
X365093Y184691D01*
X364764Y183895D01*
Y183034D01*
X365093Y182238D01*
X365703Y181629D01*
X366498Y181299D01*
X367360D01*
X368156Y181629D01*
X368595Y182068D01*
X369094Y181861D01*
Y177205D01*
X368439D01*
X367638Y176990D01*
X366920Y176576D01*
X366334Y175989D01*
X365919Y175271D01*
X365704Y174470D01*
Y173641D01*
X365919Y172840D01*
X366334Y172121D01*
X366920Y171535D01*
X367638Y171120D01*
X368439Y170906D01*
X369094D01*
Y142285D01*
X369084Y142260D01*
Y141399D01*
X369094Y141375D01*
Y108864D01*
X369019D01*
X368223Y108535D01*
X367736Y108048D01*
X367265Y108052D01*
X367143Y108096D01*
X367122Y108136D01*
X367253Y108267D01*
X367583Y109063D01*
Y109925D01*
X367253Y110721D01*
X366738Y111236D01*
X367253Y111751D01*
X367583Y112547D01*
Y113408D01*
X367253Y114204D01*
X366796Y114661D01*
X366696Y114976D01*
X366796Y115291D01*
X367253Y115748D01*
X367583Y116544D01*
Y117405D01*
X367253Y118201D01*
X366644Y118810D01*
X365848Y119140D01*
X364987D01*
X364191Y118810D01*
X363752Y118371D01*
X363344Y118309D01*
X363132Y118405D01*
X362634Y118903D01*
X361838Y119232D01*
X360977D01*
X360181Y118903D01*
X359818Y118540D01*
X359492Y118342D01*
X359165Y118540D01*
X358802Y118903D01*
X358007Y119232D01*
X357145D01*
X356349Y118903D01*
X355740Y118293D01*
X355411Y117498D01*
Y116636D01*
X355740Y115840D01*
X356299Y115282D01*
X356326Y114996D01*
X356299Y114711D01*
X355850Y114262D01*
X355580Y114533D01*
X354784Y114862D01*
X353923D01*
X353127Y114533D01*
X352687Y114093D01*
X352248Y114533D01*
X351452Y114862D01*
X350591D01*
X349795Y114533D01*
X349186Y113924D01*
X348856Y113128D01*
Y112266D01*
X349186Y111470D01*
X349560Y111095D01*
X349186Y110721D01*
X348856Y109925D01*
Y109063D01*
X349186Y108267D01*
X349685Y107768D01*
X349186Y107268D01*
X348856Y106473D01*
Y105611D01*
X349186Y104815D01*
X349795Y104206D01*
X350591Y103876D01*
X351452D01*
X352248Y104206D01*
X352687Y104646D01*
X353127Y104206D01*
X353923Y103876D01*
X354784D01*
X355580Y104206D01*
X355965Y104591D01*
X356349Y104206D01*
X357145Y103876D01*
X358007D01*
X358802Y104206D01*
X359165Y104569D01*
X359492Y104767D01*
X359818Y104569D01*
X360181Y104206D01*
X360977Y103876D01*
X361838D01*
X362634Y104206D01*
X363100Y104672D01*
X363412Y104765D01*
X363725Y104672D01*
X364191Y104206D01*
X364987Y103876D01*
X365848D01*
X366644Y104206D01*
X367253Y104815D01*
X367344Y105035D01*
X367934Y105152D01*
X368223Y104863D01*
X369019Y104534D01*
X369094D01*
Y100608D01*
X368965Y100573D01*
X368246Y100158D01*
X367660Y99572D01*
X367245Y98853D01*
X367053Y98134D01*
X366801Y98005D01*
X366531Y97949D01*
X366187Y98292D01*
X365391Y98622D01*
X364530D01*
X363734Y98292D01*
X363338Y97897D01*
X362950Y97776D01*
X362698Y97909D01*
X362250Y98356D01*
X361454Y98686D01*
X360593D01*
X359797Y98356D01*
X359188Y97747D01*
X358858Y96951D01*
Y96090D01*
X359169Y95340D01*
X358858Y94589D01*
Y93728D01*
X359188Y92932D01*
X359797Y92323D01*
X360593Y91993D01*
X361454D01*
X362250Y92323D01*
X362646Y92718D01*
X363034Y92840D01*
X363287Y92706D01*
X363734Y92259D01*
X364530Y91929D01*
X365391D01*
X366187Y92259D01*
X366796Y92868D01*
X367126Y93664D01*
Y94525D01*
X366815Y95276D01*
X367030Y95795D01*
X367586Y95831D01*
X367660Y95704D01*
X368246Y95117D01*
X368965Y94703D01*
X369094Y94668D01*
Y77882D01*
X368595Y77640D01*
X367950Y77906D01*
X367089D01*
X366293Y77577D01*
X365684Y76968D01*
X365354Y76172D01*
Y75310D01*
X365684Y74514D01*
X366293Y73905D01*
X367089Y73576D01*
X367950D01*
X368595Y73842D01*
X369094Y73600D01*
Y54046D01*
X368637Y53589D01*
X368307Y52793D01*
Y51932D01*
X368637Y51136D01*
X369094Y50678D01*
Y27977D01*
X326692Y27955D01*
X326338Y28308D01*
Y30069D01*
X329537Y33268D01*
X329565D01*
X330360Y33597D01*
X330970Y34207D01*
X331299Y35002D01*
Y35864D01*
X330970Y36660D01*
X330360Y37269D01*
X329565Y37598D01*
X328703D01*
X327907Y37269D01*
X327298Y36660D01*
X326969Y35864D01*
Y35836D01*
X323238Y32106D01*
X322845Y31517D01*
X322706Y30822D01*
Y28161D01*
X322497Y27952D01*
X293263Y27937D01*
X293056Y28437D01*
X294738Y30119D01*
X295086Y30640D01*
X295208Y31255D01*
X295208Y31255D01*
Y38785D01*
X295208Y38785D01*
X295086Y39399D01*
X294738Y39920D01*
X288050Y46608D01*
X287529Y46956D01*
X286915Y47078D01*
X286915Y47078D01*
X281401D01*
X281301Y47578D01*
X281950Y47847D01*
X282559Y48456D01*
X282889Y49252D01*
Y50113D01*
X282559Y50909D01*
X281950Y51518D01*
X281154Y51848D01*
X280906D01*
Y69690D01*
X281310Y69984D01*
X282227Y69685D01*
X284094Y69390D01*
X285984D01*
X287851Y69685D01*
X289649Y70270D01*
X291333Y71128D01*
X292862Y72238D01*
X294198Y73575D01*
X295309Y75104D01*
X296167Y76788D01*
X296752Y78586D01*
X297047Y80453D01*
Y82343D01*
X296752Y84210D01*
X296167Y86007D01*
X295309Y87691D01*
X294198Y89220D01*
X292862Y90557D01*
X291333Y91668D01*
X289649Y92526D01*
X287851Y93110D01*
X285984Y93405D01*
X284094D01*
X282227Y93110D01*
X281363Y92829D01*
X280906Y93206D01*
Y106534D01*
X281378D01*
X282174Y106864D01*
X282783Y107473D01*
X283113Y108269D01*
Y109130D01*
X282815Y109850D01*
X283116Y109975D01*
X283726Y110584D01*
X284055Y111380D01*
Y112242D01*
X283726Y113038D01*
X283116Y113647D01*
X282320Y113976D01*
X281459D01*
X281405Y113954D01*
X280906Y114288D01*
Y119818D01*
Y121249D01*
X281367Y121440D01*
X286579Y116229D01*
Y112996D01*
X286579Y112996D01*
X286701Y112382D01*
X287049Y111861D01*
X290354Y108556D01*
Y108231D01*
X290684Y107435D01*
X291293Y106826D01*
X292089Y106496D01*
X292950D01*
X293746Y106826D01*
X294355Y107435D01*
X294685Y108231D01*
Y109092D01*
X294355Y109888D01*
X293746Y110497D01*
X292950Y110827D01*
X292625D01*
X291185Y112267D01*
X291392Y112767D01*
X291699D01*
X292495Y113096D01*
X293104Y113706D01*
X293433Y114502D01*
Y115363D01*
X293104Y116159D01*
X292495Y116768D01*
X291699Y117098D01*
X290837D01*
X290290Y116871D01*
X290219Y116874D01*
X289764Y117114D01*
X289741Y117143D01*
X289668Y117508D01*
X289320Y118029D01*
X289320Y118029D01*
X282198Y125151D01*
X281677Y125499D01*
X281063Y125621D01*
X281062Y125623D01*
X280906Y126121D01*
Y130156D01*
Y132032D01*
X285840D01*
X309744Y108128D01*
Y107803D01*
X310074Y107007D01*
X310683Y106398D01*
X311010Y106263D01*
Y105721D01*
X310659Y105576D01*
X310050Y104967D01*
X309720Y104171D01*
Y103309D01*
X310050Y102514D01*
X310659Y101904D01*
X311455Y101575D01*
X312316D01*
X313112Y101904D01*
X313721Y102514D01*
X314051Y103309D01*
Y104171D01*
X313721Y104967D01*
X313112Y105576D01*
X312785Y105711D01*
Y106253D01*
X313136Y106398D01*
X313745Y107007D01*
X314075Y107803D01*
Y108665D01*
X313745Y109460D01*
X313136Y110070D01*
X313094Y110087D01*
Y110628D01*
X313300Y110713D01*
X313909Y111322D01*
X314239Y112118D01*
Y112980D01*
X313909Y113776D01*
X313300Y114385D01*
X312504Y114714D01*
X311643D01*
X310847Y114385D01*
X310238Y113776D01*
X309977Y113145D01*
X309446Y112968D01*
X287641Y134773D01*
X287120Y135121D01*
X286506Y135244D01*
X286505Y135244D01*
X283661D01*
Y135864D01*
X283332Y136660D01*
X282723Y137269D01*
X281927Y137598D01*
X281405D01*
X280906Y138032D01*
Y155910D01*
X297992Y172997D01*
X316067D01*
X316096Y172968D01*
X316892Y172638D01*
X317754D01*
X318549Y172968D01*
X319159Y173577D01*
X319488Y174372D01*
Y175234D01*
X319159Y176030D01*
X318549Y176639D01*
X317754Y176969D01*
X316892D01*
X316096Y176639D01*
X316067Y176610D01*
X297244D01*
X296553Y176472D01*
X295967Y176080D01*
X281367Y161481D01*
X280906Y161672D01*
X280906Y202953D01*
X281272D01*
X282068Y203282D01*
X282677Y203891D01*
X283007Y204687D01*
Y205549D01*
X282677Y206345D01*
X282068Y206954D01*
X281272Y207283D01*
X280906D01*
Y213749D01*
Y217981D01*
X282008D01*
X282238Y217751D01*
X283034Y217421D01*
X283895D01*
X284691Y217751D01*
X285300Y218360D01*
X285630Y219156D01*
Y220017D01*
X285300Y220813D01*
X284691Y221422D01*
X283895Y221752D01*
X283034D01*
X282238Y221422D01*
X282008Y221192D01*
X280906D01*
Y226407D01*
X281367Y226598D01*
X296211Y211755D01*
X296211Y211755D01*
X296732Y211407D01*
X297346Y211284D01*
X304157D01*
X304285Y211156D01*
X305081Y210827D01*
X305943D01*
X306738Y211156D01*
X307347Y211766D01*
X307677Y212561D01*
Y213423D01*
X307347Y214219D01*
X306738Y214828D01*
X305943Y215158D01*
X305081D01*
X304285Y214828D01*
X303953Y214496D01*
X298011D01*
X282923Y229584D01*
X282981Y229873D01*
X283590Y230482D01*
X283920Y231278D01*
Y232139D01*
X283590Y232935D01*
X283253Y233273D01*
X283719Y233739D01*
X284049Y234535D01*
Y235396D01*
X283719Y236192D01*
X283110Y236801D01*
X282314Y237131D01*
X281452D01*
X281311Y237072D01*
X280906Y237445D01*
Y273659D01*
Y281107D01*
X281310Y281401D01*
X282227Y281103D01*
X284094Y280807D01*
X285984D01*
X287851Y281103D01*
X289649Y281687D01*
X291333Y282545D01*
X292862Y283656D01*
X294198Y284992D01*
X295309Y286522D01*
X296167Y288206D01*
X296752Y290003D01*
X297047Y291870D01*
Y293760D01*
X296752Y295627D01*
X296167Y297424D01*
X295309Y299109D01*
X294198Y300638D01*
X292862Y301974D01*
X291333Y303085D01*
X289649Y303943D01*
X287851Y304527D01*
X285984Y304823D01*
X284094D01*
X282227Y304527D01*
X281310Y304229D01*
X281184Y304321D01*
X280906Y304623D01*
Y347638D01*
X383189D01*
X397037Y333789D01*
D02*
G37*
%LPC*%
G36*
X461417Y390184D02*
X460880Y390077D01*
X460424Y389773D01*
X460119Y389317D01*
X460012Y388779D01*
X460119Y388242D01*
X460424Y387786D01*
X460880Y387481D01*
X461417Y387375D01*
X461955Y387481D01*
X462411Y387786D01*
X462715Y388242D01*
X462822Y388779D01*
X462715Y389317D01*
X462411Y389773D01*
X461955Y390077D01*
X461417Y390184D01*
D02*
G37*
G36*
X191240Y388530D02*
X190319Y388347D01*
X189537Y387825D01*
X189015Y387044D01*
X188832Y386122D01*
X189015Y385200D01*
X189537Y384419D01*
X190319Y383897D01*
X191240Y383714D01*
X192162Y383897D01*
X192943Y384419D01*
X193465Y385200D01*
X193649Y386122D01*
X193465Y387044D01*
X192943Y387825D01*
X192162Y388347D01*
X191240Y388530D01*
D02*
G37*
G36*
X460925Y386247D02*
X460388Y386140D01*
X459932Y385836D01*
X459627Y385380D01*
X459520Y384842D01*
X459627Y384305D01*
X459932Y383849D01*
X460388Y383544D01*
X460925Y383438D01*
X461463Y383544D01*
X461919Y383849D01*
X462223Y384305D01*
X462330Y384842D01*
X462223Y385380D01*
X461919Y385836D01*
X461463Y386140D01*
X460925Y386247D01*
D02*
G37*
G36*
X208268Y382409D02*
X207730Y382302D01*
X207275Y381997D01*
X207069Y381690D01*
X207017Y381673D01*
X206566D01*
X206514Y381690D01*
X206309Y381997D01*
X205853Y382302D01*
X205315Y382409D01*
X204778Y382302D01*
X204322Y381997D01*
X204017Y381542D01*
X203910Y381004D01*
X204017Y380466D01*
X204322Y380011D01*
X204778Y379706D01*
X205315Y379599D01*
X205853Y379706D01*
X206309Y380011D01*
X206514Y380317D01*
X206566Y380334D01*
X207017D01*
X207069Y380317D01*
X207275Y380011D01*
X207730Y379706D01*
X208268Y379599D01*
X208806Y379706D01*
X209261Y380011D01*
X209566Y380466D01*
X209673Y381004D01*
X209566Y381542D01*
X209261Y381997D01*
X208806Y382302D01*
X208268Y382409D01*
D02*
G37*
G36*
X486221Y381739D02*
X485299Y381556D01*
X484517Y381034D01*
X483995Y380252D01*
X483812Y379331D01*
X483995Y378409D01*
X484517Y377628D01*
X485299Y377105D01*
X486221Y376922D01*
X487142Y377105D01*
X487924Y377628D01*
X488446Y378409D01*
X488629Y379331D01*
X488446Y380252D01*
X487924Y381034D01*
X487142Y381556D01*
X486221Y381739D01*
D02*
G37*
G36*
X13780Y376818D02*
X12858Y376635D01*
X12077Y376113D01*
X11554Y375331D01*
X11371Y374410D01*
X11554Y373488D01*
X12077Y372706D01*
X12858Y372184D01*
X13780Y372001D01*
X14701Y372184D01*
X15483Y372706D01*
X16005Y373488D01*
X16188Y374410D01*
X16005Y375331D01*
X15483Y376113D01*
X14701Y376635D01*
X13780Y376818D01*
D02*
G37*
G36*
X486221Y375834D02*
X485299Y375650D01*
X484517Y375128D01*
X483995Y374347D01*
X483812Y373425D01*
X483995Y372503D01*
X484517Y371722D01*
X485299Y371200D01*
X486221Y371017D01*
X487142Y371200D01*
X487924Y371722D01*
X488446Y372503D01*
X488629Y373425D01*
X488446Y374347D01*
X487924Y375128D01*
X487142Y375650D01*
X486221Y375834D01*
D02*
G37*
G36*
X541890Y380741D02*
X540578Y380612D01*
X539316Y380229D01*
X538153Y379608D01*
X537134Y378771D01*
X536298Y377752D01*
X535676Y376589D01*
X535294Y375328D01*
X535164Y374016D01*
X535294Y372704D01*
X535676Y371442D01*
X536298Y370279D01*
X537134Y369260D01*
X538153Y368424D01*
X539316Y367802D01*
X540578Y367420D01*
X541890Y367290D01*
X543202Y367420D01*
X544463Y367802D01*
X545626Y368424D01*
X546645Y369260D01*
X547482Y370279D01*
X548103Y371442D01*
X548486Y372704D01*
X548615Y374016D01*
X548486Y375328D01*
X548103Y376589D01*
X547482Y377752D01*
X546645Y378771D01*
X545626Y379608D01*
X544463Y380229D01*
X543202Y380612D01*
X541890Y380741D01*
D02*
G37*
G36*
X469291Y367743D02*
X468754Y367637D01*
X468298Y367332D01*
X467993Y366876D01*
X467886Y366339D01*
X467993Y365801D01*
X468298Y365345D01*
X468754Y365041D01*
X469163Y364959D01*
X469360Y364602D01*
X469392Y364444D01*
X469224Y364192D01*
X469117Y363654D01*
X469224Y363117D01*
X469529Y362661D01*
X469984Y362356D01*
X470522Y362250D01*
X471060Y362356D01*
X471516Y362661D01*
X471820Y363117D01*
X471927Y363654D01*
X471820Y364192D01*
X471516Y364648D01*
X471060Y364952D01*
X470650Y365034D01*
X470454Y365391D01*
X470421Y365549D01*
X470589Y365801D01*
X470696Y366339D01*
X470589Y366876D01*
X470285Y367332D01*
X469829Y367637D01*
X469291Y367743D01*
D02*
G37*
G36*
X437106Y361641D02*
X436569Y361534D01*
X436113Y361230D01*
X435808Y360774D01*
X435701Y360236D01*
X435808Y359699D01*
X436113Y359243D01*
X436569Y358938D01*
X437106Y358831D01*
X437644Y358938D01*
X438100Y359243D01*
X438404Y359699D01*
X438511Y360236D01*
X438404Y360774D01*
X438100Y361230D01*
X437644Y361534D01*
X437106Y361641D01*
D02*
G37*
G36*
X209842Y363413D02*
X209338Y363313D01*
X61772D01*
X61272Y363213D01*
X60849Y362930D01*
X44001Y346082D01*
X43573Y345797D01*
X43269Y345341D01*
X43162Y344803D01*
X43269Y344266D01*
X43573Y343810D01*
X44029Y343505D01*
X44567Y343398D01*
X45105Y343505D01*
X45560Y343810D01*
X45846Y344237D01*
X62312Y360703D01*
X208988D01*
X209118Y360483D01*
X209197Y360203D01*
X208938Y359817D01*
X208831Y359279D01*
X208938Y358741D01*
X209243Y358285D01*
X209699Y357981D01*
X210236Y357874D01*
X210774Y357981D01*
X211230Y358285D01*
X211534Y358741D01*
X211641Y359279D01*
X211534Y359817D01*
X211230Y360272D01*
X210928Y360474D01*
X210847Y360947D01*
X210871Y361067D01*
X211140Y361470D01*
X211247Y362008D01*
X211140Y362545D01*
X210836Y363001D01*
X210380Y363306D01*
X209842Y363413D01*
D02*
G37*
G36*
X449596Y356883D02*
X449058Y356776D01*
X448603Y356471D01*
X448298Y356016D01*
X448191Y355478D01*
X448298Y354940D01*
X448603Y354485D01*
X449058Y354180D01*
X449596Y354073D01*
X450134Y354180D01*
X450590Y354485D01*
X450894Y354940D01*
X451001Y355478D01*
X450894Y356016D01*
X450590Y356471D01*
X450134Y356776D01*
X449596Y356883D01*
D02*
G37*
G36*
X446953Y354878D02*
X446415Y354771D01*
X445959Y354467D01*
X445655Y354011D01*
X445548Y353473D01*
X445655Y352936D01*
X445959Y352480D01*
X446415Y352175D01*
X446953Y352068D01*
X447490Y352175D01*
X447946Y352480D01*
X448251Y352936D01*
X448358Y353473D01*
X448251Y354011D01*
X447946Y354467D01*
X447490Y354771D01*
X446953Y354878D01*
D02*
G37*
G36*
X541890Y362434D02*
X540578Y362305D01*
X539316Y361922D01*
X538153Y361300D01*
X537134Y360464D01*
X536298Y359445D01*
X535676Y358282D01*
X535294Y357021D01*
X535164Y355709D01*
X535294Y354397D01*
X535676Y353135D01*
X536298Y351972D01*
X537134Y350953D01*
X538153Y350117D01*
X539316Y349495D01*
X540578Y349113D01*
X541890Y348983D01*
X543202Y349113D01*
X544463Y349495D01*
X545626Y350117D01*
X546645Y350953D01*
X547482Y351972D01*
X548103Y353135D01*
X548486Y354397D01*
X548615Y355709D01*
X548486Y357021D01*
X548103Y358282D01*
X547482Y359445D01*
X546645Y360464D01*
X545626Y361300D01*
X544463Y361922D01*
X543202Y362305D01*
X541890Y362434D01*
D02*
G37*
G36*
X468799Y354078D02*
X468262Y353971D01*
X467806Y353667D01*
X467501Y353211D01*
X467394Y352673D01*
X467501Y352136D01*
X467754Y351757D01*
X467806Y351450D01*
Y351420D01*
X467754Y351113D01*
X467501Y350734D01*
X467394Y350197D01*
X467501Y349659D01*
X467806Y349203D01*
X468262Y348899D01*
X468799Y348792D01*
X469337Y348899D01*
X469793Y349203D01*
X470097Y349659D01*
X470204Y350197D01*
X470097Y350734D01*
X469844Y351113D01*
X469793Y351420D01*
Y351450D01*
X469844Y351757D01*
X470097Y352136D01*
X470204Y352673D01*
X470097Y353211D01*
X469793Y353667D01*
X469337Y353971D01*
X468799Y354078D01*
D02*
G37*
G36*
X523320Y349760D02*
X522398Y349577D01*
X521617Y349055D01*
X521095Y348273D01*
X520911Y347352D01*
X521095Y346430D01*
X521617Y345649D01*
X522398Y345127D01*
X523320Y344943D01*
X524241Y345127D01*
X525023Y345649D01*
X525545Y346430D01*
X525728Y347352D01*
X525545Y348273D01*
X525023Y349055D01*
X524241Y349577D01*
X523320Y349760D01*
D02*
G37*
G36*
X209252Y345079D02*
X208714Y344972D01*
X208259Y344667D01*
X207954Y344211D01*
X207847Y343674D01*
X207954Y343136D01*
X208259Y342680D01*
X208714Y342376D01*
X209252Y342269D01*
X209790Y342376D01*
X210245Y342680D01*
X210550Y343136D01*
X210657Y343674D01*
X210550Y344211D01*
X210245Y344667D01*
X209790Y344972D01*
X209252Y345079D01*
D02*
G37*
G36*
X447342Y343728D02*
X446805Y343621D01*
X446349Y343316D01*
X446044Y342861D01*
X445938Y342323D01*
X446044Y341785D01*
X446349Y341329D01*
X446805Y341025D01*
X447342Y340918D01*
X447880Y341025D01*
X448336Y341329D01*
X448640Y341785D01*
X448747Y342323D01*
X448640Y342861D01*
X448336Y343316D01*
X447880Y343621D01*
X447342Y343728D01*
D02*
G37*
G36*
X462500Y343334D02*
X461962Y343227D01*
X461507Y342923D01*
X461202Y342467D01*
X461095Y341929D01*
X461202Y341391D01*
X461507Y340936D01*
X461962Y340631D01*
X462500Y340524D01*
X463038Y340631D01*
X463493Y340936D01*
X463798Y341391D01*
X463905Y341929D01*
X463798Y342467D01*
X463493Y342923D01*
X463038Y343227D01*
X462500Y343334D01*
D02*
G37*
G36*
X454232Y343728D02*
X453695Y343621D01*
X453239Y343316D01*
X452934Y342861D01*
X452845Y342414D01*
X452665Y342161D01*
X452481Y341977D01*
X451944Y341870D01*
X451488Y341565D01*
X451183Y341109D01*
X451076Y340572D01*
X451183Y340034D01*
X451488Y339578D01*
X451944Y339274D01*
X452481Y339167D01*
X453019Y339274D01*
X453475Y339578D01*
X453779Y340034D01*
X453868Y340480D01*
X454048Y340734D01*
X454232Y340918D01*
X454770Y341025D01*
X455226Y341329D01*
X455530Y341785D01*
X455637Y342323D01*
X455530Y342861D01*
X455226Y343316D01*
X454770Y343621D01*
X454232Y343728D01*
D02*
G37*
G36*
X523320Y343855D02*
X522398Y343672D01*
X521617Y343149D01*
X521095Y342368D01*
X520911Y341446D01*
X521095Y340525D01*
X521617Y339743D01*
X522398Y339221D01*
X523320Y339038D01*
X524241Y339221D01*
X525023Y339743D01*
X525545Y340525D01*
X525728Y341446D01*
X525545Y342368D01*
X525023Y343149D01*
X524241Y343672D01*
X523320Y343855D01*
D02*
G37*
G36*
X228346Y337413D02*
X227809Y337306D01*
X227353Y337002D01*
X227048Y336546D01*
X226941Y336008D01*
X227048Y335471D01*
X227353Y335015D01*
X227809Y334710D01*
X228346Y334603D01*
X228884Y334710D01*
X229340Y335015D01*
X229644Y335471D01*
X229751Y336008D01*
X229644Y336546D01*
X229340Y337002D01*
X228884Y337306D01*
X228346Y337413D01*
D02*
G37*
G36*
X441749Y331578D02*
X441211Y331471D01*
X440755Y331166D01*
X440451Y330711D01*
X440344Y330173D01*
X440451Y329635D01*
X440755Y329180D01*
X441211Y328875D01*
X441749Y328768D01*
X442286Y328875D01*
X442742Y329180D01*
X443047Y329635D01*
X443153Y330173D01*
X443047Y330711D01*
X442742Y331166D01*
X442286Y331471D01*
X441749Y331578D01*
D02*
G37*
G36*
X426181Y331211D02*
X425643Y331104D01*
X425187Y330800D01*
X424883Y330344D01*
X424776Y329806D01*
X424883Y329269D01*
X425187Y328813D01*
X425643Y328508D01*
X426181Y328401D01*
X426719Y328508D01*
X427174Y328813D01*
X427479Y329269D01*
X427586Y329806D01*
X427479Y330344D01*
X427174Y330800D01*
X426719Y331104D01*
X426181Y331211D01*
D02*
G37*
G36*
X466437Y332917D02*
X465899Y332810D01*
X465444Y332505D01*
X465139Y332049D01*
X465032Y331512D01*
X465139Y330974D01*
X465392Y330596D01*
X465444Y330289D01*
Y330258D01*
X465392Y329952D01*
X465139Y329573D01*
X465032Y329035D01*
X465139Y328498D01*
X465444Y328042D01*
X465899Y327737D01*
X466437Y327630D01*
X466975Y327737D01*
X467430Y328042D01*
X467735Y328498D01*
X467842Y329035D01*
X467735Y329573D01*
X467482Y329952D01*
X467430Y330258D01*
Y330289D01*
X467482Y330596D01*
X467735Y330974D01*
X467842Y331512D01*
X467735Y332049D01*
X467430Y332505D01*
X466975Y332810D01*
X466437Y332917D01*
D02*
G37*
G36*
X199508Y330118D02*
X198817Y329981D01*
X198231Y329589D01*
X197839Y329003D01*
X197702Y328312D01*
X197839Y327621D01*
X198231Y327034D01*
X198817Y326643D01*
X199508Y326505D01*
X200199Y326643D01*
X200785Y327034D01*
X201177Y327621D01*
X201314Y328312D01*
X201177Y329003D01*
X200785Y329589D01*
X200199Y329981D01*
X199508Y330118D01*
D02*
G37*
G36*
X445051Y329184D02*
X444513Y329077D01*
X444058Y328772D01*
X443753Y328316D01*
X443646Y327779D01*
X443753Y327241D01*
X444058Y326785D01*
X444513Y326481D01*
X445051Y326374D01*
X445589Y326481D01*
X446044Y326785D01*
X446349Y327241D01*
X446456Y327779D01*
X446349Y328316D01*
X446044Y328772D01*
X445589Y329077D01*
X445051Y329184D01*
D02*
G37*
G36*
X37221Y325602D02*
X36683Y325495D01*
X36227Y325190D01*
X35923Y324734D01*
X35816Y324197D01*
X35923Y323659D01*
X36227Y323203D01*
X36683Y322899D01*
X37221Y322792D01*
X37758Y322899D01*
X38214Y323203D01*
X38519Y323659D01*
X38625Y324197D01*
X38519Y324734D01*
X38214Y325190D01*
X37758Y325495D01*
X37221Y325602D01*
D02*
G37*
G36*
X268924Y323836D02*
X268387Y323729D01*
X267931Y323425D01*
X267626Y322969D01*
X267519Y322431D01*
X267626Y321894D01*
X267931Y321438D01*
X268387Y321133D01*
X268924Y321026D01*
X269462Y321133D01*
X269918Y321438D01*
X270222Y321894D01*
X270329Y322431D01*
X270222Y322969D01*
X269918Y323425D01*
X269462Y323729D01*
X268924Y323836D01*
D02*
G37*
G36*
X263386D02*
X262848Y323729D01*
X262392Y323425D01*
X262088Y322969D01*
X261981Y322431D01*
X262088Y321894D01*
X262392Y321438D01*
X262848Y321133D01*
X263386Y321026D01*
X263924Y321133D01*
X264379Y321438D01*
X264684Y321894D01*
X264791Y322431D01*
X264684Y322969D01*
X264379Y323425D01*
X263924Y323729D01*
X263386Y323836D01*
D02*
G37*
G36*
X75295Y320499D02*
X74758Y320392D01*
X74302Y320088D01*
X74097Y319781D01*
X74045Y319764D01*
X73593D01*
X73541Y319781D01*
X73336Y320088D01*
X72880Y320392D01*
X72343Y320499D01*
X71805Y320392D01*
X71349Y320088D01*
X71045Y319632D01*
X70938Y319094D01*
X71045Y318557D01*
X71349Y318101D01*
X71805Y317796D01*
X72343Y317690D01*
X72880Y317796D01*
X73336Y318101D01*
X73541Y318408D01*
X73593Y318425D01*
X74045D01*
X74097Y318408D01*
X74302Y318101D01*
X74758Y317796D01*
X75295Y317690D01*
X75833Y317796D01*
X76289Y318101D01*
X76593Y318557D01*
X76700Y319094D01*
X76593Y319632D01*
X76289Y320088D01*
X75833Y320392D01*
X75295Y320499D01*
D02*
G37*
G36*
X541890Y330741D02*
X540578Y330612D01*
X539316Y330229D01*
X538153Y329608D01*
X537134Y328771D01*
X536298Y327752D01*
X535676Y326589D01*
X535294Y325328D01*
X535164Y324016D01*
X535294Y322704D01*
X535676Y321442D01*
X536298Y320279D01*
X537134Y319260D01*
X538153Y318424D01*
X539316Y317802D01*
X540578Y317420D01*
X541890Y317290D01*
X543202Y317420D01*
X544463Y317802D01*
X545626Y318424D01*
X546645Y319260D01*
X547482Y320279D01*
X548103Y321442D01*
X548486Y322704D01*
X548615Y324016D01*
X548486Y325328D01*
X548103Y326589D01*
X547482Y327752D01*
X546645Y328771D01*
X545626Y329608D01*
X544463Y330229D01*
X543202Y330612D01*
X541890Y330741D01*
D02*
G37*
G36*
X157874Y320212D02*
X157183Y320074D01*
X156597Y319683D01*
X156205Y319097D01*
X156068Y318406D01*
X156205Y317714D01*
X156597Y317128D01*
X157183Y316737D01*
X157874Y316599D01*
X158565Y316737D01*
X159151Y317128D01*
X159543Y317714D01*
X159680Y318406D01*
X159543Y319097D01*
X159151Y319683D01*
X158565Y320074D01*
X157874Y320212D01*
D02*
G37*
G36*
X63976Y319523D02*
X63285Y319385D01*
X62699Y318994D01*
X62308Y318408D01*
X62170Y317717D01*
X62308Y317025D01*
X62699Y316439D01*
X63285Y316048D01*
X63976Y315910D01*
X64668Y316048D01*
X65254Y316439D01*
X65645Y317025D01*
X65783Y317717D01*
X65645Y318408D01*
X65254Y318994D01*
X64668Y319385D01*
X63976Y319523D01*
D02*
G37*
G36*
X263386Y318565D02*
X262464Y318382D01*
X261683Y317860D01*
X261161Y317078D01*
X260977Y316157D01*
X261161Y315235D01*
X261683Y314454D01*
X262464Y313931D01*
X263386Y313748D01*
X264307Y313931D01*
X265089Y314454D01*
X265611Y315235D01*
X265794Y316157D01*
X265611Y317078D01*
X265089Y317860D01*
X264307Y318382D01*
X263386Y318565D01*
D02*
G37*
G36*
X268898Y318550D02*
X267976Y318367D01*
X267195Y317845D01*
X266672Y317063D01*
X266489Y316142D01*
X266672Y315220D01*
X267195Y314439D01*
X267976Y313917D01*
X268898Y313733D01*
X269819Y313917D01*
X270601Y314439D01*
X271123Y315220D01*
X271306Y316142D01*
X271123Y317063D01*
X270601Y317845D01*
X269819Y318367D01*
X268898Y318550D01*
D02*
G37*
G36*
X163976Y317259D02*
X163285Y317122D01*
X162699Y316730D01*
X162308Y316144D01*
X162170Y315453D01*
X162308Y314761D01*
X162699Y314176D01*
X163285Y313784D01*
X163976Y313646D01*
X164668Y313784D01*
X165254Y314176D01*
X165645Y314761D01*
X165783Y315453D01*
X165645Y316144D01*
X165254Y316730D01*
X164668Y317122D01*
X163976Y317259D01*
D02*
G37*
G36*
X188189Y315980D02*
X187498Y315842D01*
X186912Y315451D01*
X186520Y314864D01*
X186383Y314173D01*
X186520Y313482D01*
X186912Y312896D01*
X187498Y312504D01*
X188189Y312367D01*
X188880Y312504D01*
X189466Y312896D01*
X189858Y313482D01*
X189995Y314173D01*
X189858Y314864D01*
X189466Y315451D01*
X188880Y315842D01*
X188189Y315980D01*
D02*
G37*
G36*
X76477Y313413D02*
X75939Y313306D01*
X75483Y313001D01*
X75178Y312546D01*
X75072Y312008D01*
X75178Y311470D01*
X75483Y311015D01*
X75939Y310710D01*
X76477Y310603D01*
X77014Y310710D01*
X77470Y311015D01*
X77775Y311470D01*
X77881Y312008D01*
X77775Y312546D01*
X77470Y313001D01*
X77014Y313306D01*
X76477Y313413D01*
D02*
G37*
G36*
X232283Y314806D02*
X231439Y314638D01*
X230722Y314160D01*
X230244Y313443D01*
X230076Y312598D01*
X230244Y311754D01*
X230722Y311037D01*
X231439Y310559D01*
X232283Y310391D01*
X233128Y310559D01*
X233845Y311037D01*
X234323Y311754D01*
X234491Y312598D01*
X234323Y313443D01*
X233845Y314160D01*
X233128Y314638D01*
X232283Y314806D01*
D02*
G37*
G36*
X226432Y311275D02*
X225895Y311168D01*
X225439Y310863D01*
X225134Y310408D01*
X225027Y309870D01*
X225134Y309332D01*
X225439Y308877D01*
X225895Y308572D01*
X226432Y308465D01*
X226970Y308572D01*
X227426Y308877D01*
X227730Y309332D01*
X227837Y309870D01*
X227730Y310408D01*
X227426Y310863D01*
X226970Y311168D01*
X226432Y311275D01*
D02*
G37*
G36*
X12390Y303710D02*
Y301051D01*
X15048D01*
X15004Y301386D01*
X14682Y302163D01*
X14170Y302831D01*
X13502Y303344D01*
X12724Y303666D01*
X12390Y303710D01*
D02*
G37*
G36*
X11390D02*
X11055Y303666D01*
X10278Y303344D01*
X9610Y302831D01*
X9097Y302163D01*
X8775Y301386D01*
X8731Y301051D01*
X11390D01*
Y303710D01*
D02*
G37*
G36*
X48130Y303645D02*
X47439Y303507D01*
X46853Y303116D01*
X46461Y302530D01*
X46323Y301839D01*
X46461Y301147D01*
X46853Y300561D01*
X47439Y300170D01*
X48130Y300032D01*
X48821Y300170D01*
X49407Y300561D01*
X49799Y301147D01*
X49936Y301839D01*
X49799Y302530D01*
X49407Y303116D01*
X48821Y303507D01*
X48130Y303645D01*
D02*
G37*
G36*
X57386Y303592D02*
X56695Y303454D01*
X56109Y303063D01*
X55717Y302477D01*
X55580Y301785D01*
X55717Y301094D01*
X56109Y300508D01*
X56695Y300117D01*
X57386Y299979D01*
X58078Y300117D01*
X58664Y300508D01*
X59055Y301094D01*
X59193Y301785D01*
X59055Y302477D01*
X58664Y303063D01*
X58078Y303454D01*
X57386Y303592D01*
D02*
G37*
G36*
X232687Y301341D02*
X232150Y301234D01*
X231694Y300929D01*
X231389Y300473D01*
X231282Y299936D01*
X231389Y299398D01*
X231694Y298942D01*
X232150Y298638D01*
X232687Y298531D01*
X233225Y298638D01*
X233681Y298942D01*
X233985Y299398D01*
X234092Y299936D01*
X233985Y300473D01*
X233681Y300929D01*
X233225Y301234D01*
X232687Y301341D01*
D02*
G37*
G36*
X34980Y303642D02*
X28799D01*
Y297461D01*
X34980D01*
Y303642D01*
D02*
G37*
G36*
X21890Y303668D02*
X21083Y303562D01*
X20331Y303251D01*
X19686Y302755D01*
X19190Y302110D01*
X18879Y301358D01*
X18772Y300551D01*
X18879Y299744D01*
X19190Y298993D01*
X19686Y298347D01*
X20331Y297852D01*
X21083Y297540D01*
X21890Y297434D01*
X22697Y297540D01*
X23448Y297852D01*
X24094Y298347D01*
X24589Y298993D01*
X24901Y299744D01*
X25007Y300551D01*
X24901Y301358D01*
X24589Y302110D01*
X24094Y302755D01*
X23448Y303251D01*
X22697Y303562D01*
X21890Y303668D01*
D02*
G37*
G36*
X15048Y300051D02*
X12390D01*
Y297393D01*
X12724Y297437D01*
X13502Y297759D01*
X14170Y298271D01*
X14682Y298939D01*
X15004Y299717D01*
X15048Y300051D01*
D02*
G37*
G36*
X11390D02*
X8731D01*
X8775Y299717D01*
X9097Y298939D01*
X9610Y298271D01*
X10278Y297759D01*
X11055Y297437D01*
X11390Y297393D01*
Y300051D01*
D02*
G37*
G36*
X76378Y295802D02*
X75687Y295665D01*
X75101Y295273D01*
X74709Y294687D01*
X74572Y293996D01*
X74709Y293305D01*
X75101Y292719D01*
X75687Y292327D01*
X76378Y292190D01*
X77069Y292327D01*
X77655Y292719D01*
X78047Y293305D01*
X78184Y293996D01*
X78047Y294687D01*
X77655Y295273D01*
X77069Y295665D01*
X76378Y295802D01*
D02*
G37*
G36*
X231496Y294783D02*
X230958Y294676D01*
X230503Y294372D01*
X230198Y293916D01*
X230091Y293378D01*
X230198Y292841D01*
X230503Y292385D01*
X230958Y292080D01*
X231496Y291973D01*
X232034Y292080D01*
X232489Y292385D01*
X232794Y292841D01*
X232901Y293378D01*
X232794Y293916D01*
X232489Y294372D01*
X232034Y294676D01*
X231496Y294783D01*
D02*
G37*
G36*
X133747Y294122D02*
X133210Y294015D01*
X132754Y293710D01*
X132449Y293254D01*
X132342Y292717D01*
X132449Y292179D01*
X132754Y291723D01*
X133210Y291419D01*
X133747Y291312D01*
X134285Y291419D01*
X134741Y291723D01*
X135045Y292179D01*
X135152Y292717D01*
X135045Y293254D01*
X134741Y293710D01*
X134285Y294015D01*
X133747Y294122D01*
D02*
G37*
G36*
X107874Y291169D02*
X107336Y291062D01*
X106881Y290757D01*
X106860Y290726D01*
X40196D01*
X39818Y290978D01*
X39281Y291085D01*
X38743Y290978D01*
X38287Y290674D01*
X37982Y290218D01*
X37876Y289680D01*
X37982Y289143D01*
X38287Y288687D01*
X38743Y288382D01*
X39281Y288276D01*
X39818Y288382D01*
X40274Y288687D01*
X40295Y288719D01*
X106958D01*
X107336Y288466D01*
X107874Y288359D01*
X108412Y288466D01*
X108868Y288770D01*
X109172Y289226D01*
X109279Y289764D01*
X109172Y290301D01*
X108868Y290757D01*
X108412Y291062D01*
X107874Y291169D01*
D02*
G37*
G36*
X31890Y293668D02*
X31083Y293562D01*
X30331Y293251D01*
X29686Y292755D01*
X29190Y292110D01*
X28879Y291358D01*
X28773Y290551D01*
X28879Y289744D01*
X29190Y288993D01*
X29686Y288347D01*
X30331Y287852D01*
X31083Y287540D01*
X31890Y287434D01*
X32697Y287540D01*
X33448Y287852D01*
X34094Y288347D01*
X34589Y288993D01*
X34901Y289744D01*
X35007Y290551D01*
X34901Y291358D01*
X34589Y292110D01*
X34094Y292755D01*
X33448Y293251D01*
X32697Y293562D01*
X31890Y293668D01*
D02*
G37*
G36*
X21890D02*
X21083Y293562D01*
X20331Y293251D01*
X19686Y292755D01*
X19190Y292110D01*
X18879Y291358D01*
X18772Y290551D01*
X18879Y289744D01*
X19190Y288993D01*
X19686Y288347D01*
X20331Y287852D01*
X21083Y287540D01*
X21890Y287434D01*
X22697Y287540D01*
X23448Y287852D01*
X24094Y288347D01*
X24589Y288993D01*
X24901Y289744D01*
X25007Y290551D01*
X24901Y291358D01*
X24589Y292110D01*
X24094Y292755D01*
X23448Y293251D01*
X22697Y293562D01*
X21890Y293668D01*
D02*
G37*
G36*
X11890D02*
X11083Y293562D01*
X10331Y293251D01*
X9686Y292755D01*
X9190Y292110D01*
X8879Y291358D01*
X8772Y290551D01*
X8879Y289744D01*
X9190Y288993D01*
X9686Y288347D01*
X10331Y287852D01*
X11083Y287540D01*
X11890Y287434D01*
X12697Y287540D01*
X13448Y287852D01*
X14094Y288347D01*
X14589Y288993D01*
X14901Y289744D01*
X15007Y290551D01*
X14901Y291358D01*
X14589Y292110D01*
X14094Y292755D01*
X13448Y293251D01*
X12697Y293562D01*
X11890Y293668D01*
D02*
G37*
G36*
X244882Y290212D02*
X244344Y290105D01*
X243888Y289800D01*
X243584Y289344D01*
X243477Y288807D01*
X243584Y288269D01*
X243888Y287813D01*
X244344Y287509D01*
X244882Y287402D01*
X245420Y287509D01*
X245875Y287813D01*
X246180Y288269D01*
X246287Y288807D01*
X246180Y289344D01*
X245875Y289800D01*
X245420Y290105D01*
X244882Y290212D01*
D02*
G37*
G36*
X224803Y289594D02*
X224266Y289487D01*
X223810Y289182D01*
X223505Y288727D01*
X223398Y288189D01*
X223505Y287651D01*
X223810Y287195D01*
X224266Y286891D01*
X224803Y286784D01*
X225341Y286891D01*
X225797Y287195D01*
X226101Y287651D01*
X226208Y288189D01*
X226101Y288727D01*
X225797Y289182D01*
X225341Y289487D01*
X224803Y289594D01*
D02*
G37*
G36*
X162894Y288725D02*
X162356Y288618D01*
X161900Y288313D01*
X161596Y287857D01*
X161489Y287320D01*
X161596Y286782D01*
X161900Y286326D01*
X162356Y286022D01*
X162894Y285915D01*
X163431Y286022D01*
X163887Y286326D01*
X164192Y286782D01*
X164299Y287320D01*
X164192Y287857D01*
X163887Y288313D01*
X163431Y288618D01*
X162894Y288725D01*
D02*
G37*
G36*
X153642Y287921D02*
X153104Y287814D01*
X152648Y287509D01*
X152344Y287053D01*
X152237Y286516D01*
X152344Y285978D01*
X152648Y285522D01*
X153104Y285218D01*
X153642Y285111D01*
X154179Y285218D01*
X154635Y285522D01*
X154940Y285978D01*
X155047Y286516D01*
X154940Y287053D01*
X154635Y287509D01*
X154179Y287814D01*
X153642Y287921D01*
D02*
G37*
G36*
X221260Y284491D02*
X220415Y284323D01*
X219699Y283845D01*
X219220Y283128D01*
X219052Y282283D01*
X219220Y281439D01*
X219699Y280722D01*
X220415Y280244D01*
X221260Y280076D01*
X222105Y280244D01*
X222821Y280722D01*
X223300Y281439D01*
X223468Y282283D01*
X223300Y283128D01*
X222821Y283845D01*
X222105Y284323D01*
X221260Y284491D01*
D02*
G37*
G36*
X31890Y284298D02*
X30968Y284115D01*
X30187Y283593D01*
X29665Y282811D01*
X29481Y281890D01*
X29665Y280968D01*
X30187Y280187D01*
X30968Y279665D01*
X31890Y279481D01*
X32811Y279665D01*
X33593Y280187D01*
X34115Y280968D01*
X34298Y281890D01*
X34115Y282811D01*
X33593Y283593D01*
X32811Y284115D01*
X31890Y284298D01*
D02*
G37*
G36*
X14173D02*
X13251Y284115D01*
X12470Y283593D01*
X11948Y282811D01*
X11765Y281890D01*
X11948Y280968D01*
X12470Y280187D01*
X13251Y279665D01*
X14173Y279481D01*
X15095Y279665D01*
X15876Y280187D01*
X16398Y280968D01*
X16582Y281890D01*
X16398Y282811D01*
X15876Y283593D01*
X15095Y284115D01*
X14173Y284298D01*
D02*
G37*
G36*
X145965Y280784D02*
X145427Y280677D01*
X144971Y280373D01*
X144667Y279917D01*
X144560Y279379D01*
X144667Y278842D01*
X144971Y278386D01*
X145427Y278081D01*
X145965Y277974D01*
X146502Y278081D01*
X146958Y278386D01*
X147263Y278842D01*
X147370Y279379D01*
X147263Y279917D01*
X146958Y280373D01*
X146502Y280677D01*
X145965Y280784D01*
D02*
G37*
G36*
X127277Y283255D02*
X119698D01*
Y275676D01*
X127277D01*
Y283255D01*
D02*
G37*
G36*
X192913Y276609D02*
X192222Y276472D01*
X191636Y276080D01*
X191430Y275772D01*
X191225Y275501D01*
X190789Y275644D01*
X190695Y275707D01*
X190157Y275814D01*
X189620Y275707D01*
X189164Y275403D01*
X188859Y274947D01*
X188752Y274409D01*
X188859Y273872D01*
X189164Y273416D01*
X189620Y273111D01*
X190157Y273005D01*
X190695Y273111D01*
X191151Y273416D01*
X191152Y273418D01*
X191767Y273438D01*
X192222Y273134D01*
X192913Y272997D01*
X193605Y273134D01*
X194191Y273526D01*
X194582Y274112D01*
X194720Y274803D01*
X194582Y275494D01*
X194191Y276080D01*
X193605Y276472D01*
X192913Y276609D01*
D02*
G37*
G36*
X269291Y270912D02*
X268370Y270729D01*
X267588Y270207D01*
X267376Y269889D01*
X266876D01*
X266664Y270207D01*
X265882Y270729D01*
X264961Y270912D01*
X264039Y270729D01*
X263258Y270207D01*
X262736Y269426D01*
X262552Y268504D01*
X262736Y267582D01*
X263258Y266801D01*
X264039Y266279D01*
X264961Y266095D01*
X265882Y266279D01*
X266664Y266801D01*
X266876Y267119D01*
X267376D01*
X267588Y266801D01*
X268370Y266279D01*
X269291Y266095D01*
X270213Y266279D01*
X270994Y266801D01*
X271516Y267582D01*
X271700Y268504D01*
X271516Y269426D01*
X270994Y270207D01*
X270213Y270729D01*
X269291Y270912D01*
D02*
G37*
G36*
X150909Y271877D02*
X150372Y271770D01*
X149916Y271466D01*
X149611Y271010D01*
X149504Y270472D01*
X149611Y269935D01*
X149916Y269479D01*
X150372Y269174D01*
X150909Y269068D01*
X151447Y269174D01*
X151903Y269479D01*
X152207Y269935D01*
X152314Y270472D01*
X152207Y271010D01*
X151903Y271466D01*
X151447Y271770D01*
X150909Y271877D01*
D02*
G37*
G36*
X115551D02*
X115014Y271770D01*
X114558Y271466D01*
X114253Y271010D01*
X114146Y270472D01*
X114253Y269935D01*
X114558Y269479D01*
X115014Y269174D01*
X115551Y269068D01*
X116089Y269174D01*
X116545Y269479D01*
X116849Y269935D01*
X116956Y270472D01*
X116849Y271010D01*
X116545Y271466D01*
X116089Y271770D01*
X115551Y271877D01*
D02*
G37*
G36*
X114370Y287330D02*
X113832Y287223D01*
X113377Y286919D01*
X113072Y286463D01*
X112965Y285925D01*
X113072Y285388D01*
X113367Y284947D01*
Y282995D01*
X99273Y268901D01*
X78406D01*
X77188Y270119D01*
X76863Y270337D01*
X76479Y270413D01*
X54600D01*
X54160Y270708D01*
X53622Y270814D01*
X53084Y270708D01*
X52628Y270403D01*
X52324Y269947D01*
X52217Y269410D01*
X52324Y268872D01*
X52628Y268416D01*
X53084Y268112D01*
X53622Y268005D01*
X54160Y268112D01*
X54600Y268406D01*
X76063D01*
X77281Y267188D01*
X77607Y266970D01*
X77991Y266894D01*
X99689D01*
X100073Y266970D01*
X100398Y267188D01*
X115080Y281870D01*
X115297Y282195D01*
X115374Y282579D01*
Y284947D01*
X115668Y285388D01*
X115775Y285925D01*
X115668Y286463D01*
X115364Y286919D01*
X114908Y287223D01*
X114370Y287330D01*
D02*
G37*
G36*
X214961Y269137D02*
X214116Y268969D01*
X213400Y268490D01*
X212921Y267774D01*
X212753Y266929D01*
X212921Y266084D01*
X213400Y265368D01*
X214116Y264889D01*
X214961Y264721D01*
X215806Y264889D01*
X216522Y265368D01*
X217000Y266084D01*
X217168Y266929D01*
X217000Y267774D01*
X216522Y268490D01*
X215806Y268969D01*
X214961Y269137D01*
D02*
G37*
G36*
X29862Y269783D02*
X23681D01*
Y263602D01*
X29862D01*
Y269783D01*
D02*
G37*
G36*
X36772Y269810D02*
X35965Y269704D01*
X35213Y269392D01*
X34567Y268897D01*
X34072Y268251D01*
X33761Y267500D01*
X33654Y266693D01*
X33761Y265886D01*
X34072Y265134D01*
X34567Y264489D01*
X35213Y263993D01*
X35965Y263682D01*
X36772Y263576D01*
X37578Y263682D01*
X38330Y263993D01*
X38976Y264489D01*
X39471Y265134D01*
X39783Y265886D01*
X39889Y266693D01*
X39783Y267500D01*
X39471Y268251D01*
X38976Y268897D01*
X38330Y269392D01*
X37578Y269704D01*
X36772Y269810D01*
D02*
G37*
G36*
X269291Y264791D02*
X268754Y264684D01*
X268298Y264379D01*
X267993Y263924D01*
X267886Y263386D01*
X267993Y262848D01*
X268298Y262392D01*
X268754Y262088D01*
X269291Y261981D01*
X269829Y262088D01*
X270285Y262392D01*
X270589Y262848D01*
X270696Y263386D01*
X270589Y263924D01*
X270285Y264379D01*
X269829Y264684D01*
X269291Y264791D01*
D02*
G37*
G36*
X264961D02*
X264423Y264684D01*
X263967Y264379D01*
X263663Y263924D01*
X263556Y263386D01*
X263663Y262848D01*
X263967Y262392D01*
X264423Y262088D01*
X264961Y261981D01*
X265498Y262088D01*
X265954Y262392D01*
X266259Y262848D01*
X266366Y263386D01*
X266259Y263924D01*
X265954Y264379D01*
X265498Y264684D01*
X264961Y264791D01*
D02*
G37*
G36*
X164432Y264476D02*
X163894Y264369D01*
X163438Y264064D01*
X163134Y263609D01*
X163027Y263071D01*
X163134Y262533D01*
X163438Y262077D01*
X163894Y261773D01*
X164432Y261666D01*
X164970Y261773D01*
X165425Y262077D01*
X165730Y262533D01*
X165837Y263071D01*
X165730Y263609D01*
X165425Y264064D01*
X164970Y264369D01*
X164432Y264476D01*
D02*
G37*
G36*
X41732Y264405D02*
X41041Y264267D01*
X40455Y263876D01*
X40063Y263290D01*
X39926Y262598D01*
X40063Y261907D01*
X40455Y261321D01*
X41041Y260930D01*
X41732Y260792D01*
X42423Y260930D01*
X43010Y261321D01*
X43401Y261907D01*
X43539Y262598D01*
X43401Y263290D01*
X43010Y263876D01*
X42423Y264267D01*
X41732Y264405D01*
D02*
G37*
G36*
X109555Y263448D02*
X109017Y263341D01*
X108561Y263036D01*
X108257Y262580D01*
X108150Y262043D01*
X108257Y261505D01*
X108561Y261049D01*
X109017Y260745D01*
X109555Y260638D01*
X110092Y260745D01*
X110548Y261049D01*
X110617Y261152D01*
X111218D01*
X111310Y261014D01*
X111766Y260710D01*
X112303Y260603D01*
X112841Y260710D01*
X113297Y261014D01*
X113601Y261470D01*
X113708Y262008D01*
X113601Y262545D01*
X113297Y263001D01*
X112841Y263306D01*
X112303Y263413D01*
X111766Y263306D01*
X111310Y263001D01*
X111241Y262899D01*
X110640D01*
X110548Y263036D01*
X110092Y263341D01*
X109555Y263448D01*
D02*
G37*
G36*
X68504Y262633D02*
X67813Y262496D01*
X67227Y262104D01*
X66835Y261518D01*
X66698Y260827D01*
X66835Y260136D01*
X67227Y259549D01*
X67813Y259158D01*
X68504Y259020D01*
X69195Y259158D01*
X69781Y259549D01*
X70173Y260136D01*
X70310Y260827D01*
X70173Y261518D01*
X69781Y262104D01*
X69195Y262496D01*
X68504Y262633D01*
D02*
G37*
G36*
X178347Y260074D02*
X177655Y259937D01*
X177069Y259545D01*
X176678Y258959D01*
X176540Y258268D01*
X176678Y257576D01*
X177069Y256990D01*
X177655Y256599D01*
X178347Y256461D01*
X179038Y256599D01*
X179624Y256990D01*
X180015Y257576D01*
X180153Y258268D01*
X180015Y258959D01*
X179624Y259545D01*
X179038Y259937D01*
X178347Y260074D01*
D02*
G37*
G36*
X103445Y259688D02*
X102600Y259520D01*
X101884Y259041D01*
X101405Y258325D01*
X101237Y257480D01*
X101405Y256635D01*
X101884Y255919D01*
X102600Y255441D01*
X103445Y255273D01*
X104290Y255441D01*
X105006Y255919D01*
X105485Y256635D01*
X105653Y257480D01*
X105485Y258325D01*
X105006Y259041D01*
X104290Y259520D01*
X103445Y259688D01*
D02*
G37*
G36*
X36772Y259810D02*
X35965Y259704D01*
X35213Y259392D01*
X34567Y258897D01*
X34072Y258252D01*
X33761Y257500D01*
X33654Y256693D01*
X33761Y255886D01*
X34072Y255134D01*
X34567Y254489D01*
X35213Y253993D01*
X35965Y253682D01*
X36772Y253576D01*
X37578Y253682D01*
X38330Y253993D01*
X38976Y254489D01*
X39471Y255134D01*
X39783Y255886D01*
X39889Y256693D01*
X39783Y257500D01*
X39471Y258252D01*
X38976Y258897D01*
X38330Y259392D01*
X37578Y259704D01*
X36772Y259810D01*
D02*
G37*
G36*
X26772D02*
X25965Y259704D01*
X25213Y259392D01*
X24567Y258897D01*
X24072Y258252D01*
X23761Y257500D01*
X23654Y256693D01*
X23761Y255886D01*
X24072Y255134D01*
X24567Y254489D01*
X25213Y253993D01*
X25965Y253682D01*
X26772Y253576D01*
X27578Y253682D01*
X28330Y253993D01*
X28976Y254489D01*
X29471Y255134D01*
X29783Y255886D01*
X29889Y256693D01*
X29783Y257500D01*
X29471Y258252D01*
X28976Y258897D01*
X28330Y259392D01*
X27578Y259704D01*
X26772Y259810D01*
D02*
G37*
G36*
X156927Y256167D02*
X156390Y256060D01*
X155934Y255755D01*
X155629Y255299D01*
X155522Y254762D01*
X155629Y254224D01*
X155934Y253768D01*
X156390Y253464D01*
X156927Y253357D01*
X157465Y253464D01*
X157921Y253768D01*
X158225Y254224D01*
X158332Y254762D01*
X158225Y255299D01*
X157921Y255755D01*
X157465Y256060D01*
X156927Y256167D01*
D02*
G37*
G36*
X127461Y252692D02*
X126769Y252555D01*
X126183Y252163D01*
X125792Y251577D01*
X125654Y250886D01*
X125792Y250195D01*
X126183Y249608D01*
X126769Y249217D01*
X127461Y249079D01*
X128152Y249217D01*
X128738Y249608D01*
X129130Y250195D01*
X129267Y250886D01*
X129130Y251577D01*
X128738Y252163D01*
X128152Y252555D01*
X127461Y252692D01*
D02*
G37*
G36*
X240154Y250498D02*
X239616Y250391D01*
X239161Y250086D01*
X238856Y249631D01*
X238749Y249093D01*
X238856Y248555D01*
X239161Y248099D01*
X239616Y247795D01*
X240154Y247688D01*
X240692Y247795D01*
X241147Y248099D01*
X241452Y248555D01*
X241559Y249093D01*
X241452Y249631D01*
X241147Y250086D01*
X240692Y250391D01*
X240154Y250498D01*
D02*
G37*
G36*
X11811Y261857D02*
X10889Y261674D01*
X10108Y261152D01*
X9586Y260370D01*
X9403Y259449D01*
X9586Y258527D01*
X10108Y257746D01*
X10889Y257224D01*
X11811Y257040D01*
X12636Y257205D01*
X19369Y250471D01*
X19695Y250254D01*
X20079Y250178D01*
X25861D01*
X25965Y249704D01*
X25213Y249393D01*
X24567Y248897D01*
X24072Y248252D01*
X23761Y247500D01*
X23654Y246693D01*
X23761Y245886D01*
X24072Y245134D01*
X24567Y244489D01*
X25213Y243993D01*
X25965Y243682D01*
X26772Y243576D01*
X27578Y243682D01*
X28330Y243993D01*
X28976Y244489D01*
X29471Y245134D01*
X29783Y245886D01*
X29889Y246693D01*
X29783Y247500D01*
X29471Y248252D01*
X28976Y248897D01*
X28330Y249393D01*
X27578Y249704D01*
X27682Y250178D01*
X35861D01*
X35965Y249704D01*
X35213Y249393D01*
X34567Y248897D01*
X34072Y248252D01*
X33761Y247500D01*
X33654Y246693D01*
X33761Y245886D01*
X34072Y245134D01*
X34567Y244489D01*
X35213Y243993D01*
X35965Y243682D01*
X36772Y243576D01*
X37578Y243682D01*
X38330Y243993D01*
X38976Y244489D01*
X39471Y245134D01*
X39783Y245886D01*
X39889Y246693D01*
X39783Y247500D01*
X39471Y248252D01*
X38976Y248897D01*
X38330Y249393D01*
X37578Y249704D01*
X37682Y250178D01*
X41896D01*
X42193Y249714D01*
X42188Y249678D01*
X41636Y249309D01*
X41245Y248723D01*
X41107Y248031D01*
X41245Y247340D01*
X41636Y246754D01*
X42222Y246363D01*
X42913Y246225D01*
X43605Y246363D01*
X44191Y246754D01*
X44582Y247340D01*
X44720Y248031D01*
X44582Y248723D01*
X44191Y249309D01*
X43639Y249678D01*
X43634Y249714D01*
X43931Y250178D01*
X68996D01*
X69071Y249953D01*
X69079Y249678D01*
X68692Y249419D01*
X68387Y248963D01*
X68280Y248425D01*
X68387Y247888D01*
X68692Y247432D01*
X69147Y247127D01*
X69685Y247020D01*
X70223Y247127D01*
X70679Y247432D01*
X70983Y247888D01*
X71090Y248425D01*
X70983Y248963D01*
X70679Y249419D01*
X70291Y249678D01*
X70299Y249953D01*
X70374Y250178D01*
X92790D01*
X92839Y250120D01*
X93011Y249678D01*
X92796Y249357D01*
X92690Y248819D01*
X92796Y248281D01*
X93101Y247826D01*
X93557Y247521D01*
X94095Y247414D01*
X94632Y247521D01*
X95088Y247826D01*
X95393Y248281D01*
X95499Y248819D01*
X95393Y249357D01*
X95178Y249678D01*
X95350Y250120D01*
X95399Y250178D01*
X112941D01*
X113325Y250254D01*
X113651Y250471D01*
X114828Y251649D01*
X115348Y251752D01*
X115804Y252057D01*
X116108Y252513D01*
X116215Y253050D01*
X116108Y253588D01*
X115804Y254044D01*
X115348Y254348D01*
X114810Y254455D01*
X114273Y254348D01*
X113817Y254044D01*
X113512Y253588D01*
X113409Y253068D01*
X112525Y252185D01*
X98770D01*
X98732Y252256D01*
X98557Y252685D01*
X98649Y253150D01*
X98542Y253687D01*
X98238Y254143D01*
X97782Y254448D01*
X97244Y254555D01*
X96706Y254448D01*
X96251Y254143D01*
X95946Y253687D01*
X95839Y253150D01*
X95932Y252685D01*
X95756Y252256D01*
X95718Y252185D01*
X59991D01*
X59953Y252256D01*
X59777Y252685D01*
X59869Y253150D01*
X59763Y253687D01*
X59458Y254143D01*
X59002Y254448D01*
X58465Y254555D01*
X57927Y254448D01*
X57471Y254143D01*
X57167Y253687D01*
X57060Y253150D01*
X57152Y252685D01*
X56976Y252256D01*
X56938Y252185D01*
X52963D01*
X52811Y252685D01*
X52821Y252691D01*
X53125Y253147D01*
X53232Y253684D01*
X53125Y254222D01*
X52821Y254678D01*
X52365Y254982D01*
X51827Y255089D01*
X51290Y254982D01*
X50834Y254678D01*
X50529Y254222D01*
X50422Y253684D01*
X50529Y253147D01*
X50834Y252691D01*
X50844Y252685D01*
X50692Y252185D01*
X20494D01*
X14055Y258624D01*
X14220Y259449D01*
X14036Y260370D01*
X13514Y261152D01*
X12733Y261674D01*
X11811Y261857D01*
D02*
G37*
G36*
X189528Y249181D02*
X188990Y249074D01*
X188549Y248780D01*
X186752D01*
X186368Y248703D01*
X186043Y248486D01*
X180687Y243130D01*
X116594D01*
X116209Y243053D01*
X115884Y242836D01*
X108648Y235600D01*
X67702D01*
X67317Y235523D01*
X66992Y235306D01*
X61409Y229723D01*
X61191Y229397D01*
X61115Y229013D01*
Y228497D01*
X60003Y227386D01*
X59483Y227282D01*
X59027Y226978D01*
X58723Y226522D01*
X58616Y225984D01*
X58723Y225447D01*
X59027Y224991D01*
X59483Y224686D01*
X60021Y224579D01*
X60559Y224686D01*
X61014Y224991D01*
X61319Y225447D01*
X61422Y225967D01*
X62828Y227372D01*
X63046Y227698D01*
X63122Y228082D01*
Y228597D01*
X68117Y233593D01*
X109063D01*
X109448Y233669D01*
X109773Y233887D01*
X117009Y241123D01*
X166854D01*
X167006Y240623D01*
X166535Y240308D01*
X166013Y239527D01*
X165830Y238605D01*
X166013Y237683D01*
X166535Y236902D01*
X167316Y236380D01*
X168238Y236197D01*
X169160Y236380D01*
X169941Y236902D01*
X170207Y237300D01*
X178177D01*
X183344Y232134D01*
Y146868D01*
X180651Y144174D01*
X180587Y144179D01*
X180140Y144371D01*
X180066Y144744D01*
X179762Y145200D01*
X179306Y145505D01*
X178768Y145612D01*
X178231Y145505D01*
X177775Y145200D01*
X177630Y144983D01*
X177307D01*
X177307Y144983D01*
X177000Y144922D01*
X176740Y144748D01*
X176740Y144748D01*
X174661Y142669D01*
X141913D01*
X141605Y142608D01*
X141345Y142434D01*
X115709Y116798D01*
X115535Y116538D01*
X115474Y116231D01*
Y112743D01*
X113244Y110514D01*
X113019Y110558D01*
X112482Y110451D01*
X112026Y110147D01*
X111721Y109691D01*
X111615Y109153D01*
X111721Y108616D01*
X112026Y108160D01*
X112482Y107855D01*
X113019Y107749D01*
X113557Y107855D01*
X114013Y108160D01*
X114317Y108616D01*
X114424Y109153D01*
X114380Y109378D01*
X116844Y111843D01*
X116844Y111843D01*
X117018Y112104D01*
X117080Y112411D01*
Y115898D01*
X118942Y117760D01*
X119404Y117569D01*
Y110896D01*
X126982D01*
Y118475D01*
X120309D01*
X120118Y118937D01*
X142245Y141064D01*
X174994D01*
X175301Y141125D01*
X175561Y141299D01*
X177295Y143032D01*
X177607Y143150D01*
X177842Y142971D01*
X177757Y142445D01*
X176975Y141922D01*
X176453Y141141D01*
X176270Y140219D01*
X176453Y139298D01*
X176975Y138516D01*
X177757Y137994D01*
X178678Y137811D01*
X179600Y137994D01*
X180381Y138516D01*
X180903Y139298D01*
X181087Y140219D01*
X180970Y140804D01*
X185571Y145405D01*
X185854Y145828D01*
X185953Y146327D01*
Y232674D01*
X185854Y233174D01*
X185571Y233597D01*
X179640Y239528D01*
X179217Y239810D01*
X178718Y239910D01*
X170207D01*
X169941Y240308D01*
X169471Y240623D01*
X169622Y241123D01*
X181103D01*
X181487Y241199D01*
X181812Y241417D01*
X187168Y246773D01*
X188549D01*
X188990Y246478D01*
X189528Y246371D01*
X190065Y246478D01*
X190521Y246783D01*
X190826Y247238D01*
X190933Y247776D01*
X190826Y248314D01*
X190521Y248769D01*
X190065Y249074D01*
X189528Y249181D01*
D02*
G37*
G36*
X157038Y248767D02*
X156539Y248668D01*
X156115Y248385D01*
X155833Y247962D01*
X155733Y247463D01*
X155833Y246963D01*
X156115Y246540D01*
X156539Y246257D01*
X157038Y246158D01*
X157537Y246257D01*
X157960Y246540D01*
X158243Y246963D01*
X158342Y247463D01*
X158243Y247962D01*
X157960Y248385D01*
X157537Y248668D01*
X157038Y248767D01*
D02*
G37*
G36*
X180473Y305736D02*
X179935Y305629D01*
X179479Y305324D01*
X179174Y304868D01*
X179068Y304331D01*
X179174Y303793D01*
X179469Y303352D01*
Y290365D01*
X176657Y287552D01*
X176439Y287227D01*
X176363Y286843D01*
Y272674D01*
X176439Y272290D01*
X176657Y271965D01*
X181738Y266883D01*
Y257319D01*
X178031Y253611D01*
X177813Y253286D01*
X177737Y252902D01*
Y246648D01*
X177442Y246207D01*
X177335Y245669D01*
X177442Y245132D01*
X177747Y244676D01*
X178202Y244371D01*
X178740Y244264D01*
X179278Y244371D01*
X179734Y244676D01*
X180038Y245132D01*
X180145Y245669D01*
X180038Y246207D01*
X179744Y246648D01*
Y252486D01*
X183451Y256194D01*
X183669Y256520D01*
X183745Y256904D01*
Y267299D01*
X183669Y267683D01*
X183451Y268008D01*
X178370Y273090D01*
Y286427D01*
X181182Y289239D01*
X181400Y289565D01*
X181476Y289949D01*
Y303352D01*
X181771Y303793D01*
X181878Y304331D01*
X181771Y304868D01*
X181466Y305324D01*
X181010Y305629D01*
X180473Y305736D01*
D02*
G37*
G36*
X63976Y248747D02*
X63439Y248640D01*
X62983Y248336D01*
X62678Y247880D01*
X62571Y247342D01*
X62678Y246805D01*
X62983Y246349D01*
X63439Y246044D01*
X63976Y245938D01*
X64103Y245963D01*
X65716Y244686D01*
X65837Y244623D01*
X65950Y244547D01*
X66010Y244535D01*
X66065Y244507D01*
X66200Y244496D01*
X66334Y244469D01*
X93004Y244330D01*
X93452Y244030D01*
X93990Y243923D01*
X94528Y244030D01*
X94983Y244335D01*
X95288Y244790D01*
X95395Y245328D01*
X95288Y245866D01*
X94983Y246322D01*
X94528Y246626D01*
X93990Y246733D01*
X93452Y246626D01*
X93019Y246337D01*
X66690Y246474D01*
X65342Y247542D01*
X65274Y247880D01*
X64970Y248336D01*
X64514Y248640D01*
X63976Y248747D01*
D02*
G37*
G36*
X242198Y245965D02*
X241660Y245858D01*
X241204Y245553D01*
X240900Y245097D01*
X240793Y244560D01*
X240900Y244022D01*
X241204Y243566D01*
X241660Y243262D01*
X242198Y243155D01*
X242735Y243262D01*
X243191Y243566D01*
X243496Y244022D01*
X243603Y244560D01*
X243496Y245097D01*
X243191Y245553D01*
X242735Y245858D01*
X242198Y245965D01*
D02*
G37*
G36*
X31890Y245499D02*
X31352Y245392D01*
X30896Y245088D01*
X30592Y244632D01*
X30485Y244094D01*
X30592Y243557D01*
X30896Y243101D01*
X31352Y242796D01*
X31890Y242689D01*
X32427Y242796D01*
X32883Y243101D01*
X33188Y243557D01*
X33295Y244094D01*
X33188Y244632D01*
X32883Y245088D01*
X32427Y245392D01*
X31890Y245499D01*
D02*
G37*
G36*
X186614Y244440D02*
X185923Y244303D01*
X185337Y243911D01*
X184945Y243325D01*
X184808Y242634D01*
X184945Y241943D01*
X185337Y241357D01*
X185923Y240965D01*
X186614Y240827D01*
X187305Y240965D01*
X187891Y241357D01*
X188283Y241943D01*
X188420Y242634D01*
X188283Y243325D01*
X187891Y243911D01*
X187305Y244303D01*
X186614Y244440D01*
D02*
G37*
G36*
X255906Y246878D02*
X255083Y246769D01*
X254317Y246452D01*
X253659Y245947D01*
X253154Y245289D01*
X252837Y244523D01*
X252729Y243701D01*
X252837Y242879D01*
X253154Y242112D01*
X253659Y241455D01*
X254317Y240950D01*
X255083Y240632D01*
X255906Y240524D01*
X256728Y240632D01*
X257494Y240950D01*
X258152Y241455D01*
X258657Y242112D01*
X258974Y242879D01*
X259082Y243701D01*
X258974Y244523D01*
X258657Y245289D01*
X258152Y245947D01*
X257494Y246452D01*
X256728Y246769D01*
X255906Y246878D01*
D02*
G37*
G36*
X66551Y241759D02*
X66013Y241652D01*
X65558Y241348D01*
X65253Y240892D01*
X65146Y240354D01*
X65253Y239817D01*
X65558Y239361D01*
X66013Y239056D01*
X66551Y238949D01*
X67089Y239056D01*
X67545Y239361D01*
X67849Y239817D01*
X67956Y240354D01*
X67849Y240892D01*
X67545Y241348D01*
X67089Y241652D01*
X66551Y241759D01*
D02*
G37*
G36*
X30236Y239159D02*
X29699Y239052D01*
X29243Y238748D01*
X28938Y238292D01*
X28831Y237754D01*
X28938Y237217D01*
X29243Y236761D01*
X29699Y236456D01*
X30236Y236349D01*
X30774Y236456D01*
X31230Y236761D01*
X31534Y237217D01*
X31641Y237754D01*
X31534Y238292D01*
X31230Y238748D01*
X30774Y239052D01*
X30236Y239159D01*
D02*
G37*
G36*
X40551Y237625D02*
X40014Y237519D01*
X39558Y237214D01*
X39253Y236758D01*
X39146Y236221D01*
X39253Y235683D01*
X39558Y235227D01*
X40014Y234923D01*
X40551Y234816D01*
X41089Y234923D01*
X41545Y235227D01*
X41849Y235683D01*
X41956Y236221D01*
X41849Y236758D01*
X41545Y237214D01*
X41089Y237519D01*
X40551Y237625D01*
D02*
G37*
G36*
X271797Y235790D02*
X271260Y235683D01*
X270804Y235378D01*
X270499Y234923D01*
X270393Y234385D01*
X270422Y234239D01*
X269951Y234044D01*
X269603Y234564D01*
X268887Y235042D01*
X268042Y235210D01*
X267197Y235042D01*
X266481Y234564D01*
X266002Y233848D01*
X265834Y233003D01*
X266002Y232158D01*
X266481Y231442D01*
X267197Y230963D01*
X268042Y230795D01*
X268887Y230963D01*
X269603Y231442D01*
X270082Y232158D01*
X270250Y233003D01*
X270160Y233456D01*
X270631Y233651D01*
X270804Y233391D01*
X271260Y233087D01*
X271797Y232980D01*
X272335Y233087D01*
X272791Y233391D01*
X273095Y233847D01*
X273202Y234385D01*
X273095Y234923D01*
X272791Y235378D01*
X272335Y235683D01*
X271797Y235790D01*
D02*
G37*
G36*
X116142Y235263D02*
X115604Y235156D01*
X115148Y234852D01*
X114844Y234396D01*
X114737Y233858D01*
X114844Y233321D01*
X115148Y232865D01*
X115604Y232560D01*
X116142Y232453D01*
X116679Y232560D01*
X117135Y232865D01*
X117440Y233321D01*
X117547Y233858D01*
X117440Y234396D01*
X117135Y234852D01*
X116679Y235156D01*
X116142Y235263D01*
D02*
G37*
G36*
X258661Y236460D02*
X257817Y236292D01*
X257100Y235813D01*
X256622Y235097D01*
X256454Y234252D01*
X256622Y233407D01*
X257100Y232691D01*
X257817Y232212D01*
X258661Y232044D01*
X259506Y232212D01*
X260223Y232691D01*
X260701Y233407D01*
X260869Y234252D01*
X260701Y235097D01*
X260223Y235813D01*
X259506Y236292D01*
X258661Y236460D01*
D02*
G37*
G36*
X162894Y234279D02*
X162356Y234172D01*
X161900Y233868D01*
X161596Y233412D01*
X161489Y232874D01*
X161596Y232336D01*
X161900Y231881D01*
X162356Y231576D01*
X162894Y231469D01*
X163431Y231576D01*
X163887Y231881D01*
X164192Y232336D01*
X164299Y232874D01*
X164192Y233412D01*
X163887Y233868D01*
X163431Y234172D01*
X162894Y234279D01*
D02*
G37*
G36*
X69685Y232507D02*
X69147Y232400D01*
X68692Y232096D01*
X68387Y231640D01*
X68280Y231102D01*
X68387Y230565D01*
X68692Y230109D01*
X69147Y229804D01*
X69685Y229697D01*
X70223Y229804D01*
X70679Y230109D01*
X70983Y230565D01*
X71090Y231102D01*
X70983Y231640D01*
X70679Y232096D01*
X70223Y232400D01*
X69685Y232507D01*
D02*
G37*
G36*
X29862Y235531D02*
X23681D01*
Y229350D01*
X29862D01*
Y235531D01*
D02*
G37*
G36*
X36772Y235558D02*
X35965Y235452D01*
X35213Y235140D01*
X34567Y234645D01*
X34072Y233999D01*
X33761Y233248D01*
X33654Y232441D01*
X33761Y231634D01*
X34072Y230882D01*
X34567Y230237D01*
X35213Y229741D01*
X35965Y229430D01*
X36772Y229324D01*
X37578Y229430D01*
X38330Y229741D01*
X38976Y230237D01*
X39471Y230882D01*
X39783Y231634D01*
X39889Y232441D01*
X39783Y233248D01*
X39471Y233999D01*
X38976Y234645D01*
X38330Y235140D01*
X37578Y235452D01*
X36772Y235558D01*
D02*
G37*
G36*
X97244Y232133D02*
X96706Y232026D01*
X96251Y231722D01*
X95946Y231266D01*
X95839Y230728D01*
X95946Y230191D01*
X96251Y229735D01*
X96706Y229430D01*
X97244Y229323D01*
X97782Y229430D01*
X98238Y229735D01*
X98542Y230191D01*
X98649Y230728D01*
X98542Y231266D01*
X98238Y231722D01*
X97782Y232026D01*
X97244Y232133D01*
D02*
G37*
G36*
X223819Y229161D02*
X223281Y229054D01*
X222826Y228749D01*
X222521Y228294D01*
X222414Y227756D01*
X222521Y227218D01*
X222826Y226763D01*
X223281Y226458D01*
X223819Y226351D01*
X224357Y226458D01*
X224812Y226763D01*
X225117Y227218D01*
X225224Y227756D01*
X225117Y228294D01*
X224812Y228749D01*
X224357Y229054D01*
X223819Y229161D01*
D02*
G37*
G36*
X56496Y225224D02*
X55958Y225117D01*
X55503Y224812D01*
X55198Y224357D01*
X55091Y223819D01*
X55198Y223281D01*
X55503Y222826D01*
X55958Y222521D01*
X56496Y222414D01*
X57034Y222521D01*
X57490Y222826D01*
X57794Y223281D01*
X57901Y223819D01*
X57794Y224357D01*
X57490Y224812D01*
X57034Y225117D01*
X56496Y225224D01*
D02*
G37*
G36*
X104224Y225216D02*
X103687Y225109D01*
X103231Y224804D01*
X102926Y224349D01*
X102820Y223811D01*
X102926Y223273D01*
X103231Y222818D01*
X103687Y222513D01*
X104224Y222406D01*
X104762Y222513D01*
X105218Y222818D01*
X105522Y223273D01*
X105629Y223811D01*
X105522Y224349D01*
X105218Y224804D01*
X104762Y225109D01*
X104224Y225216D01*
D02*
G37*
G36*
X146306Y225063D02*
X145768Y224956D01*
X145312Y224652D01*
X145008Y224196D01*
X144901Y223658D01*
X145008Y223120D01*
X145312Y222665D01*
X145768Y222360D01*
X146306Y222253D01*
X146843Y222360D01*
X147299Y222665D01*
X147603Y223120D01*
X147711Y223658D01*
X147603Y224196D01*
X147299Y224652D01*
X146843Y224956D01*
X146306Y225063D01*
D02*
G37*
G36*
X127278Y228809D02*
X119699D01*
Y221231D01*
X127278D01*
Y228809D01*
D02*
G37*
G36*
X69291Y222370D02*
X68754Y222263D01*
X68298Y221958D01*
X67993Y221502D01*
X67886Y220965D01*
X67993Y220427D01*
X68298Y219971D01*
X68754Y219667D01*
X69291Y219560D01*
X69829Y219667D01*
X70122Y219863D01*
X93707D01*
X94147Y219568D01*
X94685Y219461D01*
X95223Y219568D01*
X95679Y219873D01*
X95983Y220328D01*
X96090Y220866D01*
X95983Y221404D01*
X95679Y221860D01*
X95223Y222164D01*
X94685Y222271D01*
X94147Y222164D01*
X93707Y221870D01*
X70344D01*
X70285Y221958D01*
X69829Y222263D01*
X69291Y222370D01*
D02*
G37*
G36*
X36772Y225558D02*
X35965Y225452D01*
X35213Y225141D01*
X34567Y224645D01*
X34072Y224000D01*
X33761Y223248D01*
X33654Y222441D01*
X33761Y221634D01*
X34072Y220882D01*
X34567Y220237D01*
X35213Y219741D01*
X35965Y219430D01*
X36772Y219324D01*
X37578Y219430D01*
X38330Y219741D01*
X38976Y220237D01*
X39471Y220882D01*
X39783Y221634D01*
X39889Y222441D01*
X39783Y223248D01*
X39471Y224000D01*
X38976Y224645D01*
X38330Y225141D01*
X37578Y225452D01*
X36772Y225558D01*
D02*
G37*
G36*
X73622Y218137D02*
X73084Y218030D01*
X72629Y217726D01*
X72139D01*
X71683Y218030D01*
X71146Y218137D01*
X70608Y218030D01*
X70152Y217726D01*
X69848Y217270D01*
X69741Y216732D01*
X69848Y216195D01*
X70152Y215739D01*
X70608Y215434D01*
X71146Y215327D01*
X71683Y215434D01*
X72139Y215739D01*
X72629D01*
X73084Y215434D01*
X73622Y215327D01*
X74160Y215434D01*
X74616Y215739D01*
X74920Y216195D01*
X75027Y216732D01*
X74920Y217270D01*
X74616Y217726D01*
X74160Y218030D01*
X73622Y218137D01*
D02*
G37*
G36*
X56568Y219745D02*
X56030Y219638D01*
X55574Y219334D01*
X55269Y218878D01*
X55163Y218340D01*
X55269Y217803D01*
X55574Y217347D01*
X56030Y217042D01*
X56568Y216936D01*
X57105Y217042D01*
X57561Y217347D01*
X57866Y217803D01*
X57972Y218340D01*
X57866Y218878D01*
X57561Y219334D01*
X57105Y219638D01*
X56568Y219745D01*
D02*
G37*
G36*
X31496Y219122D02*
X30958Y219015D01*
X30503Y218710D01*
X30198Y218254D01*
X30091Y217717D01*
X30198Y217179D01*
X30503Y216723D01*
X30958Y216419D01*
X31496Y216312D01*
X32034Y216419D01*
X32489Y216723D01*
X32794Y217179D01*
X32901Y217717D01*
X32794Y218254D01*
X32489Y218710D01*
X32034Y219015D01*
X31496Y219122D01*
D02*
G37*
G36*
X104724Y218342D02*
X104033Y218204D01*
X103447Y217813D01*
X103056Y217227D01*
X102918Y216535D01*
X103056Y215844D01*
X103447Y215258D01*
X104033Y214867D01*
X104724Y214729D01*
X105416Y214867D01*
X106002Y215258D01*
X106393Y215844D01*
X106531Y216535D01*
X106393Y217227D01*
X106002Y217813D01*
X105416Y218204D01*
X104724Y218342D01*
D02*
G37*
G36*
X223622Y219137D02*
X222777Y218969D01*
X222061Y218490D01*
X221582Y217774D01*
X221414Y216929D01*
X221582Y216084D01*
X222061Y215368D01*
X222777Y214889D01*
X223622Y214721D01*
X224467Y214889D01*
X225183Y215368D01*
X225662Y216084D01*
X225830Y216929D01*
X225662Y217774D01*
X225183Y218490D01*
X224467Y218969D01*
X223622Y219137D01*
D02*
G37*
G36*
X42007Y214311D02*
X41469Y214204D01*
X41014Y213899D01*
X40709Y213443D01*
X40602Y212906D01*
X40709Y212368D01*
X41014Y211912D01*
X41469Y211608D01*
X42007Y211501D01*
X42545Y211608D01*
X43000Y211912D01*
X43305Y212368D01*
X43412Y212906D01*
X43305Y213443D01*
X43000Y213899D01*
X42545Y214204D01*
X42007Y214311D01*
D02*
G37*
G36*
X60039Y213216D02*
X59502Y213109D01*
X59046Y212805D01*
X58741Y212349D01*
X58634Y211811D01*
X58741Y211273D01*
X59046Y210818D01*
X59502Y210513D01*
X60039Y210406D01*
X60577Y210513D01*
X61033Y210818D01*
X61337Y211273D01*
X61444Y211811D01*
X61337Y212349D01*
X61033Y212805D01*
X60577Y213109D01*
X60039Y213216D01*
D02*
G37*
G36*
X156693Y213617D02*
X156002Y213480D01*
X155416Y213088D01*
X155024Y212502D01*
X154887Y211811D01*
X155024Y211120D01*
X155416Y210534D01*
X156002Y210142D01*
X156693Y210005D01*
X157384Y210142D01*
X157970Y210534D01*
X158362Y211120D01*
X158499Y211811D01*
X158362Y212502D01*
X157970Y213088D01*
X157384Y213480D01*
X156693Y213617D01*
D02*
G37*
G36*
X76476Y212527D02*
X75939Y212420D01*
X75483Y212116D01*
X75178Y211660D01*
X75071Y211122D01*
X75178Y210584D01*
X75483Y210129D01*
X75939Y209824D01*
X76476Y209717D01*
X77014Y209824D01*
X77470Y210129D01*
X77774Y210584D01*
X77881Y211122D01*
X77774Y211660D01*
X77470Y212116D01*
X77014Y212420D01*
X76476Y212527D01*
D02*
G37*
G36*
X36772Y215558D02*
X35965Y215452D01*
X35213Y215141D01*
X34567Y214645D01*
X34072Y214000D01*
X33761Y213248D01*
X33654Y212441D01*
X33761Y211634D01*
X34072Y210882D01*
X34567Y210237D01*
X35213Y209741D01*
X35965Y209430D01*
X36772Y209324D01*
X37578Y209430D01*
X38330Y209741D01*
X38976Y210237D01*
X39471Y210882D01*
X39783Y211634D01*
X39889Y212441D01*
X39783Y213248D01*
X39471Y214000D01*
X38976Y214645D01*
X38330Y215141D01*
X37578Y215452D01*
X36772Y215558D01*
D02*
G37*
G36*
X26772D02*
X25965Y215452D01*
X25213Y215141D01*
X24567Y214645D01*
X24072Y214000D01*
X23761Y213248D01*
X23654Y212441D01*
X23761Y211634D01*
X24072Y210882D01*
X24567Y210237D01*
X25213Y209741D01*
X25965Y209430D01*
X26772Y209324D01*
X27578Y209430D01*
X28330Y209741D01*
X28976Y210237D01*
X29471Y210882D01*
X29783Y211634D01*
X29889Y212441D01*
X29783Y213248D01*
X29471Y214000D01*
X28976Y214645D01*
X28330Y215141D01*
X27578Y215452D01*
X26772Y215558D01*
D02*
G37*
G36*
X33071Y210460D02*
X32533Y210353D01*
X32077Y210049D01*
X31773Y209593D01*
X31666Y209055D01*
X31773Y208518D01*
X32077Y208062D01*
X32533Y207757D01*
X33071Y207650D01*
X33608Y207757D01*
X34064Y208062D01*
X34369Y208518D01*
X34476Y209055D01*
X34369Y209593D01*
X34064Y210049D01*
X33608Y210353D01*
X33071Y210460D01*
D02*
G37*
G36*
X59055Y207704D02*
X58517Y207597D01*
X58062Y207293D01*
X57757Y206837D01*
X57650Y206299D01*
X57757Y205762D01*
X58062Y205306D01*
X58517Y205001D01*
X59055Y204894D01*
X59593Y205001D01*
X60049Y205306D01*
X60353Y205762D01*
X60460Y206299D01*
X60353Y206837D01*
X60049Y207293D01*
X59593Y207597D01*
X59055Y207704D01*
D02*
G37*
G36*
X259691Y209039D02*
X258846Y208871D01*
X258130Y208392D01*
X257651Y207676D01*
X257483Y206831D01*
X257651Y205986D01*
X258130Y205270D01*
X258846Y204791D01*
X259691Y204623D01*
X260536Y204791D01*
X261252Y205270D01*
X261731Y205986D01*
X261899Y206831D01*
X261731Y207676D01*
X261252Y208392D01*
X260536Y208871D01*
X259691Y209039D01*
D02*
G37*
G36*
X270472Y206917D02*
X269935Y206810D01*
X269479Y206505D01*
X269174Y206049D01*
X269068Y205512D01*
X269174Y204974D01*
X269479Y204518D01*
X269935Y204214D01*
X270472Y204107D01*
X271010Y204214D01*
X271466Y204518D01*
X271770Y204974D01*
X271877Y205512D01*
X271770Y206049D01*
X271466Y206505D01*
X271010Y206810D01*
X270472Y206917D01*
D02*
G37*
G36*
X98524Y205645D02*
X97832Y205507D01*
X97246Y205116D01*
X96855Y204530D01*
X96717Y203839D01*
X96855Y203147D01*
X97246Y202561D01*
X97832Y202170D01*
X98524Y202032D01*
X99215Y202170D01*
X99801Y202561D01*
X100192Y203147D01*
X100330Y203839D01*
X100192Y204530D01*
X99801Y205116D01*
X99215Y205507D01*
X98524Y205645D01*
D02*
G37*
G36*
X225984Y204555D02*
X225447Y204448D01*
X224991Y204143D01*
X224686Y203687D01*
X224579Y203150D01*
X224686Y202612D01*
X224991Y202156D01*
X225447Y201852D01*
X225984Y201745D01*
X226522Y201852D01*
X226978Y202156D01*
X227282Y202612D01*
X227389Y203150D01*
X227282Y203687D01*
X226978Y204143D01*
X226522Y204448D01*
X225984Y204555D01*
D02*
G37*
G36*
X251529Y204831D02*
X250684Y204663D01*
X249968Y204184D01*
X249490Y203468D01*
X249322Y202623D01*
X249490Y201778D01*
X249968Y201062D01*
X250684Y200583D01*
X251529Y200415D01*
X252374Y200583D01*
X253091Y201062D01*
X253569Y201778D01*
X253737Y202623D01*
X253569Y203468D01*
X253091Y204184D01*
X252374Y204663D01*
X251529Y204831D01*
D02*
G37*
G36*
X118701Y204078D02*
X117856Y203910D01*
X117140Y203431D01*
X116661Y202715D01*
X116493Y201870D01*
X116661Y201025D01*
X117140Y200309D01*
X117856Y199830D01*
X118701Y199662D01*
X119546Y199830D01*
X120262Y200309D01*
X120740Y201025D01*
X120909Y201870D01*
X120740Y202715D01*
X120262Y203431D01*
X119546Y203910D01*
X118701Y204078D01*
D02*
G37*
G36*
X40603Y197862D02*
X40066Y197755D01*
X39610Y197450D01*
X39305Y196994D01*
X39198Y196457D01*
X39305Y195919D01*
X39610Y195463D01*
X40066Y195159D01*
X40603Y195052D01*
X41141Y195159D01*
X41597Y195463D01*
X41901Y195919D01*
X42008Y196457D01*
X41901Y196994D01*
X41597Y197450D01*
X41141Y197755D01*
X40603Y197862D01*
D02*
G37*
G36*
X224016Y197862D02*
X223478Y197755D01*
X223022Y197450D01*
X222718Y196994D01*
X222611Y196457D01*
X222718Y195919D01*
X223022Y195463D01*
X223478Y195159D01*
X224016Y195052D01*
X224553Y195159D01*
X225009Y195463D01*
X225314Y195919D01*
X225421Y196457D01*
X225314Y196994D01*
X225009Y197450D01*
X224553Y197755D01*
X224016Y197862D01*
D02*
G37*
G36*
X75590Y198657D02*
X74899Y198519D01*
X74313Y198128D01*
X73922Y197542D01*
X73784Y196850D01*
X73922Y196159D01*
X74313Y195573D01*
X74899Y195182D01*
X75590Y195044D01*
X76282Y195182D01*
X76868Y195573D01*
X77259Y196159D01*
X77397Y196850D01*
X77259Y197542D01*
X76868Y198128D01*
X76282Y198519D01*
X75590Y198657D01*
D02*
G37*
G36*
X105217Y232133D02*
X104679Y232026D01*
X104223Y231722D01*
X103919Y231266D01*
X103812Y230728D01*
X103919Y230191D01*
X104223Y229735D01*
X104679Y229430D01*
X105111Y229344D01*
X107363Y227093D01*
Y196844D01*
X107068Y196404D01*
X106961Y195866D01*
X107068Y195328D01*
X107373Y194873D01*
X107828Y194568D01*
X108366Y194461D01*
X108904Y194568D01*
X109360Y194873D01*
X109664Y195328D01*
X109771Y195866D01*
X109664Y196404D01*
X109370Y196844D01*
Y227508D01*
X109293Y227892D01*
X109076Y228218D01*
X106612Y230682D01*
X106622Y230728D01*
X106515Y231266D01*
X106210Y231722D01*
X105754Y232026D01*
X105217Y232133D01*
D02*
G37*
G36*
X166142Y212429D02*
X165604Y212322D01*
X165148Y212017D01*
X164844Y211561D01*
X164737Y211024D01*
X164844Y210486D01*
X165148Y210030D01*
X165604Y209726D01*
X166142Y209619D01*
X166679Y209726D01*
X167120Y210020D01*
X169663D01*
X174801Y204883D01*
Y194153D01*
X174301Y194001D01*
X174222Y194119D01*
X173766Y194424D01*
X173228Y194531D01*
X172691Y194424D01*
X172235Y194119D01*
X171930Y193664D01*
X171823Y193126D01*
X171930Y192588D01*
X172235Y192132D01*
X172691Y191828D01*
X173228Y191721D01*
X173766Y191828D01*
X174222Y192132D01*
X174301Y192251D01*
X174801Y192099D01*
Y170127D01*
X174301Y169879D01*
X174043Y170052D01*
X173505Y170159D01*
X172968Y170052D01*
X172512Y169747D01*
X172207Y169291D01*
X172100Y168754D01*
X172207Y168216D01*
X172512Y167760D01*
X172968Y167456D01*
X173505Y167349D01*
X174043Y167456D01*
X174301Y167628D01*
X174801Y167381D01*
Y150180D01*
X174877Y149796D01*
X175095Y149470D01*
X176964Y147601D01*
X177067Y147081D01*
X177372Y146625D01*
X177828Y146321D01*
X178365Y146214D01*
X178903Y146321D01*
X179359Y146625D01*
X179663Y147081D01*
X179770Y147619D01*
X179663Y148156D01*
X179359Y148612D01*
X178903Y148917D01*
X178383Y149020D01*
X176808Y150596D01*
Y205298D01*
X176731Y205682D01*
X176514Y206008D01*
X170788Y211733D01*
X170463Y211951D01*
X170079Y212027D01*
X167120D01*
X166679Y212322D01*
X166142Y212429D01*
D02*
G37*
G36*
X257874Y196287D02*
X257336Y196180D01*
X256881Y195875D01*
X256576Y195420D01*
X256469Y194882D01*
X256576Y194344D01*
X256881Y193888D01*
X257336Y193584D01*
X257874Y193477D01*
X258412Y193584D01*
X258868Y193888D01*
X259172Y194344D01*
X259279Y194882D01*
X259172Y195420D01*
X258868Y195875D01*
X258412Y196180D01*
X257874Y196287D01*
D02*
G37*
G36*
X170035Y195699D02*
X169498Y195592D01*
X169042Y195288D01*
X168737Y194832D01*
X168630Y194294D01*
X168737Y193756D01*
X169042Y193301D01*
X169498Y192996D01*
X170035Y192889D01*
X170573Y192996D01*
X171029Y193301D01*
X171333Y193756D01*
X171440Y194294D01*
X171333Y194832D01*
X171029Y195288D01*
X170573Y195592D01*
X170035Y195699D01*
D02*
G37*
G36*
X226614Y195220D02*
X226077Y195113D01*
X225621Y194809D01*
X225316Y194353D01*
X225209Y193815D01*
X225316Y193278D01*
X225621Y192822D01*
X226077Y192517D01*
X226614Y192410D01*
X227152Y192517D01*
X227608Y192822D01*
X227912Y193278D01*
X228019Y193815D01*
X227912Y194353D01*
X227608Y194809D01*
X227152Y195113D01*
X226614Y195220D01*
D02*
G37*
G36*
X249508Y190027D02*
X248970Y189920D01*
X248514Y189615D01*
X248210Y189160D01*
X248103Y188622D01*
X248210Y188084D01*
X248514Y187629D01*
X248970Y187324D01*
X249508Y187217D01*
X250045Y187324D01*
X250501Y187629D01*
X250806Y188084D01*
X250913Y188622D01*
X250806Y189160D01*
X250501Y189615D01*
X250045Y189920D01*
X249508Y190027D01*
D02*
G37*
G36*
X200000Y188019D02*
X199462Y187912D01*
X199006Y187608D01*
X198702Y187152D01*
X198595Y186614D01*
X198702Y186076D01*
X199006Y185621D01*
X199462Y185316D01*
X200000Y185209D01*
X200538Y185316D01*
X200993Y185621D01*
X201298Y186076D01*
X201405Y186614D01*
X201298Y187152D01*
X200993Y187608D01*
X200538Y187912D01*
X200000Y188019D01*
D02*
G37*
G36*
X28228Y183307D02*
X27691Y183200D01*
X27235Y182896D01*
X26930Y182440D01*
X26823Y181902D01*
X26930Y181365D01*
X27235Y180909D01*
X27691Y180604D01*
X28228Y180497D01*
X28766Y180604D01*
X29222Y180909D01*
X29526Y181365D01*
X29633Y181902D01*
X29526Y182440D01*
X29222Y182896D01*
X28766Y183200D01*
X28228Y183307D01*
D02*
G37*
G36*
X17520Y183098D02*
X16982Y182991D01*
X16526Y182686D01*
X16222Y182231D01*
X16115Y181693D01*
X16222Y181155D01*
X16526Y180700D01*
X16982Y180395D01*
X17520Y180288D01*
X18057Y180395D01*
X18513Y180700D01*
X18818Y181155D01*
X18925Y181693D01*
X18818Y182231D01*
X18513Y182686D01*
X18057Y182991D01*
X17520Y183098D01*
D02*
G37*
G36*
X36693Y180696D02*
X36155Y180589D01*
X35699Y180285D01*
X35395Y179829D01*
X35288Y179291D01*
X35395Y178754D01*
X35699Y178298D01*
X36155Y177993D01*
X36693Y177886D01*
X37231Y177993D01*
X37686Y178298D01*
X37991Y178754D01*
X38098Y179291D01*
X37991Y179829D01*
X37686Y180285D01*
X37231Y180589D01*
X36693Y180696D01*
D02*
G37*
G36*
X131890Y180546D02*
X131199Y180409D01*
X130613Y180017D01*
X130221Y179431D01*
X130083Y178740D01*
X130221Y178049D01*
X130613Y177463D01*
X131199Y177071D01*
X131890Y176934D01*
X132581Y177071D01*
X133167Y177463D01*
X133559Y178049D01*
X133696Y178740D01*
X133559Y179431D01*
X133167Y180017D01*
X132581Y180409D01*
X131890Y180546D01*
D02*
G37*
G36*
X179071Y179358D02*
X178533Y179251D01*
X178077Y178946D01*
X177773Y178490D01*
X177666Y177953D01*
X177773Y177415D01*
X178077Y176959D01*
X178533Y176655D01*
X179071Y176548D01*
X179608Y176655D01*
X180064Y176959D01*
X180369Y177415D01*
X180476Y177953D01*
X180369Y178490D01*
X180064Y178946D01*
X179608Y179251D01*
X179071Y179358D01*
D02*
G37*
G36*
X162894Y179276D02*
X162356Y179169D01*
X161900Y178864D01*
X161596Y178409D01*
X161489Y177871D01*
X161596Y177333D01*
X161900Y176877D01*
X162356Y176573D01*
X162894Y176466D01*
X163431Y176573D01*
X163887Y176877D01*
X164192Y177333D01*
X164299Y177871D01*
X164192Y178409D01*
X163887Y178864D01*
X163431Y179169D01*
X162894Y179276D01*
D02*
G37*
G36*
X153839Y178676D02*
X153147Y178539D01*
X152561Y178147D01*
X152170Y177561D01*
X152032Y176870D01*
X152170Y176179D01*
X152561Y175593D01*
X153147Y175201D01*
X153839Y175064D01*
X154530Y175201D01*
X155116Y175593D01*
X155507Y176179D01*
X155645Y176870D01*
X155507Y177561D01*
X155116Y178147D01*
X154530Y178539D01*
X153839Y178676D01*
D02*
G37*
G36*
X158268Y177783D02*
X157730Y177676D01*
X157274Y177371D01*
X156970Y176916D01*
X156863Y176378D01*
X156970Y175840D01*
X157274Y175384D01*
X157730Y175080D01*
X158268Y174973D01*
X158805Y175080D01*
X159261Y175384D01*
X159566Y175840D01*
X159673Y176378D01*
X159566Y176916D01*
X159261Y177371D01*
X158805Y177676D01*
X158268Y177783D01*
D02*
G37*
G36*
X224410Y175853D02*
X223872Y175746D01*
X223416Y175441D01*
X223112Y174985D01*
X223005Y174448D01*
X223112Y173910D01*
X223416Y173454D01*
X223872Y173150D01*
X224410Y173043D01*
X224947Y173150D01*
X225403Y173454D01*
X225708Y173910D01*
X225814Y174448D01*
X225708Y174985D01*
X225403Y175441D01*
X224947Y175746D01*
X224410Y175853D01*
D02*
G37*
G36*
X107579Y176019D02*
X106887Y175882D01*
X106301Y175490D01*
X105910Y174904D01*
X105772Y174213D01*
X105910Y173521D01*
X106301Y172935D01*
X106887Y172544D01*
X107579Y172406D01*
X108270Y172544D01*
X108856Y172935D01*
X109248Y173521D01*
X109385Y174213D01*
X109248Y174904D01*
X108856Y175490D01*
X108270Y175882D01*
X107579Y176019D01*
D02*
G37*
G36*
X99711Y173693D02*
X99173Y173586D01*
X98717Y173281D01*
X98413Y172825D01*
X98306Y172288D01*
X98413Y171750D01*
X98717Y171294D01*
X99173Y170990D01*
X99711Y170883D01*
X100249Y170990D01*
X100704Y171294D01*
X101009Y171750D01*
X101116Y172288D01*
X101009Y172825D01*
X100704Y173281D01*
X100249Y173586D01*
X99711Y173693D01*
D02*
G37*
G36*
X154331Y173058D02*
X153793Y172951D01*
X153337Y172647D01*
X153033Y172191D01*
X152926Y171653D01*
X153033Y171116D01*
X153337Y170660D01*
X153793Y170355D01*
X154331Y170249D01*
X154868Y170355D01*
X155324Y170660D01*
X155629Y171116D01*
X155736Y171653D01*
X155629Y172191D01*
X155324Y172647D01*
X154868Y172951D01*
X154331Y173058D01*
D02*
G37*
G36*
X146361Y171385D02*
X145824Y171278D01*
X145368Y170974D01*
X145063Y170518D01*
X144956Y169980D01*
X145063Y169443D01*
X145368Y168987D01*
X145824Y168682D01*
X146361Y168575D01*
X146899Y168682D01*
X147355Y168987D01*
X147659Y169443D01*
X147766Y169980D01*
X147659Y170518D01*
X147355Y170974D01*
X146899Y171278D01*
X146361Y171385D01*
D02*
G37*
G36*
X31791Y170598D02*
X31254Y170491D01*
X30798Y170186D01*
X30493Y169731D01*
X30386Y169193D01*
X30493Y168655D01*
X30798Y168200D01*
X31254Y167895D01*
X31791Y167788D01*
X32329Y167895D01*
X32785Y168200D01*
X33089Y168655D01*
X33196Y169193D01*
X33089Y169731D01*
X32785Y170186D01*
X32329Y170491D01*
X31791Y170598D01*
D02*
G37*
G36*
X267717Y169338D02*
X266795Y169154D01*
X266014Y168632D01*
X265491Y167851D01*
X265412Y167454D01*
X264903D01*
X264824Y167851D01*
X264301Y168632D01*
X263520Y169154D01*
X262598Y169338D01*
X261677Y169154D01*
X260895Y168632D01*
X260373Y167851D01*
X260190Y166929D01*
X260373Y166007D01*
X260895Y165226D01*
X261677Y164704D01*
X262074Y164625D01*
Y164115D01*
X261677Y164036D01*
X260895Y163514D01*
X260373Y162733D01*
X260190Y161811D01*
X260373Y160889D01*
X260895Y160108D01*
X261677Y159586D01*
X262598Y159403D01*
X263520Y159586D01*
X264301Y160108D01*
X264824Y160889D01*
X264903Y161286D01*
X265412D01*
X265491Y160889D01*
X266014Y160108D01*
X266795Y159586D01*
X267717Y159403D01*
X268638Y159586D01*
X269420Y160108D01*
X269942Y160889D01*
X270125Y161811D01*
X269942Y162733D01*
X269420Y163514D01*
X268638Y164036D01*
X268241Y164115D01*
Y164625D01*
X268638Y164704D01*
X269420Y165226D01*
X269942Y166007D01*
X270125Y166929D01*
X269942Y167851D01*
X269420Y168632D01*
X268638Y169154D01*
X267717Y169338D01*
D02*
G37*
G36*
X45276Y169712D02*
X44738Y169605D01*
X44282Y169300D01*
X43978Y168845D01*
X43871Y168307D01*
X43978Y167769D01*
X44282Y167314D01*
X44738Y167009D01*
X45276Y166902D01*
X45813Y167009D01*
X46269Y167314D01*
X46574Y167769D01*
X46681Y168307D01*
X46574Y168845D01*
X46269Y169300D01*
X45813Y169605D01*
X45276Y169712D01*
D02*
G37*
G36*
X127277Y173806D02*
X119698D01*
Y166227D01*
X127277D01*
Y173806D01*
D02*
G37*
G36*
X7201Y168629D02*
X6663Y168522D01*
X6207Y168218D01*
X5903Y167762D01*
X5796Y167224D01*
X5903Y166687D01*
X6207Y166231D01*
X6663Y165926D01*
X7201Y165820D01*
X7738Y165926D01*
X8194Y166231D01*
X8499Y166687D01*
X8606Y167224D01*
X8499Y167762D01*
X8194Y168218D01*
X7738Y168522D01*
X7201Y168629D01*
D02*
G37*
G36*
X180315Y168334D02*
X179777Y168227D01*
X179322Y167923D01*
X179017Y167467D01*
X178910Y166929D01*
X179017Y166392D01*
X179322Y165936D01*
X179777Y165631D01*
X180315Y165524D01*
X180853Y165631D01*
X181308Y165936D01*
X181613Y166392D01*
X181720Y166929D01*
X181613Y167467D01*
X181308Y167923D01*
X180853Y168227D01*
X180315Y168334D01*
D02*
G37*
G36*
X103150Y168736D02*
X102458Y168598D01*
X101872Y168206D01*
X101481Y167620D01*
X101343Y166929D01*
X101481Y166238D01*
X101872Y165652D01*
X102458Y165260D01*
X103150Y165123D01*
X103841Y165260D01*
X104427Y165652D01*
X104818Y166238D01*
X104956Y166929D01*
X104818Y167620D01*
X104427Y168206D01*
X103841Y168598D01*
X103150Y168736D01*
D02*
G37*
G36*
X67224Y165881D02*
X66533Y165744D01*
X65947Y165352D01*
X65556Y164766D01*
X65520Y164586D01*
X64965Y164358D01*
X64864Y164423D01*
X64787Y164489D01*
X64684Y165006D01*
X64379Y165462D01*
X63924Y165767D01*
X63386Y165874D01*
X62848Y165767D01*
X62392Y165462D01*
X62088Y165006D01*
X61981Y164469D01*
X62088Y163931D01*
X62392Y163475D01*
X62848Y163171D01*
X63102Y163120D01*
X63252Y162970D01*
Y162845D01*
X63329Y162461D01*
X63546Y162136D01*
X69486Y156196D01*
X69812Y155978D01*
X70196Y155902D01*
X70730D01*
X77324Y149307D01*
X77650Y149090D01*
X78034Y149013D01*
X100787D01*
X101171Y149090D01*
X101497Y149307D01*
X102205Y150016D01*
X103381D01*
X103596Y149872D01*
X104134Y149765D01*
X104672Y149872D01*
X105127Y150176D01*
X105432Y150632D01*
X105539Y151170D01*
X105432Y151707D01*
X105127Y152163D01*
X104672Y152468D01*
X104134Y152575D01*
X103596Y152468D01*
X103140Y152163D01*
X103047Y152023D01*
X101789D01*
X101406Y151946D01*
X101080Y151729D01*
X100372Y151021D01*
X92595D01*
X92443Y151521D01*
X92559Y151598D01*
X92864Y152054D01*
X92907Y152271D01*
X93438Y152377D01*
X93593Y152145D01*
X94049Y151840D01*
X94587Y151733D01*
X95124Y151840D01*
X95580Y152145D01*
X95885Y152601D01*
X95992Y153138D01*
X95885Y153676D01*
X95580Y154132D01*
X95124Y154436D01*
X94587Y154543D01*
X94049Y154436D01*
X93593Y154132D01*
X93289Y153676D01*
X93245Y153459D01*
X92715Y153353D01*
X92559Y153585D01*
X92104Y153890D01*
X91566Y153997D01*
X91028Y153890D01*
X90573Y153585D01*
X90268Y153129D01*
X90161Y152592D01*
X90268Y152054D01*
X90573Y151598D01*
X90689Y151521D01*
X90537Y151021D01*
X78449D01*
X71855Y157615D01*
X71529Y157833D01*
X71145Y157909D01*
X70611D01*
X66647Y161873D01*
X66893Y162334D01*
X67224Y162268D01*
X67916Y162406D01*
X68502Y162797D01*
X68893Y163383D01*
X69031Y164075D01*
X68893Y164766D01*
X68502Y165352D01*
X67916Y165744D01*
X67224Y165881D01*
D02*
G37*
G36*
X104429Y163822D02*
X103584Y163654D01*
X102868Y163175D01*
X102389Y162459D01*
X102221Y161614D01*
X102389Y160769D01*
X102868Y160053D01*
X103584Y159574D01*
X104429Y159406D01*
X105274Y159574D01*
X105990Y160053D01*
X106469Y160769D01*
X106637Y161614D01*
X106469Y162459D01*
X105990Y163175D01*
X105274Y163654D01*
X104429Y163822D01*
D02*
G37*
G36*
X155118Y160460D02*
X154580Y160353D01*
X154125Y160049D01*
X153820Y159593D01*
X153713Y159055D01*
X153820Y158518D01*
X154125Y158062D01*
X154580Y157757D01*
X155118Y157650D01*
X155656Y157757D01*
X156112Y158062D01*
X156416Y158518D01*
X156523Y159055D01*
X156416Y159593D01*
X156112Y160049D01*
X155656Y160353D01*
X155118Y160460D01*
D02*
G37*
G36*
X31496Y158098D02*
X30958Y157991D01*
X30503Y157686D01*
X30198Y157231D01*
X30091Y156693D01*
X30198Y156155D01*
X30503Y155700D01*
X30958Y155395D01*
X31496Y155288D01*
X32034Y155395D01*
X32489Y155700D01*
X32794Y156155D01*
X32901Y156693D01*
X32794Y157231D01*
X32489Y157686D01*
X32034Y157991D01*
X31496Y158098D01*
D02*
G37*
G36*
X132874Y154850D02*
X132336Y154743D01*
X131881Y154438D01*
X131576Y153982D01*
X131469Y153445D01*
X131576Y152907D01*
X131881Y152451D01*
X132336Y152147D01*
X132874Y152040D01*
X133412Y152147D01*
X133868Y152451D01*
X134172Y152907D01*
X134279Y153445D01*
X134172Y153982D01*
X133868Y154438D01*
X133412Y154743D01*
X132874Y154850D01*
D02*
G37*
G36*
X155566Y154227D02*
X155028Y154120D01*
X154572Y153815D01*
X154268Y153359D01*
X154161Y152822D01*
X154268Y152284D01*
X154572Y151828D01*
X155028Y151524D01*
X155566Y151417D01*
X156104Y151524D01*
X156559Y151828D01*
X156864Y152284D01*
X156971Y152822D01*
X156864Y153359D01*
X156559Y153815D01*
X156104Y154120D01*
X155566Y154227D01*
D02*
G37*
G36*
X67323Y154161D02*
X66785Y154054D01*
X66329Y153749D01*
X66025Y153294D01*
X65918Y152756D01*
X66025Y152218D01*
X66329Y151762D01*
X66785Y151458D01*
X67323Y151351D01*
X67861Y151458D01*
X68316Y151762D01*
X68621Y152218D01*
X68728Y152756D01*
X68621Y153294D01*
X68316Y153749D01*
X67861Y154054D01*
X67323Y154161D01*
D02*
G37*
G36*
X19587Y153866D02*
X19049Y153759D01*
X18593Y153454D01*
X18289Y152998D01*
X18182Y152461D01*
X18289Y151923D01*
X18593Y151467D01*
X19049Y151163D01*
X19587Y151056D01*
X20124Y151163D01*
X20580Y151467D01*
X20885Y151923D01*
X20992Y152461D01*
X20885Y152998D01*
X20580Y153454D01*
X20124Y153759D01*
X19587Y153866D01*
D02*
G37*
G36*
X158352Y150519D02*
X157815Y150412D01*
X157359Y150107D01*
X157054Y149651D01*
X156947Y149114D01*
X157054Y148576D01*
X157322Y148175D01*
X157251Y147967D01*
X157074Y147715D01*
X156791Y147771D01*
X156100Y147633D01*
X155514Y147242D01*
X155122Y146656D01*
X154985Y145965D01*
X155122Y145273D01*
X155514Y144687D01*
X156100Y144296D01*
X156791Y144158D01*
X157483Y144296D01*
X158069Y144687D01*
X158460Y145273D01*
X158598Y145965D01*
X158460Y146656D01*
X158069Y147242D01*
X158040Y147261D01*
X158235Y147732D01*
X158352Y147709D01*
X158890Y147816D01*
X159346Y148120D01*
X159650Y148576D01*
X159757Y149114D01*
X159650Y149651D01*
X159346Y150107D01*
X158890Y150412D01*
X158352Y150519D01*
D02*
G37*
G36*
X188386Y146112D02*
X187848Y146005D01*
X187392Y145701D01*
X187088Y145245D01*
X186981Y144707D01*
X187088Y144169D01*
X187392Y143714D01*
X187848Y143409D01*
X188386Y143302D01*
X188924Y143409D01*
X189379Y143714D01*
X189684Y144169D01*
X189791Y144707D01*
X189684Y145245D01*
X189379Y145701D01*
X188924Y146005D01*
X188386Y146112D01*
D02*
G37*
G36*
X261523Y149278D02*
X260701Y149170D01*
X259935Y148852D01*
X259277Y148347D01*
X258772Y147690D01*
X258455Y146923D01*
X258347Y146101D01*
X258455Y145279D01*
X258772Y144513D01*
X259277Y143855D01*
X259935Y143350D01*
X260701Y143033D01*
X261523Y142924D01*
X262346Y143033D01*
X263112Y143350D01*
X263770Y143855D01*
X264275Y144513D01*
X264592Y145279D01*
X264700Y146101D01*
X264592Y146923D01*
X264275Y147690D01*
X263770Y148347D01*
X263112Y148852D01*
X262346Y149170D01*
X261523Y149278D01*
D02*
G37*
G36*
X239432Y144252D02*
X238895Y144144D01*
X238439Y143840D01*
X238134Y143384D01*
X238027Y142847D01*
X238134Y142309D01*
X238439Y141853D01*
X238895Y141549D01*
X239432Y141442D01*
X239970Y141549D01*
X240426Y141853D01*
X240730Y142309D01*
X240837Y142847D01*
X240730Y143384D01*
X240426Y143840D01*
X239970Y144144D01*
X239432Y144252D01*
D02*
G37*
G36*
X192913Y143531D02*
X192376Y143424D01*
X191920Y143119D01*
X191615Y142664D01*
X191508Y142126D01*
X191615Y141588D01*
X191920Y141132D01*
X192376Y140828D01*
X192913Y140721D01*
X193451Y140828D01*
X193907Y141132D01*
X194211Y141588D01*
X194318Y142126D01*
X194211Y142664D01*
X193907Y143119D01*
X193451Y143424D01*
X192913Y143531D01*
D02*
G37*
G36*
X108169Y142554D02*
X107478Y142417D01*
X106892Y142025D01*
X106500Y141439D01*
X106363Y140748D01*
X106500Y140057D01*
X106892Y139471D01*
X107478Y139079D01*
X108169Y138942D01*
X108861Y139079D01*
X109447Y139471D01*
X109838Y140057D01*
X109976Y140748D01*
X109838Y141439D01*
X109447Y142025D01*
X108861Y142417D01*
X108169Y142554D01*
D02*
G37*
G36*
X246850Y140775D02*
X246313Y140668D01*
X245857Y140364D01*
X245552Y139908D01*
X245445Y139370D01*
X245552Y138832D01*
X245857Y138377D01*
X246313Y138072D01*
X246850Y137965D01*
X247388Y138072D01*
X247844Y138377D01*
X248148Y138832D01*
X248255Y139370D01*
X248148Y139908D01*
X247844Y140364D01*
X247388Y140668D01*
X246850Y140775D01*
D02*
G37*
G36*
X85236Y141078D02*
X84545Y140940D01*
X83959Y140549D01*
X83567Y139963D01*
X83430Y139272D01*
X83567Y138580D01*
X83959Y137994D01*
X84545Y137603D01*
X85236Y137465D01*
X85927Y137603D01*
X86514Y137994D01*
X86905Y138580D01*
X87043Y139272D01*
X86905Y139963D01*
X86514Y140549D01*
X85927Y140940D01*
X85236Y141078D01*
D02*
G37*
G36*
X271904Y139371D02*
X271366Y139265D01*
X270910Y138960D01*
X270606Y138504D01*
X270499Y137967D01*
X270606Y137429D01*
X270910Y136973D01*
X271366Y136669D01*
X271904Y136562D01*
X272441Y136669D01*
X272897Y136973D01*
X273202Y137429D01*
X273309Y137967D01*
X273202Y138504D01*
X272897Y138960D01*
X272441Y139265D01*
X271904Y139371D01*
D02*
G37*
G36*
X160215Y136614D02*
X159678Y136507D01*
X159222Y136203D01*
X158917Y135747D01*
X158810Y135209D01*
X158917Y134671D01*
X159222Y134216D01*
X159678Y133911D01*
X160215Y133804D01*
X160753Y133911D01*
X161209Y134216D01*
X161513Y134671D01*
X161620Y135209D01*
X161513Y135747D01*
X161209Y136203D01*
X160753Y136507D01*
X160215Y136614D01*
D02*
G37*
G36*
X207283Y136248D02*
X206746Y136141D01*
X206290Y135836D01*
X205985Y135380D01*
X205878Y134843D01*
X205985Y134305D01*
X206290Y133849D01*
X206746Y133545D01*
X207283Y133438D01*
X207821Y133545D01*
X208277Y133849D01*
X208581Y134305D01*
X208688Y134843D01*
X208581Y135380D01*
X208277Y135836D01*
X207821Y136141D01*
X207283Y136248D01*
D02*
G37*
G36*
X58286Y135032D02*
X57748Y134925D01*
X57292Y134620D01*
X56988Y134165D01*
X56881Y133627D01*
X56988Y133089D01*
X57292Y132634D01*
X57748Y132329D01*
X58286Y132222D01*
X58823Y132329D01*
X59279Y132634D01*
X59584Y133089D01*
X59691Y133627D01*
X59584Y134165D01*
X59279Y134620D01*
X58823Y134925D01*
X58286Y135032D01*
D02*
G37*
G36*
X50984Y126405D02*
X50447Y126298D01*
X49991Y125994D01*
X49686Y125538D01*
X49579Y125000D01*
X49686Y124462D01*
X49991Y124006D01*
X50447Y123702D01*
X50984Y123595D01*
X51522Y123702D01*
X51978Y124006D01*
X52282Y124462D01*
X52389Y125000D01*
X52282Y125538D01*
X51978Y125994D01*
X51522Y126298D01*
X50984Y126405D01*
D02*
G37*
G36*
X162894Y124043D02*
X162356Y123936D01*
X161900Y123631D01*
X161596Y123176D01*
X161489Y122638D01*
X161596Y122100D01*
X161900Y121644D01*
X162356Y121340D01*
X162894Y121233D01*
X163431Y121340D01*
X163887Y121644D01*
X164192Y122100D01*
X164299Y122638D01*
X164192Y123176D01*
X163887Y123631D01*
X163431Y123936D01*
X162894Y124043D01*
D02*
G37*
G36*
X153347Y123846D02*
X152809Y123739D01*
X152353Y123434D01*
X152049Y122979D01*
X151942Y122441D01*
X152049Y121903D01*
X152353Y121448D01*
X152809Y121143D01*
X153347Y121036D01*
X153884Y121143D01*
X154340Y121448D01*
X154645Y121903D01*
X154751Y122441D01*
X154645Y122979D01*
X154340Y123434D01*
X153884Y123739D01*
X153347Y123846D01*
D02*
G37*
G36*
X251302Y124806D02*
X250457Y124638D01*
X249740Y124160D01*
X249262Y123443D01*
X249094Y122599D01*
X249262Y121754D01*
X249740Y121037D01*
X250457Y120559D01*
X251302Y120391D01*
X252146Y120559D01*
X252863Y121037D01*
X253341Y121754D01*
X253509Y122599D01*
X253341Y123443D01*
X252863Y124160D01*
X252146Y124638D01*
X251302Y124806D01*
D02*
G37*
G36*
X107874Y124456D02*
X106952Y124272D01*
X106171Y123750D01*
X105649Y122969D01*
X105465Y122047D01*
X105649Y121125D01*
X106171Y120344D01*
X106952Y119822D01*
X107874Y119639D01*
X108796Y119822D01*
X109577Y120344D01*
X110099Y121125D01*
X110283Y122047D01*
X110099Y122969D01*
X109577Y123750D01*
X108796Y124272D01*
X107874Y124456D01*
D02*
G37*
G36*
X275450Y121688D02*
X274912Y121581D01*
X274457Y121276D01*
X274152Y120820D01*
X274045Y120283D01*
X274152Y119745D01*
X274457Y119289D01*
X274912Y118985D01*
X275450Y118878D01*
X275988Y118985D01*
X276443Y119289D01*
X276748Y119745D01*
X276855Y120283D01*
X276748Y120820D01*
X276443Y121276D01*
X275988Y121581D01*
X275450Y121688D01*
D02*
G37*
G36*
X177953Y118728D02*
X177415Y118621D01*
X176959Y118316D01*
X176655Y117860D01*
X176548Y117323D01*
X176655Y116785D01*
X176959Y116329D01*
X177415Y116025D01*
X177953Y115918D01*
X178490Y116025D01*
X178946Y116329D01*
X179251Y116785D01*
X179358Y117323D01*
X179251Y117860D01*
X178946Y118316D01*
X178490Y118621D01*
X177953Y118728D01*
D02*
G37*
G36*
X275450Y117547D02*
X274912Y117440D01*
X274457Y117135D01*
X274152Y116679D01*
X274045Y116142D01*
X274152Y115604D01*
X274457Y115148D01*
X274912Y114844D01*
X275450Y114737D01*
X275988Y114844D01*
X276443Y115148D01*
X276748Y115604D01*
X276855Y116142D01*
X276748Y116679D01*
X276443Y117135D01*
X275988Y117440D01*
X275450Y117547D01*
D02*
G37*
G36*
X189764Y117153D02*
X189226Y117046D01*
X188770Y116742D01*
X188466Y116286D01*
X188359Y115748D01*
X188466Y115210D01*
X188770Y114755D01*
X189226Y114450D01*
X189764Y114343D01*
X190301Y114450D01*
X190757Y114755D01*
X191062Y115210D01*
X191169Y115748D01*
X191062Y116286D01*
X190757Y116742D01*
X190301Y117046D01*
X189764Y117153D01*
D02*
G37*
G36*
X145768Y115775D02*
X145230Y115668D01*
X144774Y115364D01*
X144470Y114908D01*
X144363Y114370D01*
X144470Y113832D01*
X144774Y113377D01*
X145230Y113072D01*
X145768Y112965D01*
X146305Y113072D01*
X146761Y113377D01*
X147066Y113832D01*
X147173Y114370D01*
X147066Y114908D01*
X146761Y115364D01*
X146305Y115668D01*
X145768Y115775D01*
D02*
G37*
G36*
X246457Y117168D02*
X245612Y117000D01*
X244896Y116522D01*
X244417Y115805D01*
X244249Y114961D01*
X244417Y114116D01*
X244896Y113400D01*
X245612Y112921D01*
X246457Y112753D01*
X247302Y112921D01*
X248018Y113400D01*
X248496Y114116D01*
X248664Y114961D01*
X248496Y115805D01*
X248018Y116522D01*
X247302Y117000D01*
X246457Y117168D01*
D02*
G37*
G36*
X92716Y115381D02*
X92179Y115274D01*
X91723Y114970D01*
X91418Y114514D01*
X91312Y113976D01*
X91418Y113439D01*
X91723Y112983D01*
X92179Y112678D01*
X92716Y112571D01*
X93254Y112678D01*
X93710Y112983D01*
X94015Y113439D01*
X94121Y113976D01*
X94015Y114514D01*
X93710Y114970D01*
X93254Y115274D01*
X92716Y115381D01*
D02*
G37*
G36*
X85885Y115243D02*
X85348Y115136D01*
X84892Y114831D01*
X84587Y114376D01*
X84480Y113838D01*
X84587Y113300D01*
X84892Y112845D01*
X85348Y112540D01*
X85885Y112433D01*
X86423Y112540D01*
X86879Y112845D01*
X87183Y113300D01*
X87290Y113838D01*
X87183Y114376D01*
X86879Y114831D01*
X86423Y115136D01*
X85885Y115243D01*
D02*
G37*
G36*
X39405Y115928D02*
X38483Y115744D01*
X37702Y115222D01*
X37180Y114441D01*
X36997Y113519D01*
X37180Y112598D01*
X37702Y111816D01*
X38483Y111294D01*
X39405Y111111D01*
X40327Y111294D01*
X41108Y111816D01*
X41630Y112598D01*
X41814Y113519D01*
X41630Y114441D01*
X41108Y115222D01*
X40327Y115744D01*
X39405Y115928D01*
D02*
G37*
G36*
X162992Y107310D02*
X162454Y107203D01*
X161999Y106899D01*
X161694Y106443D01*
X161587Y105905D01*
X161694Y105368D01*
X161999Y104912D01*
X162454Y104607D01*
X162992Y104501D01*
X163530Y104607D01*
X163986Y104912D01*
X164290Y105368D01*
X164397Y105905D01*
X164290Y106443D01*
X163986Y106899D01*
X163530Y107203D01*
X162992Y107310D01*
D02*
G37*
G36*
X28051Y107212D02*
X27514Y107105D01*
X27058Y106800D01*
X26753Y106345D01*
X26646Y105807D01*
X26753Y105269D01*
X27058Y104814D01*
X27514Y104509D01*
X28051Y104402D01*
X28589Y104509D01*
X29045Y104814D01*
X29349Y105269D01*
X29456Y105807D01*
X29349Y106345D01*
X29045Y106800D01*
X28589Y107105D01*
X28051Y107212D01*
D02*
G37*
G36*
X114810Y153569D02*
X114272Y153462D01*
X113817Y153158D01*
X113512Y152702D01*
X113405Y152164D01*
X113512Y151627D01*
X113817Y151171D01*
X114272Y150866D01*
X114526Y150816D01*
X115155Y150188D01*
Y125095D01*
X94311Y104252D01*
X77284D01*
X77014Y104432D01*
X76476Y104539D01*
X75939Y104432D01*
X75483Y104127D01*
X75178Y103672D01*
X75071Y103134D01*
X75178Y102596D01*
X75483Y102140D01*
X75939Y101836D01*
X76476Y101729D01*
X77014Y101836D01*
X77470Y102140D01*
X77539Y102244D01*
X94727D01*
X95111Y102321D01*
X95437Y102538D01*
X116868Y123969D01*
X117085Y124295D01*
X117162Y124679D01*
Y150603D01*
X117085Y150987D01*
X116868Y151313D01*
X116182Y151999D01*
X116215Y152164D01*
X116108Y152702D01*
X115804Y153158D01*
X115348Y153462D01*
X114810Y153569D01*
D02*
G37*
G36*
X236235Y105357D02*
X235698Y105250D01*
X235242Y104945D01*
X234937Y104489D01*
X234830Y103952D01*
X234937Y103414D01*
X235242Y102958D01*
X235698Y102654D01*
X236235Y102547D01*
X236773Y102654D01*
X237229Y102958D01*
X237533Y103414D01*
X237640Y103952D01*
X237533Y104489D01*
X237229Y104945D01*
X236773Y105250D01*
X236235Y105357D01*
D02*
G37*
G36*
X118209Y104669D02*
X117672Y104562D01*
X117216Y104257D01*
X116911Y103801D01*
X116804Y103264D01*
X116911Y102726D01*
X117216Y102270D01*
X117672Y101966D01*
X118209Y101859D01*
X118747Y101966D01*
X119203Y102270D01*
X119507Y102726D01*
X119614Y103264D01*
X119507Y103801D01*
X119203Y104257D01*
X118747Y104562D01*
X118209Y104669D01*
D02*
G37*
G36*
X60593Y104539D02*
X60055Y104432D01*
X59599Y104127D01*
X59295Y103672D01*
X59188Y103134D01*
X59295Y102596D01*
X59599Y102140D01*
X60055Y101836D01*
X60593Y101729D01*
X61130Y101836D01*
X61586Y102140D01*
X61891Y102596D01*
X61998Y103134D01*
X61891Y103672D01*
X61586Y104127D01*
X61130Y104432D01*
X60593Y104539D01*
D02*
G37*
G36*
X48228Y103472D02*
X47691Y103365D01*
X47235Y103060D01*
X46930Y102605D01*
X46823Y102067D01*
X46930Y101529D01*
X47235Y101074D01*
X47691Y100769D01*
X48228Y100662D01*
X48766Y100769D01*
X49222Y101074D01*
X49526Y101529D01*
X49633Y102067D01*
X49526Y102605D01*
X49222Y103060D01*
X48766Y103365D01*
X48228Y103472D01*
D02*
G37*
G36*
X229473Y103318D02*
X228935Y103211D01*
X228479Y102907D01*
X228174Y102451D01*
X228068Y101913D01*
X228174Y101376D01*
X228479Y100920D01*
X228935Y100616D01*
X229473Y100508D01*
X230010Y100616D01*
X230466Y100920D01*
X230771Y101376D01*
X230877Y101913D01*
X230771Y102451D01*
X230466Y102907D01*
X230010Y103211D01*
X229473Y103318D01*
D02*
G37*
G36*
X247638Y104176D02*
X246793Y104008D01*
X246077Y103530D01*
X245598Y102813D01*
X245430Y101969D01*
X245598Y101124D01*
X246077Y100407D01*
X246793Y99929D01*
X247638Y99761D01*
X248483Y99929D01*
X249199Y100407D01*
X249677Y101124D01*
X249846Y101969D01*
X249677Y102813D01*
X249199Y103530D01*
X248483Y104008D01*
X247638Y104176D01*
D02*
G37*
G36*
X275984Y99440D02*
X275063Y99257D01*
X274281Y98735D01*
X273911Y98180D01*
X273333D01*
X272963Y98735D01*
X272182Y99257D01*
X271260Y99440D01*
X270338Y99257D01*
X269557Y98735D01*
X269035Y97953D01*
X268851Y97031D01*
X269035Y96110D01*
X269557Y95328D01*
X270338Y94806D01*
X271260Y94623D01*
X272182Y94806D01*
X272963Y95328D01*
X273333Y95883D01*
X273911D01*
X274281Y95328D01*
X275063Y94806D01*
X275984Y94623D01*
X276906Y94806D01*
X277687Y95328D01*
X278209Y96110D01*
X278393Y97031D01*
X278209Y97953D01*
X277687Y98735D01*
X276906Y99257D01*
X275984Y99440D01*
D02*
G37*
G36*
X253649Y97900D02*
X253112Y97793D01*
X252656Y97488D01*
X252351Y97033D01*
X252244Y96495D01*
X252351Y95957D01*
X252656Y95501D01*
X253112Y95197D01*
X253649Y95090D01*
X254187Y95197D01*
X254643Y95501D01*
X254947Y95957D01*
X255054Y96495D01*
X254947Y97033D01*
X254643Y97488D01*
X254187Y97793D01*
X253649Y97900D01*
D02*
G37*
G36*
X106921Y96992D02*
X106383Y96885D01*
X105927Y96580D01*
X105623Y96124D01*
X105516Y95587D01*
X105623Y95049D01*
X105927Y94593D01*
X106383Y94289D01*
X106921Y94182D01*
X107458Y94289D01*
X107914Y94593D01*
X108219Y95049D01*
X108326Y95587D01*
X108219Y96124D01*
X107914Y96580D01*
X107458Y96885D01*
X106921Y96992D01*
D02*
G37*
G36*
X144095Y96295D02*
X143403Y96157D01*
X142817Y95766D01*
X142426Y95179D01*
X142288Y94488D01*
X142426Y93797D01*
X142817Y93211D01*
X143403Y92819D01*
X144095Y92682D01*
X144786Y92819D01*
X145372Y93211D01*
X145763Y93797D01*
X145901Y94488D01*
X145763Y95179D01*
X145372Y95766D01*
X144786Y96157D01*
X144095Y96295D01*
D02*
G37*
G36*
X92126Y95106D02*
X91588Y94999D01*
X91132Y94694D01*
X90828Y94238D01*
X90721Y93701D01*
X90828Y93163D01*
X91132Y92707D01*
X91588Y92403D01*
X92126Y92296D01*
X92664Y92403D01*
X93119Y92707D01*
X93424Y93163D01*
X93531Y93701D01*
X93424Y94238D01*
X93119Y94694D01*
X92664Y94999D01*
X92126Y95106D01*
D02*
G37*
G36*
X224984Y93318D02*
X224447Y93212D01*
X223991Y92907D01*
X223686Y92451D01*
X223579Y91913D01*
X223686Y91376D01*
X223991Y90920D01*
X224447Y90615D01*
X224984Y90509D01*
X225522Y90615D01*
X225978Y90920D01*
X226282Y91376D01*
X226389Y91913D01*
X226282Y92451D01*
X225978Y92907D01*
X225522Y93212D01*
X224984Y93318D01*
D02*
G37*
G36*
X17421Y93046D02*
X16730Y92909D01*
X16144Y92517D01*
X15752Y91931D01*
X15615Y91240D01*
X15752Y90549D01*
X16144Y89963D01*
X16730Y89571D01*
X17421Y89434D01*
X18113Y89571D01*
X18699Y89963D01*
X19090Y90549D01*
X19228Y91240D01*
X19090Y91931D01*
X18699Y92517D01*
X18113Y92909D01*
X17421Y93046D01*
D02*
G37*
G36*
X118272Y91724D02*
X117734Y91617D01*
X117279Y91313D01*
X116974Y90857D01*
X116867Y90319D01*
X116974Y89782D01*
X117279Y89326D01*
X117734Y89021D01*
X118272Y88914D01*
X118810Y89021D01*
X119265Y89326D01*
X119570Y89782D01*
X119677Y90319D01*
X119570Y90857D01*
X119265Y91313D01*
X118810Y91617D01*
X118272Y91724D01*
D02*
G37*
G36*
X229881Y89553D02*
X229343Y89447D01*
X228887Y89142D01*
X228583Y88686D01*
X228476Y88148D01*
X228583Y87611D01*
X228887Y87155D01*
X229343Y86851D01*
X229881Y86744D01*
X230418Y86851D01*
X230874Y87155D01*
X231179Y87611D01*
X231286Y88148D01*
X231179Y88686D01*
X230874Y89142D01*
X230418Y89447D01*
X229881Y89553D01*
D02*
G37*
G36*
X130693Y74739D02*
X130002Y74602D01*
X129416Y74210D01*
X129024Y73624D01*
X128886Y72933D01*
X129024Y72242D01*
X129416Y71656D01*
X130002Y71264D01*
X130693Y71127D01*
X131384Y71264D01*
X131970Y71656D01*
X132362Y72242D01*
X132499Y72933D01*
X132362Y73624D01*
X131970Y74210D01*
X131384Y74602D01*
X130693Y74739D01*
D02*
G37*
G36*
X225590Y73452D02*
X225053Y73345D01*
X224597Y73041D01*
X224292Y72585D01*
X224186Y72047D01*
X224292Y71510D01*
X224597Y71054D01*
X225053Y70749D01*
X225590Y70642D01*
X226128Y70749D01*
X226584Y71054D01*
X226888Y71510D01*
X226995Y72047D01*
X226888Y72585D01*
X226584Y73041D01*
X226128Y73345D01*
X225590Y73452D01*
D02*
G37*
G36*
X20276Y73354D02*
X19738Y73247D01*
X19282Y72942D01*
X18978Y72487D01*
X18871Y71949D01*
X18978Y71411D01*
X19282Y70955D01*
X19738Y70651D01*
X20276Y70544D01*
X20813Y70651D01*
X21269Y70955D01*
X21574Y71411D01*
X21680Y71949D01*
X21574Y72487D01*
X21269Y72942D01*
X20813Y73247D01*
X20276Y73354D01*
D02*
G37*
G36*
X108153Y70499D02*
X107616Y70393D01*
X107160Y70088D01*
X106855Y69632D01*
X106749Y69095D01*
X106855Y68557D01*
X107160Y68101D01*
X107616Y67796D01*
X108153Y67690D01*
X108691Y67796D01*
X109147Y68101D01*
X109451Y68557D01*
X109558Y69095D01*
X109451Y69632D01*
X109147Y70088D01*
X108691Y70393D01*
X108153Y70499D01*
D02*
G37*
G36*
X30709Y70303D02*
X30171Y70196D01*
X29715Y69891D01*
X29411Y69435D01*
X29304Y68898D01*
X29411Y68360D01*
X29715Y67904D01*
X30171Y67600D01*
X30709Y67493D01*
X31246Y67600D01*
X31702Y67904D01*
X32007Y68360D01*
X32114Y68898D01*
X32007Y69435D01*
X31702Y69891D01*
X31246Y70196D01*
X30709Y70303D01*
D02*
G37*
G36*
X148819Y106917D02*
X148281Y106810D01*
X147826Y106505D01*
X147521Y106050D01*
X147414Y105512D01*
X147521Y104974D01*
X147826Y104518D01*
X148016Y104391D01*
Y66377D01*
X147516Y66226D01*
X147434Y66348D01*
X146979Y66652D01*
X146441Y66759D01*
X145903Y66652D01*
X145448Y66348D01*
X145143Y65892D01*
X145036Y65354D01*
X145143Y64817D01*
X145448Y64361D01*
X145903Y64056D01*
X146441Y63949D01*
X146979Y64056D01*
X147434Y64361D01*
X147516Y64483D01*
X148016Y64331D01*
Y62910D01*
X148077Y62603D01*
X148251Y62343D01*
X151366Y59228D01*
Y46600D01*
X151427Y46293D01*
X151601Y46033D01*
X154159Y43475D01*
X154114Y43250D01*
X154221Y42712D01*
X154526Y42257D01*
X154982Y41952D01*
X155519Y41845D01*
X156057Y41952D01*
X156513Y42257D01*
X156817Y42712D01*
X156924Y43250D01*
X156817Y43788D01*
X156513Y44243D01*
X156057Y44548D01*
X155519Y44655D01*
X155294Y44610D01*
X153826Y46079D01*
X154144Y46467D01*
X154261Y46389D01*
X154799Y46282D01*
X155336Y46389D01*
X155792Y46694D01*
X156097Y47150D01*
X156204Y47687D01*
X156097Y48225D01*
X155792Y48681D01*
X155336Y48985D01*
X154799Y49092D01*
X154261Y48985D01*
X153805Y48681D01*
X153501Y48225D01*
X153472Y48080D01*
X152972Y48130D01*
Y59560D01*
X152972Y59560D01*
X152911Y59867D01*
X152737Y60128D01*
X152737Y60128D01*
X149622Y63243D01*
Y104391D01*
X149812Y104518D01*
X150117Y104974D01*
X150224Y105512D01*
X150117Y106050D01*
X149812Y106505D01*
X149356Y106810D01*
X148819Y106917D01*
D02*
G37*
G36*
X206299Y66381D02*
X205454Y66213D01*
X204738Y65734D01*
X204259Y65018D01*
X204091Y64173D01*
X204259Y63328D01*
X204738Y62612D01*
X205454Y62134D01*
X206299Y61966D01*
X207144Y62134D01*
X207860Y62612D01*
X208339Y63328D01*
X208507Y64173D01*
X208339Y65018D01*
X207860Y65734D01*
X207144Y66213D01*
X206299Y66381D01*
D02*
G37*
G36*
X146457Y62822D02*
X145919Y62715D01*
X145463Y62411D01*
X145159Y61955D01*
X145052Y61417D01*
X145159Y60880D01*
X145463Y60424D01*
X145919Y60119D01*
X146457Y60012D01*
X146994Y60119D01*
X147450Y60424D01*
X147755Y60880D01*
X147862Y61417D01*
X147755Y61955D01*
X147450Y62411D01*
X146994Y62715D01*
X146457Y62822D01*
D02*
G37*
G36*
X250000Y66169D02*
X249178Y66061D01*
X248412Y65743D01*
X247754Y65238D01*
X247249Y64581D01*
X246932Y63814D01*
X246823Y62992D01*
X246932Y62170D01*
X247249Y61404D01*
X247754Y60746D01*
X248412Y60241D01*
X249178Y59924D01*
X250000Y59815D01*
X250822Y59924D01*
X251588Y60241D01*
X252246Y60746D01*
X252751Y61404D01*
X253068Y62170D01*
X253177Y62992D01*
X253068Y63814D01*
X252751Y64581D01*
X252246Y65238D01*
X251588Y65743D01*
X250822Y66061D01*
X250000Y66169D01*
D02*
G37*
G36*
X127278Y65440D02*
X119699D01*
Y57861D01*
X127278D01*
Y65440D01*
D02*
G37*
G36*
X244094Y57310D02*
X243557Y57204D01*
X243101Y56899D01*
X242974Y56708D01*
X240344D01*
X240344Y56708D01*
X240037Y56647D01*
X239776Y56473D01*
X205364Y22061D01*
X204974Y21984D01*
X204518Y21679D01*
X204214Y21223D01*
X204107Y20686D01*
X204214Y20148D01*
X204518Y19692D01*
X204974Y19388D01*
X205512Y19281D01*
X206049Y19388D01*
X206505Y19692D01*
X206810Y20148D01*
X206917Y20686D01*
X206810Y21223D01*
X206805Y21231D01*
X240676Y55103D01*
X242974D01*
X243101Y54912D01*
X243557Y54607D01*
X244094Y54501D01*
X244632Y54607D01*
X245088Y54912D01*
X245392Y55368D01*
X245499Y55905D01*
X245392Y56443D01*
X245088Y56899D01*
X244632Y57204D01*
X244094Y57310D01*
D02*
G37*
G36*
X112704Y59513D02*
X112166Y59406D01*
X111710Y59101D01*
X111406Y58645D01*
X111299Y58108D01*
X111406Y57570D01*
X111710Y57114D01*
X112166Y56810D01*
X112704Y56703D01*
X113241Y56810D01*
X113697Y57114D01*
X113765Y57216D01*
X114366D01*
X114459Y57077D01*
X114915Y56773D01*
X115453Y56666D01*
X115990Y56773D01*
X116446Y57077D01*
X116751Y57533D01*
X116858Y58071D01*
X116751Y58609D01*
X116446Y59064D01*
X115990Y59369D01*
X115453Y59476D01*
X114915Y59369D01*
X114459Y59064D01*
X114391Y58962D01*
X113790D01*
X113697Y59101D01*
X113241Y59406D01*
X112704Y59513D01*
D02*
G37*
G36*
X66929Y59287D02*
X66238Y59149D01*
X65652Y58758D01*
X65260Y58172D01*
X65123Y57480D01*
X65260Y56789D01*
X65652Y56203D01*
X66238Y55812D01*
X66929Y55674D01*
X67620Y55812D01*
X68206Y56203D01*
X68598Y56789D01*
X68735Y57480D01*
X68598Y58172D01*
X68206Y58758D01*
X67620Y59149D01*
X66929Y59287D01*
D02*
G37*
G36*
X159055Y52586D02*
X158518Y52479D01*
X158062Y52175D01*
X157757Y51719D01*
X157650Y51181D01*
X157757Y50643D01*
X158062Y50188D01*
X158518Y49883D01*
X159055Y49776D01*
X159593Y49883D01*
X160049Y50188D01*
X160353Y50643D01*
X160460Y51181D01*
X160353Y51719D01*
X160049Y52175D01*
X159593Y52479D01*
X159055Y52586D01*
D02*
G37*
G36*
X68110Y53184D02*
X67419Y53047D01*
X66833Y52655D01*
X66441Y52069D01*
X66303Y51378D01*
X66441Y50687D01*
X66833Y50101D01*
X67419Y49709D01*
X68110Y49572D01*
X68801Y49709D01*
X69387Y50101D01*
X69779Y50687D01*
X69916Y51378D01*
X69779Y52069D01*
X69387Y52655D01*
X68801Y53047D01*
X68110Y53184D01*
D02*
G37*
G36*
X254724Y52601D02*
X253879Y52433D01*
X253163Y51955D01*
X252685Y51239D01*
X252517Y50394D01*
X252685Y49549D01*
X253163Y48833D01*
X253879Y48354D01*
X254724Y48186D01*
X255569Y48354D01*
X256286Y48833D01*
X256764Y49549D01*
X256932Y50394D01*
X256764Y51239D01*
X256286Y51955D01*
X255569Y52433D01*
X254724Y52601D01*
D02*
G37*
G36*
X94488Y49452D02*
X93643Y49284D01*
X92927Y48805D01*
X92449Y48089D01*
X92280Y47244D01*
X92449Y46399D01*
X92927Y45683D01*
X93643Y45204D01*
X94488Y45036D01*
X95333Y45204D01*
X96049Y45683D01*
X96528Y46399D01*
X96696Y47244D01*
X96528Y48089D01*
X96049Y48805D01*
X95333Y49284D01*
X94488Y49452D01*
D02*
G37*
G36*
X114810Y45695D02*
X114272Y45588D01*
X113817Y45284D01*
X113512Y44828D01*
X113405Y44290D01*
X113512Y43753D01*
X113817Y43297D01*
X114272Y42992D01*
X114810Y42886D01*
X115348Y42992D01*
X115804Y43297D01*
X116108Y43753D01*
X116215Y44290D01*
X116108Y44828D01*
X115804Y45284D01*
X115348Y45588D01*
X114810Y45695D01*
D02*
G37*
G36*
X63779Y45401D02*
X63242Y45294D01*
X62786Y44989D01*
X62481Y44534D01*
X62375Y43996D01*
X62481Y43458D01*
X62786Y43003D01*
X63242Y42698D01*
X63779Y42591D01*
X64317Y42698D01*
X64773Y43003D01*
X65078Y43458D01*
X65184Y43996D01*
X65078Y44534D01*
X64773Y44989D01*
X64317Y45294D01*
X63779Y45401D01*
D02*
G37*
G36*
X43209Y43236D02*
X42671Y43129D01*
X42215Y42824D01*
X41911Y42368D01*
X41804Y41831D01*
X41911Y41293D01*
X42215Y40837D01*
X42671Y40533D01*
X43209Y40426D01*
X43746Y40533D01*
X44202Y40837D01*
X44507Y41293D01*
X44614Y41831D01*
X44507Y42368D01*
X44202Y42824D01*
X43746Y43129D01*
X43209Y43236D01*
D02*
G37*
G36*
X235433Y41562D02*
X234895Y41456D01*
X234440Y41151D01*
X234135Y40695D01*
X234028Y40157D01*
X234135Y39620D01*
X234440Y39164D01*
X234895Y38860D01*
X235433Y38752D01*
X235971Y38860D01*
X236426Y39164D01*
X236731Y39620D01*
X236838Y40157D01*
X236731Y40695D01*
X236426Y41151D01*
X235971Y41456D01*
X235433Y41562D01*
D02*
G37*
G36*
X277953Y41169D02*
X277415Y41062D01*
X276959Y40757D01*
X276655Y40301D01*
X276548Y39764D01*
X276655Y39226D01*
X276959Y38770D01*
X277415Y38466D01*
X277953Y38359D01*
X278490Y38466D01*
X278946Y38770D01*
X279251Y39226D01*
X279358Y39764D01*
X279251Y40301D01*
X278946Y40757D01*
X278490Y41062D01*
X277953Y41169D01*
D02*
G37*
G36*
X87008Y41176D02*
X86317Y41039D01*
X85731Y40647D01*
X85339Y40061D01*
X85202Y39370D01*
X85339Y38679D01*
X85731Y38093D01*
X86317Y37701D01*
X87008Y37564D01*
X87699Y37701D01*
X88285Y38093D01*
X88677Y38679D01*
X88814Y39370D01*
X88677Y40061D01*
X88285Y40647D01*
X87699Y41039D01*
X87008Y41176D01*
D02*
G37*
G36*
X272047Y38807D02*
X271510Y38700D01*
X271054Y38395D01*
X270749Y37939D01*
X270642Y37402D01*
X270749Y36864D01*
X271054Y36408D01*
X271510Y36104D01*
X272047Y35997D01*
X272585Y36104D01*
X273041Y36408D01*
X273345Y36864D01*
X273452Y37402D01*
X273345Y37939D01*
X273041Y38395D01*
X272585Y38700D01*
X272047Y38807D01*
D02*
G37*
G36*
X250153Y39498D02*
X249308Y39330D01*
X248592Y38851D01*
X248114Y38135D01*
X247946Y37290D01*
X248114Y36445D01*
X248592Y35729D01*
X249308Y35250D01*
X250153Y35082D01*
X250998Y35250D01*
X251714Y35729D01*
X252193Y36445D01*
X252361Y37290D01*
X252193Y38135D01*
X251714Y38851D01*
X250998Y39330D01*
X250153Y39498D01*
D02*
G37*
G36*
X272047Y34476D02*
X271510Y34369D01*
X271054Y34064D01*
X270749Y33608D01*
X270642Y33071D01*
X270749Y32533D01*
X271054Y32077D01*
X271510Y31773D01*
X272047Y31666D01*
X272585Y31773D01*
X273041Y32077D01*
X273345Y32533D01*
X273452Y33071D01*
X273345Y33608D01*
X273041Y34064D01*
X272585Y34369D01*
X272047Y34476D01*
D02*
G37*
G36*
X103150Y29259D02*
X102612Y29152D01*
X102156Y28848D01*
X101852Y28392D01*
X101745Y27854D01*
X101852Y27317D01*
X102156Y26861D01*
X102612Y26556D01*
X103150Y26449D01*
X103687Y26556D01*
X104143Y26861D01*
X104448Y27317D01*
X104555Y27854D01*
X104448Y28392D01*
X104143Y28848D01*
X103687Y29152D01*
X103150Y29259D01*
D02*
G37*
G36*
X283189Y28688D02*
X282652Y28581D01*
X282196Y28276D01*
X281891Y27821D01*
X281784Y27283D01*
X281891Y26745D01*
X282196Y26289D01*
X282652Y25985D01*
X283189Y25878D01*
X283727Y25985D01*
X284183Y26289D01*
X284487Y26745D01*
X284594Y27283D01*
X284487Y27821D01*
X284183Y28276D01*
X283727Y28581D01*
X283189Y28688D01*
D02*
G37*
G36*
X68504Y25428D02*
X67813Y25291D01*
X67227Y24899D01*
X66835Y24313D01*
X66698Y23622D01*
X66835Y22931D01*
X67227Y22345D01*
X67813Y21953D01*
X68504Y21816D01*
X69195Y21953D01*
X69781Y22345D01*
X70173Y22931D01*
X70310Y23622D01*
X70173Y24313D01*
X69781Y24899D01*
X69195Y25291D01*
X68504Y25428D01*
D02*
G37*
G36*
X168504Y24240D02*
X167966Y24133D01*
X167510Y23828D01*
X167206Y23372D01*
X167099Y22835D01*
X167206Y22297D01*
X167510Y21841D01*
X167966Y21537D01*
X168504Y21430D01*
X169042Y21537D01*
X169497Y21841D01*
X169802Y22297D01*
X169909Y22835D01*
X169802Y23372D01*
X169497Y23828D01*
X169042Y24133D01*
X168504Y24240D01*
D02*
G37*
G36*
X111810Y24403D02*
X111119Y24265D01*
X110533Y23874D01*
X110141Y23288D01*
X110004Y22596D01*
X110141Y21905D01*
X110533Y21319D01*
X111119Y20928D01*
X111810Y20790D01*
X112502Y20928D01*
X113087Y21319D01*
X113479Y21905D01*
X113617Y22596D01*
X113479Y23288D01*
X113087Y23874D01*
X112502Y24265D01*
X111810Y24403D01*
D02*
G37*
G36*
X124016Y20763D02*
X123478Y20656D01*
X123022Y20352D01*
X122718Y19896D01*
X122611Y19358D01*
X122718Y18821D01*
X123022Y18365D01*
X123478Y18060D01*
X124016Y17953D01*
X124553Y18060D01*
X125009Y18365D01*
X125314Y18821D01*
X125421Y19358D01*
X125314Y19896D01*
X125009Y20352D01*
X124553Y20656D01*
X124016Y20763D01*
D02*
G37*
G36*
X155118Y15775D02*
X154580Y15668D01*
X154125Y15363D01*
X153820Y14908D01*
X153713Y14370D01*
X153820Y13832D01*
X154125Y13377D01*
X154580Y13072D01*
X155118Y12965D01*
X155656Y13072D01*
X156112Y13377D01*
X156416Y13832D01*
X156523Y14370D01*
X156416Y14908D01*
X156112Y15363D01*
X155656Y15668D01*
X155118Y15775D01*
D02*
G37*
G36*
X146443Y17822D02*
X145905Y17716D01*
X145449Y17411D01*
X145145Y16955D01*
X145038Y16418D01*
X145145Y15880D01*
X145449Y15424D01*
X145511Y15383D01*
X145857Y15068D01*
X145552Y14613D01*
X145445Y14075D01*
X145552Y13537D01*
X145857Y13081D01*
X146313Y12777D01*
X146850Y12670D01*
X147388Y12777D01*
X147844Y13081D01*
X148148Y13537D01*
X148255Y14075D01*
X148148Y14613D01*
X147844Y15068D01*
X147782Y15110D01*
X147436Y15424D01*
X147741Y15880D01*
X147848Y16418D01*
X147741Y16955D01*
X147436Y17411D01*
X146981Y17716D01*
X146443Y17822D01*
D02*
G37*
G36*
X190434Y11543D02*
X189897Y11436D01*
X189441Y11131D01*
X189136Y10676D01*
X189029Y10138D01*
X189136Y9600D01*
X189441Y9144D01*
X189897Y8840D01*
X190434Y8733D01*
X190972Y8840D01*
X191428Y9144D01*
X191732Y9600D01*
X191839Y10138D01*
X191732Y10676D01*
X191428Y11131D01*
X190972Y11436D01*
X190434Y11543D01*
D02*
G37*
G36*
X127278Y16211D02*
X119699D01*
Y8632D01*
X127278D01*
Y16211D01*
D02*
G37*
G36*
X247638Y11066D02*
X247100Y10959D01*
X246644Y10655D01*
X246340Y10199D01*
X246233Y9661D01*
X246340Y9124D01*
X246644Y8668D01*
X247100Y8363D01*
X247638Y8257D01*
X248176Y8363D01*
X248631Y8668D01*
X248936Y9124D01*
X249043Y9661D01*
X248936Y10199D01*
X248631Y10655D01*
X248176Y10959D01*
X247638Y11066D01*
D02*
G37*
G36*
X177442Y9181D02*
X176904Y9074D01*
X176449Y8769D01*
X176144Y8313D01*
X176037Y7776D01*
X176144Y7238D01*
X176449Y6782D01*
X176904Y6478D01*
X177442Y6371D01*
X177980Y6478D01*
X178436Y6782D01*
X178740Y7238D01*
X178847Y7776D01*
X178740Y8313D01*
X178436Y8769D01*
X177980Y9074D01*
X177442Y9181D01*
D02*
G37*
G36*
X146063Y10283D02*
X145141Y10099D01*
X144360Y9577D01*
X143838Y8796D01*
X143655Y7874D01*
X143838Y6952D01*
X144360Y6171D01*
X145141Y5649D01*
X146063Y5466D01*
X146985Y5649D01*
X147766Y6171D01*
X148288Y6952D01*
X148471Y7874D01*
X148288Y8796D01*
X147766Y9577D01*
X146985Y10099D01*
X146063Y10283D01*
D02*
G37*
G36*
X426824Y299488D02*
X425932D01*
X425107Y299147D01*
X424475Y298515D01*
X424134Y297691D01*
Y296798D01*
X424475Y295973D01*
X425107Y295342D01*
X425932Y295000D01*
X426824D01*
X427649Y295342D01*
X428280Y295973D01*
X428622Y296798D01*
Y297691D01*
X428280Y298515D01*
X427649Y299147D01*
X426824Y299488D01*
D02*
G37*
G36*
X448765Y296134D02*
X447873D01*
X447048Y295792D01*
X446417Y295161D01*
X446075Y294336D01*
Y293443D01*
X446417Y292618D01*
X447048Y291987D01*
X447873Y291646D01*
X448765D01*
X449590Y291987D01*
X450221Y292618D01*
X450563Y293443D01*
Y294336D01*
X450221Y295161D01*
X449590Y295792D01*
X448765Y296134D01*
D02*
G37*
G36*
X427399Y289567D02*
X426538D01*
X425742Y289237D01*
X425133Y288628D01*
X424803Y287832D01*
Y286971D01*
X425133Y286175D01*
X425742Y285566D01*
X426538Y285236D01*
X427399D01*
X428195Y285566D01*
X428804Y286175D01*
X429134Y286971D01*
Y287832D01*
X428804Y288628D01*
X428195Y289237D01*
X427399Y289567D01*
D02*
G37*
G36*
X415588D02*
X414727D01*
X413931Y289237D01*
X413322Y288628D01*
X412992Y287832D01*
Y286971D01*
X413322Y286175D01*
X413931Y285566D01*
X414727Y285236D01*
X415588D01*
X416384Y285566D01*
X416993Y286175D01*
X417323Y286971D01*
Y287832D01*
X416993Y288628D01*
X416384Y289237D01*
X415588Y289567D01*
D02*
G37*
G36*
X410076Y289173D02*
X409215D01*
X408419Y288844D01*
X407810Y288234D01*
X407480Y287439D01*
Y286577D01*
X407810Y285781D01*
X408419Y285172D01*
X409215Y284842D01*
X410076D01*
X410872Y285172D01*
X411481Y285781D01*
X411811Y286577D01*
Y287439D01*
X411481Y288234D01*
X410872Y288844D01*
X410076Y289173D01*
D02*
G37*
G36*
X444525Y286417D02*
X443664D01*
X442868Y286088D01*
X442259Y285478D01*
X441929Y284683D01*
Y283821D01*
X442259Y283025D01*
X442868Y282416D01*
X443664Y282087D01*
X444525D01*
X445321Y282416D01*
X445930Y283025D01*
X446260Y283821D01*
Y284683D01*
X445930Y285478D01*
X445321Y286088D01*
X444525Y286417D01*
D02*
G37*
G36*
X396221Y304823D02*
X394331D01*
X392464Y304527D01*
X390666Y303943D01*
X388982Y303085D01*
X387453Y301974D01*
X386117Y300638D01*
X385005Y299109D01*
X384148Y297424D01*
X383563Y295627D01*
X383268Y293760D01*
Y291870D01*
X383563Y290003D01*
X384148Y288206D01*
X385005Y286522D01*
X386117Y284992D01*
X387453Y283656D01*
X388982Y282545D01*
X390666Y281687D01*
X392464Y281103D01*
X394331Y280807D01*
X396221D01*
X398087Y281103D01*
X399885Y281687D01*
X401569Y282545D01*
X403098Y283656D01*
X404435Y284992D01*
X405546Y286522D01*
X406404Y288206D01*
X406988Y290003D01*
X407283Y291870D01*
Y293760D01*
X406988Y295627D01*
X406404Y297424D01*
X405546Y299109D01*
X404435Y300638D01*
X403098Y301974D01*
X401569Y303085D01*
X399885Y303943D01*
X398087Y304527D01*
X396221Y304823D01*
D02*
G37*
G36*
X438315Y281821D02*
X437454D01*
X436658Y281491D01*
X436049Y280882D01*
X435719Y280086D01*
Y279225D01*
X436049Y278429D01*
X436658Y277820D01*
X437454Y277490D01*
X438315D01*
X439111Y277820D01*
X439720Y278429D01*
X440050Y279225D01*
Y280086D01*
X439720Y280882D01*
X439111Y281491D01*
X438315Y281821D01*
D02*
G37*
G36*
X488216Y283707D02*
X486898D01*
X485625Y283366D01*
X484483Y282707D01*
X483551Y281775D01*
X482892Y280633D01*
X482551Y279360D01*
Y278042D01*
X482892Y276768D01*
X483551Y275627D01*
X484483Y274695D01*
X485625Y274036D01*
X486898Y273695D01*
X488216D01*
X489489Y274036D01*
X490631Y274695D01*
X491563Y275627D01*
X492222Y276768D01*
X492563Y278042D01*
Y279360D01*
X492222Y280633D01*
X491563Y281775D01*
X490631Y282707D01*
X489489Y283366D01*
X488216Y283707D01*
D02*
G37*
G36*
X452695Y277067D02*
X451833D01*
X451037Y276737D01*
X450428Y276128D01*
X450098Y275332D01*
Y274471D01*
X450428Y273675D01*
X451037Y273066D01*
X451833Y272736D01*
X452695D01*
X453490Y273066D01*
X454100Y273675D01*
X454429Y274471D01*
Y275332D01*
X454100Y276128D01*
X453490Y276737D01*
X452695Y277067D01*
D02*
G37*
G36*
X413892Y282165D02*
X412999D01*
X412174Y281824D01*
X411543Y281192D01*
X411201Y280368D01*
Y279475D01*
X411527Y278688D01*
X411201Y277900D01*
Y277039D01*
X411531Y276243D01*
X411621Y276153D01*
X411543Y276074D01*
X411201Y275250D01*
Y274357D01*
X411543Y273532D01*
X412174Y272901D01*
X412999Y272559D01*
X413892D01*
X414716Y272901D01*
X415348Y273532D01*
X415689Y274357D01*
Y275250D01*
X415348Y276074D01*
X415191Y276231D01*
X415202Y276243D01*
X415532Y277039D01*
Y277900D01*
X415258Y278561D01*
X415348Y278650D01*
X415689Y279475D01*
Y280368D01*
X415348Y281192D01*
X414716Y281824D01*
X413892Y282165D01*
D02*
G37*
G36*
X443738Y276575D02*
X442876D01*
X442080Y276245D01*
X441471Y275636D01*
X441142Y274840D01*
Y273979D01*
X441471Y273183D01*
X442080Y272574D01*
X442876Y272244D01*
X443738D01*
X444534Y272574D01*
X445143Y273183D01*
X445472Y273979D01*
Y274840D01*
X445143Y275636D01*
X444534Y276245D01*
X443738Y276575D01*
D02*
G37*
G36*
X468541Y273031D02*
X467680D01*
X466884Y272702D01*
X466274Y272093D01*
X465945Y271297D01*
Y270435D01*
X466274Y269640D01*
X466884Y269030D01*
X467680Y268701D01*
X468541D01*
X469337Y269030D01*
X469946Y269640D01*
X470276Y270435D01*
Y271297D01*
X469946Y272093D01*
X469337Y272702D01*
X468541Y273031D01*
D02*
G37*
G36*
X459092D02*
X458231D01*
X457435Y272702D01*
X456826Y272093D01*
X456496Y271297D01*
Y270435D01*
X456826Y269640D01*
X457435Y269030D01*
X458231Y268701D01*
X459092D01*
X459888Y269030D01*
X460497Y269640D01*
X460827Y270435D01*
Y271297D01*
X460497Y272093D01*
X459888Y272702D01*
X459092Y273031D01*
D02*
G37*
G36*
X400628Y272638D02*
X399766D01*
X398970Y272308D01*
X398361Y271699D01*
X398031Y270903D01*
Y270042D01*
X398361Y269246D01*
X398970Y268637D01*
X399766Y268307D01*
X400628D01*
X401423Y268637D01*
X402033Y269246D01*
X402362Y270042D01*
Y270903D01*
X402033Y271699D01*
X401423Y272308D01*
X400628Y272638D01*
D02*
G37*
G36*
X438226Y275394D02*
X437365D01*
X436569Y275064D01*
X435960Y274455D01*
X435630Y273659D01*
Y272798D01*
X435960Y272002D01*
X436375Y271586D01*
X436513Y271260D01*
X436375Y270933D01*
X435960Y270518D01*
X435630Y269722D01*
Y268861D01*
X435960Y268065D01*
X436569Y267456D01*
X437365Y267126D01*
X438226D01*
X439022Y267456D01*
X439631Y268065D01*
X439961Y268861D01*
Y269722D01*
X439631Y270518D01*
X439216Y270933D01*
X439078Y271260D01*
X439216Y271586D01*
X439631Y272002D01*
X439961Y272798D01*
Y273659D01*
X439631Y274455D01*
X439022Y275064D01*
X438226Y275394D01*
D02*
G37*
G36*
X420903Y271457D02*
X420042D01*
X419246Y271127D01*
X418637Y270518D01*
X418307Y269722D01*
Y268861D01*
X418637Y268065D01*
X419246Y267456D01*
X420042Y267126D01*
X420903D01*
X421699Y267456D01*
X422308Y268065D01*
X422638Y268861D01*
Y269722D01*
X422308Y270518D01*
X421699Y271127D01*
X420903Y271457D01*
D02*
G37*
G36*
X349840Y267126D02*
X348979D01*
X348183Y266796D01*
X347574Y266187D01*
X347244Y265391D01*
Y264530D01*
X347574Y263734D01*
X348183Y263125D01*
X348979Y262795D01*
X349840D01*
X350636Y263125D01*
X351245Y263734D01*
X351575Y264530D01*
Y265391D01*
X351245Y266187D01*
X350636Y266796D01*
X349840Y267126D01*
D02*
G37*
G36*
X411454Y269882D02*
X410593D01*
X409797Y269552D01*
X409188Y268943D01*
X408858Y268147D01*
Y267286D01*
X409188Y266490D01*
X409650Y266028D01*
X409656Y265976D01*
X409548Y265493D01*
X409542Y265483D01*
X408911Y265222D01*
X408302Y264612D01*
X407972Y263817D01*
Y262955D01*
X408302Y262159D01*
X408911Y261550D01*
X409707Y261221D01*
X410569D01*
X411364Y261550D01*
X411973Y262159D01*
X412303Y262955D01*
Y263817D01*
X411973Y264612D01*
X411511Y265075D01*
X411505Y265126D01*
X411613Y265610D01*
X411620Y265620D01*
X412250Y265881D01*
X412859Y266490D01*
X413189Y267286D01*
Y268147D01*
X412859Y268943D01*
X412250Y269552D01*
X411454Y269882D01*
D02*
G37*
G36*
X372183Y265339D02*
X371321D01*
X370525Y265009D01*
X369916Y264400D01*
X369587Y263604D01*
Y262742D01*
X369916Y261947D01*
X370525Y261337D01*
X371321Y261008D01*
X372183D01*
X372978Y261337D01*
X373588Y261947D01*
X373917Y262742D01*
Y263604D01*
X373588Y264400D01*
X372978Y265009D01*
X372183Y265339D01*
D02*
G37*
G36*
X390966Y264173D02*
X390137D01*
X389335Y263959D01*
X388617Y263544D01*
X388031Y262958D01*
X387616Y262239D01*
X387402Y261438D01*
Y260609D01*
X387616Y259808D01*
X388031Y259090D01*
X388617Y258503D01*
X389335Y258089D01*
X390137Y257874D01*
X390966D01*
X391767Y258089D01*
X392485Y258503D01*
X393072Y259090D01*
X393486Y259808D01*
X393701Y260609D01*
Y261438D01*
X393486Y262239D01*
X393072Y262958D01*
X392485Y263544D01*
X391767Y263959D01*
X390966Y264173D01*
D02*
G37*
G36*
X414899Y261811D02*
X414038D01*
X413242Y261481D01*
X412633Y260872D01*
X412303Y260076D01*
Y259215D01*
X412633Y258419D01*
X413242Y257810D01*
X414038Y257480D01*
X414899D01*
X415695Y257810D01*
X416304Y258419D01*
X416634Y259215D01*
Y260076D01*
X416304Y260872D01*
X415695Y261481D01*
X414899Y261811D01*
D02*
G37*
G36*
X404352Y256693D02*
X403522D01*
X402721Y256478D01*
X402003Y256064D01*
X401476Y255537D01*
X400949Y256064D01*
X400231Y256478D01*
X399430Y256693D01*
X398601D01*
X397800Y256478D01*
X397082Y256064D01*
X396495Y255477D01*
X396081Y254759D01*
X395866Y253958D01*
Y253129D01*
X396081Y252328D01*
X396495Y251609D01*
X396924Y251181D01*
X396495Y250753D01*
X396081Y250035D01*
X395866Y249234D01*
Y248404D01*
X396081Y247603D01*
X396495Y246885D01*
X396727Y246654D01*
X396495Y246422D01*
X396081Y245704D01*
X395866Y244903D01*
Y244074D01*
X396081Y243272D01*
X396495Y242554D01*
X396727Y242323D01*
X396495Y242091D01*
X396081Y241373D01*
X395866Y240572D01*
Y239743D01*
X396081Y238942D01*
X396495Y238224D01*
X397082Y237637D01*
X397191Y237574D01*
X397273Y236949D01*
X396983Y236660D01*
X396654Y235864D01*
Y235002D01*
X396983Y234207D01*
X397592Y233597D01*
X398388Y233268D01*
X399250D01*
X400045Y233597D01*
X400527Y234078D01*
X400598Y234099D01*
X400996Y234067D01*
X401118Y234017D01*
X401417Y233499D01*
X402003Y232913D01*
X402721Y232498D01*
X403522Y232283D01*
X404352D01*
X405153Y232498D01*
X405871Y232913D01*
X406457Y233499D01*
X406872Y234217D01*
X407087Y235018D01*
Y235848D01*
X406872Y236649D01*
X406457Y237367D01*
X406029Y237795D01*
X406457Y238224D01*
X406872Y238942D01*
X407087Y239743D01*
Y240572D01*
X406872Y241373D01*
X406457Y242091D01*
X406226Y242323D01*
X406457Y242554D01*
X406872Y243272D01*
X407087Y244074D01*
Y244903D01*
X406872Y245704D01*
X406457Y246422D01*
X406226Y246654D01*
X406457Y246885D01*
X406872Y247603D01*
X407087Y248404D01*
Y249234D01*
X406872Y250035D01*
X406457Y250753D01*
X406029Y251181D01*
X406457Y251609D01*
X406872Y252328D01*
X407087Y253129D01*
Y253958D01*
X406872Y254759D01*
X406457Y255477D01*
X405871Y256064D01*
X405153Y256478D01*
X404352Y256693D01*
D02*
G37*
G36*
X459864Y255906D02*
X459034D01*
X458233Y255691D01*
X457515Y255276D01*
X456988Y254749D01*
X456461Y255276D01*
X455743Y255691D01*
X454942Y255906D01*
X454113D01*
X453312Y255691D01*
X452594Y255276D01*
X452007Y254690D01*
X451592Y253972D01*
X451378Y253171D01*
Y252341D01*
X451592Y251540D01*
X452007Y250822D01*
X452435Y250394D01*
X452007Y249965D01*
X451592Y249247D01*
X451378Y248446D01*
Y247617D01*
X451592Y246816D01*
X452007Y246098D01*
X452239Y245866D01*
X452007Y245635D01*
X451592Y244917D01*
X451378Y244115D01*
Y243286D01*
X451592Y242485D01*
X452007Y241767D01*
X452239Y241535D01*
X452007Y241304D01*
X451592Y240586D01*
X451378Y239785D01*
Y238955D01*
X451592Y238154D01*
X452007Y237436D01*
X452435Y237008D01*
X452007Y236580D01*
X451592Y235861D01*
X451378Y235060D01*
Y234231D01*
X451592Y233430D01*
X452007Y232712D01*
X452594Y232125D01*
X453312Y231711D01*
X454113Y231496D01*
X454942D01*
X455743Y231711D01*
X456461Y232125D01*
X456988Y232652D01*
X457515Y232125D01*
X458233Y231711D01*
X459034Y231496D01*
X459864D01*
X460665Y231711D01*
X461383Y232125D01*
X461969Y232712D01*
X462384Y233430D01*
X462598Y234231D01*
Y235060D01*
X462384Y235861D01*
X461969Y236580D01*
X461541Y237008D01*
X461969Y237436D01*
X462384Y238154D01*
X462598Y238955D01*
Y239785D01*
X462384Y240586D01*
X461969Y241304D01*
X461738Y241535D01*
X461969Y241767D01*
X462384Y242485D01*
X462598Y243286D01*
Y244115D01*
X462384Y244917D01*
X461969Y245635D01*
X461738Y245866D01*
X461969Y246098D01*
X462384Y246816D01*
X462598Y247617D01*
Y248446D01*
X462384Y249247D01*
X461969Y249965D01*
X461541Y250394D01*
X461969Y250822D01*
X462384Y251540D01*
X462598Y252341D01*
Y253171D01*
X462384Y253972D01*
X461969Y254690D01*
X461383Y255276D01*
X460665Y255691D01*
X459864Y255906D01*
D02*
G37*
G36*
X360667Y255315D02*
X359805D01*
X359010Y254985D01*
X358401Y254376D01*
X358071Y253580D01*
Y252719D01*
X358401Y251923D01*
X359010Y251314D01*
X359805Y250984D01*
X360667D01*
X361463Y251314D01*
X361811Y251662D01*
X362159Y251314D01*
X362955Y250984D01*
X363816D01*
X364597Y251307D01*
X364734Y251351D01*
X365154Y251268D01*
X365290Y250939D01*
X365899Y250330D01*
X366695Y250000D01*
X367557D01*
X368353Y250330D01*
X368962Y250939D01*
X369291Y251735D01*
Y252596D01*
X368962Y253392D01*
X368353Y254001D01*
X367557Y254331D01*
X366695D01*
X365915Y254008D01*
X365778Y253964D01*
X365358Y254048D01*
X365222Y254376D01*
X364612Y254985D01*
X363816Y255315D01*
X362955D01*
X362159Y254985D01*
X361811Y254637D01*
X361463Y254985D01*
X360667Y255315D01*
D02*
G37*
G36*
X366572Y246203D02*
X365711D01*
X364915Y245873D01*
X364500Y245458D01*
X364173Y245320D01*
X363846Y245458D01*
X363431Y245873D01*
X362635Y246203D01*
X361774D01*
X360978Y245873D01*
X360563Y245458D01*
X360236Y245320D01*
X359910Y245458D01*
X359494Y245873D01*
X358698Y246203D01*
X357837D01*
X357041Y245873D01*
X356626Y245458D01*
X356299Y245320D01*
X355973Y245458D01*
X355557Y245873D01*
X354761Y246203D01*
X353900D01*
X353104Y245873D01*
X352689Y245458D01*
X352362Y245320D01*
X352035Y245458D01*
X351620Y245873D01*
X350824Y246203D01*
X349963D01*
X349167Y245873D01*
X348558Y245264D01*
X348228Y244468D01*
Y243607D01*
X348558Y242811D01*
X348709Y242660D01*
X348558Y242509D01*
X348228Y241713D01*
Y240851D01*
X348558Y240055D01*
X349167Y239446D01*
X349963Y239117D01*
X350824D01*
X351620Y239446D01*
X352035Y239861D01*
X352362Y239999D01*
X352689Y239861D01*
X353104Y239446D01*
X353900Y239117D01*
X354761D01*
X355557Y239446D01*
X355973Y239861D01*
X356299Y239999D01*
X356626Y239861D01*
X357041Y239446D01*
X357837Y239117D01*
X358698D01*
X359494Y239446D01*
X359910Y239861D01*
X360236Y239999D01*
X360563Y239861D01*
X360978Y239446D01*
X361774Y239117D01*
X362635D01*
X363431Y239446D01*
X363846Y239861D01*
X364173Y239999D01*
X364500Y239861D01*
X364915Y239446D01*
X365711Y239117D01*
X366572D01*
X367368Y239446D01*
X367977Y240055D01*
X368307Y240851D01*
Y241713D01*
X367977Y242509D01*
X367826Y242660D01*
X367977Y242811D01*
X368307Y243607D01*
Y244468D01*
X367977Y245264D01*
X367368Y245873D01*
X366572Y246203D01*
D02*
G37*
G36*
X372384Y246555D02*
X371562D01*
X370802Y246240D01*
X370221Y245659D01*
X369906Y244899D01*
Y244077D01*
X370221Y243317D01*
X370802Y242736D01*
X371562Y242421D01*
X372384D01*
X373144Y242736D01*
X373725Y243317D01*
X374040Y244077D01*
Y244899D01*
X373725Y245659D01*
X373144Y246240D01*
X372384Y246555D01*
D02*
G37*
G36*
X332094Y243344D02*
X331233D01*
X330437Y243014D01*
X329828Y242405D01*
X329498Y241609D01*
Y240748D01*
X329828Y239952D01*
X330437Y239343D01*
X331233Y239013D01*
X332094D01*
X332890Y239343D01*
X333499Y239952D01*
X333829Y240748D01*
Y241609D01*
X333499Y242405D01*
X332890Y243014D01*
X332094Y243344D01*
D02*
G37*
G36*
X390592Y243236D02*
X389730D01*
X388934Y242906D01*
X388325Y242297D01*
X387996Y241501D01*
Y240640D01*
X388325Y239844D01*
X388934Y239235D01*
X389730Y238905D01*
X390592D01*
X391388Y239235D01*
X391997Y239844D01*
X392326Y240640D01*
Y241501D01*
X391997Y242297D01*
X391388Y242906D01*
X390592Y243236D01*
D02*
G37*
G36*
X296474Y241043D02*
X295652D01*
X294892Y240729D01*
X294311Y240147D01*
X293996Y239387D01*
Y238565D01*
X294311Y237806D01*
X294892Y237224D01*
X295652Y236910D01*
X296474D01*
X297234Y237224D01*
X297815Y237806D01*
X298130Y238565D01*
Y239387D01*
X297815Y240147D01*
X297234Y240729D01*
X296474Y241043D01*
D02*
G37*
G36*
X488216Y243707D02*
X486898D01*
X485625Y243366D01*
X484483Y242707D01*
X483551Y241775D01*
X482892Y240633D01*
X482551Y239360D01*
Y238042D01*
X482892Y236769D01*
X483551Y235627D01*
X484483Y234695D01*
X485625Y234036D01*
X486898Y233695D01*
X488216D01*
X489489Y234036D01*
X490631Y234695D01*
X491563Y235627D01*
X492222Y236769D01*
X492563Y238042D01*
Y239360D01*
X492222Y240633D01*
X491563Y241775D01*
X490631Y242707D01*
X489489Y243366D01*
X488216Y243707D01*
D02*
G37*
G36*
X390140Y237303D02*
X389279D01*
X388483Y236973D01*
X387874Y236364D01*
X387544Y235568D01*
Y234707D01*
X387874Y233911D01*
X388483Y233302D01*
X389279Y232972D01*
X390140D01*
X390936Y233302D01*
X391545Y233911D01*
X391875Y234707D01*
Y235568D01*
X391545Y236364D01*
X390936Y236973D01*
X390140Y237303D01*
D02*
G37*
G36*
X295940Y236065D02*
X295118D01*
X294359Y235750D01*
X293777Y235169D01*
X293462Y234409D01*
Y233587D01*
X293777Y232827D01*
X294359Y232246D01*
X295118Y231931D01*
X295940D01*
X296700Y232246D01*
X297282Y232827D01*
X297596Y233587D01*
Y234409D01*
X297282Y235169D01*
X296700Y235750D01*
X295940Y236065D01*
D02*
G37*
G36*
X330746Y226575D02*
X329884D01*
X329088Y226245D01*
X328479Y225636D01*
X328150Y224840D01*
Y223979D01*
X328479Y223183D01*
X329088Y222574D01*
X329884Y222244D01*
X330746D01*
X331541Y222574D01*
X332151Y223183D01*
X332480Y223979D01*
Y224840D01*
X332151Y225636D01*
X331541Y226245D01*
X330746Y226575D01*
D02*
G37*
G36*
X304368Y226181D02*
X303506D01*
X302710Y225851D01*
X302101Y225242D01*
X301772Y224447D01*
Y223585D01*
X302101Y222789D01*
X302710Y222180D01*
X303506Y221850D01*
X304368D01*
X305164Y222180D01*
X305773Y222789D01*
X306102Y223585D01*
Y224447D01*
X305773Y225242D01*
X305164Y225851D01*
X304368Y226181D01*
D02*
G37*
G36*
X361095Y233412D02*
X360234D01*
X359438Y233082D01*
X358829Y232473D01*
X358499Y231677D01*
Y230816D01*
X358800Y230088D01*
X358499Y229361D01*
Y228500D01*
X358829Y227704D01*
X359055Y227478D01*
X358829Y227252D01*
X358499Y226456D01*
Y225595D01*
X358829Y224799D01*
X358903Y224725D01*
X358829Y224651D01*
X358499Y223855D01*
Y222994D01*
X358818Y222223D01*
X358505Y221467D01*
Y220605D01*
X358834Y219810D01*
X359444Y219200D01*
X360239Y218871D01*
X361101D01*
X361897Y219200D01*
X362506Y219810D01*
X362836Y220605D01*
Y221467D01*
X362516Y222237D01*
X362830Y222994D01*
Y223855D01*
X362500Y224651D01*
X362426Y224725D01*
X362500Y224799D01*
X362830Y225595D01*
Y226456D01*
X362500Y227252D01*
X362274Y227478D01*
X362500Y227704D01*
X362830Y228500D01*
Y229361D01*
X362528Y230088D01*
X362830Y230816D01*
Y231677D01*
X362500Y232473D01*
X361891Y233082D01*
X361095Y233412D01*
D02*
G37*
G36*
X354269D02*
X353408D01*
X352612Y233082D01*
X352003Y232473D01*
X351673Y231677D01*
Y230816D01*
X351975Y230088D01*
X351673Y229361D01*
Y228500D01*
X352003Y227704D01*
X352229Y227478D01*
X352003Y227252D01*
X351673Y226456D01*
Y225595D01*
X352003Y224799D01*
X352077Y224725D01*
X352003Y224651D01*
X351673Y223855D01*
Y222994D01*
X351990Y222230D01*
X351673Y221467D01*
Y220605D01*
X352003Y219810D01*
X352612Y219200D01*
X353408Y218871D01*
X354269D01*
X355065Y219200D01*
X355674Y219810D01*
X356004Y220605D01*
Y221467D01*
X355688Y222230D01*
X356004Y222994D01*
Y223855D01*
X355674Y224651D01*
X355600Y224725D01*
X355674Y224799D01*
X356004Y225595D01*
Y226456D01*
X355674Y227252D01*
X355448Y227478D01*
X355674Y227704D01*
X356004Y228500D01*
Y229361D01*
X355703Y230088D01*
X356004Y230816D01*
Y231677D01*
X355674Y232473D01*
X355065Y233082D01*
X354269Y233412D01*
D02*
G37*
G36*
X346789Y226567D02*
X345928D01*
X345132Y226237D01*
X344523Y225628D01*
X344193Y224832D01*
Y223971D01*
X344523Y223175D01*
X345018Y222679D01*
X344523Y222183D01*
X344193Y221387D01*
Y220526D01*
X344523Y219730D01*
X345132Y219121D01*
X345928Y218791D01*
X346789D01*
X347585Y219121D01*
X348194Y219730D01*
X348524Y220526D01*
Y221387D01*
X348194Y222183D01*
X347698Y222679D01*
X348194Y223175D01*
X348524Y223971D01*
Y224832D01*
X348194Y225628D01*
X347585Y226237D01*
X346789Y226567D01*
D02*
G37*
G36*
X312242Y221850D02*
X311380D01*
X310584Y221521D01*
X309975Y220912D01*
X309646Y220116D01*
Y219254D01*
X309975Y218459D01*
X310584Y217849D01*
X311380Y217520D01*
X312242D01*
X313038Y217849D01*
X313647Y218459D01*
X313976Y219254D01*
Y220116D01*
X313647Y220912D01*
X313038Y221521D01*
X312242Y221850D01*
D02*
G37*
G36*
X331139Y219488D02*
X330278D01*
X329482Y219159D01*
X328873Y218550D01*
X328543Y217754D01*
Y216892D01*
X328873Y216096D01*
X329482Y215487D01*
X330278Y215158D01*
X331139D01*
X331935Y215487D01*
X332544Y216096D01*
X332874Y216892D01*
Y217754D01*
X332544Y218550D01*
X331935Y219159D01*
X331139Y219488D01*
D02*
G37*
G36*
X291889Y214567D02*
X291027D01*
X290232Y214237D01*
X289622Y213628D01*
X289293Y212832D01*
Y211971D01*
X289622Y211175D01*
X290232Y210566D01*
X291027Y210236D01*
X291889D01*
X292685Y210566D01*
X293294Y211175D01*
X293623Y211971D01*
Y212832D01*
X293294Y213628D01*
X292685Y214237D01*
X291889Y214567D01*
D02*
G37*
G36*
X310302Y211366D02*
X309440D01*
X308645Y211036D01*
X308035Y210427D01*
X307706Y209631D01*
Y208770D01*
X308035Y207974D01*
X308645Y207365D01*
X309440Y207035D01*
X310302D01*
X311098Y207365D01*
X311707Y207974D01*
X312036Y208770D01*
Y209631D01*
X311707Y210427D01*
X311098Y211036D01*
X310302Y211366D01*
D02*
G37*
G36*
X291863Y206738D02*
X291002D01*
X290206Y206408D01*
X289597Y205799D01*
X289267Y205003D01*
Y204142D01*
X289597Y203346D01*
X290206Y202737D01*
X291002Y202407D01*
X291863D01*
X292659Y202737D01*
X293268Y203346D01*
X293598Y204142D01*
Y205003D01*
X293268Y205799D01*
X292659Y206408D01*
X291863Y206738D01*
D02*
G37*
G36*
X331533Y206299D02*
X330672D01*
X329876Y205970D01*
X329267Y205360D01*
X328937Y204565D01*
Y203703D01*
X329267Y202907D01*
X329753Y202420D01*
X330054Y202014D01*
X329724Y201218D01*
Y200357D01*
X330054Y199561D01*
X330663Y198952D01*
X331459Y198622D01*
X332320D01*
X333116Y198952D01*
X333726Y199561D01*
X334055Y200357D01*
Y201218D01*
X333726Y202014D01*
X333239Y202501D01*
X332938Y202907D01*
X333268Y203703D01*
Y204565D01*
X332938Y205360D01*
X332329Y205970D01*
X331533Y206299D01*
D02*
G37*
G36*
X310201Y202666D02*
X309340D01*
X308544Y202336D01*
X307935Y201727D01*
X307605Y200931D01*
Y200070D01*
X307935Y199274D01*
X308544Y198665D01*
X309340Y198335D01*
X310201D01*
X310403Y198200D01*
Y197798D01*
X310733Y197002D01*
X311342Y196393D01*
X312138Y196063D01*
X313000D01*
X313795Y196393D01*
X314405Y197002D01*
X314734Y197798D01*
Y198660D01*
X314405Y199455D01*
X313795Y200064D01*
X313000Y200394D01*
X312138D01*
X311936Y200530D01*
Y200931D01*
X311606Y201727D01*
X310997Y202336D01*
X310201Y202666D01*
D02*
G37*
G36*
X325234Y199803D02*
X324372D01*
X323577Y199474D01*
X322968Y198864D01*
X322638Y198068D01*
Y197207D01*
X322968Y196411D01*
X323577Y195802D01*
X324372Y195472D01*
X325234D01*
X326030Y195802D01*
X326639Y196411D01*
X326969Y197207D01*
Y198068D01*
X326639Y198864D01*
X326030Y199474D01*
X325234Y199803D01*
D02*
G37*
G36*
X366577Y195524D02*
X365715D01*
X364920Y195195D01*
X364676Y194952D01*
X364485Y195143D01*
X363689Y195472D01*
X362828D01*
X362032Y195143D01*
X361944Y195055D01*
X361857Y195143D01*
X361061Y195472D01*
X360199D01*
X359403Y195143D01*
X358988Y194728D01*
X358661Y194590D01*
X358335Y194728D01*
X357920Y195143D01*
X357124Y195472D01*
X356262D01*
X355466Y195143D01*
X355448Y195125D01*
X355430Y195143D01*
X354634Y195472D01*
X353773D01*
X352977Y195143D01*
X352889Y195055D01*
X352801Y195143D01*
X352006Y195472D01*
X351144D01*
X350348Y195143D01*
X349739Y194534D01*
X349410Y193738D01*
Y192876D01*
X349720Y192126D01*
X349410Y191376D01*
Y190514D01*
X349739Y189718D01*
X350348Y189109D01*
X351144Y188779D01*
X352006D01*
X352801Y189109D01*
X352889Y189197D01*
X352977Y189109D01*
X353773Y188779D01*
X354634D01*
X355430Y189109D01*
X355448Y189127D01*
X355466Y189109D01*
X356262Y188779D01*
X357124D01*
X357920Y189109D01*
X358335Y189524D01*
X358661Y189662D01*
X358988Y189524D01*
X359403Y189109D01*
X360199Y188779D01*
X361061D01*
X361857Y189109D01*
X361944Y189197D01*
X362032Y189109D01*
X362828Y188779D01*
X363689D01*
X364485Y189109D01*
X364700Y189324D01*
X364915Y189109D01*
X365711Y188779D01*
X366572D01*
X367368Y189109D01*
X367977Y189718D01*
X368307Y190514D01*
Y191376D01*
X367988Y192147D01*
X368312Y192928D01*
Y193790D01*
X367982Y194585D01*
X367373Y195195D01*
X366577Y195524D01*
D02*
G37*
G36*
X366774Y150028D02*
X365912D01*
X365116Y149698D01*
X364701Y149283D01*
X364374Y149145D01*
X364048Y149283D01*
X363632Y149698D01*
X362837Y150028D01*
X361975D01*
X361179Y149698D01*
X360764Y149283D01*
X360437Y149145D01*
X360111Y149283D01*
X359696Y149698D01*
X358900Y150028D01*
X358038D01*
X357242Y149698D01*
X356827Y149283D01*
X356500Y149145D01*
X356174Y149283D01*
X355758Y149698D01*
X354962Y150028D01*
X354101D01*
X353305Y149698D01*
X352890Y149283D01*
X352563Y149145D01*
X352237Y149283D01*
X351821Y149698D01*
X351026Y150028D01*
X350164D01*
X349368Y149698D01*
X348914Y149244D01*
X348700Y149107D01*
X348276Y149229D01*
X347907Y149597D01*
X347111Y149927D01*
X346250D01*
X345454Y149597D01*
X344845Y148988D01*
X344515Y148193D01*
Y147331D01*
X344845Y146535D01*
X344851Y146529D01*
X344824Y146502D01*
X344494Y145706D01*
Y144845D01*
X344824Y144049D01*
X345433Y143440D01*
X346229Y143110D01*
X347090D01*
X347886Y143440D01*
X348341Y143894D01*
X348554Y144032D01*
X348979Y143910D01*
X349347Y143541D01*
X350143Y143211D01*
X351004D01*
X351800Y143541D01*
X352215Y143956D01*
X352542Y144094D01*
X352869Y143956D01*
X353284Y143541D01*
X354080Y143211D01*
X354941D01*
X355737Y143541D01*
X356152Y143956D01*
X356479Y144094D01*
X356806Y143956D01*
X357221Y143541D01*
X358017Y143211D01*
X358878D01*
X359674Y143541D01*
X360089Y143956D01*
X360416Y144094D01*
X360743Y143956D01*
X361158Y143541D01*
X361954Y143211D01*
X362815D01*
X363611Y143541D01*
X364026Y143956D01*
X364353Y144094D01*
X364680Y143956D01*
X365095Y143541D01*
X365891Y143211D01*
X366752D01*
X367548Y143541D01*
X368157Y144150D01*
X368487Y144946D01*
Y145807D01*
X368157Y146603D01*
X368151Y146609D01*
X368179Y146636D01*
X368508Y147432D01*
Y148294D01*
X368179Y149089D01*
X367569Y149698D01*
X366774Y150028D01*
D02*
G37*
G36*
X332200Y146925D02*
X331339D01*
X330543Y146596D01*
X329934Y145987D01*
X329604Y145191D01*
Y144330D01*
X329934Y143534D01*
X330543Y142924D01*
X331339Y142595D01*
X332200D01*
X332996Y142924D01*
X333605Y143534D01*
X333935Y144330D01*
Y145191D01*
X333605Y145987D01*
X332996Y146596D01*
X332200Y146925D01*
D02*
G37*
G36*
X300394Y144480D02*
X299571D01*
X298812Y144165D01*
X298230Y143584D01*
X297916Y142824D01*
Y142002D01*
X297857Y141915D01*
X297136D01*
X296376Y141600D01*
X295795Y141019D01*
X295480Y140259D01*
Y139437D01*
X295795Y138677D01*
X296376Y138095D01*
X297136Y137781D01*
X297958D01*
X298718Y138095D01*
X299299Y138677D01*
X299614Y139437D01*
Y140259D01*
X299672Y140346D01*
X300394D01*
X301153Y140661D01*
X301735Y141242D01*
X302050Y142002D01*
Y142824D01*
X301735Y143584D01*
X301153Y144165D01*
X300394Y144480D01*
D02*
G37*
G36*
X307517Y136122D02*
X306656D01*
X305860Y135793D01*
X305251Y135183D01*
X304921Y134388D01*
Y133526D01*
X305251Y132730D01*
X305860Y132121D01*
X306656Y131791D01*
X307517D01*
X308313Y132121D01*
X308922Y132730D01*
X309252Y133526D01*
Y134388D01*
X308922Y135183D01*
X308313Y135793D01*
X307517Y136122D01*
D02*
G37*
G36*
X330352Y131299D02*
X329490D01*
X328695Y130970D01*
X328086Y130360D01*
X327756Y129565D01*
Y128703D01*
X328086Y127907D01*
X328695Y127298D01*
X329490Y126969D01*
X330352D01*
X330452Y127010D01*
X330554Y126764D01*
X331163Y126155D01*
X331959Y125826D01*
X332820D01*
X333616Y126155D01*
X334225Y126764D01*
X334555Y127560D01*
Y128422D01*
X334225Y129218D01*
X333616Y129827D01*
X332820Y130156D01*
X331959D01*
X331859Y130115D01*
X331757Y130360D01*
X331148Y130970D01*
X330352Y131299D01*
D02*
G37*
G36*
X315391Y128150D02*
X314530D01*
X313734Y127820D01*
X313125Y127211D01*
X312795Y126415D01*
Y125554D01*
X313125Y124758D01*
X313734Y124149D01*
X314530Y123819D01*
X315391D01*
X316187Y124149D01*
X316796Y124758D01*
X317126Y125554D01*
Y126415D01*
X316796Y127211D01*
X316187Y127820D01*
X315391Y128150D01*
D02*
G37*
G36*
X354863Y137394D02*
X354002D01*
X353206Y137064D01*
X352597Y136455D01*
X352267Y135659D01*
Y134798D01*
X352597Y134002D01*
X353047Y133552D01*
X352597Y133101D01*
X352267Y132305D01*
Y131444D01*
X352597Y130648D01*
X352934Y130311D01*
X352597Y129973D01*
X352267Y129178D01*
Y128316D01*
X352597Y127520D01*
X353098Y127019D01*
X352597Y126518D01*
X352268Y125722D01*
Y124861D01*
X352597Y124065D01*
X353207Y123456D01*
X354002Y123126D01*
X354864D01*
X355660Y123456D01*
X356269Y124065D01*
X356598Y124861D01*
Y125722D01*
X356269Y126518D01*
X355767Y127020D01*
X356268Y127520D01*
X356598Y128316D01*
Y129178D01*
X356268Y129973D01*
X355931Y130311D01*
X356268Y130648D01*
X356598Y131444D01*
Y132305D01*
X356268Y133101D01*
X355818Y133552D01*
X356268Y134002D01*
X356598Y134798D01*
Y135659D01*
X356268Y136455D01*
X355659Y137064D01*
X354863Y137394D01*
D02*
G37*
G36*
X361595Y137387D02*
X360733D01*
X359938Y137057D01*
X359328Y136448D01*
X358999Y135652D01*
Y134791D01*
X359328Y133995D01*
X359779Y133545D01*
X359328Y133094D01*
X358999Y132298D01*
Y131437D01*
X359328Y130641D01*
X359666Y130304D01*
X359328Y129967D01*
X358999Y129171D01*
Y128309D01*
X359328Y127514D01*
X359874Y126969D01*
X359328Y126423D01*
X358999Y125628D01*
Y124766D01*
X359328Y123970D01*
X359938Y123361D01*
X360733Y123031D01*
X361595D01*
X362391Y123361D01*
X363000Y123970D01*
X363330Y124766D01*
Y125628D01*
X363000Y126423D01*
X362455Y126969D01*
X363000Y127514D01*
X363330Y128309D01*
Y129171D01*
X363000Y129967D01*
X362663Y130304D01*
X363000Y130641D01*
X363330Y131437D01*
Y132298D01*
X363000Y133094D01*
X362549Y133545D01*
X363000Y133995D01*
X363330Y134791D01*
Y135652D01*
X363000Y136448D01*
X362391Y137057D01*
X361595Y137387D01*
D02*
G37*
G36*
X329762Y123819D02*
X328900D01*
X328104Y123489D01*
X327495Y122880D01*
X327166Y122084D01*
Y121223D01*
X327495Y120427D01*
X328104Y119818D01*
X328900Y119488D01*
X329762D01*
X330557Y119818D01*
X331167Y120427D01*
X331496Y121223D01*
Y122084D01*
X331167Y122880D01*
X330557Y123489D01*
X329762Y123819D01*
D02*
G37*
G36*
X332033Y110376D02*
X331172D01*
X330376Y110046D01*
X329767Y109437D01*
X329437Y108641D01*
Y107780D01*
X329767Y106984D01*
X330376Y106375D01*
X331172Y106045D01*
X332033D01*
X332829Y106375D01*
X333438Y106984D01*
X333768Y107780D01*
Y108641D01*
X333438Y109437D01*
X332829Y110046D01*
X332033Y110376D01*
D02*
G37*
G36*
X332320Y104724D02*
X331459D01*
X330663Y104395D01*
X330054Y103786D01*
X329724Y102990D01*
Y102128D01*
X330054Y101332D01*
X330663Y100723D01*
X331459Y100394D01*
X332320D01*
X333116Y100723D01*
X333726Y101332D01*
X334055Y102128D01*
Y102990D01*
X333726Y103786D01*
X333116Y104395D01*
X332320Y104724D01*
D02*
G37*
G36*
X325055Y104173D02*
X324194D01*
X323398Y103843D01*
X322789Y103234D01*
X322459Y102438D01*
Y101576D01*
X322789Y100781D01*
X323398Y100171D01*
X324194Y99842D01*
X325055D01*
X325851Y100171D01*
X326460Y100781D01*
X326790Y101576D01*
Y102438D01*
X326460Y103234D01*
X325851Y103843D01*
X325055Y104173D01*
D02*
G37*
G36*
X346887Y98622D02*
X346026D01*
X345230Y98292D01*
X344815Y97877D01*
X344488Y97739D01*
X344162Y97877D01*
X343746Y98292D01*
X342950Y98622D01*
X342089D01*
X341293Y98292D01*
X340684Y97683D01*
X340354Y96887D01*
Y96026D01*
X340665Y95276D01*
X340354Y94525D01*
Y93664D01*
X340684Y92868D01*
X341293Y92259D01*
X342089Y91929D01*
X342950D01*
X343746Y92259D01*
X344162Y92674D01*
X344488Y92812D01*
X344815Y92674D01*
X345230Y92259D01*
X346026Y91929D01*
X346887D01*
X347683Y92259D01*
X348292Y92868D01*
X348622Y93664D01*
Y94525D01*
X348311Y95276D01*
X348622Y96026D01*
Y96887D01*
X348292Y97683D01*
X347683Y98292D01*
X346887Y98622D01*
D02*
G37*
G36*
X356542Y98686D02*
X355681D01*
X354885Y98356D01*
X354276Y97747D01*
X354014Y97116D01*
X353484D01*
X353223Y97747D01*
X352614Y98356D01*
X351818Y98686D01*
X350956D01*
X350161Y98356D01*
X349551Y97747D01*
X349222Y96951D01*
Y96090D01*
X349533Y95340D01*
X349222Y94589D01*
Y93728D01*
X349551Y92932D01*
X350161Y92323D01*
X350956Y91993D01*
X351818D01*
X352614Y92323D01*
X353223Y92932D01*
X353484Y93563D01*
X354014D01*
X354276Y92932D01*
X354885Y92323D01*
X355681Y91993D01*
X356542D01*
X357338Y92323D01*
X357947Y92932D01*
X358277Y93728D01*
Y94589D01*
X357966Y95340D01*
X358277Y96090D01*
Y96951D01*
X357947Y97747D01*
X357338Y98356D01*
X356542Y98686D01*
D02*
G37*
G36*
X353125Y63965D02*
X352263D01*
X351467Y63635D01*
X351052Y63220D01*
X350726Y63082D01*
X350399Y63220D01*
X349984Y63635D01*
X349188Y63965D01*
X348326D01*
X347530Y63635D01*
X347115Y63220D01*
X346788Y63082D01*
X346462Y63220D01*
X346046Y63635D01*
X345251Y63965D01*
X344389D01*
X343593Y63635D01*
X342984Y63026D01*
X342655Y62230D01*
Y61369D01*
X342984Y60573D01*
X343136Y60422D01*
X342984Y60270D01*
X342655Y59474D01*
Y58613D01*
X342984Y57817D01*
X343593Y57208D01*
X344389Y56878D01*
X345251D01*
X346046Y57208D01*
X346462Y57623D01*
X346789Y57761D01*
X347115Y57623D01*
X347530Y57208D01*
X348326Y56878D01*
X349188D01*
X349984Y57208D01*
X350399Y57623D01*
X350725Y57761D01*
X351052Y57623D01*
X351467Y57208D01*
X352263Y56878D01*
X353125D01*
X353920Y57208D01*
X354336Y57623D01*
X354662Y57761D01*
X354989Y57623D01*
X355404Y57208D01*
X356200Y56878D01*
X357062D01*
X357857Y57208D01*
X358273Y57623D01*
X358599Y57761D01*
X358926Y57623D01*
X359341Y57208D01*
X360137Y56878D01*
X360999D01*
X361794Y57208D01*
X362210Y57623D01*
X362536Y57761D01*
X362863Y57623D01*
X363278Y57208D01*
X364074Y56878D01*
X364936D01*
X365732Y57208D01*
X366341Y57817D01*
X366670Y58613D01*
Y59474D01*
X366341Y60270D01*
X365993Y60618D01*
X366229Y61189D01*
Y62050D01*
X365900Y62846D01*
X365290Y63455D01*
X364495Y63785D01*
X363633D01*
X362837Y63455D01*
X362758Y63376D01*
X362052Y63377D01*
X361794Y63635D01*
X360999Y63965D01*
X360137D01*
X359341Y63635D01*
X358926Y63220D01*
X358599Y63082D01*
X358273Y63220D01*
X357857Y63635D01*
X357062Y63965D01*
X356200D01*
X355404Y63635D01*
X354989Y63220D01*
X354662Y63082D01*
X354336Y63220D01*
X353920Y63635D01*
X353125Y63965D01*
D02*
G37*
G36*
X330777Y60592D02*
X329916D01*
X329120Y60263D01*
X328511Y59654D01*
X328181Y58858D01*
Y57996D01*
X328511Y57200D01*
X329120Y56591D01*
X329916Y56262D01*
X330777D01*
X331573Y56591D01*
X332182Y57200D01*
X332512Y57996D01*
Y58858D01*
X332182Y59654D01*
X331573Y60263D01*
X330777Y60592D01*
D02*
G37*
G36*
X300586Y58147D02*
X299763D01*
X299004Y57832D01*
X298422Y57251D01*
X298108Y56491D01*
Y55669D01*
X298422Y54909D01*
X299004Y54328D01*
X299763Y54013D01*
X300586D01*
X301345Y54328D01*
X301927Y54909D01*
X302241Y55669D01*
Y56491D01*
X301927Y57251D01*
X301345Y57832D01*
X300586Y58147D01*
D02*
G37*
G36*
X306120Y54527D02*
X305298D01*
X304538Y54213D01*
X303957Y53631D01*
X303642Y52872D01*
Y52049D01*
X303957Y51290D01*
X304538Y50708D01*
X305298Y50394D01*
X306120D01*
X306880Y50708D01*
X307461Y51290D01*
X307776Y52049D01*
Y52872D01*
X307461Y53631D01*
X306880Y54213D01*
X306120Y54527D01*
D02*
G37*
G36*
X304761Y49409D02*
X303900D01*
X303104Y49080D01*
X302495Y48471D01*
X302165Y47675D01*
Y46813D01*
X302495Y46018D01*
X303104Y45408D01*
X303900Y45079D01*
X304761D01*
X305557Y45408D01*
X306166Y46018D01*
X306496Y46813D01*
Y47675D01*
X306166Y48471D01*
X305557Y49080D01*
X304761Y49409D01*
D02*
G37*
G36*
X317754Y43898D02*
X316892D01*
X316096Y43568D01*
X315487Y42959D01*
X315158Y42163D01*
Y41368D01*
X314983Y41234D01*
X314696Y41123D01*
X314612Y41206D01*
X313816Y41535D01*
X312955D01*
X312159Y41206D01*
X311550Y40597D01*
X311221Y39801D01*
Y38939D01*
X311550Y38144D01*
X312159Y37534D01*
X312955Y37205D01*
X313816D01*
X314612Y37534D01*
X315222Y38144D01*
X315551Y38939D01*
Y39735D01*
X315726Y39869D01*
X316013Y39980D01*
X316096Y39897D01*
X316892Y39567D01*
X317754D01*
X318549Y39897D01*
X319159Y40506D01*
X319488Y41302D01*
Y42163D01*
X319159Y42959D01*
X318549Y43568D01*
X317754Y43898D01*
D02*
G37*
G36*
X329958Y44685D02*
X329097D01*
X328301Y44355D01*
X327692Y43746D01*
X327362Y42950D01*
Y42089D01*
X327692Y41293D01*
X328301Y40684D01*
X329097Y40354D01*
X329958D01*
X330754Y40684D01*
X331363Y41293D01*
X331693Y42089D01*
Y42950D01*
X331363Y43746D01*
X330754Y44355D01*
X329958Y44685D01*
D02*
G37*
G36*
X353346Y51054D02*
X352485D01*
X351689Y50724D01*
X351080Y50115D01*
X350750Y49319D01*
Y48458D01*
X351080Y47662D01*
X351479Y47263D01*
X351134Y46918D01*
X350804Y46123D01*
Y45261D01*
X351134Y44465D01*
X351428Y44171D01*
X351444Y43480D01*
X351275Y43311D01*
X350945Y42515D01*
Y41654D01*
X351275Y40858D01*
X351353Y40779D01*
X351351Y40081D01*
X351080Y39809D01*
X350750Y39013D01*
Y38152D01*
X351080Y37356D01*
X351689Y36747D01*
X352485Y36417D01*
X353346D01*
X354142Y36747D01*
X354751Y37356D01*
X355081Y38152D01*
Y39013D01*
X354751Y39809D01*
X354673Y39888D01*
X354674Y40586D01*
X354946Y40858D01*
X355276Y41654D01*
Y42515D01*
X354946Y43311D01*
X354652Y43605D01*
X354636Y44296D01*
X354805Y44465D01*
X355135Y45261D01*
Y46123D01*
X354805Y46918D01*
X354406Y47317D01*
X354751Y47662D01*
X355081Y48458D01*
Y49319D01*
X354751Y50115D01*
X354142Y50724D01*
X353346Y51054D01*
D02*
G37*
G36*
X360172D02*
X359310D01*
X358514Y50724D01*
X357905Y50115D01*
X357576Y49319D01*
Y48458D01*
X357905Y47662D01*
X358366Y47201D01*
X357960Y46794D01*
X357630Y45998D01*
Y45136D01*
X357960Y44341D01*
X358254Y44047D01*
X358269Y43356D01*
X358100Y43187D01*
X357771Y42391D01*
Y41529D01*
X358100Y40733D01*
X358499Y40335D01*
X357973Y39809D01*
X357644Y39013D01*
Y38152D01*
X357973Y37356D01*
X358582Y36747D01*
X359378Y36417D01*
X360240D01*
X361035Y36747D01*
X361645Y37356D01*
X361974Y38152D01*
Y39013D01*
X361645Y39809D01*
X361246Y40208D01*
X361772Y40733D01*
X362101Y41529D01*
Y42391D01*
X361772Y43187D01*
X361163Y43796D01*
X361150Y43860D01*
X361631Y44341D01*
X361961Y45136D01*
Y45998D01*
X361631Y46794D01*
X361170Y47255D01*
X361577Y47662D01*
X361906Y48458D01*
Y49319D01*
X361577Y50115D01*
X360968Y50724D01*
X360172Y51054D01*
D02*
G37*
G36*
X360099Y33071D02*
X359237D01*
X358441Y32742D01*
X357943Y32244D01*
X357446Y32742D01*
X356650Y33071D01*
X355788D01*
X354993Y32742D01*
X354383Y32133D01*
X354054Y31337D01*
Y30475D01*
X354383Y29679D01*
X354993Y29070D01*
X355788Y28741D01*
X356650D01*
X357446Y29070D01*
X357943Y29568D01*
X358441Y29070D01*
X359237Y28741D01*
X360099D01*
X360894Y29070D01*
X361504Y29679D01*
X361526Y29733D01*
X362026D01*
X362048Y29679D01*
X362657Y29070D01*
X363453Y28740D01*
X364315D01*
X365110Y29070D01*
X365720Y29679D01*
X366049Y30475D01*
Y31337D01*
X365720Y32132D01*
X365110Y32741D01*
X364315Y33071D01*
X363453D01*
X362657Y32741D01*
X362048Y32132D01*
X362026Y32078D01*
X361526D01*
X361504Y32133D01*
X360894Y32742D01*
X360099Y33071D01*
D02*
G37*
%LPD*%
D13*
X259098Y136178D02*
Y137709D01*
X248734Y148072D02*
X259098Y137709D01*
X247203Y148072D02*
X248734D01*
X261638Y133638D02*
X286506D01*
X236614Y158661D02*
X247203Y148072D01*
X259098Y136178D02*
X261638Y133638D01*
X254789Y131432D02*
X262206Y124016D01*
X254789Y131432D02*
Y135762D01*
X247367Y143184D02*
X254789Y135762D01*
X297346Y212890D02*
X305410D01*
X305512Y212992D01*
X293278Y24971D02*
X293504Y25197D01*
X281129Y24380D02*
X291453D01*
X292043Y24971D02*
X293278D01*
X291453Y24380D02*
X292043Y24971D01*
X279253Y26256D02*
X281129Y24380D01*
X293602Y31255D02*
Y38785D01*
X291142Y26575D02*
Y28794D01*
X293602Y31255D01*
X286915Y45472D02*
X293602Y38785D01*
X290945Y26378D02*
X291142Y26575D01*
X238688Y43428D02*
X239021Y43095D01*
X236462Y43428D02*
X238688D01*
X239021Y43095D02*
X255724D01*
X288185Y112996D02*
Y116894D01*
Y112996D02*
X292520Y108661D01*
X275628Y217717D02*
X277498Y219587D01*
X283465D01*
X268898Y217717D02*
X275628D01*
X259842Y226772D02*
X268898Y217717D01*
X370912Y19743D02*
X373228Y17426D01*
X370714Y19743D02*
X370912D01*
X365339Y2740D02*
X373228Y10630D01*
Y17426D01*
X141913Y141867D02*
X174994D01*
X178742Y144180D02*
X178768Y144207D01*
X177307Y144180D02*
X178742D01*
X174994Y141867D02*
X177307Y144180D01*
X116277Y116231D02*
X141913Y141867D01*
X103362Y55381D02*
X109121Y49622D01*
X135435D01*
X240004Y260477D02*
X240158Y260630D01*
X233071Y254724D02*
X238823Y260477D01*
X240004D01*
X255536Y254700D02*
X297346Y212890D01*
X238039Y254700D02*
X255536D01*
X-25197Y253543D02*
X-14440D01*
X8296Y230807D02*
X18406D01*
X26772Y222441D01*
X-14440Y253543D02*
X8296Y230807D01*
X272563Y26256D02*
X279253D01*
X255724Y43095D02*
X272563Y26256D01*
X262206Y124016D02*
X281063D01*
X288185Y116894D01*
X286506Y133638D02*
X311910Y108234D01*
X233071Y237795D02*
Y254724D01*
Y237795D02*
X244094Y226772D01*
X259842D01*
X205318Y20880D02*
X240344Y55905D01*
X244094D01*
X176394Y2740D02*
X365339D01*
X162992Y16142D02*
X176394Y2740D01*
X116277Y112411D02*
Y116231D01*
X113019Y109153D02*
X116277Y112411D01*
X185543Y37110D02*
Y40441D01*
X69738Y89138D02*
X84599Y74277D01*
X88501D01*
X103362Y59416D01*
Y55381D02*
Y59416D01*
X69738Y89138D02*
Y110174D01*
X69799Y110236D01*
Y134312D01*
X50673Y153438D02*
X69799Y134312D01*
X50673Y153438D02*
Y178461D01*
X182890Y43095D02*
X185543Y40441D01*
X-7087Y236221D02*
X50673Y178461D01*
X148605Y36452D02*
X173373D01*
X135435Y49622D02*
X148605Y36452D01*
X173373D02*
X174654Y35171D01*
X183605D01*
X185543Y37110D01*
X148819Y62910D02*
Y105512D01*
Y62910D02*
X152169Y59560D01*
Y46600D02*
Y59560D01*
Y46600D02*
X155519Y43250D01*
X236996Y48031D02*
X244246D01*
X236898Y47934D02*
X236996Y48031D01*
X246805Y45472D02*
X286915D01*
X244246Y48031D02*
X246805Y45472D01*
X243094Y143184D02*
X247367D01*
X239744Y146534D02*
X243094Y143184D01*
D21*
X-0Y288252D02*
X134Y287233D01*
X527Y286283D01*
X1153Y285468D01*
X1969Y284842D01*
X2918Y284449D01*
X3937Y284315D01*
X-27795Y298095D02*
X-27661Y297076D01*
X-27268Y296126D01*
X-26642Y295311D01*
X-25827Y294685D01*
X-24877Y294292D01*
X-23858Y294158D01*
X-27795Y300457D02*
X-28256Y301570D01*
X-29370Y302031D01*
X-38740Y284315D02*
X-37721Y284449D01*
X-36771Y284842D01*
X-35956Y285468D01*
X-35330Y286283D01*
X-34937Y287233D01*
X-34803Y288252D01*
X-37953Y185791D02*
X-36970Y185895D01*
X-36031Y186200D01*
X-35176Y186694D01*
X-34442Y187355D01*
X-33861Y188154D01*
X-33460Y189056D01*
X-33254Y190022D01*
Y191010D01*
X-33460Y191976D01*
X-33861Y192878D01*
X-34442Y193677D01*
X-35176Y194338D01*
X-36031Y194832D01*
X-36970Y195137D01*
X-37953Y195240D01*
X-34803Y105378D02*
X-34937Y106397D01*
X-35330Y107346D01*
X-35956Y108162D01*
X-36771Y108788D01*
X-37721Y109181D01*
X-38740Y109315D01*
X-29370Y91598D02*
X-28256Y92060D01*
X-27795Y93173D01*
X-23858Y99472D02*
X-24877Y99338D01*
X-25827Y98945D01*
X-26642Y98319D01*
X-27268Y97504D01*
X-27661Y96554D01*
X-27795Y95535D01*
X3937Y109315D02*
X2918Y109181D01*
X1969Y108788D01*
X1153Y108162D01*
X527Y107346D01*
X134Y106397D01*
X-0Y105378D01*
X3937Y284315D02*
X14670D01*
X-0Y288252D02*
Y294157D01*
X-23858D02*
X-0D01*
X-27795Y298094D02*
Y300457D01*
X-34803Y302031D02*
X-29370D01*
X-34803Y288252D02*
Y302031D01*
X-55357Y284315D02*
X-38740D01*
X-58425D02*
X-55357D01*
X-58425Y195240D02*
Y284315D01*
Y195240D02*
X-55357D01*
X-37953D01*
X-55357Y185791D02*
X-37953D01*
X-58425D02*
X-55357D01*
X-58425Y109315D02*
Y185791D01*
Y109315D02*
X-55357D01*
X-38740D01*
X-34803Y91598D02*
Y105378D01*
Y91598D02*
X-29370D01*
X-27795Y93173D02*
Y95535D01*
X-23858Y99472D02*
X-0D01*
Y105378D01*
X3937Y109315D02*
X14670D01*
D98*
X178678Y140219D02*
D03*
X11811Y259449D02*
D03*
X351181Y260630D02*
D03*
X11811Y236713D02*
D03*
X459941Y293504D02*
D03*
X471752D02*
D03*
X436024Y239075D02*
D03*
X424409D02*
D03*
X320866Y335433D02*
D03*
Y330315D02*
D03*
X326772Y335433D02*
D03*
Y330315D02*
D03*
X327165Y259449D02*
D03*
X320866D02*
D03*
D104*
X382579Y75590D02*
Y82677D01*
X437876Y76825D02*
X439928Y78877D01*
X438354Y16149D02*
X438445Y16240D01*
X419685Y135039D02*
X425197D01*
X433536Y137795D02*
X438976D01*
X433438Y137894D02*
X433536Y137795D01*
X428051Y137894D02*
X433438D01*
X438976Y137795D02*
X439014Y137833D01*
X440755D01*
X440846Y137924D01*
X441181D01*
X439928Y78877D02*
Y78877D01*
X441136Y80085D01*
Y81222D01*
X441181Y81267D02*
X450474Y71974D01*
X420511Y73243D02*
X434347D01*
X437929Y76825D01*
X419685Y74016D02*
X419738D01*
X420511Y73243D01*
X438445Y16240D02*
X444548D01*
X430232Y13428D02*
X433043Y16240D01*
X420165Y13428D02*
X430232D01*
X444548Y16240D02*
X444646Y16142D01*
X450787D01*
X433043Y16240D02*
X438354D01*
X425197Y135039D02*
X428051Y137894D01*
X184648Y146327D02*
Y232674D01*
X178718Y238605D02*
X184648Y232674D01*
X178678Y140357D02*
X184648Y146327D01*
X382863Y25798D02*
Y75351D01*
X373134Y80983D02*
X373228Y81077D01*
X382677Y75537D02*
X382863Y75351D01*
X382677Y75537D02*
Y75590D01*
X382863Y25798D02*
X389764Y18898D01*
X413386Y72315D02*
X413386Y72315D01*
X407522Y66451D02*
X413386Y72315D01*
X393911Y66451D02*
X407522D01*
X393906D02*
X393911D01*
X413152Y144328D02*
X413386Y144095D01*
X402461Y144328D02*
X413152D01*
X441181Y137924D02*
Y139390D01*
Y134749D02*
Y137924D01*
X435233Y147244D02*
Y212798D01*
Y145337D02*
Y147244D01*
X435275Y147202D02*
X449917D01*
X435233Y147244D02*
X435275Y147202D01*
X441181Y84620D02*
Y134749D01*
X451128Y134547D02*
X451181D01*
X450926Y134749D02*
X451128Y134547D01*
X441181Y134749D02*
X450926D01*
X413386Y147199D02*
X430383Y164197D01*
Y211153D01*
X392126Y192126D02*
Y192131D01*
X393257Y193262D01*
Y197929D01*
X384154Y184153D02*
X392126Y192126D01*
X384154Y167126D02*
Y184153D01*
X413386Y144095D02*
Y147199D01*
Y72315D02*
Y144095D01*
X450474Y20112D02*
Y24016D01*
Y20112D02*
X450838Y19749D01*
X446457Y24016D02*
X450474D01*
Y71974D01*
X450787Y16142D02*
Y19685D01*
Y11220D02*
Y16142D01*
X449515Y84706D02*
X449553D01*
X449429Y84620D02*
X449515Y84706D01*
X441181Y84620D02*
X449429D01*
X441181Y81267D02*
Y84620D01*
X389764Y18898D02*
X396063D01*
X178678Y140219D02*
Y140357D01*
X409083Y20107D02*
Y36915D01*
X406299Y17323D02*
X409083Y20107D01*
X393257Y197982D02*
X403346Y208071D01*
X375628Y168225D02*
X376727Y167126D01*
X375590Y168504D02*
X375628Y168466D01*
X376727Y167126D02*
X384154D01*
X375628Y168225D02*
Y168466D01*
X384154Y151984D02*
Y167126D01*
X409083Y36915D02*
X413386Y41218D01*
Y72315D01*
X168238Y238605D02*
X178718D01*
X383465Y102362D02*
Y151295D01*
Y98721D02*
Y102362D01*
X382579Y97835D02*
X383465Y98721D01*
X382579Y82677D02*
Y97835D01*
X383465Y151295D02*
X384154Y151984D01*
X373228Y81077D02*
X374828Y82677D01*
X384154Y151984D02*
X389961D01*
X374828Y82677D02*
X382579D01*
X403346Y208071D02*
Y227854D01*
X61772Y362008D02*
X209842D01*
X44567Y344803D02*
X61772Y362008D01*
X435233Y145337D02*
X441181Y139390D01*
X420276Y227756D02*
X435233Y212798D01*
X416535Y227756D02*
X420276D01*
D107*
X212629Y153253D02*
Y155936D01*
X205202Y145826D02*
X212629Y153253D01*
Y155936D02*
X219685Y162992D01*
X175804Y150180D02*
X178365Y147619D01*
X170079Y211024D02*
X175804Y205298D01*
Y150180D02*
Y205298D01*
X171441Y305553D02*
X175337Y309449D01*
X180709D01*
X171441Y270291D02*
Y305553D01*
X177366Y286843D02*
X180473Y289949D01*
X177366Y272674D02*
Y286843D01*
X180473Y289949D02*
Y304331D01*
X177366Y272674D02*
X182742Y267299D01*
X62118Y228082D02*
Y229013D01*
X60021Y225984D02*
X62118Y228082D01*
X169630Y101913D02*
X176442Y95101D01*
Y64011D02*
Y95101D01*
X100787Y150017D02*
X101789Y151019D01*
X103983D02*
X104134Y151170D01*
X101789Y151019D02*
X103983D01*
X78034Y150017D02*
X100787D01*
X108366Y195866D02*
Y227508D01*
X105217Y230658D02*
X108366Y227508D01*
X166142Y211024D02*
X170079D01*
X105217Y230658D02*
Y230728D01*
X62118Y229013D02*
X67702Y234596D01*
X-33169Y262303D02*
X-28232Y257366D01*
Y238681D02*
Y257366D01*
X-30512Y236402D02*
X-28232Y238681D01*
X181103Y242126D02*
X186752Y247776D01*
X189528D01*
X116594Y242126D02*
X181103D01*
X178740Y245669D02*
Y252902D01*
X67702Y234596D02*
X109063D01*
X116594Y242126D01*
X66339Y245472D02*
X93990Y245328D01*
X11811Y259449D02*
X20079Y251181D01*
X112941D02*
X114810Y253050D01*
X20079Y251181D02*
X112941D01*
X171441Y270291D02*
X177313Y264419D01*
X180167D01*
X76476Y103134D02*
X76591Y103248D01*
X114810Y151951D02*
Y152164D01*
Y151951D02*
X116158Y150603D01*
Y124679D02*
Y150603D01*
X94727Y103248D02*
X116158Y124679D01*
X76591Y103248D02*
X94727D01*
X69337Y220866D02*
X94632D01*
X69291Y220912D02*
X69337Y220866D01*
X170563Y41767D02*
Y86910D01*
X182948Y38045D02*
X183116D01*
X181846Y36943D02*
X182948Y38045D01*
X175387Y36943D02*
X181846D01*
X170563Y41767D02*
X175387Y36943D01*
X219685Y162992D02*
X243666D01*
X297244Y174803D02*
X317323D01*
X251146Y155512D02*
X277953D01*
X297244Y174803D01*
X243666Y162992D02*
X251146Y155512D01*
X39322Y289722D02*
X107832D01*
X39281Y289680D02*
X39322Y289722D01*
X107832D02*
X107874Y289764D01*
X76479Y269410D02*
X77991Y267898D01*
X114370Y282579D02*
Y285925D01*
X77991Y267898D02*
X99689D01*
X114370Y282579D01*
X53622Y269410D02*
X76479D01*
X63976Y247342D02*
X66339Y245472D01*
X63386Y164255D02*
X64256Y163385D01*
X63386Y164255D02*
Y164469D01*
X64256Y162845D02*
Y163385D01*
Y162845D02*
X70196Y156905D01*
X71145D01*
X78034Y150017D01*
X182742Y256904D02*
Y267299D01*
X178740Y252902D02*
X182742Y256904D01*
X176442Y39582D02*
Y39795D01*
Y64011D02*
X178166Y62287D01*
Y41519D02*
Y62287D01*
X176442Y39795D02*
X178166Y41519D01*
D108*
X207455Y319282D02*
X216126Y327953D01*
X318504D02*
X320866Y330315D01*
X216126Y327953D02*
X318504D01*
D116*
X11890Y300551D02*
D03*
X26772Y222441D02*
D03*
D118*
X502518Y258701D02*
D03*
D122*
X205202Y145826D02*
D03*
X419685Y135039D02*
D03*
X438976Y137795D02*
D03*
X419685Y74016D02*
D03*
X437967Y76862D02*
D03*
X420165Y13428D02*
D03*
X438354Y16240D02*
D03*
X236614Y158661D02*
D03*
X180709Y309449D02*
D03*
X180473Y304331D02*
D03*
X329134Y35433D02*
D03*
X305512Y212992D02*
D03*
X293504Y25197D02*
D03*
X290945Y26378D02*
D03*
X236462Y43428D02*
D03*
X292520Y108661D02*
D03*
X283465Y219587D02*
D03*
X60021Y225984D02*
D03*
X169630Y101913D02*
D03*
X449917Y147202D02*
D03*
X104134Y151170D02*
D03*
X370714Y19743D02*
D03*
X396063Y18898D02*
D03*
X450787Y11220D02*
D03*
X446457Y24016D02*
D03*
X357658Y135222D02*
D03*
X365354D02*
D03*
X350931D02*
D03*
X449606Y84744D02*
D03*
X450474Y71974D02*
D03*
X451181Y134547D02*
D03*
X105217Y230728D02*
D03*
X-25197Y253543D02*
D03*
X178740Y245669D02*
D03*
X93990Y245328D02*
D03*
X383465Y102362D02*
D03*
X240158Y260630D02*
D03*
X238039Y254700D02*
D03*
X364641Y221036D02*
D03*
X364635Y223424D02*
D03*
Y226026D02*
D03*
Y228930D02*
D03*
X350431Y231246D02*
D03*
Y228930D02*
D03*
Y221036D02*
D03*
Y226026D02*
D03*
Y223424D02*
D03*
X357158Y231246D02*
D03*
Y223424D02*
D03*
Y226026D02*
D03*
X357164Y221036D02*
D03*
X357158Y228930D02*
D03*
X364635Y231246D02*
D03*
X244094Y55905D02*
D03*
X349606Y38583D02*
D03*
X375590Y168504D02*
D03*
X389961Y151984D02*
D03*
X392126Y192126D02*
D03*
X393257Y197982D02*
D03*
X113583Y29429D02*
D03*
X128393Y152756D02*
D03*
X109252Y242871D02*
D03*
X112572Y188227D02*
D03*
X403346Y227854D02*
D03*
X136417Y209154D02*
D03*
X144291Y314469D02*
D03*
X117815Y86614D02*
D03*
X114515Y47244D02*
D03*
X32756Y347362D02*
D03*
X2854Y128248D02*
D03*
X124668Y264858D02*
D03*
X139633Y96457D02*
D03*
X113288Y299159D02*
D03*
X113583Y134744D02*
D03*
X382677Y75590D02*
D03*
X180167Y264419D02*
D03*
X373228Y81077D02*
D03*
X402461Y144328D02*
D03*
X76476Y103134D02*
D03*
X430383Y211153D02*
D03*
X44567Y344803D02*
D03*
X209842Y362008D02*
D03*
X114810Y152164D02*
D03*
X114810Y253050D02*
D03*
X393911Y66451D02*
D03*
X406299Y17323D02*
D03*
X170567Y86914D02*
D03*
X183165Y38095D02*
D03*
X69291Y220965D02*
D03*
X94685Y220866D02*
D03*
X416535Y227756D02*
D03*
X317323Y174803D02*
D03*
X162992Y16142D02*
D03*
X39281Y289680D02*
D03*
X107874Y289764D02*
D03*
X189528Y247776D02*
D03*
X178768Y144207D02*
D03*
X113019Y109153D02*
D03*
X-7087Y236221D02*
D03*
X182890Y43095D02*
D03*
X53622Y269410D02*
D03*
X-33169Y262303D02*
D03*
X-30512Y236402D02*
D03*
X114370Y285925D02*
D03*
X207455Y319282D02*
D03*
X363766Y45616D02*
D03*
X349507Y48888D02*
D03*
X356289Y45592D02*
D03*
X356430Y41985D02*
D03*
X363907Y42009D02*
D03*
X349562Y45733D02*
D03*
X363712Y48888D02*
D03*
X356235D02*
D03*
X350931Y125197D02*
D03*
X357658D02*
D03*
X365354D02*
D03*
Y128740D02*
D03*
X350931D02*
D03*
X357658D02*
D03*
Y131868D02*
D03*
X350931D02*
D03*
X365354D02*
D03*
X363779Y38583D02*
D03*
X356303D02*
D03*
X349703Y42126D02*
D03*
X63976Y247342D02*
D03*
X155519Y43250D02*
D03*
X148819Y105512D02*
D03*
X63386Y164469D02*
D03*
X243149Y19179D02*
D03*
X205512Y20686D02*
D03*
X108366Y195866D02*
D03*
X178365Y147619D02*
D03*
X166142Y211024D02*
D03*
X176442Y39582D02*
D03*
X311910Y108234D02*
D03*
X236898Y47934D02*
D03*
X239744Y146534D02*
D03*
D126*
X168238Y238605D02*
D03*
X324016Y183858D02*
D03*
Y178740D02*
D03*
D128*
X324522Y30822D02*
X329134Y35433D01*
X324522Y27409D02*
Y30822D01*
X319914Y22801D02*
X324522Y27409D01*
X281879Y21337D02*
X283342Y22801D01*
X245307Y21337D02*
X281879D01*
X283342Y22801D02*
X319914D01*
X243149Y19179D02*
X245307Y21337D01*
M02*
