M48
;Layer_Color=9474304
;FILE_FORMAT=2:4
INCH,TZ
;TYPE=PLATED
T1F00S00C0.0079
T2F00S00C0.0098
T3F00S00C0.0157
T4F00S00C0.0197
T5F00S00C0.0402
T6F00S00C0.0453
T7F00S00C0.0531
T8F00S00C0.0886
T9F00S00C0.1260
;TYPE=NON_PLATED
T10F00S00C0.1260
%
T01
X32402Y1575
X33071Y1627
X34278Y1067
Y827
X34606
Y1067
X35152Y1083
X35150Y827
X35512
X35513Y1083
X36057
X36056Y827
X36416Y831
X36417Y1083
X36388Y2007
Y2284
Y2574
X35967Y2574
Y2284
Y2007
X35622
Y2284
Y2574
X35295
Y2284
Y2007
X34969
Y2284
Y2574
X35622Y3091
X35967
X36388Y3091
X36378Y3858
X36391Y4201
X36377Y4562
X36371Y4889
X35974
X35980Y4557
X35629Y4559
X35623Y4889
X35292
X35297Y4569
X34956Y4573
X34951Y4889
X34970Y4213
X35311Y4208
X35643Y4198
X35630Y3858
X35292Y3858
X34961Y3858
X35981
X35994Y4196
X36057Y5904
Y6180
X36406Y6162
X36450Y5904
X35663
Y6180
X35269Y6180
Y5904
X34876Y5904
Y6180
X34482Y6180
Y5904
X34646Y9409
Y9646
X34252
Y9409
X35139Y9416
Y9652
X35611
Y9416
X36102
Y9652
X36496Y9646
Y9409
X36542Y10604
Y10949
Y11298
Y11697
X36141Y11707
X35758
Y11293
Y10949
X35435
Y11270
X35102
Y10949
Y10604
X35435
X35758
X36141
Y10949
Y11298
X36116Y12520
X35766
X35443Y12529
X35443Y12875
Y13187
X35766Y13187
Y12874
X36116
Y13187
Y13522
X35766
X35443Y13523
X35093Y13522
Y13187
Y12874
Y12520
X36535
Y12874
Y13187
Y13522
X36632Y14538
X36634Y14786
X36241
X36238Y14538
X35845
X35847Y14786
X35453Y14786
X35451Y14538
X35057Y14538
X35059Y14786
X34668Y14776
X34666Y14528
X33189Y10256
X32462Y10201
X32480Y19764
X33189Y20079
X34636Y20286
Y20681
X35059Y20785
Y20525
Y20286
X35400
Y20525
Y20785
X35732
Y20525
X35733Y20286
X36083
X36083Y20525
Y20785
X36480
Y20525
X36480Y20286
X36480Y21076
X36476Y21332
X36079
X36083Y21076
X35732
X35729Y21332
X35397
X35400Y21076
X35059
X35056Y21332
X35043Y22104
Y22342
Y22603
Y22893
Y23125
X35384
Y22893
Y22603
Y22342
Y22104
X35716
X35716Y22342
Y22603
Y22893
Y23125
X36066
Y22893
Y22603
Y22342
X36067Y22104
X36464
X36463Y22342
Y22603
Y22893
Y23125
X36614Y24128
Y24404
X36220
Y24128
X35827
Y24404
X35433Y24404
Y24128
X35039Y24128
Y24404
X34636Y22440
Y22096
T02
X4321Y4183
X6378Y4400
X9449Y4724
X11451
X11481Y4429
X11053Y5157
X11358Y2943
X10315Y2785
X12402Y1936
X14644Y1642
X14685Y1407
X15512Y1437
X16299Y1614
X16850Y2283
X17239Y3407
X17644Y3958
X17559Y4450
X18289Y4309
X18317Y3809
X17971Y2958
X17744Y778
X19043Y1014
X20551Y2069
X24315Y1918
X25111Y1869
X24764Y966
X25015Y3729
X23543Y4016
X23646Y4343
X23690Y4793
X25472Y5039
X26673Y5025
X26629Y4733
X27048Y5163
X28072Y4968
X27795Y3976
X27205Y3740
Y3307
X28319Y2728
X27952Y2332
X15552Y4325
X15480Y4769
X15906Y5118
X30571Y5246
X30433Y4724
X31339Y3937
X31732Y4173
X32953Y4252
X32913Y3543
X31216Y2075
X31575Y1693
X30912Y1487
X29032Y1838
X29094Y2638
X29350Y2520
X29173Y3189
X37046Y2480
X37071Y1974
X37087Y1693
X39075Y1142
X39646Y1102
X39606Y1890
X39567Y2756
X40079Y2362
X38967Y2422
X40630Y1732
X41024Y1614
X40846Y1142
X42504Y1354
X42047Y1969
Y2283
X43381Y1937
X43310Y1624
X40534Y3503
X37047Y5236
X44646Y2953
Y2402
X45079Y1122
X44449Y512
Y7185
X45047Y7197
X44961Y8474
X44567Y12756
X44505Y13209
X45118Y13455
X44992Y14720
X44567Y15276
X43310Y13789
X42520Y13504
X42441Y12756
X42953
X42047Y14173
Y14567
X40246Y14433
X40039Y14646
X39449Y14961
X38996Y15198
Y14683
X39528Y14173
X39616Y15512
X39173Y16713
X38898Y16742
X37559Y16850
X37435Y15958
X37655Y15869
X37968Y14537
X37125Y14183
X37292Y11082
X37175Y10479
X36945Y10670
X38346Y10236
X39144Y10491
Y10984
X38484Y8987
X38268Y7559
X37323Y8108
X36752Y7574
X37999Y5491
X38976Y6378
X39391Y6645
X40945Y7362
X40821Y7795
X42047Y8071
Y8346
X42476Y7395
X42500Y6654
X43012
X41999Y6625
X43255Y7590
X43307Y7953
X44272Y6654
X40454Y9160
X33160Y10821
X32933Y12165
X32992Y12913
X33239Y12799
X33177Y14476
X29998Y14241
X29755Y13985
X30709Y13396
X31496Y12598
X31207Y11255
X31191Y10823
X31189Y10374
X29252Y10866
X29127Y11493
X30017Y5608
X33035Y5843
X31732Y17480
X31257Y19823
X30977Y20050
X29143Y20457
X33110Y20413
X35157Y19331
Y19094
X35420
Y19331
X35669
Y19094
X36063
Y19331
X36326
Y19094
X36614
X36615Y19336
X36693Y18346
X38967Y19429
X39213Y19213
X39326Y19798
X28084Y20512
X27047Y20551
X25969Y20683
X25153Y20262
X25787Y19488
X24951Y18862
X22661Y19382
X22402Y19646
X22598Y20315
X22441Y17402
X23854Y16018
X23974Y14653
X23943Y14285
X24685Y13937
X25733Y13697
X26507
X27190Y13797
X27323Y12756
X27545Y12028
Y11614
X28189Y11181
X28095Y10870
X28150Y13543
X25130Y12260
X24646Y11496
X24764Y10197
X25365Y9649
X23661Y10433
X22947Y10191
X22988Y8815
X22498Y9191
X22559Y7205
X21024Y6378
X18031
X17057Y8691
X16963Y10191
X16299Y10591
X14882Y10551
X14577Y11437
X15335Y12244
X16289Y12264
X16022Y13521
X15835Y14911
X15557Y15282
X15512Y15906
X15433Y17165
X15827Y17638
X16289Y17787
X17351Y16875
X18032Y16693
X18178Y17156
X18713Y17934
X18740Y18583
X17323Y19313
X17004Y19429
X18032Y15748
X17837Y14762
X17877Y14421
X18623Y14471
X18193Y13311
X17795Y11732
X18976Y10945
X20000Y13701
X20728Y13484
X20394Y14724
X13287Y15344
X14636Y16998
X13963Y9646
X14644Y6535
X14646Y6142
X24409Y5591
X11545Y5807
X11270Y5811
X10815Y6909
X11782Y8661
X11827Y9032
X11821Y10326
X11302Y10915
X10692Y9559
X9213Y9370
X9272Y11398
X8589Y11384
X7460Y10856
X7212Y10856
X6742Y11122
X6059Y10313
X4823Y10207
X2805Y10581
X3071Y6890
X2028Y7195
X285Y12825
X-2146Y12110
X-2244Y17374
X-915Y17687
X-89Y16432
X720Y16722
X1752Y18169
X2823Y18190
X3669Y17929
X3179Y16919
X3150Y15669
X1959Y15246
X4528Y16831
X5305Y17372
X6339Y16447
X6732Y15276
X9157Y15259
X9459Y15314
X10413Y15117
X10443Y16161
X9971Y17229
X11257Y18823
X10837Y19587
X11870Y20187
X11481Y15216
X12839Y15276
X11358Y13474
X5829Y13363
X5098Y12500
X7648Y10313
X5906Y20630
X4060Y19646
X118Y19675
X-354Y19724
X-197Y20157
X-1902Y18795
X-3516Y17945
X-4035Y17634
Y17008
X-3770Y17146
X-4035Y16386
Y15676
Y15102
X-3553Y15453
X-4035Y14181
Y13224
Y11650
Y18319
Y20157
X-4016Y20748
X-3543Y20482
X-2677Y20827
X-3238Y21368
X-3150Y21654
X-3396Y22390
X-4035Y22669
Y22055
X-4016Y21417
X-4035Y23307
Y23925
Y24567
X-4094Y25197
X-4035Y25831
X-3763Y25674
X-3647Y25468
X-3317Y26230
X-2608Y26314
X-4035Y26453
Y27075
Y27709
Y28024
X-3081Y24890
X-3051Y23640
X-2105Y23614
X-2051Y24335
X-2520Y25354
X-795Y25689
X-315Y25748
X-541Y26289
X-488Y26762
X-484Y27524
X-2197Y27142
X-1980Y22736
X-709Y23622
X1772Y23278
X3024Y23775
X3189Y24409
X4055Y23622
X4201Y21291
X3307Y20906
X3150Y21772
X5657Y21834
X5650Y22382
X6002Y22598
X6004Y21181
X7115Y21673
X7362
X7648Y21112
X6929Y22096
X6969Y23110
X6655Y24035
X6398Y24734
X6969Y24843
X5846Y25315
X5183Y25368
X5362Y26941
X3928Y28968
X3722Y32420
X3276Y34736
X4457Y34480
X7234Y31909
X7530
X7648Y31201
X11329Y29916
X11437Y28593
X10787Y28976
X11555Y27047
X11230Y26201
X10955Y26204
X10344Y25748
X9724Y25315
X9409Y24882
X9399Y24533
X10925Y24287
X11481Y25305
X11614Y23386
X10522Y23073
X10422Y22381
X9469Y22087
X9724Y23073
X12467Y26486
X15091Y27047
X14596Y27938
X15364Y28652
X16289Y28732
X16443Y26307
X15693Y25476
X15704Y24746
X16289Y23287
X16614Y21102
X13642Y20915
X14631Y22366
X17874Y24567
X18953Y24778
X18017Y26442
X19016Y27441
X21500Y26280
X24016Y26063
X23804Y25470
X24015Y24909
X24220Y24456
X23268Y22795
X22756Y21732
X25866Y23425
X26804Y23300
X27180Y23438
X28188Y23497
X28175Y23171
X28346Y21959
X26929Y26339
X26496
X24488Y28881
X23150Y29338
X23269Y29994
X23228Y31260
X22643Y30987
X23248Y32510
X22835Y33601
X20925Y34367
X21024Y35928
X20984Y36201
X20746Y31928
X17244Y30945
X17402Y30394
X14429Y31447
X13375Y29272
X22461Y28752
X22598Y28543
X26339Y32243
X26892
X29606Y23898
X29553Y23400
X30394Y22402
X31181Y21969
X30987Y20920
X30551Y21299
X29146Y21240
X33071Y21732
X33031Y22441
X33166Y24118
X36024Y25315
X36339Y25315
X36713Y25217
X37197Y24449
X37175Y26317
X34941Y26496
X40020Y27047
X41102Y26772
X41014Y26339
X41447Y25965
X42047Y26929
X41345Y27480
X41337Y27747
X41345Y27992
X41516Y28740
X40965Y28701
X42697Y28740
X42638Y29724
X42598Y30856
X42618Y32981
X44175Y33017
X43711Y36024
X43350Y27961
X43780Y27323
Y26929
X41654Y22776
X40335Y22785
X39882Y23543
X38971Y23514
X39016Y24107
X37968Y23032
X37008Y22520
X36929Y21024
X38327Y20876
X43038Y21115
X44331Y27441
X45226Y27490
X45866Y27087
X46811
X44409Y28425
X44832Y29389
X44505Y32778
X44734Y34232
X45423
X45248Y34057
X46250Y34193
X46644Y33151
Y32904
X46880Y35020
Y35267
X47052Y36365
X44960Y35548
X44695Y35347
X46929Y36634
X46093Y38484
X46142Y38878
X20827Y38100
X20532
T03
X6850Y2362
X6811Y5138
X8701Y3937
X11181Y2260
X14409Y4488
X13069Y7293
X14409Y9449
X15679Y14596
X15384Y17687
X13189Y17874
X18937Y20827
X9852Y20384
X7559Y19685
X6722Y16407
X10315Y16693
X10758Y17421
X10817Y14075
X8524Y13927
X7530Y8750
X6693Y5748
X10059Y5827
X1742Y9124
X4291Y24803
X4173Y26260
X6850Y26083
X7638Y29400
X5739Y30179
X4813Y30184
X6398Y31772
X12746Y25089
X10472Y21654
X15669Y21181
X18661Y24263
X17835Y25827
X19291Y27480
X17244Y31339
X16398Y31545
X15787Y31841
X19951Y32831
T04
X14606Y787
X39921Y4037
Y4500
Y4963
X40413
Y4500
Y4037
X45433
Y4500
Y4963
X45925
Y4500
Y4037
Y5425
Y5888
X45433
Y5425
Y10179
Y10642
Y11104
Y11567
Y12030
X45925
Y11567
Y11104
Y10642
Y10179
X45945Y16378
Y16850
Y17283
Y17717
Y18189
X45453
Y17717
Y17283
Y16850
Y16378
X40433
Y16850
Y17283
Y17717
Y18189
X39931
Y17717
Y17283
Y16850
Y16378
X37358Y17406
X36885
X32402Y17874
Y18386
X37018Y9764
X37441
X39973Y10179
X40426
Y10642
X39973
Y11104
X40426
Y11567
X39973
Y12030
X40426
X40413Y5888
Y5425
X39921
Y5888
X25000Y6299
X27126Y9703
X27598
X26152Y14610
X26260Y16181
Y16693
X26772
Y16181
X17868Y14022
X10787Y12205
X3941Y11352
X-1299Y20539
X-1732
X-2941Y13449
X1181Y23671
Y25945
X1417Y28189
X3189
X16824Y23861
X25591Y24370
X26496Y26850
X26929
X26890Y31614
X26339Y31616
X32087Y33031
Y33543
X32677
Y33031
X32717Y25945
X32087
X35118Y26063
X39055Y26102
X39902Y25354
Y24882
Y24449
Y24016
X40394
Y24449
Y24882
Y25354
Y23543
X42441Y23907
X43602
X43612Y21762
X42402
X40512Y33268
Y33740
X40000
X40000Y33268
X45994Y29350
X47175
X51063Y29642
Y30232
X52332Y34145
Y34735
X45945Y25276
Y24803
Y24370
Y23937
Y23465
X45453
Y23937
Y24370
Y24803
Y25276
X48622Y37343
Y37933
X19124Y38612
X1378Y37441
T05
X2677Y21244
Y22244
Y23244
X3677
Y22244
Y21244
Y24669
Y25669
Y26669
X2677
Y25669
Y24669
X2189Y29055
X3189
Y30055
X2189
X1189
Y29055
T06
X12349Y1242
X12349Y6165
X12319Y11469
X12349Y17002
X-1181Y19764
X-2205
X12349Y22502
X12349Y27947
T07
X48756Y1350
X52756
Y5350
Y6980
X48756
Y5350
Y10980
Y12610
X52756
Y10980
Y16610
Y18240
X48756
Y16610
Y22240
Y23870
X52756
Y22240
Y27870
X48756
T08
X50252Y3350
Y8980
Y14610
Y20240
Y25870
T09
X39528Y8140
X28504
Y29281
X39528
T10
X54189Y30571
Y32402
Y35571
Y37402
M30
