G04*
G04 #@! TF.GenerationSoftware,Altium Limited,Altium Designer,22.9.1 (49)*
G04*
G04 Layer_Color=8421504*
%FSLAX25Y25*%
%MOIN*%
G70*
G04*
G04 #@! TF.SameCoordinates,F2BEA512-F08D-4B97-9B6D-B9E427450466*
G04*
G04*
G04 #@! TF.FilePolarity,Positive*
G04*
G01*
G75*
%ADD20C,0.00100*%
%ADD21R,0.10630X0.05118*%
%ADD22R,0.03543X0.02756*%
%ADD23R,0.03937X0.08268*%
%ADD24R,0.03347X0.03740*%
%ADD25R,0.03937X0.03937*%
%ADD26R,0.05512X0.01772*%
%ADD27R,0.03740X0.03347*%
%ADD28R,0.01181X0.03347*%
%ADD29R,0.06299X0.04724*%
%ADD30R,0.02756X0.03543*%
%ADD31R,0.03347X0.01378*%
%ADD32R,0.11024X0.02165*%
%ADD33R,0.03150X0.03150*%
%ADD34R,0.04724X0.02362*%
%ADD35R,0.06614X0.12362*%
%ADD36R,0.10827X0.24410*%
%ADD37R,0.04134X0.02165*%
%ADD38R,0.06693X0.04331*%
%ADD39R,0.01378X0.02559*%
%ADD40R,0.05315X0.04528*%
%ADD41R,0.13386X0.07087*%
%ADD42R,0.05315X0.06102*%
G04:AMPARAMS|DCode=43|XSize=7.72mil|YSize=28.35mil|CornerRadius=1.2mil|HoleSize=0mil|Usage=FLASHONLY|Rotation=0.000|XOffset=0mil|YOffset=0mil|HoleType=Round|Shape=RoundedRectangle|*
%AMROUNDEDRECTD43*
21,1,0.00772,0.02595,0,0,0.0*
21,1,0.00532,0.02835,0,0,0.0*
1,1,0.00240,0.00266,-0.01297*
1,1,0.00240,-0.00266,-0.01297*
1,1,0.00240,-0.00266,0.01297*
1,1,0.00240,0.00266,0.01297*
%
%ADD43ROUNDEDRECTD43*%
G04:AMPARAMS|DCode=44|XSize=7.72mil|YSize=28.4mil|CornerRadius=1.2mil|HoleSize=0mil|Usage=FLASHONLY|Rotation=0.000|XOffset=0mil|YOffset=0mil|HoleType=Round|Shape=RoundedRectangle|*
%AMROUNDEDRECTD44*
21,1,0.00772,0.02600,0,0,0.0*
21,1,0.00532,0.02840,0,0,0.0*
1,1,0.00240,0.00266,-0.01300*
1,1,0.00240,-0.00266,-0.01300*
1,1,0.00240,-0.00266,0.01300*
1,1,0.00240,0.00266,0.01300*
%
%ADD44ROUNDEDRECTD44*%
%ADD45R,0.03937X0.03937*%
%ADD46R,0.01378X0.03347*%
%ADD47R,0.10039X0.10039*%
%ADD48R,0.06102X0.05315*%
%ADD49R,0.06890X0.02362*%
%ADD50R,0.12008X0.02402*%
G36*
X549547Y310000D02*
X534232D01*
Y319843D01*
X536647D01*
X536647Y319843D01*
X537148Y319281D01*
X538322Y318344D01*
X539674Y317692D01*
X541139Y317357D01*
X542640D01*
X544105Y317692D01*
X545458Y318344D01*
X546631Y319281D01*
X547132Y319843D01*
X549547Y319843D01*
Y310000D01*
D02*
G37*
G36*
Y378189D02*
X547132D01*
X546631Y378750D01*
X545458Y379687D01*
X544105Y380340D01*
X542640Y380674D01*
X541139D01*
X539674Y380340D01*
X538322Y379687D01*
X537148Y378750D01*
X536647Y378189D01*
X534232D01*
Y388032D01*
X549547D01*
Y378189D01*
D02*
G37*
D20*
X-0Y288252D02*
X134Y287233D01*
X527Y286283D01*
X1153Y285468D01*
X1969Y284842D01*
X2918Y284449D01*
X3937Y284315D01*
X-27795Y298095D02*
X-27661Y297076D01*
X-27268Y296126D01*
X-26642Y295311D01*
X-25827Y294685D01*
X-24877Y294292D01*
X-23858Y294158D01*
X-27795Y300457D02*
X-28256Y301570D01*
X-29370Y302031D01*
X-38740Y284315D02*
X-37721Y284449D01*
X-36771Y284842D01*
X-35956Y285468D01*
X-35330Y286283D01*
X-34937Y287233D01*
X-34803Y288252D01*
X-37953Y185791D02*
X-36970Y185895D01*
X-36031Y186200D01*
X-35176Y186694D01*
X-34442Y187355D01*
X-33861Y188154D01*
X-33460Y189056D01*
X-33254Y190022D01*
Y191010D01*
X-33460Y191976D01*
X-33861Y192878D01*
X-34442Y193677D01*
X-35176Y194338D01*
X-36031Y194832D01*
X-36970Y195137D01*
X-37953Y195240D01*
X-34803Y105378D02*
X-34937Y106397D01*
X-35330Y107346D01*
X-35956Y108162D01*
X-36771Y108788D01*
X-37721Y109181D01*
X-38740Y109315D01*
X-29370Y91598D02*
X-28256Y92060D01*
X-27795Y93173D01*
X-23858Y99472D02*
X-24877Y99338D01*
X-25827Y98945D01*
X-26642Y98319D01*
X-27268Y97504D01*
X-27661Y96554D01*
X-27795Y95535D01*
X3937Y109315D02*
X2918Y109181D01*
X1969Y108788D01*
X1153Y108162D01*
X527Y107346D01*
X134Y106397D01*
X-0Y105378D01*
X3937Y284315D02*
X14670D01*
X-0Y288252D02*
Y294157D01*
X-23858D02*
X-0D01*
X-27795Y298094D02*
Y300457D01*
X-34803Y302031D02*
X-29370D01*
X-34803Y288252D02*
Y302031D01*
X-55357Y284315D02*
X-38740D01*
X-58425D02*
X-55357D01*
X-58425Y195240D02*
Y284315D01*
Y195240D02*
X-55357D01*
X-37953D01*
X-55357Y185791D02*
X-37953D01*
X-58425D02*
X-55357D01*
X-58425Y109315D02*
Y185791D01*
Y109315D02*
X-55357D01*
X-38740D01*
X-34803Y91598D02*
Y105378D01*
Y91598D02*
X-29370D01*
X-27795Y93173D02*
Y95535D01*
X-23858Y99472D02*
X-0D01*
Y105378D01*
X3937Y109315D02*
X14670D01*
D21*
X257677Y359547D02*
D03*
Y348524D02*
D03*
Y330413D02*
D03*
Y319390D02*
D03*
D22*
X367126Y241339D02*
D03*
Y235827D02*
D03*
X362697D02*
D03*
Y241339D02*
D03*
X358268Y235827D02*
D03*
Y241339D02*
D03*
X353839D02*
D03*
Y235827D02*
D03*
X349409Y235827D02*
D03*
Y241339D02*
D03*
X344980D02*
D03*
Y235827D02*
D03*
X447638Y265650D02*
D03*
Y271161D02*
D03*
X358268Y156398D02*
D03*
Y150886D02*
D03*
X410531Y304429D02*
D03*
Y309941D02*
D03*
X444291Y288287D02*
D03*
Y293799D02*
D03*
X344980Y65453D02*
D03*
Y70965D02*
D03*
X349410Y65453D02*
D03*
Y70965D02*
D03*
X447687Y304380D02*
D03*
Y309892D02*
D03*
X410433Y143898D02*
D03*
Y149409D02*
D03*
X414665D02*
D03*
Y143898D02*
D03*
X414646Y21102D02*
D03*
Y26614D02*
D03*
X243701Y324410D02*
D03*
Y329921D02*
D03*
X-2008Y188032D02*
D03*
X3740D02*
D03*
X247736Y139665D02*
D03*
Y145177D02*
D03*
X243209Y139665D02*
D03*
Y145177D02*
D03*
X243209Y229823D02*
D03*
X243209Y224311D02*
D03*
X247736Y229823D02*
D03*
Y224311D02*
D03*
X247736Y54724D02*
D03*
Y60236D02*
D03*
X243209Y54724D02*
D03*
Y60236D02*
D03*
X127839Y29429D02*
D03*
Y23918D02*
D03*
X127839Y81709D02*
D03*
Y76198D02*
D03*
X156973Y25984D02*
D03*
Y20473D02*
D03*
X156973Y78068D02*
D03*
Y72556D02*
D03*
X127839Y134744D02*
D03*
Y129232D02*
D03*
X156973Y131299D02*
D03*
Y125788D02*
D03*
X127839Y190076D02*
D03*
Y184564D02*
D03*
X127839Y245079D02*
D03*
Y239567D02*
D03*
X156973Y186434D02*
D03*
Y180922D02*
D03*
X156973Y241634D02*
D03*
Y236122D02*
D03*
X127839Y299524D02*
D03*
Y294012D02*
D03*
X156973Y295883D02*
D03*
Y290371D02*
D03*
X414468Y268012D02*
D03*
Y262500D02*
D03*
X443209Y271161D02*
D03*
Y265650D02*
D03*
X288440Y224508D02*
D03*
Y230020D02*
D03*
X299125Y205512D02*
D03*
Y200001D02*
D03*
X367126Y150886D02*
D03*
Y156398D02*
D03*
X362697Y150886D02*
D03*
Y156398D02*
D03*
X353839Y150886D02*
D03*
Y156398D02*
D03*
X349409Y150886D02*
D03*
Y156398D02*
D03*
X344980Y150886D02*
D03*
Y156398D02*
D03*
X296369Y120571D02*
D03*
Y115060D02*
D03*
X288440Y145079D02*
D03*
Y139567D02*
D03*
Y54134D02*
D03*
Y59646D02*
D03*
X299125Y29626D02*
D03*
Y35138D02*
D03*
X367126Y70965D02*
D03*
Y65453D02*
D03*
X362697Y70965D02*
D03*
Y65453D02*
D03*
X358268Y70965D02*
D03*
Y65453D02*
D03*
X353839Y70965D02*
D03*
Y65453D02*
D03*
X444095Y146752D02*
D03*
Y152264D02*
D03*
X444980Y29528D02*
D03*
Y24016D02*
D03*
X444095Y90453D02*
D03*
Y84941D02*
D03*
X415157Y83563D02*
D03*
X410433Y26614D02*
D03*
X-2008Y193543D02*
D03*
X27520Y209763D02*
D03*
X415157Y78051D02*
D03*
X3740Y193543D02*
D03*
X27205Y189685D02*
D03*
X410433Y21102D02*
D03*
X27520Y215275D02*
D03*
X27205Y195197D02*
D03*
D23*
X198976Y122539D02*
D03*
Y162303D02*
D03*
X228976D02*
D03*
Y122539D02*
D03*
X208976D02*
D03*
X198976Y307283D02*
D03*
X228976D02*
D03*
Y347047D02*
D03*
X208976Y307283D02*
D03*
X198976Y347047D02*
D03*
X198977Y249114D02*
D03*
X228976D02*
D03*
Y209350D02*
D03*
X208977D02*
D03*
X198977D02*
D03*
X198976Y39764D02*
D03*
Y79528D02*
D03*
X228976D02*
D03*
Y39764D02*
D03*
X208976D02*
D03*
D24*
X432382Y277362D02*
D03*
X437500D02*
D03*
X421850D02*
D03*
X426968D02*
D03*
X332677Y19980D02*
D03*
X327559D02*
D03*
X409350Y93110D02*
D03*
X414468D02*
D03*
X409350Y154921D02*
D03*
X414468D02*
D03*
X409350Y31988D02*
D03*
X414468D02*
D03*
X327559Y105413D02*
D03*
X332677D02*
D03*
X327559Y190354D02*
D03*
X332677D02*
D03*
X457776Y266339D02*
D03*
X462894D02*
D03*
X457874Y260236D02*
D03*
X462992D02*
D03*
X419094Y293209D02*
D03*
X413976D02*
D03*
X426083Y136761D02*
D03*
X420965D02*
D03*
X436614D02*
D03*
X431496D02*
D03*
X426058Y74911D02*
D03*
X420940D02*
D03*
X436589D02*
D03*
X431471D02*
D03*
X426083Y13976D02*
D03*
X420965D02*
D03*
X436614D02*
D03*
X431496D02*
D03*
X259646Y151870D02*
D03*
X254527D02*
D03*
X254528Y236319D02*
D03*
X259646D02*
D03*
X254527Y66732D02*
D03*
X259646D02*
D03*
X278445Y236319D02*
D03*
X283563D02*
D03*
X289086Y193406D02*
D03*
X294204D02*
D03*
X294204Y199606D02*
D03*
X289086D02*
D03*
X294204Y211811D02*
D03*
X289086D02*
D03*
X283519Y230020D02*
D03*
X278401D02*
D03*
X278445Y223819D02*
D03*
X283563D02*
D03*
X289086Y205610D02*
D03*
X294204D02*
D03*
X334055Y207677D02*
D03*
X328937D02*
D03*
X334110Y235158D02*
D03*
X328992D02*
D03*
X334110Y228957D02*
D03*
X328992D02*
D03*
X334054Y213878D02*
D03*
X328937D02*
D03*
X283563Y138878D02*
D03*
X278445D02*
D03*
X286330Y126870D02*
D03*
X291448D02*
D03*
X291448Y120669D02*
D03*
X286330D02*
D03*
X291448Y114666D02*
D03*
X286330D02*
D03*
Y108465D02*
D03*
X291448D02*
D03*
X283563Y151378D02*
D03*
X278445D02*
D03*
X283563Y65945D02*
D03*
X278445D02*
D03*
X334055Y122736D02*
D03*
X328937D02*
D03*
X334054Y128937D02*
D03*
X328937D02*
D03*
X328992Y144016D02*
D03*
X334110D02*
D03*
X328992Y150217D02*
D03*
X334110D02*
D03*
X283519Y145079D02*
D03*
X278401D02*
D03*
X292913Y41437D02*
D03*
X287795D02*
D03*
X294204Y23032D02*
D03*
X289086D02*
D03*
X278445Y53445D02*
D03*
X283563D02*
D03*
X283519Y59646D02*
D03*
X278401D02*
D03*
X294204Y29233D02*
D03*
X289086D02*
D03*
X294204Y35236D02*
D03*
X289086D02*
D03*
X334055Y37303D02*
D03*
X328937D02*
D03*
X334054Y43504D02*
D03*
X328937D02*
D03*
X334110Y64784D02*
D03*
X328992D02*
D03*
X334110Y58583D02*
D03*
X328992D02*
D03*
X377338Y12319D02*
D03*
X382456D02*
D03*
X371826D02*
D03*
X366708D02*
D03*
X522086Y303346D02*
D03*
X527205D02*
D03*
D25*
X452264Y265453D02*
D03*
Y271358D02*
D03*
X406299Y20906D02*
D03*
Y26811D02*
D03*
X184055Y318012D02*
D03*
Y312106D02*
D03*
X184055Y133268D02*
D03*
Y127362D02*
D03*
X184055Y214173D02*
D03*
Y220079D02*
D03*
X184055Y44587D02*
D03*
Y50492D02*
D03*
X406299Y143701D02*
D03*
Y149606D02*
D03*
D26*
X420472Y260433D02*
D03*
X437795D02*
D03*
Y262992D02*
D03*
Y265551D02*
D03*
Y268110D02*
D03*
X420472D02*
D03*
Y265551D02*
D03*
Y262992D02*
D03*
X420472Y154478D02*
D03*
Y151918D02*
D03*
Y149360D02*
D03*
Y146800D02*
D03*
X437795D02*
D03*
Y149360D02*
D03*
Y151918D02*
D03*
Y154478D02*
D03*
X420472Y31693D02*
D03*
Y29134D02*
D03*
Y26575D02*
D03*
Y24016D02*
D03*
X437795D02*
D03*
Y26575D02*
D03*
Y29134D02*
D03*
Y31693D02*
D03*
X420448Y92627D02*
D03*
Y90068D02*
D03*
Y87509D02*
D03*
Y84950D02*
D03*
X437770D02*
D03*
Y87509D02*
D03*
Y90068D02*
D03*
Y92627D02*
D03*
D27*
X384252Y181201D02*
D03*
Y186319D02*
D03*
X400787Y150098D02*
D03*
Y155217D02*
D03*
X405413Y309744D02*
D03*
Y304626D02*
D03*
X409350Y87500D02*
D03*
Y82382D02*
D03*
X400886Y31988D02*
D03*
Y26870D02*
D03*
X439271Y288484D02*
D03*
Y293602D02*
D03*
X130201Y43996D02*
D03*
Y38878D02*
D03*
X136811Y12598D02*
D03*
Y17717D02*
D03*
X136205Y38878D02*
D03*
Y43996D02*
D03*
X136811Y61614D02*
D03*
Y66733D02*
D03*
X150477Y25788D02*
D03*
Y20669D02*
D03*
X162878Y20669D02*
D03*
Y25788D02*
D03*
X150477Y78038D02*
D03*
Y72920D02*
D03*
X162878Y72949D02*
D03*
Y78068D02*
D03*
X130201Y96457D02*
D03*
Y91339D02*
D03*
X130201Y149311D02*
D03*
Y144193D02*
D03*
X136205Y91339D02*
D03*
Y96457D02*
D03*
X136811Y114862D02*
D03*
Y119981D02*
D03*
X150477Y131103D02*
D03*
Y125984D02*
D03*
X162878Y125985D02*
D03*
Y131103D02*
D03*
X136205Y144193D02*
D03*
Y149311D02*
D03*
X136811Y169980D02*
D03*
Y175099D02*
D03*
X130201Y199705D02*
D03*
Y204823D02*
D03*
X136205Y204823D02*
D03*
Y199705D02*
D03*
X136811Y225197D02*
D03*
Y230315D02*
D03*
X150477Y186404D02*
D03*
Y181286D02*
D03*
X162878Y181316D02*
D03*
Y186434D02*
D03*
X150477Y241437D02*
D03*
Y236319D02*
D03*
X162878Y241437D02*
D03*
Y236319D02*
D03*
X130201Y309154D02*
D03*
Y314272D02*
D03*
X130201Y259646D02*
D03*
Y254528D02*
D03*
X136205Y254528D02*
D03*
Y259646D02*
D03*
X136811Y279429D02*
D03*
Y284547D02*
D03*
X150477Y295853D02*
D03*
Y290735D02*
D03*
X136205Y314272D02*
D03*
Y309154D02*
D03*
X162878Y290765D02*
D03*
Y295883D02*
D03*
X439173Y324725D02*
D03*
Y319606D02*
D03*
X452805Y309695D02*
D03*
Y304577D02*
D03*
X419094Y319606D02*
D03*
Y324725D02*
D03*
X377559Y259449D02*
D03*
Y254331D02*
D03*
X383760Y234941D02*
D03*
Y240059D02*
D03*
X382535Y205414D02*
D03*
Y200295D02*
D03*
X390453Y181201D02*
D03*
Y186319D02*
D03*
X371850Y259449D02*
D03*
Y254331D02*
D03*
X339764Y208662D02*
D03*
Y213779D02*
D03*
X339769Y228789D02*
D03*
Y233907D02*
D03*
X339764Y128839D02*
D03*
Y123721D02*
D03*
X339769Y143848D02*
D03*
Y148966D02*
D03*
X382535Y115354D02*
D03*
Y120473D02*
D03*
X384252Y151969D02*
D03*
Y146850D02*
D03*
X386811Y97146D02*
D03*
Y102264D02*
D03*
X392717Y97146D02*
D03*
Y102264D02*
D03*
X384252Y157480D02*
D03*
Y162599D02*
D03*
X390453Y157480D02*
D03*
Y162599D02*
D03*
X392027Y13878D02*
D03*
Y18996D02*
D03*
X398130Y13878D02*
D03*
Y18996D02*
D03*
X339764Y43406D02*
D03*
Y38287D02*
D03*
X339769Y63533D02*
D03*
Y58415D02*
D03*
X383858Y69685D02*
D03*
Y64567D02*
D03*
X382535Y29921D02*
D03*
Y35040D02*
D03*
X-6850Y124016D02*
D03*
X44567Y351181D02*
D03*
Y356299D02*
D03*
X32756Y351181D02*
D03*
Y356299D02*
D03*
X20945Y351181D02*
D03*
Y356299D02*
D03*
Y340472D02*
D03*
Y335354D02*
D03*
X-16693Y118898D02*
D03*
Y124016D02*
D03*
X-6850Y118898D02*
D03*
X2992Y124016D02*
D03*
Y118898D02*
D03*
D28*
X375744Y69193D02*
D03*
X373776D02*
D03*
X371807D02*
D03*
Y59744D02*
D03*
X373776D02*
D03*
X375744D02*
D03*
X377713D02*
D03*
Y69193D02*
D03*
X375744Y239567D02*
D03*
X373776D02*
D03*
X371807D02*
D03*
Y230118D02*
D03*
X373776D02*
D03*
X375744D02*
D03*
X377713D02*
D03*
Y239567D02*
D03*
X373775Y200394D02*
D03*
X375744D02*
D03*
X377712D02*
D03*
Y209843D02*
D03*
X375744D02*
D03*
X373775D02*
D03*
X371807D02*
D03*
Y200394D02*
D03*
Y115453D02*
D03*
Y124902D02*
D03*
X373775D02*
D03*
X375744D02*
D03*
X377712D02*
D03*
Y115453D02*
D03*
X375744D02*
D03*
X373775D02*
D03*
X375744Y154626D02*
D03*
X373776D02*
D03*
X371807D02*
D03*
Y145177D02*
D03*
X373776D02*
D03*
X375744D02*
D03*
X377713D02*
D03*
Y154626D02*
D03*
X371807Y30020D02*
D03*
Y39469D02*
D03*
X373775D02*
D03*
X375744D02*
D03*
X377712D02*
D03*
Y30020D02*
D03*
X375744D02*
D03*
X373775D02*
D03*
D29*
X374760Y64469D02*
D03*
Y234842D02*
D03*
X374759Y205118D02*
D03*
Y120177D02*
D03*
X374760Y149902D02*
D03*
X374759Y34744D02*
D03*
D30*
X372047Y78839D02*
D03*
X377559D02*
D03*
X316732Y19980D02*
D03*
X322244D02*
D03*
X322244Y105413D02*
D03*
X316732D02*
D03*
X322244Y190354D02*
D03*
X316732D02*
D03*
X431890Y320965D02*
D03*
X426378D02*
D03*
X415748Y70768D02*
D03*
X410236D02*
D03*
X257283Y131398D02*
D03*
X251772D02*
D03*
X251772Y215945D02*
D03*
X257283D02*
D03*
X251772Y46260D02*
D03*
X257283D02*
D03*
X431890Y293209D02*
D03*
X426378D02*
D03*
X370724Y249410D02*
D03*
X376236D02*
D03*
X377417Y192126D02*
D03*
X371905D02*
D03*
X328795Y240453D02*
D03*
X334307D02*
D03*
X334252Y218996D02*
D03*
X328740D02*
D03*
Y134055D02*
D03*
X334252D02*
D03*
X334307Y155512D02*
D03*
X328795D02*
D03*
X371752Y106791D02*
D03*
X377264D02*
D03*
X376236Y162894D02*
D03*
X370724D02*
D03*
X334251Y48622D02*
D03*
X328740D02*
D03*
X328795Y70079D02*
D03*
X334307D02*
D03*
X377417Y21752D02*
D03*
X371905D02*
D03*
D31*
X307776Y209252D02*
D03*
X307776Y124311D02*
D03*
X307776Y38878D02*
D03*
X323130Y121752D02*
D03*
X307776Y129429D02*
D03*
Y126870D02*
D03*
Y121752D02*
D03*
X323130Y124311D02*
D03*
Y126870D02*
D03*
Y129429D02*
D03*
X323130Y206693D02*
D03*
Y214370D02*
D03*
Y211811D02*
D03*
Y209252D02*
D03*
X307776Y206693D02*
D03*
Y211811D02*
D03*
Y214370D02*
D03*
X323185Y235650D02*
D03*
Y233091D02*
D03*
Y230532D02*
D03*
Y227973D02*
D03*
X307830D02*
D03*
Y230532D02*
D03*
Y233091D02*
D03*
Y235650D02*
D03*
X307830Y150709D02*
D03*
Y148150D02*
D03*
Y145591D02*
D03*
Y143032D02*
D03*
X323185D02*
D03*
Y145591D02*
D03*
Y148150D02*
D03*
Y150709D02*
D03*
X323185Y65276D02*
D03*
Y62717D02*
D03*
Y60158D02*
D03*
Y57599D02*
D03*
X307830D02*
D03*
Y60158D02*
D03*
Y62717D02*
D03*
Y65276D02*
D03*
X323130Y36319D02*
D03*
X307776Y43996D02*
D03*
Y41437D02*
D03*
Y36319D02*
D03*
X323130Y38878D02*
D03*
Y41437D02*
D03*
Y43996D02*
D03*
D32*
X-48976Y113350D02*
D03*
Y119650D02*
D03*
Y122799D02*
D03*
Y125949D02*
D03*
Y129098D02*
D03*
Y135398D02*
D03*
Y138547D02*
D03*
Y144846D02*
D03*
Y147996D02*
D03*
Y179492D02*
D03*
Y198390D02*
D03*
Y204689D02*
D03*
Y210988D02*
D03*
Y217287D02*
D03*
Y223587D02*
D03*
Y229886D02*
D03*
Y236185D02*
D03*
Y242484D02*
D03*
Y248783D02*
D03*
Y255083D02*
D03*
Y173193D02*
D03*
Y160594D02*
D03*
Y261382D02*
D03*
Y267681D02*
D03*
Y273980D02*
D03*
Y154295D02*
D03*
Y166894D02*
D03*
Y116500D02*
D03*
Y280280D02*
D03*
Y277130D02*
D03*
Y270831D02*
D03*
Y264531D02*
D03*
Y258232D02*
D03*
Y251933D02*
D03*
Y245634D02*
D03*
Y239335D02*
D03*
Y233035D02*
D03*
Y226736D02*
D03*
Y220437D02*
D03*
Y214138D02*
D03*
Y207839D02*
D03*
Y201539D02*
D03*
Y182642D02*
D03*
Y176343D02*
D03*
Y170043D02*
D03*
Y163744D02*
D03*
Y157445D02*
D03*
Y151146D02*
D03*
Y141697D02*
D03*
Y132248D02*
D03*
D33*
X32756Y368110D02*
D03*
Y374410D02*
D03*
X20945D02*
D03*
X44567D02*
D03*
Y368110D02*
D03*
X20945D02*
D03*
D34*
X20315Y196496D02*
D03*
X10473D02*
D03*
Y192756D02*
D03*
X20315Y189016D02*
D03*
X10473D02*
D03*
X10473Y220866D02*
D03*
X20315Y213386D02*
D03*
Y220866D02*
D03*
Y217126D02*
D03*
X10473Y213386D02*
D03*
Y217126D02*
D03*
D35*
X4567Y241220D02*
D03*
X-14252D02*
D03*
Y275236D02*
D03*
Y258228D02*
D03*
X4567D02*
D03*
Y275236D02*
D03*
D36*
X412795Y49173D02*
D03*
X445472D02*
D03*
X445472Y244094D02*
D03*
X412795D02*
D03*
X412795Y110236D02*
D03*
X445472D02*
D03*
Y172087D02*
D03*
X412795D02*
D03*
D37*
X143457Y29469D02*
D03*
X133221Y25729D02*
D03*
Y29469D02*
D03*
Y33209D02*
D03*
X143457D02*
D03*
Y25729D02*
D03*
Y78003D02*
D03*
Y85483D02*
D03*
X133221D02*
D03*
Y81743D02*
D03*
Y78003D02*
D03*
X143457Y81743D02*
D03*
X143457Y131044D02*
D03*
Y138524D02*
D03*
X133221D02*
D03*
Y134784D02*
D03*
Y131044D02*
D03*
X143457Y134784D02*
D03*
Y186369D02*
D03*
Y193849D02*
D03*
X133221D02*
D03*
Y190109D02*
D03*
Y186369D02*
D03*
X143457Y190109D02*
D03*
X143457Y241378D02*
D03*
Y248859D02*
D03*
X133221D02*
D03*
Y245118D02*
D03*
Y241378D02*
D03*
X143457Y245118D02*
D03*
Y295818D02*
D03*
Y303298D02*
D03*
X133221D02*
D03*
Y299558D02*
D03*
Y295818D02*
D03*
X143457Y299558D02*
D03*
D38*
X254527Y57284D02*
D03*
X254527Y142421D02*
D03*
X254527Y226870D02*
D03*
D39*
X251969Y61418D02*
D03*
X254527D02*
D03*
X257087D02*
D03*
Y53150D02*
D03*
X254527D02*
D03*
X251969D02*
D03*
X251969Y146555D02*
D03*
X254527D02*
D03*
X257086D02*
D03*
Y138287D02*
D03*
X254527D02*
D03*
X251969D02*
D03*
X251969Y222736D02*
D03*
X254527D02*
D03*
X257087D02*
D03*
Y231004D02*
D03*
X254527D02*
D03*
X251969D02*
D03*
D40*
X150476Y40059D02*
D03*
Y33169D02*
D03*
X150476Y85450D02*
D03*
Y92339D02*
D03*
X150476Y138484D02*
D03*
Y145374D02*
D03*
X150476Y193816D02*
D03*
Y200706D02*
D03*
X150476Y248819D02*
D03*
Y255709D02*
D03*
X150476Y303264D02*
D03*
Y310154D02*
D03*
D41*
X355665Y12599D02*
D03*
Y33071D02*
D03*
Y203445D02*
D03*
Y182973D02*
D03*
Y118504D02*
D03*
Y98032D02*
D03*
D42*
X311221Y75689D02*
D03*
X319094D02*
D03*
X289961Y217913D02*
D03*
X297835D02*
D03*
X288681Y48327D02*
D03*
X296555D02*
D03*
X290354Y133760D02*
D03*
X298228D02*
D03*
X319094Y161417D02*
D03*
X311221D02*
D03*
X319094Y246358D02*
D03*
X311221D02*
D03*
X177362Y320177D02*
D03*
X169488D02*
D03*
X169488Y309941D02*
D03*
X177362D02*
D03*
X177362Y125197D02*
D03*
X169488D02*
D03*
X177362Y135433D02*
D03*
X169488D02*
D03*
X177362Y212008D02*
D03*
X169488D02*
D03*
X177362Y222244D02*
D03*
X169488D02*
D03*
X169488Y52658D02*
D03*
X177362D02*
D03*
X169488Y42421D02*
D03*
X177362D02*
D03*
D43*
X344936Y44685D02*
D03*
X346511Y39449D02*
D03*
X349661D02*
D03*
X355960D02*
D03*
X352811D02*
D03*
X362259D02*
D03*
X359110D02*
D03*
X365409D02*
D03*
Y44685D02*
D03*
X359110D02*
D03*
X362259D02*
D03*
X352811D02*
D03*
X349661D02*
D03*
X346511D02*
D03*
X355960D02*
D03*
X366984Y39449D02*
D03*
Y44685D02*
D03*
X363834Y39449D02*
D03*
Y44685D02*
D03*
X360684Y39449D02*
D03*
Y44685D02*
D03*
X357535Y39449D02*
D03*
Y44685D02*
D03*
X354385Y39449D02*
D03*
Y44685D02*
D03*
X351236Y39449D02*
D03*
X348086D02*
D03*
Y44685D02*
D03*
X344936Y39449D02*
D03*
X344936Y228858D02*
D03*
X346511Y223622D02*
D03*
X348086D02*
D03*
X351236D02*
D03*
X349661D02*
D03*
X355960D02*
D03*
X357535D02*
D03*
X354385D02*
D03*
X352810D02*
D03*
X362259D02*
D03*
X363834D02*
D03*
X360684D02*
D03*
X359110D02*
D03*
X366984D02*
D03*
X365409D02*
D03*
Y228858D02*
D03*
X366984D02*
D03*
X359110D02*
D03*
X360684D02*
D03*
X363834D02*
D03*
X362259D02*
D03*
X352810D02*
D03*
X354385D02*
D03*
X357535D02*
D03*
X349661D02*
D03*
X348086D02*
D03*
X346511D02*
D03*
X344936Y223622D02*
D03*
X355960Y228858D02*
D03*
X344936Y209823D02*
D03*
X348086Y215059D02*
D03*
Y209823D02*
D03*
X351236D02*
D03*
X354385Y215059D02*
D03*
Y209823D02*
D03*
X357535Y215059D02*
D03*
Y209823D02*
D03*
X360684Y215059D02*
D03*
Y209823D02*
D03*
X363834Y215059D02*
D03*
Y209823D02*
D03*
X366984Y215059D02*
D03*
Y209823D02*
D03*
X355960Y215059D02*
D03*
X346511D02*
D03*
X349661D02*
D03*
X352811D02*
D03*
X362259D02*
D03*
X359110D02*
D03*
X365409D02*
D03*
Y209823D02*
D03*
X359110D02*
D03*
X362259D02*
D03*
X352811D02*
D03*
X355960D02*
D03*
X349661D02*
D03*
X346511D02*
D03*
X344936Y215059D02*
D03*
X344936Y130118D02*
D03*
X346511Y124882D02*
D03*
X349661D02*
D03*
X355960D02*
D03*
X352810D02*
D03*
X362259D02*
D03*
X359110D02*
D03*
X365409D02*
D03*
Y130118D02*
D03*
X359110D02*
D03*
X362259D02*
D03*
X352810D02*
D03*
X349661D02*
D03*
X346511D02*
D03*
X355960D02*
D03*
X366984Y124882D02*
D03*
Y130118D02*
D03*
X363834Y124882D02*
D03*
Y130118D02*
D03*
X360684Y124882D02*
D03*
Y130118D02*
D03*
X357535Y124882D02*
D03*
Y130118D02*
D03*
X354385Y124882D02*
D03*
Y130118D02*
D03*
X351236Y124882D02*
D03*
X348086D02*
D03*
Y130118D02*
D03*
X344936Y124882D02*
D03*
X355960Y143918D02*
D03*
X344936Y138681D02*
D03*
X346511Y143918D02*
D03*
X348086D02*
D03*
X349661D02*
D03*
X357535D02*
D03*
X354385D02*
D03*
X352810D02*
D03*
X362259D02*
D03*
X363834D02*
D03*
X360684D02*
D03*
X359109D02*
D03*
X366984D02*
D03*
X365409D02*
D03*
Y138681D02*
D03*
X366984D02*
D03*
X359109D02*
D03*
X360684D02*
D03*
X363834D02*
D03*
X362259D02*
D03*
X352810D02*
D03*
X354385D02*
D03*
X357535D02*
D03*
X355960D02*
D03*
X349661D02*
D03*
X351236D02*
D03*
X348086D02*
D03*
X346511D02*
D03*
X344936Y143918D02*
D03*
X355960Y58484D02*
D03*
X344936Y53248D02*
D03*
X346511Y58484D02*
D03*
X348086D02*
D03*
X349661D02*
D03*
X357535D02*
D03*
X354385D02*
D03*
X352811D02*
D03*
X362259D02*
D03*
X363834D02*
D03*
X360684D02*
D03*
X359110D02*
D03*
X366984D02*
D03*
X365409D02*
D03*
Y53248D02*
D03*
X366984D02*
D03*
X359110D02*
D03*
X360684D02*
D03*
X363834D02*
D03*
X362259D02*
D03*
X352811D02*
D03*
X354385D02*
D03*
X357535D02*
D03*
X355960D02*
D03*
X349661D02*
D03*
X351236D02*
D03*
X348086D02*
D03*
X346511D02*
D03*
X344936Y58484D02*
D03*
D44*
X351236Y44685D02*
D03*
X351236Y228858D02*
D03*
X351236Y215059D02*
D03*
X351236Y130118D02*
D03*
X351236Y143918D02*
D03*
X351236Y58484D02*
D03*
D45*
X-8583Y187992D02*
D03*
X-14488D02*
D03*
X122917Y29429D02*
D03*
X117012D02*
D03*
X122917Y81709D02*
D03*
X117012D02*
D03*
X122917Y134744D02*
D03*
X117012D02*
D03*
X122606Y189693D02*
D03*
X116700D02*
D03*
X122623Y299159D02*
D03*
X116717D02*
D03*
X122917Y245079D02*
D03*
X117012D02*
D03*
X426181Y326378D02*
D03*
X432087D02*
D03*
X405807Y67815D02*
D03*
X399902D02*
D03*
D46*
X311614Y117914D02*
D03*
X314173D02*
D03*
X316732D02*
D03*
X319291D02*
D03*
Y133268D02*
D03*
X316732D02*
D03*
X314173D02*
D03*
X311614D02*
D03*
X311614Y218209D02*
D03*
X311614Y47835D02*
D03*
X314173Y218209D02*
D03*
X316732D02*
D03*
X319291D02*
D03*
Y202854D02*
D03*
X316732D02*
D03*
X314173D02*
D03*
X311614D02*
D03*
X311669Y239488D02*
D03*
X314228D02*
D03*
X316787D02*
D03*
X319346D02*
D03*
Y224134D02*
D03*
X316787D02*
D03*
X314228D02*
D03*
X311669D02*
D03*
X311669Y139193D02*
D03*
X314228D02*
D03*
X316787D02*
D03*
X319346D02*
D03*
Y154548D02*
D03*
X316787D02*
D03*
X314228D02*
D03*
X311669D02*
D03*
X311669Y69114D02*
D03*
X314228D02*
D03*
X316787D02*
D03*
X319346D02*
D03*
Y53760D02*
D03*
X316787D02*
D03*
X314228D02*
D03*
X311669D02*
D03*
X311614Y32480D02*
D03*
X314173D02*
D03*
X316732D02*
D03*
X319291D02*
D03*
Y47835D02*
D03*
X316732D02*
D03*
X314173D02*
D03*
D47*
X315453Y125591D02*
D03*
X315453Y210531D02*
D03*
X315508Y231811D02*
D03*
X315508Y146871D02*
D03*
X315508Y61437D02*
D03*
X315453Y40157D02*
D03*
D48*
X35512Y196614D02*
D03*
Y188740D02*
D03*
D49*
X439173Y299685D02*
D03*
Y304685D02*
D03*
Y314685D02*
D03*
X419094D02*
D03*
Y299685D02*
D03*
X439173Y309685D02*
D03*
X419094Y304685D02*
D03*
Y309685D02*
D03*
D50*
X502598Y363071D02*
D03*
Y359055D02*
D03*
Y355039D02*
D03*
Y351024D02*
D03*
Y347008D02*
D03*
Y342992D02*
D03*
Y338976D02*
D03*
Y334961D02*
D03*
M02*
