G04*
G04 #@! TF.GenerationSoftware,Altium Limited,Altium Designer,22.9.1 (49)*
G04*
G04 Layer_Physical_Order=4*
G04 Layer_Color=6736896*
%FSLAX25Y25*%
%MOIN*%
G70*
G04*
G04 #@! TF.SameCoordinates,F2BEA512-F08D-4B97-9B6D-B9E427450466*
G04*
G04*
G04 #@! TF.FilePolarity,Positive*
G04*
G01*
G75*
%ADD16C,0.00787*%
%ADD20C,0.00100*%
%ADD86C,0.03937*%
%ADD90C,0.01772*%
%ADD91C,0.01181*%
%ADD93C,0.12598*%
%ADD98C,0.01968*%
%ADD99C,0.01772*%
%ADD100C,0.02756*%
%ADD101C,0.02126*%
G36*
X545972Y392535D02*
X547338Y392169D01*
X548645Y391628D01*
X549870Y390920D01*
X550993Y390059D01*
X551993Y389059D01*
X552854Y387937D01*
X553561Y386712D01*
X554103Y385405D01*
X554469Y384038D01*
X554654Y382636D01*
Y381928D01*
X554654Y11811D01*
X554654Y11104D01*
X554469Y9701D01*
X554103Y8335D01*
X553562Y7028D01*
X552854Y5803D01*
X551993Y4680D01*
X550993Y3680D01*
X549870Y2819D01*
X548645Y2112D01*
X547338Y1570D01*
X545972Y1204D01*
X544569Y1020D01*
X543862D01*
X11811Y1020D01*
X11104D01*
X9701Y1204D01*
X8335Y1570D01*
X7028Y2112D01*
X5803Y2819D01*
X4680Y3680D01*
X3680Y4680D01*
X2819Y5803D01*
X2112Y7028D01*
X1570Y8335D01*
X1204Y9701D01*
X1020Y11104D01*
X1020Y11811D01*
X1020Y99508D01*
X942Y99898D01*
X721Y100229D01*
X390Y100450D01*
X-0Y100527D01*
X-23910D01*
X-23934Y100522D01*
X-23960Y100526D01*
X-24345Y100507D01*
X-24419Y100489D01*
X-24494D01*
X-25251Y100338D01*
X-25344Y100300D01*
X-25442Y100280D01*
X-26155Y99985D01*
X-26239Y99929D01*
X-26332Y99891D01*
X-26974Y99462D01*
X-27044Y99391D01*
X-27128Y99335D01*
X-27674Y98789D01*
X-27729Y98706D01*
X-27801Y98635D01*
X-28229Y97993D01*
X-28268Y97900D01*
X-28324Y97817D01*
X-28619Y97104D01*
X-28638Y97005D01*
X-28677Y96913D01*
X-28828Y96156D01*
Y96080D01*
X-28846Y96007D01*
X-28865Y95621D01*
X-28861Y95596D01*
X-28866Y95571D01*
Y93209D01*
X-28866Y93098D01*
X-28951Y92894D01*
X-29107Y92738D01*
X-29311Y92653D01*
X-33834D01*
Y105413D01*
X-33839Y105439D01*
X-33836Y105464D01*
X-33855Y105850D01*
X-33873Y105923D01*
X-33873Y105998D01*
X-34023Y106755D01*
X-34062Y106848D01*
X-34082Y106946D01*
X-34377Y107659D01*
X-34433Y107743D01*
X-34471Y107835D01*
X-34900Y108477D01*
X-34971Y108548D01*
X-35026Y108632D01*
X-35572Y109177D01*
X-35656Y109233D01*
X-35727Y109304D01*
X-36368Y109733D01*
X-36461Y109772D01*
X-36545Y109827D01*
X-37258Y110123D01*
X-37356Y110142D01*
X-37449Y110181D01*
X-38206Y110331D01*
X-38282D01*
X-38355Y110350D01*
X-38741Y110369D01*
X-38766Y110365D01*
X-38791Y110370D01*
X-43406D01*
Y184807D01*
X-38004D01*
X-37971Y184814D01*
X-37937Y184809D01*
X-37321Y184850D01*
X-37224Y184876D01*
X-37123Y184882D01*
X-35932Y185202D01*
X-35813Y185261D01*
X-35686Y185303D01*
X-34618Y185920D01*
X-34518Y186008D01*
X-34407Y186082D01*
X-33535Y186954D01*
X-33461Y187065D01*
X-33373Y187165D01*
X-32756Y188233D01*
X-32713Y188360D01*
X-32654Y188479D01*
X-32335Y189671D01*
X-32326Y189804D01*
X-32300Y189935D01*
Y191168D01*
X-32326Y191299D01*
X-32335Y191432D01*
X-32654Y192623D01*
X-32713Y192743D01*
X-32756Y192869D01*
X-33373Y193937D01*
X-33461Y194037D01*
X-33535Y194148D01*
X-34407Y195020D01*
X-34518Y195094D01*
X-34618Y195182D01*
X-35686Y195799D01*
X-35813Y195842D01*
X-35932Y195901D01*
X-37123Y196220D01*
X-37224Y196227D01*
X-37321Y196253D01*
X-37937Y196293D01*
X-37971Y196289D01*
X-38004Y196295D01*
X-43406D01*
Y283331D01*
X-38791D01*
X-38766Y283336D01*
X-38741Y283332D01*
X-38355Y283351D01*
X-38282Y283369D01*
X-38206Y283369D01*
X-37449Y283520D01*
X-37356Y283558D01*
X-37258Y283578D01*
X-36545Y283873D01*
X-36461Y283929D01*
X-36368Y283967D01*
X-35727Y284396D01*
X-35656Y284467D01*
X-35572Y284523D01*
X-35026Y285069D01*
X-34971Y285152D01*
X-34900Y285223D01*
X-34471Y285865D01*
X-34432Y285958D01*
X-34377Y286041D01*
X-34081Y286754D01*
X-34062Y286853D01*
X-34023Y286946D01*
X-33873Y287703D01*
X-33873Y287778D01*
X-33854Y287852D01*
X-33835Y288237D01*
X-33839Y288263D01*
X-33834Y288287D01*
Y301047D01*
X-29421D01*
X-29421Y301047D01*
X-29421Y301047D01*
X-29311Y301047D01*
X-29107Y300963D01*
X-28951Y300807D01*
X-28866Y300603D01*
X-28866Y300492D01*
X-28866Y300492D01*
X-28866Y300492D01*
Y298130D01*
X-28861Y298105D01*
X-28865Y298080D01*
X-28846Y297694D01*
X-28828Y297621D01*
Y297545D01*
X-28677Y296788D01*
X-28638Y296695D01*
X-28619Y296597D01*
X-28324Y295884D01*
X-28268Y295800D01*
X-28229Y295708D01*
X-27801Y295066D01*
X-27730Y294995D01*
X-27674Y294911D01*
X-27128Y294366D01*
X-27044Y294310D01*
X-26974Y294239D01*
X-26332Y293810D01*
X-26239Y293772D01*
X-26155Y293716D01*
X-25442Y293421D01*
X-25344Y293401D01*
X-25251Y293362D01*
X-24494Y293212D01*
X-24419D01*
X-24345Y293194D01*
X-23959Y293175D01*
X-23934Y293178D01*
X-23910Y293173D01*
X-0D01*
X390Y293251D01*
X721Y293472D01*
X942Y293803D01*
X1020Y294193D01*
Y381890D01*
X1020Y382597D01*
X1204Y384000D01*
X1570Y385366D01*
X2112Y386673D01*
X2819Y387898D01*
X3680Y389020D01*
X4681Y390021D01*
X5803Y390882D01*
X7028Y391589D01*
X8335Y392130D01*
X9701Y392497D01*
X11104Y392681D01*
X11811Y392681D01*
X11811Y392681D01*
X11811Y392681D01*
X543862Y392720D01*
X544569D01*
X545972Y392535D01*
D02*
G37*
%LPC*%
G36*
X461848Y390945D02*
X460987D01*
X460191Y390615D01*
X459582Y390006D01*
X459252Y389210D01*
Y388349D01*
X459582Y387553D01*
X459852Y387283D01*
X459734Y386693D01*
X459699Y386678D01*
X459090Y386069D01*
X458760Y385273D01*
Y384412D01*
X459090Y383616D01*
X459699Y383007D01*
X460495Y382677D01*
X461356D01*
X462152Y383007D01*
X462761Y383616D01*
X463091Y384412D01*
Y385273D01*
X462761Y386069D01*
X462491Y386339D01*
X462608Y386929D01*
X462644Y386944D01*
X463253Y387553D01*
X463583Y388349D01*
Y389210D01*
X463253Y390006D01*
X462644Y390615D01*
X461848Y390945D01*
D02*
G37*
G36*
X208699Y383169D02*
X207837D01*
X207041Y382840D01*
X206792Y382590D01*
X206542Y382840D01*
X205746Y383169D01*
X204885D01*
X204089Y382840D01*
X203480Y382230D01*
X203150Y381435D01*
Y380573D01*
X203480Y379777D01*
X204089Y379168D01*
X204885Y378839D01*
X205746D01*
X206542Y379168D01*
X206792Y379418D01*
X207041Y379168D01*
X207837Y378839D01*
X208699D01*
X209494Y379168D01*
X210104Y379777D01*
X210433Y380573D01*
Y381435D01*
X210104Y382230D01*
X209494Y382840D01*
X208699Y383169D01*
D02*
G37*
G36*
X542510Y380315D02*
X541269D01*
X540052Y380073D01*
X538906Y379598D01*
X537874Y378908D01*
X536997Y378031D01*
X536307Y376999D01*
X535833Y375853D01*
X535591Y374636D01*
Y373395D01*
X535833Y372178D01*
X536307Y371032D01*
X536997Y370000D01*
X537874Y369123D01*
X538906Y368433D01*
X540052Y367958D01*
X541269Y367716D01*
X542510D01*
X543727Y367958D01*
X544874Y368433D01*
X545905Y369123D01*
X546783Y370000D01*
X547472Y371032D01*
X547947Y372178D01*
X548189Y373395D01*
Y374636D01*
X547947Y375853D01*
X547472Y376999D01*
X546783Y378031D01*
X545905Y378908D01*
X544874Y379598D01*
X543727Y380073D01*
X542510Y380315D01*
D02*
G37*
G36*
X469722Y368504D02*
X468861D01*
X468065Y368174D01*
X467456Y367565D01*
X467126Y366769D01*
Y365908D01*
X467456Y365112D01*
X468065Y364503D01*
X468462Y364338D01*
X468357Y364085D01*
Y363224D01*
X468686Y362428D01*
X469295Y361819D01*
X470091Y361489D01*
X470953D01*
X471749Y361819D01*
X472358Y362428D01*
X472687Y363224D01*
Y364085D01*
X472358Y364881D01*
X471749Y365490D01*
X471352Y365655D01*
X471457Y365908D01*
Y366769D01*
X471127Y367565D01*
X470518Y368174D01*
X469722Y368504D01*
D02*
G37*
G36*
X210273Y364173D02*
X209412D01*
X208616Y363844D01*
X208007Y363234D01*
X207677Y362439D01*
Y361577D01*
X208007Y360781D01*
X208616Y360172D01*
X209412Y359842D01*
X210273D01*
X211069Y360172D01*
X211678Y360781D01*
X212008Y361577D01*
Y362439D01*
X211678Y363234D01*
X211069Y363844D01*
X210273Y364173D01*
D02*
G37*
G36*
X450027Y357643D02*
X449165D01*
X448370Y357314D01*
X447760Y356705D01*
X447431Y355909D01*
Y355670D01*
X447383Y355639D01*
X446522D01*
X445726Y355309D01*
X445117Y354700D01*
X444787Y353904D01*
Y353043D01*
X445117Y352247D01*
X445726Y351638D01*
X446522Y351308D01*
X447383D01*
X448179Y351638D01*
X448788Y352247D01*
X449118Y353043D01*
Y353281D01*
X449165Y353313D01*
X450027D01*
X450823Y353642D01*
X451432Y354252D01*
X451761Y355047D01*
Y355909D01*
X451432Y356705D01*
X450823Y357314D01*
X450027Y357643D01*
D02*
G37*
G36*
X542510Y362008D02*
X541269D01*
X540052Y361766D01*
X538906Y361291D01*
X537874Y360601D01*
X536997Y359724D01*
X536307Y358692D01*
X535833Y357546D01*
X535591Y356329D01*
Y355088D01*
X535833Y353871D01*
X536307Y352725D01*
X536997Y351693D01*
X537874Y350816D01*
X538906Y350126D01*
X540052Y349652D01*
X541269Y349409D01*
X542510D01*
X543727Y349652D01*
X544874Y350126D01*
X545905Y350816D01*
X546783Y351693D01*
X547472Y352725D01*
X547947Y353871D01*
X548189Y355088D01*
Y356329D01*
X547947Y357546D01*
X547472Y358692D01*
X546783Y359724D01*
X545905Y360601D01*
X544874Y361291D01*
X543727Y361766D01*
X542510Y362008D01*
D02*
G37*
G36*
X469230Y354839D02*
X468368D01*
X467573Y354509D01*
X466963Y353900D01*
X466634Y353104D01*
Y352242D01*
X466963Y351447D01*
X466975Y351435D01*
X466963Y351423D01*
X466634Y350628D01*
Y349766D01*
X466963Y348970D01*
X467573Y348361D01*
X468368Y348031D01*
X469230D01*
X470026Y348361D01*
X470635Y348970D01*
X470965Y349766D01*
Y350628D01*
X470635Y351423D01*
X470623Y351435D01*
X470635Y351447D01*
X470965Y352242D01*
Y353104D01*
X470635Y353900D01*
X470026Y354509D01*
X469230Y354839D01*
D02*
G37*
G36*
X33187Y349528D02*
X32325D01*
X31529Y349198D01*
X30920Y348589D01*
X30591Y347793D01*
Y346931D01*
X30920Y346136D01*
X31529Y345527D01*
X32325Y345197D01*
X33187D01*
X33983Y345527D01*
X34592Y346136D01*
X34921Y346931D01*
Y347793D01*
X34592Y348589D01*
X33983Y349198D01*
X33187Y349528D01*
D02*
G37*
G36*
X251316Y343799D02*
X250487D01*
X249686Y343585D01*
X248968Y343170D01*
X248441Y342643D01*
X247914Y343170D01*
X247196Y343585D01*
X246394Y343799D01*
X245565D01*
X244764Y343585D01*
X244046Y343170D01*
X243460Y342584D01*
X243045Y341865D01*
X242830Y341064D01*
Y340235D01*
X243045Y339434D01*
X243460Y338716D01*
X243986Y338189D01*
X243460Y337663D01*
X243045Y336944D01*
X242830Y336143D01*
Y335314D01*
X243045Y334513D01*
X243460Y333795D01*
X244046Y333208D01*
X244764Y332794D01*
X245565Y332579D01*
X246394D01*
X247196Y332794D01*
X247914Y333208D01*
X248441Y333735D01*
X248968Y333208D01*
X249686Y332793D01*
X250487Y332579D01*
X251316D01*
X252117Y332793D01*
X252836Y333208D01*
X253422Y333794D01*
X253837Y334513D01*
X254051Y335314D01*
Y336143D01*
X253837Y336944D01*
X253422Y337662D01*
X252895Y338189D01*
X253422Y338716D01*
X253837Y339434D01*
X254051Y340235D01*
Y341064D01*
X253837Y341865D01*
X253422Y342584D01*
X252836Y343170D01*
X252117Y343585D01*
X251316Y343799D01*
D02*
G37*
G36*
X44998Y346969D02*
X44136D01*
X43340Y346639D01*
X42731Y346030D01*
X42402Y345234D01*
Y344372D01*
X42731Y343577D01*
X43340Y342968D01*
X44136Y342638D01*
X44998D01*
X45794Y342968D01*
X46403Y343577D01*
X46732Y344372D01*
Y345234D01*
X46403Y346030D01*
X45794Y346639D01*
X44998Y346969D01*
D02*
G37*
G36*
X454663Y344488D02*
X453802D01*
X453006Y344159D01*
X452397Y343549D01*
X452067Y342754D01*
Y342737D01*
X452050D01*
X451255Y342407D01*
X450645Y341798D01*
X450316Y341002D01*
Y340141D01*
X450645Y339345D01*
X451255Y338736D01*
X452050Y338406D01*
X452912D01*
X453708Y338736D01*
X454317Y339345D01*
X454647Y340141D01*
Y340158D01*
X454663D01*
X455459Y340487D01*
X456068Y341096D01*
X456398Y341892D01*
Y342754D01*
X456068Y343549D01*
X455459Y344159D01*
X454663Y344488D01*
D02*
G37*
G36*
X329072Y337500D02*
X328211D01*
X327415Y337170D01*
X326806Y336561D01*
X326476Y335765D01*
Y334904D01*
X326806Y334108D01*
X327415Y333499D01*
X328211Y333169D01*
X329072D01*
X329868Y333499D01*
X330477Y334108D01*
X330807Y334904D01*
Y335765D01*
X330477Y336561D01*
X329868Y337170D01*
X329072Y337500D01*
D02*
G37*
G36*
X323167D02*
X322305D01*
X321510Y337170D01*
X320901Y336561D01*
X320571Y335765D01*
Y334904D01*
X320901Y334108D01*
X321510Y333499D01*
X322305Y333169D01*
X323167D01*
X323963Y333499D01*
X324572Y334108D01*
X324902Y334904D01*
Y335765D01*
X324572Y336561D01*
X323963Y337170D01*
X323167Y337500D01*
D02*
G37*
G36*
X329072Y332382D02*
X328211D01*
X327415Y332052D01*
X326806Y331443D01*
X326476Y330647D01*
Y329786D01*
X326806Y328990D01*
X327415Y328381D01*
X328211Y328051D01*
X329072D01*
X329868Y328381D01*
X330477Y328990D01*
X330807Y329786D01*
Y330647D01*
X330477Y331443D01*
X329868Y332052D01*
X329072Y332382D01*
D02*
G37*
G36*
X323167D02*
X322305D01*
X321510Y332052D01*
X320901Y331443D01*
X320571Y330647D01*
Y329786D01*
X320901Y328990D01*
X321510Y328381D01*
X322305Y328051D01*
X323167D01*
X323963Y328381D01*
X324572Y328990D01*
X324902Y329786D01*
Y330647D01*
X324572Y331443D01*
X323963Y332052D01*
X323167Y332382D01*
D02*
G37*
G36*
X466868Y333677D02*
X466006D01*
X465210Y333348D01*
X464601Y332738D01*
X464272Y331943D01*
Y331081D01*
X464601Y330285D01*
X464613Y330274D01*
X464601Y330262D01*
X464272Y329466D01*
Y328605D01*
X464601Y327809D01*
X465210Y327200D01*
X466006Y326870D01*
X466868D01*
X467664Y327200D01*
X468273Y327809D01*
X468602Y328605D01*
Y329466D01*
X468273Y330262D01*
X468261Y330274D01*
X468273Y330285D01*
X468602Y331081D01*
Y331943D01*
X468273Y332738D01*
X467664Y333348D01*
X466868Y333677D01*
D02*
G37*
G36*
X442179Y332338D02*
X441318D01*
X440522Y332009D01*
X439913Y331399D01*
X439583Y330604D01*
Y329742D01*
X439913Y328946D01*
X440522Y328337D01*
X441318Y328008D01*
X442179D01*
X442386Y328093D01*
X442886Y327759D01*
Y327348D01*
X443215Y326552D01*
X443824Y325943D01*
X444620Y325613D01*
X445482D01*
X446278Y325943D01*
X446887Y326552D01*
X447216Y327348D01*
Y328209D01*
X446887Y329005D01*
X446278Y329614D01*
X445482Y329944D01*
X444620D01*
X444414Y329858D01*
X443914Y330192D01*
Y330604D01*
X443584Y331399D01*
X442975Y332009D01*
X442179Y332338D01*
D02*
G37*
G36*
X37143Y329724D02*
X36282D01*
X35486Y329395D01*
X34877Y328786D01*
X34547Y327990D01*
Y327128D01*
X34877Y326332D01*
X35486Y325723D01*
X36282Y325394D01*
X37143D01*
X37939Y325723D01*
X38548Y326332D01*
X38878Y327128D01*
Y327990D01*
X38548Y328786D01*
X37939Y329395D01*
X37143Y329724D01*
D02*
G37*
G36*
X177793Y327264D02*
X176932D01*
X176136Y326934D01*
X175526Y326325D01*
X175197Y325529D01*
Y324668D01*
X175526Y323872D01*
X176136Y323263D01*
X176932Y322933D01*
X177793D01*
X178589Y323263D01*
X179198Y323872D01*
X179527Y324668D01*
Y325529D01*
X179198Y326325D01*
X178589Y326934D01*
X177793Y327264D01*
D02*
G37*
G36*
X75726Y321260D02*
X74865D01*
X74069Y320930D01*
X73819Y320680D01*
X73569Y320930D01*
X72773Y321260D01*
X71912D01*
X71116Y320930D01*
X70507Y320321D01*
X70177Y319525D01*
Y318664D01*
X70507Y317868D01*
X71116Y317259D01*
X71912Y316929D01*
X72773D01*
X73569Y317259D01*
X73819Y317509D01*
X74069Y317259D01*
X74865Y316929D01*
X75726D01*
X76522Y317259D01*
X77131Y317868D01*
X77461Y318664D01*
Y319525D01*
X77131Y320321D01*
X76522Y320930D01*
X75726Y321260D01*
D02*
G37*
G36*
X542510Y330315D02*
X541269D01*
X540052Y330073D01*
X538906Y329598D01*
X537874Y328908D01*
X536997Y328031D01*
X536307Y326999D01*
X535833Y325853D01*
X535591Y324636D01*
Y323395D01*
X535833Y322178D01*
X536307Y321032D01*
X536997Y320000D01*
X537874Y319123D01*
X538906Y318433D01*
X540052Y317958D01*
X541269Y317716D01*
X542510D01*
X543727Y317958D01*
X544874Y318433D01*
X545905Y319123D01*
X546783Y320000D01*
X547472Y321032D01*
X547947Y322178D01*
X548189Y323395D01*
Y324636D01*
X547947Y325853D01*
X547472Y326999D01*
X546783Y328031D01*
X545905Y328908D01*
X544874Y329598D01*
X543727Y330073D01*
X542510Y330315D01*
D02*
G37*
G36*
X28679Y321850D02*
X27817D01*
X27021Y321521D01*
X26412Y320912D01*
X26083Y320116D01*
Y319254D01*
X26412Y318459D01*
X27021Y317849D01*
X27817Y317520D01*
X28679D01*
X29475Y317849D01*
X30084Y318459D01*
X30413Y319254D01*
Y320116D01*
X30084Y320912D01*
X29475Y321521D01*
X28679Y321850D01*
D02*
G37*
G36*
X144722Y316634D02*
X143861D01*
X143065Y316304D01*
X142456Y315695D01*
X142126Y314899D01*
Y314038D01*
X142456Y313242D01*
X143065Y312633D01*
X143861Y312303D01*
X144722D01*
X145518Y312633D01*
X146127Y313242D01*
X146457Y314038D01*
Y314899D01*
X146127Y315695D01*
X145518Y316304D01*
X144722Y316634D01*
D02*
G37*
G36*
X76907Y314173D02*
X76046D01*
X75250Y313844D01*
X74641Y313235D01*
X74311Y312439D01*
Y311577D01*
X74641Y310782D01*
X75250Y310172D01*
X76046Y309843D01*
X76907D01*
X77703Y310172D01*
X78312Y310782D01*
X78642Y311577D01*
Y312439D01*
X78312Y313235D01*
X77703Y313844D01*
X76907Y314173D01*
D02*
G37*
G36*
X170313Y307283D02*
X169451D01*
X168655Y306954D01*
X168046Y306345D01*
X167717Y305549D01*
Y304687D01*
X168046Y303891D01*
X168655Y303282D01*
X169451Y302953D01*
X170313D01*
X171108Y303282D01*
X171718Y303891D01*
X172047Y304687D01*
Y305549D01*
X171718Y306345D01*
X171108Y306954D01*
X170313Y307283D01*
D02*
G37*
G36*
X225611Y312045D02*
X224749D01*
X223954Y311715D01*
X223344Y311106D01*
X223015Y310310D01*
Y309449D01*
X223344Y308653D01*
X223954Y308044D01*
X224749Y307714D01*
X224749Y307242D01*
X223954Y306912D01*
X223344Y306303D01*
X223015Y305507D01*
Y304646D01*
X223344Y303850D01*
X223954Y303241D01*
X224749Y302911D01*
X225611D01*
X226407Y303241D01*
X227016Y303850D01*
X227346Y304646D01*
Y305507D01*
X227016Y306303D01*
X226407Y306912D01*
X225611Y307242D01*
X225611Y307714D01*
X226407Y308044D01*
X227016Y308653D01*
X227346Y309449D01*
Y310310D01*
X227016Y311106D01*
X226407Y311715D01*
X225611Y312045D01*
D02*
G37*
G36*
X542510Y312008D02*
X541269D01*
X540052Y311766D01*
X538906Y311291D01*
X537874Y310601D01*
X536997Y309724D01*
X536307Y308692D01*
X535833Y307546D01*
X535591Y306329D01*
Y305088D01*
X535833Y303871D01*
X536307Y302725D01*
X536997Y301693D01*
X537874Y300816D01*
X538906Y300126D01*
X540052Y299652D01*
X541269Y299409D01*
X542510D01*
X543727Y299652D01*
X544874Y300126D01*
X545905Y300816D01*
X546783Y301693D01*
X547472Y302725D01*
X547947Y303871D01*
X548189Y305088D01*
Y306329D01*
X547947Y307546D01*
X547472Y308692D01*
X546783Y309724D01*
X545905Y310601D01*
X544874Y311291D01*
X543727Y311766D01*
X542510Y312008D01*
D02*
G37*
G36*
X211553Y302461D02*
X210691D01*
X209895Y302131D01*
X209286Y301522D01*
X208957Y300726D01*
Y299865D01*
X209286Y299069D01*
X209895Y298460D01*
X210691Y298130D01*
X211553D01*
X212349Y298460D01*
X212958Y299069D01*
X213287Y299865D01*
Y300726D01*
X212958Y301522D01*
X212349Y302131D01*
X211553Y302461D01*
D02*
G37*
G36*
X225611Y302242D02*
X224749D01*
X223954Y301912D01*
X223344Y301303D01*
X223015Y300507D01*
Y299646D01*
X223344Y298850D01*
X223954Y298241D01*
X224749Y297911D01*
X225611D01*
X226407Y298241D01*
X227016Y298850D01*
X227346Y299646D01*
Y300507D01*
X227016Y301303D01*
X226407Y301912D01*
X225611Y302242D01*
D02*
G37*
G36*
X175218Y302165D02*
X174357D01*
X173561Y301836D01*
X172952Y301227D01*
X172622Y300431D01*
Y299569D01*
X172952Y298773D01*
X173561Y298164D01*
X174357Y297835D01*
X175218D01*
X176014Y298164D01*
X176623Y298773D01*
X176953Y299569D01*
Y300431D01*
X176623Y301227D01*
X176014Y301836D01*
X175218Y302165D01*
D02*
G37*
G36*
X113719Y301324D02*
X112858D01*
X112062Y300994D01*
X111453Y300385D01*
X111123Y299589D01*
Y298728D01*
X111453Y297932D01*
X112062Y297323D01*
X112858Y296993D01*
X113719D01*
X114515Y297323D01*
X115124Y297932D01*
X115454Y298728D01*
Y299589D01*
X115124Y300385D01*
X114515Y300994D01*
X113719Y301324D01*
D02*
G37*
G36*
X225611Y297084D02*
X224749D01*
X223954Y296754D01*
X223344Y296145D01*
X223015Y295349D01*
Y294488D01*
X223344Y293692D01*
X223954Y293083D01*
X224749Y292753D01*
X225611D01*
X226407Y293083D01*
X227016Y293692D01*
X227346Y294488D01*
Y295349D01*
X227016Y296145D01*
X226407Y296754D01*
X225611Y297084D01*
D02*
G37*
G36*
X472167Y296654D02*
X471337D01*
X470536Y296439D01*
X469818Y296024D01*
X469232Y295438D01*
X468817Y294720D01*
X468602Y293919D01*
Y293089D01*
X468817Y292288D01*
X469232Y291570D01*
X469818Y290984D01*
X470536Y290569D01*
X471337Y290354D01*
X472167D01*
X472968Y290569D01*
X473686Y290984D01*
X474272Y291570D01*
X474687Y292288D01*
X474902Y293089D01*
Y293919D01*
X474687Y294720D01*
X474272Y295438D01*
X473686Y296024D01*
X472968Y296439D01*
X472167Y296654D01*
D02*
G37*
G36*
X460356D02*
X459526D01*
X458725Y296439D01*
X458007Y296024D01*
X457421Y295438D01*
X457006Y294720D01*
X456791Y293919D01*
Y293089D01*
X457006Y292288D01*
X457421Y291570D01*
X458007Y290984D01*
X458725Y290569D01*
X459526Y290354D01*
X460356D01*
X461157Y290569D01*
X461875Y290984D01*
X462461Y291570D01*
X462876Y292288D01*
X463091Y293089D01*
Y293919D01*
X462876Y294720D01*
X462461Y295438D01*
X461875Y296024D01*
X461157Y296439D01*
X460356Y296654D01*
D02*
G37*
G36*
X39711Y291846D02*
X38850D01*
X38054Y291516D01*
X38025Y291487D01*
X9602D01*
X8911Y291349D01*
X8325Y290958D01*
X-5232Y277402D01*
X-5273D01*
X-6069Y277072D01*
X-6678Y276463D01*
X-7008Y275667D01*
Y274805D01*
X-6678Y274010D01*
X-6069Y273400D01*
X-5273Y273071D01*
X-4412D01*
X-3616Y273400D01*
X-3007Y274010D01*
X-2677Y274805D01*
Y274847D01*
X10350Y287874D01*
X38025D01*
X38054Y287845D01*
X38850Y287515D01*
X39711D01*
X40507Y287845D01*
X41116Y288454D01*
X41446Y289250D01*
Y290111D01*
X41116Y290907D01*
X40507Y291516D01*
X39711Y291846D01*
D02*
G37*
G36*
X285984Y304823D02*
X284094D01*
X282227Y304527D01*
X280430Y303943D01*
X278746Y303085D01*
X277217Y301974D01*
X275880Y300638D01*
X274769Y299109D01*
X273911Y297424D01*
X273327Y295627D01*
X273031Y293760D01*
Y291870D01*
X273327Y290003D01*
X273911Y288206D01*
X274769Y286522D01*
X275880Y284992D01*
X276560Y284313D01*
X276368Y283851D01*
X227474D01*
X227140Y284351D01*
X227287Y284705D01*
Y285566D01*
X226957Y286362D01*
X226348Y286971D01*
X225552Y287301D01*
X224690D01*
X223895Y286971D01*
X223285Y286362D01*
X222956Y285566D01*
Y284705D01*
X223102Y284351D01*
X222768Y283851D01*
X189968D01*
X189634Y284351D01*
X189813Y284782D01*
Y285604D01*
X189498Y286364D01*
X188916Y286945D01*
X188157Y287260D01*
X187334D01*
X186575Y286945D01*
X185993Y286364D01*
X185679Y285604D01*
Y284782D01*
X185857Y284351D01*
X185523Y283851D01*
X180317D01*
X174830Y289337D01*
X174891Y289643D01*
X175473Y290224D01*
X175787Y290984D01*
Y291806D01*
X175473Y292566D01*
X174891Y293147D01*
X174132Y293462D01*
X173309D01*
X172550Y293147D01*
X171968Y292566D01*
X171653Y291806D01*
Y291701D01*
X136120D01*
X135842Y292116D01*
X135913Y292286D01*
Y293147D01*
X135583Y293943D01*
X134974Y294552D01*
X134178Y294882D01*
X133317D01*
X132521Y294552D01*
X131912Y293943D01*
X131582Y293147D01*
Y292286D01*
X131652Y292116D01*
X131374Y291701D01*
X108856D01*
X108305Y291929D01*
X107443D01*
X106648Y291599D01*
X106038Y290990D01*
X105709Y290195D01*
Y289333D01*
X106038Y288537D01*
X106648Y287928D01*
X107443Y287598D01*
X108305D01*
X109101Y287928D01*
X109260Y288088D01*
X112764D01*
X112971Y287588D01*
X112534Y287152D01*
X112205Y286356D01*
Y285494D01*
X112534Y284699D01*
X113144Y284089D01*
X113939Y283760D01*
X114801D01*
X115597Y284089D01*
X116206Y284699D01*
X116535Y285494D01*
Y286356D01*
X116206Y287152D01*
X115770Y287588D01*
X115977Y288088D01*
X160503D01*
X160728Y287750D01*
Y286889D01*
X161058Y286093D01*
X161667Y285484D01*
X162463Y285154D01*
X162504D01*
X163436Y284222D01*
X163245Y283760D01*
X144898D01*
X144207Y283623D01*
X143621Y283231D01*
X132668Y272279D01*
X116807D01*
X116778Y272308D01*
X115982Y272638D01*
X115120D01*
X114325Y272308D01*
X113716Y271699D01*
X113386Y270903D01*
Y270042D01*
X113716Y269246D01*
X114325Y268637D01*
X115120Y268307D01*
X115982D01*
X116778Y268637D01*
X116807Y268666D01*
X133416D01*
X134108Y268804D01*
X134694Y269195D01*
X143635Y278137D01*
X144177Y278104D01*
X144738Y277543D01*
X145534Y277214D01*
X146395D01*
X147191Y277543D01*
X147221Y277573D01*
X164518D01*
X203998Y238093D01*
X204584Y237701D01*
X205276Y237564D01*
X260368D01*
X260702Y237064D01*
X260532Y236651D01*
Y235790D01*
X260788Y235170D01*
X260420Y234782D01*
X260273Y234842D01*
X259412D01*
X258616Y234513D01*
X258007Y233904D01*
X257677Y233108D01*
Y232246D01*
X258007Y231451D01*
X258616Y230841D01*
X259412Y230512D01*
X260273D01*
X261069Y230841D01*
X261678Y231451D01*
X262008Y232246D01*
Y233108D01*
X261751Y233727D01*
X262119Y234116D01*
X262266Y234055D01*
X263128D01*
X263924Y234385D01*
X264533Y234994D01*
X264862Y235790D01*
Y236651D01*
X264691Y237064D01*
X265026Y237564D01*
X272291D01*
X272626Y237064D01*
X272496Y236750D01*
Y235888D01*
X272825Y235092D01*
X273434Y234483D01*
X274230Y234154D01*
X275092D01*
X275887Y234483D01*
X276497Y235092D01*
X276895Y235172D01*
X283264Y228803D01*
X283850Y228411D01*
X284541Y228274D01*
X304868D01*
Y222771D01*
X294651D01*
X294529Y223163D01*
X294522Y223271D01*
X295111Y223859D01*
X295440Y224655D01*
Y225516D01*
X295111Y226312D01*
X294501Y226921D01*
X293706Y227251D01*
X292844D01*
X292048Y226921D01*
X291439Y226312D01*
X291110Y225516D01*
Y224655D01*
X291439Y223859D01*
X292027Y223271D01*
X292021Y223163D01*
X291898Y222771D01*
X253181D01*
X245117Y230835D01*
X245536Y231254D01*
X245645Y231515D01*
X246186D01*
X246294Y231254D01*
X246903Y230645D01*
X247699Y230315D01*
X248561D01*
X249357Y230645D01*
X249966Y231254D01*
X250295Y232050D01*
Y232911D01*
X249966Y233707D01*
X249357Y234316D01*
X248561Y234646D01*
X247699D01*
X246903Y234316D01*
X246294Y233707D01*
X246186Y233446D01*
X245645D01*
X245536Y233707D01*
X244927Y234316D01*
X244131Y234646D01*
X243270D01*
X242474Y234316D01*
X242055Y233897D01*
X241801Y234152D01*
X241214Y234543D01*
X240523Y234681D01*
X174635D01*
X174409Y235018D01*
Y235880D01*
X174080Y236676D01*
X173471Y237285D01*
X172675Y237614D01*
X171813D01*
X171018Y237285D01*
X170408Y236676D01*
X170079Y235880D01*
Y235018D01*
X169853Y234681D01*
X164150D01*
X164120Y234710D01*
X163324Y235039D01*
X162463D01*
X162125Y235265D01*
Y237374D01*
X177609Y252857D01*
X177650D01*
X178446Y253187D01*
X179056Y253796D01*
X179385Y254592D01*
Y255453D01*
X179056Y256249D01*
X178446Y256858D01*
X177650Y257188D01*
X177099D01*
X176892Y257688D01*
X177131Y257927D01*
X177461Y258723D01*
Y259584D01*
X177131Y260380D01*
X176522Y260989D01*
X175726Y261319D01*
X174865D01*
X174069Y260989D01*
X173460Y260380D01*
X173130Y259584D01*
Y258723D01*
X173460Y257927D01*
X174069Y257318D01*
X174865Y256988D01*
X175416D01*
X175623Y256488D01*
X175384Y256249D01*
X175054Y255453D01*
Y255412D01*
X159042Y239399D01*
X158650Y238813D01*
X158513Y238122D01*
Y231808D01*
X158342Y231600D01*
X150718D01*
X150492Y231938D01*
Y232799D01*
X150162Y233595D01*
X149553Y234204D01*
X148758Y234534D01*
X147896D01*
X147100Y234204D01*
X146491Y233595D01*
X146161Y232799D01*
Y231938D01*
X145936Y231600D01*
X117599D01*
X117525Y231735D01*
X117446Y232100D01*
X117977Y232632D01*
X118307Y233428D01*
Y234289D01*
X117977Y235085D01*
X117368Y235694D01*
X116572Y236024D01*
X115711D01*
X114915Y235694D01*
X114306Y235085D01*
X113976Y234289D01*
Y233428D01*
X114306Y232632D01*
X114838Y232100D01*
X114758Y231735D01*
X114685Y231600D01*
X110223D01*
X109531Y231462D01*
X108945Y231071D01*
X107844Y229969D01*
X107382Y230161D01*
Y230254D01*
X107052Y231049D01*
X106443Y231659D01*
X105647Y231988D01*
X104786D01*
X103990Y231659D01*
X103381Y231049D01*
X103051Y230254D01*
Y229392D01*
X103381Y228596D01*
X103990Y227987D01*
X104786Y227658D01*
X104879D01*
X105070Y227196D01*
X103843Y225969D01*
X103802D01*
X103006Y225639D01*
X102397Y225030D01*
X102067Y224234D01*
Y223372D01*
X102397Y222577D01*
X103006Y221968D01*
X103802Y221638D01*
X104663D01*
X105459Y221968D01*
X106068Y222577D01*
X106398Y223372D01*
Y223414D01*
X110971Y227987D01*
X118912D01*
Y220443D01*
X128065D01*
Y227987D01*
X158801D01*
X160996Y225792D01*
X160805Y225330D01*
X147696D01*
X147532Y225494D01*
X146736Y225823D01*
X145875D01*
X145079Y225494D01*
X144470Y224885D01*
X144140Y224089D01*
Y223228D01*
X144470Y222432D01*
X145079Y221823D01*
X145875Y221493D01*
X146736D01*
X147278Y221717D01*
X224983D01*
X232765Y213936D01*
X232475Y213647D01*
X232061Y212929D01*
X231846Y212128D01*
Y211298D01*
X232061Y210497D01*
X232475Y209779D01*
X233002Y209252D01*
X232475Y208726D01*
X232061Y208008D01*
X231846Y207206D01*
Y206377D01*
X231936Y206042D01*
X231631Y205645D01*
X229923D01*
X227525Y208043D01*
X227216Y208249D01*
X227346Y208563D01*
Y209424D01*
X227017Y210220D01*
X226408Y210829D01*
X225612Y211159D01*
X224750D01*
X223955Y210829D01*
X223345Y210220D01*
X223016Y209424D01*
Y208572D01*
X219284D01*
X212953Y214903D01*
X212989Y215177D01*
X213465Y215653D01*
X213802Y216237D01*
X213976Y216887D01*
Y217561D01*
X213802Y218212D01*
X213465Y218796D01*
X212989Y219272D01*
X212405Y219609D01*
X211754Y219783D01*
X211080D01*
X210430Y219609D01*
X209846Y219272D01*
X209370Y218796D01*
X209251Y218780D01*
X208888Y218961D01*
X208321Y219340D01*
X207630Y219478D01*
X133736D01*
X133707Y219507D01*
X132911Y219837D01*
X132050D01*
X131254Y219507D01*
X130645Y218898D01*
X130315Y218102D01*
Y217241D01*
X130645Y216445D01*
X131254Y215836D01*
X132050Y215506D01*
X132911D01*
X133707Y215836D01*
X133736Y215865D01*
X206881D01*
X217258Y205488D01*
X217844Y205097D01*
X218536Y204959D01*
X222790D01*
X223016Y204621D01*
Y203760D01*
X222883Y203562D01*
X188626D01*
X187820Y203401D01*
X187136Y202945D01*
X185610Y201418D01*
X177559D01*
Y202006D01*
X177229Y202801D01*
X176620Y203411D01*
X175824Y203740D01*
X174963D01*
X174167Y203411D01*
X173558Y202801D01*
X173228Y202006D01*
Y201418D01*
X122165D01*
X120572Y203011D01*
X120536Y203097D01*
X119927Y203706D01*
X119132Y204035D01*
X118270D01*
X117474Y203706D01*
X116865Y203097D01*
X116535Y202301D01*
Y201439D01*
X116865Y200643D01*
X117474Y200034D01*
X117669Y199954D01*
X119450Y198172D01*
X119243Y197672D01*
X109622D01*
X109593Y197702D01*
X108797Y198031D01*
X107935D01*
X107140Y197702D01*
X106530Y197093D01*
X106201Y196297D01*
Y195435D01*
X106530Y194640D01*
X107140Y194030D01*
X107935Y193701D01*
X108797D01*
X109593Y194030D01*
X109622Y194060D01*
X223016D01*
Y193602D01*
X223345Y192806D01*
X223955Y192197D01*
X224750Y191867D01*
X225612D01*
X226408Y192197D01*
X227017Y192806D01*
X227346Y193602D01*
Y194464D01*
X227578Y194809D01*
X322258D01*
X322950Y194947D01*
X323535Y195338D01*
X324741Y196544D01*
X369207D01*
X369541Y196044D01*
X369409Y195726D01*
Y194904D01*
X369724Y194144D01*
X370305Y193563D01*
X370935Y193302D01*
X387018Y177219D01*
Y176846D01*
X386870Y176489D01*
Y175667D01*
X387185Y174908D01*
X387766Y174326D01*
X388526Y174011D01*
X389348D01*
X390108Y174326D01*
X390250Y174468D01*
X390280Y174437D01*
X391040Y174123D01*
X391862D01*
X392622Y174437D01*
X393203Y175019D01*
X393518Y175779D01*
Y176601D01*
X393397Y176892D01*
X393471Y177086D01*
X394054Y177211D01*
X394613Y176651D01*
Y156632D01*
X394326Y156345D01*
X393996Y155549D01*
Y154687D01*
X394326Y153892D01*
X394935Y153282D01*
X395731Y152953D01*
X396592D01*
X397388Y153282D01*
X397997Y153892D01*
X398327Y154687D01*
Y155549D01*
X398207Y155838D01*
X398226Y155933D01*
Y159449D01*
X419291Y159449D01*
Y198089D01*
X433576D01*
X443290Y188375D01*
X443099Y187913D01*
X438976D01*
Y160827D01*
X473819Y125984D01*
X482551D01*
Y125443D01*
X482892Y124170D01*
X483551Y123029D01*
X484483Y122097D01*
X485625Y121438D01*
X486898Y121096D01*
X488216D01*
X489489Y121438D01*
X490631Y122097D01*
X491563Y123029D01*
X492222Y124170D01*
X492563Y125443D01*
Y125984D01*
X514295D01*
Y166043D01*
X492563D01*
Y166762D01*
X492222Y168035D01*
X491563Y169176D01*
X490631Y170108D01*
X489489Y170767D01*
X488216Y171108D01*
X486898D01*
X485625Y170767D01*
X484483Y170108D01*
X483551Y169176D01*
X482892Y168035D01*
X482551Y166762D01*
Y166680D01*
X482051Y166473D01*
X460610Y187913D01*
X449713D01*
X435939Y201687D01*
X435255Y202144D01*
X434449Y202304D01*
X419291D01*
Y208661D01*
X402726Y225227D01*
X402858Y225548D01*
X402971Y225689D01*
X403777D01*
X404573Y226019D01*
X405182Y226628D01*
X405512Y227424D01*
Y228285D01*
X405182Y229081D01*
X404573Y229690D01*
X403777Y230020D01*
X402916D01*
X402120Y229690D01*
X401977Y229547D01*
X394090D01*
Y237834D01*
X393953Y238525D01*
X393561Y239111D01*
X391634Y241039D01*
Y241080D01*
X391304Y241876D01*
X390695Y242485D01*
X389899Y242815D01*
X389038D01*
X388242Y242485D01*
X387633Y241876D01*
X387477Y241501D01*
X386888Y241384D01*
X353061Y275211D01*
X352475Y275602D01*
X351784Y275740D01*
X287409D01*
X282613Y280535D01*
X282852Y281004D01*
X284094Y280807D01*
X285984D01*
X287851Y281103D01*
X289649Y281687D01*
X291333Y282545D01*
X292862Y283656D01*
X294198Y284992D01*
X295309Y286522D01*
X296167Y288206D01*
X296752Y290003D01*
X297047Y291870D01*
Y293760D01*
X296752Y295627D01*
X296167Y297424D01*
X295309Y299109D01*
X294198Y300638D01*
X292862Y301974D01*
X291333Y303085D01*
X289649Y303943D01*
X287851Y304527D01*
X285984Y304823D01*
D02*
G37*
G36*
X396221D02*
X394331D01*
X392464Y304527D01*
X390666Y303943D01*
X388982Y303085D01*
X387453Y301974D01*
X386117Y300638D01*
X385005Y299109D01*
X384148Y297424D01*
X383563Y295627D01*
X383268Y293760D01*
Y291870D01*
X383563Y290003D01*
X384148Y288206D01*
X385005Y286522D01*
X386117Y284992D01*
X387453Y283656D01*
X388982Y282545D01*
X390666Y281687D01*
X392464Y281103D01*
X394331Y280807D01*
X396221D01*
X398087Y281103D01*
X399885Y281687D01*
X401569Y282545D01*
X403098Y283656D01*
X404435Y284992D01*
X405546Y286522D01*
X406404Y288206D01*
X406988Y290003D01*
X407283Y291870D01*
Y293760D01*
X406988Y295627D01*
X406404Y297424D01*
X405546Y299109D01*
X404435Y300638D01*
X403098Y301974D01*
X401569Y303085D01*
X399885Y303943D01*
X398087Y304527D01*
X396221Y304823D01*
D02*
G37*
G36*
X444722Y284843D02*
X443860D01*
X443065Y284513D01*
X442455Y283904D01*
X442126Y283108D01*
Y282246D01*
X442455Y281451D01*
X443065Y280841D01*
X443860Y280512D01*
X444722D01*
X445518Y280841D01*
X446127Y281451D01*
X446456Y282246D01*
Y283108D01*
X446127Y283904D01*
X445518Y284513D01*
X444722Y284843D01*
D02*
G37*
G36*
X128064Y284042D02*
X118911D01*
Y274888D01*
X128064D01*
Y284042D01*
D02*
G37*
G36*
X528216Y283707D02*
X526898D01*
X525625Y283366D01*
X524483Y282707D01*
X523551Y281775D01*
X522892Y280633D01*
X522551Y279360D01*
Y278042D01*
X522892Y276768D01*
X523551Y275627D01*
X524483Y274695D01*
X525625Y274036D01*
X526898Y273695D01*
X528216D01*
X529489Y274036D01*
X530631Y274695D01*
X531563Y275627D01*
X532222Y276768D01*
X532563Y278042D01*
Y279360D01*
X532222Y280633D01*
X531563Y281775D01*
X530631Y282707D01*
X529489Y283366D01*
X528216Y283707D01*
D02*
G37*
G36*
X488216D02*
X486898D01*
X485625Y283366D01*
X484483Y282707D01*
X483551Y281775D01*
X482892Y280633D01*
X482551Y279360D01*
Y278042D01*
X482892Y276768D01*
X483551Y275627D01*
X484483Y274695D01*
X485625Y274036D01*
X486898Y273695D01*
X488216D01*
X489489Y274036D01*
X490631Y274695D01*
X491563Y275627D01*
X492222Y276768D01*
X492563Y278042D01*
Y279360D01*
X492222Y280633D01*
X491563Y281775D01*
X490631Y282707D01*
X489489Y283366D01*
X488216Y283707D01*
D02*
G37*
G36*
X414407Y289567D02*
X413546D01*
X412750Y289237D01*
X412141Y288628D01*
X411811Y287832D01*
Y286971D01*
X412141Y286175D01*
X412750Y285566D01*
X413546Y285236D01*
X414407D01*
X415203Y285566D01*
X415232Y285595D01*
X421299D01*
X435236Y271658D01*
Y271617D01*
X435566Y270821D01*
X436175Y270212D01*
X436971Y269882D01*
X437832D01*
X438628Y270212D01*
X439237Y270821D01*
X439567Y271617D01*
Y272478D01*
X439237Y273274D01*
X438628Y273883D01*
X437832Y274213D01*
X437791D01*
X423324Y288679D01*
X422739Y289070D01*
X422047Y289208D01*
X415232D01*
X415203Y289237D01*
X414407Y289567D01*
D02*
G37*
G36*
X54053Y271575D02*
X53191D01*
X52395Y271245D01*
X51786Y270636D01*
X51578Y270133D01*
X50869Y269425D01*
X-3626D01*
X-3655Y269454D01*
X-4451Y269783D01*
X-5313D01*
X-6109Y269454D01*
X-6718Y268845D01*
X-7047Y268049D01*
Y267187D01*
X-6718Y266391D01*
X-6109Y265782D01*
X-5313Y265453D01*
X-4451D01*
X-3655Y265782D01*
X-3626Y265812D01*
X51617D01*
X52309Y265949D01*
X52895Y266341D01*
X53798Y267244D01*
X54053D01*
X54848Y267574D01*
X55458Y268183D01*
X55787Y268979D01*
Y269840D01*
X55458Y270636D01*
X54848Y271245D01*
X54053Y271575D01*
D02*
G37*
G36*
X-21538Y273583D02*
X-22399D01*
X-23195Y273253D01*
X-23804Y272644D01*
X-24134Y271848D01*
Y270987D01*
X-23804Y270191D01*
X-23195Y269582D01*
X-22399Y269252D01*
X-21538D01*
X-20742Y269582D01*
X-20133Y270191D01*
X-19803Y270987D01*
Y271848D01*
X-20133Y272644D01*
X-20742Y273253D01*
X-21538Y273583D01*
D02*
G37*
G36*
X463324Y272835D02*
X462463D01*
X461667Y272505D01*
X461058Y271896D01*
X460728Y271100D01*
Y270239D01*
X461058Y269443D01*
X461667Y268834D01*
X462463Y268504D01*
X463324D01*
X464120Y268834D01*
X464729Y269443D01*
X465059Y270239D01*
Y271100D01*
X464729Y271896D01*
X464120Y272505D01*
X463324Y272835D01*
D02*
G37*
G36*
X150332Y271654D02*
X149471D01*
X148675Y271324D01*
X148066Y270715D01*
X147736Y269919D01*
Y269057D01*
X148066Y268262D01*
X148675Y267653D01*
X149471Y267323D01*
X150332D01*
X151128Y267653D01*
X151737Y268262D01*
X152067Y269057D01*
Y269919D01*
X151737Y270715D01*
X151128Y271324D01*
X150332Y271654D01*
D02*
G37*
G36*
X375037Y266043D02*
X374176D01*
X373380Y265714D01*
X372775Y265109D01*
X372183Y265354D01*
X371321D01*
X370525Y265025D01*
X369916Y264416D01*
X369587Y263620D01*
Y262758D01*
X369916Y261962D01*
X370525Y261353D01*
X371321Y261024D01*
X372183D01*
X372978Y261353D01*
X373583Y261958D01*
X374176Y261713D01*
X375037D01*
X375833Y262042D01*
X376442Y262651D01*
X376772Y263447D01*
Y264309D01*
X376442Y265105D01*
X375833Y265714D01*
X375037Y266043D01*
D02*
G37*
G36*
X125099Y267024D02*
X124238D01*
X123442Y266694D01*
X122833Y266085D01*
X122503Y265289D01*
Y264428D01*
X122833Y263632D01*
X123442Y263023D01*
X124238Y262693D01*
X125099D01*
X125895Y263023D01*
X126504Y263632D01*
X126834Y264428D01*
Y265289D01*
X126504Y266085D01*
X125895Y266694D01*
X125099Y267024D01*
D02*
G37*
G36*
X-25652Y265301D02*
X-26513D01*
X-27309Y264971D01*
X-27918Y264362D01*
X-28248Y263566D01*
Y262705D01*
X-27918Y261909D01*
X-27780Y261771D01*
X-27987Y261271D01*
X-30803D01*
X-31081Y261687D01*
X-31004Y261872D01*
Y262734D01*
X-31334Y263530D01*
X-31943Y264139D01*
X-32739Y264469D01*
X-33600D01*
X-34396Y264139D01*
X-35005Y263530D01*
X-35335Y262734D01*
Y261872D01*
X-35217Y261588D01*
X-35452Y261146D01*
X-35518Y261134D01*
X-36104Y260742D01*
X-37988Y258858D01*
X-38029D01*
X-38825Y258529D01*
X-39434Y257920D01*
X-39764Y257124D01*
Y256262D01*
X-39434Y255466D01*
X-38825Y254857D01*
X-38081Y254549D01*
X-37808Y254338D01*
X-37697Y254171D01*
Y253309D01*
X-37367Y252514D01*
X-36758Y251905D01*
X-35962Y251575D01*
X-35124D01*
Y250790D01*
X-34795Y249994D01*
X-34186Y249385D01*
X-33390Y249055D01*
X-32972D01*
Y248471D01*
X-32643Y247675D01*
X-32034Y247066D01*
X-31238Y246736D01*
X-30376D01*
X-29581Y247066D01*
X-29551Y247095D01*
X49636D01*
X49837Y246608D01*
X50447Y245999D01*
X51243Y245669D01*
X52104D01*
X52900Y245999D01*
X53509Y246608D01*
X53839Y247404D01*
Y248265D01*
X53509Y249061D01*
X53461Y249110D01*
X53652Y249572D01*
X57209D01*
X57238Y249542D01*
X58034Y249213D01*
X58895D01*
X59691Y249542D01*
X60300Y250151D01*
X60630Y250947D01*
Y251809D01*
X60300Y252605D01*
X59691Y253214D01*
X58895Y253543D01*
X58034D01*
X57238Y253214D01*
X57209Y253184D01*
X13559D01*
X13064Y253283D01*
X-31874D01*
X-32148Y253228D01*
X-32528Y253386D01*
X-32678D01*
X-32869Y253848D01*
X-31634Y255083D01*
X-9209D01*
X-9179Y255054D01*
X-8383Y254725D01*
X-7522D01*
X-6726Y255054D01*
X-6117Y255663D01*
X-5787Y256459D01*
Y256571D01*
X-5372Y256849D01*
X-5091Y256732D01*
X-4229D01*
X-3433Y257062D01*
X-2824Y257671D01*
X-2495Y258467D01*
Y259328D01*
X-2824Y260124D01*
X-3433Y260733D01*
X-4229Y261063D01*
X-4643D01*
X-4749Y261134D01*
X-5440Y261271D01*
X-24178D01*
X-24385Y261771D01*
X-24247Y261909D01*
X-23917Y262705D01*
Y263566D01*
X-24247Y264362D01*
X-24856Y264971D01*
X-25652Y265301D01*
D02*
G37*
G36*
X109985Y264210D02*
X109123D01*
X108327Y263880D01*
X107718Y263271D01*
X107388Y262475D01*
Y261614D01*
X107718Y260818D01*
X108327Y260209D01*
X109123Y259879D01*
X109985D01*
X110780Y260209D01*
X110910Y260339D01*
X111077Y260172D01*
X111872Y259842D01*
X112734D01*
X113530Y260172D01*
X114139Y260781D01*
X114469Y261577D01*
Y262439D01*
X114139Y263234D01*
X113530Y263844D01*
X112734Y264173D01*
X111872D01*
X111077Y263844D01*
X110947Y263714D01*
X110780Y263880D01*
X109985Y264210D01*
D02*
G37*
G36*
X17344Y262402D02*
X16514D01*
X15713Y262187D01*
X14995Y261772D01*
X14409Y261186D01*
X13994Y260468D01*
X13780Y259667D01*
Y258837D01*
X13994Y258036D01*
X14409Y257318D01*
X14995Y256732D01*
X15713Y256317D01*
X16514Y256102D01*
X17344D01*
X18145Y256317D01*
X18863Y256732D01*
X19449Y257318D01*
X19864Y258036D01*
X20079Y258837D01*
Y259667D01*
X19864Y260468D01*
X19449Y261186D01*
X18863Y261772D01*
X18145Y262187D01*
X17344Y262402D01*
D02*
G37*
G36*
X103876Y259646D02*
X103014D01*
X102218Y259316D01*
X101609Y258707D01*
X101279Y257911D01*
Y257050D01*
X101609Y256254D01*
X102218Y255645D01*
X103014Y255315D01*
X103876D01*
X104672Y255645D01*
X105281Y256254D01*
X105610Y257050D01*
Y257911D01*
X105281Y258707D01*
X104672Y259316D01*
X103876Y259646D01*
D02*
G37*
G36*
X503288Y266526D02*
X501747D01*
X500235Y266225D01*
X498811Y265635D01*
X497530Y264779D01*
X496440Y263689D01*
X495583Y262407D01*
X494994Y260983D01*
X494693Y259472D01*
Y257930D01*
X494994Y256418D01*
X495583Y254994D01*
X496440Y253713D01*
X497530Y252623D01*
X498811Y251767D01*
X500235Y251177D01*
X501747Y250876D01*
X503288D01*
X504800Y251177D01*
X506224Y251767D01*
X507506Y252623D01*
X508596Y253713D01*
X509452Y254994D01*
X510042Y256418D01*
X510343Y257930D01*
Y259472D01*
X510042Y260983D01*
X509452Y262407D01*
X508596Y263689D01*
X507506Y264779D01*
X506224Y265635D01*
X504800Y266225D01*
X503288Y266526D01*
D02*
G37*
G36*
X157616Y257185D02*
X156754D01*
X155958Y256855D01*
X155349Y256246D01*
X155020Y255450D01*
Y255409D01*
X149941Y250330D01*
X123171D01*
X122935Y250488D01*
X122244Y250625D01*
X115920D01*
X115821Y251125D01*
X116037Y251215D01*
X116646Y251824D01*
X116976Y252620D01*
Y253481D01*
X116646Y254277D01*
X116037Y254886D01*
X115241Y255216D01*
X114380D01*
X113584Y254886D01*
X112975Y254277D01*
X112645Y253481D01*
Y252620D01*
X112975Y251824D01*
X113584Y251215D01*
X113800Y251125D01*
X113700Y250625D01*
X99635D01*
X99409Y250963D01*
Y251824D01*
X99080Y252620D01*
X98471Y253229D01*
X97675Y253559D01*
X96813D01*
X96017Y253229D01*
X95408Y252620D01*
X95079Y251824D01*
Y251296D01*
X94579Y250962D01*
X94525Y250984D01*
X93664D01*
X92868Y250655D01*
X92259Y250045D01*
X91929Y249250D01*
Y248388D01*
X92259Y247592D01*
X92706Y247146D01*
X92259Y246699D01*
X91929Y245903D01*
Y245042D01*
X92259Y244246D01*
X92868Y243637D01*
X93664Y243307D01*
X94525D01*
X95321Y243637D01*
X95350Y243666D01*
X107087D01*
Y243353D01*
X107416Y242557D01*
X108025Y241948D01*
X108821Y241618D01*
X109683D01*
X110478Y241948D01*
X111088Y242557D01*
X111417Y243353D01*
Y244214D01*
X111368Y244333D01*
X111646Y244749D01*
X151504D01*
X152196Y244886D01*
X152782Y245278D01*
X153160Y245656D01*
X155998D01*
X156627Y245396D01*
X157449D01*
X158209Y245710D01*
X158790Y246292D01*
X159105Y247051D01*
Y247874D01*
X158790Y248633D01*
X158209Y249215D01*
X157449Y249530D01*
X156627D01*
X155998Y249269D01*
X154642D01*
X154451Y249731D01*
X157574Y252854D01*
X157616D01*
X158412Y253184D01*
X159021Y253793D01*
X159350Y254589D01*
Y255450D01*
X159021Y256246D01*
X158412Y256855D01*
X157616Y257185D01*
D02*
G37*
G36*
X64407Y249508D02*
X63546D01*
X62750Y249178D01*
X62141Y248569D01*
X61811Y247773D01*
Y246912D01*
X62141Y246116D01*
X62750Y245507D01*
X63546Y245177D01*
X64407D01*
X65203Y245507D01*
X65812Y246116D01*
X66142Y246912D01*
Y247773D01*
X65812Y248569D01*
X65203Y249178D01*
X64407Y249508D01*
D02*
G37*
G36*
X-20081Y245512D02*
X-20943D01*
X-21738Y245182D01*
X-22348Y244573D01*
X-22677Y243777D01*
Y242916D01*
X-22348Y242120D01*
X-21738Y241511D01*
X-20943Y241181D01*
X-20081D01*
X-19285Y241511D01*
X-18676Y242120D01*
X-18347Y242916D01*
Y243777D01*
X-18676Y244573D01*
X-19285Y245182D01*
X-20081Y245512D01*
D02*
G37*
G36*
X176596Y245858D02*
X175735D01*
X174939Y245529D01*
X174330Y244920D01*
X174000Y244124D01*
Y243262D01*
X174330Y242466D01*
X174939Y241857D01*
X175735Y241528D01*
X176596D01*
X176939Y241128D01*
X176870Y240962D01*
Y240101D01*
X177200Y239305D01*
X177809Y238696D01*
X178605Y238366D01*
X179466D01*
X180262Y238696D01*
X180871Y239305D01*
X181201Y240101D01*
Y240962D01*
X180871Y241758D01*
X180262Y242367D01*
X179466Y242697D01*
X178605D01*
X178262Y243096D01*
X178331Y243262D01*
Y244124D01*
X178001Y244920D01*
X177392Y245529D01*
X176596Y245858D01*
D02*
G37*
G36*
X66982Y242520D02*
X66120D01*
X65325Y242190D01*
X65295Y242161D01*
X-16831D01*
X-17522Y242023D01*
X-18108Y241632D01*
X-21437Y238303D01*
X-21478D01*
X-22274Y237973D01*
X-22883Y237364D01*
X-23213Y236568D01*
Y235707D01*
X-22883Y234911D01*
X-22274Y234302D01*
X-21478Y233972D01*
X-20617D01*
X-19821Y234302D01*
X-19212Y234911D01*
X-18882Y235707D01*
Y235749D01*
X-16082Y238548D01*
X8734D01*
X8984Y238115D01*
X8876Y237928D01*
X8661Y237127D01*
Y236298D01*
X8876Y235497D01*
X9291Y234779D01*
X9877Y234192D01*
X10595Y233778D01*
X11396Y233563D01*
X12226D01*
X13027Y233778D01*
X13745Y234192D01*
X14331Y234779D01*
X14746Y235497D01*
X14961Y236298D01*
Y237127D01*
X14746Y237928D01*
X14638Y238115D01*
X14888Y238548D01*
X28365D01*
X28572Y238048D01*
X28126Y237603D01*
X27797Y236807D01*
Y235946D01*
X28126Y235150D01*
X28736Y234541D01*
X29531Y234211D01*
X30393D01*
X31189Y234541D01*
X31798Y235150D01*
X32128Y235946D01*
Y236807D01*
X31798Y237603D01*
X31353Y238048D01*
X31560Y238548D01*
X39833D01*
X40059Y238210D01*
Y237349D01*
X40389Y236553D01*
X40998Y235944D01*
X41794Y235614D01*
X42655D01*
X43451Y235944D01*
X44060Y236553D01*
X44390Y237349D01*
Y238210D01*
X44615Y238548D01*
X65295D01*
X65325Y238519D01*
X66120Y238189D01*
X66982D01*
X67778Y238519D01*
X68387Y239128D01*
X68717Y239924D01*
Y240785D01*
X68387Y241581D01*
X67778Y242190D01*
X66982Y242520D01*
D02*
G37*
G36*
X436438Y242224D02*
X435609D01*
X434808Y242010D01*
X434090Y241595D01*
X433503Y241009D01*
X433089Y240290D01*
X432874Y239489D01*
Y238660D01*
X433089Y237859D01*
X433503Y237141D01*
X434090Y236555D01*
X434808Y236140D01*
X435609Y235925D01*
X436438D01*
X437239Y236140D01*
X437957Y236555D01*
X438544Y237141D01*
X438959Y237859D01*
X439173Y238660D01*
Y239489D01*
X438959Y240290D01*
X438544Y241009D01*
X437957Y241595D01*
X437239Y242010D01*
X436438Y242224D01*
D02*
G37*
G36*
X421887Y274409D02*
X421026D01*
X420230Y274080D01*
X419621Y273471D01*
X419291Y272675D01*
Y271813D01*
X419621Y271018D01*
X419650Y270988D01*
Y232343D01*
X411127Y223819D01*
X411085D01*
X410289Y223489D01*
X409680Y222880D01*
X409350Y222084D01*
Y221223D01*
X409680Y220427D01*
X410289Y219818D01*
X411085Y219488D01*
X411946D01*
X412742Y219818D01*
X413351Y220427D01*
X413681Y221223D01*
Y221264D01*
X422734Y230317D01*
X423126Y230903D01*
X423263Y231594D01*
Y235711D01*
X423660Y236015D01*
X423995Y235925D01*
X424824D01*
X425625Y236140D01*
X426343Y236555D01*
X426930Y237141D01*
X427344Y237859D01*
X427559Y238660D01*
Y239489D01*
X427344Y240290D01*
X426930Y241009D01*
X426343Y241595D01*
X425625Y242010D01*
X424824Y242224D01*
X423995D01*
X423660Y242135D01*
X423263Y242439D01*
Y270988D01*
X423292Y271018D01*
X423622Y271813D01*
Y272675D01*
X423292Y273471D01*
X422683Y274080D01*
X421887Y274409D01*
D02*
G37*
G36*
X-30081Y238567D02*
X-30942D01*
X-31738Y238237D01*
X-32348Y237628D01*
X-32677Y236832D01*
Y235971D01*
X-32348Y235175D01*
X-31738Y234566D01*
X-30942Y234236D01*
X-30081D01*
X-29285Y234566D01*
X-28676Y235175D01*
X-28346Y235971D01*
Y236832D01*
X-28676Y237628D01*
X-29285Y238237D01*
X-30081Y238567D01*
D02*
G37*
G36*
X453191Y256358D02*
X452518D01*
X451867Y256184D01*
X451283Y255847D01*
X450807Y255370D01*
X450470Y254787D01*
X450295Y254136D01*
Y253462D01*
X450470Y252811D01*
X450807Y252228D01*
X451155Y251880D01*
X450807Y251532D01*
X450470Y250948D01*
X450295Y250297D01*
Y249624D01*
X450470Y248973D01*
X450807Y248389D01*
X451155Y248041D01*
X450807Y247693D01*
X450470Y247110D01*
X450295Y246459D01*
Y245785D01*
X450470Y245134D01*
X450807Y244551D01*
X451155Y244203D01*
X450807Y243855D01*
X450470Y243271D01*
X450295Y242620D01*
Y241947D01*
X450470Y241296D01*
X450807Y240712D01*
X451155Y240364D01*
X450807Y240016D01*
X450470Y239433D01*
X450295Y238782D01*
Y238108D01*
X450470Y237457D01*
X450807Y236874D01*
X451155Y236526D01*
X450807Y236177D01*
X450470Y235594D01*
X450295Y234943D01*
Y234269D01*
X450470Y233618D01*
X450807Y233035D01*
X451283Y232558D01*
X451867Y232222D01*
X452518Y232047D01*
X453191D01*
X453842Y232222D01*
X454426Y232558D01*
X454902Y233035D01*
X455239Y233618D01*
X455398Y234212D01*
X455765Y234114D01*
X456439D01*
X457090Y234289D01*
X457674Y234625D01*
X458150Y235102D01*
X458487Y235685D01*
X458661Y236336D01*
Y237010D01*
X458487Y237661D01*
X458150Y238244D01*
X457802Y238592D01*
X458150Y238940D01*
X458487Y239524D01*
X458661Y240175D01*
Y240849D01*
X458487Y241499D01*
X458150Y242083D01*
X457802Y242431D01*
X458150Y242779D01*
X458487Y243362D01*
X458661Y244013D01*
Y244687D01*
X458487Y245338D01*
X458150Y245922D01*
X457802Y246270D01*
X458150Y246618D01*
X458487Y247201D01*
X458661Y247852D01*
Y248526D01*
X458487Y249177D01*
X458150Y249760D01*
X457802Y250108D01*
X458150Y250456D01*
X458487Y251040D01*
X458661Y251691D01*
Y252364D01*
X458487Y253015D01*
X458150Y253599D01*
X457674Y254075D01*
X457090Y254412D01*
X456439Y254587D01*
X455765D01*
X455324Y254468D01*
X455239Y254787D01*
X454902Y255370D01*
X454426Y255847D01*
X453842Y256184D01*
X453191Y256358D01*
D02*
G37*
G36*
X528216Y243707D02*
X526898D01*
X525625Y243366D01*
X524483Y242707D01*
X523551Y241775D01*
X522892Y240633D01*
X522551Y239360D01*
Y238042D01*
X522892Y236769D01*
X523551Y235627D01*
X524483Y234695D01*
X525625Y234036D01*
X526898Y233695D01*
X528216D01*
X529489Y234036D01*
X530631Y234695D01*
X531563Y235627D01*
X532222Y236769D01*
X532563Y238042D01*
Y239360D01*
X532222Y240633D01*
X531563Y241775D01*
X530631Y242707D01*
X529489Y243366D01*
X528216Y243707D01*
D02*
G37*
G36*
X488216D02*
X486898D01*
X485625Y243366D01*
X484483Y242707D01*
X483551Y241775D01*
X482892Y240633D01*
X482551Y239360D01*
Y238042D01*
X482892Y236769D01*
X483551Y235627D01*
X484483Y234695D01*
X485625Y234036D01*
X486898Y233695D01*
X488216D01*
X489489Y234036D01*
X490631Y234695D01*
X491563Y235627D01*
X492222Y236769D01*
X492563Y238042D01*
Y239360D01*
X492222Y240633D01*
X491563Y241775D01*
X490631Y242707D01*
X489489Y243366D01*
X488216Y243707D01*
D02*
G37*
G36*
X275092Y232087D02*
X274230D01*
X273434Y231757D01*
X272825Y231148D01*
X272496Y230352D01*
Y229491D01*
X272825Y228695D01*
X273434Y228086D01*
X274230Y227756D01*
X275092D01*
X275887Y228086D01*
X276497Y228695D01*
X276826Y229491D01*
Y230352D01*
X276497Y231148D01*
X275887Y231757D01*
X275092Y232087D01*
D02*
G37*
G36*
X97675Y231118D02*
X96813D01*
X96017Y230788D01*
X95408Y230179D01*
X95079Y229383D01*
Y228522D01*
X95408Y227726D01*
X96017Y227117D01*
X96813Y226787D01*
X97675D01*
X98471Y227117D01*
X99080Y227726D01*
X99409Y228522D01*
Y229383D01*
X99080Y230179D01*
X98471Y230788D01*
X97675Y231118D01*
D02*
G37*
G36*
X70116Y233268D02*
X69254D01*
X68458Y232938D01*
X67849Y232329D01*
X67520Y231533D01*
Y231492D01*
X66787Y230759D01*
X-18110D01*
X-18801Y230622D01*
X-19387Y230230D01*
X-21157Y228461D01*
X-21198D01*
X-21994Y228131D01*
X-22603Y227522D01*
X-22933Y226726D01*
Y225865D01*
X-23159Y225527D01*
X-34275D01*
X-34904Y225787D01*
X-35765D01*
X-36561Y225458D01*
X-37170Y224849D01*
X-37500Y224053D01*
Y223191D01*
X-37170Y222395D01*
X-36561Y221786D01*
X-35765Y221457D01*
X-34904D01*
X-34108Y221786D01*
X-33980Y221914D01*
X55436D01*
X56065Y221654D01*
X56927D01*
X57723Y221983D01*
X58332Y222592D01*
X58661Y223388D01*
Y224250D01*
X58332Y225045D01*
X57723Y225655D01*
X56927Y225984D01*
X56065D01*
X55269Y225655D01*
X55142Y225527D01*
X-18311D01*
X-18482Y226027D01*
X-17362Y227146D01*
X58928D01*
X59153Y226809D01*
Y225947D01*
X59483Y225151D01*
X60092Y224542D01*
X60888Y224213D01*
X61750D01*
X62546Y224542D01*
X63155Y225151D01*
X63484Y225947D01*
Y226809D01*
X63710Y227146D01*
X67535D01*
X68227Y227284D01*
X68813Y227676D01*
X70074Y228937D01*
X70116D01*
X70912Y229267D01*
X71521Y229876D01*
X71850Y230672D01*
Y231533D01*
X71521Y232329D01*
X70912Y232938D01*
X70116Y233268D01*
D02*
G37*
G36*
X95116Y223031D02*
X94254D01*
X93458Y222702D01*
X92849Y222093D01*
X92520Y221297D01*
Y220435D01*
X92849Y219640D01*
X93458Y219030D01*
X94254Y218701D01*
X95116D01*
X95912Y219030D01*
X96521Y219640D01*
X96850Y220435D01*
Y221297D01*
X96521Y222093D01*
X95912Y222702D01*
X95116Y223031D01*
D02*
G37*
G36*
X58403Y220506D02*
X57542D01*
X56746Y220176D01*
X56717Y220147D01*
X11729D01*
X11038Y220009D01*
X10452Y219618D01*
X8896Y218062D01*
X-30665D01*
X-30694Y218092D01*
X-31490Y218421D01*
X-32352D01*
X-33148Y218092D01*
X-33757Y217482D01*
X-34086Y216687D01*
Y215825D01*
X-33856Y215269D01*
X-34218Y214908D01*
X-34547Y214112D01*
Y213250D01*
X-34218Y212455D01*
X-33608Y211845D01*
X-32813Y211516D01*
X-31951D01*
X-31155Y211845D01*
X-31126Y211875D01*
X2623D01*
X3177Y211321D01*
X3763Y210930D01*
X4454Y210792D01*
X39000D01*
X39029Y210763D01*
X39825Y210433D01*
X40687D01*
X41482Y210763D01*
X42092Y211372D01*
X42421Y212168D01*
Y213029D01*
X42092Y213825D01*
X41482Y214434D01*
X40687Y214764D01*
X39825D01*
X39029Y214434D01*
X39000Y214405D01*
X33381D01*
X33103Y214821D01*
X33114Y214844D01*
Y215706D01*
X32978Y216034D01*
X33312Y216534D01*
X53370D01*
X53670Y216034D01*
X53445Y215490D01*
Y214628D01*
X53774Y213832D01*
X54384Y213223D01*
X55180Y212894D01*
X56041D01*
X56837Y213223D01*
X57446Y213832D01*
X57776Y214628D01*
Y215490D01*
X57699Y215675D01*
X58033Y216175D01*
X58403D01*
X59199Y216505D01*
X59808Y217114D01*
X60138Y217910D01*
Y218771D01*
X59808Y219567D01*
X59199Y220176D01*
X58403Y220506D01*
D02*
G37*
G36*
X528216Y227408D02*
X526898D01*
X525625Y227067D01*
X524483Y226408D01*
X523551Y225475D01*
X522892Y224334D01*
X522551Y223061D01*
Y221743D01*
X522892Y220469D01*
X523551Y219328D01*
X524483Y218396D01*
X525625Y217737D01*
X526898Y217395D01*
X528216D01*
X529489Y217737D01*
X530631Y218396D01*
X531563Y219328D01*
X532222Y220469D01*
X532563Y221743D01*
Y223061D01*
X532222Y224334D01*
X531563Y225475D01*
X530631Y226408D01*
X529489Y227067D01*
X528216Y227408D01*
D02*
G37*
G36*
X488216D02*
X486898D01*
X485625Y227067D01*
X484483Y226408D01*
X483551Y225475D01*
X482892Y224334D01*
X482551Y223061D01*
Y221743D01*
X482892Y220469D01*
X483551Y219328D01*
X484483Y218396D01*
X485625Y217737D01*
X486898Y217395D01*
X488216D01*
X489489Y217737D01*
X490631Y218396D01*
X491563Y219328D01*
X492222Y220469D01*
X492563Y221743D01*
Y223061D01*
X492222Y224334D01*
X491563Y225475D01*
X490631Y226408D01*
X489489Y227067D01*
X488216Y227408D01*
D02*
G37*
G36*
X69722Y223130D02*
X68861D01*
X68065Y222800D01*
X67456Y222191D01*
X67126Y221395D01*
Y220534D01*
X67456Y219738D01*
X68065Y219129D01*
X68861Y218799D01*
X69443D01*
X69650Y218299D01*
X69310Y217959D01*
X68980Y217163D01*
Y216302D01*
X69310Y215506D01*
X69919Y214897D01*
X70715Y214567D01*
X71576D01*
X72372Y214897D01*
X72384Y214908D01*
X72395Y214897D01*
X73191Y214567D01*
X74053D01*
X74849Y214897D01*
X75458Y215506D01*
X75787Y216302D01*
Y217163D01*
X75458Y217959D01*
X74849Y218568D01*
X74053Y218898D01*
X73191D01*
X72395Y218568D01*
X72384Y218556D01*
X72372Y218568D01*
X71576Y218898D01*
X70994D01*
X70787Y219398D01*
X71127Y219738D01*
X71457Y220534D01*
Y221395D01*
X71127Y222191D01*
X70518Y222800D01*
X69722Y223130D01*
D02*
G37*
G36*
X426612Y331972D02*
X425750D01*
X424954Y331642D01*
X424345Y331033D01*
X424016Y330237D01*
Y329376D01*
X424345Y328580D01*
X424954Y327971D01*
X425750Y327641D01*
X425792D01*
X450457Y302975D01*
Y276157D01*
X450428Y276128D01*
X450098Y275332D01*
Y275291D01*
X429106Y254298D01*
X428714Y253712D01*
X428577Y253021D01*
Y212409D01*
X428547Y212380D01*
X428218Y211584D01*
Y210722D01*
X428547Y209926D01*
X429156Y209317D01*
X429952Y208988D01*
X430814D01*
X431609Y209317D01*
X432219Y209926D01*
X432548Y210722D01*
Y211584D01*
X432219Y212380D01*
X432189Y212409D01*
Y252273D01*
X452653Y272736D01*
X452695D01*
X453490Y273066D01*
X454100Y273675D01*
X454429Y274471D01*
Y275332D01*
X454100Y276128D01*
X454070Y276157D01*
Y303724D01*
X453933Y304415D01*
X453541Y305001D01*
X428346Y330196D01*
Y330237D01*
X428017Y331033D01*
X427408Y331642D01*
X426612Y331972D01*
D02*
G37*
G36*
X76907Y213287D02*
X76046D01*
X75250Y212958D01*
X74641Y212349D01*
X74311Y211553D01*
Y210691D01*
X74641Y209895D01*
X75250Y209286D01*
X76046Y208957D01*
X76907D01*
X77703Y209286D01*
X78312Y209895D01*
X78642Y210691D01*
Y211553D01*
X78312Y212349D01*
X77703Y212958D01*
X76907Y213287D01*
D02*
G37*
G36*
X136848Y211319D02*
X135987D01*
X135191Y210989D01*
X134582Y210380D01*
X134252Y209584D01*
Y208723D01*
X134582Y207927D01*
X135191Y207318D01*
X135987Y206988D01*
X136848D01*
X137644Y207318D01*
X138253Y207927D01*
X138583Y208723D01*
Y209584D01*
X138253Y210380D01*
X137644Y210989D01*
X136848Y211319D01*
D02*
G37*
G36*
X-26341Y210433D02*
X-27202D01*
X-27998Y210103D01*
X-28607Y209494D01*
X-28937Y208698D01*
Y207837D01*
X-28644Y207129D01*
X-28849Y206629D01*
X-34177D01*
X-34207Y206659D01*
X-35002Y206988D01*
X-35864D01*
X-36660Y206659D01*
X-37269Y206049D01*
X-37598Y205254D01*
Y204392D01*
X-37269Y203596D01*
X-36660Y202987D01*
X-35864Y202658D01*
X-35002D01*
X-34207Y202987D01*
X-34177Y203016D01*
X-4242D01*
X-3922Y202517D01*
X-4134Y202006D01*
Y201144D01*
X-3804Y200348D01*
X-3195Y199739D01*
X-2399Y199409D01*
X-1538D01*
X-742Y199739D01*
X-133Y200348D01*
X197Y201144D01*
Y202006D01*
X-15Y202517D01*
X305Y203016D01*
X57366D01*
X58057Y203154D01*
X58643Y203545D01*
X59231Y204134D01*
X59486D01*
X60282Y204464D01*
X60891Y205073D01*
X61220Y205869D01*
Y206730D01*
X60891Y207526D01*
X60282Y208135D01*
X59486Y208465D01*
X58624D01*
X57828Y208135D01*
X57219Y207526D01*
X57011Y207023D01*
X56617Y206629D01*
X-24695D01*
X-24900Y207129D01*
X-24606Y207837D01*
Y208698D01*
X-24936Y209494D01*
X-25545Y210103D01*
X-26341Y210433D01*
D02*
G37*
G36*
X166966Y206398D02*
X166105D01*
X165309Y206068D01*
X164700Y205459D01*
X164370Y204663D01*
Y203802D01*
X164700Y203006D01*
X165309Y202397D01*
X166105Y202067D01*
X166966D01*
X167762Y202397D01*
X168371Y203006D01*
X168701Y203802D01*
Y204663D01*
X168371Y205459D01*
X167762Y206068D01*
X166966Y206398D01*
D02*
G37*
G36*
X41966Y200886D02*
X41105D01*
X40309Y200556D01*
X39700Y199947D01*
X39370Y199151D01*
Y198290D01*
X39700Y197494D01*
X40309Y196885D01*
X41105Y196555D01*
X41966D01*
X42762Y196885D01*
X43371Y197494D01*
X43701Y198290D01*
Y199151D01*
X43371Y199947D01*
X42762Y200556D01*
X41966Y200886D01*
D02*
G37*
G36*
X503288Y210226D02*
X501747D01*
X500235Y209926D01*
X498811Y209336D01*
X497530Y208479D01*
X496440Y207390D01*
X495583Y206108D01*
X494994Y204684D01*
X494693Y203172D01*
Y201631D01*
X494994Y200119D01*
X495583Y198695D01*
X496440Y197414D01*
X497530Y196324D01*
X498811Y195467D01*
X500235Y194878D01*
X501747Y194577D01*
X503288D01*
X504800Y194878D01*
X506224Y195467D01*
X507506Y196324D01*
X508596Y197414D01*
X509452Y198695D01*
X510042Y200119D01*
X510343Y201631D01*
Y203172D01*
X510042Y204684D01*
X509452Y206108D01*
X508596Y207390D01*
X507506Y208479D01*
X506224Y209336D01*
X504800Y209926D01*
X503288Y210226D01*
D02*
G37*
G36*
X113702Y191858D02*
X112841D01*
X112045Y191529D01*
X111436Y190919D01*
X111106Y190124D01*
Y189262D01*
X111436Y188466D01*
X112045Y187857D01*
X112841Y187528D01*
X113702D01*
X114498Y187857D01*
X115107Y188466D01*
X115437Y189262D01*
Y190124D01*
X115107Y190919D01*
X114498Y191529D01*
X113702Y191858D01*
D02*
G37*
G36*
X-18585Y190118D02*
X-19446D01*
X-20242Y189788D01*
X-20851Y189179D01*
X-21181Y188383D01*
Y187522D01*
X-20851Y186726D01*
X-20242Y186117D01*
X-19446Y185787D01*
X-18585D01*
X-17789Y186117D01*
X-17180Y186726D01*
X-16850Y187522D01*
Y188383D01*
X-17180Y189179D01*
X-17789Y189788D01*
X-18585Y190118D01*
D02*
G37*
G36*
X173344Y191831D02*
X172522D01*
X171762Y191516D01*
X171181Y190935D01*
X170866Y190175D01*
Y189353D01*
X171181Y188593D01*
X171476Y188297D01*
X171161Y187537D01*
Y186676D01*
X171491Y185880D01*
X172100Y185271D01*
X172896Y184941D01*
X173758D01*
X174553Y185271D01*
X174583Y185300D01*
X185470D01*
X185748Y184884D01*
X185680Y184718D01*
Y183896D01*
X185994Y183136D01*
X186576Y182555D01*
X187335Y182240D01*
X188158D01*
X188917Y182555D01*
X189499Y183136D01*
X189813Y183896D01*
Y184718D01*
X189745Y184884D01*
X190023Y185300D01*
X204179D01*
X209302Y180177D01*
X209095Y179677D01*
X164150D01*
X164120Y179707D01*
X163324Y180036D01*
X162463D01*
X161667Y179707D01*
X161058Y179097D01*
X160728Y178302D01*
Y177440D01*
X161058Y176644D01*
X161667Y176035D01*
X162463Y175706D01*
X163324D01*
X164120Y176035D01*
X164150Y176065D01*
X172136D01*
X172332Y175565D01*
X172031Y174840D01*
Y173979D01*
X172361Y173183D01*
X172970Y172574D01*
X173663Y172287D01*
X173564Y171787D01*
X147617D01*
X147588Y171816D01*
X146792Y172146D01*
X145931D01*
X145135Y171816D01*
X144526Y171207D01*
X144196Y170411D01*
Y169550D01*
X144526Y168754D01*
X145135Y168145D01*
X145931Y167815D01*
X146792D01*
X147588Y168145D01*
X147617Y168174D01*
X233988D01*
X234054Y167674D01*
X233780Y167601D01*
X233062Y167186D01*
X232475Y166599D01*
X232061Y165881D01*
X231846Y165080D01*
Y164251D01*
X232061Y163450D01*
X232475Y162732D01*
X233002Y162205D01*
X232475Y161678D01*
X232305Y161383D01*
X231809Y161318D01*
X230610Y162517D01*
X229926Y162974D01*
X229120Y163134D01*
X167147D01*
X166341Y162974D01*
X165657Y162517D01*
X165582Y162442D01*
X158087D01*
X157895Y162904D01*
X158036Y163045D01*
X158366Y163841D01*
Y164702D01*
X158036Y165498D01*
X157427Y166107D01*
X156632Y166437D01*
X155770D01*
X154974Y166107D01*
X154365Y165498D01*
X154035Y164702D01*
Y163841D01*
X154365Y163045D01*
X154506Y162904D01*
X154315Y162442D01*
X105000D01*
X104860Y162500D01*
X103998D01*
X103203Y162170D01*
X102593Y161561D01*
X102264Y160765D01*
Y159904D01*
X102593Y159108D01*
X103203Y158499D01*
X103998Y158169D01*
X104860D01*
X105000Y158227D01*
X160433D01*
Y157446D01*
X160763Y156650D01*
X161372Y156041D01*
X162168Y155712D01*
X163029D01*
X163825Y156041D01*
X164434Y156650D01*
X164764Y157446D01*
Y158227D01*
X166455D01*
X167261Y158388D01*
X167945Y158844D01*
X168020Y158919D01*
X169642D01*
Y158332D01*
X169972Y157536D01*
X170581Y156927D01*
X171377Y156598D01*
X172238D01*
X173034Y156927D01*
X173643Y157536D01*
X173973Y158332D01*
Y158919D01*
X228247D01*
X234424Y152742D01*
X235108Y152285D01*
X235914Y152125D01*
X260531D01*
Y151538D01*
X260730Y151058D01*
X260348Y150675D01*
X260076Y150787D01*
X259215D01*
X258419Y150458D01*
X257810Y149849D01*
X257480Y149053D01*
Y148191D01*
X257810Y147395D01*
X258419Y146786D01*
X259215Y146457D01*
X260076D01*
X260872Y146786D01*
X261481Y147395D01*
X261811Y148191D01*
Y149053D01*
X261612Y149533D01*
X261995Y149916D01*
X262266Y149803D01*
X263127D01*
X263923Y150133D01*
X264532Y150742D01*
X264862Y151538D01*
Y152125D01*
X272284D01*
X272496Y151809D01*
Y150947D01*
X272825Y150152D01*
X273434Y149542D01*
X274230Y149213D01*
X275092D01*
X275887Y149542D01*
X276497Y150152D01*
X276826Y150947D01*
Y151809D01*
X277037Y152125D01*
X285533D01*
X296038Y141620D01*
X296722Y141163D01*
X297528Y141003D01*
X305173D01*
Y136141D01*
X304673Y135873D01*
X304072Y136122D01*
X303211D01*
X302415Y135793D01*
X301806Y135183D01*
X301476Y134388D01*
Y133526D01*
X301806Y132730D01*
X302415Y132121D01*
X303211Y131791D01*
X304072D01*
X304673Y132040D01*
X305173Y131772D01*
Y125920D01*
X298303D01*
X298130Y126179D01*
Y127002D01*
X297815Y127761D01*
X297234Y128343D01*
X296723Y128554D01*
X296765Y128656D01*
Y129478D01*
X296451Y130238D01*
X295869Y130819D01*
X295240Y131080D01*
X283460Y142860D01*
X282874Y143252D01*
X282182Y143389D01*
X276785D01*
X276553Y143889D01*
X276826Y144550D01*
Y145411D01*
X276497Y146207D01*
X275887Y146816D01*
X275092Y147146D01*
X274230D01*
X273434Y146816D01*
X272825Y146207D01*
X272496Y145411D01*
Y144550D01*
X272769Y143889D01*
X272536Y143389D01*
X190523D01*
X179386Y154526D01*
Y154568D01*
X179056Y155364D01*
X178447Y155973D01*
X177651Y156302D01*
X176790D01*
X175994Y155973D01*
X175385Y155364D01*
X175055Y154568D01*
Y153706D01*
X175385Y152910D01*
X175994Y152301D01*
X176790Y151972D01*
X176831D01*
X188497Y140306D01*
X189083Y139914D01*
X189775Y139777D01*
X281434D01*
X292686Y128525D01*
X292946Y127896D01*
X293528Y127315D01*
X294038Y127103D01*
X293996Y127002D01*
Y126179D01*
X293823Y125920D01*
X248611D01*
X243431Y131100D01*
X242845Y131492D01*
X242154Y131629D01*
X115612D01*
X114731Y132510D01*
X114810Y132909D01*
X115419Y133518D01*
X115749Y134314D01*
Y135175D01*
X115419Y135971D01*
X114810Y136580D01*
X114014Y136910D01*
X113153D01*
X112357Y136580D01*
X111748Y135971D01*
X111349Y135892D01*
X101117Y146123D01*
Y170398D01*
X101147Y170427D01*
X101476Y171223D01*
Y172084D01*
X101147Y172880D01*
X100538Y173489D01*
X99742Y173819D01*
X98880D01*
X98084Y173489D01*
X97475Y172880D01*
X97146Y172084D01*
Y171223D01*
X97475Y170427D01*
X97505Y170398D01*
Y145375D01*
X97642Y144684D01*
X98034Y144098D01*
X113586Y128546D01*
X114172Y128154D01*
X114863Y128017D01*
X165163D01*
X165354Y127555D01*
X162504Y124705D01*
X162463D01*
X161667Y124375D01*
X161058Y123766D01*
X160728Y122970D01*
Y122109D01*
X161058Y121313D01*
X161667Y120704D01*
X162463Y120374D01*
X163324D01*
X164120Y120704D01*
X164729Y121313D01*
X165059Y122109D01*
Y122150D01*
X168957Y126048D01*
X231631D01*
X231936Y125651D01*
X231846Y125316D01*
Y124487D01*
X232061Y123686D01*
X232475Y122968D01*
X233002Y122441D01*
X232475Y121914D01*
X232061Y121196D01*
X231846Y120395D01*
Y119566D01*
X232061Y118765D01*
X232475Y118047D01*
X232944Y117578D01*
X232777Y117078D01*
X165569D01*
X164878Y116941D01*
X164292Y116549D01*
X163919Y116176D01*
X147024D01*
X146994Y116206D01*
X146198Y116535D01*
X145337D01*
X144541Y116206D01*
X143932Y115597D01*
X143602Y114801D01*
Y113939D01*
X143932Y113144D01*
X144541Y112534D01*
X145337Y112205D01*
X146198D01*
X146994Y112534D01*
X147024Y112564D01*
X162437D01*
X162628Y112102D01*
X161487Y110960D01*
X127770D01*
Y119262D01*
X118616D01*
Y110960D01*
X114275D01*
X114246Y110989D01*
X113450Y111319D01*
X112589D01*
X111793Y110989D01*
X111184Y110380D01*
X110854Y109584D01*
Y108723D01*
X111184Y107927D01*
X111793Y107318D01*
X112589Y106988D01*
X113450D01*
X114246Y107318D01*
X114275Y107347D01*
X151602D01*
X151936Y106847D01*
X151772Y106450D01*
Y105589D01*
X152101Y104793D01*
X152710Y104184D01*
X153506Y103854D01*
X154368D01*
X155164Y104184D01*
X155773Y104793D01*
X156102Y105589D01*
Y106450D01*
X155938Y106847D01*
X156272Y107347D01*
X162235D01*
X162926Y107485D01*
X163512Y107876D01*
X164695Y109059D01*
X165094Y108980D01*
X165703Y108371D01*
X166498Y108041D01*
X167360D01*
X168144Y108366D01*
X193493D01*
X193557Y108302D01*
X194353Y107973D01*
X195214D01*
X196010Y108302D01*
X196619Y108911D01*
X196949Y109707D01*
Y110568D01*
X197220Y110975D01*
X276219D01*
X276332Y110861D01*
X277128Y110532D01*
X277990D01*
X278786Y110861D01*
X279395Y111470D01*
X279724Y112266D01*
Y113128D01*
X279950Y113465D01*
X369013D01*
X369220Y112965D01*
X369114Y112859D01*
X368799Y112099D01*
Y111277D01*
X369114Y110517D01*
X369695Y109936D01*
X370052Y109788D01*
X370500Y109339D01*
X370560Y109042D01*
X370951Y108456D01*
X374414Y104993D01*
X375000Y104602D01*
X375214Y104559D01*
X375254Y104524D01*
X375480Y103996D01*
X375252Y103445D01*
Y102583D01*
X375582Y101787D01*
X376191Y101178D01*
X376987Y100849D01*
X377848D01*
X378644Y101178D01*
X379253Y101787D01*
X379583Y102583D01*
Y102749D01*
X380083Y102956D01*
X380770Y102268D01*
Y102227D01*
X381100Y101431D01*
X381709Y100822D01*
X382505Y100492D01*
X383366D01*
X384162Y100822D01*
X384771Y101431D01*
X385101Y102227D01*
Y102950D01*
X385125Y103110D01*
X385498Y103436D01*
X391644D01*
X392335Y103574D01*
X392879Y103937D01*
X393147D01*
X393943Y104267D01*
X394552Y104876D01*
X394882Y105672D01*
Y106533D01*
X394552Y107329D01*
X393943Y107938D01*
X393147Y108268D01*
X393134D01*
X392816Y108654D01*
X392845Y108797D01*
Y108995D01*
X393025Y109175D01*
X393147Y109470D01*
X393637Y109567D01*
X395669Y107535D01*
Y98016D01*
X404914D01*
X405077Y97972D01*
X405750D01*
X405913Y98016D01*
X419291D01*
Y122047D01*
X409332Y132007D01*
X409523Y132468D01*
X439215D01*
X446418Y125265D01*
X446227Y124803D01*
X438976D01*
Y97815D01*
X449223Y87568D01*
X449186Y87437D01*
X448978Y87106D01*
X448231D01*
X447435Y86777D01*
X446826Y86168D01*
X446496Y85372D01*
Y84510D01*
X446826Y83714D01*
X447435Y83105D01*
X448231Y82776D01*
X449092D01*
X449888Y83105D01*
X450497Y83714D01*
X450827Y84510D01*
Y85258D01*
X451158Y85466D01*
X451289Y85503D01*
X466811Y69980D01*
X482551D01*
Y69144D01*
X482892Y67871D01*
X483551Y66729D01*
X484483Y65797D01*
X485625Y65138D01*
X486898Y64797D01*
X488216D01*
X489489Y65138D01*
X490631Y65797D01*
X491563Y66729D01*
X492222Y67871D01*
X492563Y69144D01*
Y69980D01*
X514272D01*
X514316Y70025D01*
Y109941D01*
X492563D01*
Y110462D01*
X492222Y111735D01*
X491563Y112877D01*
X490631Y113809D01*
X489489Y114468D01*
X488216Y114809D01*
X486898D01*
X485625Y114468D01*
X484483Y113809D01*
X483551Y112877D01*
X482892Y111735D01*
X482575Y110553D01*
X482303Y110417D01*
X482051Y110370D01*
X467618Y124803D01*
X452841D01*
X441578Y136066D01*
X440894Y136523D01*
X440088Y136683D01*
X404655D01*
X397638Y143701D01*
X381723D01*
X381538Y144201D01*
X381846Y144943D01*
Y145142D01*
X388705D01*
X388734Y145113D01*
X389530Y144783D01*
X390391D01*
X391187Y145113D01*
X391796Y145722D01*
X392126Y146518D01*
Y147380D01*
X391796Y148175D01*
X391187Y148784D01*
X390391Y149114D01*
X389530D01*
X388734Y148784D01*
X388705Y148755D01*
X382495D01*
X374762Y156488D01*
X374970Y156988D01*
X375214D01*
X375808Y157234D01*
X375835Y157167D01*
X376417Y156585D01*
X377176Y156271D01*
X377999D01*
X378628Y156531D01*
X383534D01*
X384225Y156669D01*
X384811Y157060D01*
X392859Y165108D01*
X393025Y165356D01*
X393568Y165899D01*
X393898Y166695D01*
Y167557D01*
X393568Y168352D01*
X392959Y168962D01*
X392163Y169291D01*
X391302D01*
X390506Y168962D01*
X390502Y168958D01*
X390203Y169257D01*
X389407Y169587D01*
X388546D01*
X387750Y169257D01*
X387720Y169228D01*
X383169D01*
X382478Y169090D01*
X381892Y168699D01*
X374261Y161068D01*
X373632Y160807D01*
X373051Y160226D01*
X372736Y159466D01*
Y159066D01*
X372390Y158819D01*
X372236Y158768D01*
X371609Y158893D01*
X329312D01*
X329212Y159393D01*
X329431Y159483D01*
X330040Y160092D01*
X330369Y160888D01*
Y161750D01*
X330040Y162546D01*
X329431Y163155D01*
X328635Y163484D01*
X327773D01*
X326978Y163155D01*
X326368Y162546D01*
X326039Y161750D01*
Y160888D01*
X326368Y160092D01*
X326978Y159483D01*
X327196Y159393D01*
X327096Y158893D01*
X308846D01*
X308066Y159673D01*
X308485Y160092D01*
X308814Y160888D01*
Y161750D01*
X308485Y162546D01*
X307876Y163155D01*
X307080Y163484D01*
X306218D01*
X305422Y163155D01*
X305003Y162736D01*
X285303Y182436D01*
X284717Y182828D01*
X284025Y182965D01*
X227475D01*
X227141Y183465D01*
X227287Y183819D01*
Y184680D01*
X226958Y185476D01*
X226349Y186085D01*
X225553Y186415D01*
X224691D01*
X223896Y186085D01*
X223286Y185476D01*
X222957Y184680D01*
Y183819D01*
X223103Y183465D01*
X222769Y182965D01*
X211623D01*
X206204Y188384D01*
X205618Y188775D01*
X204927Y188913D01*
X175268D01*
X174990Y189328D01*
X175000Y189353D01*
Y190175D01*
X174685Y190935D01*
X174104Y191516D01*
X173344Y191831D01*
D02*
G37*
G36*
X17950Y183858D02*
X17089D01*
X16293Y183529D01*
X15684Y182920D01*
X15354Y182124D01*
Y181262D01*
X15684Y180466D01*
X16293Y179857D01*
X17089Y179528D01*
X17950D01*
X18746Y179857D01*
X19355Y180466D01*
X19685Y181262D01*
Y182124D01*
X19355Y182920D01*
X18746Y183529D01*
X17950Y183858D01*
D02*
G37*
G36*
X528216Y187408D02*
X526898D01*
X525625Y187067D01*
X524483Y186407D01*
X523551Y185475D01*
X522892Y184334D01*
X522551Y183061D01*
Y181743D01*
X522892Y180469D01*
X523551Y179328D01*
X524483Y178396D01*
X525625Y177737D01*
X526898Y177395D01*
X528216D01*
X529489Y177737D01*
X530631Y178396D01*
X531563Y179328D01*
X532222Y180469D01*
X532563Y181743D01*
Y183061D01*
X532222Y184334D01*
X531563Y185475D01*
X530631Y186407D01*
X529489Y187067D01*
X528216Y187408D01*
D02*
G37*
G36*
X488216D02*
X486898D01*
X485625Y187067D01*
X484483Y186407D01*
X483551Y185475D01*
X482892Y184334D01*
X482551Y183061D01*
Y181743D01*
X482892Y180469D01*
X483551Y179328D01*
X484483Y178396D01*
X485625Y177737D01*
X486898Y177395D01*
X488216D01*
X489489Y177737D01*
X490631Y178396D01*
X491563Y179328D01*
X492222Y180469D01*
X492563Y181743D01*
Y183061D01*
X492222Y184334D01*
X491563Y185475D01*
X490631Y186407D01*
X489489Y187067D01*
X488216Y187408D01*
D02*
G37*
G36*
X-34727Y181614D02*
X-35588D01*
X-36384Y181284D01*
X-36993Y180675D01*
X-37323Y179879D01*
Y179018D01*
X-36993Y178222D01*
X-36384Y177613D01*
X-35588Y177284D01*
X-34727D01*
X-33931Y177613D01*
X-33322Y178222D01*
X-32992Y179018D01*
Y179879D01*
X-33322Y180675D01*
X-33931Y181284D01*
X-34727Y181614D01*
D02*
G37*
G36*
X329072Y181595D02*
X328211D01*
X327415Y181265D01*
X326806Y180656D01*
X326476Y179860D01*
Y178998D01*
X326806Y178203D01*
X327415Y177593D01*
X328211Y177264D01*
X329072D01*
X329868Y177593D01*
X330477Y178203D01*
X330807Y178998D01*
Y179860D01*
X330477Y180656D01*
X329868Y181265D01*
X329072Y181595D01*
D02*
G37*
G36*
X323167D02*
X322305D01*
X321510Y181265D01*
X320901Y180656D01*
X320571Y179860D01*
Y178998D01*
X320901Y178203D01*
X321510Y177593D01*
X322305Y177264D01*
X323167D01*
X323963Y177593D01*
X324572Y178203D01*
X324902Y178998D01*
Y179860D01*
X324572Y180656D01*
X323963Y181265D01*
X323167Y181595D01*
D02*
G37*
G36*
X329072Y176476D02*
X328211D01*
X327415Y176147D01*
X326806Y175538D01*
X326476Y174742D01*
Y173880D01*
X326806Y173084D01*
X327415Y172475D01*
X328211Y172146D01*
X329072D01*
X329868Y172475D01*
X330477Y173084D01*
X330807Y173880D01*
Y174742D01*
X330477Y175538D01*
X329868Y176147D01*
X329072Y176476D01*
D02*
G37*
G36*
X323167D02*
X322305D01*
X321510Y176147D01*
X320901Y175538D01*
X320571Y174742D01*
Y173880D01*
X320901Y173084D01*
X321510Y172475D01*
X322305Y172146D01*
X323167D01*
X323963Y172475D01*
X324572Y173084D01*
X324902Y173880D01*
Y174742D01*
X324572Y175538D01*
X323963Y176147D01*
X323167Y176476D01*
D02*
G37*
G36*
X-22010Y175902D02*
X-22872D01*
X-23667Y175572D01*
X-24277Y174963D01*
X-24606Y174167D01*
Y173305D01*
X-24277Y172510D01*
X-23667Y171900D01*
X-22872Y171571D01*
X-22010D01*
X-21214Y171900D01*
X-21193Y171922D01*
X51787D01*
X51825Y171885D01*
X52621Y171555D01*
X53482D01*
X54278Y171885D01*
X54887Y172494D01*
X55216Y173290D01*
Y174151D01*
X54887Y174947D01*
X54278Y175556D01*
X53482Y175886D01*
X52621D01*
X51825Y175556D01*
X51803Y175535D01*
X-21177D01*
X-21214Y175572D01*
X-22010Y175902D01*
D02*
G37*
G36*
X-37266Y173622D02*
X-38128D01*
X-38923Y173292D01*
X-39533Y172683D01*
X-39862Y171887D01*
Y171026D01*
X-39533Y170230D01*
X-38923Y169621D01*
X-38128Y169291D01*
X-37266D01*
X-36470Y169621D01*
X-35861Y170230D01*
X-35531Y171026D01*
Y171887D01*
X-35861Y172683D01*
X-36470Y173292D01*
X-37266Y173622D01*
D02*
G37*
G36*
X45706Y170472D02*
X44845D01*
X44049Y170143D01*
X43440Y169534D01*
X43110Y168738D01*
Y167876D01*
X43440Y167080D01*
X43820Y166700D01*
X43613Y166200D01*
X9570D01*
X9292Y166616D01*
X9366Y166794D01*
Y167655D01*
X9037Y168451D01*
X8427Y169060D01*
X7632Y169390D01*
X6770D01*
X5974Y169060D01*
X5365Y168451D01*
X5035Y167655D01*
Y166794D01*
X5109Y166616D01*
X4831Y166200D01*
X231D01*
X-455Y166484D01*
X-1316D01*
X-2112Y166155D01*
X-2722Y165545D01*
X-3051Y164750D01*
Y163888D01*
X-2722Y163092D01*
X-2112Y162483D01*
X-1316Y162153D01*
X-455D01*
X341Y162483D01*
X445Y162587D01*
X54639D01*
X54739Y162087D01*
X54482Y161981D01*
X53873Y161372D01*
X53543Y160576D01*
Y159715D01*
X53873Y158919D01*
X54482Y158310D01*
X55278Y157980D01*
X56139D01*
X56935Y158310D01*
X57544Y158919D01*
X57874Y159715D01*
Y160576D01*
X57544Y161372D01*
X56935Y161981D01*
X56679Y162087D01*
X56778Y162587D01*
X62269D01*
X62955Y162303D01*
X63816D01*
X64612Y162633D01*
X65222Y163242D01*
X65551Y164038D01*
Y164899D01*
X65222Y165695D01*
X64612Y166304D01*
X63816Y166634D01*
X62955D01*
X62159Y166304D01*
X62055Y166200D01*
X46938D01*
X46731Y166700D01*
X47111Y167080D01*
X47441Y167876D01*
Y168738D01*
X47111Y169534D01*
X46502Y170143D01*
X45706Y170472D01*
D02*
G37*
G36*
X128064Y174593D02*
X118911D01*
Y165440D01*
X128064D01*
Y174593D01*
D02*
G37*
G36*
X370510Y169095D02*
X369648D01*
X368852Y168765D01*
X368243Y168156D01*
X367913Y167360D01*
Y166498D01*
X368243Y165703D01*
X368852Y165093D01*
X369648Y164764D01*
X370510D01*
X371305Y165093D01*
X371914Y165703D01*
X372244Y166498D01*
Y167360D01*
X371914Y168156D01*
X371305Y168765D01*
X370510Y169095D01*
D02*
G37*
G36*
X528216Y171108D02*
X526898D01*
X525625Y170767D01*
X524483Y170108D01*
X523551Y169176D01*
X522892Y168035D01*
X522551Y166762D01*
Y165443D01*
X522892Y164170D01*
X523551Y163029D01*
X524483Y162097D01*
X525625Y161437D01*
X526898Y161096D01*
X528216D01*
X529489Y161437D01*
X530631Y162097D01*
X531563Y163029D01*
X532222Y164170D01*
X532563Y165443D01*
Y166762D01*
X532222Y168035D01*
X531563Y169176D01*
X530631Y170108D01*
X529489Y170767D01*
X528216Y171108D01*
D02*
G37*
G36*
X32025Y158972D02*
X31164D01*
X30368Y158643D01*
X29759Y158034D01*
X29429Y157238D01*
Y156376D01*
X29201Y156035D01*
X-33977D01*
X-34305Y156363D01*
X-35101Y156693D01*
X-35962D01*
X-36758Y156363D01*
X-37367Y155754D01*
X-37697Y154958D01*
Y154097D01*
X-37367Y153301D01*
X-36758Y152692D01*
X-35962Y152362D01*
X-35101D01*
X-34305Y152692D01*
X-34173Y152823D01*
X68228D01*
X68557Y152495D01*
X69353Y152165D01*
X70214D01*
X71010Y152495D01*
X71619Y153104D01*
X71949Y153900D01*
Y154761D01*
X71619Y155557D01*
X71010Y156166D01*
X70214Y156496D01*
X69353D01*
X68557Y156166D01*
X68425Y156035D01*
X33988D01*
X33760Y156376D01*
Y157238D01*
X33430Y158034D01*
X32821Y158643D01*
X32025Y158972D01*
D02*
G37*
G36*
X95017Y155205D02*
X94156D01*
X93360Y154876D01*
X92852Y154368D01*
X92793Y154427D01*
X91997Y154757D01*
X91135D01*
X90339Y154427D01*
X89730Y153818D01*
X89401Y153023D01*
Y152161D01*
X89730Y151365D01*
X90339Y150756D01*
X91135Y150426D01*
X91997D01*
X92793Y150756D01*
X93300Y151264D01*
X93360Y151204D01*
X94156Y150874D01*
X95017D01*
X95813Y151204D01*
X96422Y151813D01*
X96752Y152609D01*
Y153471D01*
X96422Y154266D01*
X95813Y154876D01*
X95017Y155205D01*
D02*
G37*
G36*
X154119D02*
X153257D01*
X152461Y154876D01*
X151852Y154266D01*
X151523Y153471D01*
Y153429D01*
X149490Y151396D01*
X130344D01*
X130118Y151734D01*
Y152595D01*
X129788Y153391D01*
X129179Y154000D01*
X128384Y154330D01*
X127522D01*
X126726Y154000D01*
X126117Y153391D01*
X125787Y152595D01*
Y151734D01*
X125562Y151396D01*
X117201D01*
X116975Y151734D01*
Y152595D01*
X116646Y153391D01*
X116037Y154000D01*
X115241Y154330D01*
X114379D01*
X113584Y154000D01*
X112974Y153391D01*
X112645Y152595D01*
Y151734D01*
X112419Y151396D01*
X107574D01*
X106299Y152671D01*
Y152712D01*
X105970Y153508D01*
X105360Y154117D01*
X104565Y154447D01*
X103703D01*
X102907Y154117D01*
X102298Y153508D01*
X101969Y152712D01*
Y151851D01*
X102298Y151055D01*
X102907Y150446D01*
X103703Y150116D01*
X103745D01*
X105549Y148312D01*
X106134Y147921D01*
X106826Y147783D01*
X150238D01*
X150929Y147921D01*
X151515Y148312D01*
X154077Y150874D01*
X154119D01*
X154915Y151204D01*
X155524Y151813D01*
X155853Y152609D01*
Y153471D01*
X155524Y154266D01*
X154915Y154876D01*
X154119Y155205D01*
D02*
G37*
G36*
X390391Y154150D02*
X389530D01*
X388734Y153820D01*
X388125Y153211D01*
X387795Y152415D01*
Y151553D01*
X388125Y150758D01*
X388734Y150149D01*
X389530Y149819D01*
X390391D01*
X391187Y150149D01*
X391796Y150758D01*
X392126Y151553D01*
Y152415D01*
X391796Y153211D01*
X391187Y153820D01*
X390391Y154150D01*
D02*
G37*
G36*
X248561Y150000D02*
X247699D01*
X246904Y149670D01*
X246294Y149061D01*
X246186Y148800D01*
X245645D01*
X245537Y149061D01*
X244928Y149670D01*
X244132Y150000D01*
X243270D01*
X242474Y149670D01*
X241865Y149061D01*
X241536Y148265D01*
Y147404D01*
X241865Y146608D01*
X242474Y145999D01*
X243270Y145669D01*
X244132D01*
X244928Y145999D01*
X245537Y146608D01*
X245645Y146870D01*
X246186D01*
X246294Y146608D01*
X246904Y145999D01*
X247699Y145669D01*
X248561D01*
X249357Y145999D01*
X249966Y146608D01*
X250296Y147404D01*
Y148265D01*
X249966Y149061D01*
X249357Y149670D01*
X248561Y150000D01*
D02*
G37*
G36*
X158783Y151279D02*
X157922D01*
X157126Y150949D01*
X156517Y150340D01*
X156187Y149544D01*
Y148683D01*
X156517Y147887D01*
X157126Y147278D01*
X157922Y146948D01*
X158783D01*
X159579Y147278D01*
X160188Y147887D01*
X160518Y148683D01*
Y149544D01*
X160188Y150340D01*
X159579Y150949D01*
X158783Y151279D01*
D02*
G37*
G36*
X449022Y148966D02*
X448161D01*
X447365Y148636D01*
X446756Y148027D01*
X446426Y147231D01*
Y146370D01*
X446756Y145574D01*
X447365Y144965D01*
X448161Y144635D01*
X449022D01*
X449818Y144965D01*
X450427Y145574D01*
X450757Y146370D01*
Y147231D01*
X450427Y148027D01*
X449818Y148636D01*
X449022Y148966D01*
D02*
G37*
G36*
X425824Y148917D02*
X424963D01*
X424167Y148588D01*
X423558Y147978D01*
X423228Y147183D01*
Y146321D01*
X423558Y145525D01*
X424167Y144916D01*
X424963Y144587D01*
X425824D01*
X426620Y144916D01*
X427229Y145525D01*
X427559Y146321D01*
Y147183D01*
X427229Y147978D01*
X426620Y148588D01*
X425824Y148917D01*
D02*
G37*
G36*
X177679Y148822D02*
X176817D01*
X176021Y148492D01*
X175412Y147883D01*
X175083Y147087D01*
Y146226D01*
X175412Y145430D01*
X176021Y144821D01*
X176817Y144491D01*
X177679D01*
X178474Y144821D01*
X179084Y145430D01*
X179413Y146226D01*
Y147087D01*
X179084Y147883D01*
X178474Y148492D01*
X177679Y148822D01*
D02*
G37*
G36*
X402891Y145945D02*
X402030D01*
X401234Y145615D01*
X400625Y145006D01*
X400295Y144210D01*
Y143349D01*
X400625Y142553D01*
X401234Y141944D01*
X402030Y141614D01*
X402891D01*
X403687Y141944D01*
X404296Y142553D01*
X404626Y143349D01*
Y144210D01*
X404296Y145006D01*
X403687Y145615D01*
X402891Y145945D01*
D02*
G37*
G36*
X177793Y142520D02*
X176932D01*
X176136Y142190D01*
X175527Y141581D01*
X175197Y140785D01*
Y139924D01*
X175527Y139128D01*
X176136Y138519D01*
X176932Y138189D01*
X177793D01*
X178589Y138519D01*
X179198Y139128D01*
X179528Y139924D01*
Y140785D01*
X179198Y141581D01*
X178589Y142190D01*
X177793Y142520D01*
D02*
G37*
G36*
X293103Y141536D02*
X292242D01*
X291446Y141206D01*
X290837Y140597D01*
X290507Y139801D01*
Y138940D01*
X290837Y138144D01*
X291446Y137535D01*
X292242Y137205D01*
X293103D01*
X293899Y137535D01*
X294508Y138144D01*
X294838Y138940D01*
Y139801D01*
X294508Y140597D01*
X293899Y141206D01*
X293103Y141536D01*
D02*
G37*
G36*
X244132Y138977D02*
X243270D01*
X242474Y138647D01*
X241865Y138038D01*
X241536Y137242D01*
Y136381D01*
X241865Y135585D01*
X242474Y134976D01*
X243270Y134646D01*
X244132D01*
X244928Y134976D01*
X245343Y135391D01*
X245670Y135529D01*
X245996Y135391D01*
X246411Y134975D01*
X247207Y134646D01*
X248068D01*
X248864Y134975D01*
X249474Y135584D01*
X249803Y136380D01*
Y137242D01*
X249474Y138038D01*
X248864Y138647D01*
X248068Y138976D01*
X247207D01*
X246411Y138647D01*
X245996Y138232D01*
X245669Y138094D01*
X245343Y138232D01*
X244928Y138647D01*
X244132Y138977D01*
D02*
G37*
G36*
X160646Y137374D02*
X159784D01*
X158989Y137045D01*
X158379Y136436D01*
X158050Y135640D01*
Y134778D01*
X158379Y133983D01*
X158989Y133373D01*
X159784Y133044D01*
X160646D01*
X161442Y133373D01*
X162051Y133983D01*
X162381Y134778D01*
Y135640D01*
X162051Y136436D01*
X161442Y137045D01*
X160646Y137374D01*
D02*
G37*
G36*
X207714Y137008D02*
X206853D01*
X206057Y136678D01*
X205448Y136069D01*
X205118Y135273D01*
Y134412D01*
X205448Y133616D01*
X206057Y133007D01*
X206853Y132677D01*
X207714D01*
X208510Y133007D01*
X209119Y133616D01*
X209449Y134412D01*
Y135273D01*
X209119Y136069D01*
X208510Y136678D01*
X207714Y137008D01*
D02*
G37*
G36*
X278624Y133567D02*
X277762D01*
X276967Y133237D01*
X276357Y132628D01*
X276028Y131832D01*
Y130971D01*
X276357Y130175D01*
X276967Y129566D01*
X277762Y129236D01*
X278624D01*
X279420Y129566D01*
X280029Y130175D01*
X280358Y130971D01*
Y131832D01*
X280029Y132628D01*
X279420Y133237D01*
X278624Y133567D01*
D02*
G37*
G36*
X3285Y130413D02*
X2424D01*
X1628Y130084D01*
X1019Y129475D01*
X689Y128679D01*
Y127817D01*
X1019Y127022D01*
X1628Y126412D01*
X2424Y126083D01*
X3285D01*
X4081Y126412D01*
X4690Y127022D01*
X5020Y127817D01*
Y128679D01*
X4690Y129475D01*
X4081Y130084D01*
X3285Y130413D01*
D02*
G37*
G36*
X51415Y127165D02*
X50554D01*
X49758Y126836D01*
X49149Y126227D01*
X48819Y125431D01*
Y124569D01*
X49149Y123773D01*
X49758Y123164D01*
X50554Y122835D01*
X51415D01*
X52211Y123164D01*
X52820Y123773D01*
X53150Y124569D01*
Y125431D01*
X53012Y125764D01*
X52964Y126002D01*
X52829Y126204D01*
X52820Y126227D01*
X52803Y126244D01*
X52573Y126588D01*
X52228Y126819D01*
X52211Y126836D01*
X52188Y126845D01*
X51986Y126980D01*
X51748Y127027D01*
X51415Y127165D01*
D02*
G37*
G36*
X528216Y131108D02*
X526898D01*
X525625Y130767D01*
X524483Y130108D01*
X523551Y129176D01*
X522892Y128035D01*
X522551Y126761D01*
Y125443D01*
X522892Y124170D01*
X523551Y123029D01*
X524483Y122097D01*
X525625Y121438D01*
X526898Y121096D01*
X528216D01*
X529489Y121438D01*
X530631Y122097D01*
X531563Y123029D01*
X532222Y124170D01*
X532563Y125443D01*
Y126761D01*
X532222Y128035D01*
X531563Y129176D01*
X530631Y130108D01*
X529489Y130767D01*
X528216Y131108D01*
D02*
G37*
G36*
X-21026Y123268D02*
X-21887D01*
X-22683Y122938D01*
X-23292Y122329D01*
X-23622Y121533D01*
Y120672D01*
X-23292Y119876D01*
X-22683Y119267D01*
X-21887Y118937D01*
X-21026D01*
X-20230Y119267D01*
X-19621Y119876D01*
X-19291Y120672D01*
Y121533D01*
X-19621Y122329D01*
X-20230Y122938D01*
X-21026Y123268D01*
D02*
G37*
G36*
X56041Y117126D02*
X55180D01*
X54384Y116796D01*
X53774Y116187D01*
X53445Y115391D01*
Y114530D01*
X53774Y113734D01*
X54384Y113125D01*
X55180Y112795D01*
X56041D01*
X56837Y113125D01*
X57446Y113734D01*
X57776Y114530D01*
Y115391D01*
X57446Y116187D01*
X56837Y116796D01*
X56041Y117126D01*
D02*
G37*
G36*
X93147Y116142D02*
X92286D01*
X91490Y115812D01*
X90881Y115203D01*
X90551Y114407D01*
Y113546D01*
X90881Y112750D01*
X91490Y112141D01*
X92286Y111811D01*
X93147D01*
X93943Y112141D01*
X94552Y112750D01*
X94882Y113546D01*
Y114407D01*
X94552Y115203D01*
X93943Y115812D01*
X93147Y116142D01*
D02*
G37*
G36*
X67852Y113386D02*
X66991D01*
X66195Y113056D01*
X65586Y112447D01*
X65256Y111651D01*
Y110790D01*
X65586Y109994D01*
X66195Y109385D01*
X66991Y109055D01*
X67852D01*
X68648Y109385D01*
X69257Y109994D01*
X69587Y110790D01*
Y111651D01*
X69257Y112447D01*
X68648Y113056D01*
X67852Y113386D01*
D02*
G37*
G36*
X72547Y110728D02*
X71685D01*
X70889Y110399D01*
X70280Y109790D01*
X69951Y108994D01*
Y108132D01*
X70280Y107336D01*
X70889Y106727D01*
X71685Y106398D01*
X72547D01*
X73343Y106727D01*
X73358Y106742D01*
X73373Y106727D01*
X74169Y106398D01*
X75030D01*
X75826Y106727D01*
X76435Y107336D01*
X76765Y108132D01*
Y108994D01*
X76435Y109790D01*
X75826Y110399D01*
X75030Y110728D01*
X74169D01*
X73373Y110399D01*
X73358Y110384D01*
X73343Y110399D01*
X72547Y110728D01*
D02*
G37*
G36*
X211651Y110335D02*
X210790D01*
X209994Y110005D01*
X209385Y109396D01*
X209055Y108600D01*
Y107739D01*
X209385Y106943D01*
X209994Y106334D01*
X210790Y106004D01*
X211651D01*
X212447Y106334D01*
X213056Y106943D01*
X213386Y107739D01*
Y108600D01*
X213056Y109396D01*
X212447Y110005D01*
X211651Y110335D01*
D02*
G37*
G36*
X528216Y114809D02*
X526898D01*
X525625Y114468D01*
X524483Y113809D01*
X523551Y112877D01*
X522892Y111735D01*
X522551Y110462D01*
Y109144D01*
X522892Y107871D01*
X523551Y106729D01*
X524483Y105797D01*
X525625Y105138D01*
X526898Y104797D01*
X528216D01*
X529489Y105138D01*
X530631Y105797D01*
X531563Y106729D01*
X532222Y107871D01*
X532563Y109144D01*
Y110462D01*
X532222Y111735D01*
X531563Y112877D01*
X530631Y113809D01*
X529489Y114468D01*
X528216Y114809D01*
D02*
G37*
G36*
X28482Y107972D02*
X27621D01*
X26825Y107643D01*
X26215Y107034D01*
X25886Y106238D01*
Y105376D01*
X26215Y104580D01*
X26825Y103971D01*
X27621Y103642D01*
X28482D01*
X29278Y103971D01*
X29887Y104580D01*
X30217Y105376D01*
Y106238D01*
X29887Y107034D01*
X29278Y107643D01*
X28482Y107972D01*
D02*
G37*
G36*
X76907Y105413D02*
X76046D01*
X75250Y105084D01*
X74641Y104475D01*
X74311Y103679D01*
Y102817D01*
X74641Y102022D01*
X75250Y101412D01*
X76046Y101083D01*
X76907D01*
X77703Y101412D01*
X78312Y102022D01*
X78642Y102817D01*
Y103679D01*
X78312Y104475D01*
X77703Y105084D01*
X76907Y105413D01*
D02*
G37*
G36*
X329072Y98425D02*
X328211D01*
X327415Y98096D01*
X326806Y97486D01*
X326476Y96690D01*
Y95829D01*
X326806Y95033D01*
X327415Y94424D01*
X328211Y94095D01*
X329072D01*
X329868Y94424D01*
X330477Y95033D01*
X330807Y95829D01*
Y96690D01*
X330477Y97486D01*
X329868Y98096D01*
X329072Y98425D01*
D02*
G37*
G36*
X323167D02*
X322305D01*
X321510Y98096D01*
X320901Y97486D01*
X320571Y96690D01*
Y95829D01*
X320901Y95033D01*
X321510Y94424D01*
X322305Y94095D01*
X323167D01*
X323963Y94424D01*
X324572Y95033D01*
X324902Y95829D01*
Y96690D01*
X324572Y97486D01*
X323963Y98096D01*
X323167Y98425D01*
D02*
G37*
G36*
X107351Y97752D02*
X106490D01*
X105694Y97422D01*
X105085Y96813D01*
X104755Y96017D01*
Y95156D01*
X105085Y94360D01*
X105694Y93751D01*
X106490Y93421D01*
X107351D01*
X108147Y93751D01*
X108756Y94360D01*
X109086Y95156D01*
Y96017D01*
X108756Y96813D01*
X108147Y97422D01*
X107351Y97752D01*
D02*
G37*
G36*
X118542Y105331D02*
X117680D01*
X116884Y105001D01*
X116275Y104392D01*
X115946Y103596D01*
Y102735D01*
X116275Y101939D01*
X116884Y101330D01*
X117680Y101000D01*
X117722D01*
X120967Y97754D01*
X121553Y97363D01*
X122245Y97225D01*
X137242D01*
X137468Y96888D01*
Y96026D01*
X137798Y95230D01*
X138407Y94621D01*
X139203Y94292D01*
X140064D01*
X140860Y94621D01*
X141469Y95230D01*
X141799Y96026D01*
Y96888D01*
X142024Y97225D01*
X166996D01*
X167274Y96810D01*
X167224Y96690D01*
Y95829D01*
X167554Y95033D01*
X168163Y94424D01*
X168959Y94095D01*
X169820D01*
X170616Y94424D01*
X171226Y95033D01*
X171555Y95829D01*
Y96690D01*
X171506Y96810D01*
X171784Y97225D01*
X222763D01*
X223041Y96810D01*
X223015Y96747D01*
Y95886D01*
X223344Y95090D01*
X223954Y94481D01*
X224749Y94151D01*
X225611D01*
X226407Y94481D01*
X227016Y95090D01*
X227346Y95886D01*
Y96747D01*
X227320Y96810D01*
X227598Y97225D01*
X283917D01*
X287465Y93677D01*
X287227Y93209D01*
X285984Y93405D01*
X284094D01*
X282227Y93110D01*
X280430Y92526D01*
X278746Y91668D01*
X277217Y90557D01*
X275880Y89220D01*
X274769Y87691D01*
X273911Y86007D01*
X273327Y84210D01*
X273031Y82343D01*
Y80453D01*
X273327Y78586D01*
X273911Y76788D01*
X274769Y75104D01*
X275880Y73575D01*
X277217Y72238D01*
X278746Y71128D01*
X280430Y70270D01*
X282227Y69685D01*
X284094Y69390D01*
X285984D01*
X287851Y69685D01*
X289649Y70270D01*
X291333Y71128D01*
X292862Y72238D01*
X294198Y73575D01*
X295309Y75104D01*
X296167Y76788D01*
X296752Y78586D01*
X297047Y80453D01*
Y82343D01*
X296752Y84210D01*
X296167Y86007D01*
X295842Y86645D01*
X296104Y87072D01*
X379457D01*
X380148Y87209D01*
X380734Y87601D01*
X384930Y91796D01*
X388308D01*
X388471Y91296D01*
X387453Y90557D01*
X386117Y89220D01*
X385005Y87691D01*
X384148Y86007D01*
X383563Y84210D01*
X383268Y82343D01*
Y80453D01*
X383563Y78586D01*
X383832Y77760D01*
X383428Y77386D01*
X383010Y77559D01*
X382148D01*
X381352Y77229D01*
X380743Y76620D01*
X380413Y75824D01*
Y74963D01*
X380743Y74167D01*
X381352Y73558D01*
X382148Y73228D01*
X383010D01*
X383805Y73558D01*
X384414Y74167D01*
X384652Y74740D01*
X385206Y74828D01*
X386117Y73575D01*
X387453Y72238D01*
X388982Y71128D01*
X390666Y70270D01*
X392464Y69685D01*
X393761Y69480D01*
X393935Y68946D01*
X393839Y68850D01*
X393510Y68055D01*
Y67193D01*
X393839Y66397D01*
X394448Y65788D01*
X395244Y65459D01*
X396106D01*
X396901Y65788D01*
X397511Y66397D01*
X397840Y67193D01*
Y68055D01*
X397511Y68850D01*
X397306Y69055D01*
X397479Y69589D01*
X398087Y69685D01*
X399885Y70270D01*
X401569Y71128D01*
X403098Y72238D01*
X404435Y73575D01*
X405546Y75104D01*
X406404Y76788D01*
X406988Y78586D01*
X407283Y80453D01*
Y82343D01*
X406988Y84210D01*
X406404Y86007D01*
X405546Y87691D01*
X404644Y88932D01*
X404899Y89432D01*
X404971D01*
X405767Y89762D01*
X406376Y90371D01*
X406706Y91167D01*
Y92028D01*
X406376Y92824D01*
X405767Y93433D01*
X404971Y93763D01*
X404929D01*
X403813Y94880D01*
X403227Y95271D01*
X402536Y95409D01*
X384181D01*
X383490Y95271D01*
X382904Y94880D01*
X378709Y90684D01*
X330825D01*
X330807Y90711D01*
Y91572D01*
X330477Y92368D01*
X329868Y92977D01*
X329072Y93307D01*
X328211D01*
X327415Y92977D01*
X326806Y92368D01*
X326476Y91572D01*
Y90711D01*
X326459Y90684D01*
X324919D01*
X324902Y90711D01*
Y91572D01*
X324572Y92368D01*
X323963Y92977D01*
X323167Y93307D01*
X322305D01*
X321510Y92977D01*
X320901Y92368D01*
X320571Y91572D01*
Y90711D01*
X320553Y90684D01*
X295567D01*
X285943Y100309D01*
X285357Y100701D01*
X284665Y100838D01*
X227346D01*
Y101550D01*
X227016Y102346D01*
X226407Y102955D01*
X225611Y103285D01*
X224749D01*
X223954Y102955D01*
X223344Y102346D01*
X223015Y101550D01*
Y100838D01*
X122993D01*
X120276Y103555D01*
Y103596D01*
X119947Y104392D01*
X119337Y105001D01*
X118542Y105331D01*
D02*
G37*
G36*
X175461Y93303D02*
X174638D01*
X173879Y92989D01*
X173297Y92407D01*
X172983Y91647D01*
Y90825D01*
X173297Y90066D01*
X173879Y89484D01*
X174638Y89170D01*
X175461D01*
X176220Y89484D01*
X176802Y90066D01*
X177117Y90825D01*
Y91647D01*
X176802Y92407D01*
X176220Y92989D01*
X175461Y93303D01*
D02*
G37*
G36*
X225611Y93482D02*
X224749D01*
X223954Y93152D01*
X223344Y92543D01*
X223015Y91747D01*
Y90886D01*
X223344Y90090D01*
X223954Y89481D01*
X224749Y89151D01*
X225611D01*
X226407Y89481D01*
X227016Y90090D01*
X227346Y90886D01*
Y91747D01*
X227016Y92543D01*
X226407Y93152D01*
X225611Y93482D01*
D02*
G37*
G36*
X118246Y88779D02*
X117384D01*
X116588Y88450D01*
X115979Y87841D01*
X115650Y87045D01*
Y86184D01*
X115979Y85388D01*
X116588Y84778D01*
X117384Y84449D01*
X118246D01*
X119042Y84778D01*
X119651Y85388D01*
X119980Y86184D01*
Y87045D01*
X119651Y87841D01*
X119042Y88450D01*
X118246Y88779D01*
D02*
G37*
G36*
X225611Y88324D02*
X224749D01*
X223954Y87994D01*
X223344Y87385D01*
X223015Y86589D01*
Y85728D01*
X223344Y84932D01*
X223954Y84323D01*
X224749Y83993D01*
X225611D01*
X226407Y84323D01*
X227016Y84932D01*
X227346Y85728D01*
Y86589D01*
X227016Y87385D01*
X226407Y87994D01*
X225611Y88324D01*
D02*
G37*
G36*
X240331Y84646D02*
X239502D01*
X238701Y84431D01*
X237983Y84017D01*
X237456Y83490D01*
X236929Y84017D01*
X236211Y84431D01*
X235410Y84646D01*
X234581D01*
X233780Y84431D01*
X233062Y84017D01*
X232475Y83430D01*
X232061Y82712D01*
X231846Y81911D01*
Y81081D01*
X232061Y80281D01*
X232475Y79562D01*
X233002Y79036D01*
X232475Y78509D01*
X232061Y77791D01*
X231846Y76990D01*
Y76160D01*
X231998Y75591D01*
X231684Y75091D01*
X227474D01*
X227140Y75591D01*
X227287Y75945D01*
Y76806D01*
X226957Y77602D01*
X226348Y78211D01*
X225552Y78541D01*
X224690D01*
X223895Y78211D01*
X223285Y77602D01*
X222956Y76806D01*
Y75945D01*
X223102Y75591D01*
X222768Y75091D01*
X189790D01*
X189469Y75591D01*
X189665Y76065D01*
Y76888D01*
X189351Y77647D01*
X188769Y78229D01*
X188010Y78543D01*
X187187D01*
X186428Y78229D01*
X185846Y77647D01*
X185531Y76888D01*
Y76065D01*
X185728Y75591D01*
X185407Y75091D01*
X181303D01*
X176718Y79676D01*
X176458Y80305D01*
X175877Y80886D01*
X176082Y81380D01*
Y82203D01*
X175767Y82962D01*
X175186Y83544D01*
X174426Y83858D01*
X173604D01*
X172844Y83544D01*
X172263Y82962D01*
X171948Y82203D01*
Y81380D01*
X172263Y80620D01*
X172844Y80040D01*
X172639Y79545D01*
Y78723D01*
X172953Y77963D01*
X173535Y77382D01*
X174164Y77121D01*
X179277Y72008D01*
X179863Y71616D01*
X180555Y71478D01*
X223015D01*
Y70886D01*
X223344Y70090D01*
X223954Y69481D01*
X224749Y69151D01*
X225611D01*
X226407Y69481D01*
X227016Y70090D01*
X227346Y70886D01*
Y71478D01*
X237637D01*
X243360Y65756D01*
X243172Y65256D01*
X242376Y64926D01*
X241767Y64317D01*
X241437Y63521D01*
Y62660D01*
X241767Y61864D01*
X242376Y61255D01*
X243172Y60925D01*
X244033D01*
X244829Y61255D01*
X245438Y61864D01*
X245596Y62244D01*
X246137D01*
X246294Y61864D01*
X246903Y61255D01*
X247699Y60925D01*
X248561D01*
X249357Y61255D01*
X249966Y61864D01*
X250078Y62134D01*
X250568Y62232D01*
X253152Y59648D01*
X253704Y59279D01*
X253709Y59243D01*
X253413Y58779D01*
X226503D01*
X217790Y67491D01*
X217204Y67883D01*
X216513Y68020D01*
X166932D01*
X165059Y69894D01*
Y69935D01*
X164729Y70731D01*
X164120Y71340D01*
X163324Y71670D01*
X162463D01*
X161667Y71340D01*
X161058Y70731D01*
X160728Y69935D01*
Y69074D01*
X161058Y68278D01*
X161667Y67669D01*
X162463Y67339D01*
X162504D01*
X164907Y64937D01*
X165493Y64545D01*
X166184Y64408D01*
X183534D01*
X183760Y64070D01*
Y63420D01*
X148008D01*
X147978Y63450D01*
X147183Y63779D01*
X146321D01*
X145525Y63450D01*
X144916Y62841D01*
X144587Y62045D01*
Y61184D01*
X144916Y60388D01*
X145525Y59778D01*
X146321Y59449D01*
X147183D01*
X147978Y59778D01*
X148008Y59808D01*
X175875D01*
X175880Y59802D01*
X176029Y59308D01*
X175526Y58806D01*
X175197Y58010D01*
Y57148D01*
X175526Y56352D01*
X176136Y55743D01*
X176932Y55414D01*
X177793D01*
X178589Y55743D01*
X179198Y56352D01*
X179528Y57148D01*
Y58010D01*
X179198Y58806D01*
X178696Y59308D01*
X178845Y59802D01*
X178849Y59808D01*
X183561D01*
X189642Y53727D01*
X190228Y53335D01*
X190919Y53198D01*
X241474D01*
X241752Y52782D01*
X241634Y52498D01*
Y51636D01*
X241964Y50840D01*
X242573Y50231D01*
X242791Y50141D01*
X242691Y49641D01*
X189075D01*
X188383Y49503D01*
X187797Y49112D01*
X177662Y38976D01*
X177620D01*
X176825Y38647D01*
X176216Y38038D01*
X175886Y37242D01*
Y36380D01*
X176216Y35585D01*
X176620Y35180D01*
X176413Y34680D01*
X175423D01*
X175197Y35018D01*
Y35879D01*
X174867Y36675D01*
X174258Y37284D01*
X173462Y37614D01*
X172601D01*
X171805Y37284D01*
X171196Y36675D01*
X170866Y35879D01*
Y35018D01*
X170641Y34680D01*
X60508D01*
X60479Y34710D01*
X59683Y35039D01*
X58821D01*
X58025Y34710D01*
X57416Y34101D01*
X57087Y33305D01*
Y32443D01*
X57416Y31647D01*
X58025Y31038D01*
X58821Y30709D01*
X59683D01*
X60479Y31038D01*
X60508Y31068D01*
X111506D01*
X111711Y30568D01*
X111418Y29860D01*
Y29661D01*
X104405D01*
X104376Y29690D01*
X103580Y30020D01*
X102719D01*
X101923Y29690D01*
X101314Y29081D01*
X100984Y28285D01*
Y27424D01*
X101314Y26628D01*
X101923Y26019D01*
X102719Y25689D01*
X103580D01*
X104376Y26019D01*
X104405Y26048D01*
X110769D01*
X111239Y25577D01*
X111826Y25186D01*
X112517Y25048D01*
X166776D01*
X166892Y25000D01*
X167754D01*
X168549Y25330D01*
X168579Y25359D01*
X225417D01*
X225447Y25330D01*
X226242Y25000D01*
X227104D01*
X227900Y25330D01*
X228509Y25939D01*
X228839Y26735D01*
Y27596D01*
X228509Y28392D01*
X227900Y29001D01*
X227104Y29331D01*
X226242D01*
X225447Y29001D01*
X225417Y28972D01*
X216828D01*
X216550Y29388D01*
X216634Y29589D01*
Y30450D01*
X216550Y30652D01*
X216828Y31068D01*
X281540D01*
X281731Y30606D01*
X273404Y22279D01*
X162500D01*
X161809Y22141D01*
X161223Y21750D01*
X160638Y21165D01*
X125272D01*
X125242Y21194D01*
X124446Y21524D01*
X123585D01*
X122789Y21194D01*
X122180Y20585D01*
X121850Y19789D01*
Y18928D01*
X122180Y18132D01*
X122789Y17523D01*
X122848Y17498D01*
X122749Y16998D01*
X118912D01*
Y7845D01*
X128065D01*
Y16998D01*
X125875D01*
X125638Y17498D01*
X125682Y17552D01*
X160728D01*
Y16794D01*
X160503Y16456D01*
X149099D01*
X148407Y16319D01*
X147821Y15927D01*
X146461Y14567D01*
X146420D01*
X145624Y14237D01*
X145015Y13628D01*
X144685Y12832D01*
Y11971D01*
X145015Y11175D01*
X145624Y10566D01*
X146420Y10236D01*
X147281D01*
X148077Y10566D01*
X148686Y11175D01*
X149016Y11971D01*
Y12012D01*
X149847Y12843D01*
X176405D01*
X176739Y12343D01*
X176575Y11947D01*
Y11085D01*
X176904Y10289D01*
X177514Y9680D01*
X178309Y9350D01*
X179171D01*
X179967Y9680D01*
X179996Y9709D01*
X272990D01*
X273681Y9847D01*
X274267Y10238D01*
X274951Y10922D01*
X275404Y11012D01*
X275990Y11404D01*
X282126Y17539D01*
X360839D01*
X366975Y11404D01*
X367561Y11012D01*
X368252Y10875D01*
X401992D01*
X402684Y11012D01*
X403270Y11404D01*
X406590Y14724D01*
X406632D01*
X407427Y15054D01*
X408037Y15663D01*
X408366Y16459D01*
Y17321D01*
X408037Y18116D01*
X407427Y18725D01*
X406632Y19055D01*
X405770D01*
X404974Y18725D01*
X404365Y18116D01*
X404035Y17321D01*
Y17279D01*
X401244Y14488D01*
X386582D01*
X386375Y14988D01*
X386777Y15390D01*
X387106Y16185D01*
Y17047D01*
X386777Y17843D01*
X386386Y18233D01*
X386593Y18733D01*
X400764D01*
X401455Y18871D01*
X402042Y19262D01*
X404722Y21943D01*
X405114Y22529D01*
X405251Y23220D01*
Y34248D01*
X405114Y34939D01*
X404722Y35525D01*
X404035Y36213D01*
X404155Y36622D01*
X404222Y36713D01*
X419291D01*
Y62008D01*
X388343D01*
X388324Y62500D01*
X389120Y62830D01*
X389729Y63439D01*
X390059Y64235D01*
Y65096D01*
X389729Y65892D01*
X389120Y66501D01*
X388324Y66831D01*
X387463D01*
X386667Y66501D01*
X386638Y66472D01*
X345918D01*
X345227Y66334D01*
X344640Y65943D01*
X341512Y62814D01*
X337391D01*
Y65302D01*
X337891Y65402D01*
X337931Y65306D01*
X338540Y64697D01*
X339336Y64367D01*
X340197D01*
X340993Y64697D01*
X341602Y65306D01*
X341932Y66102D01*
Y66963D01*
X341602Y67759D01*
X340993Y68368D01*
X340197Y68698D01*
X339336D01*
X338540Y68368D01*
X337931Y67759D01*
X337891Y67664D01*
X337391Y67763D01*
Y67815D01*
X326083D01*
Y72146D01*
X305118D01*
Y62814D01*
X303763D01*
X303590Y63073D01*
Y63896D01*
X303276Y64655D01*
X302694Y65237D01*
X301935Y65551D01*
X301112D01*
X300353Y65237D01*
X299771Y64655D01*
X299464Y63913D01*
X299383Y63929D01*
X297305D01*
X297206Y64429D01*
X297824Y64685D01*
X298406Y65266D01*
X298721Y66026D01*
Y66848D01*
X298406Y67608D01*
X297824Y68189D01*
X297065Y68504D01*
X296242D01*
X295483Y68189D01*
X294901Y67608D01*
X294587Y66848D01*
Y66026D01*
X294901Y65266D01*
X295483Y64685D01*
X296101Y64429D01*
X296002Y63929D01*
X276414D01*
X276207Y64429D01*
X276497Y64719D01*
X276826Y65514D01*
Y66376D01*
X276497Y67172D01*
X275887Y67781D01*
X275092Y68110D01*
X274230D01*
X273434Y67781D01*
X272825Y67172D01*
X272496Y66376D01*
Y65514D01*
X272825Y64719D01*
X273186Y64357D01*
X273022Y63815D01*
X272903Y63791D01*
X272317Y63399D01*
X271649Y62732D01*
X262598D01*
Y63324D01*
X262332Y63969D01*
X262528Y64374D01*
X262624Y64469D01*
X263128D01*
X263924Y64798D01*
X264533Y65408D01*
X264862Y66203D01*
Y67065D01*
X264533Y67861D01*
X263924Y68470D01*
X263128Y68799D01*
X262266D01*
X261470Y68470D01*
X260861Y67861D01*
X260532Y67065D01*
Y66203D01*
X260798Y65559D01*
X260602Y65154D01*
X260506Y65059D01*
X260002D01*
X259207Y64729D01*
X258597Y64120D01*
X258268Y63324D01*
Y62732D01*
X255177D01*
X249998Y67911D01*
X249412Y68303D01*
X249318Y68831D01*
X249409Y69172D01*
Y70001D01*
X249194Y70802D01*
X248780Y71521D01*
X248193Y72107D01*
X247475Y72522D01*
X246674Y72736D01*
X245845D01*
X245044Y72522D01*
X244325Y72107D01*
X243739Y71521D01*
X243566Y71220D01*
X243070Y71155D01*
X241060Y73165D01*
X241233Y73698D01*
X241851Y74055D01*
X242437Y74641D01*
X242852Y75359D01*
X243066Y76160D01*
Y76990D01*
X242852Y77791D01*
X242437Y78509D01*
X241910Y79036D01*
X242437Y79562D01*
X242852Y80281D01*
X243066Y81081D01*
Y81911D01*
X242852Y82712D01*
X242437Y83430D01*
X241851Y84017D01*
X241132Y84431D01*
X240331Y84646D01*
D02*
G37*
G36*
X425628Y87106D02*
X424766D01*
X423970Y86777D01*
X423361Y86168D01*
X423032Y85372D01*
Y84510D01*
X423361Y83714D01*
X423970Y83105D01*
X424766Y82776D01*
X425628D01*
X426423Y83105D01*
X427033Y83714D01*
X427362Y84510D01*
Y85372D01*
X427033Y86168D01*
X426423Y86777D01*
X425628Y87106D01*
D02*
G37*
G36*
X373210Y84547D02*
X372349D01*
X371553Y84217D01*
X370944Y83608D01*
X370614Y82812D01*
Y81951D01*
X370944Y81155D01*
X371553Y80546D01*
X372349Y80216D01*
X373210D01*
X374006Y80546D01*
X374615Y81155D01*
X374945Y81951D01*
Y82812D01*
X374615Y83608D01*
X374006Y84217D01*
X373210Y84547D01*
D02*
G37*
G36*
X328635Y78051D02*
X327773D01*
X326978Y77722D01*
X326368Y77113D01*
X326039Y76317D01*
Y75455D01*
X326368Y74659D01*
X326978Y74050D01*
X327773Y73721D01*
X328635D01*
X329431Y74050D01*
X330040Y74659D01*
X330369Y75455D01*
Y76317D01*
X330040Y77113D01*
X329431Y77722D01*
X328635Y78051D01*
D02*
G37*
G36*
X307080D02*
X306218D01*
X305422Y77722D01*
X304813Y77113D01*
X304484Y76317D01*
Y75455D01*
X304813Y74659D01*
X305422Y74050D01*
X306218Y73721D01*
X307080D01*
X307876Y74050D01*
X308485Y74659D01*
X308814Y75455D01*
Y76317D01*
X308485Y77113D01*
X307876Y77722D01*
X307080Y78051D01*
D02*
G37*
G36*
X374498Y76764D02*
X373675D01*
X372916Y76449D01*
X372334Y75868D01*
X372020Y75108D01*
Y74286D01*
X372334Y73526D01*
X372916Y72945D01*
X373675Y72630D01*
X374498D01*
X374736Y72729D01*
X374811Y72550D01*
X375392Y71968D01*
X376152Y71653D01*
X376974D01*
X377734Y71968D01*
X378315Y72550D01*
X378630Y73309D01*
Y74132D01*
X378315Y74891D01*
X377734Y75473D01*
X376974Y75787D01*
X376152D01*
X375913Y75688D01*
X375839Y75868D01*
X375257Y76449D01*
X374498Y76764D01*
D02*
G37*
G36*
X108584Y71260D02*
X107723D01*
X106927Y70930D01*
X106799Y70802D01*
X31768D01*
X31139Y71063D01*
X30278D01*
X29482Y70733D01*
X28873Y70124D01*
X28543Y69328D01*
Y68467D01*
X28873Y67671D01*
X29482Y67062D01*
X30278Y66732D01*
X31139D01*
X31935Y67062D01*
X32063Y67190D01*
X107094D01*
X107723Y66929D01*
X108584D01*
X109380Y67259D01*
X109989Y67868D01*
X110319Y68664D01*
Y69525D01*
X109989Y70321D01*
X109380Y70930D01*
X108584Y71260D01*
D02*
G37*
G36*
X20706Y74114D02*
X19845D01*
X19049Y73785D01*
X18440Y73175D01*
X18110Y72379D01*
Y71518D01*
X18440Y70722D01*
X19049Y70113D01*
X19845Y69784D01*
X20706D01*
X21502Y70113D01*
X22111Y70722D01*
X22441Y71518D01*
Y72379D01*
X22111Y73175D01*
X21502Y73785D01*
X20706Y74114D01*
D02*
G37*
G36*
X528216Y74809D02*
X526898D01*
X525625Y74468D01*
X524483Y73809D01*
X523551Y72877D01*
X522892Y71736D01*
X522551Y70462D01*
Y69144D01*
X522892Y67871D01*
X523551Y66729D01*
X524483Y65797D01*
X525625Y65138D01*
X526898Y64797D01*
X528216D01*
X529489Y65138D01*
X530631Y65797D01*
X531563Y66729D01*
X532222Y67871D01*
X532563Y69144D01*
Y70462D01*
X532222Y71736D01*
X531563Y72877D01*
X530631Y73809D01*
X529489Y74468D01*
X528216Y74809D01*
D02*
G37*
G36*
X238423Y68209D02*
X237561D01*
X236766Y67879D01*
X236156Y67270D01*
X235827Y66474D01*
Y65613D01*
X236156Y64817D01*
X236766Y64208D01*
X237561Y63878D01*
X238423D01*
X239219Y64208D01*
X239828Y64817D01*
X240158Y65613D01*
Y66474D01*
X239828Y67270D01*
X239219Y67879D01*
X238423Y68209D01*
D02*
G37*
G36*
X128065Y66227D02*
X118912D01*
Y57074D01*
X128065D01*
Y66227D01*
D02*
G37*
G36*
X113134Y60273D02*
X112273D01*
X111477Y59943D01*
X110868Y59334D01*
X110538Y58539D01*
Y57677D01*
X110868Y56881D01*
X111477Y56272D01*
X112273Y55942D01*
X113134D01*
X113930Y56272D01*
X114060Y56402D01*
X114226Y56235D01*
X115022Y55905D01*
X115884D01*
X116679Y56235D01*
X117288Y56844D01*
X117618Y57640D01*
Y58502D01*
X117288Y59298D01*
X116679Y59907D01*
X115884Y60236D01*
X115022D01*
X114226Y59907D01*
X114097Y59777D01*
X113930Y59943D01*
X113134Y60273D01*
D02*
G37*
G36*
X110962Y53740D02*
X110101D01*
X109305Y53411D01*
X108696Y52801D01*
X108366Y52005D01*
Y51144D01*
X108696Y50348D01*
X109305Y49739D01*
X110101Y49409D01*
X110962D01*
X111758Y49739D01*
X112367Y50348D01*
X112697Y51144D01*
Y52005D01*
X112367Y52801D01*
X111758Y53411D01*
X110962Y53740D01*
D02*
G37*
G36*
X164899Y53346D02*
X164038D01*
X163242Y53017D01*
X162633Y52408D01*
X162303Y51612D01*
Y50750D01*
X162633Y49955D01*
X163242Y49345D01*
X164038Y49016D01*
X164899D01*
X165695Y49345D01*
X166304Y49955D01*
X166634Y50750D01*
Y51612D01*
X166304Y52408D01*
X165695Y53017D01*
X164899Y53346D01*
D02*
G37*
G36*
X528216Y58510D02*
X526898D01*
X525625Y58169D01*
X524483Y57510D01*
X523551Y56578D01*
X522892Y55436D01*
X522551Y54163D01*
Y52845D01*
X522892Y51572D01*
X523551Y50430D01*
X524483Y49498D01*
X525625Y48839D01*
X526898Y48498D01*
X528216D01*
X529489Y48839D01*
X530631Y49498D01*
X531563Y50430D01*
X532222Y51572D01*
X532563Y52845D01*
Y54163D01*
X532222Y55436D01*
X531563Y56578D01*
X530631Y57510D01*
X529489Y58169D01*
X528216Y58510D01*
D02*
G37*
G36*
X114946Y49409D02*
X114084D01*
X113288Y49080D01*
X112679Y48471D01*
X112350Y47675D01*
Y46813D01*
X112679Y46018D01*
X113077Y45620D01*
X112974Y45517D01*
X112645Y44721D01*
Y43860D01*
X112419Y43522D01*
X111430D01*
X109678Y45273D01*
X109092Y45665D01*
X108401Y45802D01*
X96651D01*
X96373Y46218D01*
X96457Y46420D01*
Y47281D01*
X96127Y48077D01*
X95518Y48686D01*
X94722Y49016D01*
X93861D01*
X93065Y48686D01*
X92456Y48077D01*
X92126Y47281D01*
Y46420D01*
X92210Y46218D01*
X91932Y45802D01*
X65035D01*
X65006Y45832D01*
X64210Y46161D01*
X63349D01*
X62553Y45832D01*
X61944Y45223D01*
X61614Y44427D01*
Y43565D01*
X61944Y42770D01*
X62553Y42160D01*
X63349Y41831D01*
X64210D01*
X65006Y42160D01*
X65035Y42190D01*
X107653D01*
X109404Y40438D01*
X109990Y40047D01*
X110681Y39909D01*
X155303D01*
X155994Y40047D01*
X156580Y40438D01*
X159523Y43381D01*
X159565D01*
X160360Y43711D01*
X160969Y44320D01*
X161299Y45116D01*
Y45977D01*
X160969Y46773D01*
X160360Y47382D01*
X159565Y47712D01*
X158703D01*
X157907Y47382D01*
X157298Y46773D01*
X156968Y45977D01*
Y45936D01*
X154554Y43522D01*
X117201D01*
X116975Y43860D01*
Y44721D01*
X116646Y45517D01*
X116248Y45915D01*
X116351Y46018D01*
X116680Y46813D01*
Y47675D01*
X116351Y48471D01*
X115742Y49080D01*
X114946Y49409D01*
D02*
G37*
G36*
X43639Y43996D02*
X42778D01*
X41982Y43666D01*
X41373Y43057D01*
X41043Y42261D01*
Y41400D01*
X41373Y40604D01*
X41982Y39995D01*
X42778Y39665D01*
X43639D01*
X44435Y39995D01*
X45044Y40604D01*
X45374Y41400D01*
Y42261D01*
X45044Y43057D01*
X44435Y43666D01*
X43639Y43996D01*
D02*
G37*
G36*
X159683Y40846D02*
X158821D01*
X158025Y40517D01*
X157416Y39908D01*
X157087Y39112D01*
Y38250D01*
X157416Y37455D01*
X158025Y36845D01*
X158821Y36516D01*
X159683D01*
X160478Y36845D01*
X161088Y37455D01*
X161417Y38250D01*
Y39112D01*
X161088Y39908D01*
X160478Y40517D01*
X159683Y40846D01*
D02*
G37*
G36*
X425653Y26172D02*
X424791D01*
X423995Y25842D01*
X423386Y25233D01*
X423056Y24438D01*
Y23576D01*
X423386Y22780D01*
X423995Y22171D01*
X424791Y21841D01*
X425653D01*
X426448Y22171D01*
X427058Y22780D01*
X427387Y23576D01*
Y24438D01*
X427058Y25233D01*
X426448Y25842D01*
X425653Y26172D01*
D02*
G37*
G36*
X441612Y16142D02*
X440750D01*
X439954Y15812D01*
X439345Y15203D01*
X439016Y14407D01*
Y13546D01*
X439345Y12750D01*
X439954Y12141D01*
X440750Y11811D01*
X441612D01*
X442408Y12141D01*
X443017Y12750D01*
X443346Y13546D01*
Y14407D01*
X443017Y15203D01*
X442408Y15812D01*
X441612Y16142D01*
D02*
G37*
G36*
X528216Y18510D02*
X526898D01*
X525625Y18169D01*
X524483Y17510D01*
X523551Y16578D01*
X522892Y15436D01*
X522551Y14163D01*
Y12845D01*
X522892Y11572D01*
X523551Y10430D01*
X524483Y9498D01*
X525625Y8839D01*
X526898Y8498D01*
X528216D01*
X529489Y8839D01*
X530631Y9498D01*
X531563Y10430D01*
X532222Y11572D01*
X532563Y12845D01*
Y14163D01*
X532222Y15436D01*
X531563Y16578D01*
X530631Y17510D01*
X529489Y18169D01*
X528216Y18510D01*
D02*
G37*
G36*
X474272Y61654D02*
X442913Y61654D01*
X442913Y30807D01*
X448095Y25626D01*
X447711Y25242D01*
X447382Y24446D01*
Y23585D01*
X447711Y22789D01*
X448320Y22180D01*
X449116Y21850D01*
X449978D01*
X450774Y22180D01*
X451157Y22563D01*
X460623Y13098D01*
X482551D01*
Y12845D01*
X482892Y11572D01*
X483551Y10430D01*
X484483Y9498D01*
X485625Y8839D01*
X486898Y8498D01*
X488216D01*
X489489Y8839D01*
X490631Y9498D01*
X491563Y10430D01*
X492222Y11572D01*
X492563Y12845D01*
Y13098D01*
X513839D01*
X514173Y13432D01*
Y53543D01*
X492563D01*
Y54163D01*
X492222Y55436D01*
X491563Y56578D01*
X490631Y57510D01*
X489489Y58169D01*
X488216Y58510D01*
X486898D01*
X485625Y58169D01*
X484483Y57510D01*
X483551Y56578D01*
X482892Y55436D01*
X482551Y54163D01*
Y54081D01*
X482051Y53874D01*
X474272Y61654D01*
D02*
G37*
G36*
X367193Y10548D02*
X366332D01*
X365536Y10218D01*
X364927Y9609D01*
X364597Y8813D01*
Y7951D01*
X364927Y7156D01*
X365536Y6546D01*
X366332Y6217D01*
X367193D01*
X367989Y6546D01*
X368598Y7156D01*
X368928Y7951D01*
Y8813D01*
X368598Y9609D01*
X367989Y10218D01*
X367193Y10548D01*
D02*
G37*
%LPD*%
G36*
X178291Y280767D02*
X178877Y280376D01*
X179569Y280238D01*
X223015D01*
Y279645D01*
X222810Y279339D01*
X173429D01*
X165180Y287588D01*
X165351Y288088D01*
X170971D01*
X178291Y280767D01*
D02*
G37*
G36*
X283597Y271658D02*
X283406Y271196D01*
X183578D01*
X183300Y271612D01*
X183448Y271968D01*
Y272830D01*
X183118Y273626D01*
X182509Y274235D01*
X181713Y274565D01*
X180852D01*
X180056Y274235D01*
X179447Y273626D01*
X179117Y272830D01*
Y271969D01*
X178794Y271443D01*
X178561Y271423D01*
X174719Y275265D01*
X174911Y275727D01*
X231032D01*
X231257Y275389D01*
Y274528D01*
X231587Y273732D01*
X232196Y273123D01*
X232992Y272793D01*
X233854D01*
X234649Y273123D01*
X235259Y273732D01*
X235588Y274528D01*
Y275389D01*
X235814Y275727D01*
X279529D01*
X283597Y271658D01*
D02*
G37*
G36*
X365979Y254400D02*
X365899Y254001D01*
X365290Y253392D01*
X364961Y252596D01*
Y251735D01*
X365290Y250939D01*
X365320Y250910D01*
Y239228D01*
X365457Y238537D01*
X365849Y237951D01*
X374991Y228808D01*
X374800Y228346D01*
X371605D01*
X371413Y228808D01*
X371459Y228854D01*
X371788Y229649D01*
Y230511D01*
X371459Y231307D01*
X370849Y231916D01*
X370054Y232246D01*
X369192D01*
X368396Y231916D01*
X368367Y231887D01*
X368110D01*
X367419Y231749D01*
X366833Y231358D01*
X366436Y231648D01*
X366344Y231785D01*
X366535Y232246D01*
Y233108D01*
X366206Y233904D01*
X365597Y234513D01*
X364801Y234842D01*
X363939D01*
X363143Y234513D01*
X362534Y233904D01*
X362504Y233830D01*
X362004D01*
X361974Y233904D01*
X361364Y234513D01*
X360568Y234842D01*
X359707D01*
X358911Y234513D01*
X358358Y233959D01*
X358071Y233929D01*
X357784Y233959D01*
X357230Y234513D01*
X356435Y234842D01*
X355573D01*
X354777Y234513D01*
X354168Y233904D01*
X354109Y233761D01*
X353568D01*
X353509Y233904D01*
X352900Y234513D01*
X352104Y234842D01*
X351242D01*
X350447Y234513D01*
X349893Y233959D01*
X349606Y233929D01*
X349319Y233959D01*
X348766Y234513D01*
X347970Y234842D01*
X347109D01*
X346313Y234513D01*
X345704Y233904D01*
X345374Y233108D01*
Y232246D01*
X345403Y232175D01*
X345362Y232097D01*
X345026Y231780D01*
X344488Y231887D01*
X336368D01*
Y237451D01*
X325345D01*
Y241781D01*
X304868D01*
Y231887D01*
X285289D01*
X276529Y240647D01*
X275942Y241039D01*
X275251Y241176D01*
X206024D01*
X180078Y267122D01*
X180270Y267584D01*
X347071D01*
X347100Y267554D01*
X347896Y267225D01*
X348758D01*
X349553Y267554D01*
X350163Y268163D01*
X350492Y268959D01*
Y269179D01*
X350992Y269386D01*
X365979Y254400D01*
D02*
G37*
G36*
X283716Y212242D02*
Y211381D01*
X284046Y210585D01*
X284237Y210393D01*
X284030Y209893D01*
X247508D01*
X247489Y209937D01*
X247355Y210393D01*
X247660Y210922D01*
X247835Y211573D01*
Y212246D01*
X248090Y212580D01*
X283490D01*
X283716Y212242D01*
D02*
G37*
G36*
X290678Y205317D02*
X291264Y204926D01*
X291955Y204788D01*
X304868D01*
Y201123D01*
X257107D01*
X256660Y201571D01*
X256851Y202032D01*
X284148D01*
X284839Y202170D01*
X285425Y202561D01*
X286210Y203347D01*
X286465D01*
X287261Y203676D01*
X287870Y204286D01*
X288200Y205081D01*
Y205943D01*
X288425Y206280D01*
X289715D01*
X290678Y205317D01*
D02*
G37*
G36*
X366634Y204450D02*
Y203589D01*
X366964Y202793D01*
X367573Y202184D01*
X368369Y201854D01*
X369230D01*
X370026Y202184D01*
X370055Y202213D01*
X371835D01*
X373429Y200619D01*
X373238Y200157D01*
X325345D01*
Y203986D01*
X336368D01*
Y204788D01*
X366408D01*
X366634Y204450D01*
D02*
G37*
%LPC*%
G36*
X329072Y259055D02*
X328211D01*
X327415Y258726D01*
X326806Y258116D01*
X326476Y257320D01*
Y256459D01*
X326806Y255663D01*
X327415Y255054D01*
X328211Y254724D01*
X329072D01*
X329868Y255054D01*
X330477Y255663D01*
X330807Y256459D01*
Y257320D01*
X330477Y258116D01*
X329868Y258726D01*
X329072Y259055D01*
D02*
G37*
G36*
X323167D02*
X322305D01*
X321510Y258726D01*
X320901Y258116D01*
X320571Y257320D01*
Y256459D01*
X320901Y255663D01*
X321510Y255054D01*
X322305Y254724D01*
X323167D01*
X323963Y255054D01*
X324572Y255663D01*
X324902Y256459D01*
Y257320D01*
X324572Y258116D01*
X323963Y258726D01*
X323167Y259055D01*
D02*
G37*
G36*
X240332Y254626D02*
X239503D01*
X238702Y254412D01*
X237984Y253997D01*
X237457Y253470D01*
X236930Y253997D01*
X236211Y254412D01*
X235410Y254626D01*
X234581D01*
X233780Y254412D01*
X233062Y253997D01*
X232475Y253411D01*
X232061Y252693D01*
X231846Y251891D01*
Y251062D01*
X232061Y250261D01*
X232475Y249543D01*
X233002Y249016D01*
X232475Y248489D01*
X232061Y247771D01*
X231846Y246970D01*
Y246141D01*
X232061Y245340D01*
X232475Y244622D01*
X233062Y244035D01*
X233780Y243621D01*
X234581Y243406D01*
X235410D01*
X236211Y243621D01*
X236930Y244035D01*
X237456Y244562D01*
X237984Y244035D01*
X238702Y243620D01*
X239503Y243406D01*
X240332D01*
X241133Y243620D01*
X241851Y244035D01*
X242438Y244621D01*
X242852Y245340D01*
X243067Y246141D01*
Y246970D01*
X242852Y247771D01*
X242438Y248489D01*
X241911Y249016D01*
X242438Y249543D01*
X242852Y250261D01*
X243067Y251062D01*
Y251891D01*
X242852Y252693D01*
X242438Y253411D01*
X241851Y253997D01*
X241133Y254412D01*
X240332Y254626D01*
D02*
G37*
G36*
X329072Y253937D02*
X328211D01*
X327415Y253607D01*
X326806Y252998D01*
X326476Y252202D01*
Y251341D01*
X326806Y250545D01*
X327415Y249936D01*
X328211Y249606D01*
X329072D01*
X329868Y249936D01*
X330477Y250545D01*
X330807Y251341D01*
Y252202D01*
X330477Y252998D01*
X329868Y253607D01*
X329072Y253937D01*
D02*
G37*
G36*
X323167D02*
X322305D01*
X321510Y253607D01*
X320901Y252998D01*
X320571Y252202D01*
Y251341D01*
X320901Y250545D01*
X321510Y249936D01*
X322305Y249606D01*
X323167D01*
X323963Y249936D01*
X324572Y250545D01*
X324902Y251341D01*
Y252202D01*
X324572Y252998D01*
X323963Y253607D01*
X323167Y253937D01*
D02*
G37*
G36*
X327862Y248419D02*
X327000D01*
X326205Y248090D01*
X325595Y247481D01*
X325266Y246685D01*
Y245823D01*
X325595Y245027D01*
X326205Y244418D01*
X327000Y244089D01*
X327862D01*
X328658Y244418D01*
X329267Y245027D01*
X329596Y245823D01*
Y246685D01*
X329267Y247481D01*
X328658Y248090D01*
X327862Y248419D01*
D02*
G37*
G36*
X298068Y245571D02*
X297207D01*
X296411Y245241D01*
X295802Y244632D01*
X295472Y243836D01*
Y242975D01*
X295802Y242179D01*
X296411Y241570D01*
X297207Y241240D01*
X298068D01*
X298864Y241570D01*
X299474Y242179D01*
X299803Y242975D01*
Y243836D01*
X299474Y244632D01*
X298864Y245241D01*
X298068Y245571D01*
D02*
G37*
G36*
X340195Y239075D02*
X339333D01*
X338537Y238745D01*
X337928Y238136D01*
X337598Y237340D01*
Y236479D01*
X337928Y235683D01*
X338537Y235074D01*
X339333Y234744D01*
X340195D01*
X340990Y235074D01*
X341599Y235683D01*
X341929Y236479D01*
Y237340D01*
X341599Y238136D01*
X340990Y238745D01*
X340195Y239075D01*
D02*
G37*
G36*
X289986Y240899D02*
X289164D01*
X288404Y240584D01*
X287823Y240002D01*
X287508Y239243D01*
Y238421D01*
X287823Y237661D01*
X287930Y237553D01*
X287814Y237437D01*
X287500Y236677D01*
Y235855D01*
X287814Y235095D01*
X288396Y234514D01*
X289156Y234199D01*
X289978D01*
X290738Y234514D01*
X291319Y235095D01*
X291634Y235855D01*
Y236677D01*
X291319Y237437D01*
X291211Y237545D01*
X291327Y237661D01*
X291642Y238421D01*
Y239243D01*
X291327Y240002D01*
X290746Y240584D01*
X289986Y240899D01*
D02*
G37*
%LPD*%
G36*
X287597Y172249D02*
X287406Y171787D01*
X236132D01*
X236127Y171794D01*
X235979Y172287D01*
X236481Y172789D01*
X236811Y173585D01*
Y174446D01*
X237037Y174784D01*
X285062D01*
X287597Y172249D01*
D02*
G37*
G36*
X223720Y175313D02*
X224306Y174922D01*
X224997Y174784D01*
X232255D01*
X232480Y174446D01*
Y173585D01*
X232810Y172789D01*
X233313Y172287D01*
X233164Y171794D01*
X233159Y171787D01*
X174830D01*
X174730Y172287D01*
X175423Y172574D01*
X176033Y173183D01*
X176362Y173979D01*
Y174840D01*
X176062Y175565D01*
X176257Y176065D01*
X222969D01*
X223720Y175313D01*
D02*
G37*
G36*
X305173Y151889D02*
Y145218D01*
X298401D01*
X296302Y147316D01*
X296634Y147648D01*
X296949Y148408D01*
Y149230D01*
X296634Y149990D01*
X296414Y150209D01*
X296428Y150223D01*
X296743Y150983D01*
Y151805D01*
X296428Y152565D01*
X295847Y153146D01*
X295087Y153461D01*
X294265D01*
X293505Y153146D01*
X292924Y152565D01*
X292609Y151805D01*
Y151663D01*
X292147Y151472D01*
X287896Y155722D01*
X287213Y156179D01*
X286406Y156340D01*
X241623D01*
X241579Y156407D01*
X241736Y157075D01*
X241993Y157224D01*
X242579Y157810D01*
X242994Y158528D01*
X243209Y159329D01*
Y160159D01*
X242994Y160960D01*
X242579Y161678D01*
X241993Y162264D01*
X241990Y162284D01*
X242438Y162732D01*
X242852Y163450D01*
X243067Y164251D01*
Y165080D01*
X242852Y165881D01*
X242438Y166599D01*
X241851Y167186D01*
X241133Y167601D01*
X240859Y167674D01*
X240925Y168174D01*
X288888D01*
X305173Y151889D01*
D02*
G37*
G36*
X387225Y112190D02*
X387159Y111621D01*
X386550Y111012D01*
X386221Y110216D01*
Y110189D01*
X385759Y109997D01*
X379207Y116549D01*
X378621Y116941D01*
X377930Y117078D01*
X325984D01*
Y119650D01*
X367051D01*
X367081Y119621D01*
X367877Y119291D01*
X368738D01*
X369534Y119621D01*
X370143Y120230D01*
X370473Y121026D01*
Y121887D01*
X370471Y121892D01*
X370748Y122308D01*
X377106D01*
X387225Y112190D01*
D02*
G37*
G36*
X246459Y120179D02*
X247045Y119788D01*
X247736Y119650D01*
X305173D01*
Y117078D01*
X242136D01*
X241969Y117578D01*
X242438Y118046D01*
X242852Y118765D01*
X243067Y119566D01*
Y120395D01*
X242852Y121196D01*
X242438Y121914D01*
X241911Y122441D01*
X242438Y122968D01*
X242630Y123301D01*
X243255Y123383D01*
X246459Y120179D01*
D02*
G37*
G36*
X222900Y57272D02*
X222709Y56810D01*
X191667D01*
X187073Y61405D01*
X187152Y61804D01*
X187761Y62413D01*
X188091Y63209D01*
Y64070D01*
X188316Y64408D01*
X215765D01*
X222900Y57272D01*
D02*
G37*
G36*
X305118Y46231D02*
Y40488D01*
X299351D01*
X299114Y40842D01*
Y41664D01*
X298799Y42424D01*
X298218Y43005D01*
X297458Y43320D01*
X296636D01*
X295876Y43005D01*
X295295Y42424D01*
X294980Y41664D01*
Y40842D01*
X294743Y40488D01*
X286990D01*
X286713Y40903D01*
X286755Y41006D01*
Y41868D01*
X286426Y42663D01*
X285817Y43273D01*
X285021Y43602D01*
X284159D01*
X283363Y43273D01*
X282754Y42663D01*
X282425Y41868D01*
Y41570D01*
X280174D01*
X279545Y41831D01*
X278723D01*
X277963Y41516D01*
X277382Y40935D01*
X277067Y40175D01*
Y39353D01*
X277382Y38593D01*
X277963Y38012D01*
X278723Y37697D01*
X279545D01*
X280174Y37957D01*
X281874D01*
X282427Y37404D01*
X283013Y37012D01*
X283704Y36875D01*
X284055D01*
X284247Y36413D01*
X284199Y36365D01*
X283869Y35569D01*
Y35527D01*
X283022Y34680D01*
X242553D01*
X242346Y35180D01*
X242437Y35271D01*
X242852Y35989D01*
X243066Y36790D01*
Y37620D01*
X242852Y38421D01*
X242437Y39139D01*
X241910Y39665D01*
X242437Y40192D01*
X242852Y40910D01*
X243066Y41712D01*
Y42541D01*
X242852Y43342D01*
X242437Y44060D01*
X241851Y44646D01*
X241132Y45061D01*
X240331Y45276D01*
X239502D01*
X238701Y45061D01*
X237983Y44646D01*
X237456Y44120D01*
X236929Y44646D01*
X236211Y45061D01*
X235410Y45276D01*
X234581D01*
X233780Y45061D01*
X233062Y44646D01*
X232475Y44060D01*
X232061Y43342D01*
X231846Y42541D01*
Y41712D01*
X232061Y40910D01*
X232475Y40192D01*
X233002Y39665D01*
X232475Y39139D01*
X232061Y38421D01*
X231846Y37620D01*
Y36790D01*
X232061Y35989D01*
X232475Y35271D01*
X232566Y35180D01*
X232359Y34680D01*
X179690D01*
X179483Y35180D01*
X179887Y35585D01*
X180217Y36380D01*
Y36422D01*
X189823Y46028D01*
X301697D01*
X301726Y45999D01*
X302522Y45669D01*
X303383D01*
X304179Y45999D01*
X304618Y46438D01*
X305118Y46231D01*
D02*
G37*
G36*
X212387Y30652D02*
X212303Y30450D01*
Y29589D01*
X212387Y29388D01*
X212109Y28972D01*
X168579D01*
X168549Y29001D01*
X167754Y29331D01*
X166892D01*
X166096Y29001D01*
X165756Y28661D01*
X115974D01*
X115749Y28999D01*
Y29860D01*
X115455Y30568D01*
X115661Y31068D01*
X212109D01*
X212387Y30652D01*
D02*
G37*
G36*
X370930Y27772D02*
X370773Y27290D01*
X370187Y27048D01*
X369606Y26466D01*
X369291Y25706D01*
Y24884D01*
X369606Y24125D01*
X370187Y23543D01*
X370947Y23228D01*
X371769D01*
X372529Y23543D01*
X373111Y24125D01*
X373353Y24710D01*
X373887Y24883D01*
X379508Y19262D01*
X379673Y19152D01*
X379722Y18655D01*
X379518Y18451D01*
X379188Y17655D01*
Y16794D01*
X378963Y16456D01*
X369816D01*
X363680Y22592D01*
X363094Y22983D01*
X362403Y23121D01*
X327212D01*
X326878Y23621D01*
X327067Y24077D01*
Y24939D01*
X327053Y24972D01*
X327436Y25355D01*
X327817Y25197D01*
X328679D01*
X329475Y25526D01*
X330084Y26136D01*
X330413Y26932D01*
Y27570D01*
X367051D01*
X367081Y27541D01*
X367877Y27211D01*
X368738D01*
X369534Y27541D01*
X370028Y28035D01*
X370599Y28128D01*
X370930Y27772D01*
D02*
G37*
G36*
X399028Y36213D02*
X398721Y35470D01*
Y34609D01*
X399050Y33813D01*
X399659Y33204D01*
X400455Y32874D01*
X401316D01*
X401639Y32659D01*
Y23968D01*
X400795Y23125D01*
X400295Y23332D01*
Y23856D01*
X399966Y24652D01*
X399357Y25261D01*
X398561Y25591D01*
X397699D01*
X396903Y25261D01*
X396294Y24652D01*
X395965Y23856D01*
Y22995D01*
X396061Y22761D01*
X395783Y22346D01*
X394432D01*
X394154Y22761D01*
X394291Y23093D01*
Y23954D01*
X393962Y24750D01*
X393353Y25359D01*
X392557Y25689D01*
X391695D01*
X391013Y25407D01*
X390919Y25437D01*
X390677Y25586D01*
X390551Y25715D01*
Y26415D01*
X390222Y27211D01*
X389613Y27820D01*
X388817Y28150D01*
X388775D01*
X380674Y36251D01*
X380866Y36713D01*
X398844D01*
X399028Y36213D01*
D02*
G37*
G36*
X319094Y26833D02*
X319424Y26037D01*
X320033Y25428D01*
X320829Y25098D01*
X321691D01*
X322379Y25384D01*
X322702Y25153D01*
X322783Y25051D01*
X322736Y24939D01*
Y24077D01*
X322925Y23621D01*
X322591Y23121D01*
X282793D01*
X282601Y23583D01*
X286589Y27570D01*
X319094D01*
Y26833D01*
D02*
G37*
D16*
X-35531Y154528D02*
X-35433Y154429D01*
X69685D01*
X69784Y154331D01*
D20*
X-0Y288252D02*
X134Y287233D01*
X527Y286283D01*
X1153Y285468D01*
X1969Y284842D01*
X2918Y284449D01*
X3937Y284315D01*
X-27795Y298095D02*
X-27661Y297076D01*
X-27268Y296126D01*
X-26642Y295311D01*
X-25827Y294685D01*
X-24877Y294292D01*
X-23858Y294158D01*
X-27795Y300457D02*
X-28256Y301570D01*
X-29370Y302031D01*
X-38740Y284315D02*
X-37721Y284449D01*
X-36771Y284842D01*
X-35956Y285468D01*
X-35330Y286283D01*
X-34937Y287233D01*
X-34803Y288252D01*
X-37953Y185791D02*
X-36970Y185895D01*
X-36031Y186200D01*
X-35176Y186694D01*
X-34442Y187355D01*
X-33861Y188154D01*
X-33460Y189056D01*
X-33254Y190022D01*
Y191010D01*
X-33460Y191976D01*
X-33861Y192878D01*
X-34442Y193677D01*
X-35176Y194338D01*
X-36031Y194832D01*
X-36970Y195137D01*
X-37953Y195240D01*
X-34803Y105378D02*
X-34937Y106397D01*
X-35330Y107346D01*
X-35956Y108162D01*
X-36771Y108788D01*
X-37721Y109181D01*
X-38740Y109315D01*
X-29370Y91598D02*
X-28256Y92060D01*
X-27795Y93173D01*
X-23858Y99472D02*
X-24877Y99338D01*
X-25827Y98945D01*
X-26642Y98319D01*
X-27268Y97504D01*
X-27661Y96554D01*
X-27795Y95535D01*
X3937Y109315D02*
X2918Y109181D01*
X1969Y108788D01*
X1153Y108162D01*
X527Y107346D01*
X134Y106397D01*
X-0Y105378D01*
X3937Y284315D02*
X14670D01*
X-0Y288252D02*
Y294157D01*
X-23858D02*
X-0D01*
X-27795Y298094D02*
Y300457D01*
X-34803Y302031D02*
X-29370D01*
X-34803Y288252D02*
Y302031D01*
X-55357Y284315D02*
X-38740D01*
X-58425D02*
X-55357D01*
X-58425Y195240D02*
Y284315D01*
Y195240D02*
X-55357D01*
X-37953D01*
X-55357Y185791D02*
X-37953D01*
X-58425D02*
X-55357D01*
X-58425Y109315D02*
Y185791D01*
Y109315D02*
X-55357D01*
X-38740D01*
X-34803Y91598D02*
Y105378D01*
Y91598D02*
X-29370D01*
X-27795Y93173D02*
Y95535D01*
X-23858Y99472D02*
X-0D01*
Y105378D01*
X3937Y109315D02*
X14670D01*
D86*
X436122Y217618D02*
D03*
X424409Y217224D02*
D03*
X340846Y295965D02*
D03*
X109153Y121850D02*
D03*
X274803Y9154D02*
D03*
X28346Y16634D02*
D03*
X263189Y297244D02*
D03*
X283465Y343012D02*
D03*
X191240Y386122D02*
D03*
X9527Y329882D02*
D03*
X-29410Y134488D02*
D03*
X523320Y347352D02*
D03*
Y341446D02*
D03*
X510630Y302323D02*
D03*
Y296417D02*
D03*
X486221Y379331D02*
D03*
Y373425D02*
D03*
X408740Y343937D02*
D03*
X400748D02*
D03*
X417520Y343976D02*
D03*
X31220Y294291D02*
D03*
X38976Y113091D02*
D03*
X-22520Y184843D02*
D03*
X-17677Y198465D02*
D03*
D90*
X118701Y201870D02*
X118733D01*
X121292Y199311D01*
X395177Y200197D02*
X434449D01*
X452854Y181791D01*
X104429Y160335D02*
X166455D01*
X167147Y161027D01*
X229120D01*
X235914Y154232D01*
X286406D01*
X297528Y143110D01*
X344488D01*
X366915D01*
X368110Y141916D01*
X375450Y134576D01*
X440088D01*
X456103Y118561D01*
Y118169D02*
Y118561D01*
X188626Y201454D02*
X253795D01*
X256234Y199016D02*
X321457D01*
X121292Y199311D02*
X186483D01*
X188626Y201454D01*
X253795D02*
X256234Y199016D01*
D91*
X396312Y155451D02*
Y155825D01*
X396420Y155933D01*
X375468Y198350D02*
X396420Y177399D01*
X396312Y155451D02*
X396420Y155343D01*
Y155933D02*
Y177399D01*
X400886Y35039D02*
X402654D01*
X403445Y34248D01*
Y23220D02*
Y34248D01*
X248720Y66634D02*
X254429Y60925D01*
X245036Y66634D02*
X248720D01*
X254429Y60925D02*
X272397D01*
X238385Y73285D02*
X245036Y66634D01*
X372229Y109733D02*
Y110166D01*
X370866Y111528D02*
Y111688D01*
Y111528D02*
X372229Y110166D01*
Y109733D02*
X375691Y106271D01*
X294819Y88878D02*
X379457D01*
X384181Y93602D02*
X402536D01*
X379457Y88878D02*
X384181Y93602D01*
X9645Y216256D02*
X11729Y218340D01*
X-31921Y216256D02*
X9645D01*
X380786Y20539D02*
X400764D01*
X403445Y23220D01*
X369374Y31951D02*
X380786Y20539D01*
X283704Y38681D02*
X344488D01*
X368110D02*
X375689D01*
X344488D02*
X368110D01*
X375689D02*
X388386Y25984D01*
X282622Y39764D02*
X283704Y38681D01*
X279134Y39764D02*
X282622D01*
X241338Y127855D02*
X247736Y121457D01*
X377660Y61747D02*
X379467Y59940D01*
X366876Y61747D02*
X377660D01*
X345918Y64665D02*
X387894D01*
X342261Y61008D02*
X345918Y64665D01*
X285841Y29377D02*
X368307D01*
X379322Y106271D02*
X382935Y102657D01*
X300510Y56640D02*
X344488D01*
X367587D02*
X368110Y57164D01*
X344488Y56640D02*
X367587D01*
X247736Y121457D02*
X368307D01*
X368110Y57164D02*
X369374Y58427D01*
X285631Y31951D02*
X369374D01*
X216513Y66214D02*
X225754Y56973D01*
X298058D01*
X166184Y66214D02*
X216513D01*
X272397Y60925D02*
X273594Y62122D01*
X162500Y20472D02*
X274152D01*
X178051Y36811D02*
X189075Y47835D01*
X302953D01*
X300498Y61008D02*
X342261D01*
X273594Y62122D02*
X299383D01*
X300498Y61008D01*
X-22441Y173736D02*
X-22433Y173728D01*
X53043D01*
X53051Y173721D01*
X377854Y124114D02*
X389567Y112402D01*
X368110Y124114D02*
X377854D01*
X344488D02*
X368110D01*
X247863D02*
X344488D01*
X242154Y129823D02*
X247863Y124114D01*
X114863Y129823D02*
X242154D01*
X99311Y145375D02*
X114863Y129823D01*
X99311Y145375D02*
Y171653D01*
X145768Y114370D02*
X164667D01*
X165569Y115272D01*
X377930D01*
X385991Y107211D01*
X389453D01*
X391038Y108797D01*
Y110251D01*
X391189Y110402D01*
X374705Y110759D02*
X379659D01*
X385175Y105243D01*
X391644D01*
X392503Y106102D01*
X392717D01*
X118111Y103165D02*
X122245Y99032D01*
X284665D01*
X294819Y88878D01*
X402536Y93602D02*
X404540Y91598D01*
X174706Y79134D02*
X180555Y73285D01*
X238385D01*
X162894Y69505D02*
X166184Y66214D01*
X365267Y60138D02*
X366876Y61747D01*
X379467Y59940D02*
X379680D01*
X146752Y61614D02*
X184309D01*
X-32382Y213681D02*
X3371D01*
X4454Y212598D01*
X40256D01*
X124016Y19358D02*
X161386D01*
X162500Y20472D01*
X274152D02*
X285631Y31951D01*
X162894Y17225D02*
X273689D01*
X285841Y29377D01*
X146850Y12402D02*
X149099Y14650D01*
X273898D01*
X280562Y21314D02*
X362403D01*
X273898Y14650D02*
X280562Y21314D01*
X362403D02*
X369068Y14650D01*
X382975D01*
X384941Y16616D01*
X178740Y11516D02*
X272990D01*
X274155Y12681D01*
X274713D01*
X281378Y19346D01*
X361588D01*
X368252Y12681D01*
X401992D01*
X406201Y16890D01*
X426181Y329806D02*
X452264Y303724D01*
Y274902D02*
Y303724D01*
X430383Y211153D02*
Y253021D01*
X452264Y274902D01*
X103150Y27854D02*
X111517D01*
X112517Y26855D01*
X166799D01*
X167110Y27165D01*
X226673D01*
X411516Y221654D02*
X421457Y231594D01*
Y272244D01*
X59252Y32874D02*
X283770D01*
X286034Y35138D01*
X63779Y43996D02*
X108401D01*
X110681Y41716D01*
X155303D01*
X159134Y45547D01*
X30709Y68898D02*
X30807Y68996D01*
X108055D01*
X108153Y69095D01*
X-886Y164319D02*
X-811Y164394D01*
X63311D01*
X63386Y164469D01*
X104134Y152282D02*
X106826Y149590D01*
X150238D01*
X153688Y153040D01*
X-35433Y204823D02*
X57366D01*
X58842Y206299D01*
X59055D01*
X94095Y245472D02*
X107300D01*
X108382Y246555D01*
X151504D01*
X152412Y247463D01*
X157038D01*
X11729Y218340D02*
X57972D01*
X94095Y248819D02*
X122244D01*
X122539Y248524D01*
X150689D01*
X157185Y255020D01*
X-35335Y223622D02*
X-35236Y223721D01*
X56398D01*
X56496Y223819D01*
X104232Y223803D02*
X110223Y229793D01*
X159549D01*
X163851Y225492D01*
X226547D01*
X235405Y216634D01*
X243892D01*
X246140Y214386D01*
X286948D01*
X292574Y208760D01*
X344488D01*
X368110D01*
X383268D01*
X-20768Y226295D02*
X-18110Y228953D01*
X67535D01*
X69685Y231102D01*
X108366Y195866D02*
X223373D01*
X224123Y196616D01*
X322258D01*
X323993Y198350D01*
X375468D01*
X-21047Y236138D02*
X-16831Y240354D01*
X66551D01*
X-30807Y248902D02*
X50393D01*
X51460Y247835D01*
X51673D01*
X113019Y109153D02*
X162235D01*
X165863Y112781D01*
X277475D01*
X277559Y112697D01*
X-32959Y251220D02*
X-32809Y251371D01*
X-31979D01*
X-31874Y251476D01*
X13064D01*
X13163Y251378D01*
X58465D01*
X-35531Y253740D02*
X-32382Y256890D01*
X-7953D01*
X132480Y217671D02*
X207630D01*
X218536Y206765D01*
X226248D01*
X229174Y203839D01*
X284148D01*
X285821Y205512D01*
X286034D01*
X-37598Y256693D02*
X-34827Y259465D01*
X-5440D01*
X-4873Y258898D01*
X-4660D01*
X-4843Y275236D02*
X9602Y289680D01*
X39281D01*
X107874Y289764D02*
X108005Y289894D01*
X171719D01*
X179569Y282045D01*
X278550D01*
X286661Y273933D01*
X351784D01*
X389559Y236158D01*
Y235288D02*
Y236158D01*
Y235288D02*
X389709Y235138D01*
X162894Y177871D02*
X223717D01*
X224997Y176591D01*
X285810D01*
X307282Y155118D01*
X369937D01*
X379680Y145374D01*
X173327Y187106D02*
X204927D01*
X210874Y181159D01*
X284025D01*
X308098Y157087D01*
X371609D01*
X381747Y146949D01*
X389961D01*
X177221Y154137D02*
X189775Y141583D01*
X282182D01*
X294699Y129067D01*
X162894Y287320D02*
X172680Y277533D01*
X280277D01*
X285846Y271965D01*
X350968D01*
X379680Y243252D01*
Y230315D02*
Y243252D01*
X145965Y279379D02*
X165266D01*
X205276Y239370D01*
X275251D01*
X284541Y230080D01*
X344488D01*
X368110D01*
X369623D01*
X162894Y232874D02*
X240523D01*
X252433Y220965D01*
X340470D01*
X344031Y217404D01*
X378265D01*
X392240Y203429D01*
Y189977D02*
Y203429D01*
X390633Y188370D02*
X392240Y189977D01*
X388233Y188370D02*
X390633D01*
X372583Y204020D02*
X388233Y188370D01*
X368799Y204020D02*
X372583D01*
X166929Y110206D02*
X166964Y110172D01*
X194749D01*
X194783Y110138D01*
X367126Y239228D02*
Y252166D01*
Y239228D02*
X378614Y227740D01*
X392284D01*
X389469Y240650D02*
X392284Y237834D01*
Y227740D02*
Y237834D01*
X403232Y227740D02*
X403346Y227854D01*
X392284Y227740D02*
X403232D01*
X146306Y223658D02*
X146440Y223524D01*
X225731D01*
X234589Y214666D01*
X241141D01*
X242913Y212893D01*
Y210931D02*
Y212893D01*
Y210931D02*
X245758Y208087D01*
X290463D01*
X291955Y206594D01*
X377362D01*
X389665Y194291D01*
X371476Y195315D02*
X388824Y177968D01*
Y176191D02*
Y177968D01*
Y176191D02*
X388937Y176078D01*
X374803Y159055D02*
X383169Y167421D01*
X388976D01*
X377588Y158337D02*
X383534D01*
X391582Y166385D01*
Y166975D01*
X391732Y167126D01*
X295177Y217028D02*
X298917Y213287D01*
X246282Y217028D02*
X295177D01*
X243821Y219489D02*
X246282Y217028D01*
X238118Y219489D02*
X243821D01*
X230146Y227461D02*
X238118Y219489D01*
X164666Y227461D02*
X230146D01*
X160319Y231808D02*
X164666Y227461D01*
X160319Y231808D02*
Y238122D01*
X177220Y255023D01*
X146361Y169980D02*
X289636D01*
X309619Y149997D01*
X364893D01*
X369928Y144962D01*
Y143851D02*
Y144962D01*
Y143851D02*
X370079Y143701D01*
X162894Y122540D02*
X168209Y127855D01*
X241338D01*
X115551Y270472D02*
X133416D01*
X144898Y281954D01*
X165475D01*
X178040Y269390D01*
X348327D01*
X-4882Y267618D02*
X51617D01*
X53409Y269410D01*
X53622D01*
X374443Y195874D02*
X391451Y178866D01*
Y176190D02*
Y178866D01*
X413976Y287402D02*
X422047D01*
X437402Y272047D01*
X343488Y59039D02*
X344587Y60138D01*
X365267D01*
X375691Y106271D02*
X379322D01*
X300125Y59039D02*
X343488D01*
X298058Y56973D02*
X300125Y59039D01*
X369374Y58427D02*
X369587D01*
X298874Y55004D02*
X300510Y56640D01*
X184309Y61614D02*
X190919Y55004D01*
X298874D01*
X50984Y125000D02*
X51295Y125311D01*
D93*
X541890Y305709D02*
D03*
Y355709D02*
D03*
Y374016D02*
D03*
Y324016D02*
D03*
D98*
X457579Y306102D02*
D03*
X477461D02*
D03*
X465748D02*
D03*
X355862Y244488D02*
D03*
X360192D02*
D03*
X-31921Y216256D02*
D03*
X368110Y21063D02*
D03*
X314665Y24114D02*
D03*
X347594Y159547D02*
D03*
X327559Y118504D02*
D03*
X302953Y47835D02*
D03*
X368307Y121457D02*
D03*
X395177Y200197D02*
D03*
X421457Y272244D02*
D03*
X411516Y221654D02*
D03*
X379680Y59940D02*
D03*
X430383Y211153D02*
D03*
X383268Y208760D02*
D03*
X413976Y287402D02*
D03*
X437402Y272047D02*
D03*
X452264Y274902D02*
D03*
X368799Y204020D02*
D03*
X388976Y167421D02*
D03*
X391732Y167126D02*
D03*
X389961Y146949D02*
D03*
X391189Y110402D02*
D03*
X382935Y102657D02*
D03*
X392717Y106102D02*
D03*
X400886Y35039D02*
D03*
X388386Y25984D02*
D03*
X103150Y27854D02*
D03*
X339665Y204626D02*
D03*
X297835Y112266D02*
D03*
X258957Y315059D02*
D03*
X256004D02*
D03*
X259350Y323721D02*
D03*
X256398D02*
D03*
X265945Y362106D02*
D03*
X249114D02*
D03*
Y359154D02*
D03*
X265945D02*
D03*
X173327Y187106D02*
D03*
X403346Y227854D02*
D03*
X194783Y110138D02*
D03*
X166929Y110206D02*
D03*
X432455Y87411D02*
D03*
X389469Y240650D02*
D03*
X389709Y235138D02*
D03*
X387894Y64665D02*
D03*
X447342Y342323D02*
D03*
X437106Y360236D02*
D03*
X146850Y12402D02*
D03*
X146752Y61614D02*
D03*
X153347Y122441D02*
D03*
X145768Y114370D02*
D03*
X153688Y153040D02*
D03*
X146361Y169980D02*
D03*
X146306Y223658D02*
D03*
X145965Y279379D02*
D03*
X409842Y78543D02*
D03*
X115551Y270472D02*
D03*
X104429Y160335D02*
D03*
X32579Y209646D02*
D03*
X1181Y196752D02*
D03*
X398917Y145965D02*
D03*
X178740Y11516D02*
D03*
X94095Y245472D02*
D03*
X371260Y175394D02*
D03*
X374213D02*
D03*
X371260Y177953D02*
D03*
X374213D02*
D03*
X389665Y194291D02*
D03*
X389567Y112402D02*
D03*
X370079Y143701D02*
D03*
X371260Y173031D02*
D03*
X374213D02*
D03*
X379680Y145374D02*
D03*
X417126Y136840D02*
D03*
X410354Y140059D02*
D03*
X414587Y140059D02*
D03*
X396161Y155118D02*
D03*
X406201Y16890D02*
D03*
X410315Y18150D02*
D03*
X414646Y18268D02*
D03*
X418130Y13976D02*
D03*
X400886Y24035D02*
D03*
X384941Y16616D02*
D03*
X368307Y29377D02*
D03*
X369587Y58427D02*
D03*
X375689Y90847D02*
D03*
X378642D02*
D03*
X372736D02*
D03*
Y93209D02*
D03*
X375689D02*
D03*
X378642D02*
D03*
X404540Y91598D02*
D03*
X416240Y74705D02*
D03*
X321457Y199016D02*
D03*
X281594Y45472D02*
D03*
X284055Y133169D02*
D03*
X277559Y112697D02*
D03*
X351728Y244488D02*
D03*
X364326D02*
D03*
X351728Y159547D02*
D03*
X355862D02*
D03*
X364326D02*
D03*
X360192D02*
D03*
X351728Y74114D02*
D03*
X347496D02*
D03*
X355862D02*
D03*
X364327D02*
D03*
X360193D02*
D03*
X361767Y7721D02*
D03*
X358814D02*
D03*
X355862D02*
D03*
X352909D02*
D03*
X349956D02*
D03*
X361811Y93110D02*
D03*
X358858D02*
D03*
X355906D02*
D03*
X352953D02*
D03*
X350000D02*
D03*
X209252Y345079D02*
D03*
X132874Y153445D02*
D03*
X58366Y133957D02*
D03*
X178740Y30020D02*
D03*
X-5413Y262894D02*
D03*
X166240Y173622D02*
D03*
X48228Y102067D02*
D03*
X336122Y74606D02*
D03*
X268602Y138779D02*
D03*
X118701Y90748D02*
D03*
X63090Y103445D02*
D03*
X-9154Y176969D02*
D03*
X19587Y152461D02*
D03*
X36319Y225984D02*
D03*
X37106Y234744D02*
D03*
X17717Y232776D02*
D03*
X13976Y269882D02*
D03*
X98622Y271063D02*
D03*
X53622Y269410D02*
D03*
X329626Y202953D02*
D03*
X232480Y325098D02*
D03*
X168307Y86417D02*
D03*
X95965Y97933D02*
D03*
X86614Y114862D02*
D03*
X68012Y247441D02*
D03*
X414468Y259646D02*
D03*
X268307Y63386D02*
D03*
X231693Y61811D02*
D03*
X254134Y83957D02*
D03*
X269094Y230709D02*
D03*
X231791Y288189D02*
D03*
X462500Y341929D02*
D03*
X154921Y263090D02*
D03*
X29429Y245571D02*
D03*
X60039Y211811D02*
D03*
X-98Y208169D02*
D03*
X31791Y169193D02*
D03*
X146457Y16339D02*
D03*
X305315Y203248D02*
D03*
X367126Y252166D02*
D03*
X350536Y17377D02*
D03*
X353292D02*
D03*
X358016D02*
D03*
X360772D02*
D03*
X360728Y102854D02*
D03*
X357972D02*
D03*
X353248D02*
D03*
X350492D02*
D03*
X361811Y190453D02*
D03*
Y187894D02*
D03*
X358858Y190453D02*
D03*
Y187894D02*
D03*
X350000Y178051D02*
D03*
X352953D02*
D03*
X355906D02*
D03*
X358858D02*
D03*
X361811D02*
D03*
X-4660Y258898D02*
D03*
X-37598Y256693D02*
D03*
X59252Y32874D02*
D03*
X-32382Y213681D02*
D03*
X40256Y212598D02*
D03*
X124016Y19358D02*
D03*
X118111Y103165D02*
D03*
X51673Y247835D02*
D03*
X63386Y164469D02*
D03*
X113019Y109153D02*
D03*
X30709Y68898D02*
D03*
X108153Y69095D02*
D03*
X63779Y43996D02*
D03*
X-886Y164319D02*
D03*
X104134Y152282D02*
D03*
X-20768Y226295D02*
D03*
X69685Y231102D02*
D03*
X108366Y195866D02*
D03*
X53051Y173721D02*
D03*
X99311Y171653D02*
D03*
X-22441Y173736D02*
D03*
X56496Y223819D02*
D03*
X104232Y223803D02*
D03*
X69784Y154331D02*
D03*
X-35531Y154528D02*
D03*
X58465Y251378D02*
D03*
X-32959Y251220D02*
D03*
X132480Y217671D02*
D03*
X267913Y210138D02*
D03*
X66551Y240354D02*
D03*
X-21047Y236138D02*
D03*
X57972Y218340D02*
D03*
X94095Y248819D02*
D03*
X157185Y255020D02*
D03*
X39281Y289680D02*
D03*
X107874Y289764D02*
D03*
X59055Y206299D02*
D03*
X-35433Y204823D02*
D03*
X348327Y269390D02*
D03*
X118701Y201870D02*
D03*
X50984Y125000D02*
D03*
X159134Y45547D02*
D03*
X167323Y27165D02*
D03*
X226673D02*
D03*
X-35531Y253740D02*
D03*
X-30807Y248902D02*
D03*
X-35335Y223622D02*
D03*
X-4882Y267618D02*
D03*
X426181Y329806D02*
D03*
X432455Y149261D02*
D03*
X432480Y26476D02*
D03*
X286034Y205512D02*
D03*
Y35138D02*
D03*
X178051Y36811D02*
D03*
X162894Y122540D02*
D03*
X162894Y177871D02*
D03*
X177221Y154137D02*
D03*
X162894Y17225D02*
D03*
X156988Y69882D02*
D03*
X162894Y69505D02*
D03*
X162894Y232874D02*
D03*
X177220Y255023D02*
D03*
X153642Y286516D02*
D03*
X162894Y287320D02*
D03*
X369623Y230080D02*
D03*
X379680Y230315D02*
D03*
X-40354Y116496D02*
D03*
Y132244D02*
D03*
Y141811D02*
D03*
Y280236D02*
D03*
Y251890D02*
D03*
Y239252D02*
D03*
Y233071D02*
D03*
Y226693D02*
D03*
Y220551D02*
D03*
Y214173D02*
D03*
X27244Y186063D02*
D03*
X35709Y182047D02*
D03*
X-40354Y163858D02*
D03*
Y183189D02*
D03*
Y245669D02*
D03*
Y176339D02*
D03*
Y170079D02*
D03*
Y201575D02*
D03*
Y258307D02*
D03*
Y207874D02*
D03*
Y157441D02*
D03*
Y151024D02*
D03*
Y277087D02*
D03*
Y270748D02*
D03*
Y264528D02*
D03*
X-4843Y275236D02*
D03*
X-7953Y256890D02*
D03*
D99*
X279134Y39764D02*
D03*
X377588Y158337D02*
D03*
X298917Y213287D02*
D03*
X294699Y129067D02*
D03*
X374705Y110759D02*
D03*
X370866Y111688D02*
D03*
X391451Y176190D02*
D03*
X374443Y195874D02*
D03*
X371476Y195315D02*
D03*
X388937Y176078D02*
D03*
X374803Y159055D02*
D03*
X157038Y247463D02*
D03*
X174706Y79134D02*
D03*
D100*
X195276Y307087D02*
D03*
X452854Y181791D02*
D03*
Y119941D02*
D03*
X456103Y118169D02*
D03*
X405413Y234390D02*
D03*
Y253583D02*
D03*
X402165Y251516D02*
D03*
X405413Y249744D02*
D03*
X402165Y247677D02*
D03*
X405413Y245905D02*
D03*
X402165Y243839D02*
D03*
X405413Y242067D02*
D03*
X402165Y240000D02*
D03*
X405413Y238228D02*
D03*
X402165Y236161D02*
D03*
X268110Y103543D02*
D03*
X245768Y173425D02*
D03*
X111909Y21850D02*
D03*
X190354Y23720D02*
D03*
X197933Y90650D02*
D03*
X188287Y69784D02*
D03*
X203839Y59350D02*
D03*
X219488Y51181D02*
D03*
X207677Y187697D02*
D03*
X282087Y108366D02*
D03*
X253150Y118701D02*
D03*
X254528Y163779D02*
D03*
X197441Y173327D02*
D03*
X264862Y273228D02*
D03*
X173130Y282972D02*
D03*
X267520Y148031D02*
D03*
X17421Y91240D02*
D03*
X241732Y189567D02*
D03*
X246457Y22835D02*
D03*
X226083Y7185D02*
D03*
X221555Y237008D02*
D03*
X220965Y164173D02*
D03*
X219193Y122638D02*
D03*
X183465Y106988D02*
D03*
X153839Y176870D02*
D03*
X163976Y315453D02*
D03*
X191535Y314961D02*
D03*
X199508Y330118D02*
D03*
X68504Y260827D02*
D03*
X67224Y164075D02*
D03*
X102362Y166535D02*
D03*
X68110Y51378D02*
D03*
X66732Y58268D02*
D03*
X100591Y58268D02*
D03*
X143799Y93405D02*
D03*
X108169Y140748D02*
D03*
X107579Y174213D02*
D03*
X156791Y145965D02*
D03*
X76378Y293996D02*
D03*
X127461Y250886D02*
D03*
X70965Y24311D02*
D03*
X75295Y87500D02*
D03*
X103642Y215354D02*
D03*
X157579Y214272D02*
D03*
X63976Y317717D02*
D03*
X157874Y318406D02*
D03*
X196260Y237205D02*
D03*
X220177Y250000D02*
D03*
X221457Y137697D02*
D03*
X87008Y39370D02*
D03*
X98524Y203839D02*
D03*
X74606Y193898D02*
D03*
X85236Y139272D02*
D03*
X131496Y179232D02*
D03*
X131299Y72933D02*
D03*
X195965Y209154D02*
D03*
X195965Y122342D02*
D03*
X195965Y39567D02*
D03*
X168110Y35531D02*
D03*
X145156Y44554D02*
D03*
D101*
X426772Y300886D02*
D03*
X425984Y308563D02*
D03*
M02*
