G04*
G04 #@! TF.GenerationSoftware,Altium Limited,Altium Designer,22.9.1 (49)*
G04*
G04 Layer_Color=65280*
%FSLAX25Y25*%
%MOIN*%
G70*
G04*
G04 #@! TF.SameCoordinates,F2BEA512-F08D-4B97-9B6D-B9E427450466*
G04*
G04*
G04 #@! TF.FilePolarity,Positive*
G04*
G01*
G75*
%ADD10C,0.00394*%
%ADD11C,0.01000*%
%ADD12C,0.00984*%
%ADD16C,0.00787*%
%ADD17C,0.00591*%
%ADD20C,0.00100*%
%ADD114C,0.00500*%
%ADD115C,0.02362*%
D10*
X480709Y328346D02*
X480549Y329305D01*
X480086Y330160D01*
X479371Y330818D01*
X478481Y331209D01*
X477512Y331289D01*
X476570Y331050D01*
X475756Y330519D01*
X475159Y329752D01*
X474844Y328832D01*
Y327860D01*
X475159Y326941D01*
X475756Y326174D01*
X476570Y325642D01*
X477512Y325404D01*
X478481Y325484D01*
X479371Y325874D01*
X480086Y326533D01*
X480549Y327388D01*
X480709Y328346D01*
X490236Y333189D02*
X490076Y334148D01*
X489614Y335003D01*
X488899Y335661D01*
X488008Y336051D01*
X487040Y336132D01*
X486097Y335893D01*
X485284Y335361D01*
X484687Y334594D01*
X484371Y333675D01*
Y332703D01*
X484687Y331784D01*
X485284Y331017D01*
X486097Y330485D01*
X487040Y330246D01*
X488008Y330327D01*
X488899Y330717D01*
X489614Y331375D01*
X490076Y332230D01*
X490236Y333189D01*
X489134Y364173D02*
X488974Y365132D01*
X488511Y365987D01*
X487796Y366645D01*
X486906Y367036D01*
X485937Y367116D01*
X484995Y366877D01*
X484181Y366346D01*
X483584Y365579D01*
X483269Y364659D01*
Y363687D01*
X483584Y362768D01*
X484181Y362001D01*
X484995Y361469D01*
X485937Y361230D01*
X486906Y361311D01*
X487796Y361701D01*
X488511Y362360D01*
X488974Y363214D01*
X489134Y364173D01*
X465165Y366799D02*
X465005Y367758D01*
X464542Y368613D01*
X463827Y369271D01*
X462937Y369661D01*
X461968Y369742D01*
X461026Y369503D01*
X460212Y368972D01*
X459615Y368204D01*
X459300Y367285D01*
Y366313D01*
X459615Y365394D01*
X460212Y364627D01*
X461026Y364095D01*
X461968Y363857D01*
X462937Y363937D01*
X463827Y364327D01*
X464542Y364985D01*
X465005Y365840D01*
X465165Y366799D01*
X489134Y356299D02*
X488974Y357258D01*
X488511Y358113D01*
X487796Y358771D01*
X486906Y359162D01*
X485937Y359242D01*
X484995Y359003D01*
X484181Y358472D01*
X483584Y357705D01*
X483269Y356785D01*
Y355813D01*
X483584Y354894D01*
X484181Y354127D01*
X484995Y353595D01*
X485937Y353357D01*
X486906Y353437D01*
X487796Y353827D01*
X488511Y354486D01*
X488974Y355341D01*
X489134Y356299D01*
X463071Y326969D02*
X462911Y327927D01*
X462448Y328782D01*
X461733Y329440D01*
X460843Y329831D01*
X459874Y329911D01*
X458932Y329673D01*
X458118Y329141D01*
X457521Y328374D01*
X457206Y327454D01*
Y326483D01*
X457521Y325563D01*
X458118Y324796D01*
X458932Y324264D01*
X459874Y324026D01*
X460843Y324106D01*
X461733Y324497D01*
X462448Y325155D01*
X462911Y326010D01*
X463071Y326969D01*
X488937Y314528D02*
X488777Y315486D01*
X488314Y316341D01*
X487599Y317000D01*
X486709Y317390D01*
X485740Y317470D01*
X484798Y317232D01*
X483984Y316700D01*
X483387Y315933D01*
X483072Y315014D01*
Y314042D01*
X483387Y313122D01*
X483984Y312355D01*
X484798Y311824D01*
X485740Y311585D01*
X486709Y311665D01*
X487599Y312056D01*
X488314Y312714D01*
X488777Y313569D01*
X488937Y314528D01*
Y321220D02*
X488777Y322179D01*
X488314Y323034D01*
X487599Y323692D01*
X486709Y324083D01*
X485740Y324163D01*
X484798Y323924D01*
X483984Y323393D01*
X483387Y322626D01*
X483072Y321707D01*
Y320735D01*
X483387Y319815D01*
X483984Y319048D01*
X484798Y318516D01*
X485740Y318278D01*
X486709Y318358D01*
X487599Y318748D01*
X488314Y319407D01*
X488777Y320262D01*
X488937Y321220D01*
X463071Y336732D02*
X462911Y337691D01*
X462448Y338546D01*
X461733Y339204D01*
X460843Y339595D01*
X459874Y339675D01*
X458932Y339436D01*
X458118Y338905D01*
X457521Y338138D01*
X457206Y337218D01*
Y336246D01*
X457521Y335327D01*
X458118Y334560D01*
X458932Y334028D01*
X459874Y333790D01*
X460843Y333870D01*
X461733Y334260D01*
X462448Y334919D01*
X462911Y335773D01*
X463071Y336732D01*
D11*
X146683Y27838D02*
D03*
X146684Y237127D02*
D03*
X146683Y135712D02*
D03*
X60224Y280335D02*
D03*
X60224Y179449D02*
D03*
X60224Y71575D02*
D03*
D12*
X181776Y170746D02*
X181037Y171172D01*
Y170319D01*
X181776Y170746D01*
Y62872D02*
X181037Y63298D01*
Y62445D01*
X181776Y62872D01*
Y271631D02*
X181037Y272058D01*
Y271205D01*
X181776Y271631D01*
D16*
X388583Y132775D02*
Y145571D01*
X348228D02*
X388583D01*
Y92421D02*
Y105217D01*
X348228Y92421D02*
X388583D01*
X258957Y145571D02*
X299311D01*
X258957Y132775D02*
Y145571D01*
Y92421D02*
X299311D01*
X258957D02*
Y105217D01*
X470669Y303051D02*
Y305807D01*
X460827Y303051D02*
Y305807D01*
X423425Y226772D02*
Y229528D01*
X413583Y226772D02*
Y229528D01*
X435138Y226772D02*
Y229528D01*
X425295Y226772D02*
Y229528D01*
X372736Y61910D02*
X375492D01*
X372736Y71752D02*
X375492D01*
X372736Y79331D02*
X375492D01*
X372736Y89173D02*
X375492D01*
X446850Y226772D02*
Y229528D01*
X437008Y226772D02*
Y229528D01*
X482382Y303051D02*
Y305807D01*
X472539Y303051D02*
Y305807D01*
X440953Y317192D02*
Y319948D01*
X431111Y317192D02*
Y319948D01*
X458957Y303051D02*
Y305807D01*
X449114Y303051D02*
Y305807D01*
X429241Y317192D02*
Y319948D01*
X419398Y317192D02*
Y319948D01*
X417528Y317192D02*
Y319948D01*
X407686Y317192D02*
Y319948D01*
X405815Y317192D02*
Y319948D01*
X395973Y317192D02*
Y319948D01*
X563149Y298425D02*
Y362992D01*
X550748D02*
X563149D01*
X501338D02*
X533032D01*
X501338Y298425D02*
X533032D01*
X550748D02*
X563149D01*
X501338Y347047D02*
Y362992D01*
Y298425D02*
Y314370D01*
X193603Y343681D02*
X200492D01*
X201870Y344094D02*
Y363386D01*
X212303D01*
Y344094D02*
Y363386D01*
X201870Y344094D02*
X212303D01*
X258957Y58858D02*
X299311D01*
X258957Y46063D02*
Y58858D01*
Y5709D02*
X299311D01*
X258957D02*
Y18504D01*
X167012Y48232D02*
X169374D01*
X167012Y36814D02*
Y48232D01*
Y36814D02*
X169374D01*
Y48232D01*
X186992Y171021D02*
Y212360D01*
X213764Y171021D02*
Y212360D01*
X186992Y171021D02*
X213764D01*
X186992Y212360D02*
X213764D01*
X126838Y36121D02*
X146129D01*
X126838D02*
Y46554D01*
X146129D01*
Y36121D02*
Y46554D01*
X75689Y55610D02*
X76083D01*
X75689Y60925D02*
X76083D01*
X258957Y359252D02*
X299311D01*
X258957Y346457D02*
Y359252D01*
Y306102D02*
X299311D01*
X258957D02*
Y318898D01*
X175098Y307677D02*
Y308071D01*
X172343Y307677D02*
Y308071D01*
X227854Y277336D02*
Y277730D01*
X230610Y277336D02*
Y277730D01*
X228150Y176083D02*
Y176476D01*
X230906Y176083D02*
Y176476D01*
X228150Y68602D02*
Y68996D01*
X230906Y68602D02*
Y68996D01*
X169980Y206988D02*
Y207382D01*
X172736Y206988D02*
Y207382D01*
X172146Y98819D02*
Y99213D01*
X174902Y98819D02*
Y99213D01*
X146129Y245410D02*
Y255843D01*
X126838D02*
X146129D01*
X126838Y245410D02*
Y255843D01*
Y245410D02*
X146129D01*
X146129Y143995D02*
Y154428D01*
X126838D02*
X146129D01*
X126838Y143995D02*
Y154428D01*
Y143995D02*
X146129D01*
X93455Y81327D02*
Y81721D01*
X90699Y81327D02*
Y81721D01*
X224803Y327284D02*
X225197D01*
X224803Y332599D02*
X225197D01*
X209252Y327284D02*
X209646D01*
X209252Y332598D02*
X209646D01*
X91240Y60925D02*
X91634D01*
X91240Y55610D02*
X91634D01*
X56299Y290090D02*
Y290484D01*
X53543Y290090D02*
Y290484D01*
X93455Y290090D02*
Y290484D01*
X90699Y290090D02*
Y290484D01*
X93455Y189201D02*
Y189594D01*
X90699Y189201D02*
Y189594D01*
X56299Y189201D02*
Y189594D01*
X53543Y189201D02*
Y189594D01*
X68307Y280689D02*
X78740D01*
Y299981D01*
X68307D02*
X78740D01*
X68307Y280689D02*
Y299981D01*
X68307Y179803D02*
X78740D01*
Y199095D01*
X68307D02*
X78740D01*
X68307Y179803D02*
Y199095D01*
X68307Y71929D02*
Y91220D01*
X78740D01*
Y71929D02*
Y91220D01*
X68307Y71929D02*
X78740D01*
X206890Y367736D02*
X207284D01*
X206890Y364980D02*
X207284D01*
X207087Y370197D02*
Y372559D01*
X189863Y353543D02*
Y353937D01*
X187107Y353543D02*
Y353937D01*
X206890Y338504D02*
X207284D01*
X206890Y341260D02*
X207284D01*
X227018Y353494D02*
Y353888D01*
X224262Y353494D02*
Y353888D01*
X136483Y129232D02*
X136877D01*
X136483Y131987D02*
X136877D01*
X122684Y149015D02*
Y149409D01*
X125440Y149015D02*
Y149409D01*
X117861Y149212D02*
X120223D01*
X149160Y149015D02*
Y149409D01*
X151916Y149015D02*
Y149409D01*
X136729Y166387D02*
X137123D01*
X136729Y169143D02*
X137123D01*
X156988Y135827D02*
Y136221D01*
X154232Y135827D02*
Y136221D01*
X116893Y250390D02*
X119255D01*
X121715Y250193D02*
Y250587D01*
X124471Y250193D02*
Y250587D01*
X148192Y250193D02*
Y250587D01*
X150948Y250193D02*
Y250587D01*
X135515Y230410D02*
X135909D01*
X135515Y233165D02*
X135909D01*
X157148Y238029D02*
Y238422D01*
X154392Y238029D02*
Y238422D01*
X135761Y267565D02*
X136155D01*
X135761Y270321D02*
X136155D01*
X136286Y24113D02*
X136680D01*
X136286Y21357D02*
X136680D01*
X117664Y41338D02*
X120027D01*
X154217Y28543D02*
Y28937D01*
X156972Y28543D02*
Y28937D01*
X136531Y61269D02*
X136925D01*
X136531Y58513D02*
X136925D01*
X151719Y41141D02*
Y41535D01*
X148964Y41141D02*
Y41535D01*
X125243Y41141D02*
Y41535D01*
X122487Y41141D02*
Y41535D01*
X73524Y205906D02*
Y208268D01*
X73524Y306792D02*
Y309154D01*
X73327Y203445D02*
X73720D01*
X73327Y200689D02*
X73720D01*
X73327Y304331D02*
X73721D01*
X73327Y301575D02*
X73721D01*
X73327Y176969D02*
X73720D01*
X73327Y174213D02*
X73720D01*
X73327Y277855D02*
X73721D01*
X73327Y275099D02*
X73721D01*
X75787Y164567D02*
X76181D01*
X75787Y169882D02*
X76181D01*
X75689Y264370D02*
X76082D01*
X75689Y269685D02*
X76082D01*
X91338Y169882D02*
X91732D01*
X91338Y164567D02*
X91732D01*
X91240Y269685D02*
X91634D01*
X91240Y264370D02*
X91634D01*
X186992Y104486D02*
X213764D01*
X186992Y63147D02*
X213764D01*
Y104486D01*
X186992Y63147D02*
Y104486D01*
X167012Y156105D02*
X169374D01*
X167012Y144688D02*
Y156105D01*
Y144688D02*
X169374D01*
Y156105D01*
X169152Y161614D02*
Y162008D01*
X166396Y161614D02*
Y162008D01*
X166691Y53740D02*
Y54134D01*
X169447Y53740D02*
Y54134D01*
X53543Y81378D02*
Y81772D01*
X56299Y81378D02*
Y81772D01*
X73524Y98032D02*
Y100394D01*
X73327Y95571D02*
X73721D01*
X73327Y92815D02*
X73721D01*
X73327Y69095D02*
X73721D01*
X73327Y66338D02*
X73721D01*
X348228Y5709D02*
X388583D01*
Y18504D01*
X348228Y58858D02*
X388583D01*
Y46063D02*
Y58858D01*
X169447Y262500D02*
Y262894D01*
X166691Y262500D02*
Y262894D01*
X167012Y256992D02*
X169374D01*
X167012Y245574D02*
Y256992D01*
Y245574D02*
X169374D01*
Y256992D01*
X258957Y225295D02*
Y238090D01*
Y225295D02*
X299311D01*
X258957Y265650D02*
Y278445D01*
X299311D01*
X258957Y211220D02*
X299311D01*
X258957Y198425D02*
Y211220D01*
Y158071D02*
X299311D01*
X258957D02*
Y170866D01*
X186992Y313246D02*
X213764D01*
X186992Y271907D02*
X213764D01*
Y313246D01*
X186992Y271907D02*
Y313246D01*
X388583Y265650D02*
Y278445D01*
X348228D02*
X388583D01*
Y225295D02*
Y238090D01*
X348228Y225295D02*
X388583D01*
X348228Y306102D02*
X388583D01*
Y318898D01*
X348228Y359252D02*
X388583D01*
Y346457D02*
Y359252D01*
Y198425D02*
Y211220D01*
X348228D02*
X388583D01*
Y158071D02*
Y170866D01*
X348228Y158071D02*
X388583D01*
D17*
X194488Y337106D02*
Y342618D01*
X199488Y341862D02*
Y342618D01*
X189488D02*
X199488D01*
X189488Y341862D02*
Y342618D01*
Y337106D02*
Y337862D01*
Y337106D02*
X199488D01*
Y337862D01*
X189488Y335760D02*
Y336516D01*
X199488D01*
Y335760D02*
Y336516D01*
Y331004D02*
Y331760D01*
X189488Y331004D02*
X199488D01*
X189488D02*
Y331760D01*
X194488Y331004D02*
Y336516D01*
X99343Y86523D02*
X100098D01*
Y76524D02*
Y86523D01*
X99343Y76524D02*
X100098D01*
X94587D02*
X95343D01*
X94587D02*
Y86523D01*
X95343D01*
X94587Y81524D02*
X100098D01*
X100590Y81524D02*
X106102D01*
X105346Y76524D02*
X106102D01*
Y86524D01*
X105346D02*
X106102D01*
X100590D02*
X101346D01*
X100590Y76524D02*
Y86524D01*
Y76524D02*
X101346D01*
X209449Y320296D02*
Y325807D01*
X214449Y325051D02*
Y325807D01*
X204449D02*
X214449D01*
X204449Y325051D02*
Y325807D01*
Y320296D02*
Y321051D01*
Y320296D02*
X214449D01*
Y321051D01*
X225000Y320295D02*
Y325807D01*
X230000Y325051D02*
Y325807D01*
X220000D02*
X230000D01*
X220000Y325051D02*
Y325807D01*
Y320295D02*
Y321051D01*
Y320295D02*
X230000D01*
Y321051D01*
X228002Y348691D02*
X228758D01*
X228002D02*
Y358691D01*
X228758D01*
X232758D02*
X233514D01*
Y348691D02*
Y358691D01*
X232758Y348691D02*
X233514D01*
X228002Y353691D02*
X233514D01*
X86437Y53378D02*
Y54134D01*
X96437D01*
Y53378D02*
Y54134D01*
Y48622D02*
Y49378D01*
X86437Y48622D02*
X96437D01*
X86437D02*
Y49378D01*
X91437Y48622D02*
Y54134D01*
X70886Y53378D02*
Y54134D01*
X80886D01*
Y53378D02*
Y54134D01*
Y48622D02*
Y49378D01*
X70886Y48622D02*
X80886D01*
X70886D02*
Y49378D01*
X75886Y48622D02*
Y54134D01*
X147586Y238029D02*
X153098D01*
X147586Y243029D02*
X148342D01*
X147586Y233029D02*
Y243029D01*
Y233029D02*
X148342D01*
X152342D02*
X153098D01*
Y243029D01*
X152342D02*
X153098D01*
X152342Y33739D02*
X153098D01*
Y23739D02*
Y33739D01*
X152342Y23739D02*
X153098D01*
X147586D02*
X148342D01*
X147586D02*
Y33739D01*
X148342D01*
X147586Y28739D02*
X153098D01*
X40945Y290287D02*
X46457D01*
X40945Y295287D02*
X41701D01*
X40945Y285287D02*
Y295287D01*
Y285287D02*
X41701D01*
X45701D02*
X46457D01*
Y295287D01*
X45701D02*
X46457D01*
X100591Y290287D02*
X106103D01*
X105347Y285287D02*
X106103D01*
Y295287D01*
X105347D02*
X106103D01*
X100591D02*
X101347D01*
X100591Y285287D02*
Y295287D01*
Y285287D02*
X101347D01*
X40945Y189398D02*
X46457D01*
X40945Y194397D02*
X41701D01*
X40945Y184397D02*
Y194397D01*
Y184397D02*
X41701D01*
X45701D02*
X46457D01*
Y194397D01*
X45701D02*
X46457D01*
X100591Y189398D02*
X106102D01*
X105346Y184398D02*
X106102D01*
Y194398D01*
X105346D02*
X106102D01*
X100591D02*
X101346D01*
X100591Y184398D02*
Y194398D01*
Y184398D02*
X101346D01*
X47047Y76575D02*
X47803D01*
X47047D02*
Y86575D01*
X47803D01*
X51803D02*
X52559D01*
Y76575D02*
Y86575D01*
X51803Y76575D02*
X52559D01*
X47047Y81575D02*
X52559D01*
X219126Y373721D02*
X219882D01*
Y363720D02*
Y373721D01*
X219126Y363720D02*
X219882D01*
X214370D02*
X215126D01*
X214370D02*
Y373721D01*
X215126D01*
X214370Y368721D02*
X219882D01*
X199047Y373721D02*
X199803D01*
Y363720D02*
Y373721D01*
X199047Y363720D02*
X199803D01*
X194292D02*
X195047D01*
X194292D02*
Y373721D01*
X195047D01*
X194292Y368721D02*
X199803D01*
X185367Y358740D02*
X186122D01*
Y348740D02*
Y358740D01*
X185367Y348740D02*
X186122D01*
X180611D02*
X181367D01*
X180611D02*
Y358740D01*
X181367D01*
X180611Y353740D02*
X186122D01*
X174508Y348819D02*
X175264D01*
X174508D02*
Y358819D01*
X175264D01*
X179264D02*
X180020D01*
Y348819D02*
Y358819D01*
X179264Y348819D02*
X180020D01*
X174508Y353819D02*
X180020D01*
X234154Y353661D02*
X239666D01*
X234154Y358661D02*
X234910D01*
X234154Y348661D02*
Y358661D01*
Y348661D02*
X234910D01*
X238910D02*
X239666D01*
Y358661D01*
X238910D02*
X239666D01*
X152456Y140945D02*
X153212D01*
Y130945D02*
Y140945D01*
X152456Y130945D02*
X153212D01*
X147700D02*
X148456D01*
X147700D02*
Y140945D01*
X148456D01*
X147700Y135945D02*
X153212D01*
X131680Y127491D02*
Y128247D01*
X141680D01*
Y127491D02*
Y128247D01*
Y122736D02*
Y123491D01*
X131680Y122736D02*
X141680D01*
X131680D02*
Y123491D01*
X136680Y122736D02*
Y128247D01*
X116503Y141172D02*
Y141928D01*
X126503D01*
Y141172D02*
Y141928D01*
Y136416D02*
Y137172D01*
X116503Y136416D02*
X126503D01*
X116503D02*
Y137172D01*
X121503Y136416D02*
Y141928D01*
X116700Y161251D02*
Y162007D01*
X126700D01*
Y161251D02*
Y162007D01*
Y156495D02*
Y157251D01*
X116700Y156495D02*
X126700D01*
X116700D02*
Y157251D01*
X121700Y156495D02*
Y162007D01*
X131533Y174883D02*
Y175639D01*
X141533D01*
Y174883D02*
Y175639D01*
Y170127D02*
Y170883D01*
X131533Y170127D02*
X141533D01*
X131533D02*
Y170883D01*
X136533Y170127D02*
Y175639D01*
X147585Y156810D02*
X148341D01*
X147585D02*
Y166810D01*
X148341D01*
X152341D02*
X153097D01*
Y156810D02*
Y166810D01*
X152341Y156810D02*
X153097D01*
X147585Y161810D02*
X153097D01*
X115731Y262429D02*
Y263185D01*
X125731D01*
Y262429D02*
Y263185D01*
Y257673D02*
Y258429D01*
X115731Y257673D02*
X125731D01*
X115731D02*
Y258429D01*
X120731Y257673D02*
Y263185D01*
X115731Y242351D02*
Y243107D01*
X125731D01*
Y242351D02*
Y243107D01*
Y237595D02*
Y238351D01*
X115731Y237595D02*
X125731D01*
X115731D02*
Y238351D01*
X120731Y237595D02*
Y243107D01*
X146992Y258225D02*
X147748D01*
X146992D02*
Y268225D01*
X147748D01*
X151748D02*
X152504D01*
Y258225D02*
Y268225D01*
X151748Y258225D02*
X152504D01*
X146992Y263225D02*
X152504D01*
X130564Y276061D02*
Y276817D01*
X140564D01*
Y276061D02*
Y276817D01*
Y271305D02*
Y272061D01*
X130564Y271305D02*
X140564D01*
X130564D02*
Y272061D01*
X135564Y271305D02*
Y276817D01*
X130712Y228669D02*
Y229425D01*
X140712D01*
Y228669D02*
Y229425D01*
Y223914D02*
Y224669D01*
X130712Y223914D02*
X140712D01*
X130712D02*
Y224669D01*
X135712Y223914D02*
Y229425D01*
X136483Y14862D02*
Y20373D01*
X131483Y14862D02*
Y15617D01*
Y14862D02*
X141483D01*
Y15617D01*
Y19617D02*
Y20373D01*
X131483D02*
X141483D01*
X131483Y19617D02*
Y20373D01*
X121503Y28543D02*
Y34054D01*
X116503Y28543D02*
Y29298D01*
Y28543D02*
X126503D01*
Y29298D01*
Y33298D02*
Y34054D01*
X116503D02*
X126503D01*
X116503Y33298D02*
Y34054D01*
X121503Y48621D02*
Y54133D01*
X116503Y48621D02*
Y49377D01*
Y48621D02*
X126503D01*
Y49377D01*
Y53377D02*
Y54133D01*
X116503D02*
X126503D01*
X116503Y53377D02*
Y54133D01*
X136728Y62253D02*
Y67765D01*
X131728Y62253D02*
Y63009D01*
Y62253D02*
X141728D01*
Y63009D01*
Y67009D02*
Y67765D01*
X131728D02*
X141728D01*
X131728Y67009D02*
Y67765D01*
X146992Y53936D02*
X152504D01*
X151748Y48936D02*
X152504D01*
Y58936D01*
X151748D02*
X152504D01*
X146992D02*
X147748D01*
X146992Y48936D02*
Y58936D01*
Y48936D02*
X147748D01*
X99195Y194397D02*
X99950D01*
Y184397D02*
Y194397D01*
X99195Y184397D02*
X99950D01*
X94439D02*
X95195D01*
X94439D02*
Y194397D01*
X95195D01*
X94439Y189398D02*
X99950D01*
X99195Y295287D02*
X99951D01*
Y285287D02*
Y295287D01*
X99195Y285287D02*
X99951D01*
X94439D02*
X95195D01*
X94439D02*
Y295287D01*
X95195D01*
X94439Y290287D02*
X99951D01*
X65484Y209429D02*
X66240D01*
Y199429D02*
Y209429D01*
X65484Y199429D02*
X66240D01*
X60728D02*
X61484D01*
X60728D02*
Y209429D01*
X61484D01*
X60728Y204429D02*
X66240D01*
X65484Y310315D02*
X66240D01*
Y300315D02*
Y310315D01*
X65484Y300315D02*
X66240D01*
X60729D02*
X61484D01*
X60729D02*
Y310315D01*
X61484D01*
X60729Y305315D02*
X66240D01*
X85563Y209429D02*
X86319D01*
Y199429D02*
Y209429D01*
X85563Y199429D02*
X86319D01*
X80807D02*
X81563D01*
X80807D02*
Y209429D01*
X81563D01*
X80807Y204429D02*
X86319D01*
X85563Y310315D02*
X86319D01*
Y300315D02*
Y310315D01*
X85563Y300315D02*
X86319D01*
X80807D02*
X81563D01*
X80807D02*
Y310315D01*
X81563D01*
X80807Y305315D02*
X86319D01*
X47343Y184398D02*
X48098D01*
X47343D02*
Y194398D01*
X48098D01*
X52099D02*
X52854D01*
Y184398D02*
Y194398D01*
X52099Y184398D02*
X52854D01*
X47343Y189398D02*
X52854D01*
X47047Y285287D02*
X47803D01*
X47047D02*
Y295287D01*
X47803D01*
X51803D02*
X52559D01*
Y285287D02*
Y295287D01*
X51803Y285287D02*
X52559D01*
X47047Y290287D02*
X52559D01*
X86535Y162334D02*
Y163090D01*
X96535D01*
Y162334D02*
Y163090D01*
Y157579D02*
Y158334D01*
X86535Y157579D02*
X96535D01*
X86535D02*
Y158334D01*
X91535Y157579D02*
Y163090D01*
X86437Y262138D02*
Y262894D01*
X96437D01*
Y262138D02*
Y262894D01*
Y257382D02*
Y258138D01*
X86437Y257382D02*
X96437D01*
X86437D02*
Y258138D01*
X91437Y257382D02*
Y262894D01*
X70984Y162335D02*
Y163090D01*
X80984D01*
Y162335D02*
Y163090D01*
Y157579D02*
Y158335D01*
X70984Y157579D02*
X80984D01*
X70984D02*
Y158335D01*
X75984Y157579D02*
Y163090D01*
X70885Y262138D02*
Y262893D01*
X80885D01*
Y262138D02*
Y262893D01*
Y257382D02*
Y258138D01*
X70885Y257382D02*
X80885D01*
X70885D02*
Y258138D01*
X75885Y257382D02*
Y262893D01*
X61024Y64961D02*
Y70473D01*
X56024Y64961D02*
Y65717D01*
Y64961D02*
X66024D01*
Y65717D01*
Y69717D02*
Y70473D01*
X56024D02*
X66024D01*
X56024Y69717D02*
Y70473D01*
X60925Y268012D02*
Y273524D01*
X65925Y272768D02*
Y273524D01*
X55925D02*
X65925D01*
X55925Y272768D02*
Y273524D01*
Y268012D02*
Y268768D01*
Y268012D02*
X65925D01*
Y268768D01*
X61024Y59153D02*
Y64665D01*
X66024Y63910D02*
Y64665D01*
X56024D02*
X66024D01*
X56024Y63910D02*
Y64665D01*
Y59153D02*
Y59909D01*
Y59153D02*
X66024D01*
Y59909D01*
X60925Y167126D02*
Y172638D01*
X65925Y171882D02*
Y172638D01*
X55925D02*
X65925D01*
X55925Y171882D02*
Y172638D01*
Y167126D02*
Y167882D01*
Y167126D02*
X65925D01*
Y167882D01*
X60925Y172933D02*
Y178445D01*
X55925Y172933D02*
Y173689D01*
Y172933D02*
X65925D01*
Y173689D01*
Y177689D02*
Y178445D01*
X55925D02*
X65925D01*
X55925Y177689D02*
Y178445D01*
X60925Y273819D02*
Y279331D01*
X55925Y273819D02*
Y274575D01*
Y273819D02*
X65925D01*
Y274575D01*
Y278575D02*
Y279331D01*
X55925D02*
X65925D01*
X55925Y278575D02*
Y279331D01*
X65484Y101555D02*
X66240D01*
Y91555D02*
Y101555D01*
X65484Y91555D02*
X66240D01*
X60728D02*
X61484D01*
X60728D02*
Y101555D01*
X61484D01*
X60728Y96555D02*
X66240D01*
X45701Y86575D02*
X46457D01*
Y76575D02*
Y86575D01*
X45701Y76575D02*
X46457D01*
X40945D02*
X41701D01*
X40945D02*
Y86575D01*
X41701D01*
X40945Y81575D02*
X46457D01*
X85563Y101555D02*
X86319D01*
Y91555D02*
Y101555D01*
X85563Y91555D02*
X86319D01*
X80807D02*
X81563D01*
X80807D02*
Y101555D01*
X81563D01*
X80807Y96555D02*
X86319D01*
X524646Y375197D02*
Y380709D01*
X519646Y375197D02*
Y375953D01*
Y375197D02*
X529646D01*
Y375953D01*
Y379953D02*
Y380709D01*
X519646D02*
X529646D01*
X519646Y379953D02*
Y380709D01*
X338884Y148655D02*
X339343Y149114D01*
X340261D01*
X340721Y148655D01*
Y146818D01*
X340261Y146359D01*
X339343D01*
X338884Y146818D01*
X336588Y146359D02*
Y149114D01*
X337966Y147736D01*
X336129D01*
X333374Y149114D02*
X334292Y148655D01*
X335211Y147736D01*
Y146818D01*
X334751Y146359D01*
X333833D01*
X333374Y146818D01*
Y147277D01*
X333833Y147736D01*
X335211D01*
X311581Y148654D02*
X312040Y149114D01*
X312958D01*
X313418Y148654D01*
Y146818D01*
X312958Y146359D01*
X312040D01*
X311581Y146818D01*
X309285Y146359D02*
Y149114D01*
X310662Y147736D01*
X308826D01*
X307907Y148654D02*
X307448Y149114D01*
X306530D01*
X306071Y148654D01*
Y148195D01*
X306530Y147736D01*
X306989D01*
X306530D01*
X306071Y147277D01*
Y146818D01*
X306530Y146359D01*
X307448D01*
X307907Y146818D01*
X481638Y323293D02*
X480720D01*
X481179D01*
Y320538D01*
X481638D01*
X480720D01*
X479342D02*
X478424D01*
X478883D01*
Y323293D01*
X479342Y322834D01*
X477046Y320079D02*
X475210D01*
X474291Y320538D02*
Y323293D01*
X472455Y320538D01*
Y323293D01*
X481614Y316679D02*
X480696D01*
X481155D01*
Y313924D01*
X481614D01*
X480696D01*
X479318D02*
X478400D01*
X478859D01*
Y316679D01*
X479318Y316220D01*
X477023Y313465D02*
X475186D01*
X474267Y313924D02*
Y316679D01*
X472890D01*
X472431Y316220D01*
Y315301D01*
X472890Y314842D01*
X474267D01*
X473150Y330143D02*
X472231D01*
X472690D01*
Y327388D01*
X473150D01*
X472231D01*
X470854Y329684D02*
X470395Y330143D01*
X469476D01*
X469017Y329684D01*
Y329225D01*
X469476Y328766D01*
X469935D01*
X469476D01*
X469017Y328307D01*
Y327848D01*
X469476Y327388D01*
X470395D01*
X470854Y327848D01*
X468099Y326929D02*
X466262D01*
X465344Y327388D02*
Y330143D01*
X463966D01*
X463507Y329684D01*
Y328766D01*
X463966Y328307D01*
X465344D01*
X483347Y335616D02*
X482428D01*
X482887D01*
Y332861D01*
X483347D01*
X482428D01*
X481051Y335157D02*
X480591Y335616D01*
X479673D01*
X479214Y335157D01*
Y334697D01*
X479673Y334238D01*
X480132D01*
X479673D01*
X479214Y333779D01*
Y333320D01*
X479673Y332861D01*
X480591D01*
X481051Y333320D01*
X478296Y332402D02*
X476459D01*
X475541Y332861D02*
Y335616D01*
X473704Y332861D01*
Y335616D01*
X455827Y328569D02*
X454908D01*
X455368D01*
Y325814D01*
X455827D01*
X454908D01*
X451694D02*
X453531D01*
X451694Y327650D01*
Y328109D01*
X452153Y328569D01*
X453072D01*
X453531Y328109D01*
X450776Y325354D02*
X448939D01*
X448021Y325814D02*
Y328569D01*
X446643D01*
X446184Y328109D01*
Y327191D01*
X446643Y326732D01*
X448021D01*
X455669Y338726D02*
X454751D01*
X455210D01*
Y335971D01*
X455669D01*
X454751D01*
X451537D02*
X453373D01*
X451537Y337808D01*
Y338267D01*
X451996Y338726D01*
X452914D01*
X453373Y338267D01*
X450618Y335512D02*
X448782D01*
X447863Y335971D02*
Y338726D01*
X446027Y335971D01*
Y338726D01*
X482047Y356994D02*
Y354698D01*
X481588Y354239D01*
X480670D01*
X480211Y354698D01*
Y356994D01*
X479292Y353780D02*
X477456D01*
X476537Y356994D02*
Y354239D01*
X475160D01*
X474700Y354698D01*
Y356535D01*
X475160Y356994D01*
X476537D01*
X471945Y356535D02*
X472405Y356994D01*
X473323D01*
X473782Y356535D01*
Y354698D01*
X473323Y354239D01*
X472405D01*
X471945Y354698D01*
X471027Y353780D02*
X469191D01*
X468272Y354239D02*
Y356994D01*
X466435Y354239D01*
Y356994D01*
X481654Y366718D02*
Y364422D01*
X481194Y363963D01*
X480276D01*
X479817Y364422D01*
Y366718D01*
X478898Y363504D02*
X477062D01*
X476144Y366718D02*
Y363963D01*
X474766D01*
X474307Y364422D01*
Y366259D01*
X474766Y366718D01*
X476144D01*
X471552Y366259D02*
X472011Y366718D01*
X472929D01*
X473388Y366259D01*
Y364422D01*
X472929Y363963D01*
X472011D01*
X471552Y364422D01*
X470634Y363504D02*
X468797D01*
X467878Y363963D02*
Y366718D01*
X466501D01*
X466042Y366259D01*
Y365341D01*
X466501Y364881D01*
X467878D01*
X455486Y368241D02*
X455945Y368700D01*
X456864D01*
X457323Y368241D01*
Y366404D01*
X456864Y365945D01*
X455945D01*
X455486Y366404D01*
Y367322D01*
X456404D01*
X454568Y365945D02*
Y368700D01*
X452731Y365945D01*
Y368700D01*
X451813D02*
Y365945D01*
X450435D01*
X449976Y366404D01*
Y368241D01*
X450435Y368700D01*
X451813D01*
X362893Y67749D02*
X363352Y68208D01*
X364271D01*
X364730Y67749D01*
Y65912D01*
X364271Y65453D01*
X363352D01*
X362893Y65912D01*
X361975D02*
X361516Y65453D01*
X360597D01*
X360138Y65912D01*
Y67749D01*
X360597Y68208D01*
X361516D01*
X361975Y67749D01*
Y67290D01*
X361516Y66831D01*
X360138D01*
X359220Y65453D02*
X358302D01*
X358761D01*
Y68208D01*
X359220Y67749D01*
X363352Y85170D02*
X363812Y85629D01*
X364730D01*
X365189Y85170D01*
Y83334D01*
X364730Y82875D01*
X363812D01*
X363352Y83334D01*
X362434D02*
X361975Y82875D01*
X361057D01*
X360597Y83334D01*
Y85170D01*
X361057Y85629D01*
X361975D01*
X362434Y85170D01*
Y84711D01*
X361975Y84252D01*
X360597D01*
X359679Y85170D02*
X359220Y85629D01*
X358302D01*
X357842Y85170D01*
Y83334D01*
X358302Y82875D01*
X359220D01*
X359679Y83334D01*
Y85170D01*
X467126Y294521D02*
X467585Y294980D01*
X468503D01*
X468962Y294521D01*
Y292684D01*
X468503Y292225D01*
X467585D01*
X467126Y292684D01*
X466207Y294521D02*
X465748Y294980D01*
X464830D01*
X464370Y294521D01*
Y294061D01*
X464830Y293602D01*
X464370Y293143D01*
Y292684D01*
X464830Y292225D01*
X465748D01*
X466207Y292684D01*
Y293143D01*
X465748Y293602D01*
X466207Y294061D01*
Y294521D01*
X465748Y293602D02*
X464830D01*
X463452Y292225D02*
X462534D01*
X462993D01*
Y294980D01*
X463452Y294521D01*
X479297D02*
X479756Y294980D01*
X480675D01*
X481134Y294521D01*
Y292684D01*
X480675Y292225D01*
X479756D01*
X479297Y292684D01*
X478379Y294521D02*
X477920Y294980D01*
X477001D01*
X476542Y294521D01*
Y294061D01*
X477001Y293602D01*
X476542Y293143D01*
Y292684D01*
X477001Y292225D01*
X477920D01*
X478379Y292684D01*
Y293143D01*
X477920Y293602D01*
X478379Y294061D01*
Y294521D01*
X477920Y293602D02*
X477001D01*
X475624Y294521D02*
X475165Y294980D01*
X474246D01*
X473787Y294521D01*
Y292684D01*
X474246Y292225D01*
X475165D01*
X475624Y292684D01*
Y294521D01*
X420341Y218340D02*
X420800Y218799D01*
X421718D01*
X422177Y218340D01*
Y216503D01*
X421718Y216044D01*
X420800D01*
X420341Y216503D01*
X419422Y218340D02*
X418963Y218799D01*
X418045D01*
X417586Y218340D01*
Y217880D01*
X418045Y217421D01*
X417586Y216962D01*
Y216503D01*
X418045Y216044D01*
X418963D01*
X419422Y216503D01*
Y216962D01*
X418963Y217421D01*
X419422Y217880D01*
Y218340D01*
X418963Y217421D02*
X418045D01*
X416667Y216503D02*
X416208Y216044D01*
X415290D01*
X414831Y216503D01*
Y218340D01*
X415290Y218799D01*
X416208D01*
X416667Y218340D01*
Y217880D01*
X416208Y217421D01*
X414831D01*
X432053Y218340D02*
X432512Y218799D01*
X433431D01*
X433890Y218340D01*
Y216503D01*
X433431Y216044D01*
X432512D01*
X432053Y216503D01*
X431135Y218340D02*
X430676Y218799D01*
X429757D01*
X429298Y218340D01*
Y217880D01*
X429757Y217421D01*
X429298Y216962D01*
Y216503D01*
X429757Y216044D01*
X430676D01*
X431135Y216503D01*
Y216962D01*
X430676Y217421D01*
X431135Y217880D01*
Y218340D01*
X430676Y217421D02*
X429757D01*
X428380Y218340D02*
X427921Y218799D01*
X427002D01*
X426543Y218340D01*
Y217880D01*
X427002Y217421D01*
X426543Y216962D01*
Y216503D01*
X427002Y216044D01*
X427921D01*
X428380Y216503D01*
Y216962D01*
X427921Y217421D01*
X428380Y217880D01*
Y218340D01*
X427921Y217421D02*
X427002D01*
X443766Y218340D02*
X444225Y218799D01*
X445143D01*
X445603Y218340D01*
Y216503D01*
X445143Y216044D01*
X444225D01*
X443766Y216503D01*
X442847Y218340D02*
X442388Y218799D01*
X441470D01*
X441011Y218340D01*
Y217880D01*
X441470Y217421D01*
X441011Y216962D01*
Y216503D01*
X441470Y216044D01*
X442388D01*
X442847Y216503D01*
Y216962D01*
X442388Y217421D01*
X442847Y217880D01*
Y218340D01*
X442388Y217421D02*
X441470D01*
X440093Y218799D02*
X438256D01*
Y218340D01*
X440093Y216503D01*
Y216044D01*
X403125Y308662D02*
X403584Y309121D01*
X404502D01*
X404961Y308662D01*
Y306825D01*
X404502Y306366D01*
X403584D01*
X403125Y306825D01*
X402206Y308662D02*
X401747Y309121D01*
X400829D01*
X400370Y308662D01*
Y308202D01*
X400829Y307743D01*
X400370Y307284D01*
Y306825D01*
X400829Y306366D01*
X401747D01*
X402206Y306825D01*
Y307284D01*
X401747Y307743D01*
X402206Y308202D01*
Y308662D01*
X401747Y307743D02*
X400829D01*
X397615Y309121D02*
X398533Y308662D01*
X399451Y307743D01*
Y306825D01*
X398992Y306366D01*
X398074D01*
X397615Y306825D01*
Y307284D01*
X398074Y307743D01*
X399451D01*
X414050Y308662D02*
X414509Y309121D01*
X415427D01*
X415886Y308662D01*
Y306825D01*
X415427Y306366D01*
X414509D01*
X414050Y306825D01*
X413131Y308662D02*
X412672Y309121D01*
X411754D01*
X411295Y308662D01*
Y308202D01*
X411754Y307743D01*
X411295Y307284D01*
Y306825D01*
X411754Y306366D01*
X412672D01*
X413131Y306825D01*
Y307284D01*
X412672Y307743D01*
X413131Y308202D01*
Y308662D01*
X412672Y307743D02*
X411754D01*
X408540Y309121D02*
X410376D01*
Y307743D01*
X409458Y308202D01*
X408999D01*
X408540Y307743D01*
Y306825D01*
X408999Y306366D01*
X409917D01*
X410376Y306825D01*
X426156Y308662D02*
X426615Y309121D01*
X427534D01*
X427993Y308662D01*
Y306825D01*
X427534Y306366D01*
X426615D01*
X426156Y306825D01*
X425238Y308662D02*
X424779Y309121D01*
X423860D01*
X423401Y308662D01*
Y308202D01*
X423860Y307743D01*
X423401Y307284D01*
Y306825D01*
X423860Y306366D01*
X424779D01*
X425238Y306825D01*
Y307284D01*
X424779Y307743D01*
X425238Y308202D01*
Y308662D01*
X424779Y307743D02*
X423860D01*
X421105Y306366D02*
Y309121D01*
X422483Y307743D01*
X420646D01*
X437869Y308662D02*
X438328Y309121D01*
X439246D01*
X439705Y308662D01*
Y306825D01*
X439246Y306366D01*
X438328D01*
X437869Y306825D01*
X436950Y308662D02*
X436491Y309121D01*
X435573D01*
X435114Y308662D01*
Y308202D01*
X435573Y307743D01*
X435114Y307284D01*
Y306825D01*
X435573Y306366D01*
X436491D01*
X436950Y306825D01*
Y307284D01*
X436491Y307743D01*
X436950Y308202D01*
Y308662D01*
X436491Y307743D02*
X435573D01*
X434195Y308662D02*
X433736Y309121D01*
X432818D01*
X432359Y308662D01*
Y308202D01*
X432818Y307743D01*
X433277D01*
X432818D01*
X432359Y307284D01*
Y306825D01*
X432818Y306366D01*
X433736D01*
X434195Y306825D01*
X455872Y294521D02*
X456331Y294980D01*
X457250D01*
X457709Y294521D01*
Y292684D01*
X457250Y292225D01*
X456331D01*
X455872Y292684D01*
X454954Y294521D02*
X454495Y294980D01*
X453576D01*
X453117Y294521D01*
Y294061D01*
X453576Y293602D01*
X453117Y293143D01*
Y292684D01*
X453576Y292225D01*
X454495D01*
X454954Y292684D01*
Y293143D01*
X454495Y293602D01*
X454954Y294061D01*
Y294521D01*
X454495Y293602D02*
X453576D01*
X450362Y292225D02*
X452199D01*
X450362Y294061D01*
Y294521D01*
X450821Y294980D01*
X451740D01*
X452199Y294521D01*
X240320Y71883D02*
X240780Y72342D01*
X241698D01*
X242157Y71883D01*
Y70046D01*
X241698Y69587D01*
X240780D01*
X240320Y70046D01*
X237565Y69587D02*
X239402D01*
X237565Y71424D01*
Y71883D01*
X238025Y72342D01*
X238943D01*
X239402Y71883D01*
X236647Y70046D02*
X236188Y69587D01*
X235270D01*
X234810Y70046D01*
Y71883D01*
X235270Y72342D01*
X236188D01*
X236647Y71883D01*
Y71424D01*
X236188Y70965D01*
X234810D01*
X232055Y71883D02*
X232515Y72342D01*
X233433D01*
X233892Y71883D01*
Y70046D01*
X233433Y69587D01*
X232515D01*
X232055Y70046D01*
X240320Y180052D02*
X240780Y180511D01*
X241698D01*
X242157Y180052D01*
Y178216D01*
X241698Y177756D01*
X240780D01*
X240320Y178216D01*
X237565Y177756D02*
X239402D01*
X237565Y179593D01*
Y180052D01*
X238025Y180511D01*
X238943D01*
X239402Y180052D01*
X236647Y178216D02*
X236188Y177756D01*
X235270D01*
X234810Y178216D01*
Y180052D01*
X235270Y180511D01*
X236188D01*
X236647Y180052D01*
Y179593D01*
X236188Y179134D01*
X234810D01*
X233892Y180511D02*
Y177756D01*
X232515D01*
X232055Y178216D01*
Y178675D01*
X232515Y179134D01*
X233892D01*
X232515D01*
X232055Y179593D01*
Y180052D01*
X232515Y180511D01*
X233892D01*
X240320Y281430D02*
X240780Y281889D01*
X241698D01*
X242157Y281430D01*
Y279593D01*
X241698Y279134D01*
X240780D01*
X240320Y279593D01*
X237565Y279134D02*
X239402D01*
X237565Y280971D01*
Y281430D01*
X238025Y281889D01*
X238943D01*
X239402Y281430D01*
X236647Y279593D02*
X236188Y279134D01*
X235270D01*
X234810Y279593D01*
Y281430D01*
X235270Y281889D01*
X236188D01*
X236647Y281430D01*
Y280971D01*
X236188Y280512D01*
X234810D01*
X233892Y279134D02*
Y280971D01*
X232974Y281889D01*
X232055Y280971D01*
Y279134D01*
Y280512D01*
X233892D01*
X176541Y106135D02*
X177000Y106594D01*
X177919D01*
X178378Y106135D01*
Y104298D01*
X177919Y103839D01*
X177000D01*
X176541Y104298D01*
X173786Y103839D02*
X175623D01*
X173786Y105676D01*
Y106135D01*
X174245Y106594D01*
X175163D01*
X175623Y106135D01*
X172868Y106594D02*
X171031D01*
Y106135D01*
X172868Y104298D01*
Y103839D01*
X168276Y106135D02*
X168735Y106594D01*
X169653D01*
X170113Y106135D01*
Y104298D01*
X169653Y103839D01*
X168735D01*
X168276Y104298D01*
X174573Y214501D02*
X175032Y214960D01*
X175950D01*
X176409Y214501D01*
Y212664D01*
X175950Y212205D01*
X175032D01*
X174573Y212664D01*
X171817Y212205D02*
X173654D01*
X171817Y214042D01*
Y214501D01*
X172277Y214960D01*
X173195D01*
X173654Y214501D01*
X170899Y214960D02*
X169062D01*
Y214501D01*
X170899Y212664D01*
Y212205D01*
X168144Y214960D02*
Y212205D01*
X166767D01*
X166307Y212664D01*
Y213123D01*
X166767Y213583D01*
X168144D01*
X166767D01*
X166307Y214042D01*
Y214501D01*
X166767Y214960D01*
X168144D01*
X176935Y315092D02*
X177394Y315551D01*
X178312D01*
X178771Y315092D01*
Y313255D01*
X178312Y312796D01*
X177394D01*
X176935Y313255D01*
X174180Y312796D02*
X176016D01*
X174180Y314632D01*
Y315092D01*
X174639Y315551D01*
X175557D01*
X176016Y315092D01*
X173261Y315551D02*
X171425D01*
Y315092D01*
X173261Y313255D01*
Y312796D01*
X170506D02*
Y314632D01*
X169588Y315551D01*
X168670Y314632D01*
Y312796D01*
Y314173D01*
X170506D01*
X189303Y338485D02*
Y341240D01*
X187926D01*
X187467Y340780D01*
Y339862D01*
X187926Y339403D01*
X189303D01*
X188385D02*
X187467Y338485D01*
X186548Y340780D02*
X186089Y341240D01*
X185171D01*
X184712Y340780D01*
Y340321D01*
X185171Y339862D01*
X184712Y339403D01*
Y338944D01*
X185171Y338485D01*
X186089D01*
X186548Y338944D01*
Y339403D01*
X186089Y339862D01*
X186548Y340321D01*
Y340780D01*
X186089Y339862D02*
X185171D01*
X181957Y338485D02*
X183793D01*
X181957Y340321D01*
Y340780D01*
X182416Y341240D01*
X183334D01*
X183793Y340780D01*
X188844Y332382D02*
Y335137D01*
X187467D01*
X187007Y334678D01*
Y333760D01*
X187467Y333301D01*
X188844D01*
X187926D02*
X187007Y332382D01*
X186089Y334678D02*
X185630Y335137D01*
X184712D01*
X184252Y334678D01*
Y334219D01*
X184712Y333760D01*
X184252Y333301D01*
Y332841D01*
X184712Y332382D01*
X185630D01*
X186089Y332841D01*
Y333301D01*
X185630Y333760D01*
X186089Y334219D01*
Y334678D01*
X185630Y333760D02*
X184712D01*
X183334Y332382D02*
X182416D01*
X182875D01*
Y335137D01*
X183334Y334678D01*
X96389Y44882D02*
Y47637D01*
X95012D01*
X94553Y47178D01*
Y46260D01*
X95012Y45801D01*
X96389D01*
X95471D02*
X94553Y44882D01*
X91798D02*
X93634D01*
X91798Y46719D01*
Y47178D01*
X92257Y47637D01*
X93175D01*
X93634Y47178D01*
X89043Y44882D02*
X90879D01*
X89043Y46719D01*
Y47178D01*
X89502Y47637D01*
X90420D01*
X90879Y47178D01*
X86288D02*
X86747Y47637D01*
X87665D01*
X88124Y47178D01*
Y45342D01*
X87665Y44882D01*
X86747D01*
X86288Y45342D01*
X68305Y50000D02*
Y52755D01*
X66928D01*
X66469Y52296D01*
Y51378D01*
X66928Y50919D01*
X68305D01*
X67387D02*
X66469Y50000D01*
X63714D02*
X65550D01*
X63714Y51837D01*
Y52296D01*
X64173Y52755D01*
X65091D01*
X65550Y52296D01*
X62795Y50000D02*
X61877D01*
X62336D01*
Y52755D01*
X62795Y52296D01*
X58663D02*
X59122Y52755D01*
X60040D01*
X60500Y52296D01*
Y50460D01*
X60040Y50000D01*
X59122D01*
X58663Y50460D01*
X66666Y58103D02*
X67125Y58562D01*
X68043D01*
X68502Y58103D01*
Y56267D01*
X68043Y55808D01*
X67125D01*
X66666Y56267D01*
X65747Y55808D02*
X64829D01*
X65288D01*
Y58562D01*
X65747Y58103D01*
X62074Y55808D02*
Y58562D01*
X63451Y57185D01*
X61615D01*
X58860Y58103D02*
X59319Y58562D01*
X60237D01*
X60696Y58103D01*
Y56267D01*
X60237Y55808D01*
X59319D01*
X58860Y56267D01*
X106626Y58103D02*
X107086Y58562D01*
X108004D01*
X108463Y58103D01*
Y56267D01*
X108004Y55808D01*
X107086D01*
X106626Y56267D01*
X105708Y55808D02*
X104790D01*
X105249D01*
Y58562D01*
X105708Y58103D01*
X103412D02*
X102953Y58562D01*
X102035D01*
X101576Y58103D01*
Y57644D01*
X102035Y57185D01*
X102494D01*
X102035D01*
X101576Y56726D01*
Y56267D01*
X102035Y55808D01*
X102953D01*
X103412Y56267D01*
X98820Y58103D02*
X99280Y58562D01*
X100198D01*
X100657Y58103D01*
Y56267D01*
X100198Y55808D01*
X99280D01*
X98820Y56267D01*
X125819Y26476D02*
Y24180D01*
X125360Y23721D01*
X124442D01*
X123982Y24180D01*
Y26476D01*
X123064Y26017D02*
X122605Y26476D01*
X121686D01*
X121227Y26017D01*
Y25558D01*
X121686Y25098D01*
X122146D01*
X121686D01*
X121227Y24639D01*
Y24180D01*
X121686Y23721D01*
X122605D01*
X123064Y24180D01*
X118472Y26017D02*
X118931Y26476D01*
X119850D01*
X120309Y26017D01*
Y24180D01*
X119850Y23721D01*
X118931D01*
X118472Y24180D01*
X125819Y135039D02*
Y132743D01*
X125360Y132284D01*
X124442D01*
X123982Y132743D01*
Y135039D01*
X123064Y134580D02*
X122605Y135039D01*
X121686D01*
X121227Y134580D01*
Y134121D01*
X121686Y133661D01*
X122146D01*
X121686D01*
X121227Y133202D01*
Y132743D01*
X121686Y132284D01*
X122605D01*
X123064Y132743D01*
X120309Y135039D02*
Y132284D01*
X118931D01*
X118472Y132743D01*
Y133202D01*
X118931Y133661D01*
X120309D01*
X118931D01*
X118472Y134121D01*
Y134580D01*
X118931Y135039D01*
X120309D01*
X126410Y235728D02*
Y233432D01*
X125950Y232973D01*
X125032D01*
X124573Y233432D01*
Y235728D01*
X123655Y235269D02*
X123195Y235728D01*
X122277D01*
X121818Y235269D01*
Y234810D01*
X122277Y234350D01*
X122736D01*
X122277D01*
X121818Y233891D01*
Y233432D01*
X122277Y232973D01*
X123195D01*
X123655Y233432D01*
X120899Y232973D02*
Y234810D01*
X119981Y235728D01*
X119063Y234810D01*
Y232973D01*
Y234350D01*
X120899D01*
X77165Y313582D02*
Y311287D01*
X76706Y310827D01*
X75788D01*
X75329Y311287D01*
Y313582D01*
X73033Y310827D02*
Y313582D01*
X74410Y312205D01*
X72574D01*
X71655Y310827D02*
Y312664D01*
X70737Y313582D01*
X69819Y312664D01*
Y310827D01*
Y312205D01*
X71655D01*
X77165Y212697D02*
Y210401D01*
X76706Y209941D01*
X75788D01*
X75328Y210401D01*
Y212697D01*
X73033Y209941D02*
Y212697D01*
X74410Y211319D01*
X72574D01*
X71655Y212697D02*
Y209941D01*
X70278D01*
X69819Y210401D01*
Y210860D01*
X70278Y211319D01*
X71655D01*
X70278D01*
X69819Y211778D01*
Y212237D01*
X70278Y212697D01*
X71655D01*
X77165Y104822D02*
Y102526D01*
X76706Y102067D01*
X75788D01*
X75329Y102526D01*
Y104822D01*
X73033Y102067D02*
Y104822D01*
X74410Y103445D01*
X72574D01*
X69819Y104363D02*
X70278Y104822D01*
X71196D01*
X71655Y104363D01*
Y102526D01*
X71196Y102067D01*
X70278D01*
X69819Y102526D01*
X114272Y184319D02*
X117027D01*
Y185697D01*
X116568Y186156D01*
X115650D01*
X115190Y185697D01*
Y184319D01*
Y185238D02*
X114272Y186156D01*
Y188911D02*
Y187074D01*
X116109Y188911D01*
X116568D01*
X117027Y188452D01*
Y187533D01*
X116568Y187074D01*
Y189829D02*
X117027Y190288D01*
Y191207D01*
X116568Y191666D01*
X116109D01*
X115650Y191207D01*
X115190Y191666D01*
X114731D01*
X114272Y191207D01*
Y190288D01*
X114731Y189829D01*
X115190D01*
X115650Y190288D01*
X116109Y189829D01*
X116568D01*
X115650Y190288D02*
Y191207D01*
X117027Y192584D02*
X114272D01*
Y193962D01*
X114731Y194421D01*
X115190D01*
X115650Y193962D01*
Y192584D01*
Y193962D01*
X116109Y194421D01*
X116568D01*
X117027Y193962D01*
Y192584D01*
X114272Y285205D02*
X117027D01*
Y286582D01*
X116568Y287042D01*
X115650D01*
X115190Y286582D01*
Y285205D01*
Y286123D02*
X114272Y287042D01*
Y289797D02*
Y287960D01*
X116109Y289797D01*
X116568D01*
X117027Y289338D01*
Y288419D01*
X116568Y287960D01*
Y290715D02*
X117027Y291174D01*
Y292093D01*
X116568Y292552D01*
X116109D01*
X115650Y292093D01*
X115190Y292552D01*
X114731D01*
X114272Y292093D01*
Y291174D01*
X114731Y290715D01*
X115190D01*
X115650Y291174D01*
X116109Y290715D01*
X116568D01*
X115650Y291174D02*
Y292093D01*
X114272Y293470D02*
X116109D01*
X117027Y294388D01*
X116109Y295307D01*
X114272D01*
X115650D01*
Y293470D01*
X110630Y184319D02*
X113385D01*
Y185697D01*
X112926Y186156D01*
X112008D01*
X111549Y185697D01*
Y184319D01*
Y185238D02*
X110630Y186156D01*
Y188911D02*
Y187074D01*
X112467Y188911D01*
X112926D01*
X113385Y188452D01*
Y187533D01*
X112926Y187074D01*
X113385Y189829D02*
Y191666D01*
X112926D01*
X111090Y189829D01*
X110630D01*
X113385Y192584D02*
X110630D01*
Y193962D01*
X111090Y194421D01*
X111549D01*
X112008Y193962D01*
Y192584D01*
Y193962D01*
X112467Y194421D01*
X112926D01*
X113385Y193962D01*
Y192584D01*
X110630Y285205D02*
X113385D01*
Y286582D01*
X112926Y287042D01*
X112008D01*
X111549Y286582D01*
Y285205D01*
Y286123D02*
X110630Y287042D01*
Y289797D02*
Y287960D01*
X112467Y289797D01*
X112926D01*
X113385Y289338D01*
Y288419D01*
X112926Y287960D01*
X113385Y290715D02*
Y292552D01*
X112926D01*
X111090Y290715D01*
X110630D01*
Y293470D02*
X112467D01*
X113385Y294388D01*
X112467Y295307D01*
X110630D01*
X112008D01*
Y293470D01*
X57087Y199378D02*
X59842D01*
Y200756D01*
X59383Y201215D01*
X58465D01*
X58005Y200756D01*
Y199378D01*
Y200297D02*
X57087Y201215D01*
Y203970D02*
Y202133D01*
X58924Y203970D01*
X59383D01*
X59842Y203511D01*
Y202592D01*
X59383Y202133D01*
X59842Y206725D02*
X59383Y205807D01*
X58465Y204888D01*
X57546D01*
X57087Y205347D01*
Y206266D01*
X57546Y206725D01*
X58005D01*
X58465Y206266D01*
Y204888D01*
X59842Y207643D02*
X57087D01*
Y209021D01*
X57546Y209480D01*
X58005D01*
X58465Y209021D01*
Y207643D01*
Y209021D01*
X58924Y209480D01*
X59383D01*
X59842Y209021D01*
Y207643D01*
X57087Y300264D02*
X59842D01*
Y301642D01*
X59383Y302101D01*
X58465D01*
X58005Y301642D01*
Y300264D01*
Y301182D02*
X57087Y302101D01*
Y304856D02*
Y303019D01*
X58924Y304856D01*
X59383D01*
X59842Y304397D01*
Y303478D01*
X59383Y303019D01*
X59842Y307611D02*
X59383Y306693D01*
X58465Y305774D01*
X57546D01*
X57087Y306233D01*
Y307152D01*
X57546Y307611D01*
X58005D01*
X58465Y307152D01*
Y305774D01*
X57087Y308529D02*
X58924D01*
X59842Y309448D01*
X58924Y310366D01*
X57087D01*
X58465D01*
Y308529D01*
X87107Y199378D02*
X89862D01*
Y200756D01*
X89403Y201215D01*
X88484D01*
X88025Y200756D01*
Y199378D01*
Y200297D02*
X87107Y201215D01*
Y203970D02*
Y202133D01*
X88943Y203970D01*
X89403D01*
X89862Y203511D01*
Y202592D01*
X89403Y202133D01*
X89862Y206725D02*
Y204888D01*
X88484D01*
X88943Y205807D01*
Y206266D01*
X88484Y206725D01*
X87566D01*
X87107Y206266D01*
Y205347D01*
X87566Y204888D01*
X89862Y207643D02*
X87107D01*
Y209021D01*
X87566Y209480D01*
X88025D01*
X88484Y209021D01*
Y207643D01*
Y209021D01*
X88943Y209480D01*
X89403D01*
X89862Y209021D01*
Y207643D01*
X87107Y300264D02*
X89862D01*
Y301642D01*
X89403Y302101D01*
X88484D01*
X88025Y301642D01*
Y300264D01*
Y301182D02*
X87107Y302101D01*
Y304856D02*
Y303019D01*
X88943Y304856D01*
X89403D01*
X89862Y304397D01*
Y303478D01*
X89403Y303019D01*
X89862Y307611D02*
Y305774D01*
X88484D01*
X88943Y306693D01*
Y307152D01*
X88484Y307611D01*
X87566D01*
X87107Y307152D01*
Y306233D01*
X87566Y305774D01*
X87107Y308529D02*
X88943D01*
X89862Y309448D01*
X88943Y310366D01*
X87107D01*
X88484D01*
Y308529D01*
X30020Y184319D02*
X32775D01*
Y185697D01*
X32316Y186156D01*
X31398D01*
X30939Y185697D01*
Y184319D01*
Y185238D02*
X30020Y186156D01*
Y188911D02*
Y187074D01*
X31857Y188911D01*
X32316D01*
X32775Y188452D01*
Y187533D01*
X32316Y187074D01*
X30020Y191207D02*
X32775D01*
X31398Y189829D01*
Y191666D01*
X32775Y192584D02*
X30020D01*
Y193962D01*
X30479Y194421D01*
X30939D01*
X31398Y193962D01*
Y192584D01*
Y193962D01*
X31857Y194421D01*
X32316D01*
X32775Y193962D01*
Y192584D01*
X30217Y285205D02*
X32972D01*
Y286582D01*
X32513Y287042D01*
X31594D01*
X31135Y286582D01*
Y285205D01*
Y286123D02*
X30217Y287042D01*
Y289797D02*
Y287960D01*
X32054Y289797D01*
X32513D01*
X32972Y289338D01*
Y288419D01*
X32513Y287960D01*
X30217Y292093D02*
X32972D01*
X31594Y290715D01*
Y292552D01*
X30217Y293470D02*
X32054D01*
X32972Y294388D01*
X32054Y295307D01*
X30217D01*
X31594D01*
Y293470D01*
X33662Y184319D02*
X36417D01*
Y185697D01*
X35958Y186156D01*
X35039D01*
X34580Y185697D01*
Y184319D01*
Y185238D02*
X33662Y186156D01*
Y188911D02*
Y187074D01*
X35498Y188911D01*
X35958D01*
X36417Y188452D01*
Y187533D01*
X35958Y187074D01*
Y189829D02*
X36417Y190288D01*
Y191207D01*
X35958Y191666D01*
X35498D01*
X35039Y191207D01*
Y190748D01*
Y191207D01*
X34580Y191666D01*
X34121D01*
X33662Y191207D01*
Y190288D01*
X34121Y189829D01*
X36417Y192584D02*
X33662D01*
Y193962D01*
X34121Y194421D01*
X34580D01*
X35039Y193962D01*
Y192584D01*
Y193962D01*
X35498Y194421D01*
X35958D01*
X36417Y193962D01*
Y192584D01*
X33859Y285205D02*
X36614D01*
Y286582D01*
X36155Y287042D01*
X35236D01*
X34777Y286582D01*
Y285205D01*
Y286123D02*
X33859Y287042D01*
Y289797D02*
Y287960D01*
X35695Y289797D01*
X36155D01*
X36614Y289338D01*
Y288419D01*
X36155Y287960D01*
Y290715D02*
X36614Y291174D01*
Y292093D01*
X36155Y292552D01*
X35695D01*
X35236Y292093D01*
Y291633D01*
Y292093D01*
X34777Y292552D01*
X34318D01*
X33859Y292093D01*
Y291174D01*
X34318Y290715D01*
X33859Y293470D02*
X35695D01*
X36614Y294388D01*
X35695Y295307D01*
X33859D01*
X35236D01*
Y293470D01*
X96586Y154036D02*
Y156791D01*
X95209D01*
X94750Y156332D01*
Y155413D01*
X95209Y154954D01*
X96586D01*
X95668D02*
X94750Y154036D01*
X91995D02*
X93831D01*
X91995Y155873D01*
Y156332D01*
X92454Y156791D01*
X93372D01*
X93831Y156332D01*
X89240Y154036D02*
X91076D01*
X89240Y155873D01*
Y156332D01*
X89699Y156791D01*
X90617D01*
X91076Y156332D01*
X88321Y156791D02*
Y154036D01*
X86944D01*
X86485Y154495D01*
Y154954D01*
X86944Y155413D01*
X88321D01*
X86944D01*
X86485Y155873D01*
Y156332D01*
X86944Y156791D01*
X88321D01*
X96488Y253741D02*
Y256496D01*
X95110D01*
X94651Y256036D01*
Y255118D01*
X95110Y254659D01*
X96488D01*
X95569D02*
X94651Y253741D01*
X91896D02*
X93733D01*
X91896Y255577D01*
Y256036D01*
X92355Y256496D01*
X93274D01*
X93733Y256036D01*
X89141Y253741D02*
X90978D01*
X89141Y255577D01*
Y256036D01*
X89600Y256496D01*
X90519D01*
X90978Y256036D01*
X88223Y253741D02*
Y255577D01*
X87305Y256496D01*
X86386Y255577D01*
Y253741D01*
Y255118D01*
X88223D01*
X68404Y158957D02*
Y161712D01*
X67026D01*
X66567Y161253D01*
Y160335D01*
X67026Y159875D01*
X68404D01*
X67486D02*
X66567Y158957D01*
X63812D02*
X65649D01*
X63812Y160794D01*
Y161253D01*
X64271Y161712D01*
X65190D01*
X65649Y161253D01*
X62894Y158957D02*
X61976D01*
X62435D01*
Y161712D01*
X62894Y161253D01*
X60598Y161712D02*
Y158957D01*
X59221D01*
X58761Y159416D01*
Y159875D01*
X59221Y160335D01*
X60598D01*
X59221D01*
X58761Y160794D01*
Y161253D01*
X59221Y161712D01*
X60598D01*
X68305Y258760D02*
Y261515D01*
X66928D01*
X66469Y261056D01*
Y260138D01*
X66928Y259678D01*
X68305D01*
X67387D02*
X66469Y258760D01*
X63714D02*
X65550D01*
X63714Y260597D01*
Y261056D01*
X64173Y261515D01*
X65091D01*
X65550Y261056D01*
X62795Y258760D02*
X61877D01*
X62336D01*
Y261515D01*
X62795Y261056D01*
X60499Y258760D02*
Y260597D01*
X59581Y261515D01*
X58663Y260597D01*
Y258760D01*
Y260138D01*
X60499D01*
X77165Y220570D02*
Y217815D01*
X75329D01*
X72574Y220570D02*
X73492Y220111D01*
X74410Y219193D01*
Y218275D01*
X73951Y217815D01*
X73033D01*
X72574Y218275D01*
Y218734D01*
X73033Y219193D01*
X74410D01*
X71655Y220570D02*
Y217815D01*
X70278D01*
X69819Y218275D01*
Y218734D01*
X70278Y219193D01*
X71655D01*
X70278D01*
X69819Y219652D01*
Y220111D01*
X70278Y220570D01*
X71655D01*
X77166Y321457D02*
Y318702D01*
X75329D01*
X72574Y321457D02*
X73492Y320997D01*
X74411Y320079D01*
Y319161D01*
X73951Y318702D01*
X73033D01*
X72574Y319161D01*
Y319620D01*
X73033Y320079D01*
X74411D01*
X71655Y318702D02*
Y320538D01*
X70737Y321457D01*
X69819Y320538D01*
Y318702D01*
Y320079D01*
X71655D01*
X76706Y216174D02*
X77165Y216633D01*
X78084D01*
X78543Y216174D01*
Y214338D01*
X78084Y213878D01*
X77165D01*
X76706Y214338D01*
X75788Y216174D02*
X75329Y216633D01*
X74410D01*
X73951Y216174D01*
Y215715D01*
X74410Y215256D01*
X73951Y214797D01*
Y214338D01*
X74410Y213878D01*
X75329D01*
X75788Y214338D01*
Y214797D01*
X75329Y215256D01*
X75788Y215715D01*
Y216174D01*
X75329Y215256D02*
X74410D01*
X73033Y216174D02*
X72574Y216633D01*
X71655D01*
X71196Y216174D01*
Y214338D01*
X71655Y213878D01*
X72574D01*
X73033Y214338D01*
Y216174D01*
X70278Y216633D02*
Y213878D01*
X68900D01*
X68441Y214338D01*
Y214797D01*
X68900Y215256D01*
X70278D01*
X68900D01*
X68441Y215715D01*
Y216174D01*
X68900Y216633D01*
X70278D01*
X76706Y317060D02*
X77166Y317519D01*
X78084D01*
X78543Y317060D01*
Y315224D01*
X78084Y314764D01*
X77166D01*
X76706Y315224D01*
X75788Y317060D02*
X75329Y317519D01*
X74410D01*
X73951Y317060D01*
Y316601D01*
X74410Y316142D01*
X73951Y315683D01*
Y315224D01*
X74410Y314764D01*
X75329D01*
X75788Y315224D01*
Y315683D01*
X75329Y316142D01*
X75788Y316601D01*
Y317060D01*
X75329Y316142D02*
X74410D01*
X73033Y317060D02*
X72574Y317519D01*
X71655D01*
X71196Y317060D01*
Y315224D01*
X71655Y314764D01*
X72574D01*
X73033Y315224D01*
Y317060D01*
X70278Y314764D02*
Y316601D01*
X69360Y317519D01*
X68441Y316601D01*
Y314764D01*
Y316142D01*
X70278D01*
X86777Y176607D02*
X87236Y177067D01*
X88155D01*
X88614Y176607D01*
Y174771D01*
X88155Y174311D01*
X87236D01*
X86777Y174771D01*
X84022Y174311D02*
X85859D01*
X84022Y176148D01*
Y176607D01*
X84481Y177067D01*
X85400D01*
X85859Y176607D01*
X83104D02*
X82645Y177067D01*
X81726D01*
X81267Y176607D01*
Y176148D01*
X81726Y175689D01*
X82186D01*
X81726D01*
X81267Y175230D01*
Y174771D01*
X81726Y174311D01*
X82645D01*
X83104Y174771D01*
X80349Y177067D02*
Y174311D01*
X78971D01*
X78512Y174771D01*
Y175230D01*
X78971Y175689D01*
X80349D01*
X78971D01*
X78512Y176148D01*
Y176607D01*
X78971Y177067D01*
X80349D01*
X86777Y277395D02*
X87236Y277854D01*
X88155D01*
X88614Y277395D01*
Y275558D01*
X88155Y275099D01*
X87236D01*
X86777Y275558D01*
X84022Y275099D02*
X85859D01*
X84022Y276936D01*
Y277395D01*
X84481Y277854D01*
X85400D01*
X85859Y277395D01*
X83104D02*
X82645Y277854D01*
X81726D01*
X81267Y277395D01*
Y276936D01*
X81726Y276476D01*
X82186D01*
X81726D01*
X81267Y276017D01*
Y275558D01*
X81726Y275099D01*
X82645D01*
X83104Y275558D01*
X80349Y275099D02*
Y276936D01*
X79431Y277854D01*
X78512Y276936D01*
Y275099D01*
Y276476D01*
X80349D01*
X39599Y186386D02*
X40059Y185926D01*
Y185008D01*
X39599Y184549D01*
X37763D01*
X37304Y185008D01*
Y185926D01*
X37763Y186386D01*
X37304Y187304D02*
Y188222D01*
Y187763D01*
X40059D01*
X39599Y187304D01*
X40059Y191436D02*
X39599Y190518D01*
X38681Y189600D01*
X37763D01*
X37304Y190059D01*
Y190977D01*
X37763Y191436D01*
X38222D01*
X38681Y190977D01*
Y189600D01*
X40059Y192355D02*
X37304D01*
Y193732D01*
X37763Y194191D01*
X38222D01*
X38681Y193732D01*
Y192355D01*
Y193732D01*
X39140Y194191D01*
X39599D01*
X40059Y193732D01*
Y192355D01*
X39698Y287271D02*
X40157Y286812D01*
Y285894D01*
X39698Y285435D01*
X37861D01*
X37402Y285894D01*
Y286812D01*
X37861Y287271D01*
X37402Y288190D02*
Y289108D01*
Y288649D01*
X40157D01*
X39698Y288190D01*
X40157Y292322D02*
X39698Y291404D01*
X38780Y290486D01*
X37861D01*
X37402Y290945D01*
Y291863D01*
X37861Y292322D01*
X38320D01*
X38780Y291863D01*
Y290486D01*
X37402Y293240D02*
X39239D01*
X40157Y294159D01*
X39239Y295077D01*
X37402D01*
X38780D01*
Y293240D01*
X109284Y186386D02*
X109744Y185926D01*
Y185008D01*
X109284Y184549D01*
X107448D01*
X106989Y185008D01*
Y185926D01*
X107448Y186386D01*
X106989Y187304D02*
Y188222D01*
Y187763D01*
X109744D01*
X109284Y187304D01*
X109744Y191436D02*
Y189600D01*
X108366D01*
X108825Y190518D01*
Y190977D01*
X108366Y191436D01*
X107448D01*
X106989Y190977D01*
Y190059D01*
X107448Y189600D01*
X109744Y192355D02*
X106989D01*
Y193732D01*
X107448Y194191D01*
X107907D01*
X108366Y193732D01*
Y192355D01*
Y193732D01*
X108825Y194191D01*
X109284D01*
X109744Y193732D01*
Y192355D01*
X109284Y287271D02*
X109744Y286812D01*
Y285894D01*
X109284Y285435D01*
X107448D01*
X106989Y285894D01*
Y286812D01*
X107448Y287271D01*
X106989Y288190D02*
Y289108D01*
Y288649D01*
X109744D01*
X109284Y288190D01*
X109744Y292322D02*
Y290486D01*
X108366D01*
X108825Y291404D01*
Y291863D01*
X108366Y292322D01*
X107448D01*
X106989Y291863D01*
Y290945D01*
X107448Y290486D01*
X106989Y293240D02*
X108825D01*
X109744Y294159D01*
X108825Y295077D01*
X106989D01*
X108366D01*
Y293240D01*
X66764Y165780D02*
X67223Y166240D01*
X68142D01*
X68601Y165780D01*
Y163944D01*
X68142Y163485D01*
X67223D01*
X66764Y163944D01*
X65846Y163485D02*
X64927D01*
X65387D01*
Y166240D01*
X65846Y165780D01*
X62172Y163485D02*
Y166240D01*
X63550Y164862D01*
X61713D01*
X60795Y166240D02*
Y163485D01*
X59417D01*
X58958Y163944D01*
Y164403D01*
X59417Y164862D01*
X60795D01*
X59417D01*
X58958Y165321D01*
Y165780D01*
X59417Y166240D01*
X60795D01*
X66567Y266568D02*
X67026Y267027D01*
X67945D01*
X68404Y266568D01*
Y264731D01*
X67945Y264272D01*
X67026D01*
X66567Y264731D01*
X65649Y264272D02*
X64731D01*
X65190D01*
Y267027D01*
X65649Y266568D01*
X61976Y264272D02*
Y267027D01*
X63353Y265650D01*
X61516D01*
X60598Y264272D02*
Y266109D01*
X59680Y267027D01*
X58761Y266109D01*
Y264272D01*
Y265650D01*
X60598D01*
X106922Y167257D02*
X107381Y167716D01*
X108299D01*
X108758Y167257D01*
Y165420D01*
X108299Y164961D01*
X107381D01*
X106922Y165420D01*
X106003Y164961D02*
X105085D01*
X105544D01*
Y167716D01*
X106003Y167257D01*
X103707D02*
X103248Y167716D01*
X102330D01*
X101871Y167257D01*
Y166798D01*
X102330Y166338D01*
X102789D01*
X102330D01*
X101871Y165879D01*
Y165420D01*
X102330Y164961D01*
X103248D01*
X103707Y165420D01*
X100952Y167716D02*
Y164961D01*
X99575D01*
X99116Y165420D01*
Y165879D01*
X99575Y166338D01*
X100952D01*
X99575D01*
X99116Y166798D01*
Y167257D01*
X99575Y167716D01*
X100952D01*
X106823Y266568D02*
X107282Y267027D01*
X108201D01*
X108660Y266568D01*
Y264731D01*
X108201Y264272D01*
X107282D01*
X106823Y264731D01*
X105905Y264272D02*
X104986D01*
X105446D01*
Y267027D01*
X105905Y266568D01*
X103609D02*
X103150Y267027D01*
X102231D01*
X101772Y266568D01*
Y266109D01*
X102231Y265650D01*
X102690D01*
X102231D01*
X101772Y265190D01*
Y264731D01*
X102231Y264272D01*
X103150D01*
X103609Y264731D01*
X100854Y264272D02*
Y266109D01*
X99936Y267027D01*
X99017Y266109D01*
Y264272D01*
Y265650D01*
X100854D01*
X55149Y66339D02*
Y69094D01*
X53772D01*
X53313Y68635D01*
Y67716D01*
X53772Y67257D01*
X55149D01*
X54231D02*
X53313Y66339D01*
X52394Y69094D02*
X50558D01*
Y68635D01*
X52394Y66798D01*
Y66339D01*
X49639Y68635D02*
X49180Y69094D01*
X48262D01*
X47803Y68635D01*
Y68176D01*
X48262Y67716D01*
X48721D01*
X48262D01*
X47803Y67257D01*
Y66798D01*
X48262Y66339D01*
X49180D01*
X49639Y66798D01*
X45048Y68635D02*
X45507Y69094D01*
X46425D01*
X46884Y68635D01*
Y66798D01*
X46425Y66339D01*
X45507D01*
X45048Y66798D01*
X55149Y174213D02*
Y176968D01*
X53772D01*
X53313Y176509D01*
Y175591D01*
X53772Y175131D01*
X55149D01*
X54231D02*
X53313Y174213D01*
X52394Y176968D02*
X50558D01*
Y176509D01*
X52394Y174672D01*
Y174213D01*
X49639Y176509D02*
X49180Y176968D01*
X48262D01*
X47803Y176509D01*
Y176050D01*
X48262Y175591D01*
X48721D01*
X48262D01*
X47803Y175131D01*
Y174672D01*
X48262Y174213D01*
X49180D01*
X49639Y174672D01*
X46884Y176968D02*
Y174213D01*
X45507D01*
X45048Y174672D01*
Y175131D01*
X45507Y175591D01*
X46884D01*
X45507D01*
X45048Y176050D01*
Y176509D01*
X45507Y176968D01*
X46884D01*
X55149Y275099D02*
Y277854D01*
X53772D01*
X53313Y277395D01*
Y276476D01*
X53772Y276017D01*
X55149D01*
X54231D02*
X53313Y275099D01*
X52394Y277854D02*
X50558D01*
Y277395D01*
X52394Y275558D01*
Y275099D01*
X49639Y277395D02*
X49180Y277854D01*
X48262D01*
X47803Y277395D01*
Y276936D01*
X48262Y276476D01*
X48721D01*
X48262D01*
X47803Y276017D01*
Y275558D01*
X48262Y275099D01*
X49180D01*
X49639Y275558D01*
X46884Y275099D02*
Y276936D01*
X45966Y277854D01*
X45048Y276936D01*
Y275099D01*
Y276476D01*
X46884D01*
X55149Y60237D02*
Y62992D01*
X53772D01*
X53313Y62533D01*
Y61614D01*
X53772Y61155D01*
X55149D01*
X54231D02*
X53313Y60237D01*
X52394Y62992D02*
X50558D01*
Y62533D01*
X52394Y60696D01*
Y60237D01*
X47803D02*
X49639D01*
X47803Y62073D01*
Y62533D01*
X48262Y62992D01*
X49180D01*
X49639Y62533D01*
X45048D02*
X45507Y62992D01*
X46425D01*
X46884Y62533D01*
Y60696D01*
X46425Y60237D01*
X45507D01*
X45048Y60696D01*
X55149Y168406D02*
Y171161D01*
X53772D01*
X53313Y170702D01*
Y169783D01*
X53772Y169324D01*
X55149D01*
X54231D02*
X53313Y168406D01*
X52394Y171161D02*
X50558D01*
Y170702D01*
X52394Y168865D01*
Y168406D01*
X47803D02*
X49639D01*
X47803Y170243D01*
Y170702D01*
X48262Y171161D01*
X49180D01*
X49639Y170702D01*
X46884Y171161D02*
Y168406D01*
X45507D01*
X45048Y168865D01*
Y169324D01*
X45507Y169783D01*
X46884D01*
X45507D01*
X45048Y170243D01*
Y170702D01*
X45507Y171161D01*
X46884D01*
X55149Y269292D02*
Y272047D01*
X53772D01*
X53313Y271588D01*
Y270669D01*
X53772Y270210D01*
X55149D01*
X54231D02*
X53313Y269292D01*
X52394Y272047D02*
X50558D01*
Y271588D01*
X52394Y269751D01*
Y269292D01*
X47803D02*
X49639D01*
X47803Y271129D01*
Y271588D01*
X48262Y272047D01*
X49180D01*
X49639Y271588D01*
X46884Y269292D02*
Y271129D01*
X45966Y272047D01*
X45048Y271129D01*
Y269292D01*
Y270669D01*
X46884D01*
X205199Y168405D02*
Y166109D01*
X204740Y165650D01*
X203822D01*
X203363Y166109D01*
Y168405D01*
X202444Y165650D02*
X201526D01*
X201985D01*
Y168405D01*
X202444Y167946D01*
X200148Y168405D02*
X198312D01*
Y167946D01*
X200148Y166109D01*
Y165650D01*
X197393Y168405D02*
Y165650D01*
X196016D01*
X195557Y166109D01*
Y166568D01*
X196016Y167028D01*
X197393D01*
X196016D01*
X195557Y167487D01*
Y167946D01*
X196016Y168405D01*
X197393D01*
X141337Y7579D02*
Y10334D01*
X139960D01*
X139500Y9875D01*
Y8957D01*
X139960Y8497D01*
X141337D01*
X140419D02*
X139500Y7579D01*
X138582D02*
X137664D01*
X138123D01*
Y10334D01*
X138582Y9875D01*
X134450Y10334D02*
X136286D01*
Y8957D01*
X135368Y9416D01*
X134909D01*
X134450Y8957D01*
Y8038D01*
X134909Y7579D01*
X135827D01*
X136286Y8038D01*
X131694Y9875D02*
X132154Y10334D01*
X133072D01*
X133531Y9875D01*
Y8038D01*
X133072Y7579D01*
X132154D01*
X131694Y8038D01*
X156513Y14715D02*
X156972Y14256D01*
Y13338D01*
X156513Y12878D01*
X154676D01*
X154217Y13338D01*
Y14256D01*
X154676Y14715D01*
X156513Y15633D02*
X156972Y16093D01*
Y17011D01*
X156513Y17470D01*
X156054D01*
X155595Y17011D01*
X155135Y17470D01*
X154676D01*
X154217Y17011D01*
Y16093D01*
X154676Y15633D01*
X155135D01*
X155595Y16093D01*
X156054Y15633D01*
X156513D01*
X155595Y16093D02*
Y17011D01*
X156513Y18388D02*
X156972Y18848D01*
Y19766D01*
X156513Y20225D01*
X156054D01*
X155595Y19766D01*
Y19307D01*
Y19766D01*
X155135Y20225D01*
X154676D01*
X154217Y19766D01*
Y18848D01*
X154676Y18388D01*
X156513Y22980D02*
X156972Y22521D01*
Y21603D01*
X156513Y21144D01*
X154676D01*
X154217Y21603D01*
Y22521D01*
X154676Y22980D01*
X156529Y121998D02*
X156988Y121539D01*
Y120621D01*
X156529Y120162D01*
X154692D01*
X154233Y120621D01*
Y121539D01*
X154692Y121998D01*
X156529Y122917D02*
X156988Y123376D01*
Y124294D01*
X156529Y124753D01*
X156069D01*
X155610Y124294D01*
X155151Y124753D01*
X154692D01*
X154233Y124294D01*
Y123376D01*
X154692Y122917D01*
X155151D01*
X155610Y123376D01*
X156069Y122917D01*
X156529D01*
X155610Y123376D02*
Y124294D01*
X156529Y125672D02*
X156988Y126131D01*
Y127049D01*
X156529Y127508D01*
X156069D01*
X155610Y127049D01*
Y126590D01*
Y127049D01*
X155151Y127508D01*
X154692D01*
X154233Y127049D01*
Y126131D01*
X154692Y125672D01*
X156988Y128427D02*
X154233D01*
Y129804D01*
X154692Y130263D01*
X155151D01*
X155610Y129804D01*
Y128427D01*
Y129804D01*
X156069Y130263D01*
X156529D01*
X156988Y129804D01*
Y128427D01*
X156688Y224200D02*
X157147Y223741D01*
Y222823D01*
X156688Y222363D01*
X154851D01*
X154392Y222823D01*
Y223741D01*
X154851Y224200D01*
X156688Y225118D02*
X157147Y225578D01*
Y226496D01*
X156688Y226955D01*
X156229D01*
X155770Y226496D01*
X155310Y226955D01*
X154851D01*
X154392Y226496D01*
Y225578D01*
X154851Y225118D01*
X155310D01*
X155770Y225578D01*
X156229Y225118D01*
X156688D01*
X155770Y225578D02*
Y226496D01*
X156688Y227873D02*
X157147Y228333D01*
Y229251D01*
X156688Y229710D01*
X156229D01*
X155770Y229251D01*
Y228792D01*
Y229251D01*
X155310Y229710D01*
X154851D01*
X154392Y229251D01*
Y228333D01*
X154851Y227873D01*
X154392Y230628D02*
X156229D01*
X157147Y231547D01*
X156229Y232465D01*
X154392D01*
X155770D01*
Y230628D01*
X205199Y60433D02*
Y58137D01*
X204740Y57678D01*
X203822D01*
X203363Y58137D01*
Y60433D01*
X202444Y57678D02*
X201526D01*
X201985D01*
Y60433D01*
X202444Y59974D01*
X200148Y60433D02*
X198312D01*
Y59974D01*
X200148Y58137D01*
Y57678D01*
X195557Y59974D02*
X196016Y60433D01*
X196934D01*
X197393Y59974D01*
Y58137D01*
X196934Y57678D01*
X196016D01*
X195557Y58137D01*
X164851Y51907D02*
X165310Y51447D01*
Y50529D01*
X164851Y50070D01*
X163014D01*
X162555Y50529D01*
Y51447D01*
X163014Y51907D01*
X164851Y52825D02*
X165310Y53284D01*
Y54202D01*
X164851Y54662D01*
X164392D01*
X163932Y54202D01*
X163473Y54662D01*
X163014D01*
X162555Y54202D01*
Y53284D01*
X163014Y52825D01*
X163473D01*
X163932Y53284D01*
X164392Y52825D01*
X164851D01*
X163932Y53284D02*
Y54202D01*
X164851Y57417D02*
X165310Y56958D01*
Y56039D01*
X164851Y55580D01*
X163014D01*
X162555Y56039D01*
Y56958D01*
X163014Y57417D01*
X173014Y35731D02*
Y33435D01*
X172555Y32976D01*
X171637D01*
X171177Y33435D01*
Y35731D01*
X170259Y32976D02*
X169341D01*
X169800D01*
Y35731D01*
X170259Y35272D01*
X166586Y32976D02*
Y35731D01*
X167963Y34354D01*
X166127D01*
X163372Y35272D02*
X163831Y35731D01*
X164749D01*
X165208Y35272D01*
Y33435D01*
X164749Y32976D01*
X163831D01*
X163372Y33435D01*
X30020Y76544D02*
X32775D01*
Y77921D01*
X32316Y78380D01*
X31398D01*
X30939Y77921D01*
Y76544D01*
Y77462D02*
X30020Y78380D01*
Y81135D02*
Y79299D01*
X31857Y81135D01*
X32316D01*
X32775Y80676D01*
Y79758D01*
X32316Y79299D01*
X30020Y83431D02*
X32775D01*
X31398Y82054D01*
Y83890D01*
X32316Y86645D02*
X32775Y86186D01*
Y85268D01*
X32316Y84809D01*
X30479D01*
X30020Y85268D01*
Y86186D01*
X30479Y86645D01*
X148356Y59827D02*
X151111D01*
Y61205D01*
X150652Y61664D01*
X149734D01*
X149275Y61205D01*
Y59827D01*
Y60746D02*
X148356Y61664D01*
Y62582D02*
Y63501D01*
Y63042D01*
X151111D01*
X150652Y62582D01*
X148356Y66715D02*
Y64878D01*
X150193Y66715D01*
X150652D01*
X151111Y66256D01*
Y65338D01*
X150652Y64878D01*
Y69470D02*
X151111Y69011D01*
Y68093D01*
X150652Y67633D01*
X148815D01*
X148356Y68093D01*
Y69011D01*
X148815Y69470D01*
X244095Y349968D02*
X246850D01*
Y351346D01*
X246391Y351805D01*
X245472D01*
X245013Y351346D01*
Y349968D01*
Y350887D02*
X244095Y351805D01*
X246850Y354560D02*
X246391Y353642D01*
X245472Y352723D01*
X244554D01*
X244095Y353183D01*
Y354101D01*
X244554Y354560D01*
X245013D01*
X245472Y354101D01*
Y352723D01*
X244095Y356856D02*
X246850D01*
X245472Y355478D01*
Y357315D01*
X247737Y349968D02*
X250492D01*
Y351346D01*
X250032Y351805D01*
X249114D01*
X248655Y351346D01*
Y349968D01*
Y350887D02*
X247737Y351805D01*
X250492Y354560D02*
X250032Y353642D01*
X249114Y352723D01*
X248196D01*
X247737Y353183D01*
Y354101D01*
X248196Y354560D01*
X248655D01*
X249114Y354101D01*
Y352723D01*
X250032Y355478D02*
X250492Y355938D01*
Y356856D01*
X250032Y357315D01*
X249573D01*
X249114Y356856D01*
Y356397D01*
Y356856D01*
X248655Y357315D01*
X248196D01*
X247737Y356856D01*
Y355938D01*
X248196Y355478D01*
X114272Y76445D02*
X117027D01*
Y77823D01*
X116568Y78282D01*
X115650D01*
X115190Y77823D01*
Y76445D01*
Y77364D02*
X114272Y78282D01*
Y81037D02*
Y79200D01*
X116109Y81037D01*
X116568D01*
X117027Y80578D01*
Y79659D01*
X116568Y79200D01*
Y81955D02*
X117027Y82414D01*
Y83333D01*
X116568Y83792D01*
X116109D01*
X115650Y83333D01*
X115190Y83792D01*
X114731D01*
X114272Y83333D01*
Y82414D01*
X114731Y81955D01*
X115190D01*
X115650Y82414D01*
X116109Y81955D01*
X116568D01*
X115650Y82414D02*
Y83333D01*
X116568Y86547D02*
X117027Y86088D01*
Y85169D01*
X116568Y84710D01*
X114731D01*
X114272Y85169D01*
Y86088D01*
X114731Y86547D01*
X110630Y76445D02*
X113385D01*
Y77823D01*
X112926Y78282D01*
X112008D01*
X111549Y77823D01*
Y76445D01*
Y77364D02*
X110630Y78282D01*
Y81037D02*
Y79200D01*
X112467Y81037D01*
X112926D01*
X113385Y80578D01*
Y79659D01*
X112926Y79200D01*
X113385Y81955D02*
Y83792D01*
X112926D01*
X111090Y81955D01*
X110630D01*
X112926Y86547D02*
X113385Y86088D01*
Y85169D01*
X112926Y84710D01*
X111090D01*
X110630Y85169D01*
Y86088D01*
X111090Y86547D01*
X57087Y91504D02*
X59842D01*
Y92882D01*
X59383Y93341D01*
X58465D01*
X58005Y92882D01*
Y91504D01*
Y92423D02*
X57087Y93341D01*
Y96096D02*
Y94259D01*
X58924Y96096D01*
X59383D01*
X59842Y95637D01*
Y94718D01*
X59383Y94259D01*
X59842Y98851D02*
X59383Y97933D01*
X58465Y97014D01*
X57546D01*
X57087Y97474D01*
Y98392D01*
X57546Y98851D01*
X58005D01*
X58465Y98392D01*
Y97014D01*
X59383Y101606D02*
X59842Y101147D01*
Y100229D01*
X59383Y99769D01*
X57546D01*
X57087Y100229D01*
Y101147D01*
X57546Y101606D01*
X87107Y91504D02*
X89862D01*
Y92882D01*
X89403Y93341D01*
X88484D01*
X88025Y92882D01*
Y91504D01*
Y92423D02*
X87107Y93341D01*
Y96096D02*
Y94259D01*
X88943Y96096D01*
X89403D01*
X89862Y95637D01*
Y94718D01*
X89403Y94259D01*
X89862Y98851D02*
Y97014D01*
X88484D01*
X88943Y97933D01*
Y98392D01*
X88484Y98851D01*
X87566D01*
X87107Y98392D01*
Y97474D01*
X87566Y97014D01*
X89403Y101606D02*
X89862Y101147D01*
Y100229D01*
X89403Y99769D01*
X87566D01*
X87107Y100229D01*
Y101147D01*
X87566Y101606D01*
X33662Y76544D02*
X36417D01*
Y77921D01*
X35958Y78380D01*
X35039D01*
X34580Y77921D01*
Y76544D01*
Y77462D02*
X33662Y78380D01*
Y81135D02*
Y79299D01*
X35498Y81135D01*
X35958D01*
X36417Y80676D01*
Y79758D01*
X35958Y79299D01*
Y82054D02*
X36417Y82513D01*
Y83431D01*
X35958Y83890D01*
X35498D01*
X35039Y83431D01*
Y82972D01*
Y83431D01*
X34580Y83890D01*
X34121D01*
X33662Y83431D01*
Y82513D01*
X34121Y82054D01*
X35958Y86645D02*
X36417Y86186D01*
Y85268D01*
X35958Y84809D01*
X34121D01*
X33662Y85268D01*
Y86186D01*
X34121Y86645D01*
X115484Y29725D02*
Y32480D01*
X114106D01*
X113647Y32021D01*
Y31102D01*
X114106Y30643D01*
X115484D01*
X114566D02*
X113647Y29725D01*
X110892D02*
X112729D01*
X110892Y31561D01*
Y32021D01*
X111351Y32480D01*
X112270D01*
X112729Y32021D01*
X109974D02*
X109515Y32480D01*
X108596D01*
X108137Y32021D01*
Y30184D01*
X108596Y29725D01*
X109515D01*
X109974Y30184D01*
Y32021D01*
X105382D02*
X105841Y32480D01*
X106760D01*
X107219Y32021D01*
Y30184D01*
X106760Y29725D01*
X105841D01*
X105382Y30184D01*
X115484Y137894D02*
Y140649D01*
X114106D01*
X113647Y140190D01*
Y139272D01*
X114106Y138812D01*
X115484D01*
X114566D02*
X113647Y137894D01*
X110892D02*
X112729D01*
X110892Y139731D01*
Y140190D01*
X111351Y140649D01*
X112270D01*
X112729Y140190D01*
X109974D02*
X109515Y140649D01*
X108596D01*
X108137Y140190D01*
Y138353D01*
X108596Y137894D01*
X109515D01*
X109974Y138353D01*
Y140190D01*
X107219Y140649D02*
Y137894D01*
X105841D01*
X105382Y138353D01*
Y138812D01*
X105841Y139272D01*
X107219D01*
X105841D01*
X105382Y139731D01*
Y140190D01*
X105841Y140649D01*
X107219D01*
X115484Y238780D02*
Y241535D01*
X114106D01*
X113647Y241076D01*
Y240158D01*
X114106Y239698D01*
X115484D01*
X114566D02*
X113647Y238780D01*
X110892D02*
X112729D01*
X110892Y240617D01*
Y241076D01*
X111351Y241535D01*
X112270D01*
X112729Y241076D01*
X109974D02*
X109515Y241535D01*
X108596D01*
X108137Y241076D01*
Y239239D01*
X108596Y238780D01*
X109515D01*
X109974Y239239D01*
Y241076D01*
X107219Y238780D02*
Y240617D01*
X106300Y241535D01*
X105382Y240617D01*
Y238780D01*
Y240158D01*
X107219D01*
X115254Y49705D02*
Y52460D01*
X113877D01*
X113418Y52001D01*
Y51083D01*
X113877Y50624D01*
X115254D01*
X114336D02*
X113418Y49705D01*
X112499D02*
X111581D01*
X112040D01*
Y52460D01*
X112499Y52001D01*
X110204Y50164D02*
X109744Y49705D01*
X108826D01*
X108367Y50164D01*
Y52001D01*
X108826Y52460D01*
X109744D01*
X110204Y52001D01*
Y51542D01*
X109744Y51083D01*
X108367D01*
X105612Y52001D02*
X106071Y52460D01*
X106989D01*
X107448Y52001D01*
Y50164D01*
X106989Y49705D01*
X106071D01*
X105612Y50164D01*
X115254Y157973D02*
Y160728D01*
X113877D01*
X113418Y160269D01*
Y159350D01*
X113877Y158891D01*
X115254D01*
X114336D02*
X113418Y157973D01*
X112499D02*
X111581D01*
X112040D01*
Y160728D01*
X112499Y160269D01*
X110204Y158432D02*
X109744Y157973D01*
X108826D01*
X108367Y158432D01*
Y160269D01*
X108826Y160728D01*
X109744D01*
X110204Y160269D01*
Y159810D01*
X109744Y159350D01*
X108367D01*
X107448Y160728D02*
Y157973D01*
X106071D01*
X105612Y158432D01*
Y158891D01*
X106071Y159350D01*
X107448D01*
X106071D01*
X105612Y159810D01*
Y160269D01*
X106071Y160728D01*
X107448D01*
X115254Y259154D02*
Y261909D01*
X113877D01*
X113418Y261450D01*
Y260531D01*
X113877Y260072D01*
X115254D01*
X114336D02*
X113418Y259154D01*
X112499D02*
X111581D01*
X112040D01*
Y261909D01*
X112499Y261450D01*
X110204Y259613D02*
X109744Y259154D01*
X108826D01*
X108367Y259613D01*
Y261450D01*
X108826Y261909D01*
X109744D01*
X110204Y261450D01*
Y260991D01*
X109744Y260531D01*
X108367D01*
X107448Y259154D02*
Y260991D01*
X106530Y261909D01*
X105612Y260991D01*
Y259154D01*
Y260531D01*
X107448D01*
X141534Y115650D02*
Y118405D01*
X140156D01*
X139697Y117946D01*
Y117028D01*
X140156Y116568D01*
X141534D01*
X140615D02*
X139697Y115650D01*
X138779D02*
X137861D01*
X138320D01*
Y118405D01*
X138779Y117946D01*
X134646Y118405D02*
X136483D01*
Y117028D01*
X135565Y117487D01*
X135106D01*
X134646Y117028D01*
Y116109D01*
X135106Y115650D01*
X136024D01*
X136483Y116109D01*
X133728Y118405D02*
Y115650D01*
X132351D01*
X131891Y116109D01*
Y116568D01*
X132351Y117028D01*
X133728D01*
X132351D01*
X131891Y117487D01*
Y117946D01*
X132351Y118405D01*
X133728D01*
X140550Y216831D02*
Y219586D01*
X139172D01*
X138713Y219127D01*
Y218209D01*
X139172Y217750D01*
X140550D01*
X139631D02*
X138713Y216831D01*
X137795D02*
X136876D01*
X137335D01*
Y219586D01*
X137795Y219127D01*
X133662Y219586D02*
X135499D01*
Y218209D01*
X134580Y218668D01*
X134121D01*
X133662Y218209D01*
Y217290D01*
X134121Y216831D01*
X135040D01*
X135499Y217290D01*
X132744Y216831D02*
Y218668D01*
X131825Y219586D01*
X130907Y218668D01*
Y216831D01*
Y218209D01*
X132744D01*
X141534Y72245D02*
Y75000D01*
X140156D01*
X139697Y74540D01*
Y73622D01*
X140156Y73163D01*
X141534D01*
X140615D02*
X139697Y72245D01*
X138779D02*
X137861D01*
X138320D01*
Y75000D01*
X138779Y74540D01*
X135106Y72245D02*
Y75000D01*
X136483Y73622D01*
X134646D01*
X131891Y74540D02*
X132351Y75000D01*
X133269D01*
X133728Y74540D01*
Y72704D01*
X133269Y72245D01*
X132351D01*
X131891Y72704D01*
X141337Y180217D02*
Y182972D01*
X139960D01*
X139500Y182513D01*
Y181595D01*
X139960Y181135D01*
X141337D01*
X140419D02*
X139500Y180217D01*
X138582D02*
X137664D01*
X138123D01*
Y182972D01*
X138582Y182513D01*
X134909Y180217D02*
Y182972D01*
X136286Y181595D01*
X134450D01*
X133531Y182972D02*
Y180217D01*
X132154D01*
X131694Y180676D01*
Y181135D01*
X132154Y181595D01*
X133531D01*
X132154D01*
X131694Y182054D01*
Y182513D01*
X132154Y182972D01*
X133531D01*
X140353Y281497D02*
Y284251D01*
X138975D01*
X138516Y283792D01*
Y282874D01*
X138975Y282415D01*
X140353D01*
X139434D02*
X138516Y281497D01*
X137598D02*
X136679D01*
X137139D01*
Y284251D01*
X137598Y283792D01*
X133924Y281497D02*
Y284251D01*
X135302Y282874D01*
X133465D01*
X132547Y281497D02*
Y283333D01*
X131629Y284251D01*
X130710Y283333D01*
Y281497D01*
Y282874D01*
X132547D01*
X148950Y13173D02*
X151705D01*
Y14551D01*
X151246Y15010D01*
X150327D01*
X149868Y14551D01*
Y13173D01*
Y14092D02*
X148950Y15010D01*
Y15928D02*
Y16847D01*
Y16387D01*
X151705D01*
X151246Y15928D01*
Y18224D02*
X151705Y18683D01*
Y19602D01*
X151246Y20061D01*
X150786D01*
X150327Y19602D01*
Y19142D01*
Y19602D01*
X149868Y20061D01*
X149409D01*
X148950Y19602D01*
Y18683D01*
X149409Y18224D01*
X151246Y22816D02*
X151705Y22356D01*
Y21438D01*
X151246Y20979D01*
X149409D01*
X148950Y21438D01*
Y22356D01*
X149409Y22816D01*
X149064Y120379D02*
X151819D01*
Y121756D01*
X151360Y122216D01*
X150442D01*
X149983Y121756D01*
Y120379D01*
Y121297D02*
X149064Y122216D01*
Y123134D02*
Y124052D01*
Y123593D01*
X151819D01*
X151360Y123134D01*
Y125430D02*
X151819Y125889D01*
Y126807D01*
X151360Y127267D01*
X150901D01*
X150442Y126807D01*
Y126348D01*
Y126807D01*
X149983Y127267D01*
X149523D01*
X149064Y126807D01*
Y125889D01*
X149523Y125430D01*
X151819Y128185D02*
X149064D01*
Y129562D01*
X149523Y130022D01*
X149983D01*
X150442Y129562D01*
Y128185D01*
Y129562D01*
X150901Y130022D01*
X151360D01*
X151819Y129562D01*
Y128185D01*
X148950Y222462D02*
X151705D01*
Y223840D01*
X151246Y224299D01*
X150328D01*
X149868Y223840D01*
Y222462D01*
Y223381D02*
X148950Y224299D01*
Y225218D02*
Y226136D01*
Y225677D01*
X151705D01*
X151246Y225218D01*
Y227513D02*
X151705Y227973D01*
Y228891D01*
X151246Y229350D01*
X150787D01*
X150328Y228891D01*
Y228432D01*
Y228891D01*
X149868Y229350D01*
X149409D01*
X148950Y228891D01*
Y227973D01*
X149409Y227513D01*
X148950Y230268D02*
X150787D01*
X151705Y231187D01*
X150787Y232105D01*
X148950D01*
X150328D01*
Y230268D01*
X148950Y167701D02*
X151705D01*
Y169079D01*
X151245Y169538D01*
X150327D01*
X149868Y169079D01*
Y167701D01*
Y168620D02*
X148950Y169538D01*
Y170457D02*
Y171375D01*
Y170916D01*
X151705D01*
X151245Y170457D01*
X148950Y174589D02*
Y172752D01*
X150786Y174589D01*
X151245D01*
X151705Y174130D01*
Y173212D01*
X151245Y172752D01*
X151705Y175507D02*
X148950D01*
Y176885D01*
X149409Y177344D01*
X149868D01*
X150327Y176885D01*
Y175507D01*
Y176885D01*
X150786Y177344D01*
X151245D01*
X151705Y176885D01*
Y175507D01*
X148356Y269117D02*
X151111D01*
Y270494D01*
X150652Y270953D01*
X149734D01*
X149275Y270494D01*
Y269117D01*
Y270035D02*
X148356Y270953D01*
Y271872D02*
Y272790D01*
Y272331D01*
X151111D01*
X150652Y271872D01*
X148356Y276004D02*
Y274168D01*
X150193Y276004D01*
X150652D01*
X151111Y275545D01*
Y274627D01*
X150652Y274168D01*
X148356Y276923D02*
X150193D01*
X151111Y277841D01*
X150193Y278759D01*
X148356D01*
X149734D01*
Y276923D01*
X209383Y385334D02*
Y382579D01*
X207546D01*
X206627Y384875D02*
X206168Y385334D01*
X205250D01*
X204791Y384875D01*
Y384416D01*
X205250Y383957D01*
X204791Y383498D01*
Y383038D01*
X205250Y382579D01*
X206168D01*
X206627Y383038D01*
Y383498D01*
X206168Y383957D01*
X206627Y384416D01*
Y384875D01*
X206168Y383957D02*
X205250D01*
X77166Y112696D02*
Y109941D01*
X75329D01*
X72574Y112696D02*
X73492Y112237D01*
X74410Y111319D01*
Y110400D01*
X73951Y109941D01*
X73033D01*
X72574Y110400D01*
Y110860D01*
X73033Y111319D01*
X74410D01*
X69819Y112237D02*
X70278Y112696D01*
X71196D01*
X71655Y112237D01*
Y110400D01*
X71196Y109941D01*
X70278D01*
X69819Y110400D01*
X111515Y37665D02*
X108760D01*
Y39502D01*
X111515Y42257D02*
Y40420D01*
X110138D01*
X110597Y41339D01*
Y41798D01*
X110138Y42257D01*
X109220D01*
X108760Y41798D01*
Y40879D01*
X109220Y40420D01*
X111056Y45012D02*
X111515Y44553D01*
Y43634D01*
X111056Y43175D01*
X109220D01*
X108760Y43634D01*
Y44553D01*
X109220Y45012D01*
X112893Y145539D02*
X110138D01*
Y147376D01*
X112893Y150131D02*
Y148294D01*
X111516D01*
X111975Y149213D01*
Y149672D01*
X111516Y150131D01*
X110597D01*
X110138Y149672D01*
Y148753D01*
X110597Y148294D01*
X112893Y151049D02*
X110138D01*
Y152427D01*
X110597Y152886D01*
X111057D01*
X111516Y152427D01*
Y151049D01*
Y152427D01*
X111975Y152886D01*
X112434D01*
X112893Y152427D01*
Y151049D01*
X111811Y246720D02*
X109056D01*
Y248557D01*
X111811Y251312D02*
Y249475D01*
X110433D01*
X110892Y250394D01*
Y250853D01*
X110433Y251312D01*
X109515D01*
X109056Y250853D01*
Y249935D01*
X109515Y249475D01*
X109056Y252230D02*
X110892D01*
X111811Y253149D01*
X110892Y254067D01*
X109056D01*
X110433D01*
Y252230D01*
X205215Y269291D02*
Y266995D01*
X204756Y266536D01*
X203837D01*
X203378Y266995D01*
Y269291D01*
X202460Y266536D02*
X201542D01*
X202001D01*
Y269291D01*
X202460Y268832D01*
X200164Y269291D02*
X198327D01*
Y268832D01*
X200164Y266995D01*
Y266536D01*
X197409D02*
Y268373D01*
X196491Y269291D01*
X195572Y268373D01*
Y266536D01*
Y267913D01*
X197409D01*
X173014Y143605D02*
Y141309D01*
X172555Y140850D01*
X171637D01*
X171177Y141309D01*
Y143605D01*
X170259Y140850D02*
X169341D01*
X169800D01*
Y143605D01*
X170259Y143146D01*
X166586Y140850D02*
Y143605D01*
X167963Y142227D01*
X166127D01*
X165208Y143605D02*
Y140850D01*
X163831D01*
X163372Y141309D01*
Y141768D01*
X163831Y142227D01*
X165208D01*
X163831D01*
X163372Y142687D01*
Y143146D01*
X163831Y143605D01*
X165208D01*
X173014Y244491D02*
Y242195D01*
X172555Y241736D01*
X171637D01*
X171177Y242195D01*
Y244491D01*
X170259Y241736D02*
X169341D01*
X169800D01*
Y244491D01*
X170259Y244032D01*
X166586Y241736D02*
Y244491D01*
X167963Y243113D01*
X166127D01*
X165208Y241736D02*
Y243572D01*
X164290Y244491D01*
X163372Y243572D01*
Y241736D01*
Y243113D01*
X165208D01*
X114895Y38354D02*
X115354Y37895D01*
Y36977D01*
X114895Y36517D01*
X113058D01*
X112599Y36977D01*
Y37895D01*
X113058Y38354D01*
X114895Y39272D02*
X115354Y39731D01*
Y40650D01*
X114895Y41109D01*
X114436D01*
X113976Y40650D01*
X113517Y41109D01*
X113058D01*
X112599Y40650D01*
Y39731D01*
X113058Y39272D01*
X113517D01*
X113976Y39731D01*
X114436Y39272D01*
X114895D01*
X113976Y39731D02*
Y40650D01*
X112599Y42027D02*
Y42946D01*
Y42487D01*
X115354D01*
X114895Y42027D01*
Y46160D02*
X115354Y45701D01*
Y44782D01*
X114895Y44323D01*
X113058D01*
X112599Y44782D01*
Y45701D01*
X113058Y46160D01*
X116076Y146228D02*
X116535Y145769D01*
Y144851D01*
X116076Y144391D01*
X114239D01*
X113780Y144851D01*
Y145769D01*
X114239Y146228D01*
X116076Y147146D02*
X116535Y147606D01*
Y148524D01*
X116076Y148983D01*
X115617D01*
X115157Y148524D01*
X114698Y148983D01*
X114239D01*
X113780Y148524D01*
Y147606D01*
X114239Y147146D01*
X114698D01*
X115157Y147606D01*
X115617Y147146D01*
X116076D01*
X115157Y147606D02*
Y148524D01*
X113780Y149901D02*
Y150820D01*
Y150361D01*
X116535D01*
X116076Y149901D01*
X116535Y152197D02*
X113780D01*
Y153575D01*
X114239Y154034D01*
X114698D01*
X115157Y153575D01*
Y152197D01*
Y153575D01*
X115617Y154034D01*
X116076D01*
X116535Y153575D01*
Y152197D01*
X114993Y247409D02*
X115452Y246950D01*
Y246032D01*
X114993Y245572D01*
X113156D01*
X112697Y246032D01*
Y246950D01*
X113156Y247409D01*
X114993Y248327D02*
X115452Y248787D01*
Y249705D01*
X114993Y250164D01*
X114534D01*
X114075Y249705D01*
X113616Y250164D01*
X113156D01*
X112697Y249705D01*
Y248787D01*
X113156Y248327D01*
X113616D01*
X114075Y248787D01*
X114534Y248327D01*
X114993D01*
X114075Y248787D02*
Y249705D01*
X112697Y251082D02*
Y252001D01*
Y251542D01*
X115452D01*
X114993Y251082D01*
X112697Y253378D02*
X114534D01*
X115452Y254297D01*
X114534Y255215D01*
X112697D01*
X114075D01*
Y253378D01*
X76706Y108300D02*
X77165Y108759D01*
X78084D01*
X78543Y108300D01*
Y106464D01*
X78084Y106004D01*
X77165D01*
X76706Y106464D01*
X75788Y108300D02*
X75329Y108759D01*
X74410D01*
X73951Y108300D01*
Y107841D01*
X74410Y107382D01*
X73951Y106923D01*
Y106464D01*
X74410Y106004D01*
X75329D01*
X75788Y106464D01*
Y106923D01*
X75329Y107382D01*
X75788Y107841D01*
Y108300D01*
X75329Y107382D02*
X74410D01*
X73033Y108300D02*
X72574Y108759D01*
X71655D01*
X71196Y108300D01*
Y106464D01*
X71655Y106004D01*
X72574D01*
X73033Y106464D01*
Y108300D01*
X68441D02*
X68900Y108759D01*
X69819D01*
X70278Y108300D01*
Y106464D01*
X69819Y106004D01*
X68900D01*
X68441Y106464D01*
X231069Y340879D02*
X231528Y341338D01*
X232447D01*
X232906Y340879D01*
Y339042D01*
X232447Y338583D01*
X231528D01*
X231069Y339042D01*
X228314Y341338D02*
X230151D01*
Y339961D01*
X229232Y340420D01*
X228773D01*
X228314Y339961D01*
Y339042D01*
X228773Y338583D01*
X229692D01*
X230151Y339042D01*
X227396Y341338D02*
X225559D01*
Y340879D01*
X227396Y339042D01*
Y338583D01*
X200459Y329265D02*
X200918Y329724D01*
X201836D01*
X202295Y329265D01*
Y327428D01*
X201836Y326969D01*
X200918D01*
X200459Y327428D01*
X197704Y329724D02*
X199540D01*
Y328346D01*
X198622Y328806D01*
X198163D01*
X197704Y328346D01*
Y327428D01*
X198163Y326969D01*
X199081D01*
X199540Y327428D01*
X195408Y326969D02*
Y329724D01*
X196785Y328346D01*
X194949D01*
X155446Y38026D02*
X155905Y37567D01*
Y36648D01*
X155446Y36189D01*
X153609D01*
X153150Y36648D01*
Y37567D01*
X153609Y38026D01*
X153150Y40781D02*
Y38944D01*
X154987Y40781D01*
X155446D01*
X155905Y40322D01*
Y39404D01*
X155446Y38944D01*
X153150Y43077D02*
X155905D01*
X154528Y41699D01*
Y43536D01*
X155446Y46291D02*
X155905Y45832D01*
Y44914D01*
X155446Y44454D01*
X153609D01*
X153150Y44914D01*
Y45832D01*
X153609Y46291D01*
X155605Y146014D02*
X156064Y145555D01*
Y144637D01*
X155605Y144177D01*
X153768D01*
X153309Y144637D01*
Y145555D01*
X153768Y146014D01*
X153309Y148769D02*
Y146932D01*
X155146Y148769D01*
X155605D01*
X156064Y148310D01*
Y147392D01*
X155605Y146932D01*
X153309Y151065D02*
X156064D01*
X154687Y149687D01*
Y151524D01*
X156064Y152443D02*
X153309D01*
Y153820D01*
X153768Y154279D01*
X154227D01*
X154687Y153820D01*
Y152443D01*
Y153820D01*
X155146Y154279D01*
X155605D01*
X156064Y153820D01*
Y152443D01*
X154637Y247192D02*
X155096Y246733D01*
Y245815D01*
X154637Y245355D01*
X152800D01*
X152341Y245815D01*
Y246733D01*
X152800Y247192D01*
X152341Y249947D02*
Y248110D01*
X154177Y249947D01*
X154637D01*
X155096Y249488D01*
Y248570D01*
X154637Y248110D01*
X152341Y252243D02*
X155096D01*
X153718Y250866D01*
Y252702D01*
X152341Y253621D02*
X154177D01*
X155096Y254539D01*
X154177Y255457D01*
X152341D01*
X153718D01*
Y253621D01*
X86679Y68537D02*
X87138Y68996D01*
X88056D01*
X88515Y68537D01*
Y66700D01*
X88056Y66241D01*
X87138D01*
X86679Y66700D01*
X83924Y66241D02*
X85760D01*
X83924Y68077D01*
Y68537D01*
X84383Y68996D01*
X85301D01*
X85760Y68537D01*
X83005D02*
X82546Y68996D01*
X81628D01*
X81169Y68537D01*
Y68077D01*
X81628Y67618D01*
X82087D01*
X81628D01*
X81169Y67159D01*
Y66700D01*
X81628Y66241D01*
X82546D01*
X83005Y66700D01*
X78414Y68537D02*
X78873Y68996D01*
X79791D01*
X80250Y68537D01*
Y66700D01*
X79791Y66241D01*
X78873D01*
X78414Y66700D01*
X39599Y78610D02*
X40059Y78151D01*
Y77232D01*
X39599Y76773D01*
X37763D01*
X37304Y77232D01*
Y78151D01*
X37763Y78610D01*
X37304Y79528D02*
Y80447D01*
Y79987D01*
X40059D01*
X39599Y79528D01*
X40059Y83661D02*
X39599Y82742D01*
X38681Y81824D01*
X37763D01*
X37304Y82283D01*
Y83202D01*
X37763Y83661D01*
X38222D01*
X38681Y83202D01*
Y81824D01*
X39599Y86416D02*
X40059Y85957D01*
Y85038D01*
X39599Y84579D01*
X37763D01*
X37304Y85038D01*
Y85957D01*
X37763Y86416D01*
X109284Y78512D02*
X109744Y78052D01*
Y77134D01*
X109284Y76675D01*
X107448D01*
X106989Y77134D01*
Y78052D01*
X107448Y78512D01*
X106989Y79430D02*
Y80348D01*
Y79889D01*
X109744D01*
X109284Y79430D01*
X109744Y83562D02*
Y81726D01*
X108366D01*
X108825Y82644D01*
Y83103D01*
X108366Y83562D01*
X107448D01*
X106989Y83103D01*
Y82185D01*
X107448Y81726D01*
X109284Y86317D02*
X109744Y85858D01*
Y84940D01*
X109284Y84481D01*
X107448D01*
X106989Y84940D01*
Y85858D01*
X107448Y86317D01*
X139697Y70997D02*
X140156Y71456D01*
X141075D01*
X141534Y70997D01*
Y69160D01*
X141075Y68701D01*
X140156D01*
X139697Y69160D01*
X138779Y68701D02*
X137861D01*
X138320D01*
Y71456D01*
X138779Y70997D01*
X134646Y68701D02*
X136483D01*
X134646Y70538D01*
Y70997D01*
X135106Y71456D01*
X136024D01*
X136483Y70997D01*
X131891D02*
X132351Y71456D01*
X133269D01*
X133728Y70997D01*
Y69160D01*
X133269Y68701D01*
X132351D01*
X131891Y69160D01*
X139500Y178871D02*
X139960Y179330D01*
X140878D01*
X141337Y178871D01*
Y177034D01*
X140878Y176575D01*
X139960D01*
X139500Y177034D01*
X138582Y176575D02*
X137664D01*
X138123D01*
Y179330D01*
X138582Y178871D01*
X134450Y176575D02*
X136286D01*
X134450Y178412D01*
Y178871D01*
X134909Y179330D01*
X135827D01*
X136286Y178871D01*
X133531Y179330D02*
Y176575D01*
X132154D01*
X131694Y177034D01*
Y177494D01*
X132154Y177953D01*
X133531D01*
X132154D01*
X131694Y178412D01*
Y178871D01*
X132154Y179330D01*
X133531D01*
X138516Y280052D02*
X138975Y280511D01*
X139894D01*
X140353Y280052D01*
Y278216D01*
X139894Y277756D01*
X138975D01*
X138516Y278216D01*
X137598Y277756D02*
X136679D01*
X137139D01*
Y280511D01*
X137598Y280052D01*
X133465Y277756D02*
X135302D01*
X133465Y279593D01*
Y280052D01*
X133924Y280511D01*
X134843D01*
X135302Y280052D01*
X132547Y277756D02*
Y279593D01*
X131629Y280511D01*
X130710Y279593D01*
Y277756D01*
Y279134D01*
X132547D01*
X139271Y13517D02*
X139730Y13976D01*
X140648D01*
X141107Y13517D01*
Y11680D01*
X140648Y11221D01*
X139730D01*
X139271Y11680D01*
X138352Y11221D02*
X137434D01*
X137893D01*
Y13976D01*
X138352Y13517D01*
X136057Y11221D02*
X135138D01*
X135597D01*
Y13976D01*
X136057Y13517D01*
X131924D02*
X132383Y13976D01*
X133302D01*
X133761Y13517D01*
Y11680D01*
X133302Y11221D01*
X132383D01*
X131924Y11680D01*
X139468Y121588D02*
X139927Y122047D01*
X140845D01*
X141304Y121588D01*
Y119751D01*
X140845Y119292D01*
X139927D01*
X139468Y119751D01*
X138549Y119292D02*
X137631D01*
X138090D01*
Y122047D01*
X138549Y121588D01*
X136253Y119292D02*
X135335D01*
X135794D01*
Y122047D01*
X136253Y121588D01*
X133958Y122047D02*
Y119292D01*
X132580D01*
X132121Y119751D01*
Y120210D01*
X132580Y120669D01*
X133958D01*
X132580D01*
X132121Y121128D01*
Y121588D01*
X132580Y122047D01*
X133958D01*
X138483Y222670D02*
X138943Y223130D01*
X139861D01*
X140320Y222670D01*
Y220834D01*
X139861Y220374D01*
X138943D01*
X138483Y220834D01*
X137565Y220374D02*
X136647D01*
X137106D01*
Y223130D01*
X137565Y222670D01*
X135269Y220374D02*
X134351D01*
X134810D01*
Y223130D01*
X135269Y222670D01*
X132973Y220374D02*
Y222211D01*
X132055Y223130D01*
X131137Y222211D01*
Y220374D01*
Y221752D01*
X132973D01*
X164556Y159781D02*
X165015Y159321D01*
Y158403D01*
X164556Y157944D01*
X162719D01*
X162260Y158403D01*
Y159321D01*
X162719Y159781D01*
X164556Y160699D02*
X165015Y161158D01*
Y162076D01*
X164556Y162536D01*
X164096D01*
X163637Y162076D01*
X163178Y162536D01*
X162719D01*
X162260Y162076D01*
Y161158D01*
X162719Y160699D01*
X163178D01*
X163637Y161158D01*
X164096Y160699D01*
X164556D01*
X163637Y161158D02*
Y162076D01*
X165015Y163454D02*
X162260D01*
Y164831D01*
X162719Y165291D01*
X163178D01*
X163637Y164831D01*
Y163454D01*
Y164831D01*
X164096Y165291D01*
X164556D01*
X165015Y164831D01*
Y163454D01*
X164851Y260666D02*
X165310Y260207D01*
Y259289D01*
X164851Y258830D01*
X163014D01*
X162555Y259289D01*
Y260207D01*
X163014Y260666D01*
X164851Y261585D02*
X165310Y262044D01*
Y262962D01*
X164851Y263422D01*
X164392D01*
X163932Y262962D01*
X163473Y263422D01*
X163014D01*
X162555Y262962D01*
Y262044D01*
X163014Y261585D01*
X163473D01*
X163932Y262044D01*
X164392Y261585D01*
X164851D01*
X163932Y262044D02*
Y262962D01*
X162555Y264340D02*
X164392D01*
X165310Y265258D01*
X164392Y266177D01*
X162555D01*
X163932D01*
Y264340D01*
X312368Y61942D02*
X312827Y62401D01*
X313746D01*
X314205Y61942D01*
Y60105D01*
X313746Y59646D01*
X312827D01*
X312368Y60105D01*
X310072Y59646D02*
Y62401D01*
X311450Y61024D01*
X309613D01*
X307317Y59646D02*
Y62401D01*
X308695Y61024D01*
X306858D01*
X526981Y382205D02*
Y384960D01*
X525603D01*
X525144Y384501D01*
Y383583D01*
X525603Y383123D01*
X526981D01*
X526063D02*
X525144Y382205D01*
X522389Y384960D02*
X524226D01*
Y383583D01*
X523308Y384042D01*
X522848D01*
X522389Y383583D01*
Y382664D01*
X522848Y382205D01*
X523767D01*
X524226Y382664D01*
X210530Y377559D02*
Y375263D01*
X210071Y374804D01*
X209153D01*
X208694Y375263D01*
Y377559D01*
X207775Y374804D02*
X206857D01*
X207316D01*
Y377559D01*
X207775Y377099D01*
X203643Y374804D02*
X205480D01*
X203643Y376640D01*
Y377099D01*
X204102Y377559D01*
X205020D01*
X205480Y377099D01*
X338766Y281529D02*
X339225Y281988D01*
X340143D01*
X340602Y281529D01*
Y279692D01*
X340143Y279233D01*
X339225D01*
X338766Y279692D01*
X336470Y279233D02*
Y281988D01*
X337847Y280610D01*
X336011D01*
X335092Y279692D02*
X334633Y279233D01*
X333715D01*
X333256Y279692D01*
Y281529D01*
X333715Y281988D01*
X334633D01*
X335092Y281529D01*
Y281069D01*
X334633Y280610D01*
X333256D01*
X338844Y362139D02*
X339304Y362598D01*
X340222D01*
X340681Y362139D01*
Y360302D01*
X340222Y359843D01*
X339304D01*
X338844Y360302D01*
X336549Y359843D02*
Y362598D01*
X337926Y361221D01*
X336089D01*
X335171Y362139D02*
X334712Y362598D01*
X333794D01*
X333334Y362139D01*
Y361680D01*
X333794Y361221D01*
X333334Y360761D01*
Y360302D01*
X333794Y359843D01*
X334712D01*
X335171Y360302D01*
Y360761D01*
X334712Y361221D01*
X335171Y361680D01*
Y362139D01*
X334712Y361221D02*
X333794D01*
X338963Y214383D02*
X339422Y214842D01*
X340340D01*
X340799Y214383D01*
Y212546D01*
X340340Y212087D01*
X339422D01*
X338963Y212546D01*
X336667Y212087D02*
Y214842D01*
X338044Y213465D01*
X336208D01*
X335289Y214842D02*
X333453D01*
Y214383D01*
X335289Y212546D01*
Y212087D01*
X338923Y61981D02*
X339383Y62441D01*
X340301D01*
X340760Y61981D01*
Y60145D01*
X340301Y59685D01*
X339383D01*
X338923Y60145D01*
X336627Y59685D02*
Y62441D01*
X338005Y61063D01*
X336168D01*
X333413Y62441D02*
X335250D01*
Y61063D01*
X334332Y61522D01*
X333872D01*
X333413Y61063D01*
Y60145D01*
X333872Y59685D01*
X334791D01*
X335250Y60145D01*
X312447Y214225D02*
X312906Y214685D01*
X313824D01*
X314284Y214225D01*
Y212389D01*
X313824Y211930D01*
X312906D01*
X312447Y212389D01*
X310151Y211930D02*
Y214685D01*
X311529Y213307D01*
X309692D01*
X306937Y211930D02*
X308774D01*
X306937Y213766D01*
Y214225D01*
X307396Y214685D01*
X308314D01*
X308774Y214225D01*
X311988Y281529D02*
X312447Y281988D01*
X313365D01*
X313824Y281529D01*
Y279692D01*
X313365Y279233D01*
X312447D01*
X311988Y279692D01*
X309692Y279233D02*
Y281988D01*
X311069Y280610D01*
X309233D01*
X308314Y279233D02*
X307396D01*
X307855D01*
Y281988D01*
X308314Y281529D01*
X312486Y362139D02*
X312946Y362598D01*
X313864D01*
X314323Y362139D01*
Y360302D01*
X313864Y359843D01*
X312946D01*
X312486Y360302D01*
X310191Y359843D02*
Y362598D01*
X311568Y361221D01*
X309731D01*
X308813Y362139D02*
X308354Y362598D01*
X307435D01*
X306976Y362139D01*
Y360302D01*
X307435Y359843D01*
X308354D01*
X308813Y360302D01*
Y362139D01*
X190650Y365027D02*
X193405D01*
Y366405D01*
X192946Y366864D01*
X192028D01*
X191568Y366405D01*
Y365027D01*
Y365946D02*
X190650Y366864D01*
X193405Y369619D02*
X192946Y368701D01*
X192028Y367782D01*
X191109D01*
X190650Y368242D01*
Y369160D01*
X191109Y369619D01*
X191568D01*
X192028Y369160D01*
Y367782D01*
X192946Y370537D02*
X193405Y370997D01*
Y371915D01*
X192946Y372374D01*
X192487D01*
X192028Y371915D01*
X191568Y372374D01*
X191109D01*
X190650Y371915D01*
Y370997D01*
X191109Y370537D01*
X191568D01*
X192028Y370997D01*
X192487Y370537D01*
X192946D01*
X192028Y370997D02*
Y371915D01*
X220768Y365027D02*
X223523D01*
Y366405D01*
X223064Y366864D01*
X222146D01*
X221687Y366405D01*
Y365027D01*
Y365946D02*
X220768Y366864D01*
X223523Y369619D02*
X223064Y368701D01*
X222146Y367782D01*
X221227D01*
X220768Y368242D01*
Y369160D01*
X221227Y369619D01*
X221687D01*
X222146Y369160D01*
Y367782D01*
X223523Y370537D02*
Y372374D01*
X223064D01*
X221227Y370537D01*
X220768D01*
X167225Y350165D02*
X169980D01*
Y351543D01*
X169521Y352002D01*
X168602D01*
X168143Y351543D01*
Y350165D01*
Y351084D02*
X167225Y352002D01*
X169980Y354757D02*
X169521Y353839D01*
X168602Y352920D01*
X167684D01*
X167225Y353379D01*
Y354298D01*
X167684Y354757D01*
X168143D01*
X168602Y354298D01*
Y352920D01*
X169980Y357512D02*
X169521Y356594D01*
X168602Y355675D01*
X167684D01*
X167225Y356134D01*
Y357053D01*
X167684Y357512D01*
X168143D01*
X168602Y357053D01*
Y355675D01*
X163583Y350165D02*
X166338D01*
Y351543D01*
X165879Y352002D01*
X164961D01*
X164502Y351543D01*
Y350165D01*
Y351084D02*
X163583Y352002D01*
X166338Y354757D02*
X165879Y353839D01*
X164961Y352920D01*
X164042D01*
X163583Y353379D01*
Y354298D01*
X164042Y354757D01*
X164502D01*
X164961Y354298D01*
Y352920D01*
X166338Y357512D02*
Y355675D01*
X164961D01*
X165420Y356594D01*
Y357053D01*
X164961Y357512D01*
X164042D01*
X163583Y357053D01*
Y356134D01*
X164042Y355675D01*
X239435Y321871D02*
Y324626D01*
X238057D01*
X237598Y324166D01*
Y323248D01*
X238057Y322789D01*
X239435D01*
X238516D02*
X237598Y321871D01*
X234843Y324626D02*
X235761Y324166D01*
X236680Y323248D01*
Y322330D01*
X236221Y321871D01*
X235302D01*
X234843Y322330D01*
Y322789D01*
X235302Y323248D01*
X236680D01*
X233925Y321871D02*
X233006D01*
X233466D01*
Y324626D01*
X233925Y324166D01*
X201902Y321516D02*
Y324271D01*
X200524D01*
X200065Y323812D01*
Y322894D01*
X200524Y322435D01*
X201902D01*
X200983D02*
X200065Y321516D01*
X197310Y324271D02*
X198228Y323812D01*
X199147Y322894D01*
Y321975D01*
X198688Y321516D01*
X197769D01*
X197310Y321975D01*
Y322435D01*
X197769Y322894D01*
X199147D01*
X196392Y323812D02*
X195932Y324271D01*
X195014D01*
X194555Y323812D01*
Y321975D01*
X195014Y321516D01*
X195932D01*
X196392Y321975D01*
Y323812D01*
X208923Y380938D02*
X209383Y381397D01*
X210301D01*
X210760Y380938D01*
Y379101D01*
X210301Y378642D01*
X209383D01*
X208923Y379101D01*
X206168Y381397D02*
X208005D01*
Y380020D01*
X207087Y380479D01*
X206627D01*
X206168Y380020D01*
Y379101D01*
X206627Y378642D01*
X207546D01*
X208005Y379101D01*
X205250D02*
X204791Y378642D01*
X203872D01*
X203413Y379101D01*
Y380938D01*
X203872Y381397D01*
X204791D01*
X205250Y380938D01*
Y380479D01*
X204791Y380020D01*
X203413D01*
X173162Y352002D02*
X173622Y351543D01*
Y350624D01*
X173162Y350165D01*
X171326D01*
X170867Y350624D01*
Y351543D01*
X171326Y352002D01*
X173622Y354757D02*
Y352920D01*
X172244D01*
X172703Y353839D01*
Y354298D01*
X172244Y354757D01*
X171326D01*
X170867Y354298D01*
Y353379D01*
X171326Y352920D01*
X173622Y357512D02*
X173162Y356594D01*
X172244Y355675D01*
X171326D01*
X170867Y356134D01*
Y357053D01*
X171326Y357512D01*
X171785D01*
X172244Y357053D01*
Y355675D01*
X242749Y351805D02*
X243208Y351346D01*
Y350428D01*
X242749Y349968D01*
X240912D01*
X240453Y350428D01*
Y351346D01*
X240912Y351805D01*
X243208Y354560D02*
Y352723D01*
X241831D01*
X242290Y353642D01*
Y354101D01*
X241831Y354560D01*
X240912D01*
X240453Y354101D01*
Y353183D01*
X240912Y352723D01*
X243208Y357315D02*
Y355478D01*
X241831D01*
X242290Y356397D01*
Y356856D01*
X241831Y357315D01*
X240912D01*
X240453Y356856D01*
Y355938D01*
X240912Y355478D01*
X238057Y330938D02*
X238516Y331397D01*
X239435D01*
X239894Y330938D01*
Y329101D01*
X239435Y328642D01*
X238516D01*
X238057Y329101D01*
X235302Y331397D02*
X237139D01*
Y330020D01*
X236221Y330479D01*
X235761D01*
X235302Y330020D01*
Y329101D01*
X235761Y328642D01*
X236680D01*
X237139Y329101D01*
X234384Y330938D02*
X233925Y331397D01*
X233006D01*
X232547Y330938D01*
Y330479D01*
X233006Y330020D01*
X233466D01*
X233006D01*
X232547Y329560D01*
Y329101D01*
X233006Y328642D01*
X233925D01*
X234384Y329101D01*
X509514Y373186D02*
X510433D01*
X509973D01*
Y370891D01*
X510433Y370431D01*
X510892D01*
X511351Y370891D01*
X506759Y370431D02*
X508596D01*
X506759Y372268D01*
Y372727D01*
X507218Y373186D01*
X508137D01*
X508596Y372727D01*
D20*
X-0Y288252D02*
X134Y287233D01*
X527Y286283D01*
X1153Y285468D01*
X1969Y284842D01*
X2918Y284449D01*
X3937Y284315D01*
X-27795Y298095D02*
X-27661Y297076D01*
X-27268Y296126D01*
X-26642Y295311D01*
X-25827Y294685D01*
X-24877Y294292D01*
X-23858Y294158D01*
X-27795Y300457D02*
X-28256Y301570D01*
X-29370Y302031D01*
X-38740Y284315D02*
X-37721Y284449D01*
X-36771Y284842D01*
X-35956Y285468D01*
X-35330Y286283D01*
X-34937Y287233D01*
X-34803Y288252D01*
X-37953Y185791D02*
X-36970Y185895D01*
X-36031Y186200D01*
X-35176Y186694D01*
X-34442Y187355D01*
X-33861Y188154D01*
X-33460Y189056D01*
X-33254Y190022D01*
Y191010D01*
X-33460Y191976D01*
X-33861Y192878D01*
X-34442Y193677D01*
X-35176Y194338D01*
X-36031Y194832D01*
X-36970Y195137D01*
X-37953Y195240D01*
X-34803Y105378D02*
X-34937Y106397D01*
X-35330Y107346D01*
X-35956Y108162D01*
X-36771Y108788D01*
X-37721Y109181D01*
X-38740Y109315D01*
X-29370Y91598D02*
X-28256Y92060D01*
X-27795Y93173D01*
X-23858Y99472D02*
X-24877Y99338D01*
X-25827Y98945D01*
X-26642Y98319D01*
X-27268Y97504D01*
X-27661Y96554D01*
X-27795Y95535D01*
X3937Y109315D02*
X2918Y109181D01*
X1969Y108788D01*
X1153Y108162D01*
X527Y107346D01*
X134Y106397D01*
X-0Y105378D01*
X3937Y284315D02*
X14670D01*
X-0Y288252D02*
Y294157D01*
X-23858D02*
X-0D01*
X-27795Y298094D02*
Y300457D01*
X-34803Y302031D02*
X-29370D01*
X-34803Y288252D02*
Y302031D01*
X-55357Y284315D02*
X-38740D01*
X-58425D02*
X-55357D01*
X-58425Y195240D02*
Y284315D01*
Y195240D02*
X-55357D01*
X-37953D01*
X-55357Y185791D02*
X-37953D01*
X-58425D02*
X-55357D01*
X-58425Y109315D02*
Y185791D01*
Y109315D02*
X-55357D01*
X-38740D01*
X-34803Y91598D02*
Y105378D01*
Y91598D02*
X-29370D01*
X-27795Y93173D02*
Y95535D01*
X-23858Y99472D02*
X-0D01*
Y105378D01*
X3937Y109315D02*
X14670D01*
D114*
X174293Y49023D02*
D03*
Y156897D02*
D03*
X174293Y257783D02*
D03*
D115*
X192110Y174958D02*
X191665Y175882D01*
X190666Y176110D01*
X189865Y175471D01*
Y174446D01*
X190666Y173807D01*
X191665Y174035D01*
X192110Y174958D01*
Y67084D02*
X191665Y68008D01*
X190666Y68236D01*
X189865Y67597D01*
Y66572D01*
X190666Y65933D01*
X191665Y66161D01*
X192110Y67084D01*
Y275844D02*
X191665Y276767D01*
X190666Y276995D01*
X189865Y276357D01*
Y275332D01*
X190666Y274693D01*
X191665Y274921D01*
X192110Y275844D01*
M02*
