G04*
G04 #@! TF.GenerationSoftware,Altium Limited,Altium Designer,22.9.1 (49)*
G04*
G04 Layer_Physical_Order=2*
G04 Layer_Color=36540*
%FSLAX25Y25*%
%MOIN*%
G70*
G04*
G04 #@! TF.SameCoordinates,F2BEA512-F08D-4B97-9B6D-B9E427450466*
G04*
G04*
G04 #@! TF.FilePolarity,Positive*
G04*
G01*
G75*
%ADD20C,0.00100*%
%ADD86C,0.03937*%
%ADD90C,0.01772*%
%ADD91C,0.01181*%
%ADD92C,0.01968*%
%ADD93C,0.12598*%
%ADD94C,0.13287*%
%ADD98C,0.01968*%
%ADD99C,0.01772*%
%ADD100C,0.02756*%
%ADD101C,0.02126*%
%ADD102C,0.02362*%
G36*
X68898Y392332D02*
Y263429D01*
X68841Y263386D01*
X68167D01*
X67516Y263211D01*
X66933Y262875D01*
X66456Y262398D01*
X66119Y261814D01*
X65945Y261164D01*
Y260490D01*
X66119Y259839D01*
X66456Y259256D01*
X66933Y258779D01*
X67516Y258442D01*
X68167Y258268D01*
X68841D01*
X68898Y258224D01*
Y249868D01*
X68482Y249590D01*
X68442Y249606D01*
X67581D01*
X66785Y249277D01*
X66176Y248668D01*
X65847Y247872D01*
Y247636D01*
X65354Y247617D01*
X65145Y248123D01*
X64757Y248511D01*
X64250Y248721D01*
X63702D01*
X63196Y248511D01*
X62808Y248123D01*
X62598Y247617D01*
Y247068D01*
X62808Y246562D01*
X63196Y246174D01*
X63702Y245965D01*
X64250D01*
X64757Y246174D01*
X65145Y246562D01*
X65354Y247068D01*
X65847Y247049D01*
Y247010D01*
X66176Y246214D01*
X66785Y245605D01*
X67581Y245276D01*
X68442D01*
X68482Y245292D01*
X68898Y245014D01*
Y232264D01*
X68517Y231883D01*
X68307Y231377D01*
Y230828D01*
X68517Y230322D01*
X68898Y229941D01*
Y222293D01*
X68511Y222133D01*
X68123Y221745D01*
X67913Y221239D01*
Y220690D01*
X68123Y220184D01*
X68511Y219796D01*
X68898Y219636D01*
Y166641D01*
X68398Y166352D01*
X68212Y166459D01*
X67561Y166634D01*
X66887D01*
X66237Y166459D01*
X65653Y166123D01*
X65177Y165646D01*
X65034Y165398D01*
X64905Y165358D01*
X64437Y165366D01*
X64166Y165637D01*
X63660Y165847D01*
X63112D01*
X62605Y165637D01*
X62218Y165249D01*
X62008Y164743D01*
Y164194D01*
X62218Y163688D01*
X62605Y163300D01*
X63112Y163091D01*
X63660D01*
X64166Y163300D01*
X64244Y163378D01*
X64802Y163229D01*
X64840Y163087D01*
X65177Y162504D01*
X65653Y162027D01*
X66237Y161690D01*
X66887Y161516D01*
X67561D01*
X68212Y161690D01*
X68398Y161797D01*
X68898Y161509D01*
Y155394D01*
X68615Y155111D01*
X68405Y154605D01*
Y154057D01*
X68615Y153550D01*
X68898Y153268D01*
Y112400D01*
X68398Y112193D01*
X68202Y112389D01*
X67695Y112598D01*
X67147D01*
X66641Y112389D01*
X66253Y112001D01*
X66043Y111495D01*
Y110946D01*
X66253Y110440D01*
X66641Y110052D01*
X67147Y109843D01*
X67695D01*
X68202Y110052D01*
X68398Y110248D01*
X68898Y110041D01*
Y60428D01*
X68398Y60221D01*
X68303Y60316D01*
X67720Y60652D01*
X67069Y60827D01*
X66395D01*
X65744Y60652D01*
X65161Y60316D01*
X64684Y59839D01*
X64347Y59255D01*
X64173Y58605D01*
Y57931D01*
X64347Y57280D01*
X64684Y56696D01*
X65161Y56220D01*
X65744Y55883D01*
X66395Y55709D01*
X67069D01*
X67720Y55883D01*
X68303Y56220D01*
X68780Y56696D01*
X69005Y57087D01*
X98317D01*
X98543Y56696D01*
X99019Y56220D01*
X99603Y55883D01*
X100254Y55709D01*
X100927D01*
X101578Y55883D01*
X102162Y56220D01*
X102638Y56696D01*
X102864Y57087D01*
X110783D01*
X110868Y56881D01*
X111477Y56272D01*
X112273Y55942D01*
X113134D01*
X113930Y56272D01*
X114060Y56402D01*
X114226Y56235D01*
X115022Y55905D01*
X115884D01*
X116679Y56235D01*
X117288Y56844D01*
X117389Y57087D01*
X141732D01*
Y6635D01*
X123654D01*
X122119Y8170D01*
X122310Y8632D01*
X127278D01*
Y16211D01*
X119699D01*
Y11243D01*
X119237Y11052D01*
X111476Y18813D01*
X111503Y18943D01*
X111705Y19291D01*
X112246D01*
X112897Y19466D01*
X113481Y19803D01*
X113957Y20279D01*
X114294Y20863D01*
X114469Y21513D01*
Y22187D01*
X114294Y22838D01*
X113957Y23422D01*
X113481Y23898D01*
X112897Y24235D01*
X112246Y24409D01*
X111573D01*
X110922Y24235D01*
X110338Y23898D01*
X109862Y23422D01*
X109525Y22838D01*
X109350Y22187D01*
Y21646D01*
X109002Y21444D01*
X108872Y21417D01*
X104052Y26237D01*
X104120Y26876D01*
X104318Y27074D01*
X104528Y27580D01*
Y28128D01*
X104318Y28635D01*
X103930Y29022D01*
X103424Y29232D01*
X102875D01*
X102369Y29022D01*
X101981Y28635D01*
X101709Y28581D01*
X96399Y33890D01*
Y46280D01*
X96457Y46420D01*
Y47281D01*
X96127Y48077D01*
X95518Y48686D01*
X94722Y49016D01*
X93861D01*
X93065Y48686D01*
X92456Y48077D01*
X92126Y47281D01*
Y46420D01*
X92184Y46280D01*
Y33018D01*
X92344Y32211D01*
X92801Y31527D01*
X120225Y4104D01*
X120034Y3642D01*
X4730D01*
X4680Y3680D01*
X3680Y4680D01*
X2819Y5803D01*
X2112Y7028D01*
X1570Y8335D01*
X1204Y9701D01*
X1020Y11104D01*
X1020Y11811D01*
X1020Y99508D01*
X942Y99898D01*
X721Y100229D01*
X390Y100450D01*
X-0Y100527D01*
Y163256D01*
X282Y163538D01*
X492Y164045D01*
Y164593D01*
X282Y165099D01*
X-0Y165382D01*
Y194448D01*
X416Y194725D01*
X750Y194587D01*
X1612D01*
X2408Y194916D01*
X3017Y195525D01*
X3347Y196321D01*
Y197183D01*
X3017Y197978D01*
X2408Y198588D01*
X1612Y198917D01*
X750D01*
X416Y198779D01*
X-0Y199056D01*
Y206004D01*
X332D01*
X1128Y206334D01*
X1737Y206943D01*
X2067Y207739D01*
Y208600D01*
X1737Y209396D01*
X1128Y210005D01*
X332Y210335D01*
X-0D01*
Y293173D01*
X390Y293251D01*
X721Y293472D01*
X942Y293803D01*
X1020Y294193D01*
Y381890D01*
X1020Y382597D01*
X1204Y384000D01*
X1570Y385366D01*
X2112Y386673D01*
X2819Y387898D01*
X3680Y389020D01*
X4681Y390021D01*
X5803Y390882D01*
X7028Y391589D01*
X8335Y392130D01*
X9701Y392497D01*
X11104Y392681D01*
X11811Y392681D01*
X11811Y392681D01*
X11811Y392681D01*
X68544Y392685D01*
X68898Y392332D01*
D02*
G37*
G36*
X545972Y392535D02*
X547338Y392169D01*
X548645Y391628D01*
X549870Y390920D01*
X550993Y390059D01*
X551993Y389059D01*
X552854Y387937D01*
X553561Y386712D01*
X554103Y385405D01*
X554469Y384038D01*
X554654Y382636D01*
Y381928D01*
X554654Y287402D01*
X480315D01*
Y259842D01*
X417323D01*
Y230315D01*
X393701D01*
Y238189D01*
X390493D01*
X390393Y238689D01*
X390695Y238814D01*
X391304Y239423D01*
X391634Y240219D01*
Y241080D01*
X391304Y241876D01*
X390695Y242485D01*
X389899Y242815D01*
X389038D01*
X388242Y242485D01*
X387633Y241876D01*
X387303Y241080D01*
Y240219D01*
X387633Y239423D01*
X388242Y238814D01*
X388544Y238689D01*
X388444Y238189D01*
X369660D01*
Y240158D01*
X369568Y240618D01*
X369307Y241009D01*
X368917Y241270D01*
X368456Y241362D01*
X343657D01*
X343196Y241270D01*
X342805Y241009D01*
X342544Y240618D01*
X342453Y240158D01*
Y229767D01*
X342484Y229607D01*
X342497Y229444D01*
X342520Y229399D01*
Y221480D01*
X341773D01*
Y227776D01*
X341871Y228271D01*
Y236339D01*
X341929Y236479D01*
Y237340D01*
X341599Y238136D01*
X340990Y238745D01*
X340195Y239075D01*
X339333D01*
X338537Y238745D01*
X337928Y238136D01*
X337598Y237340D01*
Y236479D01*
X337656Y236339D01*
Y228667D01*
X337558Y228172D01*
Y221694D01*
X329538D01*
Y245683D01*
X329596Y245823D01*
Y246685D01*
X329267Y247481D01*
X328658Y248090D01*
X327862Y248419D01*
X327000D01*
X326205Y248090D01*
X325595Y247481D01*
X325266Y246685D01*
Y245823D01*
X325324Y245683D01*
Y226875D01*
X324824Y226776D01*
X324725Y227014D01*
X324116Y227623D01*
X323320Y227953D01*
X322459D01*
X321663Y227623D01*
X321054Y227014D01*
X320724Y226218D01*
Y225357D01*
X320782Y225217D01*
Y223701D01*
X320724Y223561D01*
Y222699D01*
X320933Y222194D01*
X320610Y221694D01*
X313503D01*
X308621Y226576D01*
X307937Y227033D01*
X307131Y227193D01*
X293846D01*
X293706Y227251D01*
X292844D01*
X292704Y227193D01*
X273135D01*
X272328Y227033D01*
X271645Y226576D01*
X261839Y216770D01*
X250302D01*
X250251Y216800D01*
X249931Y217270D01*
X250041Y217823D01*
Y220886D01*
X250098Y221026D01*
Y221888D01*
X249769Y222684D01*
X249160Y223293D01*
X248364Y223622D01*
X247502D01*
X247362Y223564D01*
X244574D01*
X240572Y227566D01*
X240763Y228028D01*
X266855D01*
X267000Y228057D01*
X267148Y228064D01*
X267228Y228102D01*
X267316Y228120D01*
X267439Y228202D01*
X267572Y228265D01*
X267632Y228331D01*
X267707Y228381D01*
X267789Y228504D01*
X267888Y228613D01*
X268188Y229113D01*
X268218Y229197D01*
X268268Y229272D01*
X268297Y229416D01*
X268346Y229555D01*
X268342Y229645D01*
X268359Y229732D01*
X268331Y229877D01*
X268323Y230025D01*
X268285Y230105D01*
X268268Y230193D01*
X268133Y230518D01*
Y230900D01*
X268280Y231253D01*
X268550Y231523D01*
X268903Y231670D01*
X269286D01*
X269639Y231523D01*
X269909Y231253D01*
X270056Y230900D01*
Y230518D01*
X269921Y230193D01*
X269904Y230105D01*
X269866Y230025D01*
X269858Y229877D01*
X269830Y229732D01*
X269847Y229645D01*
X269843Y229555D01*
X269892Y229416D01*
X269921Y229272D01*
X269971Y229197D01*
X270001Y229113D01*
X270301Y228613D01*
X270400Y228504D01*
X270482Y228381D01*
X270556Y228331D01*
X270617Y228265D01*
X270750Y228202D01*
X270873Y228120D01*
X270960Y228102D01*
X271041Y228064D01*
X271189Y228057D01*
X271334Y228028D01*
X272323D01*
X272439Y228051D01*
X272558D01*
X272667Y228097D01*
X272784Y228120D01*
X272882Y228186D01*
X272992Y228231D01*
X273076Y228315D01*
X273153Y228367D01*
X273434Y228086D01*
X274230Y227756D01*
X275092D01*
X275887Y228086D01*
X276168Y228367D01*
X276246Y228315D01*
X276330Y228231D01*
X276439Y228186D01*
X276538Y228120D01*
X276654Y228097D01*
X276764Y228051D01*
X276883D01*
X276999Y228028D01*
X313878D01*
X314339Y228120D01*
X314730Y228381D01*
X314991Y228771D01*
X315082Y229232D01*
Y253642D01*
X314991Y254103D01*
X314730Y254493D01*
X314339Y254754D01*
X313878Y254846D01*
X232677D01*
X232216Y254754D01*
X231840Y254503D01*
X231753Y254519D01*
X231340Y254666D01*
Y273272D01*
X231840Y273479D01*
X232196Y273123D01*
X232992Y272793D01*
X233854D01*
X234649Y273123D01*
X235259Y273732D01*
X235588Y274528D01*
Y275389D01*
X235259Y276185D01*
X234649Y276794D01*
X233854Y277124D01*
X232992D01*
X232196Y276794D01*
X231840Y276437D01*
X231340Y276644D01*
Y280076D01*
Y305827D01*
X231179Y306634D01*
X230722Y307318D01*
X227074Y310966D01*
X227016Y311106D01*
X226407Y311715D01*
X225611Y312045D01*
X224749D01*
X223954Y311715D01*
X223344Y311106D01*
X223015Y310310D01*
Y309449D01*
X223344Y308653D01*
X223954Y308044D01*
X224094Y307986D01*
X224429Y307650D01*
X224312Y307061D01*
X223954Y306912D01*
X223344Y306303D01*
X223015Y305507D01*
Y304646D01*
X223344Y303850D01*
X223954Y303241D01*
X224749Y302911D01*
X225611D01*
X226407Y303241D01*
X226625Y303459D01*
X227125Y303252D01*
Y301901D01*
X226625Y301694D01*
X226407Y301912D01*
X225611Y302242D01*
X224749D01*
X223954Y301912D01*
X223344Y301303D01*
X223015Y300507D01*
Y299646D01*
X223344Y298850D01*
X223954Y298241D01*
X224749Y297911D01*
X225611D01*
X226407Y298241D01*
X226625Y298459D01*
X227125Y298252D01*
Y296743D01*
X226625Y296536D01*
X226407Y296754D01*
X225611Y297084D01*
X224749D01*
X223954Y296754D01*
X223344Y296145D01*
X223015Y295349D01*
Y294488D01*
X223344Y293692D01*
X223954Y293083D01*
X224749Y292753D01*
X225611D01*
X226407Y293083D01*
X226625Y293301D01*
X227125Y293094D01*
Y286901D01*
X226625Y286694D01*
X226348Y286971D01*
X225552Y287301D01*
X224690D01*
X223895Y286971D01*
X223285Y286362D01*
X222956Y285566D01*
Y284705D01*
X223285Y283909D01*
X223895Y283300D01*
X224690Y282970D01*
X225552D01*
X226348Y283300D01*
X226625Y283577D01*
X227125Y283370D01*
Y282184D01*
X225751D01*
X225611Y282242D01*
X224749D01*
X223954Y281912D01*
X223344Y281303D01*
X223015Y280507D01*
Y279645D01*
X223344Y278850D01*
X223954Y278240D01*
X224749Y277911D01*
X225611D01*
X225751Y277969D01*
X227125D01*
Y235926D01*
X227285Y235119D01*
X227742Y234435D01*
X241807Y220370D01*
X241865Y220230D01*
X242474Y219621D01*
X243270Y219292D01*
X244131D01*
X244271Y219350D01*
X245826D01*
Y218487D01*
X245789Y218432D01*
X245629Y217626D01*
Y216770D01*
X243453D01*
X242647Y216610D01*
X241963Y216153D01*
X240868Y215058D01*
X233232Y215061D01*
X233232Y215061D01*
X233232Y215061D01*
X232983Y215011D01*
X232771Y214969D01*
X232771Y214969D01*
X232771Y214969D01*
X232588Y214847D01*
X232381Y214708D01*
X232381Y214708D01*
X232381Y214708D01*
X232027Y214354D01*
X232027Y214354D01*
X232027Y214354D01*
X231893Y214154D01*
X231766Y213964D01*
X231766Y213964D01*
X231766Y213964D01*
X231728Y213772D01*
X231674Y213503D01*
X231674Y213503D01*
X231674Y213503D01*
Y204801D01*
X231766Y204341D01*
X232027Y203950D01*
X232027Y203950D01*
X232030Y203947D01*
X232420Y203686D01*
X232881Y203594D01*
X232881Y203594D01*
X242032D01*
X242493Y203686D01*
X242883Y203947D01*
X243144Y204338D01*
X243236Y204798D01*
Y209677D01*
X243473Y209775D01*
X243736Y209843D01*
X244288Y209525D01*
X244939Y209350D01*
X245613D01*
X246263Y209525D01*
X246570Y209702D01*
X264770D01*
X265615Y209870D01*
X266331Y210348D01*
X275133Y219150D01*
X299479D01*
X302081Y216549D01*
X302261Y216428D01*
X302415Y216274D01*
X302616Y216191D01*
X302797Y216071D01*
X303010Y216028D01*
X303211Y215945D01*
X303429D01*
X303642Y215902D01*
X303855Y215945D01*
X304072D01*
X304273Y216028D01*
X304487Y216071D01*
X304667Y216191D01*
X304868Y216274D01*
X305022Y216428D01*
X305203Y216549D01*
X305324Y216730D01*
X305477Y216884D01*
X305561Y217085D01*
X305681Y217265D01*
X305724Y217479D01*
X305807Y217680D01*
Y217897D01*
X305850Y218110D01*
X305807Y218323D01*
Y218541D01*
X305724Y218742D01*
X305681Y218955D01*
X305561Y219136D01*
X305477Y219337D01*
X305324Y219491D01*
X305203Y219671D01*
X302396Y222478D01*
X302603Y222978D01*
X306258D01*
X311140Y218097D01*
X311823Y217640D01*
X312630Y217479D01*
X338993D01*
X339073Y217425D01*
X339880Y217265D01*
X342520D01*
Y191339D01*
X387402D01*
Y190514D01*
X387731Y189718D01*
X388340Y189109D01*
X389136Y188779D01*
X389764D01*
Y178423D01*
X389348Y178145D01*
X388526D01*
X387766Y177831D01*
X387185Y177249D01*
X386870Y176489D01*
Y175667D01*
X387185Y174908D01*
X387766Y174326D01*
X388526Y174011D01*
X389348D01*
X389764Y173734D01*
Y169825D01*
X389407Y169587D01*
X388546D01*
X387750Y169257D01*
X387141Y168648D01*
X386811Y167852D01*
Y166991D01*
X387141Y166195D01*
X387750Y165586D01*
X388546Y165256D01*
X389407D01*
X389764Y165018D01*
Y154150D01*
X389530D01*
X388734Y153820D01*
X388458Y153543D01*
X342520D01*
Y152676D01*
X342453Y152339D01*
Y145439D01*
X342374Y145400D01*
X341874Y145707D01*
Y151395D01*
X341932Y151535D01*
Y152397D01*
X341602Y153192D01*
X340993Y153802D01*
X340197Y154131D01*
X339336D01*
X338540Y153802D01*
X337931Y153192D01*
X337601Y152397D01*
Y151535D01*
X337659Y151395D01*
Y143376D01*
X337820Y142570D01*
X337853Y142519D01*
Y136753D01*
X330312D01*
Y160749D01*
X330369Y160888D01*
Y161750D01*
X330040Y162546D01*
X329431Y163155D01*
X328635Y163484D01*
X327773D01*
X326978Y163155D01*
X326368Y162546D01*
X326039Y161750D01*
Y160888D01*
X326097Y160749D01*
Y137593D01*
X325635Y137402D01*
X324972Y138065D01*
X324997Y138189D01*
Y140276D01*
X325055Y140416D01*
Y141277D01*
X324725Y142073D01*
X324116Y142682D01*
X323320Y143012D01*
X322459D01*
X321663Y142682D01*
X321054Y142073D01*
X320724Y141277D01*
Y140416D01*
X320262Y140259D01*
X309271D01*
X308813Y140717D01*
X309016Y141217D01*
X313878D01*
X314339Y141308D01*
X314729Y141569D01*
X314990Y141960D01*
X315082Y142421D01*
Y166831D01*
X314990Y167291D01*
X314729Y167682D01*
X314339Y167943D01*
X313878Y168035D01*
X254884D01*
X254677Y167993D01*
X254527Y167970D01*
X254379Y167993D01*
X254171Y168035D01*
X233855D01*
Y171610D01*
X234215Y171850D01*
X235076D01*
X235872Y172180D01*
X236481Y172789D01*
X236811Y173585D01*
Y174446D01*
X236481Y175242D01*
X235872Y175851D01*
X235076Y176181D01*
X234215D01*
X233553Y175907D01*
X233238Y176378D01*
X229552Y180063D01*
Y206677D01*
X229392Y207483D01*
X228935Y208167D01*
X227113Y209990D01*
X227017Y210220D01*
X226408Y210829D01*
X225612Y211159D01*
X224750D01*
X223955Y210829D01*
X223345Y210220D01*
X223016Y209424D01*
Y208563D01*
X223345Y207767D01*
X223955Y207158D01*
X224004Y207138D01*
X224393Y206749D01*
X224275Y206159D01*
X223955Y206026D01*
X223345Y205417D01*
X223016Y204621D01*
Y203760D01*
X223345Y202964D01*
X223955Y202355D01*
X224750Y202025D01*
X225338D01*
Y201356D01*
X224750D01*
X223955Y201026D01*
X223345Y200417D01*
X223016Y199621D01*
Y198760D01*
X223345Y197964D01*
X223955Y197355D01*
X224750Y197025D01*
X225338D01*
Y196198D01*
X224750D01*
X223955Y195869D01*
X223345Y195259D01*
X223016Y194464D01*
Y193602D01*
X223345Y192806D01*
X223955Y192197D01*
X224750Y191867D01*
X225338D01*
Y186415D01*
X224691D01*
X223896Y186085D01*
X223286Y185476D01*
X222957Y184680D01*
Y183819D01*
X223286Y183023D01*
X223896Y182414D01*
X224691Y182084D01*
X225338D01*
Y181356D01*
X224750D01*
X223955Y181026D01*
X223345Y180417D01*
X223016Y179621D01*
Y178760D01*
X223345Y177964D01*
X223955Y177355D01*
X224750Y177025D01*
X225612D01*
X225752Y177083D01*
X226572D01*
X229640Y174015D01*
Y148765D01*
X229801Y147958D01*
X230257Y147275D01*
X241807Y135724D01*
X241865Y135585D01*
X242474Y134976D01*
X243270Y134646D01*
X244132D01*
X244271Y134704D01*
X245530D01*
Y133495D01*
X240282Y128247D01*
X233232Y128249D01*
X233232Y128249D01*
X233232Y128249D01*
X232983Y128200D01*
X232771Y128158D01*
X232771Y128158D01*
X232771Y128158D01*
X232588Y128035D01*
X232380Y127897D01*
X232380Y127897D01*
X232380Y127897D01*
X232027Y127543D01*
X232027Y127543D01*
X232027Y127543D01*
X231892Y127342D01*
X231766Y127153D01*
X231766Y127153D01*
X231766Y127152D01*
X231727Y126960D01*
X231674Y126692D01*
X231674Y126692D01*
X231674Y126692D01*
Y117990D01*
X231766Y117529D01*
X232027Y117139D01*
X232027Y117139D01*
X232030Y117136D01*
X232420Y116875D01*
X232881Y116783D01*
X232881Y116783D01*
X242032D01*
X242492Y116875D01*
X242883Y117136D01*
X243144Y117526D01*
X243236Y117987D01*
Y125240D01*
X248369Y130373D01*
X257149D01*
X257340Y129911D01*
X237806Y110377D01*
X211221D01*
X211007Y110335D01*
X210790D01*
X210589Y110251D01*
X210376Y110209D01*
X210195Y110088D01*
X209994Y110005D01*
X209840Y109851D01*
X209659Y109730D01*
X209539Y109550D01*
X209385Y109396D01*
X209302Y109195D01*
X209181Y109014D01*
X209138Y108801D01*
X209055Y108600D01*
Y108382D01*
X209013Y108169D01*
X209055Y107956D01*
Y107739D01*
X209138Y107538D01*
X209181Y107324D01*
X209302Y107144D01*
X209385Y106943D01*
X209539Y106789D01*
X209659Y106608D01*
X209840Y106487D01*
X209994Y106334D01*
X210195Y106250D01*
X210376Y106130D01*
X210589Y106087D01*
X210790Y106004D01*
X211007D01*
X211221Y105962D01*
X238721D01*
X239565Y106130D01*
X240282Y106608D01*
X261289Y127615D01*
X267713D01*
X268558Y127783D01*
X269275Y128262D01*
X274337Y133324D01*
X276346D01*
X276553Y132824D01*
X276357Y132628D01*
X276028Y131832D01*
Y130971D01*
X276357Y130175D01*
X276967Y129566D01*
X277762Y129236D01*
X278624D01*
X279420Y129566D01*
X280029Y130175D01*
X280358Y130971D01*
Y131832D01*
X280029Y132628D01*
X279833Y132824D01*
X280040Y133324D01*
X301152D01*
X302081Y132396D01*
X302261Y132275D01*
X302415Y132121D01*
X302616Y132038D01*
X302797Y131917D01*
X303010Y131875D01*
X303211Y131791D01*
X303429D01*
X303642Y131749D01*
X303855Y131791D01*
X304072D01*
X304273Y131875D01*
X304487Y131917D01*
X304667Y132038D01*
X304868Y132121D01*
X305022Y132275D01*
X305203Y132396D01*
X305324Y132577D01*
X305477Y132730D01*
X305561Y132931D01*
X305681Y133112D01*
X305724Y133325D01*
X305807Y133526D01*
Y133744D01*
X305850Y133957D01*
X305807Y134170D01*
Y134388D01*
X305724Y134588D01*
X305681Y134802D01*
X305561Y134983D01*
X305477Y135183D01*
X305324Y135337D01*
X305203Y135518D01*
X303958Y136763D01*
X304165Y137263D01*
X306306D01*
X306908Y136661D01*
X307592Y136205D01*
X308398Y136044D01*
X321141D01*
X321361Y135715D01*
X323921Y133156D01*
X324604Y132699D01*
X325411Y132538D01*
X339288D01*
X339368Y132484D01*
X340175Y132324D01*
X341316D01*
Y127953D01*
X341407Y127492D01*
X341668Y127101D01*
X342059Y126840D01*
X342520Y126749D01*
Y106595D01*
X390510D01*
X390551Y106533D01*
Y105672D01*
X390881Y104876D01*
X391490Y104267D01*
X391732Y104166D01*
Y92872D01*
X390666Y92526D01*
X388982Y91668D01*
X387453Y90557D01*
X386117Y89220D01*
X385005Y87691D01*
X384148Y86007D01*
X383563Y84210D01*
X383268Y82343D01*
Y80453D01*
X383563Y78586D01*
X383832Y77760D01*
X383428Y77386D01*
X383010Y77559D01*
X382148D01*
X381352Y77229D01*
X380743Y76620D01*
X380413Y75824D01*
Y74963D01*
X380743Y74167D01*
X381352Y73558D01*
X382148Y73228D01*
X383010D01*
X383805Y73558D01*
X384414Y74167D01*
X384652Y74740D01*
X385206Y74828D01*
X386117Y73575D01*
X387453Y72238D01*
X388982Y71128D01*
X390666Y70270D01*
X391732Y69923D01*
Y68603D01*
X370791D01*
X370699Y69063D01*
X370438Y69454D01*
X370047Y69715D01*
X369587Y69807D01*
X342717D01*
X342626Y69789D01*
X342520Y69873D01*
Y69768D01*
X342256Y69715D01*
X341865Y69454D01*
X341604Y69063D01*
X341512Y68603D01*
Y68502D01*
X341050Y68311D01*
X340993Y68368D01*
X340197Y68698D01*
X339336D01*
X338540Y68368D01*
X337931Y67759D01*
X337601Y66963D01*
Y66102D01*
X337659Y65962D01*
Y59863D01*
X337820Y59056D01*
X338148Y58564D01*
Y54864D01*
X330312D01*
Y75315D01*
X330369Y75455D01*
Y76317D01*
X330040Y77113D01*
X329431Y77722D01*
X328635Y78051D01*
X327773D01*
X326978Y77722D01*
X326368Y77113D01*
X326039Y76317D01*
Y75455D01*
X326097Y75315D01*
Y55275D01*
X325710Y54958D01*
X325386Y55023D01*
X322609D01*
X322303Y55329D01*
X321619Y55786D01*
X320813Y55946D01*
X301063D01*
X300923Y56004D01*
X300061D01*
X299921Y55946D01*
X269606D01*
X268800Y55786D01*
X268116Y55329D01*
X266962Y54174D01*
X248504D01*
X248364Y54232D01*
X247502D01*
X246888Y53978D01*
X246309D01*
X245830Y54073D01*
X245708Y54683D01*
X245252Y55366D01*
X243033Y57586D01*
X243224Y58047D01*
X272496D01*
X272956Y58139D01*
X272987Y58159D01*
X273434Y57712D01*
X274230Y57382D01*
X275092D01*
X275887Y57712D01*
X276335Y58159D01*
X276365Y58139D01*
X276826Y58047D01*
X313878D01*
X314339Y58139D01*
X314729Y58400D01*
X314990Y58791D01*
X315082Y59252D01*
Y83661D01*
X314990Y84122D01*
X314729Y84513D01*
X314339Y84774D01*
X313878Y84865D01*
X297223D01*
X297176Y84856D01*
X297129Y84862D01*
X296947Y84811D01*
X296762Y84774D01*
X296443Y85160D01*
X296167Y86007D01*
X295309Y87691D01*
X294198Y89220D01*
X292862Y90557D01*
X291333Y91668D01*
X289649Y92526D01*
X287851Y93110D01*
X285984Y93405D01*
X284094D01*
X282227Y93110D01*
X280430Y92526D01*
X278746Y91668D01*
X277217Y90557D01*
X275880Y89220D01*
X274769Y87691D01*
X273911Y86007D01*
X273636Y85160D01*
X273316Y84774D01*
X273131Y84811D01*
X272950Y84862D01*
X272902Y84856D01*
X272855Y84865D01*
X256299D01*
X255838Y84774D01*
X255448Y84513D01*
X255187Y84122D01*
X255135Y83862D01*
X254949Y83412D01*
X254678Y83142D01*
X254325Y82996D01*
X253943D01*
X253589Y83142D01*
X253319Y83412D01*
X253133Y83862D01*
X253081Y84122D01*
X252820Y84513D01*
X252429Y84774D01*
X251969Y84865D01*
X232677D01*
X232216Y84774D01*
X231826Y84513D01*
X231565Y84122D01*
X231473Y83661D01*
Y71669D01*
X231011Y71477D01*
X230355Y72133D01*
Y98052D01*
X230195Y98858D01*
X229738Y99542D01*
X227074Y102206D01*
X227016Y102346D01*
X226407Y102955D01*
X225611Y103285D01*
X224749D01*
X223954Y102955D01*
X223344Y102346D01*
X223015Y101550D01*
Y100689D01*
X223344Y99893D01*
X223954Y99284D01*
X224094Y99226D01*
X224429Y98890D01*
X224312Y98301D01*
X223954Y98152D01*
X223344Y97543D01*
X223015Y96747D01*
Y95886D01*
X223344Y95090D01*
X223954Y94481D01*
X224749Y94151D01*
X225611D01*
X225781Y93830D01*
X225360Y93482D01*
X224749D01*
X223954Y93152D01*
X223344Y92543D01*
X223015Y91747D01*
Y90886D01*
X223344Y90090D01*
X223954Y89481D01*
X224749Y89151D01*
X225611D01*
X226019Y88840D01*
Y88636D01*
X225669Y88368D01*
X225581Y88324D01*
X224749D01*
X223954Y87994D01*
X223344Y87385D01*
X223015Y86589D01*
Y85728D01*
X223344Y84932D01*
X223954Y84323D01*
X224749Y83993D01*
X225611D01*
X225725Y84041D01*
X226141Y83763D01*
Y78747D01*
X225725Y78469D01*
X225552Y78541D01*
X224690D01*
X223895Y78211D01*
X223285Y77602D01*
X222956Y76806D01*
Y75945D01*
X223285Y75149D01*
X223895Y74540D01*
X224690Y74210D01*
X225372D01*
X225785Y73893D01*
X225823Y73841D01*
X225611Y73482D01*
X224749D01*
X223954Y73152D01*
X223344Y72543D01*
X223015Y71747D01*
Y70886D01*
X223344Y70090D01*
X223954Y69481D01*
X224749Y69151D01*
X225611D01*
X225614Y69152D01*
X227375D01*
X233897Y62630D01*
Y61633D01*
X234058Y60826D01*
X234515Y60143D01*
X241654Y53003D01*
Y52547D01*
X241634Y52498D01*
Y51636D01*
X241654Y51587D01*
Y51130D01*
X238766Y48242D01*
X238309Y47559D01*
X238149Y46752D01*
Y45826D01*
X237795Y45472D01*
X233232Y45474D01*
X233232Y45474D01*
X233232Y45474D01*
X232983Y45424D01*
X232771Y45382D01*
X232771Y45382D01*
X232771Y45382D01*
X232588Y45260D01*
X232380Y45121D01*
X232380Y45121D01*
X232380Y45121D01*
X232027Y44768D01*
X232027Y44768D01*
X232027Y44767D01*
X231892Y44567D01*
X231766Y44377D01*
X231766Y44377D01*
X231766Y44377D01*
X231727Y44185D01*
X231674Y43916D01*
X231674Y43916D01*
X231674Y43916D01*
Y35214D01*
X231766Y34754D01*
X232027Y34363D01*
X232027Y34363D01*
X232030Y34360D01*
X232420Y34099D01*
X232881Y34007D01*
X232881Y34007D01*
X242032D01*
X242493Y34099D01*
X242883Y34360D01*
X243144Y34751D01*
X243236Y35212D01*
Y44267D01*
X243190Y44495D01*
X243144Y44727D01*
X243144Y44727D01*
X243144Y44728D01*
X243013Y44923D01*
X242883Y45118D01*
X242883Y45118D01*
X242883Y45118D01*
X242689Y45248D01*
X242493Y45379D01*
X242493Y45379D01*
X242493Y45379D01*
X242364Y45405D01*
Y45879D01*
X245252Y48767D01*
X245708Y49451D01*
X245771Y49763D01*
X247683D01*
X248490Y49923D01*
X248544Y49959D01*
X265710D01*
X265901Y49498D01*
X248631Y32228D01*
X214469D01*
X214255Y32185D01*
X214038D01*
X213837Y32102D01*
X213624Y32059D01*
X213443Y31939D01*
X213242Y31855D01*
X213088Y31702D01*
X212907Y31581D01*
X212787Y31400D01*
X212633Y31246D01*
X212550Y31045D01*
X212429Y30865D01*
X212386Y30651D01*
X212303Y30450D01*
Y30233D01*
X212261Y30020D01*
X212303Y29806D01*
Y29589D01*
X212386Y29388D01*
X212429Y29175D01*
X212550Y28994D01*
X212633Y28793D01*
X212787Y28639D01*
X212907Y28459D01*
X213088Y28338D01*
X213242Y28184D01*
X213443Y28101D01*
X213624Y27980D01*
X213837Y27938D01*
X214038Y27854D01*
X214255D01*
X214469Y27812D01*
X224364D01*
X224508Y27596D01*
Y26735D01*
X224837Y25939D01*
X225447Y25330D01*
X226242Y25000D01*
X227104D01*
X227900Y25330D01*
X228509Y25939D01*
X228839Y26735D01*
Y27596D01*
X228983Y27812D01*
X249546D01*
X250390Y27980D01*
X251107Y28459D01*
X270993Y48345D01*
X300734D01*
X300787Y48265D01*
Y47404D01*
X301117Y46608D01*
X301726Y45999D01*
X302522Y45669D01*
X303383D01*
X304179Y45999D01*
X304788Y46608D01*
X305118Y47404D01*
Y48265D01*
X305580Y48388D01*
X305587D01*
X305787Y48471D01*
X306001Y48513D01*
X306182Y48634D01*
X306382Y48717D01*
X306536Y48871D01*
X306717Y48992D01*
X306838Y49173D01*
X306992Y49326D01*
X307075Y49527D01*
X307195Y49708D01*
X307238Y49921D01*
X307321Y50122D01*
Y50340D01*
X307364Y50553D01*
X307321Y50766D01*
Y50984D01*
X307238Y51184D01*
X307229Y51231D01*
X307477Y51646D01*
X307574Y51731D01*
X319914D01*
X319916Y51726D01*
X320525Y51117D01*
X321321Y50787D01*
X322183D01*
X322232Y50808D01*
X324746D01*
X325545Y50649D01*
X339383D01*
X340019Y50013D01*
X340702Y49556D01*
X341392Y49419D01*
X341512Y49299D01*
Y36713D01*
X341604Y36252D01*
X341865Y35861D01*
X342256Y35600D01*
X342520Y35548D01*
Y21063D01*
X371172D01*
Y15346D01*
X366373Y10548D01*
X366332D01*
X365536Y10218D01*
X364927Y9609D01*
X364597Y8813D01*
Y7951D01*
X364927Y7156D01*
X364986Y7097D01*
X364794Y6635D01*
X142937D01*
Y57087D01*
X142845Y57547D01*
X142584Y57938D01*
X142193Y58199D01*
X141732Y58291D01*
X128065D01*
Y66227D01*
X118912D01*
Y58291D01*
X117618D01*
Y58502D01*
X117288Y59298D01*
X116679Y59907D01*
X115884Y60236D01*
X115022D01*
X114226Y59907D01*
X114097Y59777D01*
X113930Y59943D01*
X113134Y60273D01*
X112273D01*
X111477Y59943D01*
X110868Y59334D01*
X110538Y58539D01*
Y58291D01*
X102864D01*
X102709Y58260D01*
X102552Y58250D01*
X102481Y58215D01*
X102403Y58199D01*
X102272Y58112D01*
X102130Y58042D01*
X102078Y57982D01*
X102012Y57938D01*
X101925Y57807D01*
X101821Y57689D01*
X101675Y57436D01*
X101422Y57184D01*
X101113Y57005D01*
X100769Y56913D01*
X100412D01*
X100068Y57005D01*
X99759Y57184D01*
X99506Y57436D01*
X99360Y57689D01*
X99257Y57807D01*
X99169Y57938D01*
X99103Y57982D01*
X99051Y58042D01*
X98909Y58112D01*
X98778Y58199D01*
X98700Y58215D01*
X98629Y58250D01*
X98472Y58260D01*
X98317Y58291D01*
X69005D01*
X68898Y58379D01*
Y59125D01*
X69358Y59316D01*
X69749Y59577D01*
X70010Y59967D01*
X70102Y60428D01*
Y104001D01*
X73169D01*
X74311Y102859D01*
Y102817D01*
X74641Y102022D01*
X75250Y101412D01*
X76046Y101083D01*
X76907D01*
X77703Y101412D01*
X78312Y102022D01*
X78642Y102817D01*
Y103679D01*
X78312Y104475D01*
X77703Y105084D01*
X76907Y105413D01*
X76866D01*
X75780Y106499D01*
X75826Y106727D01*
X76435Y107336D01*
X76765Y108132D01*
Y108994D01*
X76435Y109790D01*
X75826Y110399D01*
X75030Y110728D01*
X74169D01*
X73373Y110399D01*
X73358Y110384D01*
X73343Y110399D01*
X72547Y110728D01*
X71685D01*
X70889Y110399D01*
X70583Y110092D01*
X70444Y110099D01*
X70056Y110272D01*
X70010Y110502D01*
X69749Y110893D01*
X69624Y110976D01*
Y111465D01*
X69749Y111548D01*
X70010Y111939D01*
X70102Y112400D01*
Y152165D01*
X70214D01*
X71010Y152495D01*
X71619Y153104D01*
X71949Y153900D01*
Y154761D01*
X71619Y155557D01*
X71010Y156166D01*
X70214Y156496D01*
X70102D01*
Y161509D01*
X70071Y161663D01*
X70061Y161820D01*
X70026Y161891D01*
X70010Y161969D01*
X69923Y162100D01*
X69853Y162242D01*
X69793Y162294D01*
X69749Y162360D01*
X69618Y162448D01*
X69500Y162551D01*
X69000Y162840D01*
X68898Y162875D01*
Y165275D01*
X69000Y165310D01*
X69500Y165598D01*
X69618Y165702D01*
X69749Y165789D01*
X69793Y165856D01*
X69853Y165908D01*
X69923Y166049D01*
X70010Y166180D01*
X70026Y166258D01*
X70061Y166329D01*
X70071Y166487D01*
X70102Y166641D01*
Y209316D01*
X75220D01*
X75250Y209286D01*
X76046Y208957D01*
X76907D01*
X77703Y209286D01*
X78312Y209895D01*
X78642Y210691D01*
Y211553D01*
X78312Y212349D01*
X77703Y212958D01*
X76907Y213287D01*
X76046D01*
X75250Y212958D01*
X75220Y212928D01*
X70102D01*
Y214371D01*
X70518Y214649D01*
X70715Y214567D01*
X71576D01*
X72372Y214897D01*
X72384Y214908D01*
X72395Y214897D01*
X73191Y214567D01*
X74053D01*
X74849Y214897D01*
X75458Y215506D01*
X75787Y216302D01*
Y217163D01*
X75458Y217959D01*
X74849Y218568D01*
X74053Y218898D01*
X73191D01*
X72395Y218568D01*
X72384Y218556D01*
X72372Y218568D01*
X71576Y218898D01*
X70994D01*
X70787Y219398D01*
X71127Y219738D01*
X71457Y220534D01*
Y221395D01*
X71127Y222191D01*
X70518Y222800D01*
X70102Y222973D01*
Y228937D01*
X70116D01*
X70912Y229267D01*
X71521Y229876D01*
X71850Y230672D01*
Y231533D01*
X71521Y232329D01*
X70912Y232938D01*
X70116Y233268D01*
X70102D01*
Y245014D01*
X70079Y245130D01*
Y245249D01*
X70033Y245359D01*
X70010Y245475D01*
X69944Y245573D01*
X69899Y245683D01*
X69815Y245767D01*
X69749Y245866D01*
X69651Y245932D01*
X69567Y246015D01*
X69151Y246293D01*
X69041Y246339D01*
X68943Y246405D01*
X68898Y246413D01*
Y248468D01*
X68943Y248477D01*
X69041Y248543D01*
X69151Y248589D01*
X69567Y248867D01*
X69651Y248950D01*
X69749Y249016D01*
X69815Y249115D01*
X69899Y249199D01*
X69944Y249308D01*
X70010Y249407D01*
X70033Y249523D01*
X70079Y249633D01*
Y249751D01*
X70102Y249868D01*
Y258224D01*
X70086Y258302D01*
X70092Y258381D01*
X70041Y258530D01*
X70010Y258685D01*
X69966Y258751D01*
X69941Y258826D01*
X69837Y258945D01*
X69749Y259076D01*
X69699Y259109D01*
X69692Y259119D01*
X69671Y259133D01*
X69631Y259180D01*
X69574Y259223D01*
X69433Y259293D01*
X69302Y259380D01*
X69224Y259396D01*
X69152Y259431D01*
X68995Y259441D01*
X68898Y259461D01*
Y262193D01*
X68995Y262212D01*
X69152Y262223D01*
X69224Y262258D01*
X69302Y262273D01*
X69433Y262361D01*
X69574Y262430D01*
X69631Y262474D01*
X69671Y262520D01*
X69692Y262534D01*
X69699Y262544D01*
X69749Y262578D01*
X69837Y262709D01*
X69941Y262827D01*
X69966Y262902D01*
X70010Y262969D01*
X70041Y263123D01*
X70092Y263272D01*
X70086Y263351D01*
X70102Y263429D01*
Y309901D01*
X75906D01*
X76046Y309843D01*
X76907D01*
X77703Y310172D01*
X78312Y310782D01*
X78642Y311577D01*
Y312439D01*
X78312Y313235D01*
X77703Y313844D01*
X76907Y314173D01*
X76046D01*
X75906Y314116D01*
X70102D01*
Y317620D01*
X70157Y317653D01*
X70602Y317773D01*
X71116Y317259D01*
X71912Y316929D01*
X72773D01*
X73569Y317259D01*
X73819Y317509D01*
X74069Y317259D01*
X74865Y316929D01*
X75726D01*
X76522Y317259D01*
X77131Y317868D01*
X77461Y318664D01*
Y319525D01*
X77131Y320321D01*
X76522Y320930D01*
X75726Y321260D01*
X74865D01*
X74069Y320930D01*
X73819Y320680D01*
X73569Y320930D01*
X72773Y321260D01*
X71912D01*
X71116Y320930D01*
X70602Y320416D01*
X70157Y320535D01*
X70102Y320569D01*
Y392332D01*
X70102Y392332D01*
X70392Y392686D01*
X543862Y392720D01*
X544569D01*
X545972Y392535D01*
D02*
G37*
G36*
X368456Y231941D02*
X368396Y231916D01*
X367787Y231307D01*
X367457Y230511D01*
Y229649D01*
X367391Y229551D01*
X344488D01*
X344157Y229485D01*
X343657Y229767D01*
Y240158D01*
X368456D01*
Y231941D01*
D02*
G37*
G36*
X313878Y229232D02*
X276999D01*
X276826Y229491D01*
Y230352D01*
X276497Y231148D01*
X275887Y231757D01*
X275092Y232087D01*
X274230D01*
X273434Y231757D01*
X272825Y231148D01*
X272496Y230352D01*
Y229491D01*
X272323Y229232D01*
X271334D01*
X271034Y229732D01*
X271260Y230278D01*
Y231139D01*
X270930Y231935D01*
X270321Y232544D01*
X269525Y232874D01*
X268664D01*
X267868Y232544D01*
X267259Y231935D01*
X266929Y231139D01*
Y230278D01*
X267155Y229732D01*
X266855Y229232D01*
X238906D01*
X232677Y235461D01*
Y253642D01*
X313878D01*
Y229232D01*
D02*
G37*
G36*
X419291Y208661D02*
X419291Y159449D01*
X395669D01*
Y196850D01*
X394988Y197531D01*
X395195Y198031D01*
X395608D01*
X396404Y198361D01*
X397013Y198970D01*
X397342Y199766D01*
Y200628D01*
X397013Y201423D01*
X396404Y202032D01*
X395608Y202362D01*
X394746D01*
X393951Y202032D01*
X393341Y201423D01*
X393012Y200628D01*
Y200215D01*
X392512Y200008D01*
X385045Y207475D01*
X385103Y207533D01*
X385433Y208329D01*
Y209191D01*
X385103Y209986D01*
X384494Y210595D01*
X383698Y210925D01*
X382837D01*
X382041Y210595D01*
X381983Y210537D01*
X381299Y211220D01*
X344488Y211220D01*
Y213484D01*
Y225197D01*
Y228346D01*
X368294D01*
X368396Y228244D01*
X369192Y227915D01*
X370054D01*
X370849Y228244D01*
X370951Y228346D01*
X378775D01*
X379250Y228150D01*
X380111D01*
X380586Y228346D01*
X399606D01*
X419291Y208661D01*
D02*
G37*
G36*
X242032Y213854D02*
Y204798D01*
X232881D01*
X232878Y204801D01*
Y213503D01*
X233232Y213856D01*
X242032Y213854D01*
D02*
G37*
G36*
X495669Y222441D02*
X513624D01*
Y182283D01*
X492563D01*
Y183061D01*
X492222Y184334D01*
X491563Y185475D01*
X490631Y186407D01*
X489489Y187067D01*
X488216Y187408D01*
X486898D01*
X485625Y187067D01*
X484483Y186407D01*
X483551Y185475D01*
X482892Y184334D01*
X482551Y183061D01*
Y182283D01*
X478779D01*
X450787Y210186D01*
Y255964D01*
X462246D01*
X495669Y222441D01*
D02*
G37*
G36*
X313878Y142421D02*
X275447D01*
X275347Y142921D01*
X275887Y143145D01*
X276497Y143754D01*
X276826Y144550D01*
Y145411D01*
X276497Y146207D01*
X275887Y146816D01*
X275092Y147146D01*
X274230D01*
X273434Y146816D01*
X272825Y146207D01*
X272496Y145411D01*
Y144550D01*
X272825Y143754D01*
X273434Y143145D01*
X273974Y142921D01*
X273875Y142421D01*
X241072D01*
X233855Y149638D01*
Y166831D01*
X254171D01*
X254191Y166339D01*
X253540Y166164D01*
X252956Y165827D01*
X252480Y165351D01*
X252143Y164767D01*
X251969Y164116D01*
Y163443D01*
X252143Y162792D01*
X252480Y162208D01*
X252956Y161732D01*
X253540Y161395D01*
X254191Y161221D01*
X254865D01*
X255515Y161395D01*
X256099Y161732D01*
X256575Y162208D01*
X256912Y162792D01*
X257087Y163443D01*
Y164116D01*
X256912Y164767D01*
X256575Y165351D01*
X256099Y165827D01*
X255515Y166164D01*
X254865Y166339D01*
X254884Y166831D01*
X313878D01*
Y142421D01*
D02*
G37*
G36*
X368456Y145237D02*
X368066Y144875D01*
X367913Y144905D01*
X343657D01*
Y152339D01*
X368456D01*
Y145237D01*
D02*
G37*
G36*
X419291Y122047D02*
Y98016D01*
X395669D01*
X395669Y110236D01*
X377953Y127953D01*
X342520Y127953D01*
Y143701D01*
X367913D01*
Y143270D01*
X368243Y142474D01*
X368852Y141865D01*
X369648Y141535D01*
X370509D01*
X371305Y141865D01*
X371914Y142474D01*
X372244Y143270D01*
Y143701D01*
X378292D01*
X378454Y143538D01*
X379250Y143209D01*
X380111D01*
X380907Y143538D01*
X381069Y143701D01*
X397638D01*
X419291Y122047D01*
D02*
G37*
G36*
X271869Y140717D02*
X265740Y134588D01*
X249745D01*
Y136240D01*
X249803Y136380D01*
Y137242D01*
X249474Y138038D01*
X248864Y138647D01*
X248068Y138976D01*
X247207D01*
X247067Y138918D01*
X244574D01*
X242738Y140755D01*
X242929Y141217D01*
X271666D01*
X271869Y140717D01*
D02*
G37*
G36*
X482480Y166043D02*
X482551D01*
Y165443D01*
X482892Y164170D01*
X483551Y163029D01*
X484483Y162097D01*
X485625Y161437D01*
X486898Y161096D01*
X488216D01*
X489489Y161437D01*
X490631Y162097D01*
X491563Y163029D01*
X492222Y164170D01*
X492563Y165443D01*
Y166043D01*
X514295D01*
Y125984D01*
X492563D01*
Y126761D01*
X492222Y128035D01*
X491563Y129176D01*
X490631Y130108D01*
X489489Y130767D01*
X488216Y131108D01*
X486898D01*
X485625Y130767D01*
X484483Y130108D01*
X483551Y129176D01*
X482892Y128035D01*
X482551Y126761D01*
Y125984D01*
X473819D01*
X461043Y138760D01*
X450787Y149065D01*
Y187913D01*
X460610D01*
X482480Y166043D01*
D02*
G37*
G36*
X242032Y127042D02*
Y117987D01*
X232881D01*
X232878Y117990D01*
Y126692D01*
X233232Y127045D01*
X242032Y127042D01*
D02*
G37*
G36*
X482480Y109941D02*
X482551D01*
Y109144D01*
X482892Y107871D01*
X483551Y106729D01*
X484483Y105797D01*
X485625Y105138D01*
X486898Y104797D01*
X488216D01*
X489489Y105138D01*
X490631Y105797D01*
X491563Y106729D01*
X492222Y107871D01*
X492563Y109144D01*
Y109941D01*
X514316D01*
X514428Y70334D01*
X514075Y69980D01*
X492563D01*
Y70462D01*
X492222Y71736D01*
X491563Y72877D01*
X490631Y73809D01*
X489489Y74468D01*
X488216Y74809D01*
X486898D01*
X485625Y74468D01*
X484483Y73809D01*
X483551Y72877D01*
X482892Y71736D01*
X482551Y70462D01*
Y69980D01*
X466811D01*
X450787Y86004D01*
Y124803D01*
X467618D01*
X482480Y109941D01*
D02*
G37*
G36*
X313878Y59252D02*
X276826D01*
Y59978D01*
X276497Y60774D01*
X275887Y61383D01*
X275092Y61713D01*
X274230D01*
X273434Y61383D01*
X272825Y60774D01*
X272496Y59978D01*
Y59252D01*
X241366D01*
X238112Y62506D01*
Y63503D01*
X238420Y63878D01*
X238423D01*
X239219Y64208D01*
X239828Y64817D01*
X240158Y65613D01*
Y66474D01*
X239828Y67270D01*
X239219Y67879D01*
X238423Y68209D01*
X237561D01*
X236766Y67879D01*
X236156Y67270D01*
X236054Y67022D01*
X235563Y66925D01*
X232677Y69811D01*
Y83661D01*
X251969D01*
Y83526D01*
X252298Y82730D01*
X252907Y82121D01*
X253703Y81791D01*
X254565D01*
X255360Y82121D01*
X255970Y82730D01*
X256299Y83526D01*
Y83661D01*
X272855D01*
X273180Y83281D01*
X273031Y82343D01*
Y80453D01*
X273327Y78586D01*
X273911Y76788D01*
X274769Y75104D01*
X275880Y73575D01*
X277217Y72238D01*
X278746Y71128D01*
X280430Y70270D01*
X282227Y69685D01*
X284094Y69390D01*
X285984D01*
X287851Y69685D01*
X289649Y70270D01*
X291333Y71128D01*
X292862Y72238D01*
X294198Y73575D01*
X295309Y75104D01*
X296167Y76788D01*
X296752Y78586D01*
X297047Y80453D01*
Y82343D01*
X296899Y83281D01*
X297223Y83661D01*
X313878D01*
Y59252D01*
D02*
G37*
G36*
X369587Y60592D02*
X369156D01*
X368360Y60263D01*
X368205Y60108D01*
X342717Y60168D01*
Y68603D01*
X369587D01*
Y60592D01*
D02*
G37*
G36*
X421260Y36713D02*
X402275D01*
X402112Y36875D01*
X401316Y37205D01*
X400455D01*
X399659Y36875D01*
X399497Y36713D01*
X342717D01*
Y58610D01*
X343071Y58963D01*
X367390Y58905D01*
X367421Y58858D01*
Y57996D01*
X367751Y57200D01*
X368360Y56591D01*
X369156Y56262D01*
X370017D01*
X370813Y56591D01*
X371422Y57200D01*
X371752Y57996D01*
Y58858D01*
X371422Y59654D01*
X370813Y60263D01*
X370732Y60296D01*
X370791Y60592D01*
Y62008D01*
X377978D01*
X378185Y61508D01*
X377844Y61167D01*
X377514Y60371D01*
Y59509D01*
X377844Y58714D01*
X378453Y58104D01*
X379249Y57775D01*
X380110D01*
X380906Y58104D01*
X381515Y58714D01*
X381845Y59509D01*
Y60371D01*
X381515Y61167D01*
X381174Y61508D01*
X381381Y62008D01*
X421260D01*
Y36713D01*
D02*
G37*
G36*
X242032Y44267D02*
Y35212D01*
X232881D01*
X232878Y35214D01*
Y43916D01*
X233232Y44269D01*
X242032Y44267D01*
D02*
G37*
G36*
X482421Y53504D02*
X482551D01*
Y52845D01*
X482892Y51572D01*
X483551Y50430D01*
X484483Y49498D01*
X485625Y48839D01*
X486898Y48498D01*
X488216D01*
X489489Y48839D01*
X490631Y49498D01*
X491563Y50430D01*
X492222Y51572D01*
X492563Y52845D01*
Y53504D01*
X514134D01*
X514173Y53488D01*
Y13432D01*
X492918Y13299D01*
X492563Y13652D01*
Y14163D01*
X492222Y15436D01*
X491563Y16578D01*
X490631Y17510D01*
X489489Y18169D01*
X488216Y18510D01*
X486898D01*
X485625Y18169D01*
X484483Y17510D01*
X483551Y16578D01*
X482892Y15436D01*
X482551Y14163D01*
Y13234D01*
X460623Y13098D01*
X451157Y22563D01*
X451383Y22789D01*
X451712Y23585D01*
Y24446D01*
X451383Y25242D01*
X450787Y25838D01*
X450787Y61654D01*
X474272D01*
X482421Y53504D01*
D02*
G37*
%LPC*%
G36*
X33030Y348740D02*
X32482D01*
X31975Y348530D01*
X31588Y348143D01*
X31378Y347636D01*
Y347088D01*
X31588Y346582D01*
X31975Y346194D01*
X32482Y345984D01*
X33030D01*
X33536Y346194D01*
X33924Y346582D01*
X34134Y347088D01*
Y347636D01*
X33924Y348143D01*
X33536Y348530D01*
X33030Y348740D01*
D02*
G37*
G36*
X9942Y333031D02*
X9113D01*
X8312Y332817D01*
X7594Y332402D01*
X7007Y331816D01*
X6593Y331098D01*
X6378Y330296D01*
Y329467D01*
X6593Y328666D01*
X7007Y327948D01*
X7594Y327361D01*
X8312Y326947D01*
X9113Y326732D01*
X9942D01*
X10743Y326947D01*
X11461Y327361D01*
X12048Y327948D01*
X12462Y328666D01*
X12677Y329467D01*
Y330296D01*
X12462Y331098D01*
X12048Y331816D01*
X11461Y332402D01*
X10743Y332817D01*
X9942Y333031D01*
D02*
G37*
G36*
X28522Y321063D02*
X27974D01*
X27467Y320853D01*
X27080Y320466D01*
X26870Y319959D01*
Y319411D01*
X27080Y318904D01*
X27467Y318517D01*
X27974Y318307D01*
X28522D01*
X29028Y318517D01*
X29416Y318904D01*
X29626Y319411D01*
Y319959D01*
X29416Y320466D01*
X29028Y320853D01*
X28522Y321063D01*
D02*
G37*
G36*
X64313Y320276D02*
X63639D01*
X62989Y320101D01*
X62405Y319764D01*
X61929Y319288D01*
X61592Y318704D01*
X61417Y318054D01*
Y317380D01*
X61592Y316729D01*
X61929Y316145D01*
X62405Y315669D01*
X62989Y315332D01*
X63639Y315158D01*
X64313D01*
X64964Y315332D01*
X65548Y315669D01*
X66024Y316145D01*
X66361Y316729D01*
X66535Y317380D01*
Y318054D01*
X66361Y318704D01*
X66024Y319288D01*
X65548Y319764D01*
X64964Y320101D01*
X64313Y320276D01*
D02*
G37*
G36*
X31635Y297441D02*
X30806D01*
X30005Y297226D01*
X29287Y296812D01*
X28700Y296225D01*
X28286Y295507D01*
X28071Y294706D01*
Y293877D01*
X28286Y293076D01*
X28700Y292357D01*
X29287Y291771D01*
X30005Y291356D01*
X30806Y291142D01*
X31635D01*
X32436Y291356D01*
X33154Y291771D01*
X33741Y292357D01*
X34155Y293076D01*
X34370Y293877D01*
Y294706D01*
X34155Y295507D01*
X33741Y296225D01*
X33154Y296812D01*
X32436Y297226D01*
X31635Y297441D01*
D02*
G37*
G36*
X39555Y291058D02*
X39006D01*
X38500Y290849D01*
X38112Y290461D01*
X37903Y289954D01*
Y289406D01*
X38112Y288900D01*
X38500Y288512D01*
X39006Y288302D01*
X39555D01*
X40061Y288512D01*
X40449Y288900D01*
X40659Y289406D01*
Y289954D01*
X40449Y290461D01*
X40061Y290849D01*
X39555Y291058D01*
D02*
G37*
G36*
X53896Y270788D02*
X53348D01*
X52841Y270578D01*
X52454Y270190D01*
X52244Y269684D01*
Y269135D01*
X52454Y268629D01*
X52841Y268241D01*
X53348Y268032D01*
X53896D01*
X54403Y268241D01*
X54790Y268629D01*
X55000Y269135D01*
Y269684D01*
X54790Y270190D01*
X54403Y270578D01*
X53896Y270788D01*
D02*
G37*
G36*
X14407Y272047D02*
X13546D01*
X12750Y271718D01*
X12141Y271109D01*
X11811Y270313D01*
Y269451D01*
X12141Y268655D01*
X12750Y268046D01*
X13546Y267717D01*
X14407D01*
X15203Y268046D01*
X15812Y268655D01*
X16142Y269451D01*
Y270313D01*
X15812Y271109D01*
X15203Y271718D01*
X14407Y272047D01*
D02*
G37*
G36*
X58739Y252756D02*
X58191D01*
X57684Y252546D01*
X57296Y252158D01*
X57087Y251652D01*
Y251104D01*
X57296Y250597D01*
X57684Y250210D01*
X58191Y250000D01*
X58739D01*
X59245Y250210D01*
X59633Y250597D01*
X59842Y251104D01*
Y251652D01*
X59633Y252158D01*
X59245Y252546D01*
X58739Y252756D01*
D02*
G37*
G36*
X51947Y249213D02*
X51399D01*
X50893Y249003D01*
X50505Y248615D01*
X50295Y248109D01*
Y247561D01*
X50505Y247054D01*
X50893Y246667D01*
X51399Y246457D01*
X51947D01*
X52454Y246667D01*
X52841Y247054D01*
X53051Y247561D01*
Y248109D01*
X52841Y248615D01*
X52454Y249003D01*
X51947Y249213D01*
D02*
G37*
G36*
X29860Y247736D02*
X28998D01*
X28203Y247407D01*
X27593Y246797D01*
X27264Y246002D01*
Y245140D01*
X27593Y244344D01*
X28203Y243735D01*
X28998Y243406D01*
X29860D01*
X30656Y243735D01*
X31265Y244344D01*
X31594Y245140D01*
Y246002D01*
X31265Y246797D01*
X30656Y247407D01*
X29860Y247736D01*
D02*
G37*
G36*
X66825Y241732D02*
X66277D01*
X65771Y241523D01*
X65383Y241135D01*
X65173Y240628D01*
Y240080D01*
X65383Y239574D01*
X65771Y239186D01*
X66277Y238976D01*
X66825D01*
X67332Y239186D01*
X67719Y239574D01*
X67929Y240080D01*
Y240628D01*
X67719Y241135D01*
X67332Y241523D01*
X66825Y241732D01*
D02*
G37*
G36*
X42498Y239158D02*
X41950D01*
X41444Y238948D01*
X41056Y238560D01*
X40846Y238054D01*
Y237505D01*
X41056Y236999D01*
X41444Y236611D01*
X41950Y236402D01*
X42498D01*
X43005Y236611D01*
X43393Y236999D01*
X43602Y237505D01*
Y238054D01*
X43393Y238560D01*
X43005Y238948D01*
X42498Y239158D01*
D02*
G37*
G36*
X30236Y237754D02*
X29688D01*
X29182Y237544D01*
X28794Y237157D01*
X28584Y236650D01*
Y236102D01*
X28794Y235596D01*
X29182Y235208D01*
X29688Y234998D01*
X30236D01*
X30743Y235208D01*
X31130Y235596D01*
X31340Y236102D01*
Y236650D01*
X31130Y237157D01*
X30743Y237544D01*
X30236Y237754D01*
D02*
G37*
G36*
X12281Y239075D02*
X11341D01*
X10473Y238715D01*
X9808Y238051D01*
X9449Y237182D01*
Y236243D01*
X9808Y235374D01*
X10473Y234710D01*
X11341Y234350D01*
X12281D01*
X13149Y234710D01*
X13814Y235374D01*
X14173Y236243D01*
Y237182D01*
X13814Y238051D01*
X13149Y238715D01*
X12281Y239075D01*
D02*
G37*
G36*
X37537Y236909D02*
X36676D01*
X35880Y236580D01*
X35271Y235971D01*
X34941Y235175D01*
Y234313D01*
X35271Y233518D01*
X35880Y232908D01*
X36676Y232579D01*
X37537D01*
X38333Y232908D01*
X38942Y233518D01*
X39272Y234313D01*
Y235175D01*
X38942Y235971D01*
X38333Y236580D01*
X37537Y236909D01*
D02*
G37*
G36*
X18147Y234941D02*
X17286D01*
X16490Y234611D01*
X15881Y234002D01*
X15551Y233206D01*
Y232345D01*
X15881Y231549D01*
X16490Y230940D01*
X17286Y230610D01*
X18147D01*
X18943Y230940D01*
X19552Y231549D01*
X19882Y232345D01*
Y233206D01*
X19552Y234002D01*
X18943Y234611D01*
X18147Y234941D01*
D02*
G37*
G36*
X61593Y227756D02*
X61045D01*
X60538Y227546D01*
X60151Y227158D01*
X59941Y226652D01*
Y226104D01*
X60151Y225597D01*
X60538Y225210D01*
X61045Y225000D01*
X61593D01*
X62099Y225210D01*
X62487Y225597D01*
X62697Y226104D01*
Y226652D01*
X62487Y227158D01*
X62099Y227546D01*
X61593Y227756D01*
D02*
G37*
G36*
X36750Y228150D02*
X35888D01*
X35092Y227820D01*
X34483Y227211D01*
X34154Y226415D01*
Y225553D01*
X34483Y224758D01*
X35092Y224149D01*
X35888Y223819D01*
X36750D01*
X37545Y224149D01*
X38155Y224758D01*
X38484Y225553D01*
Y226415D01*
X38155Y227211D01*
X37545Y227820D01*
X36750Y228150D01*
D02*
G37*
G36*
X56770Y225197D02*
X56222D01*
X55716Y224987D01*
X55328Y224599D01*
X55118Y224093D01*
Y223545D01*
X55328Y223038D01*
X55716Y222651D01*
X56222Y222441D01*
X56770D01*
X57277Y222651D01*
X57664Y223038D01*
X57874Y223545D01*
Y224093D01*
X57664Y224599D01*
X57277Y224987D01*
X56770Y225197D01*
D02*
G37*
G36*
X58246Y219719D02*
X57698D01*
X57192Y219509D01*
X56804Y219121D01*
X56595Y218615D01*
Y218067D01*
X56804Y217560D01*
X57192Y217172D01*
X57698Y216963D01*
X58246D01*
X58753Y217172D01*
X59141Y217560D01*
X59350Y218067D01*
Y218615D01*
X59141Y219121D01*
X58753Y219509D01*
X58246Y219719D01*
D02*
G37*
G36*
X40530Y213976D02*
X39982D01*
X39475Y213767D01*
X39088Y213379D01*
X38878Y212873D01*
Y212324D01*
X39088Y211818D01*
X39475Y211430D01*
X39982Y211221D01*
X40530D01*
X41036Y211430D01*
X41424Y211818D01*
X41634Y212324D01*
Y212873D01*
X41424Y213379D01*
X41036Y213767D01*
X40530Y213976D01*
D02*
G37*
G36*
X60470Y213976D02*
X59609D01*
X58813Y213647D01*
X58204Y213038D01*
X57874Y212242D01*
Y211380D01*
X58204Y210584D01*
X58813Y209975D01*
X59609Y209646D01*
X60470D01*
X61266Y209975D01*
X61875Y210584D01*
X62205Y211380D01*
Y212242D01*
X61875Y213038D01*
X61266Y213647D01*
X60470Y213976D01*
D02*
G37*
G36*
X33009Y211811D02*
X32148D01*
X31352Y211481D01*
X30743Y210872D01*
X30413Y210076D01*
Y209215D01*
X30743Y208419D01*
X31352Y207810D01*
X32148Y207480D01*
X33009D01*
X33805Y207810D01*
X34414Y208419D01*
X34744Y209215D01*
Y210076D01*
X34414Y210872D01*
X33805Y211481D01*
X33009Y211811D01*
D02*
G37*
G36*
X59329Y207677D02*
X58781D01*
X58275Y207467D01*
X57887Y207080D01*
X57677Y206573D01*
Y206025D01*
X57887Y205519D01*
X58275Y205131D01*
X58781Y204921D01*
X59329D01*
X59836Y205131D01*
X60223Y205519D01*
X60433Y206025D01*
Y206573D01*
X60223Y207080D01*
X59836Y207467D01*
X59329Y207677D01*
D02*
G37*
G36*
X41809Y200098D02*
X41261D01*
X40755Y199889D01*
X40367Y199501D01*
X40157Y198995D01*
Y198446D01*
X40367Y197940D01*
X40755Y197552D01*
X41261Y197343D01*
X41809D01*
X42316Y197552D01*
X42704Y197940D01*
X42913Y198446D01*
Y198995D01*
X42704Y199501D01*
X42316Y199889D01*
X41809Y200098D01*
D02*
G37*
G36*
X27675Y188228D02*
X26813D01*
X26018Y187899D01*
X25408Y187290D01*
X25079Y186494D01*
Y185632D01*
X25408Y184836D01*
X26018Y184227D01*
X26813Y183898D01*
X27675D01*
X28471Y184227D01*
X29080Y184836D01*
X29410Y185632D01*
Y186494D01*
X29080Y187290D01*
X28471Y187899D01*
X27675Y188228D01*
D02*
G37*
G36*
X17794Y183071D02*
X17246D01*
X16739Y182861D01*
X16352Y182474D01*
X16142Y181967D01*
Y181419D01*
X16352Y180912D01*
X16739Y180525D01*
X17246Y180315D01*
X17794D01*
X18300Y180525D01*
X18688Y180912D01*
X18898Y181419D01*
Y181967D01*
X18688Y182474D01*
X18300Y182861D01*
X17794Y183071D01*
D02*
G37*
G36*
X36139Y184213D02*
X35278D01*
X34482Y183883D01*
X33873Y183274D01*
X33543Y182478D01*
Y181616D01*
X33873Y180821D01*
X34482Y180211D01*
X35278Y179882D01*
X36139D01*
X36935Y180211D01*
X37544Y180821D01*
X37874Y181616D01*
Y182478D01*
X37544Y183274D01*
X36935Y183883D01*
X36139Y184213D01*
D02*
G37*
G36*
X55610Y216464D02*
X55475Y216437D01*
X55336D01*
X55208Y216384D01*
X55073Y216357D01*
X54957Y216280D01*
X54830Y216227D01*
X54732Y216129D01*
X54617Y216053D01*
X54540Y215937D01*
X54442Y215840D01*
X54389Y215712D01*
X54312Y215597D01*
X54285Y215461D01*
X54232Y215333D01*
Y215195D01*
X54205Y215059D01*
X54232Y214923D01*
Y214785D01*
X54255Y214731D01*
Y175173D01*
X54059Y175042D01*
X53755Y174921D01*
X53325Y175098D01*
X52777D01*
X52271Y174889D01*
X51883Y174501D01*
X51673Y173995D01*
Y173446D01*
X51883Y172940D01*
X52271Y172552D01*
X52777Y172343D01*
X53325D01*
X53755Y172520D01*
X54059Y172399D01*
X54255Y172268D01*
Y160195D01*
X54361Y159657D01*
X54514Y159428D01*
X54540Y159365D01*
X54589Y159316D01*
X54666Y159201D01*
X54715Y159152D01*
X54830Y159075D01*
X54928Y158977D01*
X55056Y158924D01*
X55171Y158847D01*
X55307Y158820D01*
X55435Y158767D01*
X55573D01*
X55709Y158740D01*
X55844Y158767D01*
X55983D01*
X56111Y158820D01*
X56246Y158847D01*
X56361Y158924D01*
X56489Y158977D01*
X56587Y159075D01*
X56702Y159152D01*
X56779Y159267D01*
X56877Y159365D01*
X56930Y159493D01*
X57007Y159608D01*
X57034Y159743D01*
X57087Y159871D01*
Y160010D01*
X57114Y160145D01*
X57087Y160281D01*
Y160419D01*
X57064Y160473D01*
Y215010D01*
X56958Y215547D01*
X56805Y215776D01*
X56778Y215840D01*
X56730Y215888D01*
X56653Y216003D01*
X56604Y216053D01*
X56489Y216129D01*
X56391Y216227D01*
X56263Y216280D01*
X56148Y216357D01*
X56012Y216384D01*
X55884Y216437D01*
X55746D01*
X55610Y216464D01*
D02*
G37*
G36*
X32222Y171358D02*
X31361D01*
X30565Y171029D01*
X29956Y170420D01*
X29626Y169624D01*
Y168762D01*
X29956Y167966D01*
X30565Y167357D01*
X31361Y167028D01*
X32222D01*
X33018Y167357D01*
X33627Y167966D01*
X33957Y168762D01*
Y169624D01*
X33627Y170420D01*
X33018Y171029D01*
X32222Y171358D01*
D02*
G37*
G36*
X45550Y169685D02*
X45002D01*
X44495Y169475D01*
X44107Y169088D01*
X43898Y168581D01*
Y168033D01*
X44107Y167526D01*
X44495Y167139D01*
X45002Y166929D01*
X45550D01*
X46056Y167139D01*
X46444Y167526D01*
X46654Y168033D01*
Y168581D01*
X46444Y169088D01*
X46056Y169475D01*
X45550Y169685D01*
D02*
G37*
G36*
X7475Y168602D02*
X6927D01*
X6420Y168393D01*
X6033Y168005D01*
X5823Y167499D01*
Y166950D01*
X6033Y166444D01*
X6420Y166056D01*
X6927Y165847D01*
X7475D01*
X7981Y166056D01*
X8369Y166444D01*
X8579Y166950D01*
Y167499D01*
X8369Y168005D01*
X7981Y168393D01*
X7475Y168602D01*
D02*
G37*
G36*
X31869Y158185D02*
X31320D01*
X30814Y157975D01*
X30426Y157588D01*
X30217Y157081D01*
Y156533D01*
X30426Y156026D01*
X30814Y155639D01*
X31320Y155429D01*
X31869D01*
X32375Y155639D01*
X32763Y156026D01*
X32972Y156533D01*
Y157081D01*
X32763Y157588D01*
X32375Y157975D01*
X31869Y158185D01*
D02*
G37*
G36*
X20017Y154626D02*
X19156D01*
X18360Y154296D01*
X17751Y153687D01*
X17421Y152891D01*
Y152030D01*
X17751Y151234D01*
X18360Y150625D01*
X19156Y150295D01*
X20017D01*
X20813Y150625D01*
X21422Y151234D01*
X21752Y152030D01*
Y152891D01*
X21422Y153687D01*
X20813Y154296D01*
X20017Y154626D01*
D02*
G37*
G36*
X58797Y136122D02*
X57935D01*
X57140Y135792D01*
X56530Y135183D01*
X56201Y134387D01*
Y133526D01*
X56530Y132730D01*
X57140Y132121D01*
X57935Y131791D01*
X58797D01*
X59593Y132121D01*
X60202Y132730D01*
X60532Y133526D01*
Y134387D01*
X60202Y135183D01*
X59593Y135792D01*
X58797Y136122D01*
D02*
G37*
G36*
X3128Y129626D02*
X2580D01*
X2074Y129416D01*
X1686Y129029D01*
X1476Y128522D01*
Y127974D01*
X1686Y127468D01*
X2074Y127080D01*
X2580Y126870D01*
X3128D01*
X3635Y127080D01*
X4022Y127468D01*
X4232Y127974D01*
Y128522D01*
X4022Y129029D01*
X3635Y129416D01*
X3128Y129626D01*
D02*
G37*
G36*
X51258Y126378D02*
X50710D01*
X50204Y126168D01*
X49816Y125780D01*
X49606Y125274D01*
Y124726D01*
X49816Y124220D01*
X50204Y123832D01*
X50710Y123622D01*
X51258D01*
X51765Y123832D01*
X52152Y124220D01*
X52362Y124726D01*
Y125274D01*
X52152Y125780D01*
X51765Y126168D01*
X51258Y126378D01*
D02*
G37*
G36*
X55884Y116339D02*
X55336D01*
X54830Y116129D01*
X54442Y115741D01*
X54232Y115235D01*
Y114687D01*
X54442Y114180D01*
X54830Y113793D01*
X55336Y113583D01*
X55884D01*
X56391Y113793D01*
X56778Y114180D01*
X56988Y114687D01*
Y115235D01*
X56778Y115741D01*
X56391Y116129D01*
X55884Y116339D01*
D02*
G37*
G36*
X39391Y116240D02*
X38562D01*
X37761Y116025D01*
X37042Y115611D01*
X36456Y115024D01*
X36041Y114306D01*
X35827Y113505D01*
Y112676D01*
X36041Y111875D01*
X36456Y111157D01*
X37042Y110570D01*
X37761Y110156D01*
X38562Y109941D01*
X39391D01*
X40192Y110156D01*
X40910Y110570D01*
X41497Y111157D01*
X41911Y111875D01*
X42126Y112676D01*
Y113505D01*
X41911Y114306D01*
X41497Y115024D01*
X40910Y115611D01*
X40192Y116025D01*
X39391Y116240D01*
D02*
G37*
G36*
X63521Y105610D02*
X62660D01*
X61864Y105281D01*
X61255Y104672D01*
X60925Y103876D01*
Y103014D01*
X61255Y102218D01*
X61864Y101609D01*
X62660Y101279D01*
X63521D01*
X64317Y101609D01*
X64926Y102218D01*
X65256Y103014D01*
Y103876D01*
X64926Y104672D01*
X64317Y105281D01*
X63521Y105610D01*
D02*
G37*
G36*
X48659Y104232D02*
X47798D01*
X47002Y103903D01*
X46393Y103294D01*
X46063Y102498D01*
Y101636D01*
X46393Y100840D01*
X47002Y100231D01*
X47798Y99902D01*
X48659D01*
X49455Y100231D01*
X50064Y100840D01*
X50394Y101636D01*
Y102498D01*
X50064Y103294D01*
X49455Y103903D01*
X48659Y104232D01*
D02*
G37*
G36*
X17758Y93799D02*
X17084D01*
X16433Y93625D01*
X15850Y93288D01*
X15373Y92812D01*
X15037Y92228D01*
X14862Y91577D01*
Y90903D01*
X15037Y90252D01*
X15373Y89669D01*
X15850Y89192D01*
X16433Y88855D01*
X17084Y88681D01*
X17758D01*
X18409Y88855D01*
X18993Y89192D01*
X19469Y89669D01*
X19806Y90252D01*
X19980Y90903D01*
Y91577D01*
X19806Y92228D01*
X19469Y92812D01*
X18993Y93288D01*
X18409Y93625D01*
X17758Y93799D01*
D02*
G37*
G36*
X20550Y73327D02*
X20001D01*
X19495Y73117D01*
X19107Y72729D01*
X18898Y72223D01*
Y71675D01*
X19107Y71168D01*
X19495Y70781D01*
X20001Y70571D01*
X20550D01*
X21056Y70781D01*
X21444Y71168D01*
X21654Y71675D01*
Y72223D01*
X21444Y72729D01*
X21056Y73117D01*
X20550Y73327D01*
D02*
G37*
G36*
X30983Y70276D02*
X30435D01*
X29928Y70066D01*
X29541Y69678D01*
X29331Y69172D01*
Y68624D01*
X29541Y68117D01*
X29928Y67730D01*
X30435Y67520D01*
X30983D01*
X31489Y67730D01*
X31877Y68117D01*
X32087Y68624D01*
Y69172D01*
X31877Y69678D01*
X31489Y70066D01*
X30983Y70276D01*
D02*
G37*
G36*
X110806Y52953D02*
X110257D01*
X109751Y52743D01*
X109363Y52355D01*
X109153Y51849D01*
Y51301D01*
X109363Y50794D01*
X109751Y50407D01*
X110257Y50197D01*
X110806D01*
X111312Y50407D01*
X111700Y50794D01*
X111909Y51301D01*
Y51849D01*
X111700Y52355D01*
X111312Y52743D01*
X110806Y52953D01*
D02*
G37*
G36*
X68447Y53937D02*
X67773D01*
X67122Y53763D01*
X66539Y53426D01*
X66062Y52949D01*
X65725Y52366D01*
X65551Y51715D01*
Y51041D01*
X65725Y50390D01*
X66062Y49807D01*
X66539Y49330D01*
X67122Y48993D01*
X67773Y48819D01*
X68447D01*
X69098Y48993D01*
X69681Y49330D01*
X70158Y49807D01*
X70495Y50390D01*
X70669Y51041D01*
Y51715D01*
X70495Y52366D01*
X70158Y52949D01*
X69681Y53426D01*
X69098Y53763D01*
X68447Y53937D01*
D02*
G37*
G36*
X114789Y48622D02*
X114241D01*
X113734Y48412D01*
X113347Y48025D01*
X113137Y47518D01*
Y46970D01*
X113347Y46464D01*
X113734Y46076D01*
X114241Y45866D01*
X114789D01*
X115296Y46076D01*
X115683Y46464D01*
X115893Y46970D01*
Y47518D01*
X115683Y48025D01*
X115296Y48412D01*
X114789Y48622D01*
D02*
G37*
G36*
X64054Y45374D02*
X63505D01*
X62999Y45164D01*
X62611Y44777D01*
X62402Y44270D01*
Y43722D01*
X62611Y43216D01*
X62999Y42828D01*
X63505Y42618D01*
X64054D01*
X64560Y42828D01*
X64948Y43216D01*
X65158Y43722D01*
Y44270D01*
X64948Y44777D01*
X64560Y45164D01*
X64054Y45374D01*
D02*
G37*
G36*
X43483Y43209D02*
X42935D01*
X42428Y42999D01*
X42041Y42611D01*
X41831Y42105D01*
Y41557D01*
X42041Y41050D01*
X42428Y40663D01*
X42935Y40453D01*
X43483D01*
X43989Y40663D01*
X44377Y41050D01*
X44587Y41557D01*
Y42105D01*
X44377Y42611D01*
X43989Y42999D01*
X43483Y43209D01*
D02*
G37*
G36*
X87345Y41929D02*
X86671D01*
X86020Y41755D01*
X85437Y41418D01*
X84960Y40941D01*
X84623Y40358D01*
X84449Y39707D01*
Y39033D01*
X84623Y38382D01*
X84960Y37799D01*
X85437Y37322D01*
X86020Y36985D01*
X86671Y36811D01*
X87345D01*
X87996Y36985D01*
X88579Y37322D01*
X89056Y37799D01*
X89393Y38382D01*
X89567Y39033D01*
Y39707D01*
X89393Y40358D01*
X89056Y40941D01*
X88579Y41418D01*
X87996Y41755D01*
X87345Y41929D01*
D02*
G37*
G36*
X59526Y34252D02*
X58978D01*
X58471Y34042D01*
X58084Y33655D01*
X57874Y33148D01*
Y32600D01*
X58084Y32094D01*
X58471Y31706D01*
X58978Y31496D01*
X59526D01*
X60032Y31706D01*
X60420Y32094D01*
X60630Y32600D01*
Y33148D01*
X60420Y33655D01*
X60032Y34042D01*
X59526Y34252D01*
D02*
G37*
G36*
X113857Y30807D02*
X113309D01*
X112803Y30597D01*
X112415Y30210D01*
X112205Y29703D01*
Y29155D01*
X112415Y28649D01*
X112803Y28261D01*
X113309Y28051D01*
X113857D01*
X114364Y28261D01*
X114751Y28649D01*
X114961Y29155D01*
Y29703D01*
X114751Y30210D01*
X114364Y30597D01*
X113857Y30807D01*
D02*
G37*
G36*
X71302Y26870D02*
X70628D01*
X69977Y26696D01*
X69393Y26359D01*
X68917Y25882D01*
X68580Y25299D01*
X68405Y24648D01*
Y23974D01*
X68580Y23323D01*
X68917Y22740D01*
X69393Y22263D01*
X69977Y21926D01*
X70628Y21752D01*
X71302D01*
X71952Y21926D01*
X72536Y22263D01*
X73012Y22740D01*
X73349Y23323D01*
X73524Y23974D01*
Y24648D01*
X73349Y25299D01*
X73012Y25882D01*
X72536Y26359D01*
X71952Y26696D01*
X71302Y26870D01*
D02*
G37*
G36*
X124290Y20736D02*
X123742D01*
X123235Y20526D01*
X122848Y20139D01*
X122638Y19632D01*
Y19084D01*
X122848Y18578D01*
X123235Y18190D01*
X123742Y17980D01*
X124290D01*
X124796Y18190D01*
X125184Y18578D01*
X125394Y19084D01*
Y19632D01*
X125184Y20139D01*
X124796Y20526D01*
X124290Y20736D01*
D02*
G37*
G36*
X28761Y19783D02*
X27932D01*
X27131Y19569D01*
X26413Y19154D01*
X25826Y18568D01*
X25411Y17850D01*
X25197Y17049D01*
Y16219D01*
X25411Y15418D01*
X25826Y14700D01*
X26413Y14114D01*
X27131Y13699D01*
X27932Y13484D01*
X28761D01*
X29562Y13699D01*
X30280Y14114D01*
X30867Y14700D01*
X31281Y15418D01*
X31496Y16219D01*
Y17049D01*
X31281Y17850D01*
X30867Y18568D01*
X30280Y19154D01*
X29562Y19569D01*
X28761Y19783D01*
D02*
G37*
G36*
X461848Y390945D02*
X460987D01*
X460191Y390615D01*
X459582Y390006D01*
X459252Y389210D01*
Y388349D01*
X459582Y387553D01*
X459852Y387283D01*
X459734Y386693D01*
X459699Y386678D01*
X459090Y386069D01*
X458760Y385273D01*
Y384412D01*
X459090Y383616D01*
X459699Y383007D01*
X460495Y382677D01*
X461356D01*
X462152Y383007D01*
X462761Y383616D01*
X463091Y384412D01*
Y385273D01*
X462761Y386069D01*
X462491Y386339D01*
X462608Y386929D01*
X462644Y386944D01*
X463253Y387553D01*
X463583Y388349D01*
Y389210D01*
X463253Y390006D01*
X462644Y390615D01*
X461848Y390945D01*
D02*
G37*
G36*
X208699Y383169D02*
X207837D01*
X207041Y382840D01*
X206792Y382590D01*
X206542Y382840D01*
X205746Y383169D01*
X204885D01*
X204089Y382840D01*
X203480Y382230D01*
X203150Y381435D01*
Y380573D01*
X203480Y379777D01*
X204089Y379168D01*
X204885Y378839D01*
X205746D01*
X206542Y379168D01*
X206792Y379418D01*
X207041Y379168D01*
X207837Y378839D01*
X208699D01*
X209494Y379168D01*
X210104Y379777D01*
X210433Y380573D01*
Y381435D01*
X210104Y382230D01*
X209494Y382840D01*
X208699Y383169D01*
D02*
G37*
G36*
X542510Y380315D02*
X541269D01*
X540052Y380073D01*
X538906Y379598D01*
X537874Y378908D01*
X536997Y378031D01*
X536307Y376999D01*
X535833Y375853D01*
X535591Y374636D01*
Y373395D01*
X535833Y372178D01*
X536307Y371032D01*
X536997Y370000D01*
X537874Y369123D01*
X538906Y368433D01*
X540052Y367958D01*
X541269Y367716D01*
X542510D01*
X543727Y367958D01*
X544874Y368433D01*
X545905Y369123D01*
X546783Y370000D01*
X547472Y371032D01*
X547947Y372178D01*
X548189Y373395D01*
Y374636D01*
X547947Y375853D01*
X547472Y376999D01*
X546783Y378031D01*
X545905Y378908D01*
X544874Y379598D01*
X543727Y380073D01*
X542510Y380315D01*
D02*
G37*
G36*
X469722Y368504D02*
X468861D01*
X468065Y368174D01*
X467456Y367565D01*
X467126Y366769D01*
Y365908D01*
X467456Y365112D01*
X468065Y364503D01*
X468462Y364338D01*
X468357Y364085D01*
Y363224D01*
X468686Y362428D01*
X469295Y361819D01*
X470091Y361489D01*
X470953D01*
X471749Y361819D01*
X472358Y362428D01*
X472687Y363224D01*
Y364085D01*
X472358Y364881D01*
X471749Y365490D01*
X471352Y365655D01*
X471457Y365908D01*
Y366769D01*
X471127Y367565D01*
X470518Y368174D01*
X469722Y368504D01*
D02*
G37*
G36*
X210273Y364173D02*
X209412D01*
X208616Y363844D01*
X208007Y363234D01*
X207677Y362439D01*
Y361577D01*
X208007Y360781D01*
X208616Y360172D01*
X209412Y359842D01*
X210273D01*
X211069Y360172D01*
X211678Y360781D01*
X212008Y361577D01*
Y362439D01*
X211678Y363234D01*
X211069Y363844D01*
X210273Y364173D01*
D02*
G37*
G36*
X450027Y357643D02*
X449165D01*
X448370Y357314D01*
X447760Y356705D01*
X447431Y355909D01*
Y355670D01*
X447383Y355639D01*
X446522D01*
X445726Y355309D01*
X445117Y354700D01*
X444787Y353904D01*
Y353043D01*
X445117Y352247D01*
X445726Y351638D01*
X446522Y351308D01*
X447383D01*
X448179Y351638D01*
X448788Y352247D01*
X449118Y353043D01*
Y353281D01*
X449165Y353313D01*
X450027D01*
X450823Y353642D01*
X451432Y354252D01*
X451761Y355047D01*
Y355909D01*
X451432Y356705D01*
X450823Y357314D01*
X450027Y357643D01*
D02*
G37*
G36*
X542510Y362008D02*
X541269D01*
X540052Y361766D01*
X538906Y361291D01*
X537874Y360601D01*
X536997Y359724D01*
X536307Y358692D01*
X535833Y357546D01*
X535591Y356329D01*
Y355088D01*
X535833Y353871D01*
X536307Y352725D01*
X536997Y351693D01*
X537874Y350816D01*
X538906Y350126D01*
X540052Y349652D01*
X541269Y349409D01*
X542510D01*
X543727Y349652D01*
X544874Y350126D01*
X545905Y350816D01*
X546783Y351693D01*
X547472Y352725D01*
X547947Y353871D01*
X548189Y355088D01*
Y356329D01*
X547947Y357546D01*
X547472Y358692D01*
X546783Y359724D01*
X545905Y360601D01*
X544874Y361291D01*
X543727Y361766D01*
X542510Y362008D01*
D02*
G37*
G36*
X469230Y354839D02*
X468368D01*
X467573Y354509D01*
X466963Y353900D01*
X466634Y353104D01*
Y352242D01*
X466963Y351447D01*
X466975Y351435D01*
X466963Y351423D01*
X466634Y350628D01*
Y349766D01*
X466963Y348970D01*
X467573Y348361D01*
X468368Y348031D01*
X469230D01*
X470026Y348361D01*
X470635Y348970D01*
X470965Y349766D01*
Y350628D01*
X470635Y351423D01*
X470623Y351435D01*
X470635Y351447D01*
X470965Y352242D01*
Y353104D01*
X470635Y353900D01*
X470026Y354509D01*
X469230Y354839D01*
D02*
G37*
G36*
X454663Y344488D02*
X453802D01*
X453006Y344159D01*
X452397Y343549D01*
X452067Y342754D01*
Y342737D01*
X452050D01*
X451255Y342407D01*
X450645Y341798D01*
X450316Y341002D01*
Y340141D01*
X450645Y339345D01*
X451255Y338736D01*
X452050Y338406D01*
X452912D01*
X453708Y338736D01*
X454317Y339345D01*
X454647Y340141D01*
Y340158D01*
X454663D01*
X455459Y340487D01*
X456068Y341096D01*
X456398Y341892D01*
Y342754D01*
X456068Y343549D01*
X455459Y344159D01*
X454663Y344488D01*
D02*
G37*
G36*
X329072Y337500D02*
X328211D01*
X327415Y337170D01*
X326806Y336561D01*
X326476Y335765D01*
Y334904D01*
X326806Y334108D01*
X327415Y333499D01*
X328211Y333169D01*
X329072D01*
X329868Y333499D01*
X330477Y334108D01*
X330807Y334904D01*
Y335765D01*
X330477Y336561D01*
X329868Y337170D01*
X329072Y337500D01*
D02*
G37*
G36*
X323167D02*
X322305D01*
X321510Y337170D01*
X320901Y336561D01*
X320571Y335765D01*
Y334904D01*
X320901Y334108D01*
X321510Y333499D01*
X322305Y333169D01*
X323167D01*
X323963Y333499D01*
X324572Y334108D01*
X324902Y334904D01*
Y335765D01*
X324572Y336561D01*
X323963Y337170D01*
X323167Y337500D01*
D02*
G37*
G36*
X244216Y343997D02*
X243967Y343948D01*
X243756Y343906D01*
X243756Y343906D01*
X243755Y343906D01*
X243572Y343784D01*
X243365Y343645D01*
X243365Y343645D01*
X243365Y343645D01*
X243011Y343291D01*
X243011Y343291D01*
X243011Y343291D01*
X242877Y343091D01*
X242750Y342901D01*
X242750Y342901D01*
X242750Y342900D01*
X242712Y342708D01*
X242658Y342440D01*
X242658Y342440D01*
X242658Y342440D01*
Y337936D01*
X239770D01*
X238925Y337768D01*
X238209Y337290D01*
X209561Y308642D01*
X209082Y307926D01*
X208914Y307081D01*
Y300295D01*
X208957Y300082D01*
Y299865D01*
X209040Y299664D01*
X209082Y299450D01*
X209203Y299270D01*
X209286Y299069D01*
X209440Y298915D01*
X209561Y298734D01*
X209742Y298613D01*
X209895Y298460D01*
X210096Y298376D01*
X210277Y298256D01*
X210490Y298213D01*
X210691Y298130D01*
X210909D01*
X211122Y298088D01*
X211335Y298130D01*
X211553D01*
X211754Y298213D01*
X211967Y298256D01*
X212148Y298376D01*
X212349Y298460D01*
X212502Y298613D01*
X212683Y298734D01*
X212804Y298915D01*
X212958Y299069D01*
X213041Y299270D01*
X213162Y299450D01*
X213204Y299664D01*
X213287Y299865D01*
Y300082D01*
X213330Y300295D01*
Y306166D01*
X240684Y333521D01*
X242701D01*
X242750Y333277D01*
X243011Y332887D01*
X243011Y332887D01*
X243014Y332884D01*
X243405Y332623D01*
X243865Y332531D01*
X243865Y332531D01*
X253016D01*
X253477Y332623D01*
X253868Y332884D01*
X254129Y333274D01*
X254220Y333735D01*
Y342790D01*
X254175Y343019D01*
X254129Y343251D01*
X254129Y343251D01*
X254129Y343251D01*
X253998Y343447D01*
X253868Y343642D01*
X253868Y343642D01*
X253868Y343642D01*
X253674Y343772D01*
X253477Y343903D01*
X253477Y343903D01*
X253477Y343903D01*
X253246Y343949D01*
X253016Y343995D01*
X244216Y343997D01*
X244216Y343997D01*
X244216Y343997D01*
D02*
G37*
G36*
X329072Y332382D02*
X328211D01*
X327415Y332052D01*
X326806Y331443D01*
X326476Y330647D01*
Y329786D01*
X326806Y328990D01*
X327415Y328381D01*
X328211Y328051D01*
X329072D01*
X329868Y328381D01*
X330477Y328990D01*
X330807Y329786D01*
Y330647D01*
X330477Y331443D01*
X329868Y332052D01*
X329072Y332382D01*
D02*
G37*
G36*
X323167D02*
X322305D01*
X321510Y332052D01*
X320901Y331443D01*
X320571Y330647D01*
Y329786D01*
X320901Y328990D01*
X321510Y328381D01*
X322305Y328051D01*
X323167D01*
X323963Y328381D01*
X324572Y328990D01*
X324902Y329786D01*
Y330647D01*
X324572Y331443D01*
X323963Y332052D01*
X323167Y332382D01*
D02*
G37*
G36*
X426612Y331972D02*
X425750D01*
X424954Y331642D01*
X424345Y331033D01*
X424016Y330237D01*
Y329376D01*
X424345Y328580D01*
X424954Y327971D01*
X425750Y327641D01*
X426612D01*
X427408Y327971D01*
X428017Y328580D01*
X428346Y329376D01*
Y330237D01*
X428017Y331033D01*
X427408Y331642D01*
X426612Y331972D01*
D02*
G37*
G36*
X466868Y333677D02*
X466006D01*
X465210Y333348D01*
X464601Y332738D01*
X464272Y331943D01*
Y331081D01*
X464601Y330285D01*
X464613Y330274D01*
X464601Y330262D01*
X464272Y329466D01*
Y328605D01*
X464601Y327809D01*
X465210Y327200D01*
X466006Y326870D01*
X466868D01*
X467664Y327200D01*
X468273Y327809D01*
X468602Y328605D01*
Y329466D01*
X468273Y330262D01*
X468261Y330274D01*
X468273Y330285D01*
X468602Y331081D01*
Y331943D01*
X468273Y332738D01*
X467664Y333348D01*
X466868Y333677D01*
D02*
G37*
G36*
X442179Y332338D02*
X441318D01*
X440522Y332009D01*
X439913Y331399D01*
X439583Y330604D01*
Y329742D01*
X439913Y328946D01*
X440522Y328337D01*
X441318Y328008D01*
X442179D01*
X442386Y328093D01*
X442886Y327759D01*
Y327348D01*
X443215Y326552D01*
X443824Y325943D01*
X444620Y325613D01*
X445482D01*
X446278Y325943D01*
X446887Y326552D01*
X447216Y327348D01*
Y328209D01*
X446887Y329005D01*
X446278Y329614D01*
X445482Y329944D01*
X444620D01*
X444414Y329858D01*
X443914Y330192D01*
Y330604D01*
X443584Y331399D01*
X442975Y332009D01*
X442179Y332338D01*
D02*
G37*
G36*
X542510Y330315D02*
X541269D01*
X540052Y330073D01*
X538906Y329598D01*
X537874Y328908D01*
X536997Y328031D01*
X536307Y326999D01*
X535833Y325853D01*
X535591Y324636D01*
Y323395D01*
X535833Y322178D01*
X536307Y321032D01*
X536997Y320000D01*
X537874Y319123D01*
X538906Y318433D01*
X540052Y317958D01*
X541269Y317716D01*
X542510D01*
X543727Y317958D01*
X544874Y318433D01*
X545905Y319123D01*
X546783Y320000D01*
X547472Y321032D01*
X547947Y322178D01*
X548189Y323395D01*
Y324636D01*
X547947Y325853D01*
X547472Y326999D01*
X546783Y328031D01*
X545905Y328908D01*
X544874Y329598D01*
X543727Y330073D01*
X542510Y330315D01*
D02*
G37*
G36*
X144722Y316634D02*
X143861D01*
X143065Y316304D01*
X142456Y315695D01*
X142126Y314899D01*
Y314038D01*
X142456Y313242D01*
X143065Y312633D01*
X143861Y312303D01*
X144722D01*
X145518Y312633D01*
X146127Y313242D01*
X146457Y314038D01*
Y314899D01*
X146127Y315695D01*
X145518Y316304D01*
X144722Y316634D01*
D02*
G37*
G36*
X170313Y307283D02*
X169451D01*
X168655Y306954D01*
X168046Y306345D01*
X167717Y305549D01*
Y304687D01*
X168046Y303891D01*
X168655Y303282D01*
X169451Y302953D01*
X170313D01*
X171108Y303282D01*
X171718Y303891D01*
X172047Y304687D01*
Y305549D01*
X171718Y306345D01*
X171108Y306954D01*
X170313Y307283D01*
D02*
G37*
G36*
X542510Y312008D02*
X541269D01*
X540052Y311766D01*
X538906Y311291D01*
X537874Y310601D01*
X536997Y309724D01*
X536307Y308692D01*
X535833Y307546D01*
X535591Y306329D01*
Y305088D01*
X535833Y303871D01*
X536307Y302725D01*
X536997Y301693D01*
X537874Y300816D01*
X538906Y300126D01*
X540052Y299652D01*
X541269Y299409D01*
X542510D01*
X543727Y299652D01*
X544874Y300126D01*
X545905Y300816D01*
X546783Y301693D01*
X547472Y302725D01*
X547947Y303871D01*
X548189Y305088D01*
Y306329D01*
X547947Y307546D01*
X547472Y308692D01*
X546783Y309724D01*
X545905Y310601D01*
X544874Y311291D01*
X543727Y311766D01*
X542510Y312008D01*
D02*
G37*
G36*
X113719Y301324D02*
X112858D01*
X112062Y300994D01*
X111453Y300385D01*
X111123Y299589D01*
Y298728D01*
X111453Y297932D01*
X112062Y297323D01*
X112858Y296993D01*
X113719D01*
X114515Y297323D01*
X115124Y297932D01*
X115454Y298728D01*
Y299589D01*
X115124Y300385D01*
X114515Y300994D01*
X113719Y301324D01*
D02*
G37*
G36*
X177793Y327264D02*
X176932D01*
X176136Y326934D01*
X175526Y326325D01*
X175197Y325529D01*
Y324668D01*
X175255Y324528D01*
Y302190D01*
X175218Y302165D01*
X174357D01*
X173561Y301836D01*
X172952Y301227D01*
X172622Y300431D01*
Y299569D01*
X172952Y298773D01*
X173561Y298164D01*
X174357Y297835D01*
X175218D01*
X175550Y297613D01*
Y293196D01*
X175050Y292989D01*
X174891Y293147D01*
X174132Y293462D01*
X173309D01*
X172550Y293147D01*
X171968Y292566D01*
X171653Y291806D01*
Y290984D01*
X171968Y290224D01*
X172550Y289643D01*
X173309Y289328D01*
X174132D01*
X174891Y289643D01*
X175050Y289802D01*
X175550Y289595D01*
Y271965D01*
X175710Y271159D01*
X176167Y270475D01*
X177982Y268660D01*
Y257410D01*
X177650Y257188D01*
X177099D01*
X176892Y257688D01*
X177131Y257927D01*
X177461Y258723D01*
Y259584D01*
X177131Y260380D01*
X176522Y260989D01*
X175726Y261319D01*
X174865D01*
X174069Y260989D01*
X173460Y260380D01*
X173130Y259584D01*
Y258723D01*
X173460Y257927D01*
X174069Y257318D01*
X174865Y256988D01*
X175416D01*
X175623Y256488D01*
X175384Y256249D01*
X175054Y255453D01*
Y254592D01*
X175384Y253796D01*
X175993Y253187D01*
X176789Y252857D01*
X176864D01*
X176928Y252780D01*
Y246080D01*
X176596Y245858D01*
X175735D01*
X174939Y245529D01*
X174330Y244920D01*
X174000Y244124D01*
Y243262D01*
X174330Y242466D01*
X174939Y241857D01*
X175735Y241528D01*
X176596D01*
X176928Y241306D01*
Y241102D01*
X176870Y240962D01*
Y240101D01*
X177200Y239305D01*
X177809Y238696D01*
X178605Y238366D01*
X179466D01*
X180262Y238696D01*
X180871Y239305D01*
X181201Y240101D01*
Y240962D01*
X181143Y241102D01*
Y251907D01*
X181580Y252344D01*
X182037Y253028D01*
X182197Y253834D01*
Y269533D01*
X182037Y270339D01*
X182047Y270372D01*
X182509Y270564D01*
X183118Y271173D01*
X183448Y271968D01*
Y272830D01*
X183118Y273626D01*
X182509Y274235D01*
X181713Y274565D01*
X180852D01*
X180265Y274321D01*
X179765Y274597D01*
Y301189D01*
X179604Y301995D01*
X179470Y302197D01*
Y324528D01*
X179527Y324668D01*
Y325529D01*
X179198Y326325D01*
X178589Y326934D01*
X177793Y327264D01*
D02*
G37*
G36*
X134178Y294882D02*
X133317D01*
X132521Y294552D01*
X131912Y293943D01*
X131582Y293147D01*
Y292286D01*
X131912Y291490D01*
X132521Y290881D01*
X133317Y290551D01*
X134178D01*
X134974Y290881D01*
X135583Y291490D01*
X135913Y292286D01*
Y293147D01*
X135583Y293943D01*
X134974Y294552D01*
X134178Y294882D01*
D02*
G37*
G36*
X472167Y296654D02*
X471337D01*
X470536Y296439D01*
X469818Y296024D01*
X469232Y295438D01*
X468817Y294720D01*
X468602Y293919D01*
Y293089D01*
X468817Y292288D01*
X469232Y291570D01*
X469818Y290984D01*
X470536Y290569D01*
X471337Y290354D01*
X472167D01*
X472968Y290569D01*
X473686Y290984D01*
X474272Y291570D01*
X474687Y292288D01*
X474902Y293089D01*
Y293919D01*
X474687Y294720D01*
X474272Y295438D01*
X473686Y296024D01*
X472968Y296439D01*
X472167Y296654D01*
D02*
G37*
G36*
X460356D02*
X459526D01*
X458725Y296439D01*
X458007Y296024D01*
X457421Y295438D01*
X457006Y294720D01*
X456791Y293919D01*
Y293089D01*
X457006Y292288D01*
X457421Y291570D01*
X458007Y290984D01*
X458725Y290569D01*
X459526Y290354D01*
X460356D01*
X461157Y290569D01*
X461875Y290984D01*
X462461Y291570D01*
X462876Y292288D01*
X463091Y293089D01*
Y293919D01*
X462876Y294720D01*
X462461Y295438D01*
X461875Y296024D01*
X461157Y296439D01*
X460356Y296654D01*
D02*
G37*
G36*
X108305Y291929D02*
X107443D01*
X106648Y291599D01*
X106038Y290990D01*
X105709Y290195D01*
Y289333D01*
X106038Y288537D01*
X106648Y287928D01*
X107443Y287598D01*
X108305D01*
X109101Y287928D01*
X109710Y288537D01*
X110039Y289333D01*
Y290195D01*
X109710Y290990D01*
X109101Y291599D01*
X108305Y291929D01*
D02*
G37*
G36*
X414407Y289567D02*
X413546D01*
X412750Y289237D01*
X412141Y288628D01*
X411811Y287832D01*
Y286971D01*
X412141Y286175D01*
X412750Y285566D01*
X413546Y285236D01*
X414407D01*
X415203Y285566D01*
X415812Y286175D01*
X416142Y286971D01*
Y287832D01*
X415812Y288628D01*
X415203Y289237D01*
X414407Y289567D01*
D02*
G37*
G36*
X163324Y289485D02*
X162463D01*
X161667Y289155D01*
X161058Y288546D01*
X160728Y287750D01*
Y286889D01*
X161058Y286093D01*
X161667Y285484D01*
X162463Y285154D01*
X163324D01*
X164120Y285484D01*
X164729Y286093D01*
X165059Y286889D01*
Y287750D01*
X164729Y288546D01*
X164120Y289155D01*
X163324Y289485D01*
D02*
G37*
G36*
X114801Y288090D02*
X113939D01*
X113144Y287761D01*
X112534Y287152D01*
X112205Y286356D01*
Y285494D01*
X112534Y284699D01*
X113144Y284089D01*
X113939Y283760D01*
X114801D01*
X115597Y284089D01*
X116206Y284699D01*
X116535Y285494D01*
Y286356D01*
X116206Y287152D01*
X115597Y287761D01*
X114801Y288090D01*
D02*
G37*
G36*
X188157Y287260D02*
X187334D01*
X186575Y286945D01*
X185993Y286364D01*
X185679Y285604D01*
Y284782D01*
X185993Y284022D01*
X186575Y283441D01*
X187334Y283126D01*
X188157D01*
X188916Y283441D01*
X189498Y284022D01*
X189813Y284782D01*
Y285604D01*
X189498Y286364D01*
X188916Y286945D01*
X188157Y287260D01*
D02*
G37*
G36*
X396221Y304823D02*
X394331D01*
X392464Y304527D01*
X390666Y303943D01*
X388982Y303085D01*
X387453Y301974D01*
X386117Y300638D01*
X385005Y299109D01*
X384148Y297424D01*
X383563Y295627D01*
X383268Y293760D01*
Y291870D01*
X383563Y290003D01*
X384148Y288206D01*
X385005Y286522D01*
X386117Y284992D01*
X387453Y283656D01*
X388982Y282545D01*
X390666Y281687D01*
X392464Y281103D01*
X394331Y280807D01*
X396221D01*
X398087Y281103D01*
X399885Y281687D01*
X401569Y282545D01*
X403098Y283656D01*
X404435Y284992D01*
X405546Y286522D01*
X406404Y288206D01*
X406988Y290003D01*
X407283Y291870D01*
Y293760D01*
X406988Y295627D01*
X406404Y297424D01*
X405546Y299109D01*
X404435Y300638D01*
X403098Y301974D01*
X401569Y303085D01*
X399885Y303943D01*
X398087Y304527D01*
X396221Y304823D01*
D02*
G37*
G36*
X285984D02*
X284094D01*
X282227Y304527D01*
X280430Y303943D01*
X278746Y303085D01*
X277217Y301974D01*
X275880Y300638D01*
X274769Y299109D01*
X273911Y297424D01*
X273327Y295627D01*
X273031Y293760D01*
Y291870D01*
X273327Y290003D01*
X273911Y288206D01*
X274769Y286522D01*
X275880Y284992D01*
X277217Y283656D01*
X278746Y282545D01*
X280430Y281687D01*
X282227Y281103D01*
X284094Y280807D01*
X285984D01*
X287851Y281103D01*
X289649Y281687D01*
X291333Y282545D01*
X292862Y283656D01*
X294198Y284992D01*
X295309Y286522D01*
X296167Y288206D01*
X296752Y290003D01*
X297047Y291870D01*
Y293760D01*
X296752Y295627D01*
X296167Y297424D01*
X295309Y299109D01*
X294198Y300638D01*
X292862Y301974D01*
X291333Y303085D01*
X289649Y303943D01*
X287851Y304527D01*
X285984Y304823D01*
D02*
G37*
G36*
X444722Y284843D02*
X443860D01*
X443065Y284513D01*
X442455Y283904D01*
X442126Y283108D01*
Y282246D01*
X442455Y281451D01*
X443065Y280841D01*
X443860Y280512D01*
X444722D01*
X445518Y280841D01*
X446127Y281451D01*
X446456Y282246D01*
Y283108D01*
X446127Y283904D01*
X445518Y284513D01*
X444722Y284843D01*
D02*
G37*
G36*
X146395Y281545D02*
X145534D01*
X144738Y281215D01*
X144129Y280606D01*
X143799Y279810D01*
Y278948D01*
X144129Y278153D01*
X144738Y277543D01*
X145534Y277214D01*
X146395D01*
X147191Y277543D01*
X147800Y278153D01*
X148130Y278948D01*
Y279810D01*
X147800Y280606D01*
X147191Y281215D01*
X146395Y281545D01*
D02*
G37*
G36*
X128064Y284042D02*
X118911D01*
Y274888D01*
X128064D01*
Y284042D01*
D02*
G37*
G36*
X452695Y277067D02*
X451833D01*
X451037Y276737D01*
X450428Y276128D01*
X450098Y275332D01*
Y274471D01*
X450428Y273675D01*
X451037Y273066D01*
X451833Y272736D01*
X452695D01*
X453490Y273066D01*
X454100Y273675D01*
X454429Y274471D01*
Y275332D01*
X454100Y276128D01*
X453490Y276737D01*
X452695Y277067D01*
D02*
G37*
G36*
X421887Y274409D02*
X421026D01*
X420230Y274080D01*
X419621Y273471D01*
X419291Y272675D01*
Y271813D01*
X419621Y271018D01*
X420230Y270408D01*
X421026Y270079D01*
X421887D01*
X422683Y270408D01*
X423292Y271018D01*
X423622Y271813D01*
Y272675D01*
X423292Y273471D01*
X422683Y274080D01*
X421887Y274409D01*
D02*
G37*
G36*
X437832Y274213D02*
X436971D01*
X436175Y273883D01*
X435566Y273274D01*
X435236Y272478D01*
Y271617D01*
X435566Y270821D01*
X436175Y270212D01*
X436971Y269882D01*
X437832D01*
X438628Y270212D01*
X439237Y270821D01*
X439567Y271617D01*
Y272478D01*
X439237Y273274D01*
X438628Y273883D01*
X437832Y274213D01*
D02*
G37*
G36*
X463324Y272835D02*
X462463D01*
X461667Y272505D01*
X461058Y271896D01*
X460728Y271100D01*
Y270239D01*
X461058Y269443D01*
X461667Y268834D01*
X462463Y268504D01*
X463324D01*
X464120Y268834D01*
X464729Y269443D01*
X465059Y270239D01*
Y271100D01*
X464729Y271896D01*
X464120Y272505D01*
X463324Y272835D01*
D02*
G37*
G36*
X115982Y272638D02*
X115120D01*
X114325Y272308D01*
X113716Y271699D01*
X113386Y270903D01*
Y270042D01*
X113716Y269246D01*
X114325Y268637D01*
X115120Y268307D01*
X115982D01*
X116778Y268637D01*
X117387Y269246D01*
X117717Y270042D01*
Y270903D01*
X117387Y271699D01*
X116778Y272308D01*
X115982Y272638D01*
D02*
G37*
G36*
X150332Y271654D02*
X149471D01*
X148675Y271324D01*
X148066Y270715D01*
X147736Y269919D01*
Y269057D01*
X148066Y268262D01*
X148675Y267653D01*
X149471Y267323D01*
X150332D01*
X151128Y267653D01*
X151737Y268262D01*
X152067Y269057D01*
Y269919D01*
X151737Y270715D01*
X151128Y271324D01*
X150332Y271654D01*
D02*
G37*
G36*
X348758Y271555D02*
X347896D01*
X347100Y271226D01*
X346491Y270617D01*
X346162Y269821D01*
Y268959D01*
X346491Y268163D01*
X347100Y267554D01*
X347896Y267225D01*
X348758D01*
X349553Y267554D01*
X350163Y268163D01*
X350492Y268959D01*
Y269821D01*
X350163Y270617D01*
X349553Y271226D01*
X348758Y271555D01*
D02*
G37*
G36*
X375037Y266043D02*
X374176D01*
X373380Y265714D01*
X372775Y265109D01*
X372183Y265354D01*
X371321D01*
X370525Y265025D01*
X369916Y264416D01*
X369587Y263620D01*
Y262758D01*
X369916Y261962D01*
X370038Y261840D01*
Y245994D01*
X369870Y245588D01*
Y244766D01*
X370185Y244006D01*
X370767Y243425D01*
X371526Y243110D01*
X372349D01*
X372900Y243339D01*
X372953Y243211D01*
X373534Y242629D01*
X374294Y242315D01*
X375116D01*
X375876Y242629D01*
X376457Y243211D01*
X376772Y243970D01*
Y244793D01*
X376462Y245541D01*
Y262699D01*
X376772Y263447D01*
Y264309D01*
X376442Y265105D01*
X375833Y265714D01*
X375037Y266043D01*
D02*
G37*
G36*
X125099Y267024D02*
X124238D01*
X123442Y266694D01*
X122833Y266085D01*
X122503Y265289D01*
Y264428D01*
X122833Y263632D01*
X123442Y263023D01*
X124238Y262693D01*
X125099D01*
X125895Y263023D01*
X126504Y263632D01*
X126834Y264428D01*
Y265289D01*
X126504Y266085D01*
X125895Y266694D01*
X125099Y267024D01*
D02*
G37*
G36*
X109985Y264210D02*
X109123D01*
X108327Y263880D01*
X107718Y263271D01*
X107388Y262475D01*
Y261614D01*
X107718Y260818D01*
X108327Y260209D01*
X109123Y259879D01*
X109985D01*
X110780Y260209D01*
X110910Y260339D01*
X111077Y260172D01*
X111872Y259842D01*
X112734D01*
X113530Y260172D01*
X114139Y260781D01*
X114469Y261577D01*
Y262439D01*
X114139Y263234D01*
X113530Y263844D01*
X112734Y264173D01*
X111872D01*
X111077Y263844D01*
X110947Y263714D01*
X110780Y263880D01*
X109985Y264210D01*
D02*
G37*
G36*
X103876Y259646D02*
X103014D01*
X102218Y259316D01*
X101609Y258707D01*
X101279Y257911D01*
Y257050D01*
X101609Y256254D01*
X102218Y255645D01*
X103014Y255315D01*
X103876D01*
X104672Y255645D01*
X105281Y256254D01*
X105610Y257050D01*
Y257911D01*
X105281Y258707D01*
X104672Y259316D01*
X103876Y259646D01*
D02*
G37*
G36*
X329072Y259055D02*
X328211D01*
X327415Y258726D01*
X326806Y258116D01*
X326476Y257320D01*
Y256459D01*
X326806Y255663D01*
X327415Y255054D01*
X328211Y254724D01*
X329072D01*
X329868Y255054D01*
X330477Y255663D01*
X330807Y256459D01*
Y257320D01*
X330477Y258116D01*
X329868Y258726D01*
X329072Y259055D01*
D02*
G37*
G36*
X323167D02*
X322305D01*
X321510Y258726D01*
X320901Y258116D01*
X320571Y257320D01*
Y256459D01*
X320901Y255663D01*
X321510Y255054D01*
X322305Y254724D01*
X323167D01*
X323963Y255054D01*
X324572Y255663D01*
X324902Y256459D01*
Y257320D01*
X324572Y258116D01*
X323963Y258726D01*
X323167Y259055D01*
D02*
G37*
G36*
X157616Y257185D02*
X156754D01*
X155958Y256855D01*
X155349Y256246D01*
X155020Y255450D01*
Y254589D01*
X155349Y253793D01*
X155958Y253184D01*
X156754Y252854D01*
X157616D01*
X158412Y253184D01*
X159021Y253793D01*
X159350Y254589D01*
Y255450D01*
X159021Y256246D01*
X158412Y256855D01*
X157616Y257185D01*
D02*
G37*
G36*
X97675Y253559D02*
X96813D01*
X96017Y253229D01*
X95408Y252620D01*
X95079Y251824D01*
Y251296D01*
X94579Y250962D01*
X94525Y250984D01*
X93664D01*
X92868Y250655D01*
X92259Y250045D01*
X91929Y249250D01*
Y248388D01*
X92259Y247592D01*
X92706Y247146D01*
X92259Y246699D01*
X91929Y245903D01*
Y245042D01*
X92259Y244246D01*
X92868Y243637D01*
X93664Y243307D01*
X94525D01*
X95321Y243637D01*
X95930Y244246D01*
X96260Y245042D01*
Y245903D01*
X95930Y246699D01*
X95483Y247146D01*
X95930Y247592D01*
X96260Y248388D01*
Y248916D01*
X96759Y249251D01*
X96813Y249228D01*
X97675D01*
X98471Y249558D01*
X99080Y250167D01*
X99409Y250963D01*
Y251824D01*
X99080Y252620D01*
X98471Y253229D01*
X97675Y253559D01*
D02*
G37*
G36*
X115241Y255216D02*
X114380D01*
X113584Y254886D01*
X112975Y254277D01*
X112645Y253481D01*
Y252620D01*
X112975Y251824D01*
X113584Y251215D01*
X114380Y250885D01*
X115241D01*
X116037Y251215D01*
X116646Y251824D01*
X116976Y252620D01*
Y253481D01*
X116646Y254277D01*
X116037Y254886D01*
X115241Y255216D01*
D02*
G37*
G36*
X367557Y254331D02*
X366695D01*
X365899Y254001D01*
X365290Y253392D01*
X364961Y252596D01*
Y251735D01*
X365290Y250939D01*
X365899Y250330D01*
X366695Y250000D01*
X367557D01*
X368353Y250330D01*
X368962Y250939D01*
X369291Y251735D01*
Y252596D01*
X368962Y253392D01*
X368353Y254001D01*
X367557Y254331D01*
D02*
G37*
G36*
X329072Y253937D02*
X328211D01*
X327415Y253607D01*
X326806Y252998D01*
X326476Y252202D01*
Y251341D01*
X326806Y250545D01*
X327415Y249936D01*
X328211Y249606D01*
X329072D01*
X329868Y249936D01*
X330477Y250545D01*
X330807Y251341D01*
Y252202D01*
X330477Y252998D01*
X329868Y253607D01*
X329072Y253937D01*
D02*
G37*
G36*
X323167D02*
X322305D01*
X321510Y253607D01*
X320901Y252998D01*
X320571Y252202D01*
Y251341D01*
X320901Y250545D01*
X321510Y249936D01*
X322305Y249606D01*
X323167D01*
X323963Y249936D01*
X324572Y250545D01*
X324902Y251341D01*
Y252202D01*
X324572Y252998D01*
X323963Y253607D01*
X323167Y253937D01*
D02*
G37*
G36*
X157449Y249530D02*
X156627D01*
X155867Y249215D01*
X155286Y248633D01*
X154971Y247874D01*
Y247051D01*
X155286Y246292D01*
X155867Y245710D01*
X156627Y245396D01*
X157449D01*
X158209Y245710D01*
X158790Y246292D01*
X159105Y247051D01*
Y247874D01*
X158790Y248633D01*
X158209Y249215D01*
X157449Y249530D01*
D02*
G37*
G36*
X109683Y245949D02*
X108821D01*
X108025Y245619D01*
X107416Y245010D01*
X107087Y244214D01*
Y243353D01*
X107416Y242557D01*
X108025Y241948D01*
X108821Y241618D01*
X109683D01*
X110478Y241948D01*
X111088Y242557D01*
X111417Y243353D01*
Y244214D01*
X111088Y245010D01*
X110478Y245619D01*
X109683Y245949D01*
D02*
G37*
G36*
X172675Y237614D02*
X171813D01*
X171018Y237285D01*
X170408Y236676D01*
X170079Y235880D01*
Y235018D01*
X170408Y234222D01*
X171018Y233613D01*
X171813Y233284D01*
X172675D01*
X173471Y233613D01*
X174080Y234222D01*
X174409Y235018D01*
Y235880D01*
X174080Y236676D01*
X173471Y237285D01*
X172675Y237614D01*
D02*
G37*
G36*
X116572Y236024D02*
X115711D01*
X114915Y235694D01*
X114306Y235085D01*
X113976Y234289D01*
Y233428D01*
X114306Y232632D01*
X114915Y232023D01*
X115711Y231693D01*
X116572D01*
X117368Y232023D01*
X117977Y232632D01*
X118307Y233428D01*
Y234289D01*
X117977Y235085D01*
X117368Y235694D01*
X116572Y236024D01*
D02*
G37*
G36*
X163324Y235039D02*
X162463D01*
X161667Y234710D01*
X161058Y234101D01*
X160728Y233305D01*
Y232443D01*
X161058Y231648D01*
X161667Y231038D01*
X162463Y230709D01*
X163324D01*
X164120Y231038D01*
X164729Y231648D01*
X165059Y232443D01*
Y233305D01*
X164729Y234101D01*
X164120Y234710D01*
X163324Y235039D01*
D02*
G37*
G36*
X148758Y234534D02*
X147896D01*
X147100Y234204D01*
X146491Y233595D01*
X146161Y232799D01*
Y231938D01*
X146491Y231142D01*
X147100Y230533D01*
X147896Y230203D01*
X148758D01*
X149553Y230533D01*
X150162Y231142D01*
X150492Y231938D01*
Y232799D01*
X150162Y233595D01*
X149553Y234204D01*
X148758Y234534D01*
D02*
G37*
G36*
X105647Y231988D02*
X104786D01*
X103990Y231659D01*
X103381Y231049D01*
X103051Y230254D01*
Y229392D01*
X103381Y228596D01*
X103990Y227987D01*
X104786Y227658D01*
X105647D01*
X106443Y227987D01*
X107052Y228596D01*
X107382Y229392D01*
Y230254D01*
X107052Y231049D01*
X106443Y231659D01*
X105647Y231988D01*
D02*
G37*
G36*
X104663Y225969D02*
X103802D01*
X103006Y225639D01*
X102397Y225030D01*
X102067Y224234D01*
Y223372D01*
X102397Y222577D01*
X103006Y221968D01*
X103802Y221638D01*
X104663D01*
X105459Y221968D01*
X106068Y222577D01*
X106398Y223372D01*
Y224234D01*
X106068Y225030D01*
X105459Y225639D01*
X104663Y225969D01*
D02*
G37*
G36*
X146736Y225823D02*
X145875D01*
X145079Y225494D01*
X144470Y224885D01*
X144140Y224089D01*
Y223228D01*
X144470Y222432D01*
X145079Y221823D01*
X145875Y221493D01*
X146736D01*
X147532Y221823D01*
X148141Y222432D01*
X148471Y223228D01*
Y224089D01*
X148141Y224885D01*
X147532Y225494D01*
X146736Y225823D01*
D02*
G37*
G36*
X128065Y229597D02*
X118912D01*
Y220443D01*
X128065D01*
Y229597D01*
D02*
G37*
G36*
X132911Y219837D02*
X132050D01*
X131254Y219507D01*
X130645Y218898D01*
X130315Y218102D01*
Y217241D01*
X130645Y216445D01*
X131254Y215836D01*
X132050Y215506D01*
X132911D01*
X133707Y215836D01*
X134316Y216445D01*
X134646Y217241D01*
Y218102D01*
X134316Y218898D01*
X133707Y219507D01*
X132911Y219837D01*
D02*
G37*
G36*
X211754Y219783D02*
X211080D01*
X210430Y219609D01*
X209846Y219272D01*
X209370Y218796D01*
X209033Y218212D01*
X208858Y217561D01*
Y216887D01*
X209033Y216237D01*
X209370Y215653D01*
X209846Y215177D01*
X210430Y214840D01*
X211080Y214665D01*
X211754D01*
X212405Y214840D01*
X212989Y215177D01*
X213465Y215653D01*
X213802Y216237D01*
X213976Y216887D01*
Y217561D01*
X213802Y218212D01*
X213465Y218796D01*
X212989Y219272D01*
X212405Y219609D01*
X211754Y219783D01*
D02*
G37*
G36*
X286312Y213977D02*
X285451D01*
X284655Y213647D01*
X284046Y213038D01*
X283716Y212242D01*
Y211381D01*
X284046Y210585D01*
X284655Y209976D01*
X285451Y209646D01*
X286312D01*
X287108Y209976D01*
X287717Y210585D01*
X288047Y211381D01*
Y212242D01*
X287717Y213038D01*
X287108Y213647D01*
X286312Y213977D01*
D02*
G37*
G36*
X299328Y215354D02*
X298506D01*
X297746Y215040D01*
X297165Y214458D01*
X296850Y213699D01*
Y212876D01*
X297165Y212117D01*
X297746Y211535D01*
X298260Y211322D01*
Y210825D01*
X298575Y210065D01*
X299156Y209484D01*
X299916Y209169D01*
X300738D01*
X301498Y209484D01*
X302079Y210065D01*
X302394Y210825D01*
Y211647D01*
X302079Y212407D01*
X301498Y212988D01*
X300984Y213201D01*
Y213699D01*
X300670Y214458D01*
X300088Y215040D01*
X299328Y215354D01*
D02*
G37*
G36*
X136848Y211319D02*
X135987D01*
X135191Y210989D01*
X134582Y210380D01*
X134252Y209584D01*
Y208723D01*
X134582Y207927D01*
X135191Y207318D01*
X135987Y206988D01*
X136848D01*
X137644Y207318D01*
X138253Y207927D01*
X138583Y208723D01*
Y209584D01*
X138253Y210380D01*
X137644Y210989D01*
X136848Y211319D01*
D02*
G37*
G36*
X286465Y207677D02*
X285604D01*
X284808Y207348D01*
X284199Y206739D01*
X283869Y205943D01*
Y205081D01*
X284199Y204286D01*
X284808Y203676D01*
X285604Y203347D01*
X286465D01*
X287261Y203676D01*
X287870Y204286D01*
X288200Y205081D01*
Y205943D01*
X287870Y206739D01*
X287261Y207348D01*
X286465Y207677D01*
D02*
G37*
G36*
X166966Y206398D02*
X166105D01*
X165309Y206068D01*
X164700Y205459D01*
X164370Y204663D01*
Y203802D01*
X164700Y203006D01*
X165309Y202397D01*
X166105Y202067D01*
X166966D01*
X167762Y202397D01*
X168371Y203006D01*
X168701Y203802D01*
Y204663D01*
X168371Y205459D01*
X167762Y206068D01*
X166966Y206398D01*
D02*
G37*
G36*
X175824Y203740D02*
X174963D01*
X174167Y203411D01*
X173558Y202801D01*
X173228Y202006D01*
Y201144D01*
X173558Y200348D01*
X174167Y199739D01*
X174963Y199409D01*
X175824D01*
X176620Y199739D01*
X177229Y200348D01*
X177559Y201144D01*
Y202006D01*
X177229Y202801D01*
X176620Y203411D01*
X175824Y203740D01*
D02*
G37*
G36*
X321887Y201181D02*
X321026D01*
X320230Y200851D01*
X319621Y200242D01*
X319291Y199446D01*
Y198585D01*
X319621Y197789D01*
X320230Y197180D01*
X321026Y196850D01*
X321887D01*
X322683Y197180D01*
X323292Y197789D01*
X323622Y198585D01*
Y199446D01*
X323292Y200242D01*
X322683Y200851D01*
X321887Y201181D01*
D02*
G37*
G36*
X108797Y198031D02*
X107935D01*
X107140Y197702D01*
X106530Y197093D01*
X106201Y196297D01*
Y195435D01*
X106530Y194640D01*
X107140Y194030D01*
X107935Y193701D01*
X108797D01*
X109593Y194030D01*
X110202Y194640D01*
X110531Y195435D01*
Y196297D01*
X110202Y197093D01*
X109593Y197702D01*
X108797Y198031D01*
D02*
G37*
G36*
X113702Y191858D02*
X112841D01*
X112045Y191529D01*
X111436Y190919D01*
X111106Y190124D01*
Y189262D01*
X111436Y188466D01*
X112045Y187857D01*
X112841Y187528D01*
X113702D01*
X114498Y187857D01*
X115107Y188466D01*
X115437Y189262D01*
Y190124D01*
X115107Y190919D01*
X114498Y191529D01*
X113702Y191858D01*
D02*
G37*
G36*
X97675Y231118D02*
X96813D01*
X96017Y230788D01*
X95408Y230179D01*
X95079Y229383D01*
Y228522D01*
X95408Y227726D01*
X95454Y227681D01*
Y223257D01*
X95116Y223031D01*
X94254D01*
X93458Y222702D01*
X92849Y222093D01*
X92520Y221297D01*
Y220435D01*
X92849Y219640D01*
X92879Y219610D01*
Y217867D01*
X93016Y217176D01*
X93408Y216590D01*
X126968Y183030D01*
X127554Y182638D01*
X128245Y182501D01*
X186706D01*
X187335Y182240D01*
X188158D01*
X188917Y182555D01*
X189499Y183136D01*
X189813Y183896D01*
Y184718D01*
X189499Y185478D01*
X188917Y186059D01*
X188158Y186374D01*
X187335D01*
X186706Y186114D01*
X175709D01*
X175432Y186529D01*
X175492Y186676D01*
Y187537D01*
X175162Y188333D01*
X174749Y188746D01*
X175000Y189353D01*
Y190175D01*
X174685Y190935D01*
X174104Y191516D01*
X173344Y191831D01*
X172522D01*
X171893Y191570D01*
X126640D01*
X118967Y199243D01*
X119189Y199728D01*
X119927Y200034D01*
X120536Y200643D01*
X120866Y201439D01*
Y202301D01*
X120536Y203097D01*
X119927Y203706D01*
X119132Y204035D01*
X118270D01*
X117474Y203706D01*
X116865Y203097D01*
X116559Y202358D01*
X116074Y202136D01*
X99066Y219144D01*
Y227713D01*
X99080Y227726D01*
X99409Y228522D01*
Y229383D01*
X99080Y230179D01*
X98471Y230788D01*
X97675Y231118D01*
D02*
G37*
G36*
X329072Y181595D02*
X328211D01*
X327415Y181265D01*
X326806Y180656D01*
X326476Y179860D01*
Y178998D01*
X326806Y178203D01*
X327415Y177593D01*
X328211Y177264D01*
X329072D01*
X329868Y177593D01*
X330477Y178203D01*
X330807Y178998D01*
Y179860D01*
X330477Y180656D01*
X329868Y181265D01*
X329072Y181595D01*
D02*
G37*
G36*
X323167D02*
X322305D01*
X321510Y181265D01*
X320901Y180656D01*
X320571Y179860D01*
Y178998D01*
X320901Y178203D01*
X321510Y177593D01*
X322305Y177264D01*
X323167D01*
X323963Y177593D01*
X324572Y178203D01*
X324902Y178998D01*
Y179860D01*
X324572Y180656D01*
X323963Y181265D01*
X323167Y181595D01*
D02*
G37*
G36*
X163324Y180036D02*
X162463D01*
X161667Y179707D01*
X161058Y179097D01*
X160728Y178302D01*
Y177440D01*
X161058Y176644D01*
X161667Y176035D01*
X162463Y175706D01*
X163324D01*
X164120Y176035D01*
X164729Y176644D01*
X165059Y177440D01*
Y178302D01*
X164729Y179097D01*
X164120Y179707D01*
X163324Y180036D01*
D02*
G37*
G36*
X174628Y176575D02*
X173766D01*
X172970Y176245D01*
X172361Y175636D01*
X172031Y174840D01*
Y173979D01*
X172361Y173183D01*
X172970Y172574D01*
X173766Y172244D01*
X174628D01*
X175423Y172574D01*
X176033Y173183D01*
X176362Y173979D01*
Y174840D01*
X176033Y175636D01*
X175423Y176245D01*
X174628Y176575D01*
D02*
G37*
G36*
X329072Y176476D02*
X328211D01*
X327415Y176147D01*
X326806Y175538D01*
X326476Y174742D01*
Y173880D01*
X326806Y173084D01*
X327415Y172475D01*
X328211Y172146D01*
X329072D01*
X329868Y172475D01*
X330477Y173084D01*
X330807Y173880D01*
Y174742D01*
X330477Y175538D01*
X329868Y176147D01*
X329072Y176476D01*
D02*
G37*
G36*
X323167D02*
X322305D01*
X321510Y176147D01*
X320901Y175538D01*
X320571Y174742D01*
Y173880D01*
X320901Y173084D01*
X321510Y172475D01*
X322305Y172146D01*
X323167D01*
X323963Y172475D01*
X324572Y173084D01*
X324902Y173880D01*
Y174742D01*
X324572Y175538D01*
X323963Y176147D01*
X323167Y176476D01*
D02*
G37*
G36*
X99742Y173819D02*
X98880D01*
X98084Y173489D01*
X97475Y172880D01*
X97146Y172084D01*
Y171223D01*
X97475Y170427D01*
X98084Y169818D01*
X98880Y169488D01*
X99742D01*
X100538Y169818D01*
X101147Y170427D01*
X101476Y171223D01*
Y172084D01*
X101147Y172880D01*
X100538Y173489D01*
X99742Y173819D01*
D02*
G37*
G36*
X146792Y172146D02*
X145931D01*
X145135Y171816D01*
X144526Y171207D01*
X144196Y170411D01*
Y169550D01*
X144526Y168754D01*
X145135Y168145D01*
X145931Y167815D01*
X146792D01*
X147588Y168145D01*
X148197Y168754D01*
X148527Y169550D01*
Y170411D01*
X148197Y171207D01*
X147588Y171816D01*
X146792Y172146D01*
D02*
G37*
G36*
X128064Y174593D02*
X118911D01*
Y165440D01*
X128064D01*
Y174593D01*
D02*
G37*
G36*
X370510Y169095D02*
X369648D01*
X368852Y168765D01*
X368243Y168156D01*
X367913Y167360D01*
Y166498D01*
X368243Y165703D01*
X368852Y165093D01*
X369648Y164764D01*
X370510D01*
X371305Y165093D01*
X371914Y165703D01*
X372244Y166498D01*
Y167360D01*
X371914Y168156D01*
X371305Y168765D01*
X370510Y169095D01*
D02*
G37*
G36*
X104860Y162500D02*
X103998D01*
X103203Y162170D01*
X102593Y161561D01*
X102264Y160765D01*
Y159904D01*
X102593Y159108D01*
X103203Y158499D01*
X103998Y158169D01*
X104860D01*
X105656Y158499D01*
X106265Y159108D01*
X106595Y159904D01*
Y160765D01*
X106265Y161561D01*
X105656Y162170D01*
X104860Y162500D01*
D02*
G37*
G36*
X172238Y160928D02*
X171377D01*
X170581Y160599D01*
X169972Y159990D01*
X169642Y159194D01*
Y158332D01*
X169972Y157536D01*
X170581Y156927D01*
X171377Y156598D01*
X172238D01*
X173034Y156927D01*
X173643Y157536D01*
X173973Y158332D01*
Y159194D01*
X173643Y159990D01*
X173034Y160599D01*
X172238Y160928D01*
D02*
G37*
G36*
X375214Y161122D02*
X374392D01*
X373632Y160807D01*
X373051Y160226D01*
X372736Y159466D01*
Y158644D01*
X373051Y157884D01*
X373632Y157303D01*
X374392Y156988D01*
X375214D01*
X375808Y157234D01*
X375835Y157167D01*
X376417Y156585D01*
X377176Y156271D01*
X377999D01*
X378759Y156585D01*
X379340Y157167D01*
X379655Y157926D01*
Y158749D01*
X379340Y159508D01*
X378759Y160090D01*
X377999Y160404D01*
X377176D01*
X376583Y160159D01*
X376555Y160226D01*
X375974Y160807D01*
X375214Y161122D01*
D02*
G37*
G36*
X163029Y160042D02*
X162168D01*
X161372Y159713D01*
X160763Y159104D01*
X160433Y158308D01*
Y157446D01*
X160763Y156650D01*
X161372Y156041D01*
X162168Y155712D01*
X163029D01*
X163825Y156041D01*
X164434Y156650D01*
X164764Y157446D01*
Y158308D01*
X164434Y159104D01*
X163825Y159713D01*
X163029Y160042D01*
D02*
G37*
G36*
X95017Y155205D02*
X94156D01*
X93360Y154876D01*
X92852Y154368D01*
X92793Y154427D01*
X91997Y154757D01*
X91135D01*
X90339Y154427D01*
X89730Y153818D01*
X89401Y153023D01*
Y152161D01*
X89730Y151365D01*
X90339Y150756D01*
X91135Y150426D01*
X91997D01*
X92793Y150756D01*
X93300Y151264D01*
X93360Y151204D01*
X94156Y150874D01*
X95017D01*
X95813Y151204D01*
X96422Y151813D01*
X96752Y152609D01*
Y153471D01*
X96422Y154266D01*
X95813Y154876D01*
X95017Y155205D01*
D02*
G37*
G36*
X177651Y156302D02*
X176790D01*
X175994Y155973D01*
X175385Y155364D01*
X175055Y154568D01*
Y153706D01*
X175385Y152910D01*
X175994Y152301D01*
X176790Y151972D01*
X177651D01*
X178447Y152301D01*
X179056Y152910D01*
X179386Y153706D01*
Y154568D01*
X179056Y155364D01*
X178447Y155973D01*
X177651Y156302D01*
D02*
G37*
G36*
X154119Y155205D02*
X153257D01*
X152461Y154876D01*
X151852Y154266D01*
X151523Y153471D01*
Y152609D01*
X151852Y151813D01*
X152461Y151204D01*
X153257Y150874D01*
X154119D01*
X154915Y151204D01*
X155524Y151813D01*
X155853Y152609D01*
Y153471D01*
X155524Y154266D01*
X154915Y154876D01*
X154119Y155205D01*
D02*
G37*
G36*
X104565Y154447D02*
X103703D01*
X102907Y154117D01*
X102298Y153508D01*
X101969Y152712D01*
Y151851D01*
X102298Y151055D01*
X102907Y150446D01*
X103703Y150116D01*
X104565D01*
X105360Y150446D01*
X105970Y151055D01*
X106299Y151851D01*
Y152712D01*
X105970Y153508D01*
X105360Y154117D01*
X104565Y154447D01*
D02*
G37*
G36*
X128384Y154330D02*
X127522D01*
X126726Y154000D01*
X126117Y153391D01*
X125787Y152595D01*
Y151734D01*
X126117Y150938D01*
X126726Y150329D01*
X127522Y149999D01*
X128384D01*
X129179Y150329D01*
X129788Y150938D01*
X130118Y151734D01*
Y152595D01*
X129788Y153391D01*
X129179Y154000D01*
X128384Y154330D01*
D02*
G37*
G36*
X115241D02*
X114379D01*
X113584Y154000D01*
X112974Y153391D01*
X112645Y152595D01*
Y151734D01*
X112974Y150938D01*
X113584Y150329D01*
X114379Y149999D01*
X115241D01*
X116037Y150329D01*
X116646Y150938D01*
X116975Y151734D01*
Y152595D01*
X116646Y153391D01*
X116037Y154000D01*
X115241Y154330D01*
D02*
G37*
G36*
X158783Y151279D02*
X157922D01*
X157126Y150949D01*
X156517Y150340D01*
X156187Y149544D01*
Y148683D01*
X156517Y147887D01*
X157126Y147278D01*
X157922Y146948D01*
X158783D01*
X159579Y147278D01*
X160188Y147887D01*
X160518Y148683D01*
Y149544D01*
X160188Y150340D01*
X159579Y150949D01*
X158783Y151279D01*
D02*
G37*
G36*
X177679Y148822D02*
X176817D01*
X176021Y148492D01*
X175412Y147883D01*
X175083Y147087D01*
Y146226D01*
X175412Y145430D01*
X176021Y144821D01*
X176817Y144491D01*
X177679D01*
X178474Y144821D01*
X179084Y145430D01*
X179413Y146226D01*
Y147087D01*
X179084Y147883D01*
X178474Y148492D01*
X177679Y148822D01*
D02*
G37*
G36*
X177793Y142520D02*
X176932D01*
X176136Y142190D01*
X175527Y141581D01*
X175197Y140785D01*
Y139924D01*
X175527Y139128D01*
X176136Y138519D01*
X176932Y138189D01*
X177793D01*
X178589Y138519D01*
X179198Y139128D01*
X179528Y139924D01*
Y140785D01*
X179198Y141581D01*
X178589Y142190D01*
X177793Y142520D01*
D02*
G37*
G36*
X156632Y166437D02*
X155770D01*
X154974Y166107D01*
X154365Y165498D01*
X154035Y164702D01*
Y163841D01*
X154365Y163045D01*
X154974Y162436D01*
X155770Y162106D01*
X156632D01*
X156771Y162164D01*
X176981D01*
X205390Y133756D01*
X205448Y133616D01*
X206057Y133007D01*
X206853Y132677D01*
X207714D01*
X208510Y133007D01*
X209119Y133616D01*
X209449Y134412D01*
Y135273D01*
X209119Y136069D01*
X208510Y136678D01*
X208370Y136736D01*
X179344Y165762D01*
X178661Y166219D01*
X177854Y166379D01*
X156771D01*
X156632Y166437D01*
D02*
G37*
G36*
X114014Y136910D02*
X113153D01*
X112357Y136580D01*
X111748Y135971D01*
X111418Y135175D01*
Y134314D01*
X111748Y133518D01*
X112357Y132909D01*
X113153Y132579D01*
X114014D01*
X114810Y132909D01*
X115419Y133518D01*
X115749Y134314D01*
Y135175D01*
X115419Y135971D01*
X114810Y136580D01*
X114014Y136910D01*
D02*
G37*
G36*
X295110Y131134D02*
X294287D01*
X293528Y130819D01*
X292946Y130238D01*
X292632Y129478D01*
Y128656D01*
X292946Y127896D01*
X293528Y127315D01*
X294038Y127103D01*
X293996Y127002D01*
Y126179D01*
X294311Y125420D01*
X294892Y124838D01*
X295652Y124524D01*
X296474D01*
X297234Y124838D01*
X297815Y125420D01*
X298130Y126179D01*
Y127002D01*
X297815Y127761D01*
X297234Y128343D01*
X296723Y128554D01*
X296765Y128656D01*
Y129478D01*
X296451Y130238D01*
X295869Y130819D01*
X295110Y131134D01*
D02*
G37*
G36*
X160646Y137374D02*
X159784D01*
X158989Y137045D01*
X158379Y136436D01*
X158050Y135640D01*
Y134778D01*
X158379Y133983D01*
X158409Y133953D01*
Y109405D01*
X156171Y107167D01*
X155773Y107246D01*
X155164Y107855D01*
X154368Y108185D01*
X153506D01*
X152710Y107855D01*
X152101Y107246D01*
X151772Y106450D01*
Y105589D01*
X152101Y104793D01*
X152710Y104184D01*
X152790Y103786D01*
X151401Y102397D01*
X120502D01*
X120276Y102735D01*
Y103596D01*
X119947Y104392D01*
X119337Y105001D01*
X118542Y105331D01*
X117680D01*
X116884Y105001D01*
X116275Y104392D01*
X115946Y103596D01*
Y102735D01*
X115720Y102397D01*
X111925D01*
X111233Y102259D01*
X110647Y101868D01*
X106531Y97752D01*
X106490D01*
X105694Y97422D01*
X105085Y96813D01*
X104755Y96017D01*
Y95156D01*
X105085Y94360D01*
X105694Y93751D01*
X106490Y93421D01*
X107351D01*
X108147Y93751D01*
X108756Y94360D01*
X109086Y95156D01*
Y95197D01*
X112673Y98784D01*
X138287D01*
X138397Y98332D01*
X138398Y98284D01*
X137798Y97684D01*
X137468Y96888D01*
Y96026D01*
X137798Y95230D01*
X138407Y94621D01*
X139203Y94292D01*
X140064D01*
X140860Y94621D01*
X141469Y95230D01*
X141799Y96026D01*
Y96888D01*
X141469Y97684D01*
X140868Y98284D01*
X140869Y98332D01*
X140980Y98784D01*
X152149D01*
X152840Y98922D01*
X153427Y99313D01*
X161493Y107379D01*
X161884Y107965D01*
X162022Y108657D01*
Y120107D01*
X162437Y120385D01*
X162463Y120374D01*
X163324D01*
X164120Y120704D01*
X164729Y121313D01*
X165059Y122109D01*
Y122970D01*
X164729Y123766D01*
X164120Y124375D01*
X163324Y124705D01*
X162463D01*
X162437Y124694D01*
X162022Y124972D01*
Y133953D01*
X162051Y133983D01*
X162381Y134778D01*
Y135640D01*
X162051Y136436D01*
X161442Y137045D01*
X160646Y137374D01*
D02*
G37*
G36*
X146198Y116535D02*
X145337D01*
X144541Y116206D01*
X143932Y115597D01*
X143602Y114801D01*
Y113939D01*
X143932Y113144D01*
X144541Y112534D01*
X145337Y112205D01*
X146198D01*
X146994Y112534D01*
X147603Y113144D01*
X147933Y113939D01*
Y114801D01*
X147603Y115597D01*
X146994Y116206D01*
X146198Y116535D01*
D02*
G37*
G36*
X93147Y116142D02*
X92286D01*
X91490Y115812D01*
X90881Y115203D01*
X90551Y114407D01*
Y113546D01*
X90881Y112750D01*
X91490Y112141D01*
X92286Y111811D01*
X93147D01*
X93943Y112141D01*
X94552Y112750D01*
X94882Y113546D01*
Y114407D01*
X94552Y115203D01*
X93943Y115812D01*
X93147Y116142D01*
D02*
G37*
G36*
X277990Y114862D02*
X277128D01*
X276332Y114533D01*
X275723Y113924D01*
X275394Y113128D01*
Y112266D01*
X275723Y111470D01*
X276332Y110861D01*
X277128Y110532D01*
X277990D01*
X278786Y110861D01*
X279395Y111470D01*
X279724Y112266D01*
Y113128D01*
X279395Y113924D01*
X278786Y114533D01*
X277990Y114862D01*
D02*
G37*
G36*
X127770Y119262D02*
X118616D01*
Y110108D01*
X127770D01*
Y119262D01*
D02*
G37*
G36*
X167360Y112372D02*
X166498D01*
X165703Y112042D01*
X165093Y111433D01*
X164764Y110637D01*
Y109776D01*
X165093Y108980D01*
X165703Y108371D01*
X166498Y108041D01*
X167360D01*
X168156Y108371D01*
X168765Y108980D01*
X169095Y109776D01*
Y110637D01*
X168765Y111433D01*
X168156Y112042D01*
X167360Y112372D01*
D02*
G37*
G36*
X195214Y112303D02*
X194353D01*
X193557Y111974D01*
X192948Y111364D01*
X192618Y110568D01*
Y109707D01*
X192948Y108911D01*
X193557Y108302D01*
X194353Y107973D01*
X195214D01*
X196010Y108302D01*
X196619Y108911D01*
X196949Y109707D01*
Y110568D01*
X196619Y111364D01*
X196010Y111974D01*
X195214Y112303D01*
D02*
G37*
G36*
X113450Y111319D02*
X112589D01*
X111793Y110989D01*
X111184Y110380D01*
X110854Y109584D01*
Y108723D01*
X111184Y107927D01*
X111793Y107318D01*
X112589Y106988D01*
X113450D01*
X114246Y107318D01*
X114855Y107927D01*
X115185Y108723D01*
Y109584D01*
X114855Y110380D01*
X114246Y110989D01*
X113450Y111319D01*
D02*
G37*
G36*
X377848Y105179D02*
X376987D01*
X376191Y104850D01*
X375582Y104241D01*
X375252Y103445D01*
Y102583D01*
X375582Y101787D01*
X376191Y101178D01*
X376987Y100849D01*
X377848D01*
X378644Y101178D01*
X379253Y101787D01*
X379583Y102583D01*
Y103445D01*
X379253Y104241D01*
X378644Y104850D01*
X377848Y105179D01*
D02*
G37*
G36*
X383366Y104823D02*
X382505D01*
X381709Y104493D01*
X381100Y103884D01*
X380770Y103088D01*
Y102227D01*
X381100Y101431D01*
X381709Y100822D01*
X382505Y100492D01*
X383366D01*
X384162Y100822D01*
X384771Y101431D01*
X385101Y102227D01*
Y103088D01*
X384771Y103884D01*
X384162Y104493D01*
X383366Y104823D01*
D02*
G37*
G36*
X329072Y98425D02*
X328211D01*
X327415Y98096D01*
X326806Y97486D01*
X326476Y96690D01*
Y95829D01*
X326806Y95033D01*
X327415Y94424D01*
X328211Y94095D01*
X329072D01*
X329868Y94424D01*
X330477Y95033D01*
X330807Y95829D01*
Y96690D01*
X330477Y97486D01*
X329868Y98096D01*
X329072Y98425D01*
D02*
G37*
G36*
X323167D02*
X322305D01*
X321510Y98096D01*
X320901Y97486D01*
X320571Y96690D01*
Y95829D01*
X320901Y95033D01*
X321510Y94424D01*
X322305Y94095D01*
X323167D01*
X323963Y94424D01*
X324572Y95033D01*
X324902Y95829D01*
Y96690D01*
X324572Y97486D01*
X323963Y98096D01*
X323167Y98425D01*
D02*
G37*
G36*
X169820D02*
X168959D01*
X168163Y98096D01*
X167554Y97486D01*
X167224Y96690D01*
Y95829D01*
X167554Y95033D01*
X168163Y94424D01*
X168959Y94095D01*
X169820D01*
X170616Y94424D01*
X171226Y95033D01*
X171555Y95829D01*
Y96690D01*
X171226Y97486D01*
X170616Y98096D01*
X169820Y98425D01*
D02*
G37*
G36*
X175461Y93303D02*
X174638D01*
X173879Y92989D01*
X173297Y92407D01*
X172983Y91647D01*
Y90825D01*
X173297Y90066D01*
X173879Y89484D01*
X174638Y89170D01*
X175461D01*
X176220Y89484D01*
X176802Y90066D01*
X177117Y90825D01*
Y91647D01*
X176802Y92407D01*
X176220Y92989D01*
X175461Y93303D01*
D02*
G37*
G36*
X329072Y93307D02*
X328211D01*
X327415Y92977D01*
X326806Y92368D01*
X326476Y91572D01*
Y90711D01*
X326806Y89915D01*
X327415Y89306D01*
X328211Y88976D01*
X329072D01*
X329868Y89306D01*
X330477Y89915D01*
X330807Y90711D01*
Y91572D01*
X330477Y92368D01*
X329868Y92977D01*
X329072Y93307D01*
D02*
G37*
G36*
X323167D02*
X322305D01*
X321510Y92977D01*
X320901Y92368D01*
X320571Y91572D01*
Y90711D01*
X320901Y89915D01*
X321510Y89306D01*
X322305Y88976D01*
X323167D01*
X323963Y89306D01*
X324572Y89915D01*
X324902Y90711D01*
Y91572D01*
X324572Y92368D01*
X323963Y92977D01*
X323167Y93307D01*
D02*
G37*
G36*
X118246Y88779D02*
X117384D01*
X116588Y88450D01*
X115979Y87841D01*
X115650Y87045D01*
Y86184D01*
X115979Y85388D01*
X116588Y84778D01*
X117384Y84449D01*
X118246D01*
X119042Y84778D01*
X119651Y85388D01*
X119980Y86184D01*
Y87045D01*
X119651Y87841D01*
X119042Y88450D01*
X118246Y88779D01*
D02*
G37*
G36*
X373210Y84547D02*
X372349D01*
X371553Y84217D01*
X370944Y83608D01*
X370614Y82812D01*
Y81951D01*
X370944Y81155D01*
X371553Y80546D01*
X372349Y80216D01*
X373210D01*
X374006Y80546D01*
X374615Y81155D01*
X374945Y81951D01*
Y82812D01*
X374615Y83608D01*
X374006Y84217D01*
X373210Y84547D01*
D02*
G37*
G36*
X174426Y83858D02*
X173604D01*
X172844Y83544D01*
X172263Y82962D01*
X171948Y82203D01*
Y81380D01*
X172263Y80620D01*
X172844Y80040D01*
X172639Y79545D01*
Y78723D01*
X172953Y77963D01*
X173535Y77382D01*
X174294Y77067D01*
X175117D01*
X175876Y77382D01*
X176458Y77963D01*
X176773Y78723D01*
Y79545D01*
X176458Y80305D01*
X175877Y80886D01*
X176082Y81380D01*
Y82203D01*
X175767Y82962D01*
X175186Y83544D01*
X174426Y83858D01*
D02*
G37*
G36*
X188010Y78543D02*
X187187D01*
X186428Y78229D01*
X185846Y77647D01*
X185531Y76888D01*
Y76065D01*
X185846Y75306D01*
X186428Y74724D01*
X187187Y74410D01*
X188010D01*
X188769Y74724D01*
X189351Y75306D01*
X189665Y76065D01*
Y76888D01*
X189351Y77647D01*
X188769Y78229D01*
X188010Y78543D01*
D02*
G37*
G36*
X374498Y76764D02*
X373675D01*
X372916Y76449D01*
X372334Y75868D01*
X372020Y75108D01*
Y74286D01*
X372334Y73526D01*
X372916Y72945D01*
X373675Y72630D01*
X374498D01*
X374736Y72729D01*
X374811Y72550D01*
X375392Y71968D01*
X376152Y71653D01*
X376974D01*
X377734Y71968D01*
X378315Y72550D01*
X378630Y73309D01*
Y74132D01*
X378315Y74891D01*
X377734Y75473D01*
X376974Y75787D01*
X376152D01*
X375913Y75688D01*
X375839Y75868D01*
X375257Y76449D01*
X374498Y76764D01*
D02*
G37*
G36*
X163324Y71670D02*
X162463D01*
X161667Y71340D01*
X161058Y70731D01*
X160728Y69935D01*
Y69074D01*
X161058Y68278D01*
X161667Y67669D01*
X162463Y67339D01*
X163324D01*
X164120Y67669D01*
X164729Y68278D01*
X165059Y69074D01*
Y69935D01*
X164729Y70731D01*
X164120Y71340D01*
X163324Y71670D01*
D02*
G37*
G36*
X108584Y71260D02*
X107723D01*
X106927Y70930D01*
X106318Y70321D01*
X105988Y69525D01*
Y68664D01*
X106318Y67868D01*
X106927Y67259D01*
X107723Y66929D01*
X108584D01*
X109380Y67259D01*
X109989Y67868D01*
X110319Y68664D01*
Y69525D01*
X109989Y70321D01*
X109380Y70930D01*
X108584Y71260D01*
D02*
G37*
G36*
X186356Y65805D02*
X185494D01*
X184699Y65475D01*
X184090Y64866D01*
X183760Y64070D01*
Y63209D01*
X184090Y62413D01*
X184699Y61804D01*
X185494Y61474D01*
X186356D01*
X187152Y61804D01*
X187761Y62413D01*
X188091Y63209D01*
Y64070D01*
X187761Y64866D01*
X187152Y65475D01*
X186356Y65805D01*
D02*
G37*
G36*
X147183Y63779D02*
X146321D01*
X145525Y63450D01*
X144916Y62841D01*
X144587Y62045D01*
Y61184D01*
X144916Y60388D01*
X145525Y59778D01*
X146321Y59449D01*
X147183D01*
X147978Y59778D01*
X148588Y60388D01*
X148917Y61184D01*
Y62045D01*
X148588Y62841D01*
X147978Y63450D01*
X147183Y63779D01*
D02*
G37*
G36*
X177793Y59744D02*
X176932D01*
X176136Y59415D01*
X175526Y58806D01*
X175197Y58010D01*
Y57148D01*
X175526Y56352D01*
X176136Y55743D01*
X176932Y55414D01*
X177793D01*
X178589Y55743D01*
X179198Y56352D01*
X179528Y57148D01*
Y58010D01*
X179198Y58806D01*
X178589Y59415D01*
X177793Y59744D01*
D02*
G37*
G36*
X164899Y53346D02*
X164038D01*
X163242Y53017D01*
X162633Y52408D01*
X162303Y51612D01*
Y50750D01*
X162633Y49955D01*
X163242Y49345D01*
X164038Y49016D01*
X164899D01*
X165695Y49345D01*
X166304Y49955D01*
X166634Y50750D01*
Y51612D01*
X166304Y52408D01*
X165695Y53017D01*
X164899Y53346D01*
D02*
G37*
G36*
X159565Y47712D02*
X158703D01*
X157907Y47382D01*
X157298Y46773D01*
X156968Y45977D01*
Y45116D01*
X157298Y44320D01*
X157907Y43711D01*
X158703Y43381D01*
X159565D01*
X160360Y43711D01*
X160969Y44320D01*
X161299Y45116D01*
Y45977D01*
X160969Y46773D01*
X160360Y47382D01*
X159565Y47712D01*
D02*
G37*
G36*
X285021Y43602D02*
X284159D01*
X283363Y43273D01*
X282754Y42663D01*
X282425Y41868D01*
Y41006D01*
X282754Y40210D01*
X283363Y39601D01*
X284159Y39272D01*
X285021D01*
X285817Y39601D01*
X286426Y40210D01*
X286755Y41006D01*
Y41868D01*
X286426Y42663D01*
X285817Y43273D01*
X285021Y43602D01*
D02*
G37*
G36*
X297458Y43320D02*
X296636D01*
X295876Y43005D01*
X295295Y42424D01*
X294980Y41664D01*
Y40842D01*
X295295Y40082D01*
X295876Y39501D01*
X296636Y39186D01*
X297458D01*
X298218Y39501D01*
X298799Y40082D01*
X299114Y40842D01*
Y41664D01*
X298799Y42424D01*
X298218Y43005D01*
X297458Y43320D01*
D02*
G37*
G36*
X279545Y41831D02*
X278723D01*
X277963Y41516D01*
X277382Y40935D01*
X277067Y40175D01*
Y39353D01*
X277382Y38593D01*
X277963Y38012D01*
X278723Y37697D01*
X279545D01*
X280305Y38012D01*
X280886Y38593D01*
X281201Y39353D01*
Y40175D01*
X280886Y40935D01*
X280305Y41516D01*
X279545Y41831D01*
D02*
G37*
G36*
X159683Y40846D02*
X158821D01*
X158025Y40517D01*
X157416Y39908D01*
X157087Y39112D01*
Y38250D01*
X157416Y37455D01*
X158025Y36845D01*
X158821Y36516D01*
X159683D01*
X160478Y36845D01*
X161088Y37455D01*
X161417Y38250D01*
Y39112D01*
X161088Y39908D01*
X160478Y40517D01*
X159683Y40846D01*
D02*
G37*
G36*
X178482Y38976D02*
X177620D01*
X176825Y38647D01*
X176216Y38038D01*
X175886Y37242D01*
Y36380D01*
X176216Y35585D01*
X176825Y34975D01*
X177620Y34646D01*
X178482D01*
X179278Y34975D01*
X179887Y35585D01*
X180217Y36380D01*
Y37242D01*
X179887Y38038D01*
X179278Y38647D01*
X178482Y38976D01*
D02*
G37*
G36*
X173462Y37614D02*
X172601D01*
X171805Y37284D01*
X171196Y36675D01*
X170866Y35879D01*
Y35018D01*
X171196Y34222D01*
X171805Y33613D01*
X172601Y33283D01*
X173462D01*
X174258Y33613D01*
X174867Y34222D01*
X175197Y35018D01*
Y35879D01*
X174867Y36675D01*
X174258Y37284D01*
X173462Y37614D01*
D02*
G37*
G36*
X286465Y37303D02*
X285604D01*
X284808Y36974D01*
X284199Y36365D01*
X283869Y35569D01*
Y34707D01*
X284199Y33911D01*
X284808Y33302D01*
X285604Y32973D01*
X286465D01*
X287261Y33302D01*
X287870Y33911D01*
X288200Y34707D01*
Y35569D01*
X287870Y36365D01*
X287261Y36974D01*
X286465Y37303D01*
D02*
G37*
G36*
X328679Y29528D02*
X327817D01*
X327022Y29198D01*
X326412Y28589D01*
X326083Y27793D01*
Y26932D01*
X326097Y26898D01*
X325714Y26515D01*
X325332Y26673D01*
X324471D01*
X323782Y26388D01*
X323459Y26619D01*
X323379Y26721D01*
X323425Y26833D01*
Y27694D01*
X323095Y28490D01*
X322486Y29100D01*
X321691Y29429D01*
X320829D01*
X320033Y29100D01*
X319424Y28490D01*
X319094Y27694D01*
Y26833D01*
X319424Y26037D01*
X320033Y25428D01*
X320829Y25098D01*
X321691D01*
X322379Y25384D01*
X322702Y25153D01*
X322783Y25051D01*
X322736Y24939D01*
Y24077D01*
X323066Y23281D01*
X323675Y22672D01*
X324471Y22343D01*
X325332D01*
X326128Y22672D01*
X326737Y23281D01*
X327067Y24077D01*
Y24939D01*
X327053Y24972D01*
X327436Y25355D01*
X327817Y25197D01*
X328679D01*
X329475Y25526D01*
X330084Y26136D01*
X330413Y26932D01*
Y27793D01*
X330084Y28589D01*
X329475Y29198D01*
X328679Y29528D01*
D02*
G37*
G36*
X167754Y29331D02*
X166892D01*
X166096Y29001D01*
X165487Y28392D01*
X165157Y27596D01*
Y26735D01*
X165487Y25939D01*
X166096Y25330D01*
X166892Y25000D01*
X167754D01*
X168549Y25330D01*
X169158Y25939D01*
X169488Y26735D01*
Y27596D01*
X169158Y28392D01*
X168549Y29001D01*
X167754Y29331D01*
D02*
G37*
G36*
X163324Y19390D02*
X162463D01*
X161667Y19060D01*
X161058Y18451D01*
X160728Y17655D01*
Y16794D01*
X161058Y15998D01*
X161667Y15389D01*
X162463Y15059D01*
X163324D01*
X164120Y15389D01*
X164729Y15998D01*
X165059Y16794D01*
Y17655D01*
X164729Y18451D01*
X164120Y19060D01*
X163324Y19390D01*
D02*
G37*
G36*
X147281Y14567D02*
X146420D01*
X145624Y14237D01*
X145015Y13628D01*
X144685Y12832D01*
Y11971D01*
X145015Y11175D01*
X145624Y10566D01*
X146420Y10236D01*
X147281D01*
X148077Y10566D01*
X148686Y11175D01*
X149016Y11971D01*
Y12832D01*
X148686Y13628D01*
X148077Y14237D01*
X147281Y14567D01*
D02*
G37*
G36*
X179171Y13681D02*
X178309D01*
X177514Y13351D01*
X176904Y12742D01*
X176575Y11947D01*
Y11085D01*
X176904Y10289D01*
X177514Y9680D01*
X178309Y9350D01*
X179171D01*
X179967Y9680D01*
X180576Y10289D01*
X180905Y11085D01*
Y11947D01*
X180576Y12742D01*
X179967Y13351D01*
X179171Y13681D01*
D02*
G37*
%LPD*%
G36*
X253016Y342790D02*
Y333735D01*
X243865D01*
X243862Y333738D01*
Y342440D01*
X244216Y342793D01*
X253016Y342790D01*
D02*
G37*
%LPC*%
G36*
X289986Y240899D02*
X289164D01*
X288404Y240584D01*
X287823Y240002D01*
X287508Y239243D01*
Y238421D01*
X287823Y237661D01*
X287930Y237553D01*
X287814Y237437D01*
X287500Y236677D01*
Y235855D01*
X287814Y235095D01*
X288396Y234514D01*
X289156Y234199D01*
X289978D01*
X290738Y234514D01*
X291319Y235095D01*
X291634Y235855D01*
Y236677D01*
X291319Y237437D01*
X291211Y237545D01*
X291327Y237661D01*
X291642Y238421D01*
Y239243D01*
X291327Y240002D01*
X290746Y240584D01*
X289986Y240899D01*
D02*
G37*
G36*
X275092Y238484D02*
X274230D01*
X273434Y238155D01*
X272825Y237546D01*
X272496Y236750D01*
Y235888D01*
X272825Y235092D01*
X273434Y234483D01*
X274230Y234154D01*
X275092D01*
X275887Y234483D01*
X276497Y235092D01*
X276826Y235888D01*
Y236750D01*
X276497Y237546D01*
X275887Y238155D01*
X275092Y238484D01*
D02*
G37*
G36*
X263128Y238386D02*
X262266D01*
X261470Y238056D01*
X260861Y237447D01*
X260532Y236651D01*
Y235790D01*
X260861Y234994D01*
X261470Y234385D01*
X262266Y234055D01*
X263128D01*
X263924Y234385D01*
X264533Y234994D01*
X264862Y235790D01*
Y236651D01*
X264533Y237447D01*
X263924Y238056D01*
X263128Y238386D01*
D02*
G37*
G36*
X488216Y227408D02*
X486898D01*
X485625Y227067D01*
X484483Y226408D01*
X483551Y225475D01*
X482892Y224334D01*
X482551Y223061D01*
Y221743D01*
X482892Y220469D01*
X483551Y219328D01*
X484483Y218396D01*
X485625Y217737D01*
X486898Y217395D01*
X488216D01*
X489489Y217737D01*
X490631Y218396D01*
X491563Y219328D01*
X492222Y220469D01*
X492563Y221743D01*
Y223061D01*
X492222Y224334D01*
X491563Y225475D01*
X490631Y226408D01*
X489489Y227067D01*
X488216Y227408D01*
D02*
G37*
G36*
X263127Y154134D02*
X262266D01*
X261470Y153804D01*
X260861Y153195D01*
X260531Y152399D01*
Y151538D01*
X260861Y150742D01*
X261470Y150133D01*
X262266Y149803D01*
X263127D01*
X263923Y150133D01*
X264532Y150742D01*
X264862Y151538D01*
Y152399D01*
X264532Y153195D01*
X263923Y153804D01*
X263127Y154134D01*
D02*
G37*
G36*
X275092Y153543D02*
X274230D01*
X273434Y153214D01*
X272825Y152605D01*
X272496Y151809D01*
Y150947D01*
X272825Y150152D01*
X273434Y149542D01*
X274230Y149213D01*
X275092D01*
X275887Y149542D01*
X276497Y150152D01*
X276826Y150947D01*
Y151809D01*
X276497Y152605D01*
X275887Y153214D01*
X275092Y153543D01*
D02*
G37*
G36*
X295087Y153461D02*
X294265D01*
X293505Y153146D01*
X292924Y152565D01*
X292609Y151805D01*
Y150983D01*
X292924Y150223D01*
X293143Y150003D01*
X293130Y149990D01*
X292815Y149230D01*
Y148408D01*
X293130Y147648D01*
X293711Y147067D01*
X294471Y146752D01*
X295293D01*
X296053Y147067D01*
X296634Y147648D01*
X296949Y148408D01*
Y149230D01*
X296634Y149990D01*
X296414Y150209D01*
X296428Y150223D01*
X296743Y150983D01*
Y151805D01*
X296428Y152565D01*
X295847Y153146D01*
X295087Y153461D01*
D02*
G37*
G36*
X267857Y150591D02*
X267183D01*
X266532Y150416D01*
X265948Y150079D01*
X265472Y149603D01*
X265135Y149019D01*
X264961Y148368D01*
Y147695D01*
X265135Y147044D01*
X265472Y146460D01*
X265948Y145984D01*
X266532Y145647D01*
X267183Y145473D01*
X267857D01*
X268508Y145647D01*
X269091Y145984D01*
X269567Y146460D01*
X269904Y147044D01*
X270079Y147695D01*
Y148368D01*
X269904Y149019D01*
X269567Y149603D01*
X269091Y150079D01*
X268508Y150416D01*
X267857Y150591D01*
D02*
G37*
G36*
X263128Y68799D02*
X262266D01*
X261470Y68470D01*
X260861Y67861D01*
X260532Y67065D01*
Y66203D01*
X260861Y65408D01*
X261470Y64798D01*
X262266Y64469D01*
X263128D01*
X263924Y64798D01*
X264533Y65408D01*
X264862Y66203D01*
Y67065D01*
X264533Y67861D01*
X263924Y68470D01*
X263128Y68799D01*
D02*
G37*
G36*
X297065Y68504D02*
X296242D01*
X295483Y68189D01*
X294901Y67608D01*
X294587Y66848D01*
Y66026D01*
X294901Y65266D01*
X295483Y64685D01*
X296242Y64370D01*
X297065D01*
X297824Y64685D01*
X298406Y65266D01*
X298721Y66026D01*
Y66848D01*
X298406Y67608D01*
X297824Y68189D01*
X297065Y68504D01*
D02*
G37*
G36*
X275092Y68110D02*
X274230D01*
X273434Y67781D01*
X272825Y67172D01*
X272496Y66376D01*
Y65514D01*
X272825Y64719D01*
X273434Y64109D01*
X274230Y63780D01*
X275092D01*
X275887Y64109D01*
X276497Y64719D01*
X276826Y65514D01*
Y66376D01*
X276497Y67172D01*
X275887Y67781D01*
X275092Y68110D01*
D02*
G37*
G36*
X301935Y65551D02*
X301112D01*
X300353Y65237D01*
X299771Y64655D01*
X299457Y63896D01*
Y63073D01*
X299771Y62314D01*
X300353Y61732D01*
X301112Y61418D01*
X301935D01*
X302694Y61732D01*
X303276Y62314D01*
X303590Y63073D01*
Y63896D01*
X303276Y64655D01*
X302694Y65237D01*
X301935Y65551D01*
D02*
G37*
G36*
X268738Y65551D02*
X267876D01*
X267080Y65222D01*
X266471Y64612D01*
X266142Y63816D01*
Y62955D01*
X266471Y62159D01*
X267080Y61550D01*
X267876Y61221D01*
X268738D01*
X269534Y61550D01*
X270143Y62159D01*
X270472Y62955D01*
Y63816D01*
X270143Y64612D01*
X269534Y65222D01*
X268738Y65551D01*
D02*
G37*
%LPD*%
D20*
X-0Y288252D02*
X134Y287233D01*
X527Y286283D01*
X1153Y285468D01*
X1969Y284842D01*
X2918Y284449D01*
X3937Y284315D01*
X-27795Y298095D02*
X-27661Y297076D01*
X-27268Y296126D01*
X-26642Y295311D01*
X-25827Y294685D01*
X-24877Y294292D01*
X-23858Y294158D01*
X-27795Y300457D02*
X-28256Y301570D01*
X-29370Y302031D01*
X-38740Y284315D02*
X-37721Y284449D01*
X-36771Y284842D01*
X-35956Y285468D01*
X-35330Y286283D01*
X-34937Y287233D01*
X-34803Y288252D01*
X-37953Y185791D02*
X-36970Y185895D01*
X-36031Y186200D01*
X-35176Y186694D01*
X-34442Y187355D01*
X-33861Y188154D01*
X-33460Y189056D01*
X-33254Y190022D01*
Y191010D01*
X-33460Y191976D01*
X-33861Y192878D01*
X-34442Y193677D01*
X-35176Y194338D01*
X-36031Y194832D01*
X-36970Y195137D01*
X-37953Y195240D01*
X-34803Y105378D02*
X-34937Y106397D01*
X-35330Y107346D01*
X-35956Y108162D01*
X-36771Y108788D01*
X-37721Y109181D01*
X-38740Y109315D01*
X-29370Y91598D02*
X-28256Y92060D01*
X-27795Y93173D01*
X-23858Y99472D02*
X-24877Y99338D01*
X-25827Y98945D01*
X-26642Y98319D01*
X-27268Y97504D01*
X-27661Y96554D01*
X-27795Y95535D01*
X3937Y109315D02*
X2918Y109181D01*
X1969Y108788D01*
X1153Y108162D01*
X527Y107346D01*
X134Y106397D01*
X-0Y105378D01*
X3937Y284315D02*
X14670D01*
X-0Y288252D02*
Y294157D01*
X-23858D02*
X-0D01*
X-27795Y298094D02*
Y300457D01*
X-34803Y302031D02*
X-29370D01*
X-34803Y288252D02*
Y302031D01*
X-55357Y284315D02*
X-38740D01*
X-58425D02*
X-55357D01*
X-58425Y195240D02*
Y284315D01*
Y195240D02*
X-55357D01*
X-37953D01*
X-55357Y185791D02*
X-37953D01*
X-58425D02*
X-55357D01*
X-58425Y109315D02*
Y185791D01*
Y109315D02*
X-55357D01*
X-38740D01*
X-34803Y91598D02*
Y105378D01*
Y91598D02*
X-29370D01*
X-27795Y93173D02*
Y95535D01*
X-23858Y99472D02*
X-0D01*
Y105378D01*
X3937Y109315D02*
X14670D01*
D86*
X16929Y259252D02*
D03*
X340846Y295965D02*
D03*
X109153Y121850D02*
D03*
X274803Y9154D02*
D03*
X263189Y297244D02*
D03*
X283465Y343012D02*
D03*
X191240Y386122D02*
D03*
X240059Y159744D02*
D03*
X250902Y335728D02*
D03*
Y340650D02*
D03*
X245980Y335729D02*
D03*
Y340650D02*
D03*
X239917Y42126D02*
D03*
X234996Y124902D02*
D03*
X239917D02*
D03*
X234996Y159744D02*
D03*
Y164665D02*
D03*
X239917D02*
D03*
X239917Y81496D02*
D03*
X234996D02*
D03*
Y76575D02*
D03*
X246259Y69587D02*
D03*
X239917Y76575D02*
D03*
X234996Y119981D02*
D03*
X239917Y119980D02*
D03*
X234996Y42126D02*
D03*
X239917Y37205D02*
D03*
X234996D02*
D03*
X239917Y206792D02*
D03*
Y211713D02*
D03*
X234996D02*
D03*
Y206792D02*
D03*
Y251477D02*
D03*
Y246556D02*
D03*
X239917Y251477D02*
D03*
Y246555D02*
D03*
X523320Y347352D02*
D03*
Y341446D02*
D03*
X510630Y302323D02*
D03*
Y296417D02*
D03*
X486221Y379331D02*
D03*
Y373425D02*
D03*
X408740Y343937D02*
D03*
X400748D02*
D03*
X417520Y343976D02*
D03*
D90*
X273135Y225086D02*
X307131D01*
X269606Y53839D02*
X320813D01*
X273503Y139370D02*
X307179D01*
X247880Y52029D02*
X247933Y51976D01*
X247842Y52029D02*
X247880D01*
X247683Y51870D02*
X247842Y52029D01*
X245669Y51870D02*
X247683D01*
X312630Y219587D02*
X326432D01*
X307131Y225086D02*
X312630Y219587D01*
X247736Y214663D02*
X262712D01*
X321843Y52915D02*
X325386D01*
X321805Y52953D02*
X321843Y52915D01*
X267834Y52067D02*
X269606Y53839D01*
X248024Y52067D02*
X267834D01*
X247933Y51976D02*
X248024Y52067D01*
X247933Y51976D02*
Y51976D01*
X236005Y61633D02*
Y63503D01*
X325386Y52915D02*
X325545Y52756D01*
X328204D01*
X94291Y33018D02*
Y46797D01*
X339767Y59863D02*
X340256Y59373D01*
X228248Y71260D02*
X236005Y63503D01*
X225590Y71260D02*
X228248D01*
X342288Y51503D02*
X344756Y49036D01*
X239917Y42126D02*
X240256Y42465D01*
X177657Y271965D02*
Y301189D01*
X122781Y4528D02*
X434934D01*
X340175Y134432D02*
X344846D01*
X339880Y219373D02*
X344755D01*
X344846Y219587D02*
X346117D01*
X327431D02*
X339665D01*
X327431D02*
Y246254D01*
X326432Y219587D02*
X327431D01*
X339665Y228172D02*
X339764Y228271D01*
X344755Y219373D02*
X344846Y219463D01*
X243761Y51976D02*
Y53876D01*
X328204Y52756D02*
X340256D01*
X225218Y71279D02*
X225572D01*
X243761Y51976D02*
X243815Y52029D01*
X328755Y134646D02*
X339961D01*
X227445Y179190D02*
X231747Y174888D01*
X225181Y208941D02*
Y208994D01*
X340256Y52756D02*
Y59373D01*
X320813Y53839D02*
X321699Y52953D01*
X236005Y61633D02*
X243761Y53876D01*
Y50258D02*
Y51976D01*
X344756Y49036D02*
X344831D01*
X245510Y52029D02*
X245669Y51870D01*
X321699Y52953D02*
X321805D01*
X344831Y49036D02*
X344846Y49052D01*
X328204Y52756D02*
Y75886D01*
X339961Y134646D02*
X340175Y134432D01*
X231747Y148765D02*
Y174888D01*
X322851Y137205D02*
Y138152D01*
X339766Y143376D02*
X339961Y143182D01*
X180090Y253834D02*
Y269533D01*
X179035Y252780D02*
X180090Y253834D01*
X177362Y301484D02*
Y325098D01*
X94291Y33018D02*
X122781Y4528D01*
X452854Y22448D02*
Y39685D01*
X36713Y327559D02*
X52264Y312008D01*
X76477D01*
X225180Y280076D02*
X229232D01*
X308398Y138152D02*
X322851D01*
X339766Y143376D02*
Y151966D01*
X339665Y219587D02*
X339880Y219373D01*
X339665Y219587D02*
Y228172D01*
X262712Y214663D02*
X273135Y225086D01*
X179035Y240531D02*
Y252780D01*
X177657Y271965D02*
X180090Y269533D01*
X177362Y301484D02*
X177657Y301189D01*
X434934Y4528D02*
X452854Y22448D01*
X156201Y164272D02*
X177854D01*
X207283Y134843D01*
X328204Y135197D02*
Y161319D01*
X341509Y51503D02*
X342288D01*
X247496Y132480D02*
X266613D01*
X227445Y179190D02*
Y206677D01*
X225181Y179190D02*
X227268D01*
X225181Y208941D02*
X227445Y206677D01*
X339961Y134646D02*
Y143182D01*
X229232Y235926D02*
X243701Y221457D01*
X229232Y235926D02*
Y280076D01*
Y305827D01*
X225180Y309880D02*
X229232Y305827D01*
X243701Y221457D02*
X247933D01*
X247736Y217626D02*
X247933Y217823D01*
X243453Y214663D02*
X247736D01*
X339764Y228271D02*
Y236910D01*
X247933Y217823D02*
Y221457D01*
X240504Y211713D02*
X243453Y214663D01*
X239917Y211713D02*
X240504D01*
X247736Y214663D02*
Y217626D01*
X266613Y132480D02*
X273503Y139370D01*
X322851Y138152D02*
X322889Y138189D01*
X322851Y137205D02*
X325411Y134646D01*
X322889Y223130D02*
X326432Y219587D01*
X322889Y223130D02*
Y225788D01*
X243701Y136811D02*
X247638D01*
X247638Y136811D01*
X231747Y148765D02*
X243701Y136811D01*
X247496Y132480D02*
X247638Y132622D01*
Y136811D01*
X239917Y124902D02*
X247496Y132480D01*
X307179Y139370D02*
X308398Y138152D01*
X325411Y134646D02*
X328755D01*
X322889Y138189D02*
Y140847D01*
X240256Y46752D02*
X243761Y50258D01*
X225180Y71316D02*
X225218Y71279D01*
X243815Y52029D02*
X245510D01*
X228248Y71260D02*
Y98052D01*
X225180Y101120D02*
X228248Y98052D01*
X240256Y42465D02*
Y46752D01*
X340256Y52756D02*
X341509Y51503D01*
X339767Y59863D02*
Y66533D01*
X225572Y71279D02*
X225590Y71260D01*
X328204Y135197D02*
X328755Y134646D01*
D91*
X371358Y25135D02*
Y25295D01*
X366763Y8382D02*
X372978Y14598D01*
X55660Y160195D02*
X55709Y160145D01*
X160215Y108657D02*
Y135209D01*
X374656Y244431D02*
Y263829D01*
X374606Y263878D02*
X374656Y263829D01*
X371845Y245270D02*
Y262899D01*
X371555Y263189D02*
X371845Y262899D01*
X374656Y244431D02*
X374705Y244382D01*
X371845Y245270D02*
X371937Y245177D01*
X372978Y14598D02*
Y23515D01*
X371358Y25135D02*
X372978Y23515D01*
X-19016Y187953D02*
X3626D01*
X36588Y220915D01*
X59039D02*
X68832Y211122D01*
X76476D01*
X36588Y220915D02*
X59039D01*
X73917Y105807D02*
X76476Y103248D01*
X28051Y105807D02*
X73917D01*
X125892Y189764D02*
X172933D01*
X97260Y218396D02*
X125892Y189764D01*
X152149Y100591D02*
X160215Y108657D01*
X111925Y100591D02*
X152149D01*
X55660Y160195D02*
Y215010D01*
X55610Y215059D02*
X55660Y215010D01*
X97260Y218396D02*
Y228937D01*
X97244Y228953D02*
X97260Y228937D01*
X128245Y184307D02*
X187747D01*
X94685Y217867D02*
X128245Y184307D01*
X94685Y217867D02*
Y220866D01*
X106921Y95587D02*
X111925Y100591D01*
X-4476Y275236D02*
X-4326Y275086D01*
X-4843Y275236D02*
X-4476D01*
D92*
X249546Y30020D02*
X270079Y50553D01*
X238721Y108169D02*
X260374Y129823D01*
X214469Y30020D02*
X249546D01*
X260374Y129823D02*
X267713D01*
X239770Y335729D02*
X245980D01*
X300394Y221358D02*
X303642Y218110D01*
X211221Y108169D02*
X238721D01*
X267713Y129823D02*
X273422Y135531D01*
X264770Y211910D02*
X274218Y221358D01*
X211122Y307081D02*
X239770Y335729D01*
X211122Y300295D02*
Y307081D01*
X273422Y135531D02*
X302067D01*
X274218Y221358D02*
X300394D01*
X270079Y50553D02*
X305156D01*
X245276Y211910D02*
X264770D01*
X302067Y135531D02*
X303642Y133957D01*
D93*
X541890Y305709D02*
D03*
Y355709D02*
D03*
Y374016D02*
D03*
Y324016D02*
D03*
D94*
X502518Y89803D02*
D03*
Y202402D02*
D03*
Y33504D02*
D03*
Y146102D02*
D03*
D98*
X457579Y306102D02*
D03*
X477461D02*
D03*
X465748D02*
D03*
X355862Y244488D02*
D03*
X360192D02*
D03*
X368110Y21063D02*
D03*
X314665Y24114D02*
D03*
X347594Y159547D02*
D03*
X333661Y137598D02*
D03*
X327559Y118504D02*
D03*
X305156Y50553D02*
D03*
X329134Y33920D02*
D03*
X338189Y48622D02*
D03*
X300492Y53839D02*
D03*
X374606Y263878D02*
D03*
X371752Y263189D02*
D03*
X247933Y52067D02*
D03*
X243799D02*
D03*
X321752Y52953D02*
D03*
X303642Y133957D02*
D03*
X259646Y148622D02*
D03*
X339665Y204626D02*
D03*
X297835Y112266D02*
D03*
X258957Y315059D02*
D03*
X256004D02*
D03*
X259350Y323721D02*
D03*
X256398D02*
D03*
X265945Y362106D02*
D03*
X249114D02*
D03*
Y359154D02*
D03*
X265945D02*
D03*
X259842Y232677D02*
D03*
X275197Y218996D02*
D03*
X447342Y342323D02*
D03*
X437106Y360236D02*
D03*
X153347Y122441D02*
D03*
X114810Y44290D02*
D03*
X28051Y105807D02*
D03*
X371260Y175394D02*
D03*
X374213D02*
D03*
X371260Y177953D02*
D03*
X374213D02*
D03*
X366894Y219373D02*
D03*
X366894Y134432D02*
D03*
X371260Y173031D02*
D03*
X374213D02*
D03*
X366894Y48998D02*
D03*
X375689Y90847D02*
D03*
X378642D02*
D03*
X372736D02*
D03*
Y93209D02*
D03*
X375689D02*
D03*
X378642D02*
D03*
X303642Y218110D02*
D03*
X44567Y344803D02*
D03*
X36713Y327559D02*
D03*
X225180Y280076D02*
D03*
X281594Y45472D02*
D03*
X284055Y133169D02*
D03*
X344846Y134432D02*
D03*
X351728Y244488D02*
D03*
X364326D02*
D03*
X360138Y232677D02*
D03*
X364370D02*
D03*
X356004D02*
D03*
X347539D02*
D03*
X351673D02*
D03*
X351728Y159547D02*
D03*
X355862D02*
D03*
X364326D02*
D03*
X360192D02*
D03*
X360138Y147736D02*
D03*
X364370D02*
D03*
X356004D02*
D03*
X347539D02*
D03*
X351673D02*
D03*
X351728Y74114D02*
D03*
X347496D02*
D03*
X355862D02*
D03*
X364327D02*
D03*
X360193D02*
D03*
X361767Y7721D02*
D03*
X358814D02*
D03*
X355862D02*
D03*
X352909D02*
D03*
X349956D02*
D03*
X361811Y93110D02*
D03*
X358858D02*
D03*
X355906D02*
D03*
X352953D02*
D03*
X350000D02*
D03*
X209252Y345079D02*
D03*
X132874Y153445D02*
D03*
X178740Y30020D02*
D03*
X166240Y173622D02*
D03*
X336122Y74606D02*
D03*
X268602Y138779D02*
D03*
X118701Y90748D02*
D03*
X98622Y271063D02*
D03*
X329626Y202953D02*
D03*
X232480Y325098D02*
D03*
X168307Y86417D02*
D03*
X260433Y62894D02*
D03*
X95965Y97933D02*
D03*
X86614Y114862D02*
D03*
X68012Y247441D02*
D03*
X414468Y259646D02*
D03*
X231693Y61811D02*
D03*
X254134Y83957D02*
D03*
X269094Y230709D02*
D03*
X231791Y288189D02*
D03*
X462500Y341929D02*
D03*
X154921Y263090D02*
D03*
X146457Y16339D02*
D03*
X334055Y223524D02*
D03*
X305315Y203248D02*
D03*
X344846Y219373D02*
D03*
X361382D02*
D03*
X355870D02*
D03*
X350358D02*
D03*
X361382Y134432D02*
D03*
X355870D02*
D03*
X350358D02*
D03*
X350358Y48998D02*
D03*
X355870D02*
D03*
X361382D02*
D03*
X344846D02*
D03*
X350536Y17377D02*
D03*
X353292D02*
D03*
X358016D02*
D03*
X360772D02*
D03*
X360728Y102854D02*
D03*
X357972D02*
D03*
X353248D02*
D03*
X350492D02*
D03*
X361811Y190453D02*
D03*
Y187894D02*
D03*
X358858Y190453D02*
D03*
Y187894D02*
D03*
X350000Y178051D02*
D03*
X352953D02*
D03*
X355906D02*
D03*
X358858D02*
D03*
X361811D02*
D03*
X211221Y108169D02*
D03*
X214469Y30020D02*
D03*
X211122Y300295D02*
D03*
X106921Y95587D02*
D03*
X55709Y160145D02*
D03*
X97244Y228953D02*
D03*
X267913Y210138D02*
D03*
X231988Y222835D02*
D03*
X55610Y215059D02*
D03*
X160215Y135209D02*
D03*
X94685Y220866D02*
D03*
X327431Y246254D02*
D03*
X297638Y243406D02*
D03*
X293275Y225086D02*
D03*
X94291Y46850D02*
D03*
X156201Y164272D02*
D03*
X207283Y134843D02*
D03*
X177362Y325098D02*
D03*
X30948Y215275D02*
D03*
X76476Y211122D02*
D03*
X76477Y312008D02*
D03*
X179035Y240531D02*
D03*
X76476Y103248D02*
D03*
X339767Y66533D02*
D03*
X339766Y151966D02*
D03*
X248130Y147835D02*
D03*
X243701Y136811D02*
D03*
X247638Y136811D02*
D03*
X243701Y147835D02*
D03*
X225180Y101120D02*
D03*
X248130Y63090D02*
D03*
X243602D02*
D03*
X225181Y179190D02*
D03*
X225180Y71316D02*
D03*
X225181Y208994D02*
D03*
X225180Y309880D02*
D03*
X243701Y221457D02*
D03*
X243701Y232481D02*
D03*
X247933Y221457D02*
D03*
X248130Y232481D02*
D03*
X322889Y225788D02*
D03*
Y223130D02*
D03*
X306649Y161319D02*
D03*
X322889Y140847D02*
D03*
X292673Y139370D02*
D03*
X306649Y75886D02*
D03*
X156988Y69882D02*
D03*
X153642Y286516D02*
D03*
X339764Y236910D02*
D03*
X328204Y161319D02*
D03*
X366763Y8382D02*
D03*
X328204Y75886D02*
D03*
X-4843Y275236D02*
D03*
X-19016Y187953D02*
D03*
D99*
X371937Y245177D02*
D03*
X374705Y244382D02*
D03*
X371358Y25295D02*
D03*
X172933Y189764D02*
D03*
X187747Y184307D02*
D03*
D100*
X195276Y307087D02*
D03*
X452854Y58878D02*
D03*
Y39685D02*
D03*
X456103Y41752D02*
D03*
X452854Y43524D02*
D03*
X456103Y45590D02*
D03*
X452854Y47362D02*
D03*
X456103Y49429D02*
D03*
X452854Y51201D02*
D03*
X456103Y53268D02*
D03*
X452854Y55039D02*
D03*
X456103Y57106D02*
D03*
X452854Y181791D02*
D03*
Y162598D02*
D03*
X456103Y164665D02*
D03*
X452854Y166437D02*
D03*
X456103Y168504D02*
D03*
X452854Y170276D02*
D03*
X456103Y172343D02*
D03*
X452854Y174114D02*
D03*
X456103Y176181D02*
D03*
X452854Y177953D02*
D03*
X456103Y180020D02*
D03*
X452854Y119941D02*
D03*
Y100748D02*
D03*
X456103Y102815D02*
D03*
X452854Y104587D02*
D03*
X456103Y106653D02*
D03*
X452854Y108425D02*
D03*
X456103Y110492D02*
D03*
X452854Y112264D02*
D03*
X456103Y114331D02*
D03*
X452854Y116102D02*
D03*
X456103Y118169D02*
D03*
X452854Y253799D02*
D03*
Y234606D02*
D03*
X456102Y236673D02*
D03*
X452854Y238445D02*
D03*
X456102Y240512D02*
D03*
X452854Y242283D02*
D03*
X456102Y244350D02*
D03*
X452854Y246122D02*
D03*
X456102Y248189D02*
D03*
X452854Y249961D02*
D03*
X456102Y252028D02*
D03*
X405413Y234390D02*
D03*
Y253583D02*
D03*
X402165Y251516D02*
D03*
X405413Y249744D02*
D03*
X402165Y247677D02*
D03*
X405413Y245905D02*
D03*
X402165Y243839D02*
D03*
X405413Y242067D02*
D03*
X402165Y240000D02*
D03*
X405413Y238228D02*
D03*
X402165Y236161D02*
D03*
X268110Y103543D02*
D03*
X402165Y164154D02*
D03*
X405413Y166220D02*
D03*
X402165Y167992D02*
D03*
X405413Y170059D02*
D03*
X402165Y171831D02*
D03*
X405413Y173898D02*
D03*
X402165Y175669D02*
D03*
X405413Y177736D02*
D03*
X402165Y179508D02*
D03*
X405413Y181575D02*
D03*
Y162382D02*
D03*
Y108209D02*
D03*
X402165Y109980D02*
D03*
X405413Y112047D02*
D03*
X402165Y113819D02*
D03*
X405413Y115886D02*
D03*
X402165Y117657D02*
D03*
X405413Y119724D02*
D03*
X402165Y48917D02*
D03*
X405413Y39469D02*
D03*
X402165Y41240D02*
D03*
X405413Y43307D02*
D03*
X402165Y45079D02*
D03*
X405413Y47146D02*
D03*
Y50984D02*
D03*
X402165Y106142D02*
D03*
X405413Y100531D02*
D03*
X402165Y102303D02*
D03*
X405413Y104370D02*
D03*
X402165Y52756D02*
D03*
X405413Y54823D02*
D03*
X402165Y56595D02*
D03*
X405413Y58661D02*
D03*
X245768Y173425D02*
D03*
X190354Y23720D02*
D03*
X197933Y90650D02*
D03*
X188287Y69784D02*
D03*
X203839Y59350D02*
D03*
X219488Y51181D02*
D03*
X207677Y187697D02*
D03*
X282087Y108366D02*
D03*
X253150Y118701D02*
D03*
X197441Y173327D02*
D03*
X264862Y273228D02*
D03*
X173130Y282972D02*
D03*
X241732Y189567D02*
D03*
X246457Y22835D02*
D03*
X226083Y7185D02*
D03*
X221555Y237008D02*
D03*
X220965Y164173D02*
D03*
X219193Y122638D02*
D03*
X183465Y106988D02*
D03*
X153839Y176870D02*
D03*
X163976Y315453D02*
D03*
X191535Y314961D02*
D03*
X199508Y330118D02*
D03*
X68504Y260827D02*
D03*
X102362Y166535D02*
D03*
X100591Y58268D02*
D03*
X143799Y93405D02*
D03*
X108169Y140748D02*
D03*
X107579Y174213D02*
D03*
X156791Y145965D02*
D03*
X76378Y293996D02*
D03*
X127461Y250886D02*
D03*
X75295Y87500D02*
D03*
X103642Y215354D02*
D03*
X157579Y214272D02*
D03*
X157874Y318406D02*
D03*
X196260Y237205D02*
D03*
X220177Y250000D02*
D03*
X221457Y137697D02*
D03*
X98524Y203839D02*
D03*
X74606Y193898D02*
D03*
X85236Y139272D02*
D03*
X131496Y179232D02*
D03*
X131299Y72933D02*
D03*
X195965Y209154D02*
D03*
X195965Y122342D02*
D03*
X195965Y39567D02*
D03*
X168110Y35531D02*
D03*
X145156Y44554D02*
D03*
X245276Y211910D02*
D03*
D101*
X426772Y300886D02*
D03*
X425984Y308563D02*
D03*
D102*
X347539Y62303D02*
D03*
X351673D02*
D03*
X356004D02*
D03*
X360138D02*
D03*
X364370D02*
D03*
M02*
