G04*
G04 #@! TF.GenerationSoftware,Altium Limited,Altium Designer,22.9.1 (49)*
G04*
G04 Layer_Color=16776960*
%FSLAX25Y25*%
%MOIN*%
G70*
G04*
G04 #@! TF.SameCoordinates,F2BEA512-F08D-4B97-9B6D-B9E427450466*
G04*
G04*
G04 #@! TF.FilePolarity,Negative*
G04*
G01*
G75*
%ADD20C,0.00100*%
%ADD51O,0.00709X0.02756*%
%ADD52C,0.04737*%
%ADD53R,0.11430X0.05918*%
%ADD54R,0.04343X0.03556*%
%ADD55R,0.04737X0.09068*%
%ADD56R,0.04147X0.04540*%
%ADD57R,0.04737X0.04737*%
%ADD58R,0.06312X0.02572*%
%ADD59R,0.04540X0.04147*%
%ADD60R,0.01981X0.04147*%
%ADD61R,0.07099X0.05524*%
%ADD62R,0.03556X0.04343*%
%ADD63R,0.04147X0.02178*%
%ADD64R,0.11417X0.02559*%
%ADD65R,0.03950X0.03950*%
%ADD66R,0.05524X0.03162*%
%ADD67R,0.07414X0.13162*%
%ADD68R,0.11627X0.25210*%
%ADD69R,0.04934X0.02965*%
%ADD70R,0.07493X0.05131*%
%ADD71R,0.02178X0.03359*%
%ADD72R,0.06115X0.05328*%
%ADD73R,0.14186X0.07887*%
%ADD74R,0.06115X0.06902*%
%ADD75R,0.04737X0.04737*%
%ADD76R,0.02178X0.04147*%
%ADD77R,0.10839X0.10839*%
%ADD78R,0.06902X0.06115*%
%ADD79R,0.07690X0.03162*%
%ADD80R,0.12808X0.03202*%
%ADD81C,0.13398*%
%ADD82C,0.14087*%
%ADD83C,0.08450*%
%ADD84R,0.07591X0.07591*%
%ADD85C,0.22453*%
G36*
X549600Y320240D02*
X549651Y320230D01*
X549701Y320213D01*
X549748Y320190D01*
X549791Y320161D01*
X549831Y320126D01*
X549865Y320087D01*
X549894Y320043D01*
X549918Y319996D01*
X549934Y319946D01*
X549945Y319895D01*
X549948Y319843D01*
Y310000D01*
X549945Y309948D01*
X549934Y309896D01*
X549918Y309847D01*
X549894Y309800D01*
X549865Y309756D01*
X549831Y309717D01*
X549791Y309682D01*
X549748Y309653D01*
X549701Y309630D01*
X549651Y309613D01*
X549600Y309603D01*
X549547Y309599D01*
X534232D01*
X534180Y309603D01*
X534129Y309613D01*
X534079Y309630D01*
X534032Y309653D01*
X533988Y309682D01*
X533949Y309717D01*
X533914Y309756D01*
X533885Y309800D01*
X533862Y309847D01*
X533845Y309896D01*
X533835Y309948D01*
X533831Y310000D01*
Y319843D01*
X533835Y319895D01*
X533845Y319946D01*
X533862Y319996D01*
X533885Y320043D01*
X533914Y320087D01*
X533949Y320126D01*
X533988Y320161D01*
X534032Y320190D01*
X534079Y320213D01*
X534129Y320230D01*
X534180Y320240D01*
X534232Y320243D01*
X536647D01*
X536659Y320243D01*
X536670Y320243D01*
X536685Y320241D01*
X536699Y320240D01*
X536711Y320238D01*
X536722Y320236D01*
X536736Y320233D01*
X536751Y320230D01*
X536762Y320226D01*
X536773Y320223D01*
X536786Y320218D01*
X536801Y320213D01*
X536811Y320208D01*
X536821Y320203D01*
X536834Y320196D01*
X536848Y320190D01*
X536857Y320183D01*
X536867Y320178D01*
X536879Y320169D01*
X536891Y320161D01*
X536900Y320153D01*
X536909Y320146D01*
X536919Y320136D01*
X536931Y320126D01*
X536931Y320126D01*
X536938Y320117D01*
X536946Y320109D01*
X537425Y319573D01*
X538536Y318686D01*
X539808Y318073D01*
X541184Y317758D01*
X542595D01*
X543971Y318073D01*
X545243Y318686D01*
X546355Y319573D01*
X546833Y320109D01*
X546841Y320117D01*
X546848Y320126D01*
X546860Y320136D01*
X546870Y320146D01*
X546879Y320153D01*
X546888Y320161D01*
X546900Y320169D01*
X546912Y320178D01*
X546922Y320183D01*
X546932Y320190D01*
X546945Y320196D01*
X546958Y320203D01*
X546968Y320208D01*
X546979Y320213D01*
X546993Y320218D01*
X547006Y320223D01*
X547017Y320226D01*
X547028Y320230D01*
X547043Y320233D01*
X547057Y320236D01*
X547068Y320238D01*
X547080Y320240D01*
X547094Y320241D01*
X547109Y320243D01*
X547121Y320243D01*
X547132Y320243D01*
X549547Y320243D01*
X549600Y320240D01*
D02*
G37*
G36*
Y388429D02*
X549651Y388419D01*
X549701Y388402D01*
X549748Y388379D01*
X549791Y388350D01*
X549831Y388315D01*
X549865Y388276D01*
X549894Y388232D01*
X549918Y388185D01*
X549934Y388135D01*
X549945Y388084D01*
X549948Y388032D01*
Y378189D01*
X549945Y378137D01*
X549934Y378085D01*
X549918Y378036D01*
X549894Y377989D01*
X549865Y377945D01*
X549831Y377906D01*
X549791Y377871D01*
X549748Y377842D01*
X549701Y377819D01*
X549651Y377802D01*
X549600Y377792D01*
X549547Y377788D01*
X547132D01*
X547121Y377789D01*
X547109Y377789D01*
X547094Y377791D01*
X547080Y377792D01*
X547068Y377794D01*
X547057Y377795D01*
X547043Y377799D01*
X547028Y377802D01*
X547017Y377805D01*
X547006Y377808D01*
X546993Y377814D01*
X546979Y377819D01*
X546968Y377824D01*
X546958Y377828D01*
X546945Y377835D01*
X546932Y377842D01*
X546922Y377848D01*
X546912Y377854D01*
X546900Y377863D01*
X546888Y377871D01*
X546879Y377878D01*
X546870Y377885D01*
X546860Y377896D01*
X546848Y377906D01*
X546841Y377914D01*
X546833Y377922D01*
X546355Y378458D01*
X545243Y379346D01*
X543971Y379959D01*
X542595Y380273D01*
X541184D01*
X539808Y379959D01*
X538536Y379346D01*
X537425Y378458D01*
X536946Y377922D01*
X536938Y377914D01*
X536931Y377906D01*
X536919Y377896D01*
X536909Y377885D01*
X536900Y377878D01*
X536891Y377871D01*
X536879Y377863D01*
X536867Y377854D01*
X536857Y377848D01*
X536848Y377842D01*
X536834Y377835D01*
X536821Y377828D01*
X536811Y377824D01*
X536801Y377819D01*
X536786Y377814D01*
X536773Y377808D01*
X536762Y377805D01*
X536751Y377802D01*
X536736Y377799D01*
X536722Y377795D01*
X536711Y377794D01*
X536699Y377792D01*
X536685Y377791D01*
X536670Y377789D01*
X536659Y377789D01*
X536647Y377788D01*
X534232D01*
X534180Y377792D01*
X534129Y377802D01*
X534079Y377819D01*
X534032Y377842D01*
X533988Y377871D01*
X533949Y377906D01*
X533914Y377945D01*
X533885Y377989D01*
X533862Y378036D01*
X533845Y378085D01*
X533835Y378137D01*
X533831Y378189D01*
Y388032D01*
X533835Y388084D01*
X533845Y388135D01*
X533862Y388185D01*
X533885Y388232D01*
X533914Y388276D01*
X533949Y388315D01*
X533988Y388350D01*
X534032Y388379D01*
X534079Y388402D01*
X534129Y388419D01*
X534180Y388429D01*
X534232Y388432D01*
X549547D01*
X549600Y388429D01*
D02*
G37*
D20*
X-0Y288252D02*
X134Y287233D01*
X527Y286283D01*
X1153Y285468D01*
X1969Y284842D01*
X2918Y284449D01*
X3937Y284315D01*
X-27795Y298095D02*
X-27661Y297076D01*
X-27268Y296126D01*
X-26642Y295311D01*
X-25827Y294685D01*
X-24877Y294292D01*
X-23858Y294158D01*
X-27795Y300457D02*
X-28256Y301570D01*
X-29370Y302031D01*
X-38740Y284315D02*
X-37721Y284449D01*
X-36771Y284842D01*
X-35956Y285468D01*
X-35330Y286283D01*
X-34937Y287233D01*
X-34803Y288252D01*
X-37953Y185791D02*
X-36970Y185895D01*
X-36031Y186200D01*
X-35176Y186694D01*
X-34442Y187355D01*
X-33861Y188154D01*
X-33460Y189056D01*
X-33254Y190022D01*
Y191010D01*
X-33460Y191976D01*
X-33861Y192878D01*
X-34442Y193677D01*
X-35176Y194338D01*
X-36031Y194832D01*
X-36970Y195137D01*
X-37953Y195240D01*
X-34803Y105378D02*
X-34937Y106397D01*
X-35330Y107346D01*
X-35956Y108162D01*
X-36771Y108788D01*
X-37721Y109181D01*
X-38740Y109315D01*
X-29370Y91598D02*
X-28256Y92060D01*
X-27795Y93173D01*
X-23858Y99472D02*
X-24877Y99338D01*
X-25827Y98945D01*
X-26642Y98319D01*
X-27268Y97504D01*
X-27661Y96554D01*
X-27795Y95535D01*
X3937Y109315D02*
X2918Y109181D01*
X1969Y108788D01*
X1153Y108162D01*
X527Y107346D01*
X134Y106397D01*
X-0Y105378D01*
X3937Y284315D02*
X14670D01*
X-0Y288252D02*
Y294157D01*
X-23858D02*
X-0D01*
X-27795Y298094D02*
Y300457D01*
X-34803Y302031D02*
X-29370D01*
X-34803Y288252D02*
Y302031D01*
X-55357Y284315D02*
X-38740D01*
X-58425D02*
X-55357D01*
X-58425Y195240D02*
Y284315D01*
Y195240D02*
X-55357D01*
X-37953D01*
X-55357Y185791D02*
X-37953D01*
X-58425D02*
X-55357D01*
X-58425Y109315D02*
Y185791D01*
Y109315D02*
X-55357D01*
X-38740D01*
X-34803Y91598D02*
Y105378D01*
Y91598D02*
X-29370D01*
X-27795Y93173D02*
Y95535D01*
X-23858Y99472D02*
X-0D01*
Y105378D01*
X3937Y109315D02*
X14670D01*
D51*
X366984Y39449D02*
D03*
X365409D02*
D03*
X363834D02*
D03*
X366984Y44685D02*
D03*
X365409D02*
D03*
X363834D02*
D03*
X362259D02*
D03*
X360684D02*
D03*
X359110D02*
D03*
X357535D02*
D03*
X355960D02*
D03*
X354385D02*
D03*
X352811D02*
D03*
X351236D02*
D03*
X349661D02*
D03*
X348086D02*
D03*
X346511D02*
D03*
X344936D02*
D03*
X362259Y39449D02*
D03*
X360684D02*
D03*
X359110D02*
D03*
X357535D02*
D03*
X355960D02*
D03*
X354385D02*
D03*
X352811D02*
D03*
X351236D02*
D03*
X349661D02*
D03*
X348086D02*
D03*
X344936D02*
D03*
X346511D02*
D03*
X366984Y223622D02*
D03*
X365409D02*
D03*
X363834D02*
D03*
X366984Y228858D02*
D03*
X365409D02*
D03*
X363834D02*
D03*
X362259D02*
D03*
X360684D02*
D03*
X359110D02*
D03*
X357535D02*
D03*
X355960D02*
D03*
X354385D02*
D03*
X352810D02*
D03*
X351236D02*
D03*
X349661D02*
D03*
X348086D02*
D03*
X346511D02*
D03*
X344936D02*
D03*
X362259Y223622D02*
D03*
X360684D02*
D03*
X359110D02*
D03*
X357535D02*
D03*
X355960D02*
D03*
X354385D02*
D03*
X352810D02*
D03*
X351236D02*
D03*
X349661D02*
D03*
X348086D02*
D03*
X344936D02*
D03*
X346511D02*
D03*
X346511Y209823D02*
D03*
X344936D02*
D03*
X348086D02*
D03*
X349661D02*
D03*
X351236D02*
D03*
X352811D02*
D03*
X354385D02*
D03*
X355960D02*
D03*
X357535D02*
D03*
X359110D02*
D03*
X360684D02*
D03*
X362259D02*
D03*
X344936Y215059D02*
D03*
X346511D02*
D03*
X348086D02*
D03*
X349661D02*
D03*
X351236D02*
D03*
X352810D02*
D03*
X354385D02*
D03*
X355960D02*
D03*
X357535D02*
D03*
X359110D02*
D03*
X360684D02*
D03*
X362259D02*
D03*
X363834D02*
D03*
X365409D02*
D03*
X366984D02*
D03*
X363834Y209823D02*
D03*
X365409D02*
D03*
X366984D02*
D03*
X366984Y124882D02*
D03*
X365409D02*
D03*
X363834D02*
D03*
X366984Y130118D02*
D03*
X365409D02*
D03*
X363834D02*
D03*
X362259D02*
D03*
X360684D02*
D03*
X359110D02*
D03*
X357535D02*
D03*
X355960D02*
D03*
X354385D02*
D03*
X352810D02*
D03*
X351236D02*
D03*
X349661D02*
D03*
X348086D02*
D03*
X346511D02*
D03*
X344936D02*
D03*
X362259Y124882D02*
D03*
X360684D02*
D03*
X359110D02*
D03*
X357535D02*
D03*
X355960D02*
D03*
X354385D02*
D03*
X352810D02*
D03*
X351236D02*
D03*
X349661D02*
D03*
X348086D02*
D03*
X344936D02*
D03*
X346511D02*
D03*
X346511Y138681D02*
D03*
X344936D02*
D03*
X348086D02*
D03*
X349661D02*
D03*
X351236D02*
D03*
X352810D02*
D03*
X354385D02*
D03*
X355960D02*
D03*
X357535D02*
D03*
X359109D02*
D03*
X360684D02*
D03*
X362259D02*
D03*
X344936Y143918D02*
D03*
X346511D02*
D03*
X348086D02*
D03*
X349661D02*
D03*
X351236D02*
D03*
X352810D02*
D03*
X354385D02*
D03*
X355960D02*
D03*
X357535D02*
D03*
X359109D02*
D03*
X360684D02*
D03*
X362259D02*
D03*
X363834D02*
D03*
X365409D02*
D03*
X366984D02*
D03*
X363834Y138681D02*
D03*
X365409D02*
D03*
X366984D02*
D03*
X346511Y53248D02*
D03*
X344936D02*
D03*
X348086D02*
D03*
X349661D02*
D03*
X351236D02*
D03*
X352811D02*
D03*
X354385D02*
D03*
X355960D02*
D03*
X357535D02*
D03*
X359110D02*
D03*
X360684D02*
D03*
X362259D02*
D03*
X344936Y58484D02*
D03*
X346511D02*
D03*
X348086D02*
D03*
X349661D02*
D03*
X351236D02*
D03*
X352811D02*
D03*
X354385D02*
D03*
X355960D02*
D03*
X357535D02*
D03*
X359110D02*
D03*
X360684D02*
D03*
X362259D02*
D03*
X363834D02*
D03*
X365409D02*
D03*
X366984D02*
D03*
X363834Y53248D02*
D03*
X365409D02*
D03*
X366984D02*
D03*
D52*
X260827Y80807D02*
D03*
X260728Y163583D02*
D03*
X260827Y250492D02*
D03*
X262697Y229282D02*
D03*
X246260Y347933D02*
D03*
X32480Y319685D02*
D03*
X32480Y311811D02*
D03*
X32480Y327559D02*
D03*
X462212Y366799D02*
D03*
X262106Y144193D02*
D03*
X262205Y59449D02*
D03*
X490551Y351142D02*
D03*
X480905Y346890D02*
D03*
X475827Y332756D02*
D03*
X463386Y348071D02*
D03*
Y355354D02*
D03*
X488779Y368268D02*
D03*
X488819Y361535D02*
D03*
X475827Y339606D02*
D03*
X32480Y335433D02*
D03*
D53*
X257677Y359547D02*
D03*
Y348524D02*
D03*
Y330413D02*
D03*
Y319390D02*
D03*
D54*
X367126Y241339D02*
D03*
Y235827D02*
D03*
X362697D02*
D03*
Y241339D02*
D03*
X358268Y235827D02*
D03*
Y241339D02*
D03*
X353839D02*
D03*
Y235827D02*
D03*
X349409Y235827D02*
D03*
Y241339D02*
D03*
X344980D02*
D03*
Y235827D02*
D03*
X447638Y265650D02*
D03*
Y271161D02*
D03*
X358268Y156398D02*
D03*
Y150886D02*
D03*
X410531Y304429D02*
D03*
Y309941D02*
D03*
X444291Y288287D02*
D03*
Y293799D02*
D03*
X344980Y65453D02*
D03*
Y70965D02*
D03*
X349410Y65453D02*
D03*
Y70965D02*
D03*
X447687Y304380D02*
D03*
Y309892D02*
D03*
X410433Y143898D02*
D03*
Y149409D02*
D03*
X414665D02*
D03*
Y143898D02*
D03*
X414646Y21102D02*
D03*
Y26614D02*
D03*
X243701Y324410D02*
D03*
Y329921D02*
D03*
X-2008Y188032D02*
D03*
X3740D02*
D03*
X247736Y139665D02*
D03*
Y145177D02*
D03*
X243209Y139665D02*
D03*
Y145177D02*
D03*
X243209Y229823D02*
D03*
X243209Y224311D02*
D03*
X247736Y229823D02*
D03*
Y224311D02*
D03*
X247736Y54724D02*
D03*
Y60236D02*
D03*
X243209Y54724D02*
D03*
Y60236D02*
D03*
X127839Y29429D02*
D03*
Y23918D02*
D03*
X127839Y81709D02*
D03*
Y76198D02*
D03*
X156973Y25984D02*
D03*
Y20473D02*
D03*
X156973Y78068D02*
D03*
Y72556D02*
D03*
X127839Y134744D02*
D03*
Y129232D02*
D03*
X156973Y131299D02*
D03*
Y125788D02*
D03*
X127839Y190076D02*
D03*
Y184564D02*
D03*
X127839Y245079D02*
D03*
Y239567D02*
D03*
X156973Y186434D02*
D03*
Y180922D02*
D03*
X156973Y241634D02*
D03*
Y236122D02*
D03*
X127839Y299524D02*
D03*
Y294012D02*
D03*
X156973Y295883D02*
D03*
Y290371D02*
D03*
X414468Y268012D02*
D03*
Y262500D02*
D03*
X443209Y271161D02*
D03*
Y265650D02*
D03*
X288440Y224508D02*
D03*
Y230020D02*
D03*
X299125Y205512D02*
D03*
Y200001D02*
D03*
X367126Y150886D02*
D03*
Y156398D02*
D03*
X362697Y150886D02*
D03*
Y156398D02*
D03*
X353839Y150886D02*
D03*
Y156398D02*
D03*
X349409Y150886D02*
D03*
Y156398D02*
D03*
X344980Y150886D02*
D03*
Y156398D02*
D03*
X296369Y120571D02*
D03*
Y115060D02*
D03*
X288440Y145079D02*
D03*
Y139567D02*
D03*
Y54134D02*
D03*
Y59646D02*
D03*
X299125Y29626D02*
D03*
Y35138D02*
D03*
X367126Y70965D02*
D03*
Y65453D02*
D03*
X362697Y70965D02*
D03*
Y65453D02*
D03*
X358268Y70965D02*
D03*
Y65453D02*
D03*
X353839Y70965D02*
D03*
Y65453D02*
D03*
X444095Y146752D02*
D03*
Y152264D02*
D03*
X444980Y29528D02*
D03*
Y24016D02*
D03*
X444095Y90453D02*
D03*
Y84941D02*
D03*
X415157Y83563D02*
D03*
X410433Y26614D02*
D03*
X-2008Y193543D02*
D03*
X27520Y209763D02*
D03*
X415157Y78051D02*
D03*
X3740Y193543D02*
D03*
X27205Y189685D02*
D03*
X410433Y21102D02*
D03*
X27520Y215275D02*
D03*
X27205Y195197D02*
D03*
D55*
X198976Y122539D02*
D03*
Y162303D02*
D03*
X228976D02*
D03*
Y122539D02*
D03*
X208976D02*
D03*
X198976Y307283D02*
D03*
X228976D02*
D03*
Y347047D02*
D03*
X208976Y307283D02*
D03*
X198976Y347047D02*
D03*
X198977Y249114D02*
D03*
X228976D02*
D03*
Y209350D02*
D03*
X208977D02*
D03*
X198977D02*
D03*
X198976Y39764D02*
D03*
Y79528D02*
D03*
X228976D02*
D03*
Y39764D02*
D03*
X208976D02*
D03*
D56*
X432382Y277362D02*
D03*
X437500D02*
D03*
X421850D02*
D03*
X426968D02*
D03*
X332677Y19980D02*
D03*
X327559D02*
D03*
X409350Y93110D02*
D03*
X414468D02*
D03*
X409350Y154921D02*
D03*
X414468D02*
D03*
X409350Y31988D02*
D03*
X414468D02*
D03*
X327559Y105413D02*
D03*
X332677D02*
D03*
X327559Y190354D02*
D03*
X332677D02*
D03*
X457776Y266339D02*
D03*
X462894D02*
D03*
X457874Y260236D02*
D03*
X462992D02*
D03*
X419094Y293209D02*
D03*
X413976D02*
D03*
X426083Y136761D02*
D03*
X420965D02*
D03*
X436614D02*
D03*
X431496D02*
D03*
X426058Y74911D02*
D03*
X420940D02*
D03*
X436589D02*
D03*
X431471D02*
D03*
X426083Y13976D02*
D03*
X420965D02*
D03*
X436614D02*
D03*
X431496D02*
D03*
X259646Y151870D02*
D03*
X254527D02*
D03*
X254528Y236319D02*
D03*
X259646D02*
D03*
X254527Y66732D02*
D03*
X259646D02*
D03*
X278445Y236319D02*
D03*
X283563D02*
D03*
X289086Y193406D02*
D03*
X294204D02*
D03*
X294204Y199606D02*
D03*
X289086D02*
D03*
X294204Y211811D02*
D03*
X289086D02*
D03*
X283519Y230020D02*
D03*
X278401D02*
D03*
X278445Y223819D02*
D03*
X283563D02*
D03*
X289086Y205610D02*
D03*
X294204D02*
D03*
X334055Y207677D02*
D03*
X328937D02*
D03*
X334110Y235158D02*
D03*
X328992D02*
D03*
X334110Y228957D02*
D03*
X328992D02*
D03*
X334054Y213878D02*
D03*
X328937D02*
D03*
X283563Y138878D02*
D03*
X278445D02*
D03*
X286330Y126870D02*
D03*
X291448D02*
D03*
X291448Y120669D02*
D03*
X286330D02*
D03*
X291448Y114666D02*
D03*
X286330D02*
D03*
Y108465D02*
D03*
X291448D02*
D03*
X283563Y151378D02*
D03*
X278445D02*
D03*
X283563Y65945D02*
D03*
X278445D02*
D03*
X334055Y122736D02*
D03*
X328937D02*
D03*
X334054Y128937D02*
D03*
X328937D02*
D03*
X328992Y144016D02*
D03*
X334110D02*
D03*
X328992Y150217D02*
D03*
X334110D02*
D03*
X283519Y145079D02*
D03*
X278401D02*
D03*
X292913Y41437D02*
D03*
X287795D02*
D03*
X294204Y23032D02*
D03*
X289086D02*
D03*
X278445Y53445D02*
D03*
X283563D02*
D03*
X283519Y59646D02*
D03*
X278401D02*
D03*
X294204Y29233D02*
D03*
X289086D02*
D03*
X294204Y35236D02*
D03*
X289086D02*
D03*
X334055Y37303D02*
D03*
X328937D02*
D03*
X334054Y43504D02*
D03*
X328937D02*
D03*
X334110Y64784D02*
D03*
X328992D02*
D03*
X334110Y58583D02*
D03*
X328992D02*
D03*
X377338Y12319D02*
D03*
X382456D02*
D03*
X371826D02*
D03*
X366708D02*
D03*
X522086Y303346D02*
D03*
X527205D02*
D03*
D57*
X452264Y265453D02*
D03*
Y271358D02*
D03*
X406299Y20906D02*
D03*
Y26811D02*
D03*
X184055Y318012D02*
D03*
Y312106D02*
D03*
X184055Y133268D02*
D03*
Y127362D02*
D03*
X184055Y214173D02*
D03*
Y220079D02*
D03*
X184055Y44587D02*
D03*
Y50492D02*
D03*
X406299Y143701D02*
D03*
Y149606D02*
D03*
D58*
X420472Y260433D02*
D03*
X437795D02*
D03*
Y262992D02*
D03*
Y265551D02*
D03*
Y268110D02*
D03*
X420472D02*
D03*
Y265551D02*
D03*
Y262992D02*
D03*
X420472Y154478D02*
D03*
Y151918D02*
D03*
Y149360D02*
D03*
Y146800D02*
D03*
X437795D02*
D03*
Y149360D02*
D03*
Y151918D02*
D03*
Y154478D02*
D03*
X420472Y31693D02*
D03*
Y29134D02*
D03*
Y26575D02*
D03*
Y24016D02*
D03*
X437795D02*
D03*
Y26575D02*
D03*
Y29134D02*
D03*
Y31693D02*
D03*
X420448Y92627D02*
D03*
Y90068D02*
D03*
Y87509D02*
D03*
Y84950D02*
D03*
X437770D02*
D03*
Y87509D02*
D03*
Y90068D02*
D03*
Y92627D02*
D03*
D59*
X384252Y181201D02*
D03*
Y186319D02*
D03*
X400787Y150098D02*
D03*
Y155217D02*
D03*
X405413Y309744D02*
D03*
Y304626D02*
D03*
X409350Y87500D02*
D03*
Y82382D02*
D03*
X400886Y31988D02*
D03*
Y26870D02*
D03*
X439271Y288484D02*
D03*
Y293602D02*
D03*
X130201Y43996D02*
D03*
Y38878D02*
D03*
X136811Y12598D02*
D03*
Y17717D02*
D03*
X136205Y38878D02*
D03*
Y43996D02*
D03*
X136811Y61614D02*
D03*
Y66733D02*
D03*
X150477Y25788D02*
D03*
Y20669D02*
D03*
X162878Y20669D02*
D03*
Y25788D02*
D03*
X150477Y78038D02*
D03*
Y72920D02*
D03*
X162878Y72949D02*
D03*
Y78068D02*
D03*
X130201Y96457D02*
D03*
Y91339D02*
D03*
X130201Y149311D02*
D03*
Y144193D02*
D03*
X136205Y91339D02*
D03*
Y96457D02*
D03*
X136811Y114862D02*
D03*
Y119981D02*
D03*
X150477Y131103D02*
D03*
Y125984D02*
D03*
X162878Y125985D02*
D03*
Y131103D02*
D03*
X136205Y144193D02*
D03*
Y149311D02*
D03*
X136811Y169980D02*
D03*
Y175099D02*
D03*
X130201Y199705D02*
D03*
Y204823D02*
D03*
X136205Y204823D02*
D03*
Y199705D02*
D03*
X136811Y225197D02*
D03*
Y230315D02*
D03*
X150477Y186404D02*
D03*
Y181286D02*
D03*
X162878Y181316D02*
D03*
Y186434D02*
D03*
X150477Y241437D02*
D03*
Y236319D02*
D03*
X162878Y241437D02*
D03*
Y236319D02*
D03*
X130201Y309154D02*
D03*
Y314272D02*
D03*
X130201Y259646D02*
D03*
Y254528D02*
D03*
X136205Y254528D02*
D03*
Y259646D02*
D03*
X136811Y279429D02*
D03*
Y284547D02*
D03*
X150477Y295853D02*
D03*
Y290735D02*
D03*
X136205Y314272D02*
D03*
Y309154D02*
D03*
X162878Y290765D02*
D03*
Y295883D02*
D03*
X439173Y324725D02*
D03*
Y319606D02*
D03*
X452805Y309695D02*
D03*
Y304577D02*
D03*
X419094Y319606D02*
D03*
Y324725D02*
D03*
X377559Y259449D02*
D03*
Y254331D02*
D03*
X383760Y234941D02*
D03*
Y240059D02*
D03*
X382535Y205414D02*
D03*
Y200295D02*
D03*
X390453Y181201D02*
D03*
Y186319D02*
D03*
X371850Y259449D02*
D03*
Y254331D02*
D03*
X339764Y208662D02*
D03*
Y213779D02*
D03*
X339769Y228789D02*
D03*
Y233907D02*
D03*
X339764Y128839D02*
D03*
Y123721D02*
D03*
X339769Y143848D02*
D03*
Y148966D02*
D03*
X382535Y115354D02*
D03*
Y120473D02*
D03*
X384252Y151969D02*
D03*
Y146850D02*
D03*
X386811Y97146D02*
D03*
Y102264D02*
D03*
X392717Y97146D02*
D03*
Y102264D02*
D03*
X384252Y157480D02*
D03*
Y162599D02*
D03*
X390453Y157480D02*
D03*
Y162599D02*
D03*
X392027Y13878D02*
D03*
Y18996D02*
D03*
X398130Y13878D02*
D03*
Y18996D02*
D03*
X339764Y43406D02*
D03*
Y38287D02*
D03*
X339769Y63533D02*
D03*
Y58415D02*
D03*
X383858Y69685D02*
D03*
Y64567D02*
D03*
X382535Y29921D02*
D03*
Y35040D02*
D03*
X-6850Y124016D02*
D03*
X44567Y351181D02*
D03*
Y356299D02*
D03*
X32756Y351181D02*
D03*
Y356299D02*
D03*
X20945Y351181D02*
D03*
Y356299D02*
D03*
Y340472D02*
D03*
Y335354D02*
D03*
X-16693Y118898D02*
D03*
Y124016D02*
D03*
X-6850Y118898D02*
D03*
X2992Y124016D02*
D03*
Y118898D02*
D03*
D60*
X375744Y69193D02*
D03*
X373776D02*
D03*
X371807D02*
D03*
Y59744D02*
D03*
X373776D02*
D03*
X375744D02*
D03*
X377713D02*
D03*
Y69193D02*
D03*
X375744Y239567D02*
D03*
X373776D02*
D03*
X371807D02*
D03*
Y230118D02*
D03*
X373776D02*
D03*
X375744D02*
D03*
X377713D02*
D03*
Y239567D02*
D03*
X373775Y200394D02*
D03*
X375744D02*
D03*
X377712D02*
D03*
Y209843D02*
D03*
X375744D02*
D03*
X373775D02*
D03*
X371807D02*
D03*
Y200394D02*
D03*
Y115453D02*
D03*
Y124902D02*
D03*
X373775D02*
D03*
X375744D02*
D03*
X377712D02*
D03*
Y115453D02*
D03*
X375744D02*
D03*
X373775D02*
D03*
X375744Y154626D02*
D03*
X373776D02*
D03*
X371807D02*
D03*
Y145177D02*
D03*
X373776D02*
D03*
X375744D02*
D03*
X377713D02*
D03*
Y154626D02*
D03*
X371807Y30020D02*
D03*
Y39469D02*
D03*
X373775D02*
D03*
X375744D02*
D03*
X377712D02*
D03*
Y30020D02*
D03*
X375744D02*
D03*
X373775D02*
D03*
D61*
X374760Y64469D02*
D03*
Y234842D02*
D03*
X374759Y205118D02*
D03*
Y120177D02*
D03*
X374760Y149902D02*
D03*
X374759Y34744D02*
D03*
D62*
X372047Y78839D02*
D03*
X377559D02*
D03*
X316732Y19980D02*
D03*
X322244D02*
D03*
X322244Y105413D02*
D03*
X316732D02*
D03*
X322244Y190354D02*
D03*
X316732D02*
D03*
X431890Y320965D02*
D03*
X426378D02*
D03*
X415748Y70768D02*
D03*
X410236D02*
D03*
X257283Y131398D02*
D03*
X251772D02*
D03*
X251772Y215945D02*
D03*
X257283D02*
D03*
X251772Y46260D02*
D03*
X257283D02*
D03*
X431890Y293209D02*
D03*
X426378D02*
D03*
X370724Y249410D02*
D03*
X376236D02*
D03*
X377417Y192126D02*
D03*
X371905D02*
D03*
X328795Y240453D02*
D03*
X334307D02*
D03*
X334252Y218996D02*
D03*
X328740D02*
D03*
Y134055D02*
D03*
X334252D02*
D03*
X334307Y155512D02*
D03*
X328795D02*
D03*
X371752Y106791D02*
D03*
X377264D02*
D03*
X376236Y162894D02*
D03*
X370724D02*
D03*
X334251Y48622D02*
D03*
X328740D02*
D03*
X328795Y70079D02*
D03*
X334307D02*
D03*
X377417Y21752D02*
D03*
X371905D02*
D03*
D63*
X307776Y209252D02*
D03*
X307776Y124311D02*
D03*
X307776Y38878D02*
D03*
X323130Y121752D02*
D03*
X307776Y129429D02*
D03*
Y126870D02*
D03*
Y121752D02*
D03*
X323130Y124311D02*
D03*
Y126870D02*
D03*
Y129429D02*
D03*
X323130Y206693D02*
D03*
Y214370D02*
D03*
Y211811D02*
D03*
Y209252D02*
D03*
X307776Y206693D02*
D03*
Y211811D02*
D03*
Y214370D02*
D03*
X323185Y235650D02*
D03*
Y233091D02*
D03*
Y230532D02*
D03*
Y227973D02*
D03*
X307830D02*
D03*
Y230532D02*
D03*
Y233091D02*
D03*
Y235650D02*
D03*
X307830Y150709D02*
D03*
Y148150D02*
D03*
Y145591D02*
D03*
Y143032D02*
D03*
X323185D02*
D03*
Y145591D02*
D03*
Y148150D02*
D03*
Y150709D02*
D03*
X323185Y65276D02*
D03*
Y62717D02*
D03*
Y60158D02*
D03*
Y57599D02*
D03*
X307830D02*
D03*
Y60158D02*
D03*
Y62717D02*
D03*
Y65276D02*
D03*
X323130Y36319D02*
D03*
X307776Y43996D02*
D03*
Y41437D02*
D03*
Y36319D02*
D03*
X323130Y38878D02*
D03*
Y41437D02*
D03*
Y43996D02*
D03*
D64*
X-48976Y113350D02*
D03*
Y119650D02*
D03*
Y122799D02*
D03*
Y125949D02*
D03*
Y129098D02*
D03*
Y135398D02*
D03*
Y138547D02*
D03*
Y144846D02*
D03*
Y147996D02*
D03*
Y179492D02*
D03*
Y198390D02*
D03*
Y204689D02*
D03*
Y210988D02*
D03*
Y217287D02*
D03*
Y223587D02*
D03*
Y229886D02*
D03*
Y236185D02*
D03*
Y242484D02*
D03*
Y248783D02*
D03*
Y255083D02*
D03*
Y173193D02*
D03*
Y160594D02*
D03*
Y261382D02*
D03*
Y267681D02*
D03*
Y273980D02*
D03*
Y154295D02*
D03*
Y166894D02*
D03*
Y116500D02*
D03*
Y280280D02*
D03*
Y277130D02*
D03*
Y270831D02*
D03*
Y264531D02*
D03*
Y258232D02*
D03*
Y251933D02*
D03*
Y245634D02*
D03*
Y239335D02*
D03*
Y233035D02*
D03*
Y226736D02*
D03*
Y220437D02*
D03*
Y214138D02*
D03*
Y207839D02*
D03*
Y201539D02*
D03*
Y182642D02*
D03*
Y176343D02*
D03*
Y170043D02*
D03*
Y163744D02*
D03*
Y157445D02*
D03*
Y151146D02*
D03*
Y141697D02*
D03*
Y132248D02*
D03*
D65*
X32756Y368110D02*
D03*
Y374410D02*
D03*
X20945D02*
D03*
X44567D02*
D03*
Y368110D02*
D03*
X20945D02*
D03*
D66*
X20315Y196496D02*
D03*
X10473D02*
D03*
Y192756D02*
D03*
X20315Y189016D02*
D03*
X10473D02*
D03*
X10473Y220866D02*
D03*
X20315Y213386D02*
D03*
Y220866D02*
D03*
Y217126D02*
D03*
X10473Y213386D02*
D03*
Y217126D02*
D03*
D67*
X4567Y241220D02*
D03*
X-14252D02*
D03*
Y275236D02*
D03*
Y258228D02*
D03*
X4567D02*
D03*
Y275236D02*
D03*
D68*
X412795Y49173D02*
D03*
X445472D02*
D03*
X445472Y244094D02*
D03*
X412795D02*
D03*
X412795Y110236D02*
D03*
X445472D02*
D03*
Y172087D02*
D03*
X412795D02*
D03*
D69*
X143457Y29469D02*
D03*
X133221Y25729D02*
D03*
Y29469D02*
D03*
Y33209D02*
D03*
X143457D02*
D03*
Y25729D02*
D03*
Y78003D02*
D03*
Y85483D02*
D03*
X133221D02*
D03*
Y81743D02*
D03*
Y78003D02*
D03*
X143457Y81743D02*
D03*
X143457Y131044D02*
D03*
Y138524D02*
D03*
X133221D02*
D03*
Y134784D02*
D03*
Y131044D02*
D03*
X143457Y134784D02*
D03*
Y186369D02*
D03*
Y193849D02*
D03*
X133221D02*
D03*
Y190109D02*
D03*
Y186369D02*
D03*
X143457Y190109D02*
D03*
X143457Y241378D02*
D03*
Y248859D02*
D03*
X133221D02*
D03*
Y245118D02*
D03*
Y241378D02*
D03*
X143457Y245118D02*
D03*
Y295818D02*
D03*
Y303298D02*
D03*
X133221D02*
D03*
Y299558D02*
D03*
Y295818D02*
D03*
X143457Y299558D02*
D03*
D70*
X254527Y57284D02*
D03*
X254527Y142421D02*
D03*
X254527Y226870D02*
D03*
D71*
X251969Y61418D02*
D03*
X254527D02*
D03*
X257087D02*
D03*
Y53150D02*
D03*
X254527D02*
D03*
X251969D02*
D03*
X251969Y146555D02*
D03*
X254527D02*
D03*
X257086D02*
D03*
Y138287D02*
D03*
X254527D02*
D03*
X251969D02*
D03*
X251969Y222736D02*
D03*
X254527D02*
D03*
X257087D02*
D03*
Y231004D02*
D03*
X254527D02*
D03*
X251969D02*
D03*
D72*
X150476Y40059D02*
D03*
Y33169D02*
D03*
X150476Y85450D02*
D03*
Y92339D02*
D03*
X150476Y138484D02*
D03*
Y145374D02*
D03*
X150476Y193816D02*
D03*
Y200706D02*
D03*
X150476Y248819D02*
D03*
Y255709D02*
D03*
X150476Y303264D02*
D03*
Y310154D02*
D03*
D73*
X355665Y12599D02*
D03*
Y33071D02*
D03*
Y203445D02*
D03*
Y182973D02*
D03*
Y118504D02*
D03*
Y98032D02*
D03*
D74*
X311221Y75689D02*
D03*
X319094D02*
D03*
X289961Y217913D02*
D03*
X297835D02*
D03*
X288681Y48327D02*
D03*
X296555D02*
D03*
X290354Y133760D02*
D03*
X298228D02*
D03*
X319094Y161417D02*
D03*
X311221D02*
D03*
X319094Y246358D02*
D03*
X311221D02*
D03*
X177362Y320177D02*
D03*
X169488D02*
D03*
X169488Y309941D02*
D03*
X177362D02*
D03*
X177362Y125197D02*
D03*
X169488D02*
D03*
X177362Y135433D02*
D03*
X169488D02*
D03*
X177362Y212008D02*
D03*
X169488D02*
D03*
X177362Y222244D02*
D03*
X169488D02*
D03*
X169488Y52658D02*
D03*
X177362D02*
D03*
X169488Y42421D02*
D03*
X177362D02*
D03*
D75*
X-8583Y187992D02*
D03*
X-14488D02*
D03*
X122917Y29429D02*
D03*
X117012D02*
D03*
X122917Y81709D02*
D03*
X117012D02*
D03*
X122917Y134744D02*
D03*
X117012D02*
D03*
X122606Y189693D02*
D03*
X116700D02*
D03*
X122623Y299159D02*
D03*
X116717D02*
D03*
X122917Y245079D02*
D03*
X117012D02*
D03*
X426181Y326378D02*
D03*
X432087D02*
D03*
X405807Y67815D02*
D03*
X399902D02*
D03*
D76*
X311614Y117914D02*
D03*
X314173D02*
D03*
X316732D02*
D03*
X319291D02*
D03*
Y133268D02*
D03*
X316732D02*
D03*
X314173D02*
D03*
X311614D02*
D03*
X311614Y218209D02*
D03*
X311614Y47835D02*
D03*
X314173Y218209D02*
D03*
X316732D02*
D03*
X319291D02*
D03*
Y202854D02*
D03*
X316732D02*
D03*
X314173D02*
D03*
X311614D02*
D03*
X311669Y239488D02*
D03*
X314228D02*
D03*
X316787D02*
D03*
X319346D02*
D03*
Y224134D02*
D03*
X316787D02*
D03*
X314228D02*
D03*
X311669D02*
D03*
X311669Y139193D02*
D03*
X314228D02*
D03*
X316787D02*
D03*
X319346D02*
D03*
Y154548D02*
D03*
X316787D02*
D03*
X314228D02*
D03*
X311669D02*
D03*
X311669Y69114D02*
D03*
X314228D02*
D03*
X316787D02*
D03*
X319346D02*
D03*
Y53760D02*
D03*
X316787D02*
D03*
X314228D02*
D03*
X311669D02*
D03*
X311614Y32480D02*
D03*
X314173D02*
D03*
X316732D02*
D03*
X319291D02*
D03*
Y47835D02*
D03*
X316732D02*
D03*
X314173D02*
D03*
D77*
X315453Y125591D02*
D03*
X315453Y210531D02*
D03*
X315508Y231811D02*
D03*
X315508Y146871D02*
D03*
X315508Y61437D02*
D03*
X315453Y40157D02*
D03*
D78*
X35512Y196614D02*
D03*
Y188740D02*
D03*
D79*
X439173Y299685D02*
D03*
Y304685D02*
D03*
Y314685D02*
D03*
X419094D02*
D03*
Y299685D02*
D03*
X439173Y309685D02*
D03*
X419094Y304685D02*
D03*
Y309685D02*
D03*
D80*
X502598Y363071D02*
D03*
Y359055D02*
D03*
Y355039D02*
D03*
Y351024D02*
D03*
Y347008D02*
D03*
Y342992D02*
D03*
Y338976D02*
D03*
Y334961D02*
D03*
D81*
X541890Y305709D02*
D03*
Y355709D02*
D03*
Y374016D02*
D03*
Y324016D02*
D03*
D82*
X502518Y89803D02*
D03*
Y202402D02*
D03*
Y258701D02*
D03*
Y33504D02*
D03*
Y146102D02*
D03*
D83*
X527557Y69803D02*
D03*
X487557D02*
D03*
Y109803D02*
D03*
X527557D02*
D03*
Y222402D02*
D03*
X487557D02*
D03*
Y182402D02*
D03*
X527557D02*
D03*
Y238701D02*
D03*
X487557D02*
D03*
Y278701D02*
D03*
X527557D02*
D03*
Y13504D02*
D03*
X487557D02*
D03*
Y53504D02*
D03*
X527557D02*
D03*
Y126102D02*
D03*
X487557D02*
D03*
Y166102D02*
D03*
X527557D02*
D03*
D84*
X123488Y61650D02*
D03*
X123193Y114685D02*
D03*
X123488Y170016D02*
D03*
X123488Y12421D02*
D03*
X123488Y279465D02*
D03*
X123488Y225020D02*
D03*
D85*
X395276Y292815D02*
D03*
X285039D02*
D03*
Y81398D02*
D03*
X395276D02*
D03*
M02*
