G04*
G04 #@! TF.GenerationSoftware,Altium Limited,Altium Designer,22.9.1 (49)*
G04*
G04 Layer_Physical_Order=5*
G04 Layer_Color=16737945*
%FSLAX25Y25*%
%MOIN*%
G70*
G04*
G04 #@! TF.SameCoordinates,F2BEA512-F08D-4B97-9B6D-B9E427450466*
G04*
G04*
G04 #@! TF.FilePolarity,Positive*
G04*
G01*
G75*
%ADD16C,0.00787*%
%ADD20C,0.00100*%
%ADD86C,0.03937*%
%ADD90C,0.01772*%
%ADD91C,0.01181*%
%ADD93C,0.12598*%
%ADD94C,0.13287*%
%ADD98C,0.01968*%
%ADD99C,0.01772*%
%ADD102C,0.02362*%
G36*
X545972Y392535D02*
X547338Y392169D01*
X548645Y391628D01*
X549870Y390920D01*
X550993Y390059D01*
X551993Y389059D01*
X552854Y387937D01*
X553561Y386712D01*
X554103Y385405D01*
X554469Y384038D01*
X554654Y382636D01*
Y381928D01*
Y310559D01*
X548692Y304598D01*
X548194Y304727D01*
X548133Y304831D01*
X548219Y305709D01*
X548098Y306943D01*
X547738Y308131D01*
X547153Y309225D01*
X546365Y310184D01*
X545406Y310972D01*
X544312Y311557D01*
X543125Y311917D01*
X541890Y312038D01*
X540655Y311917D01*
X539467Y311557D01*
X538373Y310972D01*
X537414Y310184D01*
X536627Y309225D01*
X536042Y308131D01*
X535682Y306943D01*
X535560Y305709D01*
X535646Y304831D01*
X535234Y304331D01*
X513059D01*
X512876Y304569D01*
X512218Y305074D01*
X511452Y305391D01*
X510630Y305500D01*
X509808Y305391D01*
X509042Y305074D01*
X508486Y305277D01*
X508483Y305281D01*
X508417Y305325D01*
X508365Y305384D01*
X508224Y305454D01*
X508093Y305542D01*
X508015Y305557D01*
X507943Y305592D01*
X507786Y305603D01*
X507632Y305633D01*
X479969D01*
X479652Y306020D01*
X479668Y306102D01*
X479500Y306947D01*
X479022Y307663D01*
X478305Y308142D01*
X477461Y308310D01*
X476616Y308142D01*
X475900Y307663D01*
X475421Y306947D01*
X475253Y306102D01*
X475269Y306020D01*
X474952Y305633D01*
X468257D01*
X467939Y306020D01*
X467956Y306102D01*
X467788Y306947D01*
X467309Y307663D01*
X466593Y308142D01*
X465748Y308310D01*
X464903Y308142D01*
X464187Y307663D01*
X463708Y306947D01*
X463540Y306102D01*
X463557Y306020D01*
X463239Y305633D01*
X460087D01*
X459770Y306020D01*
X459787Y306102D01*
X459619Y306947D01*
X459140Y307663D01*
X458424Y308142D01*
X457579Y308310D01*
X456734Y308142D01*
X456018Y307663D01*
X455539Y306947D01*
X455371Y306102D01*
X455387Y306020D01*
X455070Y305633D01*
X426927D01*
X426642Y305970D01*
X426793Y306436D01*
X426860Y306449D01*
X427602Y306945D01*
X428098Y307687D01*
X428272Y308563D01*
X428098Y309439D01*
X427602Y310181D01*
X426860Y310677D01*
X425984Y310851D01*
X425109Y310677D01*
X424366Y310181D01*
X423870Y309439D01*
X423845Y309309D01*
X423366Y309164D01*
X384040Y348489D01*
X383650Y348750D01*
X383189Y348842D01*
X383189Y348842D01*
X280906D01*
X280445Y348750D01*
X280054Y348489D01*
X279793Y348099D01*
X279701Y347638D01*
Y345614D01*
X279793Y345153D01*
X280054Y344762D01*
X280445Y344501D01*
X280639Y344421D01*
X280396Y343834D01*
X280288Y343012D01*
X280396Y342190D01*
X280639Y341603D01*
X280445Y341522D01*
X280054Y341261D01*
X279793Y340870D01*
X279701Y340409D01*
Y304523D01*
X279720Y304430D01*
X279716Y304334D01*
X279765Y304201D01*
X279793Y304062D01*
X279846Y303983D01*
X279879Y303894D01*
X279975Y303789D01*
X280054Y303671D01*
X280133Y303619D01*
X280198Y303549D01*
X280244Y303515D01*
X280177Y302946D01*
X279930Y302843D01*
X278424Y301921D01*
X277081Y300774D01*
X275934Y299431D01*
X275011Y297925D01*
X274335Y296293D01*
X273923Y294576D01*
X273784Y292815D01*
X273923Y291054D01*
X274335Y289337D01*
X275011Y287705D01*
X275934Y286199D01*
X277081Y284856D01*
X278424Y283709D01*
X279930Y282786D01*
X280177Y282684D01*
X280244Y282115D01*
X280198Y282081D01*
X280133Y282011D01*
X280054Y281959D01*
X279975Y281840D01*
X279879Y281736D01*
X279846Y281647D01*
X279793Y281568D01*
X279765Y281429D01*
X279716Y281295D01*
X279720Y281200D01*
X279701Y281107D01*
Y213417D01*
X279793Y212956D01*
X280054Y212565D01*
X280445Y212304D01*
X280906Y212213D01*
X284425D01*
X284425Y212213D01*
X284886Y212304D01*
X285276Y212565D01*
X285276Y212565D01*
X285337Y212626D01*
X285690Y212772D01*
X286072D01*
X286426Y212626D01*
X286696Y212356D01*
X286842Y212002D01*
Y211620D01*
X286696Y211267D01*
X286426Y210996D01*
X286072Y210850D01*
X285690D01*
X285337Y210996D01*
X285276Y211057D01*
X284886Y211318D01*
X284425Y211410D01*
X284425Y211410D01*
X280906D01*
X280445Y211318D01*
X280054Y211057D01*
X279793Y210666D01*
X279701Y210206D01*
Y198422D01*
X279704Y198407D01*
X279387Y198021D01*
X226658D01*
X226391Y198521D01*
X226479Y198653D01*
X226586Y199191D01*
X226479Y199728D01*
X226175Y200184D01*
X225719Y200489D01*
X225181Y200596D01*
X224643Y200489D01*
X224188Y200184D01*
X223883Y199728D01*
X223776Y199191D01*
X223883Y198653D01*
X223972Y198521D01*
X223704Y198021D01*
X200055D01*
X199517Y197914D01*
X199062Y197609D01*
X186753Y185301D01*
X186449Y184845D01*
X186424Y184722D01*
X186300Y184537D01*
X186194Y183999D01*
Y108394D01*
X185721Y108284D01*
X185694Y108287D01*
X185290Y108813D01*
X184755Y109223D01*
X184133Y109481D01*
X183465Y109569D01*
X182797Y109481D01*
X182174Y109223D01*
X181639Y108813D01*
X181229Y108279D01*
X180971Y107656D01*
X180883Y106988D01*
X180971Y106320D01*
X181229Y105698D01*
X181639Y105163D01*
X182174Y104753D01*
X182797Y104495D01*
X183465Y104407D01*
X184133Y104495D01*
X184755Y104753D01*
X185290Y105163D01*
X185694Y105689D01*
X185721Y105693D01*
X186194Y105583D01*
Y76476D01*
X186300Y75939D01*
X186605Y75483D01*
X187061Y75178D01*
X187598Y75071D01*
X211857D01*
X212394Y75178D01*
X212850Y75483D01*
X223309Y85942D01*
X223851Y85777D01*
X223882Y85621D01*
X224187Y85165D01*
X224643Y84861D01*
X225180Y84754D01*
X225718Y84861D01*
X226174Y85165D01*
X226478Y85621D01*
X226585Y86159D01*
X226478Y86696D01*
X226390Y86829D01*
X226657Y87329D01*
X266266D01*
Y79761D01*
X266373Y79224D01*
X266677Y78768D01*
X280527Y64919D01*
X280362Y64376D01*
X280054Y64170D01*
X279793Y63779D01*
X279701Y63319D01*
Y47810D01*
X279724Y47694D01*
X279724Y47575D01*
X279770Y47466D01*
X279793Y47350D01*
X279859Y47251D01*
X279904Y47141D01*
X279988Y47058D01*
X280019Y47012D01*
X279555Y46317D01*
X279387Y45472D01*
X279555Y44628D01*
X280019Y43933D01*
X279988Y43887D01*
X279904Y43804D01*
X279859Y43694D01*
X279793Y43595D01*
X279770Y43479D01*
X279724Y43369D01*
Y43251D01*
X279701Y43134D01*
Y41465D01*
X279300Y41075D01*
X279221Y41051D01*
X279134Y41068D01*
X278635Y40969D01*
X278211Y40686D01*
X277929Y40263D01*
X277829Y39764D01*
X277929Y39265D01*
X278211Y38841D01*
X278635Y38559D01*
X279134Y38459D01*
X279633Y38559D01*
X280056Y38841D01*
X280339Y39265D01*
X280401Y39575D01*
X280808Y39898D01*
X280914Y39937D01*
X281056Y39894D01*
X281115Y39888D01*
X281171Y39865D01*
X281347Y39865D01*
X281523Y39848D01*
X281581Y39865D01*
X281640D01*
X281804Y39933D01*
X281973Y39984D01*
X282019Y40022D01*
X282074Y40045D01*
X282200Y40170D01*
X282336Y40282D01*
X282365Y40335D01*
X282407Y40377D01*
X282609Y40680D01*
X283510Y41581D01*
X283771Y41972D01*
X283775Y41981D01*
X284046Y42252D01*
X284399Y42398D01*
X284781D01*
X285134Y42252D01*
X285405Y41981D01*
X285551Y41628D01*
Y41246D01*
X285405Y40892D01*
X285002Y40490D01*
X284916Y40433D01*
X284916Y40433D01*
X284916Y40433D01*
X284420Y39937D01*
X284159Y39546D01*
X284067Y39085D01*
X284067Y39085D01*
Y37525D01*
X284090Y37409D01*
Y37290D01*
X284136Y37181D01*
X284159Y37064D01*
X284225Y36966D01*
X284270Y36856D01*
X284354Y36772D01*
X284420Y36674D01*
X284519Y36608D01*
X284603Y36524D01*
X284700Y36459D01*
X284842Y35886D01*
X284824Y35809D01*
X284822Y35804D01*
X284736Y35676D01*
X284629Y35138D01*
X284736Y34600D01*
X285041Y34145D01*
X285497Y33840D01*
X285725Y33795D01*
X286047Y33667D01*
X286132Y33243D01*
X286093Y33001D01*
X286097Y32905D01*
X286078Y32811D01*
X286106Y32673D01*
X286111Y32531D01*
X286151Y32444D01*
X286170Y32351D01*
X286248Y32233D01*
X286308Y32105D01*
X286378Y32039D01*
X286431Y31960D01*
X287402Y30989D01*
Y28941D01*
X286902Y28539D01*
X286747Y28570D01*
X226673D01*
X226136Y28463D01*
X225680Y28159D01*
X225375Y27703D01*
X225268Y27165D01*
X225375Y26628D01*
X225680Y26172D01*
X226136Y25867D01*
X226673Y25760D01*
X245526D01*
X245626Y25260D01*
X245166Y25070D01*
X244632Y24660D01*
X244221Y24125D01*
X243964Y23503D01*
X243876Y22835D01*
X243964Y22167D01*
X244221Y21544D01*
X244632Y21010D01*
X245166Y20599D01*
X245789Y20342D01*
X246457Y20254D01*
X247125Y20342D01*
X247747Y20599D01*
X248282Y21010D01*
X248692Y21544D01*
X248950Y22167D01*
X249038Y22835D01*
X248950Y23503D01*
X248692Y24125D01*
X248282Y24660D01*
X247747Y25070D01*
X247288Y25260D01*
X247387Y25760D01*
X286165D01*
X287402Y24523D01*
Y1020D01*
X11811Y1020D01*
X11104D01*
X9701Y1204D01*
X8335Y1570D01*
X7028Y2112D01*
X5803Y2819D01*
X4680Y3680D01*
X3680Y4680D01*
X2819Y5803D01*
X2112Y7028D01*
X1570Y8335D01*
X1204Y9701D01*
X1020Y11104D01*
X1020Y11811D01*
X1020Y99508D01*
X942Y99898D01*
X721Y100229D01*
X390Y100450D01*
X-0Y100527D01*
Y163253D01*
X108Y163325D01*
X412Y163781D01*
X519Y164319D01*
X412Y164857D01*
X108Y165312D01*
X-0Y165384D01*
Y194381D01*
X500Y194680D01*
X1181Y194544D01*
X2026Y194712D01*
X2742Y195191D01*
X3221Y195907D01*
X3389Y196752D01*
X3221Y197597D01*
X2742Y198313D01*
X2026Y198792D01*
X1181Y198960D01*
X500Y198824D01*
X-0Y199123D01*
Y205981D01*
X746Y206130D01*
X1463Y206608D01*
X1941Y207324D01*
X2109Y208169D01*
X1941Y209014D01*
X1463Y209730D01*
X746Y210209D01*
X-0Y210357D01*
Y293173D01*
X390Y293251D01*
X721Y293472D01*
X942Y293803D01*
X1020Y294193D01*
Y381890D01*
X1020Y382597D01*
X1204Y384000D01*
X1570Y385366D01*
X2112Y386673D01*
X2819Y387898D01*
X3680Y389020D01*
X4681Y390021D01*
X5803Y390882D01*
X7028Y391589D01*
X8335Y392130D01*
X9701Y392497D01*
X11104Y392681D01*
X11811Y392681D01*
X11811Y392681D01*
X11811Y392681D01*
X543862Y392720D01*
X544569D01*
X545972Y392535D01*
D02*
G37*
G36*
X426398Y304429D02*
X456190D01*
X456352Y304267D01*
X457148Y303937D01*
X458009D01*
X458805Y304267D01*
X458968Y304429D01*
X464359D01*
X464522Y304267D01*
X465317Y303937D01*
X466179D01*
X466975Y304267D01*
X467137Y304429D01*
X476072D01*
X476234Y304267D01*
X477030Y303937D01*
X477891D01*
X478687Y304267D01*
X478850Y304429D01*
X507632D01*
X507921Y303929D01*
X507695Y303538D01*
X507480Y302737D01*
Y301908D01*
X507695Y301107D01*
X508110Y300389D01*
X508696Y299802D01*
X508945Y299659D01*
Y299081D01*
X508696Y298938D01*
X508110Y298351D01*
X507695Y297633D01*
X507480Y296832D01*
Y296003D01*
X507695Y295202D01*
X508110Y294483D01*
X508696Y293897D01*
X509414Y293482D01*
X510215Y293268D01*
X511045D01*
X511846Y293482D01*
X512564Y293897D01*
X513150Y294483D01*
X513565Y295202D01*
X513589Y295291D01*
X514089Y295226D01*
Y228543D01*
X405405D01*
X405182Y229081D01*
X404573Y229690D01*
X403777Y230020D01*
X402916D01*
X402120Y229690D01*
X401511Y229081D01*
X401288Y228543D01*
X381624D01*
X381433Y229005D01*
X381516Y229089D01*
X381846Y229884D01*
Y230746D01*
X381516Y231542D01*
X380907Y232151D01*
X380111Y232481D01*
X379250D01*
X378454Y232151D01*
X377845Y231542D01*
X377515Y230746D01*
Y229884D01*
X377845Y229089D01*
X377928Y229005D01*
X377737Y228543D01*
X371801D01*
X371537Y229043D01*
X371788Y229649D01*
Y230511D01*
X371459Y231307D01*
X370849Y231916D01*
X370054Y232246D01*
X369192D01*
X368396Y231916D01*
X367787Y231307D01*
X367457Y230511D01*
Y229649D01*
X367668Y229142D01*
X367346Y228642D01*
X342520D01*
X342520Y176575D01*
X348414D01*
X348773Y176216D01*
X349569Y175886D01*
X350431D01*
X351227Y176216D01*
X351476Y176465D01*
X351726Y176216D01*
X352522Y175886D01*
X353383D01*
X354179Y176216D01*
X354429Y176465D01*
X354679Y176216D01*
X355475Y175886D01*
X356336D01*
X357132Y176216D01*
X357382Y176465D01*
X357632Y176216D01*
X358428Y175886D01*
X359289D01*
X360085Y176216D01*
X360335Y176465D01*
X360584Y176216D01*
X361380Y175886D01*
X362242D01*
X363038Y176216D01*
X363397Y176575D01*
X369094D01*
Y168865D01*
X368852Y168765D01*
X368243Y168156D01*
X367913Y167360D01*
Y166498D01*
X368243Y165703D01*
X368852Y165093D01*
X369094Y164993D01*
Y145637D01*
X368852Y145536D01*
X368243Y144927D01*
X367913Y144132D01*
Y143701D01*
X342520D01*
X342520Y91634D01*
X348414D01*
X348773Y91274D01*
X349569Y90945D01*
X350431D01*
X351227Y91274D01*
X351476Y91524D01*
X351726Y91274D01*
X352522Y90945D01*
X353383D01*
X354179Y91274D01*
X354429Y91524D01*
X354679Y91274D01*
X355475Y90945D01*
X356336D01*
X357132Y91274D01*
X357382Y91524D01*
X357632Y91274D01*
X358428Y90945D01*
X359289D01*
X360085Y91274D01*
X360335Y91524D01*
X360584Y91274D01*
X361380Y90945D01*
X362242D01*
X363038Y91274D01*
X363397Y91634D01*
X369094D01*
Y60567D01*
X368360Y60263D01*
X367751Y59654D01*
X367421Y58858D01*
Y57996D01*
X367751Y57200D01*
X368360Y56591D01*
X369094Y56287D01*
Y50551D01*
X368595Y50360D01*
X368120Y50834D01*
X367324Y51164D01*
X366463D01*
X365667Y50834D01*
X365058Y50225D01*
X364728Y49429D01*
Y48568D01*
X365058Y47772D01*
X365667Y47163D01*
X366463Y46833D01*
X367324D01*
X368120Y47163D01*
X368595Y47637D01*
X369094Y47446D01*
Y31780D01*
X368738Y31542D01*
X367877D01*
X367081Y31212D01*
X366472Y30603D01*
X366142Y29807D01*
Y28946D01*
X366472Y28150D01*
X367081Y27541D01*
X367877Y27211D01*
X368738D01*
X369094Y26973D01*
Y23449D01*
X368679Y23171D01*
X368541Y23228D01*
X367680D01*
X366884Y22899D01*
X366274Y22289D01*
X365945Y21494D01*
Y20632D01*
X365995Y20512D01*
X365717Y20096D01*
X300032Y20062D01*
X287282Y32811D01*
X287380Y33421D01*
X287870Y33911D01*
X288200Y34707D01*
Y35569D01*
X287870Y36365D01*
X287261Y36974D01*
X286465Y37303D01*
X285604D01*
X285272Y37525D01*
Y39085D01*
X285768Y39581D01*
X285817Y39601D01*
X286426Y40210D01*
X286755Y41006D01*
Y41868D01*
X286426Y42663D01*
X285817Y43273D01*
X285021Y43602D01*
X284159D01*
X283363Y43273D01*
X282754Y42663D01*
X282659Y42433D01*
X281674Y41448D01*
X281405Y41046D01*
X280906Y41198D01*
Y43134D01*
X281164Y43307D01*
X282025D01*
X282821Y43637D01*
X283430Y44246D01*
X283760Y45042D01*
Y45903D01*
X283430Y46699D01*
X282821Y47308D01*
X282025Y47638D01*
X281164D01*
X280906Y47810D01*
Y63319D01*
X281367Y63510D01*
X295241Y49637D01*
Y42293D01*
X294980Y41664D01*
Y40842D01*
X295295Y40082D01*
X295876Y39501D01*
X296636Y39186D01*
X297458D01*
X298218Y39501D01*
X298799Y40082D01*
X299114Y40842D01*
Y41664D01*
X298853Y42293D01*
Y50385D01*
X298716Y51076D01*
X298324Y51662D01*
X280906Y69081D01*
Y69690D01*
X281310Y69984D01*
X282227Y69685D01*
X284094Y69390D01*
X285984D01*
X287851Y69685D01*
X289649Y70270D01*
X291333Y71128D01*
X292862Y72238D01*
X294198Y73575D01*
X295309Y75104D01*
X296167Y76788D01*
X296752Y78586D01*
X297047Y80453D01*
Y82343D01*
X296752Y84210D01*
X296167Y86007D01*
X295309Y87691D01*
X294198Y89220D01*
X292862Y90557D01*
X291333Y91668D01*
X289649Y92526D01*
X287851Y93110D01*
X285984Y93405D01*
X284094D01*
X282227Y93110D01*
X281310Y92812D01*
X280906Y93106D01*
Y99414D01*
X285726Y104235D01*
X286118Y104821D01*
X286255Y105512D01*
Y117079D01*
X293961Y124784D01*
X295023D01*
X295652Y124524D01*
X296474D01*
X297234Y124838D01*
X297815Y125420D01*
X298130Y126179D01*
Y127002D01*
X297815Y127761D01*
X297234Y128343D01*
X296723Y128554D01*
X296765Y128656D01*
Y129478D01*
X296451Y130238D01*
X295869Y130819D01*
X295110Y131134D01*
X294287D01*
X293528Y130819D01*
X292946Y130238D01*
X292632Y129478D01*
Y128656D01*
X292676Y128549D01*
X292521Y128259D01*
X291935Y127868D01*
X283172Y119104D01*
X282780Y118518D01*
X282643Y117827D01*
Y111093D01*
X282423Y110925D01*
X281750D01*
X281405Y110833D01*
X280906Y111185D01*
Y194809D01*
X285706D01*
X286398Y194947D01*
X286984Y195338D01*
X300869Y209223D01*
X301498Y209484D01*
X302079Y210065D01*
X302394Y210825D01*
Y211647D01*
X302079Y212407D01*
X301498Y212988D01*
X300984Y213201D01*
Y213699D01*
X300670Y214458D01*
X300088Y215040D01*
X299328Y215354D01*
X298506D01*
X297746Y215040D01*
X297165Y214458D01*
X296850Y213699D01*
Y212876D01*
X297165Y212117D01*
X297555Y211726D01*
X297623Y211087D01*
X284958Y198422D01*
X280906D01*
Y210206D01*
X284425D01*
X284655Y209976D01*
X285451Y209646D01*
X286312D01*
X287108Y209976D01*
X287717Y210585D01*
X288047Y211381D01*
Y212242D01*
X287717Y213038D01*
X287108Y213647D01*
X286312Y213977D01*
X285451D01*
X284655Y213647D01*
X284425Y213417D01*
X280906D01*
Y281107D01*
X281310Y281401D01*
X282227Y281103D01*
X284094Y280807D01*
X285984D01*
X287851Y281103D01*
X289649Y281687D01*
X291333Y282545D01*
X292862Y283656D01*
X294198Y284992D01*
X295309Y286522D01*
X296167Y288206D01*
X296752Y290003D01*
X297047Y291870D01*
Y293760D01*
X296752Y295627D01*
X296167Y297424D01*
X295309Y299109D01*
X294198Y300638D01*
X292862Y301974D01*
X291333Y303085D01*
X289649Y303943D01*
X287851Y304527D01*
X285984Y304823D01*
X284094D01*
X282227Y304527D01*
X281310Y304229D01*
X280906Y304523D01*
Y340409D01*
X281405Y340617D01*
X281531Y340492D01*
X282249Y340077D01*
X283050Y339862D01*
X283879D01*
X284680Y340077D01*
X285399Y340492D01*
X285985Y341078D01*
X286400Y341796D01*
X286614Y342597D01*
Y343426D01*
X286400Y344228D01*
X285985Y344946D01*
X285399Y345532D01*
X284680Y345947D01*
X283879Y346161D01*
X283050D01*
X282249Y345947D01*
X281531Y345532D01*
X281405Y345407D01*
X280906Y345614D01*
Y347638D01*
X383189D01*
X426398Y304429D01*
D02*
G37*
G36*
X279704Y194824D02*
X279701Y194809D01*
Y111185D01*
X279722Y111082D01*
X279719Y110978D01*
X279767Y110854D01*
X279793Y110724D01*
X279851Y110637D01*
X279889Y110540D01*
X279980Y110444D01*
X280054Y110333D01*
X279988Y109835D01*
X279851Y109657D01*
X279593Y109034D01*
X279505Y108366D01*
X279593Y107698D01*
X279851Y107076D01*
X280261Y106541D01*
X280796Y106131D01*
X281419Y105873D01*
X282035Y105792D01*
X282136Y105641D01*
X282253Y105303D01*
X267089Y90139D01*
X226652D01*
X226384Y90639D01*
X226478Y90779D01*
X226585Y91317D01*
X226478Y91854D01*
X226174Y92310D01*
X225718Y92615D01*
X225180Y92721D01*
X224643Y92615D01*
X224187Y92310D01*
X223882Y91854D01*
X223775Y91317D01*
X223882Y90779D01*
X223986Y90623D01*
X223756Y90067D01*
X223576Y90032D01*
X223120Y89727D01*
X211275Y77881D01*
X189003D01*
Y183548D01*
X189044Y183610D01*
X189047Y183621D01*
X200637Y195211D01*
X223710D01*
X223977Y194711D01*
X223883Y194571D01*
X223776Y194033D01*
X223883Y193495D01*
X224188Y193039D01*
X224643Y192735D01*
X225181Y192628D01*
X225719Y192735D01*
X226175Y193039D01*
X226479Y193495D01*
X226586Y194033D01*
X226479Y194571D01*
X226385Y194711D01*
X226653Y195211D01*
X279387D01*
X279704Y194824D01*
D02*
G37*
%LPC*%
G36*
X191240Y389299D02*
X190418Y389191D01*
X189652Y388873D01*
X188994Y388368D01*
X188489Y387710D01*
X188172Y386944D01*
X188063Y386122D01*
X188172Y385300D01*
X188489Y384534D01*
X188994Y383876D01*
X189652Y383371D01*
X190418Y383053D01*
X191240Y382945D01*
X192062Y383053D01*
X192829Y383371D01*
X193486Y383876D01*
X193991Y384534D01*
X194309Y385300D01*
X194417Y386122D01*
X194309Y386944D01*
X193991Y387710D01*
X193486Y388368D01*
X192829Y388873D01*
X192062Y389191D01*
X191240Y389299D01*
D02*
G37*
G36*
X461417Y390987D02*
X460572Y390819D01*
X459856Y390341D01*
X459378Y389624D01*
X459210Y388779D01*
X459378Y387935D01*
X459824Y387267D01*
X459856Y387218D01*
X459770Y386675D01*
X459364Y386404D01*
X458885Y385687D01*
X458717Y384842D01*
X458885Y383998D01*
X459364Y383281D01*
X460080Y382803D01*
X460925Y382635D01*
X461770Y382803D01*
X462486Y383281D01*
X462965Y383998D01*
X463133Y384842D01*
X462965Y385687D01*
X462519Y386355D01*
X462486Y386404D01*
X462573Y386947D01*
X462978Y387218D01*
X463457Y387935D01*
X463625Y388779D01*
X463457Y389624D01*
X462978Y390341D01*
X462262Y390819D01*
X461417Y390987D01*
D02*
G37*
G36*
X208268Y383212D02*
X207423Y383044D01*
X206792Y382622D01*
X206160Y383044D01*
X205315Y383212D01*
X204470Y383044D01*
X203754Y382565D01*
X203275Y381849D01*
X203107Y381004D01*
X203275Y380159D01*
X203754Y379443D01*
X204470Y378964D01*
X205315Y378796D01*
X206160Y378964D01*
X206792Y379386D01*
X207423Y378964D01*
X208268Y378796D01*
X209113Y378964D01*
X209829Y379443D01*
X210308Y380159D01*
X210476Y381004D01*
X210308Y381849D01*
X209829Y382565D01*
X209113Y383044D01*
X208268Y383212D01*
D02*
G37*
G36*
X486221Y382507D02*
X485398Y382399D01*
X484632Y382082D01*
X483974Y381577D01*
X483469Y380919D01*
X483152Y380153D01*
X483044Y379331D01*
X483152Y378508D01*
X483469Y377742D01*
X483974Y377084D01*
X484515Y376669D01*
X484559Y376483D01*
Y376273D01*
X484515Y376087D01*
X483974Y375672D01*
X483469Y375014D01*
X483152Y374247D01*
X483044Y373425D01*
X483152Y372603D01*
X483469Y371837D01*
X483974Y371179D01*
X484632Y370674D01*
X485398Y370357D01*
X486221Y370248D01*
X487043Y370357D01*
X487809Y370674D01*
X488467Y371179D01*
X488972Y371837D01*
X489289Y372603D01*
X489397Y373425D01*
X489289Y374247D01*
X488972Y375014D01*
X488467Y375672D01*
X487926Y376087D01*
X487882Y376273D01*
Y376483D01*
X487926Y376669D01*
X488467Y377084D01*
X488972Y377742D01*
X489289Y378508D01*
X489397Y379331D01*
X489289Y380153D01*
X488972Y380919D01*
X488467Y381577D01*
X487809Y382082D01*
X487043Y382399D01*
X486221Y382507D01*
D02*
G37*
G36*
X541890Y380345D02*
X540655Y380224D01*
X539467Y379864D01*
X538373Y379279D01*
X537414Y378491D01*
X536627Y377532D01*
X536042Y376438D01*
X535682Y375251D01*
X535560Y374016D01*
X535682Y372781D01*
X536042Y371593D01*
X536627Y370499D01*
X537414Y369540D01*
X538373Y368753D01*
X539467Y368168D01*
X540655Y367808D01*
X541890Y367686D01*
X543125Y367808D01*
X544312Y368168D01*
X545406Y368753D01*
X546365Y369540D01*
X547153Y370499D01*
X547738Y371593D01*
X548098Y372781D01*
X548219Y374016D01*
X548098Y375251D01*
X547738Y376438D01*
X547153Y377532D01*
X546365Y378491D01*
X545406Y379279D01*
X544312Y379864D01*
X543125Y380224D01*
X541890Y380345D01*
D02*
G37*
G36*
X469291Y368546D02*
X468446Y368378D01*
X467730Y367900D01*
X467252Y367183D01*
X467084Y366339D01*
X467252Y365494D01*
X467730Y364777D01*
X468443Y364301D01*
X468314Y363654D01*
X468482Y362810D01*
X468961Y362093D01*
X469677Y361615D01*
X470522Y361447D01*
X471367Y361615D01*
X472083Y362093D01*
X472562Y362810D01*
X472730Y363654D01*
X472562Y364499D01*
X472083Y365216D01*
X471371Y365692D01*
X471499Y366339D01*
X471331Y367183D01*
X470853Y367900D01*
X470136Y368378D01*
X469291Y368546D01*
D02*
G37*
G36*
X437106Y362444D02*
X436261Y362276D01*
X435545Y361797D01*
X435067Y361081D01*
X434899Y360236D01*
X435067Y359391D01*
X435545Y358675D01*
X436261Y358196D01*
X437106Y358029D01*
X437951Y358196D01*
X438667Y358675D01*
X439146Y359391D01*
X439314Y360236D01*
X439146Y361081D01*
X438667Y361797D01*
X437951Y362276D01*
X437106Y362444D01*
D02*
G37*
G36*
X265945Y364314D02*
X265100Y364146D01*
X264384Y363667D01*
X263905Y362951D01*
X263737Y362106D01*
X263905Y361261D01*
X264327Y360630D01*
X263905Y359998D01*
X263737Y359154D01*
X263905Y358309D01*
X264384Y357592D01*
X265100Y357114D01*
X265945Y356946D01*
X266790Y357114D01*
X267506Y357592D01*
X267985Y358309D01*
X268153Y359154D01*
X267985Y359998D01*
X267563Y360630D01*
X267985Y361261D01*
X268153Y362106D01*
X267985Y362951D01*
X267506Y363667D01*
X266790Y364146D01*
X265945Y364314D01*
D02*
G37*
G36*
X249114D02*
X248269Y364146D01*
X247553Y363667D01*
X247075Y362951D01*
X246906Y362106D01*
X247075Y361261D01*
X247496Y360630D01*
X247075Y359998D01*
X246906Y359154D01*
X247075Y358309D01*
X247553Y357592D01*
X248269Y357114D01*
X249114Y356946D01*
X249959Y357114D01*
X250675Y357592D01*
X251154Y358309D01*
X251322Y359154D01*
X251154Y359998D01*
X250732Y360630D01*
X251154Y361261D01*
X251322Y362106D01*
X251154Y362951D01*
X250675Y363667D01*
X249959Y364146D01*
X249114Y364314D01*
D02*
G37*
G36*
X449596Y357686D02*
X448751Y357518D01*
X448035Y357039D01*
X447556Y356323D01*
X447410Y355590D01*
X446953Y355681D01*
X446108Y355513D01*
X445392Y355034D01*
X444913Y354318D01*
X444745Y353473D01*
X444913Y352628D01*
X445392Y351912D01*
X446108Y351434D01*
X446953Y351266D01*
X447798Y351434D01*
X448514Y351912D01*
X448992Y352628D01*
X449138Y353361D01*
X449596Y353270D01*
X450441Y353438D01*
X451157Y353917D01*
X451636Y354633D01*
X451804Y355478D01*
X451636Y356323D01*
X451157Y357039D01*
X450441Y357518D01*
X449596Y357686D01*
D02*
G37*
G36*
X541890Y362038D02*
X540655Y361917D01*
X539467Y361557D01*
X538373Y360972D01*
X537414Y360184D01*
X536627Y359225D01*
X536042Y358131D01*
X535682Y356943D01*
X535560Y355709D01*
X535682Y354474D01*
X536042Y353286D01*
X536627Y352192D01*
X537414Y351233D01*
X538373Y350446D01*
X539467Y349861D01*
X540655Y349501D01*
X541890Y349379D01*
X543125Y349501D01*
X544312Y349861D01*
X545406Y350446D01*
X546365Y351233D01*
X547153Y352192D01*
X547738Y353286D01*
X548098Y354474D01*
X548219Y355709D01*
X548098Y356943D01*
X547738Y358131D01*
X547153Y359225D01*
X546365Y360184D01*
X545406Y360972D01*
X544312Y361557D01*
X543125Y361917D01*
X541890Y362038D01*
D02*
G37*
G36*
X468799Y354881D02*
X467954Y354713D01*
X467238Y354234D01*
X466759Y353518D01*
X466591Y352673D01*
X466759Y351828D01*
X467022Y351435D01*
X466759Y351042D01*
X466591Y350197D01*
X466759Y349352D01*
X467238Y348636D01*
X467954Y348157D01*
X468799Y347989D01*
X469644Y348157D01*
X470360Y348636D01*
X470839Y349352D01*
X471007Y350197D01*
X470839Y351042D01*
X470576Y351435D01*
X470839Y351828D01*
X471007Y352673D01*
X470839Y353518D01*
X470360Y354234D01*
X469644Y354713D01*
X468799Y354881D01*
D02*
G37*
G36*
X209842Y363714D02*
X61772D01*
X61119Y363584D01*
X60565Y363214D01*
X43361Y346009D01*
X42991Y345456D01*
X42861Y344803D01*
X42991Y344150D01*
X43361Y343597D01*
X43914Y343227D01*
X44567Y343097D01*
X45220Y343227D01*
X45773Y343597D01*
X62478Y360302D01*
X209842D01*
X210495Y360432D01*
X211049Y360802D01*
X211419Y361355D01*
X211548Y362008D01*
X211419Y362661D01*
X211049Y363214D01*
X210495Y363584D01*
X209842Y363714D01*
D02*
G37*
G36*
X250902Y343827D02*
X250079Y343718D01*
X249313Y343401D01*
X248655Y342896D01*
X248226D01*
X247568Y343401D01*
X246802Y343718D01*
X245980Y343827D01*
X245158Y343718D01*
X244391Y343401D01*
X243734Y342896D01*
X243229Y342238D01*
X242911Y341472D01*
X242803Y340650D01*
X242911Y339828D01*
X243229Y339061D01*
X243636Y338530D01*
X243696Y338189D01*
X243636Y337848D01*
X243229Y337317D01*
X242911Y336551D01*
X242803Y335729D01*
X242911Y334906D01*
X243229Y334140D01*
X243734Y333482D01*
X244391Y332977D01*
X245158Y332660D01*
X245980Y332552D01*
X246802Y332660D01*
X247568Y332977D01*
X248099Y333385D01*
X248655Y333482D01*
X249313Y332977D01*
X250079Y332660D01*
X250902Y332552D01*
X251724Y332660D01*
X252490Y332977D01*
X253148Y333482D01*
X253653Y334140D01*
X253970Y334906D01*
X254079Y335728D01*
X253970Y336551D01*
X253653Y337317D01*
X253148Y337975D01*
Y338404D01*
X253653Y339061D01*
X253970Y339828D01*
X254079Y340650D01*
X253970Y341472D01*
X253653Y342238D01*
X253148Y342896D01*
X252490Y343401D01*
X251724Y343718D01*
X250902Y343827D01*
D02*
G37*
G36*
X209252Y347287D02*
X208407Y347118D01*
X207691Y346640D01*
X207212Y345924D01*
X207044Y345079D01*
X207212Y344234D01*
X207691Y343518D01*
X208407Y343039D01*
X209252Y342871D01*
X210097Y343039D01*
X210813Y343518D01*
X211292Y344234D01*
X211460Y345079D01*
X211292Y345924D01*
X210813Y346640D01*
X210097Y347118D01*
X209252Y347287D01*
D02*
G37*
G36*
X417520Y347153D02*
X416698Y347045D01*
X415931Y346728D01*
X415273Y346223D01*
X414769Y345565D01*
X414451Y344799D01*
X414343Y343976D01*
X414451Y343154D01*
X414769Y342388D01*
X415273Y341730D01*
X415931Y341225D01*
X416698Y340908D01*
X417520Y340800D01*
X418342Y340908D01*
X419108Y341225D01*
X419766Y341730D01*
X420271Y342388D01*
X420588Y343154D01*
X420696Y343976D01*
X420588Y344799D01*
X420271Y345565D01*
X419766Y346223D01*
X419108Y346728D01*
X418342Y347045D01*
X417520Y347153D01*
D02*
G37*
G36*
X408740Y347114D02*
X407918Y347006D01*
X407152Y346688D01*
X406494Y346183D01*
X405989Y345525D01*
X405672Y344759D01*
X405563Y343937D01*
X405672Y343115D01*
X405989Y342349D01*
X406494Y341691D01*
X407152Y341186D01*
X407918Y340868D01*
X408740Y340760D01*
X409562Y340868D01*
X410328Y341186D01*
X410987Y341691D01*
X411491Y342349D01*
X411809Y343115D01*
X411917Y343937D01*
X411809Y344759D01*
X411491Y345525D01*
X410987Y346183D01*
X410328Y346688D01*
X409562Y347006D01*
X408740Y347114D01*
D02*
G37*
G36*
X400748D02*
X399926Y347006D01*
X399160Y346688D01*
X398502Y346183D01*
X397997Y345525D01*
X397679Y344759D01*
X397571Y343937D01*
X397679Y343115D01*
X397997Y342349D01*
X398502Y341691D01*
X399160Y341186D01*
X399926Y340868D01*
X400748Y340760D01*
X401570Y340868D01*
X402336Y341186D01*
X402994Y341691D01*
X403499Y342349D01*
X403817Y343115D01*
X403925Y343937D01*
X403817Y344759D01*
X403499Y345525D01*
X402994Y346183D01*
X402336Y346688D01*
X401570Y347006D01*
X400748Y347114D01*
D02*
G37*
G36*
X447342Y344531D02*
X446498Y344362D01*
X445781Y343884D01*
X445303Y343168D01*
X445135Y342323D01*
X445303Y341478D01*
X445781Y340762D01*
X446498Y340283D01*
X447342Y340115D01*
X448187Y340283D01*
X448904Y340762D01*
X449382Y341478D01*
X449550Y342323D01*
X449382Y343168D01*
X448904Y343884D01*
X448187Y344362D01*
X447342Y344531D01*
D02*
G37*
G36*
X462500Y344137D02*
X461655Y343969D01*
X460939Y343490D01*
X460460Y342774D01*
X460292Y341929D01*
X460460Y341084D01*
X460939Y340368D01*
X461655Y339889D01*
X462500Y339721D01*
X463345Y339889D01*
X464061Y340368D01*
X464540Y341084D01*
X464708Y341929D01*
X464540Y342774D01*
X464061Y343490D01*
X463345Y343969D01*
X462500Y344137D01*
D02*
G37*
G36*
X454232Y344531D02*
X453387Y344362D01*
X452671Y343884D01*
X452193Y343168D01*
X452100Y342704D01*
X451636Y342612D01*
X450920Y342133D01*
X450442Y341417D01*
X450273Y340572D01*
X450442Y339727D01*
X450920Y339011D01*
X451636Y338532D01*
X452481Y338364D01*
X453326Y338532D01*
X454042Y339011D01*
X454521Y339727D01*
X454613Y340191D01*
X455077Y340283D01*
X455793Y340762D01*
X456272Y341478D01*
X456440Y342323D01*
X456272Y343168D01*
X455793Y343884D01*
X455077Y344362D01*
X454232Y344531D01*
D02*
G37*
G36*
X523320Y350529D02*
X522498Y350420D01*
X521731Y350103D01*
X521073Y349598D01*
X520569Y348940D01*
X520251Y348174D01*
X520143Y347352D01*
X520251Y346530D01*
X520569Y345763D01*
X521073Y345106D01*
X521614Y344690D01*
X521659Y344504D01*
Y344295D01*
X521614Y344108D01*
X521073Y343693D01*
X520569Y343035D01*
X520251Y342269D01*
X520143Y341446D01*
X520251Y340624D01*
X520569Y339858D01*
X521073Y339200D01*
X521731Y338695D01*
X522498Y338378D01*
X523320Y338270D01*
X524142Y338378D01*
X524908Y338695D01*
X525566Y339200D01*
X526071Y339858D01*
X526388Y340624D01*
X526497Y341446D01*
X526388Y342269D01*
X526071Y343035D01*
X525566Y343693D01*
X525025Y344108D01*
X524981Y344295D01*
Y344504D01*
X525025Y344690D01*
X525566Y345106D01*
X526071Y345763D01*
X526388Y346530D01*
X526497Y347352D01*
X526388Y348174D01*
X526071Y348940D01*
X525566Y349598D01*
X524908Y350103D01*
X524142Y350420D01*
X523320Y350529D01*
D02*
G37*
G36*
X426181Y331211D02*
X425643Y331104D01*
X425187Y330800D01*
X424883Y330344D01*
X424776Y329806D01*
X424883Y329269D01*
X425187Y328813D01*
X425643Y328508D01*
X426181Y328401D01*
X426719Y328508D01*
X427174Y328813D01*
X427479Y329269D01*
X427586Y329806D01*
X427479Y330344D01*
X427174Y330800D01*
X426719Y331104D01*
X426181Y331211D01*
D02*
G37*
G36*
X199508Y332699D02*
X198840Y332611D01*
X198217Y332353D01*
X197683Y331943D01*
X197273Y331409D01*
X197015Y330786D01*
X196927Y330118D01*
X197015Y329450D01*
X197273Y328828D01*
X197683Y328293D01*
X198217Y327883D01*
X198840Y327625D01*
X199508Y327537D01*
X200176Y327625D01*
X200798Y327883D01*
X201333Y328293D01*
X201743Y328828D01*
X202001Y329450D01*
X202089Y330118D01*
X202001Y330786D01*
X201743Y331409D01*
X201333Y331943D01*
X200798Y332353D01*
X200176Y332611D01*
X199508Y332699D01*
D02*
G37*
G36*
X466437Y333720D02*
X465592Y333552D01*
X464876Y333073D01*
X464397Y332357D01*
X464229Y331512D01*
X464397Y330667D01*
X464660Y330274D01*
X464397Y329880D01*
X464229Y329035D01*
X464397Y328190D01*
X464876Y327474D01*
X465592Y326996D01*
X466437Y326828D01*
X467282Y326996D01*
X467998Y327474D01*
X468477Y328190D01*
X468645Y329035D01*
X468477Y329880D01*
X468214Y330274D01*
X468477Y330667D01*
X468645Y331512D01*
X468477Y332357D01*
X467998Y333073D01*
X467282Y333552D01*
X466437Y333720D01*
D02*
G37*
G36*
X9527Y333059D02*
X8705Y332950D01*
X7939Y332633D01*
X7281Y332128D01*
X6776Y331470D01*
X6459Y330704D01*
X6351Y329882D01*
X6459Y329060D01*
X6776Y328293D01*
X7281Y327636D01*
X7939Y327131D01*
X8705Y326813D01*
X9527Y326705D01*
X10350Y326813D01*
X11116Y327131D01*
X11774Y327636D01*
X12279Y328293D01*
X12596Y329060D01*
X12704Y329882D01*
X12596Y330704D01*
X12279Y331470D01*
X11774Y332128D01*
X11116Y332633D01*
X10350Y332950D01*
X9527Y333059D01*
D02*
G37*
G36*
X36713Y328964D02*
X36175Y328857D01*
X35719Y328553D01*
X35415Y328097D01*
X35308Y327559D01*
X35415Y327021D01*
X35719Y326566D01*
X36175Y326261D01*
X36713Y326154D01*
X37250Y326261D01*
X37706Y326566D01*
X38011Y327021D01*
X38118Y327559D01*
X38011Y328097D01*
X37706Y328553D01*
X37250Y328857D01*
X36713Y328964D01*
D02*
G37*
G36*
X441749Y332381D02*
X440904Y332213D01*
X440187Y331734D01*
X439709Y331018D01*
X439541Y330173D01*
X439709Y329328D01*
X440187Y328612D01*
X440904Y328133D01*
X441749Y327965D01*
X442396Y328094D01*
X442794Y327813D01*
X442856Y327714D01*
X443011Y326934D01*
X443490Y326218D01*
X444206Y325739D01*
X445051Y325571D01*
X445896Y325739D01*
X446612Y326218D01*
X447091Y326934D01*
X447259Y327779D01*
X447091Y328624D01*
X446612Y329340D01*
X445896Y329818D01*
X445051Y329986D01*
X444403Y329857D01*
X444006Y330138D01*
X443944Y330237D01*
X443788Y331018D01*
X443310Y331734D01*
X442593Y332213D01*
X441749Y332381D01*
D02*
G37*
G36*
X259350Y325928D02*
X258506Y325760D01*
X257874Y325338D01*
X257242Y325760D01*
X256398Y325928D01*
X255553Y325760D01*
X254837Y325282D01*
X254358Y324565D01*
X254190Y323721D01*
X254358Y322876D01*
X254837Y322159D01*
X255553Y321681D01*
X256398Y321513D01*
X257242Y321681D01*
X257874Y322103D01*
X258506Y321681D01*
X259350Y321513D01*
X260195Y321681D01*
X260911Y322159D01*
X261390Y322876D01*
X261558Y323721D01*
X261390Y324565D01*
X260911Y325282D01*
X260195Y325760D01*
X259350Y325928D01*
D02*
G37*
G36*
X177362Y326503D02*
X176824Y326396D01*
X176369Y326092D01*
X176064Y325636D01*
X175957Y325098D01*
X176064Y324561D01*
X176369Y324105D01*
X176824Y323800D01*
X177362Y323693D01*
X177900Y323800D01*
X178356Y324105D01*
X178660Y324561D01*
X178767Y325098D01*
X178660Y325636D01*
X178356Y326092D01*
X177900Y326396D01*
X177362Y326503D01*
D02*
G37*
G36*
X232480Y327306D02*
X231635Y327138D01*
X230919Y326660D01*
X230441Y325943D01*
X230273Y325098D01*
X230441Y324254D01*
X230919Y323537D01*
X231635Y323059D01*
X232480Y322891D01*
X233325Y323059D01*
X234041Y323537D01*
X234520Y324254D01*
X234688Y325098D01*
X234520Y325943D01*
X234041Y326660D01*
X233325Y327138D01*
X232480Y327306D01*
D02*
G37*
G36*
X75295Y321302D02*
X74450Y321134D01*
X73819Y320712D01*
X73188Y321134D01*
X72343Y321302D01*
X71498Y321134D01*
X70781Y320656D01*
X70303Y319939D01*
X70135Y319094D01*
X70303Y318250D01*
X70781Y317533D01*
X71498Y317055D01*
X72343Y316887D01*
X73188Y317055D01*
X73819Y317477D01*
X74450Y317055D01*
X75295Y316887D01*
X76140Y317055D01*
X76856Y317533D01*
X77335Y318250D01*
X77503Y319094D01*
X77335Y319939D01*
X76856Y320656D01*
X76140Y321134D01*
X75295Y321302D01*
D02*
G37*
G36*
X541890Y330345D02*
X540655Y330224D01*
X539467Y329864D01*
X538373Y329279D01*
X537414Y328491D01*
X536627Y327532D01*
X536042Y326438D01*
X535682Y325251D01*
X535560Y324016D01*
X535682Y322781D01*
X536042Y321593D01*
X536627Y320499D01*
X537414Y319540D01*
X538373Y318753D01*
X539467Y318168D01*
X540655Y317808D01*
X541890Y317686D01*
X543125Y317808D01*
X544312Y318168D01*
X545406Y318753D01*
X546365Y319540D01*
X547153Y320499D01*
X547738Y321593D01*
X548098Y322781D01*
X548219Y324016D01*
X548098Y325251D01*
X547738Y326438D01*
X547153Y327532D01*
X546365Y328491D01*
X545406Y329279D01*
X544312Y329864D01*
X543125Y330224D01*
X541890Y330345D01*
D02*
G37*
G36*
X258957Y317267D02*
X258112Y317099D01*
X257480Y316677D01*
X256849Y317099D01*
X256004Y317267D01*
X255159Y317099D01*
X254443Y316620D01*
X253964Y315904D01*
X253796Y315059D01*
X253964Y314214D01*
X254443Y313498D01*
X255159Y313019D01*
X256004Y312851D01*
X256849Y313019D01*
X257480Y313441D01*
X258112Y313019D01*
X258957Y312851D01*
X259802Y313019D01*
X260518Y313498D01*
X260996Y314214D01*
X261164Y315059D01*
X260996Y315904D01*
X260518Y316620D01*
X259802Y317099D01*
X258957Y317267D01*
D02*
G37*
G36*
X157874Y320987D02*
X157206Y320899D01*
X156583Y320641D01*
X156049Y320231D01*
X155639Y319696D01*
X155381Y319074D01*
X155293Y318406D01*
X155381Y317738D01*
X155639Y317115D01*
X156049Y316580D01*
X156583Y316170D01*
X157206Y315912D01*
X157874Y315824D01*
X158542Y315912D01*
X159165Y316170D01*
X159699Y316580D01*
X160109Y317115D01*
X160367Y317738D01*
X160455Y318406D01*
X160367Y319074D01*
X160109Y319696D01*
X159699Y320231D01*
X159165Y320641D01*
X158542Y320899D01*
X157874Y320987D01*
D02*
G37*
G36*
X63976Y320298D02*
X63308Y320210D01*
X62686Y319952D01*
X62151Y319542D01*
X61741Y319007D01*
X61483Y318385D01*
X61395Y317717D01*
X61483Y317049D01*
X61741Y316426D01*
X62151Y315891D01*
X62686Y315481D01*
X63308Y315223D01*
X63976Y315135D01*
X64644Y315223D01*
X65267Y315481D01*
X65802Y315891D01*
X66212Y316426D01*
X66470Y317049D01*
X66558Y317717D01*
X66470Y318385D01*
X66212Y319007D01*
X65802Y319542D01*
X65267Y319952D01*
X64644Y320210D01*
X63976Y320298D01*
D02*
G37*
G36*
X163976Y318034D02*
X163308Y317946D01*
X162686Y317688D01*
X162151Y317278D01*
X161741Y316743D01*
X161483Y316121D01*
X161395Y315453D01*
X161483Y314785D01*
X161741Y314162D01*
X162151Y313628D01*
X162686Y313217D01*
X163308Y312960D01*
X163976Y312872D01*
X164644Y312960D01*
X165267Y313217D01*
X165802Y313628D01*
X166212Y314162D01*
X166470Y314785D01*
X166558Y315453D01*
X166470Y316121D01*
X166212Y316743D01*
X165802Y317278D01*
X165267Y317688D01*
X164644Y317946D01*
X163976Y318034D01*
D02*
G37*
G36*
X191535Y317542D02*
X190867Y317454D01*
X190245Y317196D01*
X189710Y316786D01*
X189300Y316251D01*
X189042Y315629D01*
X188954Y314961D01*
X189042Y314293D01*
X189300Y313670D01*
X189710Y313136D01*
X190245Y312725D01*
X190867Y312468D01*
X191535Y312380D01*
X192203Y312468D01*
X192826Y312725D01*
X193361Y313136D01*
X193771Y313670D01*
X194029Y314293D01*
X194117Y314961D01*
X194029Y315629D01*
X193771Y316251D01*
X193361Y316786D01*
X192826Y317196D01*
X192203Y317454D01*
X191535Y317542D01*
D02*
G37*
G36*
X76477Y313413D02*
X75939Y313306D01*
X75483Y313001D01*
X75178Y312546D01*
X75072Y312008D01*
X75178Y311470D01*
X75483Y311015D01*
X75939Y310710D01*
X76477Y310603D01*
X77014Y310710D01*
X77470Y311015D01*
X77775Y311470D01*
X77881Y312008D01*
X77775Y312546D01*
X77470Y313001D01*
X77014Y313306D01*
X76477Y313413D01*
D02*
G37*
G36*
X225180Y312087D02*
X224335Y311919D01*
X223619Y311441D01*
X223141Y310724D01*
X222972Y309880D01*
X223141Y309035D01*
X223619Y308318D01*
X224335Y307840D01*
X225180Y307672D01*
X226025Y307840D01*
X226741Y308318D01*
X227220Y309035D01*
X227388Y309880D01*
X227220Y310724D01*
X226741Y311441D01*
X226025Y311919D01*
X225180Y312087D01*
D02*
G37*
G36*
X195276Y309668D02*
X194607Y309580D01*
X193985Y309322D01*
X193450Y308912D01*
X193040Y308377D01*
X192782Y307755D01*
X192694Y307087D01*
X192782Y306419D01*
X193040Y305796D01*
X193450Y305261D01*
X193985Y304851D01*
X194607Y304593D01*
X195276Y304505D01*
X195944Y304593D01*
X196566Y304851D01*
X197101Y305261D01*
X197511Y305796D01*
X197769Y306419D01*
X197857Y307087D01*
X197769Y307755D01*
X197511Y308377D01*
X197101Y308912D01*
X196566Y309322D01*
X195944Y309580D01*
X195276Y309668D01*
D02*
G37*
G36*
X225180Y306481D02*
X224643Y306374D01*
X224187Y306070D01*
X223882Y305614D01*
X223775Y305076D01*
X223882Y304539D01*
X224187Y304083D01*
X224643Y303778D01*
X225180Y303672D01*
X225718Y303778D01*
X226174Y304083D01*
X226478Y304539D01*
X226585Y305076D01*
X226478Y305614D01*
X226174Y306070D01*
X225718Y306374D01*
X225180Y306481D01*
D02*
G37*
G36*
Y301481D02*
X224643Y301374D01*
X224187Y301070D01*
X223882Y300614D01*
X223775Y300076D01*
X223882Y299539D01*
X224187Y299083D01*
X224643Y298778D01*
X225180Y298672D01*
X225718Y298778D01*
X226174Y299083D01*
X226478Y299539D01*
X226585Y300076D01*
X226478Y300614D01*
X226174Y301070D01*
X225718Y301374D01*
X225180Y301481D01*
D02*
G37*
G36*
X211122Y302503D02*
X210277Y302335D01*
X209561Y301856D01*
X209082Y301140D01*
X208914Y300295D01*
X209082Y299450D01*
X209561Y298734D01*
X210277Y298256D01*
X211122Y298088D01*
X211967Y298256D01*
X212683Y298734D01*
X213162Y299450D01*
X213330Y300295D01*
X213162Y301140D01*
X212683Y301856D01*
X211967Y302335D01*
X211122Y302503D01*
D02*
G37*
G36*
X263189Y300421D02*
X262367Y300313D01*
X261601Y299995D01*
X260943Y299490D01*
X260438Y298833D01*
X260120Y298066D01*
X260012Y297244D01*
X260120Y296422D01*
X260438Y295656D01*
X260943Y294998D01*
X261601Y294493D01*
X262367Y294176D01*
X263189Y294067D01*
X264011Y294176D01*
X264777Y294493D01*
X265435Y294998D01*
X265940Y295656D01*
X266258Y296422D01*
X266366Y297244D01*
X266258Y298066D01*
X265940Y298833D01*
X265435Y299490D01*
X264777Y299995D01*
X264011Y300313D01*
X263189Y300421D01*
D02*
G37*
G36*
X225180Y296324D02*
X224643Y296217D01*
X224187Y295912D01*
X223882Y295456D01*
X223775Y294919D01*
X223882Y294381D01*
X224187Y293925D01*
X224643Y293621D01*
X225180Y293514D01*
X225718Y293621D01*
X226174Y293925D01*
X226478Y294381D01*
X226585Y294919D01*
X226478Y295456D01*
X226174Y295912D01*
X225718Y296217D01*
X225180Y296324D01*
D02*
G37*
G36*
X133747Y294122D02*
X133210Y294015D01*
X132754Y293710D01*
X132449Y293254D01*
X132342Y292717D01*
X132449Y292179D01*
X132754Y291723D01*
X133210Y291419D01*
X133747Y291312D01*
X134285Y291419D01*
X134741Y291723D01*
X135045Y292179D01*
X135152Y292717D01*
X135045Y293254D01*
X134741Y293710D01*
X134285Y294015D01*
X133747Y294122D01*
D02*
G37*
G36*
X31220Y297468D02*
X30398Y297360D01*
X29632Y297043D01*
X28974Y296538D01*
X28469Y295880D01*
X28152Y295114D01*
X28044Y294291D01*
X28152Y293469D01*
X28469Y292703D01*
X28974Y292045D01*
X29632Y291540D01*
X30398Y291223D01*
X31220Y291115D01*
X32043Y291223D01*
X32809Y291540D01*
X33467Y292045D01*
X33972Y292703D01*
X34289Y293469D01*
X34397Y294291D01*
X34289Y295114D01*
X33972Y295880D01*
X33467Y296538D01*
X32809Y297043D01*
X32043Y297360D01*
X31220Y297468D01*
D02*
G37*
G36*
X173721Y292700D02*
X173221Y292600D01*
X172798Y292318D01*
X172515Y291894D01*
X172416Y291395D01*
X172515Y290896D01*
X172798Y290473D01*
X173221Y290190D01*
X173721Y290090D01*
X174220Y290190D01*
X174643Y290473D01*
X174926Y290896D01*
X175025Y291395D01*
X174926Y291894D01*
X174643Y292318D01*
X174220Y292600D01*
X173721Y292700D01*
D02*
G37*
G36*
X76378Y296577D02*
X75710Y296489D01*
X75087Y296231D01*
X74553Y295821D01*
X74143Y295287D01*
X73885Y294664D01*
X73797Y293996D01*
X73885Y293328D01*
X74143Y292705D01*
X74553Y292171D01*
X75087Y291761D01*
X75410Y291627D01*
X75311Y291127D01*
X39322D01*
X38785Y291020D01*
X38329Y290716D01*
X38287Y290674D01*
X37982Y290218D01*
X37876Y289680D01*
X37982Y289143D01*
X38287Y288687D01*
X38743Y288382D01*
X39281Y288276D01*
X39490Y288317D01*
X107832D01*
X108370Y288424D01*
X108826Y288729D01*
X108868Y288770D01*
X109172Y289226D01*
X109279Y289764D01*
X109172Y290301D01*
X108868Y290757D01*
X108412Y291062D01*
X107874Y291169D01*
X107665Y291127D01*
X77445D01*
X77346Y291627D01*
X77668Y291761D01*
X78203Y292171D01*
X78613Y292705D01*
X78871Y293328D01*
X78959Y293996D01*
X78871Y294664D01*
X78613Y295287D01*
X78203Y295821D01*
X77668Y296231D01*
X77046Y296489D01*
X76378Y296577D01*
D02*
G37*
G36*
X231791Y290397D02*
X230946Y290229D01*
X230230Y289750D01*
X229752Y289034D01*
X229584Y288189D01*
X229752Y287344D01*
X230230Y286628D01*
X230946Y286149D01*
X231791Y285981D01*
X232636Y286149D01*
X233352Y286628D01*
X233831Y287344D01*
X233999Y288189D01*
X233831Y289034D01*
X233352Y289750D01*
X232636Y290229D01*
X231791Y290397D01*
D02*
G37*
G36*
X162894Y288725D02*
X162356Y288618D01*
X161900Y288313D01*
X161596Y287857D01*
X161489Y287320D01*
X161596Y286782D01*
X161900Y286326D01*
X162356Y286022D01*
X162894Y285915D01*
X163431Y286022D01*
X163887Y286326D01*
X164192Y286782D01*
X164299Y287320D01*
X164192Y287857D01*
X163887Y288313D01*
X163431Y288618D01*
X162894Y288725D01*
D02*
G37*
G36*
X153642Y288723D02*
X152797Y288556D01*
X152081Y288077D01*
X151602Y287361D01*
X151434Y286516D01*
X151602Y285671D01*
X152081Y284955D01*
X152797Y284476D01*
X153642Y284308D01*
X154487Y284476D01*
X155203Y284955D01*
X155681Y285671D01*
X155850Y286516D01*
X155681Y287361D01*
X155203Y288077D01*
X154487Y288556D01*
X153642Y288723D01*
D02*
G37*
G36*
X174787Y301405D02*
X174250Y301298D01*
X173794Y300993D01*
X173489Y300538D01*
X173382Y300000D01*
X173489Y299462D01*
X173794Y299007D01*
X175961Y296839D01*
Y284130D01*
X175461Y284031D01*
X175365Y284263D01*
X174955Y284798D01*
X174420Y285208D01*
X173798Y285466D01*
X173130Y285554D01*
X172462Y285466D01*
X171839Y285208D01*
X171305Y284798D01*
X170895Y284263D01*
X170637Y283641D01*
X170549Y282972D01*
X170637Y282304D01*
X170895Y281682D01*
X171305Y281147D01*
X171839Y280737D01*
X172462Y280479D01*
X173130Y280391D01*
X173798Y280479D01*
X174420Y280737D01*
X174955Y281147D01*
X175365Y281682D01*
X175461Y281914D01*
X175961Y281815D01*
Y272674D01*
X176068Y272136D01*
X176373Y271681D01*
X178390Y269664D01*
Y256500D01*
X177890Y256232D01*
X177757Y256321D01*
X177220Y256428D01*
X176682Y256321D01*
X176226Y256016D01*
X175922Y255560D01*
X175815Y255023D01*
X175922Y254485D01*
X176226Y254029D01*
X176682Y253725D01*
X177220Y253618D01*
X177757Y253725D01*
X177890Y253813D01*
X178390Y253546D01*
Y247904D01*
X175172Y244687D01*
X174867Y244231D01*
X174760Y243693D01*
X174867Y243155D01*
X175172Y242700D01*
X175628Y242395D01*
X176165Y242288D01*
X176703Y242395D01*
X177159Y242700D01*
X180788Y246329D01*
X181093Y246785D01*
X181200Y247322D01*
Y270246D01*
X181093Y270783D01*
X180788Y271239D01*
X178771Y273256D01*
Y297421D01*
X178664Y297959D01*
X178360Y298414D01*
X175781Y300993D01*
X175325Y301298D01*
X174787Y301405D01*
D02*
G37*
G36*
X187746Y286498D02*
X187246Y286398D01*
X186823Y286116D01*
X186540Y285692D01*
X186441Y285193D01*
X186540Y284694D01*
X186823Y284271D01*
X187246Y283988D01*
X187746Y283889D01*
X188245Y283988D01*
X188668Y284271D01*
X188951Y284694D01*
X189050Y285193D01*
X188951Y285692D01*
X188668Y286116D01*
X188245Y286398D01*
X187746Y286498D01*
D02*
G37*
G36*
X225121Y286540D02*
X224584Y286433D01*
X224128Y286129D01*
X223823Y285673D01*
X223716Y285135D01*
X223823Y284598D01*
X224128Y284142D01*
X224584Y283837D01*
X225121Y283730D01*
X225659Y283837D01*
X226115Y284142D01*
X226419Y284598D01*
X226526Y285135D01*
X226419Y285673D01*
X226115Y286129D01*
X225659Y286433D01*
X225121Y286540D01*
D02*
G37*
G36*
X145965Y280784D02*
X145427Y280677D01*
X144971Y280373D01*
X144667Y279917D01*
X144560Y279379D01*
X144667Y278842D01*
X144971Y278386D01*
X145427Y278081D01*
X145965Y277974D01*
X146502Y278081D01*
X146958Y278386D01*
X147263Y278842D01*
X147370Y279379D01*
X147263Y279917D01*
X146958Y280373D01*
X146502Y280677D01*
X145965Y280784D01*
D02*
G37*
G36*
X225180Y282284D02*
X224335Y282116D01*
X223619Y281637D01*
X223141Y280921D01*
X222972Y280076D01*
X223141Y279231D01*
X223619Y278515D01*
X224335Y278036D01*
X225180Y277868D01*
X226025Y278036D01*
X226741Y278515D01*
X227220Y279231D01*
X227388Y280076D01*
X227220Y280921D01*
X226741Y281637D01*
X226025Y282116D01*
X225180Y282284D01*
D02*
G37*
G36*
X127277Y283255D02*
X119698D01*
Y275676D01*
X127277D01*
Y283255D01*
D02*
G37*
G36*
X233423Y276363D02*
X232885Y276256D01*
X232429Y275952D01*
X232125Y275496D01*
X232018Y274958D01*
X232125Y274421D01*
X232429Y273965D01*
X232885Y273660D01*
X233423Y273553D01*
X233960Y273660D01*
X234416Y273965D01*
X234721Y274421D01*
X234828Y274958D01*
X234721Y275496D01*
X234416Y275952D01*
X233960Y276256D01*
X233423Y276363D01*
D02*
G37*
G36*
X114370Y287330D02*
X113832Y287223D01*
X113377Y286919D01*
X113226Y286768D01*
X112921Y286312D01*
X112814Y285774D01*
Y284458D01*
X100781Y272425D01*
X100284Y272474D01*
X100183Y272624D01*
X99467Y273103D01*
X98622Y273271D01*
X97777Y273103D01*
X97061Y272624D01*
X96582Y271908D01*
X96414Y271063D01*
X96450Y270886D01*
X96132Y270499D01*
X77328D01*
X77016Y270708D01*
X76479Y270814D01*
X53622D01*
X53084Y270708D01*
X52628Y270403D01*
X52324Y269947D01*
X52217Y269410D01*
X52324Y268872D01*
X52628Y268416D01*
X53084Y268112D01*
X53622Y268005D01*
X75945D01*
X76256Y267796D01*
X76794Y267689D01*
X99437D01*
X99975Y267796D01*
X100431Y268101D01*
X115213Y282883D01*
X115517Y283339D01*
X115624Y283876D01*
Y285322D01*
X115668Y285388D01*
X115775Y285925D01*
X115668Y286463D01*
X115364Y286919D01*
X114908Y287223D01*
X114370Y287330D01*
D02*
G37*
G36*
X264862Y275810D02*
X264194Y275722D01*
X263572Y275464D01*
X263037Y275054D01*
X262627Y274519D01*
X262369Y273896D01*
X262281Y273228D01*
X262369Y272560D01*
X262627Y271938D01*
X263037Y271403D01*
X263572Y270993D01*
X264194Y270735D01*
X264862Y270647D01*
X265530Y270735D01*
X266153Y270993D01*
X266687Y271403D01*
X267097Y271938D01*
X267355Y272560D01*
X267443Y273228D01*
X267355Y273896D01*
X267097Y274519D01*
X266687Y275054D01*
X266153Y275464D01*
X265530Y275722D01*
X264862Y275810D01*
D02*
G37*
G36*
X115551Y271877D02*
X115014Y271770D01*
X114558Y271466D01*
X114253Y271010D01*
X114146Y270472D01*
X114253Y269935D01*
X114558Y269479D01*
X115014Y269174D01*
X115551Y269068D01*
X116089Y269174D01*
X116545Y269479D01*
X116849Y269935D01*
X116956Y270472D01*
X116849Y271010D01*
X116545Y271466D01*
X116089Y271770D01*
X115551Y271877D01*
D02*
G37*
G36*
X149902Y270893D02*
X149364Y270786D01*
X148908Y270482D01*
X148604Y270026D01*
X148497Y269488D01*
X148604Y268951D01*
X148908Y268495D01*
X149364Y268190D01*
X149902Y268083D01*
X150439Y268190D01*
X150895Y268495D01*
X151200Y268951D01*
X151306Y269488D01*
X151200Y270026D01*
X150895Y270482D01*
X150439Y270786D01*
X149902Y270893D01*
D02*
G37*
G36*
X13976Y272090D02*
X13131Y271922D01*
X12415Y271443D01*
X11937Y270727D01*
X11769Y269882D01*
X11937Y269037D01*
X12415Y268321D01*
X13131Y267842D01*
X13976Y267674D01*
X14821Y267842D01*
X15538Y268321D01*
X16016Y269037D01*
X16184Y269882D01*
X16016Y270727D01*
X15538Y271443D01*
X14821Y271922D01*
X13976Y272090D01*
D02*
G37*
G36*
X154921Y265298D02*
X154076Y265130D01*
X153360Y264652D01*
X152882Y263935D01*
X152714Y263090D01*
X152882Y262246D01*
X153360Y261529D01*
X154076Y261051D01*
X154921Y260883D01*
X155766Y261051D01*
X156482Y261529D01*
X156961Y262246D01*
X157129Y263090D01*
X156961Y263935D01*
X156482Y264652D01*
X155766Y265130D01*
X154921Y265298D01*
D02*
G37*
G36*
X109554Y264253D02*
X108709Y264085D01*
X107993Y263606D01*
X107514Y262890D01*
X107346Y262045D01*
X107514Y261200D01*
X107993Y260484D01*
X108709Y260005D01*
X109554Y259837D01*
X110399Y260005D01*
X110901Y260341D01*
X111458Y259968D01*
X112303Y259800D01*
X113148Y259968D01*
X113864Y260447D01*
X114343Y261163D01*
X114511Y262008D01*
X114343Y262853D01*
X113864Y263569D01*
X113148Y264048D01*
X112303Y264216D01*
X111458Y264048D01*
X110956Y263712D01*
X110399Y264085D01*
X109554Y264253D01*
D02*
G37*
G36*
X68504Y263408D02*
X67836Y263320D01*
X67213Y263062D01*
X66679Y262652D01*
X66269Y262117D01*
X66011Y261495D01*
X65923Y260827D01*
X66011Y260159D01*
X66269Y259536D01*
X66679Y259002D01*
X67213Y258591D01*
X67836Y258334D01*
X68504Y258246D01*
X69172Y258334D01*
X69794Y258591D01*
X70329Y259002D01*
X70739Y259536D01*
X70997Y260159D01*
X71085Y260827D01*
X70997Y261495D01*
X70739Y262117D01*
X70329Y262652D01*
X69794Y263062D01*
X69172Y263320D01*
X68504Y263408D01*
D02*
G37*
G36*
X239917Y254654D02*
X239095Y254545D01*
X238329Y254228D01*
X237671Y253723D01*
X237242D01*
X236584Y254228D01*
X235818Y254545D01*
X234996Y254654D01*
X234173Y254545D01*
X233407Y254228D01*
X232749Y253723D01*
X232244Y253065D01*
X231927Y252299D01*
X231819Y251477D01*
X231927Y250655D01*
X232244Y249888D01*
X232652Y249357D01*
X232712Y249016D01*
X232652Y248675D01*
X232244Y248144D01*
X231927Y247378D01*
X231819Y246556D01*
X231927Y245733D01*
X232244Y244967D01*
X232749Y244309D01*
X233407Y243804D01*
X234173Y243487D01*
X234996Y243379D01*
X235818Y243487D01*
X236584Y243804D01*
X237115Y244212D01*
X237671Y244309D01*
X238329Y243804D01*
X239095Y243487D01*
X239917Y243379D01*
X240740Y243487D01*
X241506Y243804D01*
X242164Y244309D01*
X242669Y244967D01*
X242986Y245733D01*
X243094Y246555D01*
X242986Y247378D01*
X242669Y248144D01*
X242164Y248802D01*
Y249231D01*
X242669Y249888D01*
X242986Y250655D01*
X243094Y251477D01*
X242986Y252299D01*
X242669Y253065D01*
X242164Y253723D01*
X241506Y254228D01*
X240740Y254545D01*
X239917Y254654D01*
D02*
G37*
G36*
X157185Y256425D02*
X156647Y256318D01*
X156192Y256013D01*
X155887Y255557D01*
X155780Y255020D01*
X155887Y254482D01*
X156192Y254026D01*
X156647Y253722D01*
X157185Y253615D01*
X157723Y253722D01*
X158178Y254026D01*
X158483Y254482D01*
X158590Y255020D01*
X158483Y255557D01*
X158178Y256013D01*
X157723Y256318D01*
X157185Y256425D01*
D02*
G37*
G36*
X16929Y261660D02*
X16007Y261477D01*
X15226Y260955D01*
X14704Y260174D01*
X14521Y259252D01*
X14704Y258330D01*
X15226Y257549D01*
X16007Y257027D01*
X16929Y256843D01*
X17281Y256913D01*
X19676Y254518D01*
X20132Y254214D01*
X20669Y254107D01*
X111767D01*
X113817Y252057D01*
X114273Y251752D01*
X114810Y251645D01*
X115348Y251752D01*
X115804Y252057D01*
X116108Y252513D01*
X116215Y253050D01*
X116108Y253588D01*
X115804Y254044D01*
X113342Y256505D01*
X112887Y256810D01*
X112349Y256917D01*
X105935D01*
X105617Y257303D01*
X105653Y257480D01*
X105485Y258325D01*
X105006Y259041D01*
X104290Y259520D01*
X103445Y259688D01*
X102600Y259520D01*
X101884Y259041D01*
X101405Y258325D01*
X101237Y257480D01*
X101272Y257303D01*
X100955Y256917D01*
X21251D01*
X19268Y258900D01*
X19338Y259252D01*
X19154Y260174D01*
X18632Y260955D01*
X17851Y261477D01*
X16929Y261660D01*
D02*
G37*
G36*
X97244Y252799D02*
X96706Y252692D01*
X96251Y252387D01*
X95946Y251931D01*
X95839Y251394D01*
X95946Y250856D01*
X96251Y250400D01*
X96706Y250096D01*
X97244Y249989D01*
X97782Y250096D01*
X98238Y250400D01*
X98542Y250856D01*
X98649Y251394D01*
X98542Y251931D01*
X98238Y252387D01*
X97782Y252692D01*
X97244Y252799D01*
D02*
G37*
G36*
X58465Y252783D02*
X57927Y252676D01*
X57471Y252371D01*
X57167Y251916D01*
X57060Y251378D01*
X57167Y250840D01*
X57471Y250384D01*
X57927Y250080D01*
X58465Y249973D01*
X59002Y250080D01*
X59458Y250384D01*
X59763Y250840D01*
X59869Y251378D01*
X59763Y251916D01*
X59458Y252371D01*
X59002Y252676D01*
X58465Y252783D01*
D02*
G37*
G36*
X127461Y253467D02*
X126793Y253379D01*
X126170Y253121D01*
X125636Y252711D01*
X125225Y252176D01*
X124968Y251554D01*
X124880Y250886D01*
X124968Y250218D01*
X125225Y249595D01*
X125636Y249061D01*
X126170Y248651D01*
X126793Y248393D01*
X127461Y248305D01*
X128129Y248393D01*
X128751Y248651D01*
X129286Y249061D01*
X129696Y249595D01*
X129954Y250218D01*
X130042Y250886D01*
X129954Y251554D01*
X129696Y252176D01*
X129286Y252711D01*
X128751Y253121D01*
X128129Y253379D01*
X127461Y253467D01*
D02*
G37*
G36*
X68012Y249649D02*
X67167Y249481D01*
X66451Y249002D01*
X65972Y248286D01*
X65944Y248143D01*
X65465Y247998D01*
X65127Y248336D01*
X64671Y248640D01*
X64134Y248747D01*
X63976D01*
X63439Y248640D01*
X62983Y248336D01*
X62678Y247880D01*
X62571Y247342D01*
X62678Y246805D01*
X62983Y246349D01*
X63439Y246044D01*
X63446Y246043D01*
X65010Y244479D01*
X65466Y244174D01*
X66004Y244068D01*
X94095D01*
X94632Y244174D01*
X95088Y244479D01*
X95393Y244935D01*
X95499Y245472D01*
X95393Y246010D01*
X95088Y246466D01*
X94632Y246770D01*
X94095Y246877D01*
X70502D01*
X70184Y247264D01*
X70220Y247441D01*
X70051Y248286D01*
X69573Y249002D01*
X68857Y249481D01*
X68012Y249649D01*
D02*
G37*
G36*
X220177Y252581D02*
X219509Y252493D01*
X218887Y252235D01*
X218352Y251825D01*
X217942Y251291D01*
X217684Y250668D01*
X217596Y250000D01*
X217684Y249332D01*
X217942Y248709D01*
X218352Y248175D01*
X218887Y247765D01*
X219509Y247507D01*
X220177Y247419D01*
X220845Y247507D01*
X221468Y247765D01*
X222002Y248175D01*
X222412Y248709D01*
X222670Y249332D01*
X222758Y250000D01*
X222670Y250668D01*
X222412Y251291D01*
X222002Y251825D01*
X221468Y252235D01*
X220845Y252493D01*
X220177Y252581D01*
D02*
G37*
G36*
X94095Y250224D02*
X93557Y250117D01*
X93101Y249812D01*
X92796Y249357D01*
X92690Y248819D01*
X92796Y248281D01*
X93101Y247826D01*
X93557Y247521D01*
X94095Y247414D01*
X94632Y247521D01*
X95088Y247826D01*
X95393Y248281D01*
X95499Y248819D01*
X95393Y249357D01*
X95088Y249812D01*
X94632Y250117D01*
X94095Y250224D01*
D02*
G37*
G36*
X51673Y249240D02*
X51136Y249133D01*
X50680Y248828D01*
X50375Y248372D01*
X50268Y247835D01*
X50375Y247297D01*
X50680Y246841D01*
X51136Y246537D01*
X51673Y246430D01*
X52211Y246537D01*
X52667Y246841D01*
X52971Y247297D01*
X53078Y247835D01*
X52971Y248372D01*
X52667Y248828D01*
X52211Y249133D01*
X51673Y249240D01*
D02*
G37*
G36*
X157038Y248767D02*
X156539Y248668D01*
X156115Y248385D01*
X155833Y247962D01*
X155733Y247463D01*
X155833Y246963D01*
X156115Y246540D01*
X156539Y246257D01*
X157038Y246158D01*
X157537Y246257D01*
X157960Y246540D01*
X158243Y246963D01*
X158342Y247463D01*
X158243Y247962D01*
X157960Y248385D01*
X157537Y248668D01*
X157038Y248767D01*
D02*
G37*
G36*
X29429Y247779D02*
X28584Y247611D01*
X27868Y247132D01*
X27389Y246416D01*
X27221Y245571D01*
X27389Y244726D01*
X27868Y244010D01*
X28584Y243531D01*
X29429Y243363D01*
X30274Y243531D01*
X30990Y244010D01*
X31469Y244726D01*
X31637Y245571D01*
X31469Y246416D01*
X30990Y247132D01*
X30274Y247611D01*
X29429Y247779D01*
D02*
G37*
G36*
X179035Y241936D02*
X178498Y241829D01*
X178042Y241525D01*
X177737Y241069D01*
X177630Y240531D01*
X177737Y239994D01*
X178042Y239538D01*
X178498Y239233D01*
X179035Y239126D01*
X179573Y239233D01*
X180029Y239538D01*
X180333Y239994D01*
X180440Y240531D01*
X180333Y241069D01*
X180029Y241525D01*
X179573Y241829D01*
X179035Y241936D01*
D02*
G37*
G36*
X66551Y241759D02*
X66013Y241652D01*
X65558Y241348D01*
X65253Y240892D01*
X65146Y240354D01*
X65253Y239817D01*
X65558Y239361D01*
X66013Y239056D01*
X66551Y238949D01*
X67089Y239056D01*
X67545Y239361D01*
X67849Y239817D01*
X67956Y240354D01*
X67849Y240892D01*
X67545Y241348D01*
X67089Y241652D01*
X66551Y241759D01*
D02*
G37*
G36*
X29962Y237781D02*
X29425Y237674D01*
X28969Y237370D01*
X28664Y236914D01*
X28557Y236376D01*
X28664Y235839D01*
X28969Y235383D01*
X29425Y235078D01*
X29962Y234971D01*
X30500Y235078D01*
X30956Y235383D01*
X31260Y235839D01*
X31367Y236376D01*
X31260Y236914D01*
X30956Y237370D01*
X30500Y237674D01*
X29962Y237781D01*
D02*
G37*
G36*
X274661Y237724D02*
X274123Y237617D01*
X273667Y237313D01*
X273363Y236857D01*
X273256Y236319D01*
X273363Y235781D01*
X273667Y235326D01*
X274123Y235021D01*
X274661Y234914D01*
X275199Y235021D01*
X275654Y235326D01*
X275959Y235781D01*
X276066Y236319D01*
X275959Y236857D01*
X275654Y237313D01*
X275199Y237617D01*
X274661Y237724D01*
D02*
G37*
G36*
X262697Y237626D02*
X262159Y237519D01*
X261703Y237214D01*
X261399Y236758D01*
X261292Y236221D01*
X261399Y235683D01*
X261703Y235227D01*
X262159Y234923D01*
X262697Y234816D01*
X263235Y234923D01*
X263690Y235227D01*
X263995Y235683D01*
X264102Y236221D01*
X263995Y236758D01*
X263690Y237214D01*
X263235Y237519D01*
X262697Y237626D01*
D02*
G37*
G36*
X196260Y239786D02*
X195592Y239698D01*
X194969Y239440D01*
X194435Y239030D01*
X194025Y238495D01*
X193767Y237873D01*
X193679Y237205D01*
X193767Y236537D01*
X194025Y235914D01*
X194435Y235380D01*
X194969Y234969D01*
X195592Y234712D01*
X196260Y234624D01*
X196928Y234712D01*
X197550Y234969D01*
X198085Y235380D01*
X198495Y235914D01*
X198753Y236537D01*
X198841Y237205D01*
X198753Y237873D01*
X198495Y238495D01*
X198085Y239030D01*
X197550Y239440D01*
X196928Y239698D01*
X196260Y239786D01*
D02*
G37*
G36*
X221555Y239589D02*
X220887Y239501D01*
X220265Y239243D01*
X219730Y238833D01*
X219320Y238298D01*
X219062Y237676D01*
X218974Y237008D01*
X219062Y236340D01*
X219320Y235717D01*
X219730Y235183D01*
X220265Y234773D01*
X220887Y234515D01*
X221555Y234427D01*
X222223Y234515D01*
X222846Y234773D01*
X223380Y235183D01*
X223790Y235717D01*
X224048Y236340D01*
X224136Y237008D01*
X224048Y237676D01*
X223790Y238298D01*
X223380Y238833D01*
X222846Y239243D01*
X222223Y239501D01*
X221555Y239589D01*
D02*
G37*
G36*
X248130Y234688D02*
X247285Y234520D01*
X246569Y234042D01*
X246193Y233479D01*
X246151Y233465D01*
X245679D01*
X245638Y233479D01*
X245262Y234042D01*
X244546Y234520D01*
X243701Y234688D01*
X242856Y234520D01*
X242140Y234042D01*
X241661Y233325D01*
X241493Y232481D01*
X241661Y231636D01*
X242140Y230919D01*
X242856Y230441D01*
X243701Y230273D01*
X244546Y230441D01*
X245262Y230919D01*
X245638Y231482D01*
X245679Y231496D01*
X246151D01*
X246193Y231482D01*
X246569Y230919D01*
X247285Y230441D01*
X248130Y230273D01*
X248975Y230441D01*
X249691Y230919D01*
X250170Y231636D01*
X250338Y232481D01*
X250170Y233325D01*
X249691Y234042D01*
X248975Y234520D01*
X248130Y234688D01*
D02*
G37*
G36*
X37106Y236952D02*
X36261Y236784D01*
X35545Y236305D01*
X35067Y235589D01*
X34898Y234744D01*
X35067Y233899D01*
X35545Y233183D01*
X36261Y232704D01*
X37106Y232536D01*
X37951Y232704D01*
X38667Y233183D01*
X39146Y233899D01*
X39314Y234744D01*
X39146Y235589D01*
X38667Y236305D01*
X37951Y236784D01*
X37106Y236952D01*
D02*
G37*
G36*
X116142Y235263D02*
X115604Y235156D01*
X115148Y234852D01*
X114844Y234396D01*
X114737Y233858D01*
X114844Y233321D01*
X115148Y232865D01*
X115604Y232560D01*
X116142Y232453D01*
X116679Y232560D01*
X117135Y232865D01*
X117440Y233321D01*
X117547Y233858D01*
X117440Y234396D01*
X117135Y234852D01*
X116679Y235156D01*
X116142Y235263D01*
D02*
G37*
G36*
X162894Y234279D02*
X162356Y234172D01*
X161900Y233868D01*
X161596Y233412D01*
X161489Y232874D01*
X161596Y232336D01*
X161900Y231881D01*
X162356Y231576D01*
X162894Y231469D01*
X163431Y231576D01*
X163887Y231881D01*
X164192Y232336D01*
X164299Y232874D01*
X164192Y233412D01*
X163887Y233868D01*
X163431Y234172D01*
X162894Y234279D01*
D02*
G37*
G36*
X148327Y233773D02*
X147789Y233666D01*
X147333Y233362D01*
X147029Y232906D01*
X146922Y232368D01*
X147029Y231831D01*
X147333Y231375D01*
X147789Y231070D01*
X148327Y230963D01*
X148864Y231070D01*
X149320Y231375D01*
X149625Y231831D01*
X149732Y232368D01*
X149625Y232906D01*
X149320Y233362D01*
X148864Y233666D01*
X148327Y233773D01*
D02*
G37*
G36*
X17717Y234983D02*
X16872Y234815D01*
X16155Y234337D01*
X15677Y233621D01*
X15509Y232776D01*
X15677Y231931D01*
X16155Y231214D01*
X16872Y230736D01*
X17717Y230568D01*
X18561Y230736D01*
X19278Y231214D01*
X19756Y231931D01*
X19924Y232776D01*
X19756Y233621D01*
X19278Y234337D01*
X18561Y234815D01*
X17717Y234983D01*
D02*
G37*
G36*
X259842Y234885D02*
X258998Y234717D01*
X258281Y234238D01*
X257803Y233522D01*
X257635Y232677D01*
X257803Y231832D01*
X258281Y231116D01*
X258998Y230638D01*
X259842Y230469D01*
X260687Y230638D01*
X261404Y231116D01*
X261882Y231832D01*
X262050Y232677D01*
X261882Y233522D01*
X261404Y234238D01*
X260687Y234717D01*
X259842Y234885D01*
D02*
G37*
G36*
X69685Y232507D02*
X69147Y232400D01*
X68692Y232096D01*
X68387Y231640D01*
X68280Y231102D01*
X68387Y230565D01*
X68692Y230109D01*
X69147Y229804D01*
X69685Y229697D01*
X70223Y229804D01*
X70679Y230109D01*
X70983Y230565D01*
X71090Y231102D01*
X70983Y231640D01*
X70679Y232096D01*
X70223Y232400D01*
X69685Y232507D01*
D02*
G37*
G36*
X274661Y231326D02*
X274123Y231219D01*
X273667Y230915D01*
X273363Y230459D01*
X273256Y229921D01*
X273363Y229384D01*
X273667Y228928D01*
X274123Y228623D01*
X274661Y228517D01*
X275199Y228623D01*
X275654Y228928D01*
X275959Y229384D01*
X276066Y229921D01*
X275959Y230459D01*
X275654Y230915D01*
X275199Y231219D01*
X274661Y231326D01*
D02*
G37*
G36*
X269094Y232916D02*
X268250Y232748D01*
X267533Y232270D01*
X267055Y231554D01*
X266887Y230709D01*
X267055Y229864D01*
X267533Y229148D01*
X268250Y228669D01*
X269094Y228501D01*
X269939Y228669D01*
X270656Y229148D01*
X271134Y229864D01*
X271302Y230709D01*
X271134Y231554D01*
X270656Y232270D01*
X269939Y232748D01*
X269094Y232916D01*
D02*
G37*
G36*
X97244Y230358D02*
X96706Y230251D01*
X96251Y229946D01*
X95946Y229490D01*
X95839Y228953D01*
X95946Y228415D01*
X96251Y227959D01*
X96706Y227655D01*
X97244Y227548D01*
X97782Y227655D01*
X98238Y227959D01*
X98542Y228415D01*
X98649Y228953D01*
X98542Y229490D01*
X98238Y229946D01*
X97782Y230251D01*
X97244Y230358D01*
D02*
G37*
G36*
X61319Y227783D02*
X60781Y227676D01*
X60325Y227371D01*
X60021Y226916D01*
X59914Y226378D01*
X60021Y225840D01*
X60325Y225384D01*
X60781Y225080D01*
X61319Y224973D01*
X61857Y225080D01*
X62312Y225384D01*
X62617Y225840D01*
X62724Y226378D01*
X62617Y226916D01*
X62312Y227371D01*
X61857Y227676D01*
X61319Y227783D01*
D02*
G37*
G36*
X36319Y228192D02*
X35474Y228024D01*
X34758Y227545D01*
X34279Y226829D01*
X34111Y225984D01*
X34279Y225139D01*
X34758Y224423D01*
X35474Y223944D01*
X36319Y223777D01*
X37164Y223944D01*
X37880Y224423D01*
X38359Y225139D01*
X38527Y225984D01*
X38359Y226829D01*
X37880Y227545D01*
X37164Y228024D01*
X36319Y228192D01*
D02*
G37*
G36*
X247933Y223665D02*
X247088Y223497D01*
X246372Y223018D01*
X246118Y222637D01*
X245516D01*
X245262Y223018D01*
X244546Y223497D01*
X243701Y223665D01*
X242856Y223497D01*
X242140Y223018D01*
X241661Y222302D01*
X241493Y221457D01*
X241661Y220612D01*
X242140Y219896D01*
X242856Y219417D01*
X243701Y219249D01*
X244546Y219417D01*
X245262Y219896D01*
X245516Y220276D01*
X246118D01*
X246372Y219896D01*
X247088Y219417D01*
X247933Y219249D01*
X248778Y219417D01*
X249494Y219896D01*
X249973Y220612D01*
X250141Y221457D01*
X249973Y222302D01*
X249494Y223018D01*
X248778Y223497D01*
X247933Y223665D01*
D02*
G37*
G36*
X56496Y225224D02*
X55958Y225117D01*
X55503Y224812D01*
X55198Y224357D01*
X55091Y223819D01*
X55198Y223281D01*
X55503Y222826D01*
X55958Y222521D01*
X56496Y222414D01*
X57034Y222521D01*
X57490Y222826D01*
X57794Y223281D01*
X57901Y223819D01*
X57794Y224357D01*
X57490Y224812D01*
X57034Y225117D01*
X56496Y225224D01*
D02*
G37*
G36*
X104232Y225208D02*
X103695Y225101D01*
X103239Y224797D01*
X102934Y224341D01*
X102827Y223803D01*
X102934Y223266D01*
X103239Y222810D01*
X103695Y222505D01*
X104232Y222398D01*
X104770Y222505D01*
X105226Y222810D01*
X105530Y223266D01*
X105637Y223803D01*
X105530Y224341D01*
X105226Y224797D01*
X104770Y225101D01*
X104232Y225208D01*
D02*
G37*
G36*
X146306Y225063D02*
X145768Y224956D01*
X145312Y224652D01*
X145008Y224196D01*
X144901Y223658D01*
X145008Y223120D01*
X145312Y222665D01*
X145768Y222360D01*
X146306Y222253D01*
X146843Y222360D01*
X147299Y222665D01*
X147603Y223120D01*
X147711Y223658D01*
X147603Y224196D01*
X147299Y224652D01*
X146843Y224956D01*
X146306Y225063D01*
D02*
G37*
G36*
X127278Y228809D02*
X119699D01*
Y221231D01*
X127278D01*
Y228809D01*
D02*
G37*
G36*
X231988Y225042D02*
X231143Y224874D01*
X230427Y224396D01*
X229948Y223679D01*
X229780Y222835D01*
X229948Y221990D01*
X230427Y221273D01*
X231143Y220795D01*
X231988Y220627D01*
X232833Y220795D01*
X233549Y221273D01*
X234028Y221990D01*
X234196Y222835D01*
X234028Y223679D01*
X233549Y224396D01*
X232833Y224874D01*
X231988Y225042D01*
D02*
G37*
G36*
X69291Y222370D02*
X68754Y222263D01*
X68298Y221958D01*
X67993Y221502D01*
X67886Y220965D01*
X67993Y220427D01*
X68298Y219971D01*
X68347Y219922D01*
X68803Y219617D01*
X69341Y219510D01*
X94438D01*
X94685Y219461D01*
X95223Y219568D01*
X95679Y219873D01*
X95983Y220328D01*
X96090Y220866D01*
X95983Y221404D01*
X95679Y221860D01*
X95629Y221909D01*
X95174Y222213D01*
X94636Y222320D01*
X69539D01*
X69291Y222370D01*
D02*
G37*
G36*
X73622Y218940D02*
X72777Y218772D01*
X72384Y218509D01*
X71991Y218772D01*
X71146Y218940D01*
X70301Y218772D01*
X69585Y218293D01*
X69106Y217577D01*
X68938Y216732D01*
X69106Y215887D01*
X69585Y215171D01*
X70301Y214693D01*
X71146Y214525D01*
X71991Y214693D01*
X72384Y214955D01*
X72777Y214693D01*
X73622Y214525D01*
X74467Y214693D01*
X75183Y215171D01*
X75662Y215887D01*
X75830Y216732D01*
X75662Y217577D01*
X75183Y218293D01*
X74467Y218772D01*
X73622Y218940D01*
D02*
G37*
G36*
X57972Y219745D02*
X57435Y219638D01*
X56979Y219334D01*
X56674Y218878D01*
X56568Y218340D01*
X56674Y217803D01*
X56979Y217347D01*
X57435Y217042D01*
X57972Y216936D01*
X58510Y217042D01*
X58966Y217347D01*
X59270Y217803D01*
X59377Y218340D01*
X59270Y218878D01*
X58966Y219334D01*
X58510Y219638D01*
X57972Y219745D01*
D02*
G37*
G36*
X275197Y221204D02*
X274352Y221036D01*
X273636Y220557D01*
X273157Y219841D01*
X272989Y218996D01*
X273157Y218151D01*
X273636Y217435D01*
X274352Y216956D01*
X275197Y216788D01*
X276042Y216956D01*
X276758Y217435D01*
X277237Y218151D01*
X277405Y218996D01*
X277237Y219841D01*
X276758Y220557D01*
X276042Y221036D01*
X275197Y221204D01*
D02*
G37*
G36*
X132480Y219076D02*
X131943Y218969D01*
X131487Y218665D01*
X131182Y218209D01*
X131075Y217671D01*
X131182Y217134D01*
X131487Y216678D01*
X131943Y216373D01*
X132480Y216266D01*
X133018Y216373D01*
X133474Y216678D01*
X133778Y217134D01*
X133885Y217671D01*
X133778Y218209D01*
X133474Y218665D01*
X133018Y218969D01*
X132480Y219076D01*
D02*
G37*
G36*
X211417Y219806D02*
X210749Y219718D01*
X210127Y219460D01*
X209592Y219050D01*
X209182Y218515D01*
X208924Y217893D01*
X208836Y217224D01*
X208924Y216556D01*
X209182Y215934D01*
X209592Y215399D01*
X210127Y214989D01*
X210749Y214731D01*
X211417Y214643D01*
X212085Y214731D01*
X212708Y214989D01*
X213243Y215399D01*
X213653Y215934D01*
X213911Y216556D01*
X213999Y217224D01*
X213911Y217893D01*
X213653Y218515D01*
X213243Y219050D01*
X212708Y219460D01*
X212085Y219718D01*
X211417Y219806D01*
D02*
G37*
G36*
X239917Y214890D02*
X239095Y214781D01*
X238329Y214464D01*
X237798Y214056D01*
X237457Y213997D01*
X237116Y214056D01*
X236584Y214464D01*
X235818Y214781D01*
X234996Y214890D01*
X234173Y214781D01*
X233407Y214464D01*
X232749Y213959D01*
X232244Y213301D01*
X231927Y212535D01*
X231819Y211713D01*
X231927Y210891D01*
X232244Y210125D01*
X232652Y209594D01*
X232712Y209252D01*
X232652Y208911D01*
X232244Y208380D01*
X231927Y207614D01*
X231819Y206792D01*
X231927Y205970D01*
X232244Y205203D01*
X232749Y204545D01*
X233407Y204041D01*
X234173Y203723D01*
X234996Y203615D01*
X235818Y203723D01*
X236584Y204041D01*
X237115Y204448D01*
X237671Y204545D01*
X238329Y204040D01*
X239095Y203723D01*
X239917Y203615D01*
X240740Y203723D01*
X241506Y204040D01*
X242164Y204545D01*
X242669Y205203D01*
X242986Y205969D01*
X243094Y206792D01*
X242986Y207614D01*
X242669Y208380D01*
X242164Y209038D01*
Y209467D01*
X242669Y210125D01*
X242711Y210227D01*
X243283Y210302D01*
X243450Y210084D01*
X243985Y209674D01*
X244607Y209416D01*
X245276Y209328D01*
X245944Y209416D01*
X246566Y209674D01*
X247101Y210084D01*
X247511Y210619D01*
X247769Y211241D01*
X247857Y211910D01*
X247769Y212578D01*
X247511Y213200D01*
X247101Y213735D01*
X246566Y214145D01*
X245944Y214403D01*
X245276Y214491D01*
X244607Y214403D01*
X243985Y214145D01*
X243450Y213735D01*
X243178Y213379D01*
X242960Y213346D01*
X242656Y213374D01*
X242590Y213403D01*
X242164Y213959D01*
X241506Y214464D01*
X240740Y214781D01*
X239917Y214890D01*
D02*
G37*
G36*
X30948Y216680D02*
X30411Y216573D01*
X29955Y216269D01*
X29650Y215813D01*
X29543Y215275D01*
X29650Y214738D01*
X29955Y214282D01*
X30411Y213977D01*
X30948Y213870D01*
X31486Y213977D01*
X31942Y214282D01*
X32246Y214738D01*
X32353Y215275D01*
X32246Y215813D01*
X31942Y216269D01*
X31486Y216573D01*
X30948Y216680D01*
D02*
G37*
G36*
X42224Y239184D02*
X41687Y239077D01*
X41231Y238773D01*
X40926Y238317D01*
X40819Y237779D01*
Y228445D01*
X40926Y227907D01*
X41231Y227451D01*
X54617Y214066D01*
X55073Y213761D01*
X55610Y213654D01*
X56148Y213761D01*
X56604Y214066D01*
X56908Y214521D01*
X57015Y215059D01*
X56908Y215597D01*
X56604Y216053D01*
X43629Y229027D01*
Y237779D01*
X43522Y238317D01*
X43218Y238773D01*
X42762Y239077D01*
X42224Y239184D01*
D02*
G37*
G36*
X103642Y217935D02*
X102974Y217847D01*
X102351Y217590D01*
X101817Y217179D01*
X101406Y216645D01*
X101149Y216022D01*
X101061Y215354D01*
X101149Y214686D01*
X101406Y214064D01*
X101817Y213529D01*
X102351Y213119D01*
X102974Y212861D01*
X103642Y212773D01*
X104310Y212861D01*
X104932Y213119D01*
X105467Y213529D01*
X105877Y214064D01*
X106135Y214686D01*
X106223Y215354D01*
X106135Y216022D01*
X105877Y216645D01*
X105467Y217179D01*
X104932Y217590D01*
X104310Y217847D01*
X103642Y217935D01*
D02*
G37*
G36*
X157579Y216853D02*
X156911Y216765D01*
X156288Y216507D01*
X155754Y216097D01*
X155343Y215562D01*
X155086Y214940D01*
X154998Y214272D01*
X155086Y213604D01*
X155343Y212981D01*
X155754Y212446D01*
X156288Y212036D01*
X156911Y211778D01*
X157579Y211690D01*
X158247Y211778D01*
X158869Y212036D01*
X159404Y212446D01*
X159814Y212981D01*
X160072Y213604D01*
X160160Y214272D01*
X160072Y214940D01*
X159814Y215562D01*
X159404Y216097D01*
X158869Y216507D01*
X158247Y216765D01*
X157579Y216853D01*
D02*
G37*
G36*
X40256Y214003D02*
X39718Y213896D01*
X39263Y213592D01*
X38958Y213136D01*
X38851Y212598D01*
X38958Y212061D01*
X39263Y211605D01*
X39718Y211300D01*
X40256Y211193D01*
X40794Y211300D01*
X41249Y211605D01*
X41554Y212061D01*
X41661Y212598D01*
X41554Y213136D01*
X41249Y213592D01*
X40794Y213896D01*
X40256Y214003D01*
D02*
G37*
G36*
X76476Y212527D02*
X75939Y212420D01*
X75483Y212116D01*
X75178Y211660D01*
X75071Y211122D01*
X75178Y210584D01*
X75483Y210129D01*
X75939Y209824D01*
X76476Y209717D01*
X77014Y209824D01*
X77470Y210129D01*
X77774Y210584D01*
X77881Y211122D01*
X77774Y211660D01*
X77470Y212116D01*
X77014Y212420D01*
X76476Y212527D01*
D02*
G37*
G36*
X60039Y214019D02*
X59194Y213851D01*
X58478Y213372D01*
X58000Y212656D01*
X57832Y211811D01*
X58000Y210966D01*
X58478Y210250D01*
X59194Y209771D01*
X60039Y209603D01*
X60884Y209771D01*
X61601Y210250D01*
X62079Y210966D01*
X62247Y211811D01*
X62079Y212656D01*
X61601Y213372D01*
X60884Y213851D01*
X60039Y214019D01*
D02*
G37*
G36*
X267913Y212346D02*
X267069Y212177D01*
X266352Y211699D01*
X265874Y210983D01*
X265706Y210138D01*
X265874Y209293D01*
X266352Y208577D01*
X267069Y208098D01*
X267913Y207930D01*
X268758Y208098D01*
X269475Y208577D01*
X269953Y209293D01*
X270121Y210138D01*
X269953Y210983D01*
X269475Y211699D01*
X268758Y212177D01*
X267913Y212346D01*
D02*
G37*
G36*
X32579Y211853D02*
X31734Y211685D01*
X31018Y211207D01*
X30539Y210490D01*
X30371Y209646D01*
X30539Y208801D01*
X31018Y208085D01*
X31734Y207606D01*
X32579Y207438D01*
X33424Y207606D01*
X34140Y208085D01*
X34618Y208801D01*
X34786Y209646D01*
X34618Y210490D01*
X34140Y211207D01*
X33424Y211685D01*
X32579Y211853D01*
D02*
G37*
G36*
X225181Y211202D02*
X224336Y211034D01*
X223620Y210555D01*
X223142Y209839D01*
X222973Y208994D01*
X223142Y208149D01*
X223620Y207433D01*
X224336Y206954D01*
X225181Y206786D01*
X226026Y206954D01*
X226742Y207433D01*
X227221Y208149D01*
X227389Y208994D01*
X227221Y209839D01*
X226742Y210555D01*
X226026Y211034D01*
X225181Y211202D01*
D02*
G37*
G36*
X195965Y211735D02*
X195297Y211647D01*
X194674Y211389D01*
X194140Y210979D01*
X193729Y210444D01*
X193472Y209822D01*
X193384Y209154D01*
X193472Y208486D01*
X193729Y207863D01*
X194140Y207328D01*
X194674Y206918D01*
X195297Y206660D01*
X195965Y206572D01*
X196633Y206660D01*
X197255Y206918D01*
X197790Y207328D01*
X198200Y207863D01*
X198458Y208486D01*
X198546Y209154D01*
X198458Y209822D01*
X198200Y210444D01*
X197790Y210979D01*
X197255Y211389D01*
X196633Y211647D01*
X195965Y211735D01*
D02*
G37*
G36*
X59055Y207704D02*
X58517Y207597D01*
X58062Y207293D01*
X57757Y206837D01*
X57650Y206299D01*
X57757Y205762D01*
X58062Y205306D01*
X58517Y205001D01*
X59055Y204894D01*
X59593Y205001D01*
X60049Y205306D01*
X60353Y205762D01*
X60460Y206299D01*
X60353Y206837D01*
X60049Y207293D01*
X59593Y207597D01*
X59055Y207704D01*
D02*
G37*
G36*
X225181Y205596D02*
X224643Y205489D01*
X224188Y205184D01*
X223883Y204728D01*
X223776Y204191D01*
X223883Y203653D01*
X224188Y203197D01*
X224643Y202893D01*
X225181Y202786D01*
X225719Y202893D01*
X226175Y203197D01*
X226479Y203653D01*
X226586Y204191D01*
X226479Y204728D01*
X226175Y205184D01*
X225719Y205489D01*
X225181Y205596D01*
D02*
G37*
G36*
X98524Y206420D02*
X97856Y206332D01*
X97233Y206074D01*
X96698Y205664D01*
X96288Y205129D01*
X96030Y204507D01*
X95942Y203839D01*
X96030Y203170D01*
X96288Y202548D01*
X96698Y202013D01*
X97233Y201603D01*
X97856Y201345D01*
X98524Y201257D01*
X99192Y201345D01*
X99814Y201603D01*
X100349Y202013D01*
X100759Y202548D01*
X101017Y203170D01*
X101105Y203839D01*
X101017Y204507D01*
X100759Y205129D01*
X100349Y205664D01*
X99814Y206074D01*
X99192Y206332D01*
X98524Y206420D01*
D02*
G37*
G36*
X175394Y202980D02*
X174856Y202873D01*
X174400Y202568D01*
X174096Y202112D01*
X173989Y201575D01*
X174096Y201037D01*
X174400Y200581D01*
X174856Y200277D01*
X175394Y200170D01*
X175931Y200277D01*
X176387Y200581D01*
X176692Y201037D01*
X176799Y201575D01*
X176692Y202112D01*
X176387Y202568D01*
X175931Y202873D01*
X175394Y202980D01*
D02*
G37*
G36*
X118701Y204078D02*
X117856Y203910D01*
X117140Y203431D01*
X116661Y202715D01*
X116493Y201870D01*
X116661Y201025D01*
X117140Y200309D01*
X117856Y199830D01*
X118701Y199662D01*
X119546Y199830D01*
X120262Y200309D01*
X120740Y201025D01*
X120909Y201870D01*
X120740Y202715D01*
X120262Y203431D01*
X119546Y203910D01*
X118701Y204078D01*
D02*
G37*
G36*
X41535Y200125D02*
X40998Y200019D01*
X40542Y199714D01*
X40237Y199258D01*
X40130Y198721D01*
X40237Y198183D01*
X40542Y197727D01*
X40998Y197423D01*
X41535Y197316D01*
X42073Y197423D01*
X42529Y197727D01*
X42833Y198183D01*
X42940Y198721D01*
X42833Y199258D01*
X42529Y199714D01*
X42073Y200019D01*
X41535Y200125D01*
D02*
G37*
G36*
X105217Y231228D02*
X104679Y231121D01*
X104223Y230816D01*
X103919Y230361D01*
X103812Y229823D01*
X103919Y229285D01*
X104223Y228829D01*
X106961Y226091D01*
Y195866D01*
X107068Y195328D01*
X107373Y194873D01*
X107828Y194568D01*
X108366Y194461D01*
X108904Y194568D01*
X109360Y194873D01*
X109664Y195328D01*
X109771Y195866D01*
Y226673D01*
X109664Y227211D01*
X109360Y227667D01*
X106210Y230816D01*
X105754Y231121D01*
X105217Y231228D01*
D02*
G37*
G36*
X74606Y196479D02*
X73938Y196391D01*
X73316Y196133D01*
X72781Y195723D01*
X72371Y195188D01*
X72113Y194566D01*
X72025Y193898D01*
X72113Y193230D01*
X72371Y192607D01*
X72781Y192072D01*
X73316Y191662D01*
X73938Y191404D01*
X74606Y191316D01*
X75274Y191404D01*
X75897Y191662D01*
X76431Y192072D01*
X76842Y192607D01*
X77100Y193230D01*
X77187Y193898D01*
X77100Y194566D01*
X76842Y195188D01*
X76431Y195723D01*
X75897Y196133D01*
X75274Y196391D01*
X74606Y196479D01*
D02*
G37*
G36*
X172933Y191068D02*
X172434Y190969D01*
X172011Y190686D01*
X171728Y190263D01*
X171628Y189764D01*
X171728Y189265D01*
X172011Y188841D01*
X172277Y188663D01*
X172340Y188128D01*
X172333Y188100D01*
X172029Y187644D01*
X171922Y187106D01*
X172029Y186569D01*
X172333Y186113D01*
X172789Y185808D01*
X173327Y185701D01*
X173864Y185808D01*
X174320Y186113D01*
X174625Y186569D01*
X174732Y187106D01*
X174625Y187644D01*
X174320Y188100D01*
X173983Y188325D01*
X173905Y188639D01*
X173890Y188767D01*
X173899Y188907D01*
X174138Y189265D01*
X174238Y189764D01*
X174138Y190263D01*
X173855Y190686D01*
X173432Y190969D01*
X172933Y191068D01*
D02*
G37*
G36*
X27244Y188271D02*
X26399Y188103D01*
X25683Y187624D01*
X25204Y186908D01*
X25036Y186063D01*
X25204Y185218D01*
X25683Y184502D01*
X26399Y184023D01*
X27244Y183855D01*
X28089Y184023D01*
X28805Y184502D01*
X29284Y185218D01*
X29452Y186063D01*
X29284Y186908D01*
X28805Y187624D01*
X28089Y188103D01*
X27244Y188271D01*
D02*
G37*
G36*
X17520Y183098D02*
X16982Y182991D01*
X16526Y182686D01*
X16222Y182231D01*
X16115Y181693D01*
X16222Y181155D01*
X16526Y180700D01*
X16982Y180395D01*
X17520Y180288D01*
X18057Y180395D01*
X18513Y180700D01*
X18818Y181155D01*
X18925Y181693D01*
X18818Y182231D01*
X18513Y182686D01*
X18057Y182991D01*
X17520Y183098D01*
D02*
G37*
G36*
X35709Y184255D02*
X34864Y184087D01*
X34148Y183608D01*
X33669Y182892D01*
X33501Y182047D01*
X33669Y181202D01*
X34148Y180486D01*
X34864Y180008D01*
X35709Y179840D01*
X36554Y180008D01*
X37270Y180486D01*
X37749Y181202D01*
X37916Y182047D01*
X37749Y182892D01*
X37270Y183608D01*
X36554Y184087D01*
X35709Y184255D01*
D02*
G37*
G36*
X131496Y181813D02*
X130828Y181726D01*
X130206Y181468D01*
X129671Y181057D01*
X129261Y180523D01*
X129003Y179900D01*
X128915Y179232D01*
X129003Y178564D01*
X129261Y177942D01*
X129671Y177407D01*
X130206Y176997D01*
X130828Y176739D01*
X131496Y176651D01*
X132164Y176739D01*
X132787Y176997D01*
X133321Y177407D01*
X133731Y177942D01*
X133989Y178564D01*
X134077Y179232D01*
X133989Y179900D01*
X133731Y180523D01*
X133321Y181057D01*
X132787Y181468D01*
X132164Y181726D01*
X131496Y181813D01*
D02*
G37*
G36*
X162894Y179276D02*
X162356Y179169D01*
X161900Y178864D01*
X161596Y178409D01*
X161489Y177871D01*
X161596Y177333D01*
X161900Y176877D01*
X162356Y176573D01*
X162894Y176466D01*
X163431Y176573D01*
X163887Y176877D01*
X164192Y177333D01*
X164299Y177871D01*
X164192Y178409D01*
X163887Y178864D01*
X163431Y179169D01*
X162894Y179276D01*
D02*
G37*
G36*
X153839Y179451D02*
X153171Y179363D01*
X152548Y179105D01*
X152013Y178695D01*
X151603Y178161D01*
X151345Y177538D01*
X151257Y176870D01*
X151345Y176202D01*
X151603Y175580D01*
X152013Y175045D01*
X152548Y174635D01*
X153171Y174377D01*
X153839Y174289D01*
X154507Y174377D01*
X155129Y174635D01*
X155664Y175045D01*
X156074Y175580D01*
X156332Y176202D01*
X156420Y176870D01*
X156332Y177538D01*
X156074Y178161D01*
X155664Y178695D01*
X155129Y179105D01*
X154507Y179363D01*
X153839Y179451D01*
D02*
G37*
G36*
X53051Y175125D02*
X52513Y175019D01*
X52058Y174714D01*
X51753Y174258D01*
X51646Y173721D01*
X51753Y173183D01*
X52058Y172727D01*
X52513Y172423D01*
X53051Y172316D01*
X53589Y172423D01*
X54045Y172727D01*
X54349Y173183D01*
X54456Y173721D01*
X54349Y174258D01*
X54045Y174714D01*
X53589Y175019D01*
X53051Y175125D01*
D02*
G37*
G36*
X107579Y176794D02*
X106911Y176706D01*
X106288Y176448D01*
X105754Y176038D01*
X105343Y175503D01*
X105086Y174881D01*
X104998Y174213D01*
X105086Y173545D01*
X105343Y172922D01*
X105754Y172388D01*
X106288Y171977D01*
X106911Y171719D01*
X107579Y171632D01*
X108247Y171719D01*
X108869Y171977D01*
X109404Y172388D01*
X109814Y172922D01*
X110072Y173545D01*
X110160Y174213D01*
X110072Y174881D01*
X109814Y175503D01*
X109404Y176038D01*
X108869Y176448D01*
X108247Y176706D01*
X107579Y176794D01*
D02*
G37*
G36*
X166240Y175830D02*
X165395Y175662D01*
X164679Y175183D01*
X164200Y174467D01*
X164032Y173622D01*
X164200Y172777D01*
X164679Y172061D01*
X165395Y171582D01*
X166240Y171414D01*
X167085Y171582D01*
X167801Y172061D01*
X168280Y172777D01*
X168448Y173622D01*
X168280Y174467D01*
X167801Y175183D01*
X167085Y175662D01*
X166240Y175830D01*
D02*
G37*
G36*
X99311Y173058D02*
X98773Y172951D01*
X98318Y172647D01*
X98013Y172191D01*
X97906Y171653D01*
X98013Y171116D01*
X98318Y170660D01*
X98773Y170355D01*
X99311Y170249D01*
X99849Y170355D01*
X100304Y170660D01*
X100609Y171116D01*
X100716Y171653D01*
X100609Y172191D01*
X100304Y172647D01*
X99849Y172951D01*
X99311Y173058D01*
D02*
G37*
G36*
X146361Y171385D02*
X145824Y171278D01*
X145368Y170974D01*
X145063Y170518D01*
X144956Y169980D01*
X145063Y169443D01*
X145368Y168987D01*
X145824Y168682D01*
X146361Y168575D01*
X146899Y168682D01*
X147355Y168987D01*
X147659Y169443D01*
X147766Y169980D01*
X147659Y170518D01*
X147355Y170974D01*
X146899Y171278D01*
X146361Y171385D01*
D02*
G37*
G36*
X31791Y171401D02*
X30946Y171233D01*
X30230Y170754D01*
X29752Y170038D01*
X29584Y169193D01*
X29752Y168348D01*
X30230Y167632D01*
X30946Y167153D01*
X31791Y166985D01*
X32636Y167153D01*
X33353Y167632D01*
X33831Y168348D01*
X33999Y169193D01*
X33831Y170038D01*
X33353Y170754D01*
X32636Y171233D01*
X31791Y171401D01*
D02*
G37*
G36*
X45276Y169712D02*
X44738Y169605D01*
X44282Y169300D01*
X43978Y168845D01*
X43871Y168307D01*
X43978Y167769D01*
X44282Y167314D01*
X44738Y167009D01*
X45276Y166902D01*
X45813Y167009D01*
X46269Y167314D01*
X46574Y167769D01*
X46681Y168307D01*
X46574Y168845D01*
X46269Y169300D01*
X45813Y169605D01*
X45276Y169712D01*
D02*
G37*
G36*
X127277Y173806D02*
X119698D01*
Y166227D01*
X127277D01*
Y173806D01*
D02*
G37*
G36*
X7201Y168629D02*
X6663Y168522D01*
X6207Y168218D01*
X5903Y167762D01*
X5796Y167224D01*
X5903Y166687D01*
X6207Y166231D01*
X6663Y165926D01*
X7201Y165820D01*
X7738Y165926D01*
X8194Y166231D01*
X8499Y166687D01*
X8606Y167224D01*
X8499Y167762D01*
X8194Y168218D01*
X7738Y168522D01*
X7201Y168629D01*
D02*
G37*
G36*
X67224Y166656D02*
X66556Y166568D01*
X65934Y166310D01*
X65399Y165900D01*
X65073Y165475D01*
X64504Y165338D01*
X64379Y165462D01*
X63924Y165767D01*
X63386Y165874D01*
X62848Y165767D01*
X62392Y165462D01*
X62088Y165006D01*
X61981Y164469D01*
X62088Y163931D01*
X62392Y163475D01*
X69649Y156219D01*
X69484Y155676D01*
X69246Y155629D01*
X68790Y155324D01*
X68485Y154868D01*
X68379Y154331D01*
X68485Y153793D01*
X68790Y153337D01*
X69246Y153033D01*
X69784Y152926D01*
X70321Y153033D01*
X70777Y153337D01*
X71082Y153793D01*
X71129Y154031D01*
X71671Y154196D01*
X76844Y149023D01*
X77300Y148719D01*
X77837Y148612D01*
X101869D01*
X102407Y148719D01*
X102863Y149023D01*
X105127Y151288D01*
X105432Y151744D01*
X105539Y152282D01*
X105432Y152819D01*
X105127Y153275D01*
X104672Y153580D01*
X104134Y153687D01*
X103596Y153580D01*
X103140Y153275D01*
X101287Y151422D01*
X96711D01*
X96444Y151922D01*
X96626Y152195D01*
X96794Y153040D01*
X96626Y153885D01*
X96148Y154601D01*
X95432Y155079D01*
X94587Y155248D01*
X93742Y155079D01*
X93025Y154601D01*
X92850Y154338D01*
X92411Y154631D01*
X91566Y154799D01*
X90721Y154631D01*
X90005Y154153D01*
X89526Y153437D01*
X89358Y152592D01*
X89492Y151922D01*
X89188Y151422D01*
X78419D01*
X68487Y161354D01*
X68625Y161924D01*
X69050Y162250D01*
X69460Y162784D01*
X69718Y163407D01*
X69806Y164075D01*
X69718Y164743D01*
X69460Y165365D01*
X69050Y165900D01*
X68515Y166310D01*
X67892Y166568D01*
X67224Y166656D01*
D02*
G37*
G36*
X102362Y169117D02*
X101694Y169029D01*
X101072Y168771D01*
X100537Y168361D01*
X100127Y167826D01*
X99869Y167203D01*
X99781Y166535D01*
X99869Y165867D01*
X100127Y165245D01*
X100537Y164710D01*
X101072Y164300D01*
X101694Y164042D01*
X102362Y163954D01*
X103030Y164042D01*
X103653Y164300D01*
X104187Y164710D01*
X104597Y165245D01*
X104855Y165867D01*
X104943Y166535D01*
X104855Y167203D01*
X104597Y167826D01*
X104187Y168361D01*
X103653Y168771D01*
X103030Y169029D01*
X102362Y169117D01*
D02*
G37*
G36*
X156201Y165677D02*
X155663Y165570D01*
X155207Y165265D01*
X154903Y164809D01*
X154796Y164272D01*
X154903Y163734D01*
X155207Y163278D01*
X155663Y162974D01*
X156201Y162867D01*
X156738Y162974D01*
X157194Y163278D01*
X157499Y163734D01*
X157606Y164272D01*
X157499Y164809D01*
X157194Y165265D01*
X156738Y165570D01*
X156201Y165677D01*
D02*
G37*
G36*
X104429Y162542D02*
X103584Y162374D01*
X102868Y161896D01*
X102389Y161179D01*
X102221Y160335D01*
X102389Y159490D01*
X102868Y158774D01*
X103584Y158295D01*
X104429Y158127D01*
X105274Y158295D01*
X105990Y158774D01*
X106469Y159490D01*
X106637Y160335D01*
X106469Y161179D01*
X105990Y161896D01*
X105274Y162374D01*
X104429Y162542D01*
D02*
G37*
G36*
X162598Y159282D02*
X162061Y159175D01*
X161605Y158870D01*
X161300Y158415D01*
X161194Y157877D01*
X161300Y157339D01*
X161605Y156884D01*
X162061Y156579D01*
X162598Y156472D01*
X163136Y156579D01*
X163592Y156884D01*
X163896Y157339D01*
X164003Y157877D01*
X163896Y158415D01*
X163592Y158870D01*
X163136Y159175D01*
X162598Y159282D01*
D02*
G37*
G36*
X31594Y158212D02*
X31057Y158105D01*
X30601Y157800D01*
X30296Y157345D01*
X30189Y156807D01*
X30296Y156269D01*
X30601Y155814D01*
X31057Y155509D01*
X31594Y155402D01*
X32132Y155509D01*
X32588Y155814D01*
X32893Y156269D01*
X32999Y156807D01*
X32893Y157345D01*
X32588Y157800D01*
X32132Y158105D01*
X31594Y158212D01*
D02*
G37*
G36*
X177221Y155542D02*
X176683Y155435D01*
X176227Y155130D01*
X175923Y154675D01*
X175816Y154137D01*
X175923Y153599D01*
X176227Y153144D01*
X176683Y152839D01*
X177221Y152732D01*
X177758Y152839D01*
X178214Y153144D01*
X178519Y153599D01*
X178626Y154137D01*
X178519Y154675D01*
X178214Y155130D01*
X177758Y155435D01*
X177221Y155542D01*
D02*
G37*
G36*
X153688Y154445D02*
X153150Y154338D01*
X152694Y154033D01*
X152390Y153577D01*
X152283Y153040D01*
X152390Y152502D01*
X152694Y152046D01*
X153150Y151742D01*
X153688Y151635D01*
X154226Y151742D01*
X154681Y152046D01*
X154986Y152502D01*
X155093Y153040D01*
X154986Y153577D01*
X154681Y154033D01*
X154226Y154338D01*
X153688Y154445D01*
D02*
G37*
G36*
X132874Y155653D02*
X132029Y155485D01*
X131313Y155006D01*
X130834Y154290D01*
X130666Y153445D01*
X130834Y152600D01*
X131313Y151884D01*
X132029Y151405D01*
X132874Y151237D01*
X133719Y151405D01*
X134435Y151884D01*
X134914Y152600D01*
X135082Y153445D01*
X134914Y154290D01*
X134435Y155006D01*
X133719Y155485D01*
X132874Y155653D01*
D02*
G37*
G36*
X19587Y154668D02*
X18742Y154500D01*
X18025Y154022D01*
X17547Y153305D01*
X17379Y152461D01*
X17547Y151616D01*
X18025Y150900D01*
X18742Y150421D01*
X19587Y150253D01*
X20432Y150421D01*
X21148Y150900D01*
X21626Y151616D01*
X21794Y152461D01*
X21626Y153305D01*
X21148Y154022D01*
X20432Y154500D01*
X19587Y154668D01*
D02*
G37*
G36*
X177248Y148062D02*
X176710Y147955D01*
X176254Y147650D01*
X175950Y147194D01*
X175843Y146657D01*
X175950Y146119D01*
X176254Y145663D01*
X176710Y145359D01*
X177248Y145252D01*
X177786Y145359D01*
X178241Y145663D01*
X178546Y146119D01*
X178653Y146657D01*
X178546Y147194D01*
X178241Y147650D01*
X177786Y147955D01*
X177248Y148062D01*
D02*
G37*
G36*
X158352Y150519D02*
X157815Y150412D01*
X157359Y150107D01*
X157054Y149651D01*
X156947Y149114D01*
X156965Y149027D01*
X156927Y148921D01*
X156557Y148515D01*
X156123Y148458D01*
X155501Y148200D01*
X154966Y147790D01*
X154556Y147255D01*
X154298Y146633D01*
X154210Y145965D01*
X154298Y145297D01*
X154556Y144674D01*
X154966Y144139D01*
X155501Y143729D01*
X156123Y143471D01*
X156791Y143383D01*
X157459Y143471D01*
X158082Y143729D01*
X158616Y144139D01*
X159027Y144674D01*
X159284Y145297D01*
X159372Y145965D01*
X159284Y146633D01*
X159027Y147255D01*
X158949Y147356D01*
X159113Y147964D01*
X159346Y148120D01*
X159650Y148576D01*
X159757Y149114D01*
X159650Y149651D01*
X159346Y150107D01*
X158890Y150412D01*
X158352Y150519D01*
D02*
G37*
G36*
X108169Y143329D02*
X107501Y143241D01*
X106879Y142983D01*
X106344Y142573D01*
X105934Y142039D01*
X105676Y141416D01*
X105588Y140748D01*
X105676Y140080D01*
X105934Y139457D01*
X106344Y138923D01*
X106879Y138513D01*
X107501Y138255D01*
X108169Y138167D01*
X108837Y138255D01*
X109460Y138513D01*
X109994Y138923D01*
X110405Y139457D01*
X110662Y140080D01*
X110750Y140748D01*
X110662Y141416D01*
X110405Y142039D01*
X109994Y142573D01*
X109460Y142983D01*
X108837Y143241D01*
X108169Y143329D01*
D02*
G37*
G36*
X85236Y141853D02*
X84568Y141765D01*
X83946Y141507D01*
X83411Y141097D01*
X83001Y140562D01*
X82743Y139940D01*
X82655Y139272D01*
X82743Y138604D01*
X83001Y137981D01*
X83411Y137446D01*
X83946Y137036D01*
X84568Y136778D01*
X85236Y136690D01*
X85904Y136778D01*
X86527Y137036D01*
X87061Y137446D01*
X87471Y137981D01*
X87729Y138604D01*
X87817Y139272D01*
X87729Y139940D01*
X87471Y140562D01*
X87061Y141097D01*
X86527Y141507D01*
X85904Y141765D01*
X85236Y141853D01*
D02*
G37*
G36*
X160215Y136614D02*
X159678Y136507D01*
X159222Y136203D01*
X158917Y135747D01*
X158810Y135209D01*
X158917Y134671D01*
X159222Y134216D01*
X159678Y133911D01*
X160215Y133804D01*
X160753Y133911D01*
X161209Y134216D01*
X161513Y134671D01*
X161620Y135209D01*
X161513Y135747D01*
X161209Y136203D01*
X160753Y136507D01*
X160215Y136614D01*
D02*
G37*
G36*
X55709Y161550D02*
X55171Y161443D01*
X54715Y161139D01*
X54666Y161090D01*
X54361Y160634D01*
X54255Y160096D01*
Y115208D01*
X54205Y114961D01*
X54312Y114423D01*
X54617Y113967D01*
X55073Y113663D01*
X55610Y113556D01*
X56148Y113663D01*
X56604Y113967D01*
X56653Y114016D01*
X56958Y114472D01*
X57064Y115010D01*
Y131692D01*
X57441Y131893D01*
X57564Y131908D01*
X58366Y131749D01*
X59211Y131917D01*
X59927Y132396D01*
X60406Y133112D01*
X60574Y133957D01*
X60406Y134802D01*
X59927Y135518D01*
X59211Y135996D01*
X58366Y136164D01*
X57564Y136005D01*
X57441Y136021D01*
X57064Y136222D01*
Y159898D01*
X57114Y160145D01*
X57007Y160683D01*
X56702Y161139D01*
X56246Y161443D01*
X55709Y161550D01*
D02*
G37*
G36*
X50984Y126405D02*
X50447Y126298D01*
X49991Y125994D01*
X49686Y125538D01*
X49579Y125000D01*
X49686Y124462D01*
X49991Y124006D01*
X50447Y123702D01*
X50984Y123595D01*
X51522Y123702D01*
X51978Y124006D01*
X52282Y124462D01*
X52389Y125000D01*
X52282Y125538D01*
X51978Y125994D01*
X51522Y126298D01*
X50984Y126405D01*
D02*
G37*
G36*
X114810Y153569D02*
X114272Y153462D01*
X113817Y153158D01*
X113512Y152702D01*
X113405Y152164D01*
Y151951D01*
X113512Y151414D01*
X113817Y150958D01*
X114753Y150022D01*
Y125261D01*
X112523Y123031D01*
X112033Y123129D01*
X111905Y123439D01*
X111400Y124097D01*
X110742Y124602D01*
X109976Y124919D01*
X109153Y125027D01*
X108331Y124919D01*
X107565Y124602D01*
X106907Y124097D01*
X106402Y123439D01*
X106085Y122673D01*
X105977Y121850D01*
X106085Y121028D01*
X106402Y120262D01*
X106907Y119604D01*
X107565Y119099D01*
X107875Y118971D01*
X107973Y118481D01*
X94145Y104653D01*
X76476D01*
X75939Y104546D01*
X75483Y104242D01*
X75178Y103786D01*
X75071Y103248D01*
X75178Y102710D01*
X75483Y102255D01*
X75939Y101950D01*
X76476Y101843D01*
X94727D01*
X95265Y101950D01*
X95720Y102255D01*
X117151Y123686D01*
X117456Y124141D01*
X117563Y124679D01*
Y150603D01*
X117456Y151141D01*
X117151Y151597D01*
X116123Y152625D01*
X116108Y152702D01*
X115804Y153158D01*
X115348Y153462D01*
X114810Y153569D01*
D02*
G37*
G36*
X162894Y123944D02*
X162356Y123838D01*
X161900Y123533D01*
X161596Y123077D01*
X161489Y122540D01*
X161596Y122002D01*
X161900Y121546D01*
X162356Y121242D01*
X162894Y121135D01*
X163431Y121242D01*
X163887Y121546D01*
X164192Y122002D01*
X164299Y122540D01*
X164192Y123077D01*
X163887Y123533D01*
X163431Y123838D01*
X162894Y123944D01*
D02*
G37*
G36*
X153347Y124649D02*
X152502Y124481D01*
X151785Y124002D01*
X151307Y123286D01*
X151139Y122441D01*
X151307Y121596D01*
X151785Y120880D01*
X152502Y120401D01*
X153347Y120233D01*
X154191Y120401D01*
X154908Y120880D01*
X155386Y121596D01*
X155554Y122441D01*
X155386Y123286D01*
X154908Y124002D01*
X154191Y124481D01*
X153347Y124649D01*
D02*
G37*
G36*
X145768Y115775D02*
X145230Y115668D01*
X144774Y115364D01*
X144470Y114908D01*
X144363Y114370D01*
X144470Y113832D01*
X144774Y113377D01*
X145230Y113072D01*
X145768Y112965D01*
X146305Y113072D01*
X146761Y113377D01*
X147066Y113832D01*
X147173Y114370D01*
X147066Y114908D01*
X146761Y115364D01*
X146305Y115668D01*
X145768Y115775D01*
D02*
G37*
G36*
X86614Y117070D02*
X85769Y116902D01*
X85053Y116423D01*
X84575Y115707D01*
X84406Y114862D01*
X84575Y114017D01*
X85053Y113301D01*
X85769Y112822D01*
X86614Y112654D01*
X87459Y112822D01*
X88175Y113301D01*
X88654Y114017D01*
X88822Y114862D01*
X88654Y115707D01*
X88175Y116423D01*
X87459Y116902D01*
X86614Y117070D01*
D02*
G37*
G36*
X92716Y115381D02*
X92179Y115274D01*
X91723Y114970D01*
X91418Y114514D01*
X91312Y113976D01*
X91418Y113439D01*
X91723Y112983D01*
X92179Y112678D01*
X92716Y112571D01*
X93254Y112678D01*
X93710Y112983D01*
X94015Y113439D01*
X94121Y113976D01*
X94015Y114514D01*
X93710Y114970D01*
X93254Y115274D01*
X92716Y115381D01*
D02*
G37*
G36*
X126982Y118475D02*
X119404D01*
Y110896D01*
X126982D01*
Y118475D01*
D02*
G37*
G36*
X38976Y116267D02*
X38154Y116159D01*
X37388Y115842D01*
X36730Y115337D01*
X36225Y114679D01*
X35908Y113913D01*
X35800Y113091D01*
X35908Y112268D01*
X36225Y111502D01*
X36730Y110844D01*
X37388Y110339D01*
X38154Y110022D01*
X38976Y109914D01*
X39799Y110022D01*
X40565Y110339D01*
X41223Y110844D01*
X41728Y111502D01*
X42045Y112268D01*
X42153Y113091D01*
X42045Y113913D01*
X41728Y114679D01*
X41223Y115337D01*
X40565Y115842D01*
X39799Y116159D01*
X38976Y116267D01*
D02*
G37*
G36*
X67421Y112625D02*
X66884Y112519D01*
X66428Y112214D01*
X66123Y111758D01*
X66016Y111221D01*
X66123Y110683D01*
X66428Y110227D01*
X66884Y109923D01*
X67421Y109816D01*
X67959Y109923D01*
X68415Y110227D01*
X68719Y110683D01*
X68826Y111221D01*
X68719Y111758D01*
X68415Y112214D01*
X67959Y112519D01*
X67421Y112625D01*
D02*
G37*
G36*
X113019Y110558D02*
X112482Y110451D01*
X112026Y110147D01*
X111721Y109691D01*
X111615Y109153D01*
X111721Y108616D01*
X112026Y108160D01*
X112482Y107855D01*
X113019Y107749D01*
X113557Y107855D01*
X114013Y108160D01*
X114317Y108616D01*
X114424Y109153D01*
X114317Y109691D01*
X114013Y110147D01*
X113557Y110451D01*
X113019Y110558D01*
D02*
G37*
G36*
X72116Y110771D02*
X71271Y110603D01*
X70555Y110124D01*
X70076Y109408D01*
X69908Y108563D01*
X70076Y107718D01*
X70555Y107002D01*
X71271Y106523D01*
X72116Y106355D01*
X72961Y106523D01*
X73358Y106788D01*
X73754Y106523D01*
X74599Y106355D01*
X75444Y106523D01*
X76160Y107002D01*
X76639Y107718D01*
X76807Y108563D01*
X76639Y109408D01*
X76160Y110124D01*
X75444Y110603D01*
X74599Y110771D01*
X73754Y110603D01*
X73358Y110338D01*
X72961Y110603D01*
X72116Y110771D01*
D02*
G37*
G36*
X28051Y107212D02*
X27514Y107105D01*
X27058Y106800D01*
X26753Y106345D01*
X26646Y105807D01*
X26753Y105269D01*
X27058Y104814D01*
X27514Y104509D01*
X28051Y104402D01*
X28589Y104509D01*
X29045Y104814D01*
X29349Y105269D01*
X29456Y105807D01*
X29349Y106345D01*
X29045Y106800D01*
X28589Y107105D01*
X28051Y107212D01*
D02*
G37*
G36*
X118111Y104570D02*
X117573Y104463D01*
X117118Y104159D01*
X116813Y103703D01*
X116706Y103165D01*
X116813Y102628D01*
X117118Y102172D01*
X117573Y101867D01*
X118111Y101760D01*
X118649Y101867D01*
X119104Y102172D01*
X119409Y102628D01*
X119516Y103165D01*
X119409Y103703D01*
X119104Y104159D01*
X118649Y104463D01*
X118111Y104570D01*
D02*
G37*
G36*
X63090Y105653D02*
X62246Y105485D01*
X61529Y105006D01*
X61051Y104290D01*
X60883Y103445D01*
X61051Y102600D01*
X61529Y101884D01*
X62246Y101405D01*
X63090Y101237D01*
X63935Y101405D01*
X64652Y101884D01*
X65130Y102600D01*
X65298Y103445D01*
X65130Y104290D01*
X64652Y105006D01*
X63935Y105485D01*
X63090Y105653D01*
D02*
G37*
G36*
X48228Y104275D02*
X47383Y104107D01*
X46667Y103628D01*
X46189Y102912D01*
X46021Y102067D01*
X46189Y101222D01*
X46667Y100506D01*
X47383Y100027D01*
X48228Y99859D01*
X49073Y100027D01*
X49790Y100506D01*
X50268Y101222D01*
X50436Y102067D01*
X50268Y102912D01*
X49790Y103628D01*
X49073Y104107D01*
X48228Y104275D01*
D02*
G37*
G36*
X95965Y100141D02*
X95120Y99973D01*
X94403Y99494D01*
X93925Y98778D01*
X93757Y97933D01*
X93925Y97088D01*
X94403Y96372D01*
X95120Y95893D01*
X95965Y95725D01*
X96810Y95893D01*
X97526Y96372D01*
X98004Y97088D01*
X98172Y97933D01*
X98004Y98778D01*
X97526Y99494D01*
X96810Y99973D01*
X95965Y100141D01*
D02*
G37*
G36*
X106921Y96992D02*
X106383Y96885D01*
X105927Y96580D01*
X105623Y96124D01*
X105516Y95587D01*
X105623Y95049D01*
X105927Y94593D01*
X106383Y94289D01*
X106921Y94182D01*
X107458Y94289D01*
X107914Y94593D01*
X108219Y95049D01*
X108326Y95587D01*
X108219Y96124D01*
X107914Y96580D01*
X107458Y96885D01*
X106921Y96992D01*
D02*
G37*
G36*
X177362Y142060D02*
X176709Y141930D01*
X176156Y141561D01*
X175786Y141007D01*
X175656Y140354D01*
Y140301D01*
X175786Y139648D01*
X176115Y139156D01*
Y92783D01*
X175615Y92516D01*
X175587Y92534D01*
X175050Y92641D01*
X174512Y92534D01*
X174056Y92230D01*
X170545Y88719D01*
X170240Y88263D01*
X170225Y88251D01*
X169697Y88093D01*
X169152Y88457D01*
X168307Y88625D01*
X167462Y88457D01*
X166746Y87978D01*
X166267Y87262D01*
X166099Y86417D01*
X166267Y85572D01*
X166746Y84856D01*
X167462Y84378D01*
X168307Y84210D01*
X169152Y84378D01*
X169633Y84699D01*
X170133Y84432D01*
Y62360D01*
X170240Y61822D01*
X170545Y61367D01*
X171626Y60285D01*
Y35449D01*
X171733Y34911D01*
X172038Y34455D01*
X172494Y34151D01*
X173031Y34044D01*
X173569Y34151D01*
X174025Y34455D01*
X174329Y34911D01*
X174436Y35449D01*
Y60867D01*
X174329Y61405D01*
X174025Y61861D01*
X172943Y62942D01*
Y78426D01*
X173049Y78883D01*
X173049Y78883D01*
Y78883D01*
X173443Y78922D01*
X173454Y78867D01*
X173500Y78635D01*
X173783Y78211D01*
X174206Y77929D01*
X174706Y77829D01*
X175175Y77923D01*
X175189Y77921D01*
X175227Y77913D01*
X175656Y77629D01*
Y57579D01*
X175786Y56926D01*
X176156Y56373D01*
X176709Y56003D01*
X177362Y55873D01*
X178015Y56003D01*
X178569Y56373D01*
X178938Y56926D01*
X179068Y57579D01*
Y77184D01*
X179397Y77677D01*
X179527Y78330D01*
Y139842D01*
X179397Y140495D01*
X179027Y141049D01*
X178676Y141400D01*
X178569Y141561D01*
X178015Y141930D01*
X177362Y142060D01*
D02*
G37*
G36*
X143799Y95987D02*
X143131Y95899D01*
X142509Y95641D01*
X141974Y95231D01*
X141564Y94696D01*
X141306Y94074D01*
X141218Y93405D01*
X141306Y92738D01*
X141564Y92115D01*
X141974Y91580D01*
X142509Y91170D01*
X143131Y90912D01*
X143799Y90824D01*
X144467Y90912D01*
X145090Y91170D01*
X145624Y91580D01*
X146035Y92115D01*
X146292Y92738D01*
X146380Y93405D01*
X146292Y94074D01*
X146035Y94696D01*
X145624Y95231D01*
X145090Y95641D01*
X144467Y95899D01*
X143799Y95987D01*
D02*
G37*
G36*
X17421Y93821D02*
X16753Y93733D01*
X16131Y93476D01*
X15596Y93065D01*
X15186Y92531D01*
X14928Y91908D01*
X14840Y91240D01*
X14928Y90572D01*
X15186Y89950D01*
X15596Y89415D01*
X16131Y89005D01*
X16753Y88747D01*
X17421Y88659D01*
X18089Y88747D01*
X18712Y89005D01*
X19246Y89415D01*
X19657Y89950D01*
X19914Y90572D01*
X20002Y91240D01*
X19914Y91908D01*
X19657Y92531D01*
X19246Y93065D01*
X18712Y93476D01*
X18089Y93733D01*
X17421Y93821D01*
D02*
G37*
G36*
X118701Y92956D02*
X117856Y92788D01*
X117140Y92309D01*
X116661Y91593D01*
X116493Y90748D01*
X116661Y89903D01*
X117140Y89187D01*
X117856Y88708D01*
X118701Y88540D01*
X119546Y88708D01*
X120262Y89187D01*
X120740Y89903D01*
X120909Y90748D01*
X120740Y91593D01*
X120262Y92309D01*
X119546Y92788D01*
X118701Y92956D01*
D02*
G37*
G36*
X75295Y90081D02*
X74627Y89993D01*
X74005Y89735D01*
X73470Y89325D01*
X73060Y88791D01*
X72802Y88168D01*
X72714Y87500D01*
X72802Y86832D01*
X73060Y86209D01*
X73470Y85675D01*
X74005Y85265D01*
X74627Y85007D01*
X75295Y84919D01*
X75963Y85007D01*
X76586Y85265D01*
X77120Y85675D01*
X77531Y86209D01*
X77789Y86832D01*
X77876Y87500D01*
X77789Y88168D01*
X77531Y88791D01*
X77120Y89325D01*
X76586Y89735D01*
X75963Y89993D01*
X75295Y90081D01*
D02*
G37*
G36*
X239917Y84673D02*
X239094Y84565D01*
X238328Y84247D01*
X237670Y83742D01*
X237242D01*
X236584Y84247D01*
X235818Y84565D01*
X234996Y84673D01*
X234173Y84565D01*
X233407Y84247D01*
X232749Y83742D01*
X232244Y83085D01*
X231927Y82318D01*
X231819Y81496D01*
X231927Y80674D01*
X232244Y79908D01*
X232652Y79377D01*
X232712Y79036D01*
X232652Y78694D01*
X232244Y78163D01*
X231927Y77397D01*
X231819Y76575D01*
X231927Y75753D01*
X232244Y74987D01*
X232749Y74329D01*
X233407Y73824D01*
X234173Y73506D01*
X234996Y73398D01*
X235818Y73506D01*
X236584Y73824D01*
X237242Y74329D01*
X237670D01*
X238328Y73824D01*
X239094Y73506D01*
X239917Y73398D01*
X240739Y73506D01*
X241505Y73824D01*
X242163Y74329D01*
X242668Y74987D01*
X242985Y75753D01*
X243093Y76575D01*
X242985Y77397D01*
X242668Y78163D01*
X242261Y78694D01*
X242201Y79036D01*
X242261Y79377D01*
X242668Y79908D01*
X242985Y80674D01*
X243093Y81496D01*
X242985Y82318D01*
X242668Y83085D01*
X242163Y83742D01*
X241505Y84247D01*
X240739Y84565D01*
X239917Y84673D01*
D02*
G37*
G36*
X254134Y86164D02*
X253289Y85996D01*
X252573Y85518D01*
X252094Y84802D01*
X251926Y83957D01*
X252094Y83112D01*
X252573Y82396D01*
X253289Y81917D01*
X254134Y81749D01*
X254979Y81917D01*
X255695Y82396D01*
X256174Y83112D01*
X256342Y83957D01*
X256174Y84802D01*
X255695Y85518D01*
X254979Y85996D01*
X254134Y86164D01*
D02*
G37*
G36*
X225121Y77780D02*
X224584Y77674D01*
X224128Y77369D01*
X223823Y76913D01*
X223716Y76376D01*
X223823Y75838D01*
X224128Y75382D01*
X224584Y75077D01*
X225121Y74971D01*
X225659Y75077D01*
X226115Y75382D01*
X226419Y75838D01*
X226526Y76376D01*
X226419Y76913D01*
X226115Y77369D01*
X225659Y77674D01*
X225121Y77780D01*
D02*
G37*
G36*
X153937Y107425D02*
X153399Y107318D01*
X152944Y107013D01*
X152639Y106557D01*
X152532Y106020D01*
X152639Y105482D01*
X152944Y105026D01*
X158914Y99056D01*
Y71729D01*
X158414Y71534D01*
X157833Y71922D01*
X156988Y72090D01*
X156143Y71922D01*
X155427Y71443D01*
X154948Y70727D01*
X154780Y69882D01*
X154948Y69037D01*
X155427Y68321D01*
X156143Y67842D01*
X156988Y67674D01*
X157833Y67842D01*
X158442Y68249D01*
X158836Y68159D01*
X158986Y68075D01*
X159021Y67901D01*
X159326Y67445D01*
X160304Y66466D01*
Y47024D01*
X159804Y46756D01*
X159671Y46845D01*
X159134Y46952D01*
X158596Y46845D01*
X158140Y46540D01*
X157836Y46084D01*
X157729Y45547D01*
X157836Y45009D01*
X158140Y44553D01*
X158596Y44249D01*
X159134Y44142D01*
X159671Y44249D01*
X159804Y44337D01*
X160304Y44070D01*
Y41720D01*
X158258Y39674D01*
X157954Y39219D01*
X157847Y38681D01*
X157954Y38144D01*
X158258Y37688D01*
X158714Y37383D01*
X159252Y37276D01*
X159790Y37383D01*
X160245Y37688D01*
X162702Y40144D01*
X163007Y40600D01*
X163114Y41138D01*
Y67049D01*
X163007Y67586D01*
X162991Y67609D01*
X163221Y68165D01*
X163431Y68207D01*
X163887Y68511D01*
X164192Y68967D01*
X164299Y69505D01*
X164192Y70042D01*
X163887Y70498D01*
X163431Y70803D01*
X162894Y70910D01*
X162356Y70803D01*
X162224Y70714D01*
X161724Y70982D01*
Y99638D01*
X161617Y100175D01*
X161312Y100631D01*
X154930Y107013D01*
X154475Y107318D01*
X153937Y107425D01*
D02*
G37*
G36*
X20276Y73354D02*
X19738Y73247D01*
X19282Y72942D01*
X18978Y72487D01*
X18871Y71949D01*
X18978Y71411D01*
X19282Y70955D01*
X19738Y70651D01*
X20276Y70544D01*
X20813Y70651D01*
X21269Y70955D01*
X21574Y71411D01*
X21680Y71949D01*
X21574Y72487D01*
X21269Y72942D01*
X20813Y73247D01*
X20276Y73354D01*
D02*
G37*
G36*
X131299Y75514D02*
X130631Y75426D01*
X130009Y75168D01*
X129474Y74758D01*
X129064Y74224D01*
X128806Y73601D01*
X128718Y72933D01*
X128806Y72265D01*
X129064Y71643D01*
X129474Y71108D01*
X130009Y70698D01*
X130631Y70440D01*
X131299Y70352D01*
X131967Y70440D01*
X132590Y70698D01*
X133124Y71108D01*
X133535Y71643D01*
X133792Y72265D01*
X133880Y72933D01*
X133792Y73601D01*
X133535Y74224D01*
X133124Y74758D01*
X132590Y75168D01*
X131967Y75426D01*
X131299Y75514D01*
D02*
G37*
G36*
X225180Y73524D02*
X224335Y73356D01*
X223619Y72878D01*
X223141Y72161D01*
X222972Y71316D01*
X223141Y70472D01*
X223619Y69755D01*
X224335Y69277D01*
X225180Y69109D01*
X226025Y69277D01*
X226741Y69755D01*
X227220Y70472D01*
X227388Y71316D01*
X227220Y72161D01*
X226741Y72878D01*
X226025Y73356D01*
X225180Y73524D01*
D02*
G37*
G36*
X108153Y70499D02*
X107616Y70393D01*
X107160Y70088D01*
X106855Y69632D01*
X106749Y69095D01*
X106855Y68557D01*
X107160Y68101D01*
X107616Y67796D01*
X108153Y67690D01*
X108691Y67796D01*
X109147Y68101D01*
X109451Y68557D01*
X109558Y69095D01*
X109451Y69632D01*
X109147Y70088D01*
X108691Y70393D01*
X108153Y70499D01*
D02*
G37*
G36*
X30709Y70303D02*
X30171Y70196D01*
X29715Y69891D01*
X29411Y69435D01*
X29304Y68898D01*
X29411Y68360D01*
X29715Y67904D01*
X30171Y67600D01*
X30709Y67493D01*
X31246Y67600D01*
X31702Y67904D01*
X32007Y68360D01*
X32114Y68898D01*
X32007Y69435D01*
X31702Y69891D01*
X31246Y70196D01*
X30709Y70303D01*
D02*
G37*
G36*
X188287Y72365D02*
X187619Y72277D01*
X186997Y72019D01*
X186462Y71609D01*
X186052Y71074D01*
X185794Y70451D01*
X185706Y69784D01*
X185794Y69115D01*
X186052Y68493D01*
X186462Y67958D01*
X186997Y67548D01*
X187619Y67290D01*
X188287Y67202D01*
X188955Y67290D01*
X189578Y67548D01*
X190112Y67958D01*
X190523Y68493D01*
X190781Y69115D01*
X190868Y69784D01*
X190781Y70451D01*
X190523Y71074D01*
X190112Y71609D01*
X189578Y72019D01*
X188955Y72277D01*
X188287Y72365D01*
D02*
G37*
G36*
X246259Y72764D02*
X245437Y72655D01*
X244671Y72338D01*
X244013Y71833D01*
X243508Y71175D01*
X243191Y70409D01*
X243082Y69587D01*
X243191Y68765D01*
X243508Y67998D01*
X244013Y67340D01*
X244671Y66836D01*
X245437Y66518D01*
X246259Y66410D01*
X247081Y66518D01*
X247848Y66836D01*
X248506Y67340D01*
X249010Y67998D01*
X249328Y68765D01*
X249436Y69587D01*
X249328Y70409D01*
X249010Y71175D01*
X248506Y71833D01*
X247848Y72338D01*
X247081Y72655D01*
X246259Y72764D01*
D02*
G37*
G36*
X262697Y68039D02*
X262159Y67932D01*
X261703Y67628D01*
X261399Y67172D01*
X261292Y66634D01*
X261399Y66096D01*
X261703Y65641D01*
X262159Y65336D01*
X262697Y65229D01*
X263235Y65336D01*
X263690Y65641D01*
X263995Y66096D01*
X264102Y66634D01*
X263995Y67172D01*
X263690Y67628D01*
X263235Y67932D01*
X262697Y68039D01*
D02*
G37*
G36*
X237992Y67448D02*
X237455Y67341D01*
X236999Y67037D01*
X236694Y66581D01*
X236587Y66043D01*
X236694Y65506D01*
X236999Y65050D01*
X237455Y64745D01*
X237992Y64638D01*
X238530Y64745D01*
X238986Y65050D01*
X239290Y65506D01*
X239397Y66043D01*
X239290Y66581D01*
X238986Y67037D01*
X238530Y67341D01*
X237992Y67448D01*
D02*
G37*
G36*
X274661Y67350D02*
X274123Y67243D01*
X273667Y66939D01*
X273363Y66483D01*
X273256Y65945D01*
X273363Y65407D01*
X273667Y64952D01*
X274123Y64647D01*
X274661Y64540D01*
X275199Y64647D01*
X275654Y64952D01*
X275959Y65407D01*
X276066Y65945D01*
X275959Y66483D01*
X275654Y66939D01*
X275199Y67243D01*
X274661Y67350D01*
D02*
G37*
G36*
X248130Y65298D02*
X247285Y65130D01*
X246569Y64652D01*
X246138Y64007D01*
X245866Y63968D01*
X245595Y64007D01*
X245163Y64652D01*
X244447Y65130D01*
X243602Y65298D01*
X242758Y65130D01*
X242041Y64652D01*
X241563Y63935D01*
X241395Y63090D01*
X241563Y62246D01*
X242041Y61529D01*
X242758Y61051D01*
X243602Y60883D01*
X244447Y61051D01*
X245163Y61529D01*
X245595Y62175D01*
X245866Y62213D01*
X246138Y62175D01*
X246569Y61529D01*
X247285Y61051D01*
X248130Y60883D01*
X248975Y61051D01*
X249691Y61529D01*
X250170Y62246D01*
X250338Y63090D01*
X250170Y63935D01*
X249691Y64652D01*
X248975Y65130D01*
X248130Y65298D01*
D02*
G37*
G36*
X268307Y65594D02*
X267462Y65425D01*
X266746Y64947D01*
X266267Y64231D01*
X266099Y63386D01*
X266267Y62541D01*
X266746Y61825D01*
X267462Y61346D01*
X268307Y61178D01*
X269152Y61346D01*
X269868Y61825D01*
X270347Y62541D01*
X270515Y63386D01*
X270347Y64231D01*
X269868Y64947D01*
X269152Y65425D01*
X268307Y65594D01*
D02*
G37*
G36*
X260433Y65101D02*
X259588Y64933D01*
X258872Y64455D01*
X258393Y63739D01*
X258225Y62894D01*
X258393Y62049D01*
X258872Y61333D01*
X259588Y60854D01*
X260433Y60686D01*
X261278Y60854D01*
X261994Y61333D01*
X262473Y62049D01*
X262641Y62894D01*
X262473Y63739D01*
X261994Y64455D01*
X261278Y64933D01*
X260433Y65101D01*
D02*
G37*
G36*
X146752Y63019D02*
X146214Y62912D01*
X145758Y62608D01*
X145454Y62152D01*
X145347Y61614D01*
X145454Y61076D01*
X145758Y60621D01*
X146214Y60316D01*
X146752Y60209D01*
X147290Y60316D01*
X147745Y60621D01*
X148050Y61076D01*
X148157Y61614D01*
X148050Y62152D01*
X147745Y62608D01*
X147290Y62912D01*
X146752Y63019D01*
D02*
G37*
G36*
X231693Y64019D02*
X230848Y63851D01*
X230132Y63372D01*
X229653Y62656D01*
X229485Y61811D01*
X229653Y60966D01*
X230132Y60250D01*
X230848Y59771D01*
X231693Y59603D01*
X232538Y59771D01*
X233254Y60250D01*
X233733Y60966D01*
X233901Y61811D01*
X233733Y62656D01*
X233254Y63372D01*
X232538Y63851D01*
X231693Y64019D01*
D02*
G37*
G36*
X274661Y60952D02*
X274123Y60845D01*
X273667Y60541D01*
X273363Y60085D01*
X273256Y59547D01*
X273363Y59010D01*
X273667Y58554D01*
X274123Y58249D01*
X274661Y58143D01*
X275199Y58249D01*
X275654Y58554D01*
X275959Y59010D01*
X276066Y59547D01*
X275959Y60085D01*
X275654Y60541D01*
X275199Y60845D01*
X274661Y60952D01*
D02*
G37*
G36*
X127278Y65440D02*
X119699D01*
Y57861D01*
X127278D01*
Y65440D01*
D02*
G37*
G36*
X203839Y61932D02*
X203170Y61844D01*
X202548Y61586D01*
X202013Y61176D01*
X201603Y60641D01*
X201345Y60018D01*
X201257Y59350D01*
X201345Y58682D01*
X201603Y58060D01*
X202013Y57525D01*
X202548Y57115D01*
X203170Y56857D01*
X203839Y56769D01*
X204507Y56857D01*
X205129Y57115D01*
X205664Y57525D01*
X206074Y58060D01*
X206332Y58682D01*
X206420Y59350D01*
X206332Y60018D01*
X206074Y60641D01*
X205664Y61176D01*
X205129Y61586D01*
X204507Y61844D01*
X203839Y61932D01*
D02*
G37*
G36*
X112704Y60316D02*
X111859Y60148D01*
X111142Y59669D01*
X110664Y58953D01*
X110496Y58108D01*
X110664Y57263D01*
X111142Y56547D01*
X111859Y56068D01*
X112704Y55900D01*
X113548Y56068D01*
X114050Y56404D01*
X114608Y56031D01*
X115453Y55863D01*
X116298Y56031D01*
X117014Y56510D01*
X117492Y57226D01*
X117660Y58071D01*
X117492Y58916D01*
X117014Y59632D01*
X116298Y60111D01*
X115453Y60279D01*
X114608Y60111D01*
X114106Y59775D01*
X113548Y60148D01*
X112704Y60316D01*
D02*
G37*
G36*
X100591Y60849D02*
X99923Y60761D01*
X99300Y60503D01*
X98765Y60093D01*
X98355Y59558D01*
X98097Y58936D01*
X98009Y58268D01*
X98097Y57600D01*
X98355Y56977D01*
X98765Y56443D01*
X99300Y56032D01*
X99923Y55774D01*
X100591Y55687D01*
X101259Y55774D01*
X101881Y56032D01*
X102416Y56443D01*
X102826Y56977D01*
X103084Y57600D01*
X103172Y58268D01*
X103084Y58936D01*
X102826Y59558D01*
X102416Y60093D01*
X101881Y60503D01*
X101259Y60761D01*
X100591Y60849D01*
D02*
G37*
G36*
X66732Y60849D02*
X66064Y60761D01*
X65441Y60503D01*
X64907Y60093D01*
X64497Y59558D01*
X64239Y58936D01*
X64151Y58268D01*
X64239Y57600D01*
X64497Y56977D01*
X64907Y56443D01*
X65441Y56032D01*
X66064Y55774D01*
X66732Y55687D01*
X67400Y55774D01*
X68022Y56032D01*
X68557Y56443D01*
X68967Y56977D01*
X69225Y57600D01*
X69313Y58268D01*
X69225Y58936D01*
X68967Y59558D01*
X68557Y60093D01*
X68022Y60503D01*
X67400Y60761D01*
X66732Y60849D01*
D02*
G37*
G36*
X247933Y54275D02*
X247088Y54107D01*
X246372Y53628D01*
X246167Y53321D01*
X245566D01*
X245360Y53628D01*
X244644Y54107D01*
X243799Y54275D01*
X242954Y54107D01*
X242238Y53628D01*
X241759Y52912D01*
X241591Y52067D01*
X241759Y51222D01*
X242238Y50506D01*
X242954Y50027D01*
X243799Y49859D01*
X244644Y50027D01*
X245360Y50506D01*
X245566Y50813D01*
X246167D01*
X246372Y50506D01*
X247088Y50027D01*
X247933Y49859D01*
X248778Y50027D01*
X249494Y50506D01*
X249973Y51222D01*
X250141Y52067D01*
X249973Y52912D01*
X249494Y53628D01*
X248778Y54107D01*
X247933Y54275D01*
D02*
G37*
G36*
X110531Y52980D02*
X109994Y52873D01*
X109538Y52568D01*
X109233Y52113D01*
X109126Y51575D01*
X109233Y51037D01*
X109538Y50581D01*
X109994Y50277D01*
X110531Y50170D01*
X111069Y50277D01*
X111525Y50581D01*
X111829Y51037D01*
X111936Y51575D01*
X111829Y52113D01*
X111525Y52568D01*
X111069Y52873D01*
X110531Y52980D01*
D02*
G37*
G36*
X68110Y53959D02*
X67442Y53871D01*
X66819Y53613D01*
X66285Y53203D01*
X65874Y52668D01*
X65617Y52046D01*
X65529Y51378D01*
X65617Y50710D01*
X65874Y50087D01*
X66285Y49553D01*
X66819Y49143D01*
X67442Y48885D01*
X68110Y48797D01*
X68778Y48885D01*
X69400Y49143D01*
X69935Y49553D01*
X70345Y50087D01*
X70603Y50710D01*
X70691Y51378D01*
X70603Y52046D01*
X70345Y52668D01*
X69935Y53203D01*
X69400Y53613D01*
X68778Y53871D01*
X68110Y53959D01*
D02*
G37*
G36*
X219488Y53762D02*
X218820Y53674D01*
X218198Y53416D01*
X217663Y53006D01*
X217253Y52472D01*
X216995Y51849D01*
X216907Y51181D01*
X216995Y50513D01*
X217253Y49891D01*
X217663Y49356D01*
X218198Y48946D01*
X218820Y48688D01*
X219488Y48600D01*
X220156Y48688D01*
X220779Y48946D01*
X221313Y49356D01*
X221724Y49891D01*
X221981Y50513D01*
X222069Y51181D01*
X221981Y51849D01*
X221724Y52472D01*
X221313Y53006D01*
X220779Y53416D01*
X220156Y53674D01*
X219488Y53762D01*
D02*
G37*
G36*
X94291Y49058D02*
X93446Y48890D01*
X92730Y48412D01*
X92252Y47695D01*
X92084Y46850D01*
X92252Y46005D01*
X92730Y45289D01*
X93446Y44811D01*
X94291Y44643D01*
X95136Y44811D01*
X95853Y45289D01*
X96331Y46005D01*
X96499Y46850D01*
X96331Y47695D01*
X95853Y48412D01*
X95136Y48890D01*
X94291Y49058D01*
D02*
G37*
G36*
X239917Y45303D02*
X239094Y45195D01*
X238328Y44877D01*
X237670Y44372D01*
X237242D01*
X236584Y44877D01*
X235818Y45195D01*
X234996Y45303D01*
X234173Y45195D01*
X233407Y44877D01*
X232749Y44372D01*
X232244Y43714D01*
X231927Y42948D01*
X231819Y42126D01*
X231927Y41304D01*
X232244Y40538D01*
X232652Y40007D01*
X232712Y39665D01*
X232652Y39324D01*
X232244Y38793D01*
X231927Y38027D01*
X231819Y37205D01*
X231927Y36383D01*
X232244Y35616D01*
X232749Y34959D01*
X233407Y34454D01*
X234173Y34136D01*
X234996Y34028D01*
X235818Y34136D01*
X236584Y34454D01*
X237242Y34959D01*
X237670D01*
X238328Y34454D01*
X239094Y34136D01*
X239917Y34028D01*
X240739Y34136D01*
X241505Y34454D01*
X242163Y34959D01*
X242668Y35616D01*
X242985Y36383D01*
X243093Y37205D01*
X242985Y38027D01*
X242668Y38793D01*
X242261Y39324D01*
X242201Y39665D01*
X242261Y40007D01*
X242668Y40538D01*
X242985Y41304D01*
X243093Y42126D01*
X242985Y42948D01*
X242668Y43714D01*
X242163Y44372D01*
X241505Y44877D01*
X240739Y45195D01*
X239917Y45303D01*
D02*
G37*
G36*
X114810Y45695D02*
X114272Y45588D01*
X113817Y45284D01*
X113512Y44828D01*
X113405Y44290D01*
X113512Y43753D01*
X113817Y43297D01*
X114272Y42992D01*
X114810Y42886D01*
X115348Y42992D01*
X115804Y43297D01*
X116108Y43753D01*
X116215Y44290D01*
X116108Y44828D01*
X115804Y45284D01*
X115348Y45588D01*
X114810Y45695D01*
D02*
G37*
G36*
X63779Y45401D02*
X63242Y45294D01*
X62786Y44989D01*
X62481Y44534D01*
X62375Y43996D01*
X62481Y43458D01*
X62786Y43003D01*
X63242Y42698D01*
X63779Y42591D01*
X64317Y42698D01*
X64773Y43003D01*
X65078Y43458D01*
X65184Y43996D01*
X65078Y44534D01*
X64773Y44989D01*
X64317Y45294D01*
X63779Y45401D01*
D02*
G37*
G36*
X145156Y47135D02*
X144488Y47047D01*
X143866Y46789D01*
X143331Y46379D01*
X142921Y45845D01*
X142663Y45222D01*
X142575Y44554D01*
X142663Y43886D01*
X142921Y43264D01*
X143331Y42729D01*
X143866Y42319D01*
X144488Y42061D01*
X145156Y41973D01*
X145824Y42061D01*
X146447Y42319D01*
X146981Y42729D01*
X147392Y43264D01*
X147649Y43886D01*
X147737Y44554D01*
X147649Y45222D01*
X147392Y45845D01*
X146981Y46379D01*
X146447Y46789D01*
X145824Y47047D01*
X145156Y47135D01*
D02*
G37*
G36*
X43209Y43236D02*
X42671Y43129D01*
X42215Y42824D01*
X41911Y42368D01*
X41804Y41831D01*
X41911Y41293D01*
X42215Y40837D01*
X42671Y40533D01*
X43209Y40426D01*
X43746Y40533D01*
X44202Y40837D01*
X44507Y41293D01*
X44614Y41831D01*
X44507Y42368D01*
X44202Y42824D01*
X43746Y43129D01*
X43209Y43236D01*
D02*
G37*
G36*
X195965Y42148D02*
X195297Y42060D01*
X194674Y41802D01*
X194139Y41392D01*
X193729Y40857D01*
X193471Y40235D01*
X193383Y39567D01*
X193471Y38899D01*
X193729Y38276D01*
X194139Y37742D01*
X194674Y37332D01*
X195297Y37074D01*
X195965Y36986D01*
X196633Y37074D01*
X197255Y37332D01*
X197790Y37742D01*
X198200Y38276D01*
X198458Y38899D01*
X198546Y39567D01*
X198458Y40235D01*
X198200Y40857D01*
X197790Y41392D01*
X197255Y41802D01*
X196633Y42060D01*
X195965Y42148D01*
D02*
G37*
G36*
X87008Y41951D02*
X86340Y41863D01*
X85717Y41605D01*
X85183Y41195D01*
X84773Y40661D01*
X84515Y40038D01*
X84427Y39370D01*
X84515Y38702D01*
X84773Y38080D01*
X85183Y37545D01*
X85717Y37135D01*
X86340Y36877D01*
X87008Y36789D01*
X87676Y36877D01*
X88298Y37135D01*
X88833Y37545D01*
X89243Y38080D01*
X89501Y38702D01*
X89589Y39370D01*
X89501Y40038D01*
X89243Y40661D01*
X88833Y41195D01*
X88298Y41605D01*
X87676Y41863D01*
X87008Y41951D01*
D02*
G37*
G36*
X178051Y38216D02*
X177514Y38109D01*
X177058Y37805D01*
X176753Y37349D01*
X176646Y36811D01*
X176753Y36274D01*
X177058Y35818D01*
X177514Y35513D01*
X178051Y35406D01*
X178589Y35513D01*
X179045Y35818D01*
X179349Y36274D01*
X179456Y36811D01*
X179349Y37349D01*
X179045Y37805D01*
X178589Y38109D01*
X178051Y38216D01*
D02*
G37*
G36*
X168110Y38113D02*
X167442Y38025D01*
X166820Y37767D01*
X166285Y37357D01*
X165875Y36822D01*
X165617Y36200D01*
X165529Y35531D01*
X165617Y34863D01*
X165875Y34241D01*
X166285Y33706D01*
X166820Y33296D01*
X167442Y33038D01*
X168110Y32950D01*
X168778Y33038D01*
X169401Y33296D01*
X169935Y33706D01*
X170346Y34241D01*
X170603Y34863D01*
X170691Y35531D01*
X170603Y36200D01*
X170346Y36822D01*
X169935Y37357D01*
X169401Y37767D01*
X168778Y38025D01*
X168110Y38113D01*
D02*
G37*
G36*
X59252Y34279D02*
X58714Y34172D01*
X58258Y33867D01*
X57954Y33412D01*
X57847Y32874D01*
X57954Y32336D01*
X58258Y31881D01*
X58714Y31576D01*
X59252Y31469D01*
X59790Y31576D01*
X60245Y31881D01*
X60550Y32336D01*
X60657Y32874D01*
X60550Y33412D01*
X60245Y33867D01*
X59790Y34172D01*
X59252Y34279D01*
D02*
G37*
G36*
X214469Y32228D02*
X213624Y32059D01*
X212907Y31581D01*
X212429Y30865D01*
X212261Y30020D01*
X212429Y29175D01*
X212907Y28459D01*
X213624Y27980D01*
X214469Y27812D01*
X215313Y27980D01*
X216030Y28459D01*
X216508Y29175D01*
X216676Y30020D01*
X216508Y30865D01*
X216030Y31581D01*
X215313Y32059D01*
X214469Y32228D01*
D02*
G37*
G36*
X178740D02*
X177895Y32059D01*
X177179Y31581D01*
X176700Y30865D01*
X176532Y30020D01*
X176700Y29175D01*
X177179Y28459D01*
X177895Y27980D01*
X178740Y27812D01*
X179585Y27980D01*
X180301Y28459D01*
X180780Y29175D01*
X180948Y30020D01*
X180780Y30865D01*
X180301Y31581D01*
X179585Y32059D01*
X178740Y32228D01*
D02*
G37*
G36*
X103150Y29259D02*
X102612Y29152D01*
X102156Y28848D01*
X101852Y28392D01*
X101745Y27854D01*
X101852Y27317D01*
X102156Y26861D01*
X102612Y26556D01*
X103150Y26449D01*
X103687Y26556D01*
X104143Y26861D01*
X104448Y27317D01*
X104555Y27854D01*
X104448Y28392D01*
X104143Y28848D01*
X103687Y29152D01*
X103150Y29259D01*
D02*
G37*
G36*
X167323Y28570D02*
X166785Y28463D01*
X166329Y28159D01*
X166025Y27703D01*
X165918Y27165D01*
X166025Y26628D01*
X166329Y26172D01*
X166785Y25867D01*
X167323Y25760D01*
X167860Y25867D01*
X168316Y26172D01*
X168621Y26628D01*
X168728Y27165D01*
X168621Y27703D01*
X168316Y28159D01*
X167860Y28463D01*
X167323Y28570D01*
D02*
G37*
G36*
X70965Y26892D02*
X70297Y26804D01*
X69674Y26546D01*
X69139Y26136D01*
X68729Y25602D01*
X68471Y24979D01*
X68383Y24311D01*
X68471Y23643D01*
X68729Y23020D01*
X69139Y22486D01*
X69674Y22076D01*
X70297Y21818D01*
X70965Y21730D01*
X71633Y21818D01*
X72255Y22076D01*
X72790Y22486D01*
X73200Y23020D01*
X73458Y23643D01*
X73546Y24311D01*
X73458Y24979D01*
X73200Y25602D01*
X72790Y26136D01*
X72255Y26546D01*
X71633Y26804D01*
X70965Y26892D01*
D02*
G37*
G36*
X190354Y26302D02*
X189686Y26214D01*
X189064Y25956D01*
X188529Y25546D01*
X188119Y25011D01*
X187861Y24388D01*
X187773Y23720D01*
X187861Y23052D01*
X188119Y22430D01*
X188529Y21895D01*
X189064Y21485D01*
X189686Y21227D01*
X190354Y21139D01*
X191022Y21227D01*
X191645Y21485D01*
X192180Y21895D01*
X192590Y22430D01*
X192848Y23052D01*
X192936Y23720D01*
X192848Y24388D01*
X192590Y25011D01*
X192180Y25546D01*
X191645Y25956D01*
X191022Y26214D01*
X190354Y26302D01*
D02*
G37*
G36*
X111909Y24431D02*
X111241Y24344D01*
X110619Y24086D01*
X110084Y23675D01*
X109674Y23141D01*
X109416Y22518D01*
X109328Y21850D01*
X109416Y21182D01*
X109674Y20560D01*
X110084Y20025D01*
X110619Y19615D01*
X111241Y19357D01*
X111909Y19269D01*
X112577Y19357D01*
X113200Y19615D01*
X113735Y20025D01*
X114145Y20560D01*
X114403Y21182D01*
X114491Y21850D01*
X114403Y22518D01*
X114145Y23141D01*
X113735Y23675D01*
X113200Y24086D01*
X112577Y24344D01*
X111909Y24431D01*
D02*
G37*
G36*
X124016Y20763D02*
X123478Y20656D01*
X123022Y20352D01*
X122718Y19896D01*
X122611Y19358D01*
X122718Y18821D01*
X123022Y18365D01*
X123478Y18060D01*
X124016Y17953D01*
X124553Y18060D01*
X125009Y18365D01*
X125314Y18821D01*
X125421Y19358D01*
X125314Y19896D01*
X125009Y20352D01*
X124553Y20656D01*
X124016Y20763D01*
D02*
G37*
G36*
X162894Y18630D02*
X162356Y18523D01*
X161900Y18218D01*
X161596Y17762D01*
X161489Y17225D01*
X161596Y16687D01*
X161900Y16231D01*
X162356Y15927D01*
X162894Y15820D01*
X163431Y15927D01*
X163887Y16231D01*
X164192Y16687D01*
X164299Y17225D01*
X164192Y17762D01*
X163887Y18218D01*
X163431Y18523D01*
X162894Y18630D01*
D02*
G37*
G36*
X28346Y19811D02*
X27524Y19702D01*
X26758Y19385D01*
X26100Y18880D01*
X25595Y18222D01*
X25278Y17456D01*
X25170Y16634D01*
X25278Y15812D01*
X25595Y15045D01*
X26100Y14388D01*
X26758Y13883D01*
X27524Y13565D01*
X28346Y13457D01*
X29169Y13565D01*
X29935Y13883D01*
X30593Y14388D01*
X31098Y15045D01*
X31415Y15812D01*
X31523Y16634D01*
X31415Y17456D01*
X31098Y18222D01*
X30593Y18880D01*
X29935Y19385D01*
X29169Y19702D01*
X28346Y19811D01*
D02*
G37*
G36*
X146457Y18546D02*
X145612Y18378D01*
X144896Y17900D01*
X144417Y17184D01*
X144249Y16339D01*
X144417Y15494D01*
X144896Y14777D01*
X145612Y14299D01*
X146202Y14181D01*
X146269Y13892D01*
X146255Y13661D01*
X145857Y13395D01*
X145552Y12939D01*
X145445Y12402D01*
X145552Y11864D01*
X145857Y11408D01*
X146313Y11104D01*
X146850Y10997D01*
X147388Y11104D01*
X147844Y11408D01*
X148148Y11864D01*
X148255Y12402D01*
X148148Y12939D01*
X147844Y13395D01*
X147388Y13700D01*
X147120Y13753D01*
Y14263D01*
X147302Y14299D01*
X148018Y14777D01*
X148496Y15494D01*
X148664Y16339D01*
X148496Y17184D01*
X148018Y17900D01*
X147302Y18378D01*
X146457Y18546D01*
D02*
G37*
G36*
X178740Y12921D02*
X178202Y12814D01*
X177747Y12509D01*
X177442Y12053D01*
X177335Y11516D01*
X177442Y10978D01*
X177747Y10522D01*
X178202Y10218D01*
X178740Y10111D01*
X179278Y10218D01*
X179734Y10522D01*
X180038Y10978D01*
X180145Y11516D01*
X180038Y12053D01*
X179734Y12509D01*
X179278Y12814D01*
X178740Y12921D01*
D02*
G37*
G36*
X127278Y16211D02*
X119699D01*
Y8632D01*
X127278D01*
Y16211D01*
D02*
G37*
G36*
X274803Y12330D02*
X273981Y12222D01*
X273215Y11905D01*
X272557Y11400D01*
X272052Y10742D01*
X271735Y9976D01*
X271626Y9154D01*
X271735Y8331D01*
X272052Y7565D01*
X272557Y6907D01*
X273215Y6402D01*
X273981Y6085D01*
X274803Y5977D01*
X275625Y6085D01*
X276392Y6402D01*
X277049Y6907D01*
X277554Y7565D01*
X277872Y8331D01*
X277980Y9154D01*
X277872Y9976D01*
X277554Y10742D01*
X277049Y11400D01*
X276392Y11905D01*
X275625Y12222D01*
X274803Y12330D01*
D02*
G37*
G36*
X226083Y9766D02*
X225415Y9678D01*
X224792Y9420D01*
X224257Y9010D01*
X223847Y8476D01*
X223589Y7853D01*
X223501Y7185D01*
X223589Y6517D01*
X223847Y5895D01*
X224257Y5360D01*
X224792Y4950D01*
X225415Y4692D01*
X226083Y4604D01*
X226751Y4692D01*
X227373Y4950D01*
X227908Y5360D01*
X228318Y5895D01*
X228576Y6517D01*
X228664Y7185D01*
X228576Y7853D01*
X228318Y8476D01*
X227908Y9010D01*
X227373Y9420D01*
X226751Y9678D01*
X226083Y9766D01*
D02*
G37*
G36*
X427218Y303130D02*
X426325D01*
X425500Y302788D01*
X424869Y302157D01*
X424528Y301332D01*
Y300439D01*
X424869Y299615D01*
X425500Y298983D01*
X426325Y298642D01*
X427218D01*
X428043Y298983D01*
X428674Y299615D01*
X429016Y300439D01*
Y301332D01*
X428674Y302157D01*
X428043Y302788D01*
X427218Y303130D01*
D02*
G37*
G36*
X341261Y299114D02*
X340432D01*
X339631Y298900D01*
X338913Y298485D01*
X338326Y297899D01*
X337912Y297180D01*
X337697Y296379D01*
Y295550D01*
X337912Y294749D01*
X338326Y294031D01*
X338913Y293444D01*
X339631Y293030D01*
X340432Y292815D01*
X341261D01*
X342062Y293030D01*
X342780Y293444D01*
X343367Y294031D01*
X343781Y294749D01*
X343996Y295550D01*
Y296379D01*
X343781Y297180D01*
X343367Y297899D01*
X342780Y298485D01*
X342062Y298900D01*
X341261Y299114D01*
D02*
G37*
G36*
X414407Y289567D02*
X413546D01*
X412750Y289237D01*
X412141Y288628D01*
X411811Y287832D01*
Y286971D01*
X412141Y286175D01*
X412750Y285566D01*
X413546Y285236D01*
X414407D01*
X415203Y285566D01*
X415812Y286175D01*
X416142Y286971D01*
Y287832D01*
X415812Y288628D01*
X415203Y289237D01*
X414407Y289567D01*
D02*
G37*
G36*
X396221Y304823D02*
X394331D01*
X392464Y304527D01*
X390666Y303943D01*
X388982Y303085D01*
X387453Y301974D01*
X386117Y300638D01*
X385005Y299109D01*
X384148Y297424D01*
X383563Y295627D01*
X383268Y293760D01*
Y291870D01*
X383563Y290003D01*
X384148Y288206D01*
X385005Y286522D01*
X386117Y284992D01*
X387453Y283656D01*
X388982Y282545D01*
X390666Y281687D01*
X392464Y281103D01*
X394331Y280807D01*
X396221D01*
X398087Y281103D01*
X399885Y281687D01*
X401569Y282545D01*
X403098Y283656D01*
X404435Y284992D01*
X405546Y286522D01*
X406404Y288206D01*
X406988Y290003D01*
X407283Y291870D01*
Y293760D01*
X406988Y295627D01*
X406404Y297424D01*
X405546Y299109D01*
X404435Y300638D01*
X403098Y301974D01*
X401569Y303085D01*
X399885Y303943D01*
X398087Y304527D01*
X396221Y304823D01*
D02*
G37*
G36*
X444722Y284843D02*
X443860D01*
X443065Y284513D01*
X442455Y283904D01*
X442126Y283108D01*
Y282246D01*
X442455Y281451D01*
X443065Y280841D01*
X443860Y280512D01*
X444722D01*
X445518Y280841D01*
X446127Y281451D01*
X446456Y282246D01*
Y283108D01*
X446127Y283904D01*
X445518Y284513D01*
X444722Y284843D01*
D02*
G37*
G36*
X488216Y283707D02*
X486898D01*
X485625Y283366D01*
X484483Y282707D01*
X483551Y281775D01*
X482892Y280633D01*
X482551Y279360D01*
Y278042D01*
X482892Y276768D01*
X483551Y275627D01*
X484483Y274695D01*
X485625Y274036D01*
X486898Y273695D01*
X488216D01*
X489489Y274036D01*
X490631Y274695D01*
X491563Y275627D01*
X492222Y276768D01*
X492563Y278042D01*
Y279360D01*
X492222Y280633D01*
X491563Y281775D01*
X490631Y282707D01*
X489489Y283366D01*
X488216Y283707D01*
D02*
G37*
G36*
X452695Y277067D02*
X451833D01*
X451037Y276737D01*
X450428Y276128D01*
X450098Y275332D01*
Y274471D01*
X450428Y273675D01*
X451037Y273066D01*
X451833Y272736D01*
X452695D01*
X453490Y273066D01*
X454100Y273675D01*
X454429Y274471D01*
Y275332D01*
X454100Y276128D01*
X453490Y276737D01*
X452695Y277067D01*
D02*
G37*
G36*
X421887Y274409D02*
X421026D01*
X420230Y274080D01*
X419621Y273471D01*
X419291Y272675D01*
Y271813D01*
X419621Y271018D01*
X420230Y270408D01*
X421026Y270079D01*
X421887D01*
X422683Y270408D01*
X423292Y271018D01*
X423622Y271813D01*
Y272675D01*
X423292Y273471D01*
X422683Y274080D01*
X421887Y274409D01*
D02*
G37*
G36*
X437832Y274213D02*
X436971D01*
X436175Y273883D01*
X435566Y273274D01*
X435236Y272478D01*
Y271617D01*
X435566Y270821D01*
X436175Y270212D01*
X436971Y269882D01*
X437832D01*
X438628Y270212D01*
X439237Y270821D01*
X439567Y271617D01*
Y272478D01*
X439237Y273274D01*
X438628Y273883D01*
X437832Y274213D01*
D02*
G37*
G36*
X463324Y272835D02*
X462463D01*
X461667Y272505D01*
X461058Y271896D01*
X460728Y271100D01*
Y270239D01*
X461058Y269443D01*
X461667Y268834D01*
X462463Y268504D01*
X463324D01*
X464120Y268834D01*
X464729Y269443D01*
X465059Y270239D01*
Y271100D01*
X464729Y271896D01*
X464120Y272505D01*
X463324Y272835D01*
D02*
G37*
G36*
X348758Y271555D02*
X347896D01*
X347100Y271226D01*
X346491Y270617D01*
X346162Y269821D01*
Y268959D01*
X346491Y268163D01*
X347100Y267554D01*
X347896Y267225D01*
X348758D01*
X349553Y267554D01*
X350163Y268163D01*
X350492Y268959D01*
Y269821D01*
X350163Y270617D01*
X349553Y271226D01*
X348758Y271555D01*
D02*
G37*
G36*
X375037Y266043D02*
X374176D01*
X373380Y265714D01*
X372775Y265109D01*
X372183Y265354D01*
X371321D01*
X370525Y265025D01*
X369916Y264416D01*
X369587Y263620D01*
Y262758D01*
X369916Y261962D01*
X370525Y261353D01*
X371321Y261024D01*
X372183D01*
X372978Y261353D01*
X373583Y261958D01*
X374176Y261713D01*
X375037D01*
X375833Y262042D01*
X376442Y262651D01*
X376772Y263447D01*
Y264309D01*
X376442Y265105D01*
X375833Y265714D01*
X375037Y266043D01*
D02*
G37*
G36*
X414899Y261811D02*
X414038D01*
X413242Y261481D01*
X412633Y260872D01*
X412303Y260076D01*
Y259215D01*
X412633Y258419D01*
X413242Y257810D01*
X414038Y257480D01*
X414899D01*
X415695Y257810D01*
X416304Y258419D01*
X416634Y259215D01*
Y260076D01*
X416304Y260872D01*
X415695Y261481D01*
X414899Y261811D01*
D02*
G37*
G36*
X405750Y256142D02*
X405076D01*
X404425Y255967D01*
X403842Y255630D01*
X403366Y255154D01*
X403029Y254570D01*
X402869Y253976D01*
X402502Y254075D01*
X401828D01*
X401178Y253900D01*
X400594Y253563D01*
X400117Y253087D01*
X399781Y252503D01*
X399606Y251853D01*
Y251179D01*
X399781Y250528D01*
X400117Y249944D01*
X400465Y249596D01*
X400117Y249248D01*
X399781Y248665D01*
X399606Y248014D01*
Y247340D01*
X399781Y246689D01*
X400117Y246106D01*
X400465Y245758D01*
X400117Y245410D01*
X399781Y244826D01*
X399606Y244176D01*
Y243502D01*
X399781Y242851D01*
X400117Y242267D01*
X400465Y241919D01*
X400117Y241571D01*
X399781Y240988D01*
X399606Y240337D01*
Y239663D01*
X399781Y239012D01*
X400117Y238429D01*
X400465Y238081D01*
X400117Y237733D01*
X399781Y237149D01*
X399606Y236498D01*
Y235824D01*
X399781Y235174D01*
X400117Y234590D01*
X400594Y234114D01*
X401178Y233777D01*
X401828Y233602D01*
X402502D01*
X402943Y233720D01*
X403029Y233402D01*
X403366Y232818D01*
X403842Y232342D01*
X404425Y232005D01*
X405076Y231831D01*
X405750D01*
X406401Y232005D01*
X406985Y232342D01*
X407461Y232818D01*
X407798Y233402D01*
X407972Y234053D01*
Y234727D01*
X407798Y235377D01*
X407461Y235961D01*
X407113Y236309D01*
X407461Y236657D01*
X407798Y237241D01*
X407972Y237891D01*
Y238565D01*
X407798Y239216D01*
X407461Y239800D01*
X407113Y240148D01*
X407461Y240496D01*
X407798Y241079D01*
X407972Y241730D01*
Y242404D01*
X407798Y243055D01*
X407461Y243638D01*
X407113Y243986D01*
X407461Y244334D01*
X407798Y244918D01*
X407972Y245569D01*
Y246242D01*
X407798Y246893D01*
X407461Y247477D01*
X407113Y247825D01*
X407461Y248173D01*
X407798Y248756D01*
X407972Y249407D01*
Y250081D01*
X407798Y250732D01*
X407461Y251315D01*
X407113Y251663D01*
X407461Y252011D01*
X407798Y252595D01*
X407972Y253246D01*
Y253920D01*
X407798Y254570D01*
X407461Y255154D01*
X406985Y255630D01*
X406401Y255967D01*
X405750Y256142D01*
D02*
G37*
G36*
X367557Y254331D02*
X366695D01*
X365899Y254001D01*
X365290Y253392D01*
X364961Y252596D01*
Y251735D01*
X365290Y250939D01*
X365899Y250330D01*
X366695Y250000D01*
X367557D01*
X368353Y250330D01*
X368962Y250939D01*
X369291Y251735D01*
Y252596D01*
X368962Y253392D01*
X368353Y254001D01*
X367557Y254331D01*
D02*
G37*
G36*
X364757Y246654D02*
X363896D01*
X363100Y246324D01*
X362546Y245771D01*
X362259Y245740D01*
X361972Y245771D01*
X361419Y246324D01*
X360623Y246654D01*
X359762D01*
X358966Y246324D01*
X358357Y245715D01*
X358298Y245572D01*
X357756D01*
X357697Y245715D01*
X357088Y246324D01*
X356292Y246654D01*
X355431D01*
X354635Y246324D01*
X354082Y245771D01*
X353795Y245740D01*
X353508Y245771D01*
X352954Y246324D01*
X352158Y246654D01*
X351297D01*
X350501Y246324D01*
X349892Y245715D01*
X349562Y244919D01*
Y244057D01*
X349892Y243262D01*
X350501Y242653D01*
X351297Y242323D01*
X352158D01*
X352954Y242653D01*
X353508Y243206D01*
X353795Y243237D01*
X354082Y243206D01*
X354635Y242653D01*
X355431Y242323D01*
X356292D01*
X357088Y242653D01*
X357697Y243262D01*
X357756Y243404D01*
X358298D01*
X358357Y243262D01*
X358966Y242653D01*
X359762Y242323D01*
X360623D01*
X361419Y242653D01*
X361972Y243206D01*
X362259Y243237D01*
X362546Y243206D01*
X363100Y242653D01*
X363896Y242323D01*
X364757D01*
X365553Y242653D01*
X366162Y243262D01*
X366492Y244057D01*
Y244919D01*
X366162Y245715D01*
X365553Y246324D01*
X364757Y246654D01*
D02*
G37*
G36*
X327862Y248419D02*
X327000D01*
X326205Y248090D01*
X325595Y247481D01*
X325266Y246685D01*
Y245823D01*
X325595Y245027D01*
X326205Y244418D01*
X327000Y244089D01*
X327862D01*
X328658Y244418D01*
X329267Y245027D01*
X329596Y245823D01*
Y246685D01*
X329267Y247481D01*
X328658Y248090D01*
X327862Y248419D01*
D02*
G37*
G36*
X372349Y247244D02*
X371526D01*
X370767Y246930D01*
X370185Y246348D01*
X369870Y245588D01*
Y244766D01*
X370185Y244006D01*
X370767Y243425D01*
X371526Y243110D01*
X372349D01*
X372900Y243339D01*
X372953Y243211D01*
X373534Y242629D01*
X374294Y242315D01*
X375116D01*
X375876Y242629D01*
X376457Y243211D01*
X376772Y243970D01*
Y244793D01*
X376457Y245552D01*
X375876Y246134D01*
X375116Y246448D01*
X374294D01*
X373743Y246220D01*
X373690Y246348D01*
X373108Y246930D01*
X372349Y247244D01*
D02*
G37*
G36*
X298068Y245571D02*
X297207D01*
X296411Y245241D01*
X295802Y244632D01*
X295472Y243836D01*
Y242975D01*
X295802Y242179D01*
X296411Y241570D01*
X297207Y241240D01*
X298068D01*
X298864Y241570D01*
X299474Y242179D01*
X299803Y242975D01*
Y243836D01*
X299474Y244632D01*
X298864Y245241D01*
X298068Y245571D01*
D02*
G37*
G36*
X389899Y242815D02*
X389038D01*
X388242Y242485D01*
X387633Y241876D01*
X387303Y241080D01*
Y240219D01*
X387633Y239423D01*
X388242Y238814D01*
X389038Y238484D01*
X389899D01*
X390695Y238814D01*
X391304Y239423D01*
X391634Y240219D01*
Y241080D01*
X391304Y241876D01*
X390695Y242485D01*
X389899Y242815D01*
D02*
G37*
G36*
X340195Y239075D02*
X339333D01*
X338537Y238745D01*
X337928Y238136D01*
X337598Y237340D01*
Y236479D01*
X337928Y235683D01*
X338537Y235074D01*
X339333Y234744D01*
X340195D01*
X340990Y235074D01*
X341599Y235683D01*
X341929Y236479D01*
Y237340D01*
X341599Y238136D01*
X340990Y238745D01*
X340195Y239075D01*
D02*
G37*
G36*
X289986Y240899D02*
X289164D01*
X288404Y240584D01*
X287823Y240002D01*
X287508Y239243D01*
Y238421D01*
X287823Y237661D01*
X287930Y237553D01*
X287814Y237437D01*
X287500Y236677D01*
Y235855D01*
X287814Y235095D01*
X288396Y234514D01*
X289156Y234199D01*
X289978D01*
X290738Y234514D01*
X291319Y235095D01*
X291634Y235855D01*
Y236677D01*
X291319Y237437D01*
X291211Y237545D01*
X291327Y237661D01*
X291642Y238421D01*
Y239243D01*
X291327Y240002D01*
X290746Y240584D01*
X289986Y240899D01*
D02*
G37*
G36*
X453191Y256358D02*
X452518D01*
X451867Y256184D01*
X451283Y255847D01*
X450807Y255370D01*
X450470Y254787D01*
X450295Y254136D01*
Y253462D01*
X450470Y252811D01*
X450807Y252228D01*
X451155Y251880D01*
X450807Y251532D01*
X450470Y250948D01*
X450295Y250297D01*
Y249624D01*
X450470Y248973D01*
X450807Y248389D01*
X451155Y248041D01*
X450807Y247693D01*
X450470Y247110D01*
X450295Y246459D01*
Y245785D01*
X450470Y245134D01*
X450807Y244551D01*
X451155Y244203D01*
X450807Y243855D01*
X450470Y243271D01*
X450295Y242620D01*
Y241947D01*
X450470Y241296D01*
X450807Y240712D01*
X451155Y240364D01*
X450807Y240016D01*
X450470Y239433D01*
X450295Y238782D01*
Y238108D01*
X450470Y237457D01*
X450807Y236874D01*
X451155Y236526D01*
X450807Y236177D01*
X450470Y235594D01*
X450295Y234943D01*
Y234269D01*
X450470Y233618D01*
X450807Y233035D01*
X451283Y232558D01*
X451867Y232222D01*
X452518Y232047D01*
X453191D01*
X453842Y232222D01*
X454426Y232558D01*
X454902Y233035D01*
X455239Y233618D01*
X455398Y234212D01*
X455765Y234114D01*
X456439D01*
X457090Y234289D01*
X457674Y234625D01*
X458150Y235102D01*
X458487Y235685D01*
X458661Y236336D01*
Y237010D01*
X458487Y237661D01*
X458150Y238244D01*
X457802Y238592D01*
X458150Y238940D01*
X458487Y239524D01*
X458661Y240175D01*
Y240849D01*
X458487Y241499D01*
X458150Y242083D01*
X457802Y242431D01*
X458150Y242779D01*
X458487Y243362D01*
X458661Y244013D01*
Y244687D01*
X458487Y245338D01*
X458150Y245922D01*
X457802Y246270D01*
X458150Y246618D01*
X458487Y247201D01*
X458661Y247852D01*
Y248526D01*
X458487Y249177D01*
X458150Y249760D01*
X457802Y250108D01*
X458150Y250456D01*
X458487Y251040D01*
X458661Y251691D01*
Y252364D01*
X458487Y253015D01*
X458150Y253599D01*
X457674Y254075D01*
X457090Y254412D01*
X456439Y254587D01*
X455765D01*
X455324Y254468D01*
X455239Y254787D01*
X454902Y255370D01*
X454426Y255847D01*
X453842Y256184D01*
X453191Y256358D01*
D02*
G37*
G36*
X488216Y243707D02*
X486898D01*
X485625Y243366D01*
X484483Y242707D01*
X483551Y241775D01*
X482892Y240633D01*
X482551Y239360D01*
Y238042D01*
X482892Y236769D01*
X483551Y235627D01*
X484483Y234695D01*
X485625Y234036D01*
X486898Y233695D01*
X488216D01*
X489489Y234036D01*
X490631Y234695D01*
X491563Y235627D01*
X492222Y236769D01*
X492563Y238042D01*
Y239360D01*
X492222Y240633D01*
X491563Y241775D01*
X490631Y242707D01*
X489489Y243366D01*
X488216Y243707D01*
D02*
G37*
G36*
X390140Y237303D02*
X389279D01*
X388483Y236973D01*
X387874Y236364D01*
X387544Y235568D01*
Y234707D01*
X387874Y233911D01*
X388483Y233302D01*
X389279Y232972D01*
X390140D01*
X390936Y233302D01*
X391545Y233911D01*
X391875Y234707D01*
Y235568D01*
X391545Y236364D01*
X390936Y236973D01*
X390140Y237303D01*
D02*
G37*
G36*
X293706Y227251D02*
X292844D01*
X292048Y226921D01*
X291439Y226312D01*
X291110Y225516D01*
Y224655D01*
X291439Y223859D01*
X292048Y223250D01*
X292844Y222920D01*
X293706D01*
X294501Y223250D01*
X295111Y223859D01*
X295440Y224655D01*
Y225516D01*
X295111Y226312D01*
X294501Y226921D01*
X293706Y227251D01*
D02*
G37*
G36*
X334486Y225689D02*
X333624D01*
X332828Y225359D01*
X332219Y224750D01*
X331890Y223954D01*
Y223093D01*
X332219Y222297D01*
X332828Y221688D01*
X333624Y221358D01*
X334486D01*
X335282Y221688D01*
X335891Y222297D01*
X336221Y223093D01*
Y223954D01*
X335891Y224750D01*
X335282Y225359D01*
X334486Y225689D01*
D02*
G37*
G36*
X323320Y227953D02*
X322459D01*
X321663Y227623D01*
X321054Y227014D01*
X320724Y226218D01*
Y225357D01*
X321054Y224561D01*
X321156Y224459D01*
X321054Y224357D01*
X320724Y223561D01*
Y222699D01*
X321054Y221903D01*
X321663Y221294D01*
X322459Y220965D01*
X323320D01*
X324116Y221294D01*
X324725Y221903D01*
X325055Y222699D01*
Y223561D01*
X324725Y224357D01*
X324623Y224459D01*
X324725Y224561D01*
X325055Y225357D01*
Y226218D01*
X324725Y227014D01*
X324116Y227623D01*
X323320Y227953D01*
D02*
G37*
G36*
X304072Y220276D02*
X303211D01*
X302415Y219946D01*
X301806Y219337D01*
X301476Y218541D01*
Y217680D01*
X301806Y216884D01*
X302415Y216274D01*
X303211Y215945D01*
X304072D01*
X304868Y216274D01*
X305477Y216884D01*
X305807Y217680D01*
Y218541D01*
X305477Y219337D01*
X304868Y219946D01*
X304072Y220276D01*
D02*
G37*
G36*
X286465Y207677D02*
X285604D01*
X284808Y207348D01*
X284199Y206739D01*
X283869Y205943D01*
Y205081D01*
X284199Y204286D01*
X284808Y203676D01*
X285604Y203347D01*
X286465D01*
X287261Y203676D01*
X287870Y204286D01*
X288200Y205081D01*
Y205943D01*
X287870Y206739D01*
X287261Y207348D01*
X286465Y207677D01*
D02*
G37*
G36*
X340096Y206791D02*
X339235D01*
X338439Y206462D01*
X337830Y205853D01*
X337500Y205057D01*
Y204195D01*
X337830Y203399D01*
X338439Y202790D01*
X339235Y202461D01*
X340096D01*
X340892Y202790D01*
X341501Y203399D01*
X341831Y204195D01*
Y205057D01*
X341501Y205853D01*
X340892Y206462D01*
X340096Y206791D01*
D02*
G37*
G36*
X305746Y205413D02*
X304884D01*
X304088Y205084D01*
X303479Y204475D01*
X303150Y203679D01*
Y202817D01*
X303479Y202022D01*
X304088Y201412D01*
X304884Y201083D01*
X305746D01*
X306541Y201412D01*
X307151Y202022D01*
X307480Y202817D01*
Y203679D01*
X307151Y204475D01*
X306541Y205084D01*
X305746Y205413D01*
D02*
G37*
G36*
X330057Y205118D02*
X329195D01*
X328399Y204788D01*
X327790Y204179D01*
X327461Y203383D01*
Y202522D01*
X327790Y201726D01*
X328399Y201117D01*
X329195Y200787D01*
X330057D01*
X330853Y201117D01*
X331462Y201726D01*
X331791Y202522D01*
Y203383D01*
X331462Y204179D01*
X330853Y204788D01*
X330057Y205118D01*
D02*
G37*
G36*
X321887Y201181D02*
X321026D01*
X320230Y200851D01*
X319621Y200242D01*
X319291Y199446D01*
Y198585D01*
X319621Y197789D01*
X320230Y197180D01*
X321026Y196850D01*
X321887D01*
X322683Y197180D01*
X323292Y197789D01*
X323622Y198585D01*
Y199446D01*
X323292Y200242D01*
X322683Y200851D01*
X321887Y201181D01*
D02*
G37*
G36*
X364757Y161713D02*
X363896D01*
X363100Y161383D01*
X362546Y160829D01*
X362259Y160799D01*
X361972Y160829D01*
X361419Y161383D01*
X360623Y161713D01*
X359762D01*
X358966Y161383D01*
X358357Y160774D01*
X358298Y160631D01*
X357756D01*
X357697Y160774D01*
X357088Y161383D01*
X356292Y161713D01*
X355431D01*
X354635Y161383D01*
X354082Y160829D01*
X353795Y160799D01*
X353508Y160829D01*
X352954Y161383D01*
X352158Y161713D01*
X351297D01*
X350501Y161383D01*
X349948Y160829D01*
X349661Y160799D01*
X349374Y160829D01*
X348820Y161383D01*
X348025Y161713D01*
X347163D01*
X346367Y161383D01*
X345758Y160774D01*
X345428Y159978D01*
Y159117D01*
X345758Y158321D01*
X346367Y157712D01*
X347163Y157382D01*
X348025D01*
X348820Y157712D01*
X349374Y158265D01*
X349661Y158296D01*
X349948Y158265D01*
X350501Y157712D01*
X351297Y157382D01*
X352158D01*
X352954Y157712D01*
X353508Y158265D01*
X353795Y158296D01*
X354082Y158265D01*
X354635Y157712D01*
X355431Y157382D01*
X356292D01*
X357088Y157712D01*
X357697Y158321D01*
X357756Y158463D01*
X358298D01*
X358357Y158321D01*
X358966Y157712D01*
X359762Y157382D01*
X360623D01*
X361419Y157712D01*
X361972Y158265D01*
X362259Y158296D01*
X362546Y158265D01*
X363100Y157712D01*
X363896Y157382D01*
X364757D01*
X365553Y157712D01*
X366162Y158321D01*
X366492Y159117D01*
Y159978D01*
X366162Y160774D01*
X365553Y161383D01*
X364757Y161713D01*
D02*
G37*
G36*
X328635Y163484D02*
X327773D01*
X326978Y163155D01*
X326368Y162546D01*
X326039Y161750D01*
Y160888D01*
X326368Y160092D01*
X326978Y159483D01*
X327773Y159154D01*
X328635D01*
X329431Y159483D01*
X330040Y160092D01*
X330369Y160888D01*
Y161750D01*
X330040Y162546D01*
X329431Y163155D01*
X328635Y163484D01*
D02*
G37*
G36*
X307080D02*
X306218D01*
X305422Y163155D01*
X304813Y162546D01*
X304484Y161750D01*
Y160888D01*
X304813Y160092D01*
X305422Y159483D01*
X306218Y159154D01*
X307080D01*
X307876Y159483D01*
X308485Y160092D01*
X308814Y160888D01*
Y161750D01*
X308485Y162546D01*
X307876Y163155D01*
X307080Y163484D01*
D02*
G37*
G36*
X340197Y154131D02*
X339336D01*
X338540Y153802D01*
X337931Y153192D01*
X337601Y152397D01*
Y151535D01*
X337931Y150739D01*
X338540Y150130D01*
X339336Y149800D01*
X340197D01*
X340993Y150130D01*
X341602Y150739D01*
X341932Y151535D01*
Y152397D01*
X341602Y153192D01*
X340993Y153802D01*
X340197Y154131D01*
D02*
G37*
G36*
X295087Y153461D02*
X294265D01*
X293505Y153146D01*
X292924Y152565D01*
X292609Y151805D01*
Y150983D01*
X292924Y150223D01*
X293143Y150003D01*
X293130Y149990D01*
X292815Y149230D01*
Y148408D01*
X293130Y147648D01*
X293711Y147067D01*
X294471Y146752D01*
X295293D01*
X296053Y147067D01*
X296634Y147648D01*
X296949Y148408D01*
Y149230D01*
X296634Y149990D01*
X296414Y150209D01*
X296428Y150223D01*
X296743Y150983D01*
Y151805D01*
X296428Y152565D01*
X295847Y153146D01*
X295087Y153461D01*
D02*
G37*
G36*
X323320Y143012D02*
X322459D01*
X321663Y142682D01*
X321054Y142073D01*
X320724Y141277D01*
Y140416D01*
X321054Y139620D01*
X321663Y139011D01*
X322459Y138681D01*
X323320D01*
X324116Y139011D01*
X324725Y139620D01*
X325055Y140416D01*
Y141277D01*
X324725Y142073D01*
X324116Y142682D01*
X323320Y143012D01*
D02*
G37*
G36*
X293103Y141536D02*
X292242D01*
X291446Y141206D01*
X290837Y140597D01*
X290507Y139801D01*
Y138940D01*
X290837Y138144D01*
X291446Y137535D01*
X292242Y137205D01*
X293103D01*
X293899Y137535D01*
X294508Y138144D01*
X294838Y138940D01*
Y139801D01*
X294508Y140597D01*
X293899Y141206D01*
X293103Y141536D01*
D02*
G37*
G36*
X334092Y139764D02*
X333231D01*
X332435Y139434D01*
X331826Y138825D01*
X331496Y138029D01*
Y137168D01*
X331826Y136372D01*
X332435Y135763D01*
X333231Y135433D01*
X334092D01*
X334888Y135763D01*
X335497Y136372D01*
X335827Y137168D01*
Y138029D01*
X335497Y138825D01*
X334888Y139434D01*
X334092Y139764D01*
D02*
G37*
G36*
X304072Y136122D02*
X303211D01*
X302415Y135793D01*
X301806Y135183D01*
X301476Y134388D01*
Y133526D01*
X301806Y132730D01*
X302415Y132121D01*
X303211Y131791D01*
X304072D01*
X304868Y132121D01*
X305477Y132730D01*
X305807Y133526D01*
Y134388D01*
X305477Y135183D01*
X304868Y135793D01*
X304072Y136122D01*
D02*
G37*
G36*
X284486Y135335D02*
X283624D01*
X282828Y135005D01*
X282219Y134396D01*
X281890Y133600D01*
Y132739D01*
X282219Y131943D01*
X282828Y131334D01*
X283624Y131004D01*
X284486D01*
X285282Y131334D01*
X285891Y131943D01*
X286221Y132739D01*
Y133600D01*
X285891Y134396D01*
X285282Y135005D01*
X284486Y135335D01*
D02*
G37*
G36*
X327990Y120669D02*
X327128D01*
X326332Y120340D01*
X325723Y119730D01*
X325394Y118935D01*
Y118073D01*
X325723Y117277D01*
X326332Y116668D01*
X327128Y116339D01*
X327990D01*
X328786Y116668D01*
X329395Y117277D01*
X329724Y118073D01*
Y118935D01*
X329395Y119730D01*
X328786Y120340D01*
X327990Y120669D01*
D02*
G37*
G36*
X298265Y114432D02*
X297404D01*
X296608Y114102D01*
X295999Y113493D01*
X295669Y112697D01*
Y111835D01*
X295999Y111040D01*
X296608Y110430D01*
X297404Y110101D01*
X298265D01*
X299061Y110430D01*
X299670Y111040D01*
X300000Y111835D01*
Y112697D01*
X299670Y113493D01*
X299061Y114102D01*
X298265Y114432D01*
D02*
G37*
G36*
X364757Y76280D02*
X363896D01*
X363100Y75950D01*
X362547Y75397D01*
X362260Y75366D01*
X361973Y75397D01*
X361420Y75950D01*
X360624Y76280D01*
X359762D01*
X358966Y75950D01*
X358357Y75341D01*
X358298Y75198D01*
X357757D01*
X357698Y75341D01*
X357089Y75950D01*
X356293Y76280D01*
X355432D01*
X354636Y75950D01*
X354082Y75397D01*
X353795Y75366D01*
X353508Y75397D01*
X352955Y75950D01*
X352159Y76280D01*
X351298D01*
X350502Y75950D01*
X349893Y75341D01*
X349862Y75267D01*
X349362D01*
X349332Y75341D01*
X348723Y75950D01*
X347927Y76280D01*
X347065D01*
X346269Y75950D01*
X345660Y75341D01*
X345331Y74545D01*
Y73684D01*
X345660Y72888D01*
X346269Y72279D01*
X347065Y71949D01*
X347927D01*
X348723Y72279D01*
X349332Y72888D01*
X349362Y72961D01*
X349862D01*
X349893Y72888D01*
X350502Y72279D01*
X351298Y71949D01*
X352159D01*
X352955Y72279D01*
X353508Y72832D01*
X353795Y72863D01*
X354082Y72832D01*
X354636Y72279D01*
X355432Y71949D01*
X356293D01*
X357089Y72279D01*
X357698Y72888D01*
X357757Y73030D01*
X358298D01*
X358357Y72888D01*
X358966Y72279D01*
X359762Y71949D01*
X360624D01*
X361420Y72279D01*
X361973Y72832D01*
X362260Y72863D01*
X362547Y72832D01*
X363100Y72279D01*
X363896Y71949D01*
X364757D01*
X365553Y72279D01*
X366162Y72888D01*
X366492Y73684D01*
Y74545D01*
X366162Y75341D01*
X365553Y75950D01*
X364757Y76280D01*
D02*
G37*
G36*
X328635Y78051D02*
X327773D01*
X326978Y77722D01*
X326368Y77113D01*
X326039Y76317D01*
Y75455D01*
X326368Y74659D01*
X326978Y74050D01*
X327773Y73721D01*
X328635D01*
X329431Y74050D01*
X330040Y74659D01*
X330369Y75455D01*
Y76317D01*
X330040Y77113D01*
X329431Y77722D01*
X328635Y78051D01*
D02*
G37*
G36*
X307080D02*
X306218D01*
X305422Y77722D01*
X304813Y77113D01*
X304484Y76317D01*
Y75455D01*
X304813Y74659D01*
X305422Y74050D01*
X306218Y73721D01*
X307080D01*
X307876Y74050D01*
X308485Y74659D01*
X308814Y75455D01*
Y76317D01*
X308485Y77113D01*
X307876Y77722D01*
X307080Y78051D01*
D02*
G37*
G36*
X336553Y76772D02*
X335691D01*
X334895Y76442D01*
X334286Y75833D01*
X333957Y75037D01*
Y74176D01*
X334286Y73380D01*
X334895Y72771D01*
X335691Y72441D01*
X336553D01*
X337349Y72771D01*
X337958Y73380D01*
X338287Y74176D01*
Y75037D01*
X337958Y75833D01*
X337349Y76442D01*
X336553Y76772D01*
D02*
G37*
G36*
X297065Y68504D02*
X296242D01*
X295483Y68189D01*
X294901Y67608D01*
X294587Y66848D01*
Y66026D01*
X294901Y65266D01*
X295483Y64685D01*
X296242Y64370D01*
X297065D01*
X297824Y64685D01*
X298406Y65266D01*
X298721Y66026D01*
Y66848D01*
X298406Y67608D01*
X297824Y68189D01*
X297065Y68504D01*
D02*
G37*
G36*
X340197Y68698D02*
X339336D01*
X338540Y68368D01*
X337931Y67759D01*
X337601Y66963D01*
Y66102D01*
X337931Y65306D01*
X338540Y64697D01*
X339336Y64367D01*
X340197D01*
X340993Y64697D01*
X341602Y65306D01*
X341932Y66102D01*
Y66963D01*
X341602Y67759D01*
X340993Y68368D01*
X340197Y68698D01*
D02*
G37*
G36*
X301935Y65551D02*
X301112D01*
X300353Y65237D01*
X299771Y64655D01*
X299457Y63896D01*
Y63073D01*
X299771Y62314D01*
X300353Y61732D01*
X301112Y61418D01*
X301935D01*
X302694Y61732D01*
X303276Y62314D01*
X303590Y63073D01*
Y63896D01*
X303276Y64655D01*
X302694Y65237D01*
X301935Y65551D01*
D02*
G37*
G36*
X300923Y56004D02*
X300061D01*
X299266Y55674D01*
X298656Y55065D01*
X298327Y54269D01*
Y53408D01*
X298656Y52612D01*
X299266Y52003D01*
X300061Y51673D01*
X300923D01*
X301719Y52003D01*
X302328Y52612D01*
X302658Y53408D01*
Y54269D01*
X302328Y55065D01*
X301719Y55674D01*
X300923Y56004D01*
D02*
G37*
G36*
X322183Y55118D02*
X321321D01*
X320525Y54789D01*
X319916Y54179D01*
X319587Y53383D01*
Y52522D01*
X319916Y51726D01*
X320525Y51117D01*
X321321Y50787D01*
X322183D01*
X322978Y51117D01*
X323588Y51726D01*
X323917Y52522D01*
Y53383D01*
X323588Y54179D01*
X322978Y54789D01*
X322183Y55118D01*
D02*
G37*
G36*
X361812Y51164D02*
X360951D01*
X360155Y50834D01*
X359546Y50225D01*
X359216Y49429D01*
Y48568D01*
X359546Y47772D01*
X360155Y47163D01*
X360951Y46833D01*
X361812D01*
X362608Y47163D01*
X363217Y47772D01*
X363547Y48568D01*
Y49429D01*
X363217Y50225D01*
X362608Y50834D01*
X361812Y51164D01*
D02*
G37*
G36*
X356301D02*
X355439D01*
X354643Y50834D01*
X354034Y50225D01*
X353705Y49429D01*
Y48568D01*
X354034Y47772D01*
X354643Y47163D01*
X355439Y46833D01*
X356301D01*
X357097Y47163D01*
X357706Y47772D01*
X358035Y48568D01*
Y49429D01*
X357706Y50225D01*
X357097Y50834D01*
X356301Y51164D01*
D02*
G37*
G36*
X350789D02*
X349927D01*
X349132Y50834D01*
X348522Y50225D01*
X348193Y49429D01*
Y48568D01*
X348522Y47772D01*
X349132Y47163D01*
X349927Y46833D01*
X350789D01*
X351585Y47163D01*
X352194Y47772D01*
X352523Y48568D01*
Y49429D01*
X352194Y50225D01*
X351585Y50834D01*
X350789Y51164D01*
D02*
G37*
G36*
X345277D02*
X344416D01*
X343620Y50834D01*
X343011Y50225D01*
X342681Y49429D01*
Y48568D01*
X343011Y47772D01*
X343620Y47163D01*
X344416Y46833D01*
X345277D01*
X346073Y47163D01*
X346682Y47772D01*
X347012Y48568D01*
Y49429D01*
X346682Y50225D01*
X346073Y50834D01*
X345277Y51164D01*
D02*
G37*
G36*
X338620Y50787D02*
X337758D01*
X336962Y50458D01*
X336353Y49849D01*
X336024Y49053D01*
Y48191D01*
X336353Y47396D01*
X336962Y46786D01*
X337758Y46457D01*
X338620D01*
X339416Y46786D01*
X340025Y47396D01*
X340354Y48191D01*
Y49053D01*
X340025Y49849D01*
X339416Y50458D01*
X338620Y50787D01*
D02*
G37*
G36*
X305587Y52718D02*
X304725D01*
X303929Y52389D01*
X303320Y51780D01*
X302990Y50984D01*
Y50122D01*
X302909Y50000D01*
X302522D01*
X301726Y49670D01*
X301117Y49061D01*
X300787Y48265D01*
Y47404D01*
X301117Y46608D01*
X301726Y45999D01*
X302522Y45669D01*
X303383D01*
X304179Y45999D01*
X304788Y46608D01*
X305118Y47404D01*
Y48265D01*
X305200Y48388D01*
X305587D01*
X306382Y48717D01*
X306992Y49326D01*
X307321Y50122D01*
Y50984D01*
X306992Y51780D01*
X306382Y52389D01*
X305587Y52718D01*
D02*
G37*
G36*
X329565Y36085D02*
X328703D01*
X327907Y35756D01*
X327298Y35146D01*
X326969Y34351D01*
Y33489D01*
X327298Y32693D01*
X327907Y32084D01*
X328703Y31754D01*
X329565D01*
X330360Y32084D01*
X330970Y32693D01*
X331299Y33489D01*
Y34351D01*
X330970Y35146D01*
X330360Y35756D01*
X329565Y36085D01*
D02*
G37*
G36*
X315096Y26280D02*
X314235D01*
X313439Y25950D01*
X312830Y25341D01*
X312500Y24545D01*
Y23684D01*
X312830Y22888D01*
X313439Y22278D01*
X314235Y21949D01*
X315096D01*
X315892Y22278D01*
X316501Y22888D01*
X316831Y23684D01*
Y24545D01*
X316501Y25341D01*
X315892Y25950D01*
X315096Y26280D01*
D02*
G37*
G36*
X241732Y192148D02*
X241064Y192060D01*
X240442Y191802D01*
X239907Y191392D01*
X239497Y190858D01*
X239239Y190235D01*
X239151Y189567D01*
X239239Y188899D01*
X239497Y188276D01*
X239907Y187742D01*
X240442Y187332D01*
X241064Y187074D01*
X241732Y186986D01*
X242400Y187074D01*
X243023Y187332D01*
X243557Y187742D01*
X243968Y188276D01*
X244226Y188899D01*
X244313Y189567D01*
X244226Y190235D01*
X243968Y190858D01*
X243557Y191392D01*
X243023Y191802D01*
X242400Y192060D01*
X241732Y192148D01*
D02*
G37*
G36*
X207677Y190278D02*
X207009Y190190D01*
X206387Y189932D01*
X205852Y189522D01*
X205442Y188987D01*
X205184Y188365D01*
X205096Y187697D01*
X205184Y187029D01*
X205442Y186406D01*
X205852Y185872D01*
X206387Y185461D01*
X207009Y185204D01*
X207677Y185116D01*
X208345Y185204D01*
X208968Y185461D01*
X209502Y185872D01*
X209912Y186406D01*
X210170Y187029D01*
X210258Y187697D01*
X210170Y188365D01*
X209912Y188987D01*
X209502Y189522D01*
X208968Y189932D01*
X208345Y190190D01*
X207677Y190278D01*
D02*
G37*
G36*
X225122Y185654D02*
X224584Y185547D01*
X224129Y185243D01*
X223824Y184787D01*
X223717Y184249D01*
X223824Y183712D01*
X224129Y183256D01*
X224584Y182951D01*
X225122Y182845D01*
X225660Y182951D01*
X226115Y183256D01*
X226420Y183712D01*
X226527Y184249D01*
X226420Y184787D01*
X226115Y185243D01*
X225660Y185547D01*
X225122Y185654D01*
D02*
G37*
G36*
X225181Y181398D02*
X224336Y181230D01*
X223620Y180752D01*
X223141Y180035D01*
X222973Y179190D01*
X223141Y178346D01*
X223620Y177629D01*
X224336Y177151D01*
X225181Y176983D01*
X226026Y177151D01*
X226742Y177629D01*
X227221Y178346D01*
X227389Y179190D01*
X227221Y180035D01*
X226742Y180752D01*
X226026Y181230D01*
X225181Y181398D01*
D02*
G37*
G36*
X234646Y175421D02*
X234108Y175314D01*
X233652Y175009D01*
X233348Y174553D01*
X233241Y174016D01*
X233348Y173478D01*
X233652Y173022D01*
X234108Y172718D01*
X234646Y172611D01*
X235183Y172718D01*
X235639Y173022D01*
X235944Y173478D01*
X236051Y174016D01*
X235944Y174553D01*
X235639Y175009D01*
X235183Y175314D01*
X234646Y175421D01*
D02*
G37*
G36*
X245768Y176006D02*
X245100Y175918D01*
X244477Y175661D01*
X243943Y175250D01*
X243532Y174716D01*
X243274Y174093D01*
X243187Y173425D01*
X243274Y172757D01*
X243532Y172135D01*
X243943Y171600D01*
X244477Y171190D01*
X245100Y170932D01*
X245768Y170844D01*
X246436Y170932D01*
X247058Y171190D01*
X247593Y171600D01*
X248003Y172135D01*
X248261Y172757D01*
X248349Y173425D01*
X248261Y174093D01*
X248003Y174716D01*
X247593Y175250D01*
X247058Y175661D01*
X246436Y175918D01*
X245768Y176006D01*
D02*
G37*
G36*
X197441Y175908D02*
X196773Y175820D01*
X196150Y175562D01*
X195616Y175152D01*
X195206Y174617D01*
X194948Y173995D01*
X194860Y173327D01*
X194948Y172659D01*
X195206Y172036D01*
X195616Y171502D01*
X196150Y171091D01*
X196773Y170834D01*
X197441Y170746D01*
X198109Y170834D01*
X198732Y171091D01*
X199266Y171502D01*
X199676Y172036D01*
X199934Y172659D01*
X200022Y173327D01*
X199934Y173995D01*
X199676Y174617D01*
X199266Y175152D01*
X198732Y175562D01*
X198109Y175820D01*
X197441Y175908D01*
D02*
G37*
G36*
X239917Y167842D02*
X239095Y167734D01*
X238329Y167417D01*
X237797Y167009D01*
X237456Y166949D01*
X237115Y167009D01*
X236584Y167417D01*
X235818Y167734D01*
X234996Y167842D01*
X234173Y167734D01*
X233407Y167417D01*
X232749Y166912D01*
X232244Y166254D01*
X231927Y165488D01*
X231819Y164665D01*
X231927Y163843D01*
X232244Y163077D01*
X232652Y162546D01*
X232712Y162205D01*
X232652Y161864D01*
X232244Y161333D01*
X231927Y160566D01*
X231819Y159744D01*
X231927Y158922D01*
X232244Y158156D01*
X232749Y157498D01*
X233407Y156993D01*
X234173Y156676D01*
X234996Y156568D01*
X235818Y156676D01*
X236584Y156993D01*
X237242Y157498D01*
X237277Y157544D01*
X237687D01*
X237850Y157469D01*
X238471Y156993D01*
X239237Y156676D01*
X240059Y156567D01*
X240881Y156676D01*
X241647Y156993D01*
X242305Y157498D01*
X242810Y158156D01*
X243128Y158922D01*
X243236Y159744D01*
X243128Y160566D01*
X242810Y161332D01*
X242350Y161932D01*
X242306Y162047D01*
X242314Y162615D01*
X242669Y163077D01*
X242986Y163843D01*
X243094Y164665D01*
X242986Y165488D01*
X242669Y166254D01*
X242164Y166912D01*
X241506Y167417D01*
X240739Y167734D01*
X239917Y167842D01*
D02*
G37*
G36*
X220965Y166754D02*
X220297Y166666D01*
X219674Y166409D01*
X219139Y165998D01*
X218729Y165464D01*
X218471Y164841D01*
X218383Y164173D01*
X218471Y163505D01*
X218729Y162883D01*
X219139Y162348D01*
X219674Y161938D01*
X220297Y161680D01*
X220965Y161592D01*
X221633Y161680D01*
X222255Y161938D01*
X222790Y162348D01*
X223200Y162883D01*
X223458Y163505D01*
X223546Y164173D01*
X223458Y164841D01*
X223200Y165464D01*
X222790Y165998D01*
X222255Y166409D01*
X221633Y166666D01*
X220965Y166754D01*
D02*
G37*
G36*
X254528Y166361D02*
X253859Y166273D01*
X253237Y166015D01*
X252702Y165605D01*
X252292Y165070D01*
X252034Y164448D01*
X251946Y163779D01*
X252034Y163111D01*
X252292Y162489D01*
X252702Y161954D01*
X253237Y161544D01*
X253859Y161286D01*
X254528Y161198D01*
X255196Y161286D01*
X255818Y161544D01*
X256353Y161954D01*
X256763Y162489D01*
X257021Y163111D01*
X257109Y163779D01*
X257021Y164448D01*
X256763Y165070D01*
X256353Y165605D01*
X255818Y166015D01*
X255196Y166273D01*
X254528Y166361D01*
D02*
G37*
G36*
X262697Y153374D02*
X262159Y153267D01*
X261703Y152962D01*
X261399Y152506D01*
X261292Y151969D01*
X261399Y151431D01*
X261703Y150975D01*
X262159Y150671D01*
X262697Y150564D01*
X263234Y150671D01*
X263690Y150975D01*
X263995Y151431D01*
X264102Y151969D01*
X263995Y152506D01*
X263690Y152962D01*
X263234Y153267D01*
X262697Y153374D01*
D02*
G37*
G36*
X274661Y152783D02*
X274123Y152676D01*
X273667Y152372D01*
X273363Y151916D01*
X273256Y151378D01*
X273363Y150840D01*
X273667Y150385D01*
X274123Y150080D01*
X274661Y149973D01*
X275199Y150080D01*
X275654Y150385D01*
X275959Y150840D01*
X276066Y151378D01*
X275959Y151916D01*
X275654Y152372D01*
X275199Y152676D01*
X274661Y152783D01*
D02*
G37*
G36*
X248130Y150042D02*
X247285Y149874D01*
X246569Y149396D01*
X246193Y148834D01*
X246152Y148819D01*
X245680D01*
X245638Y148834D01*
X245262Y149396D01*
X244546Y149874D01*
X243701Y150042D01*
X242856Y149874D01*
X242140Y149396D01*
X241661Y148680D01*
X241493Y147835D01*
X241661Y146990D01*
X242140Y146274D01*
X242856Y145795D01*
X243701Y145627D01*
X244546Y145795D01*
X245262Y146274D01*
X245638Y146836D01*
X245680Y146850D01*
X246152D01*
X246193Y146836D01*
X246569Y146274D01*
X247285Y145795D01*
X248130Y145627D01*
X248975Y145795D01*
X249691Y146274D01*
X250170Y146990D01*
X250338Y147835D01*
X250170Y148680D01*
X249691Y149396D01*
X248975Y149874D01*
X248130Y150042D01*
D02*
G37*
G36*
X259646Y150830D02*
X258801Y150662D01*
X258085Y150183D01*
X257606Y149467D01*
X257438Y148622D01*
X257606Y147777D01*
X258085Y147061D01*
X258801Y146582D01*
X259646Y146414D01*
X260490Y146582D01*
X261207Y147061D01*
X261685Y147777D01*
X261853Y148622D01*
X261685Y149467D01*
X261207Y150183D01*
X260490Y150662D01*
X259646Y150830D01*
D02*
G37*
G36*
X267520Y150613D02*
X266852Y150525D01*
X266229Y150267D01*
X265695Y149857D01*
X265284Y149322D01*
X265026Y148699D01*
X264939Y148031D01*
X265026Y147363D01*
X265284Y146741D01*
X265695Y146206D01*
X266229Y145796D01*
X266852Y145538D01*
X267520Y145450D01*
X268188Y145538D01*
X268810Y145796D01*
X269345Y146206D01*
X269755Y146741D01*
X270013Y147363D01*
X270101Y148031D01*
X270013Y148699D01*
X269755Y149322D01*
X269345Y149857D01*
X268810Y150267D01*
X268188Y150525D01*
X267520Y150613D01*
D02*
G37*
G36*
X274661Y146385D02*
X274123Y146279D01*
X273667Y145974D01*
X273363Y145518D01*
X273256Y144981D01*
X273363Y144443D01*
X273667Y143987D01*
X274123Y143683D01*
X274661Y143576D01*
X275199Y143683D01*
X275654Y143987D01*
X275959Y144443D01*
X276066Y144981D01*
X275959Y145518D01*
X275654Y145974D01*
X275199Y146279D01*
X274661Y146385D01*
D02*
G37*
G36*
X268602Y140987D02*
X267758Y140819D01*
X267041Y140341D01*
X266563Y139624D01*
X266395Y138779D01*
X266563Y137935D01*
X267041Y137218D01*
X267758Y136740D01*
X268602Y136572D01*
X269447Y136740D01*
X270163Y137218D01*
X270642Y137935D01*
X270810Y138779D01*
X270642Y139624D01*
X270163Y140341D01*
X269447Y140819D01*
X268602Y140987D01*
D02*
G37*
G36*
X221457Y140278D02*
X220789Y140190D01*
X220166Y139932D01*
X219632Y139522D01*
X219221Y138987D01*
X218964Y138365D01*
X218876Y137697D01*
X218964Y137029D01*
X219221Y136406D01*
X219632Y135872D01*
X220166Y135461D01*
X220789Y135204D01*
X221457Y135116D01*
X222125Y135204D01*
X222747Y135461D01*
X223282Y135872D01*
X223692Y136406D01*
X223950Y137029D01*
X224038Y137697D01*
X223950Y138365D01*
X223692Y138987D01*
X223282Y139522D01*
X222747Y139932D01*
X222125Y140190D01*
X221457Y140278D01*
D02*
G37*
G36*
X243701Y139019D02*
X242856Y138851D01*
X242140Y138372D01*
X241661Y137656D01*
X241493Y136811D01*
X241661Y135966D01*
X242140Y135250D01*
X242856Y134772D01*
X243701Y134603D01*
X244546Y134772D01*
X245262Y135250D01*
X245419Y135485D01*
X245919D01*
X246077Y135250D01*
X246793Y134771D01*
X247638Y134603D01*
X248483Y134771D01*
X249199Y135250D01*
X249677Y135966D01*
X249846Y136811D01*
X249677Y137656D01*
X249199Y138372D01*
X248483Y138851D01*
X247638Y139019D01*
X246793Y138851D01*
X246077Y138372D01*
X245919Y138137D01*
X245419D01*
X245262Y138372D01*
X244546Y138851D01*
X243701Y139019D01*
D02*
G37*
G36*
X207283Y136248D02*
X206746Y136141D01*
X206290Y135836D01*
X205985Y135380D01*
X205878Y134843D01*
X205985Y134305D01*
X206290Y133849D01*
X206746Y133545D01*
X207283Y133438D01*
X207821Y133545D01*
X208277Y133849D01*
X208581Y134305D01*
X208688Y134843D01*
X208581Y135380D01*
X208277Y135836D01*
X207821Y136141D01*
X207283Y136248D01*
D02*
G37*
G36*
X239917Y128078D02*
X239095Y127970D01*
X238329Y127653D01*
X237797Y127245D01*
X237456Y127185D01*
X237115Y127245D01*
X236584Y127653D01*
X235818Y127970D01*
X234996Y128078D01*
X234173Y127970D01*
X233407Y127653D01*
X232749Y127148D01*
X232244Y126490D01*
X231927Y125724D01*
X231819Y124902D01*
X231927Y124080D01*
X232244Y123313D01*
X232652Y122782D01*
X232712Y122441D01*
X232652Y122100D01*
X232244Y121569D01*
X231927Y120803D01*
X231819Y119981D01*
X231927Y119158D01*
X232244Y118392D01*
X232749Y117734D01*
X233407Y117229D01*
X234173Y116912D01*
X234996Y116804D01*
X235818Y116912D01*
X236584Y117229D01*
X237115Y117637D01*
X237671Y117734D01*
X238329Y117229D01*
X239095Y116912D01*
X239917Y116804D01*
X240739Y116912D01*
X241506Y117229D01*
X242164Y117734D01*
X242669Y118392D01*
X242986Y119158D01*
X243094Y119980D01*
X242986Y120802D01*
X242669Y121569D01*
X242164Y122227D01*
Y122655D01*
X242669Y123313D01*
X242986Y124080D01*
X243094Y124902D01*
X242986Y125724D01*
X242669Y126490D01*
X242164Y127148D01*
X241506Y127653D01*
X240739Y127970D01*
X239917Y128078D01*
D02*
G37*
G36*
X219193Y125219D02*
X218525Y125131D01*
X217902Y124873D01*
X217368Y124463D01*
X216958Y123928D01*
X216700Y123306D01*
X216612Y122638D01*
X216700Y121970D01*
X216958Y121347D01*
X217368Y120813D01*
X217902Y120403D01*
X218525Y120145D01*
X219193Y120057D01*
X219861Y120145D01*
X220483Y120403D01*
X221018Y120813D01*
X221428Y121347D01*
X221686Y121970D01*
X221774Y122638D01*
X221686Y123306D01*
X221428Y123928D01*
X221018Y124463D01*
X220483Y124873D01*
X219861Y125131D01*
X219193Y125219D01*
D02*
G37*
G36*
X195965Y124923D02*
X195297Y124836D01*
X194674Y124578D01*
X194139Y124167D01*
X193729Y123633D01*
X193471Y123010D01*
X193383Y122342D01*
X193471Y121674D01*
X193729Y121052D01*
X194139Y120517D01*
X194674Y120107D01*
X195297Y119849D01*
X195965Y119761D01*
X196633Y119849D01*
X197255Y120107D01*
X197790Y120517D01*
X198200Y121052D01*
X198458Y121674D01*
X198546Y122342D01*
X198458Y123010D01*
X198200Y123633D01*
X197790Y124167D01*
X197255Y124578D01*
X196633Y124836D01*
X195965Y124923D01*
D02*
G37*
G36*
X253150Y121282D02*
X252482Y121194D01*
X251859Y120936D01*
X251325Y120526D01*
X250914Y119991D01*
X250656Y119369D01*
X250569Y118701D01*
X250656Y118033D01*
X250914Y117410D01*
X251325Y116876D01*
X251859Y116465D01*
X252482Y116208D01*
X253150Y116120D01*
X253818Y116208D01*
X254440Y116465D01*
X254975Y116876D01*
X255385Y117410D01*
X255643Y118033D01*
X255731Y118701D01*
X255643Y119369D01*
X255385Y119991D01*
X254975Y120526D01*
X254440Y120936D01*
X253818Y121194D01*
X253150Y121282D01*
D02*
G37*
G36*
X277559Y114102D02*
X277021Y113995D01*
X276566Y113690D01*
X276261Y113235D01*
X276154Y112697D01*
X276261Y112159D01*
X276566Y111704D01*
X277021Y111399D01*
X277559Y111292D01*
X278097Y111399D01*
X278553Y111704D01*
X278857Y112159D01*
X278964Y112697D01*
X278857Y113235D01*
X278553Y113690D01*
X278097Y113995D01*
X277559Y114102D01*
D02*
G37*
G36*
X211221Y110377D02*
X210376Y110209D01*
X209659Y109730D01*
X209181Y109014D01*
X209013Y108169D01*
X209181Y107324D01*
X209659Y106608D01*
X210376Y106130D01*
X211221Y105962D01*
X212065Y106130D01*
X212782Y106608D01*
X213260Y107324D01*
X213428Y108169D01*
X213260Y109014D01*
X212782Y109730D01*
X212065Y110209D01*
X211221Y110377D01*
D02*
G37*
G36*
X268110Y106124D02*
X267442Y106036D01*
X266820Y105779D01*
X266285Y105368D01*
X265875Y104834D01*
X265617Y104211D01*
X265529Y103543D01*
X265617Y102875D01*
X265875Y102253D01*
X266285Y101718D01*
X266820Y101308D01*
X267442Y101050D01*
X268110Y100962D01*
X268778Y101050D01*
X269401Y101308D01*
X269935Y101718D01*
X270346Y102253D01*
X270603Y102875D01*
X270691Y103543D01*
X270603Y104211D01*
X270346Y104834D01*
X269935Y105368D01*
X269401Y105779D01*
X268778Y106036D01*
X268110Y106124D01*
D02*
G37*
G36*
X225180Y103328D02*
X224335Y103159D01*
X223619Y102681D01*
X223141Y101965D01*
X222972Y101120D01*
X223141Y100275D01*
X223619Y99559D01*
X224335Y99080D01*
X225180Y98912D01*
X226025Y99080D01*
X226741Y99559D01*
X227220Y100275D01*
X227388Y101120D01*
X227220Y101965D01*
X226741Y102681D01*
X226025Y103159D01*
X225180Y103328D01*
D02*
G37*
G36*
X225180Y97721D02*
X224643Y97615D01*
X224187Y97310D01*
X223882Y96854D01*
X223775Y96317D01*
X223882Y95779D01*
X224187Y95323D01*
X224643Y95019D01*
X225180Y94912D01*
X225718Y95019D01*
X226174Y95323D01*
X226478Y95779D01*
X226585Y96317D01*
X226478Y96854D01*
X226174Y97310D01*
X225718Y97615D01*
X225180Y97721D01*
D02*
G37*
G36*
X197933Y93231D02*
X197265Y93143D01*
X196642Y92885D01*
X196108Y92475D01*
X195698Y91940D01*
X195440Y91318D01*
X195352Y90650D01*
X195440Y89982D01*
X195698Y89359D01*
X196108Y88824D01*
X196642Y88414D01*
X197265Y88156D01*
X197933Y88068D01*
X198601Y88156D01*
X199224Y88414D01*
X199758Y88824D01*
X200168Y89359D01*
X200426Y89982D01*
X200514Y90650D01*
X200426Y91318D01*
X200168Y91940D01*
X199758Y92475D01*
X199224Y92885D01*
X198601Y93143D01*
X197933Y93231D01*
D02*
G37*
%LPD*%
D16*
X270768Y213386D02*
X272342Y211811D01*
X285881D01*
D20*
X-0Y288252D02*
X134Y287233D01*
X527Y286283D01*
X1153Y285468D01*
X1969Y284842D01*
X2918Y284449D01*
X3937Y284315D01*
X-27795Y298095D02*
X-27661Y297076D01*
X-27268Y296126D01*
X-26642Y295311D01*
X-25827Y294685D01*
X-24877Y294292D01*
X-23858Y294158D01*
X-27795Y300457D02*
X-28256Y301570D01*
X-29370Y302031D01*
X-38740Y284315D02*
X-37721Y284449D01*
X-36771Y284842D01*
X-35956Y285468D01*
X-35330Y286283D01*
X-34937Y287233D01*
X-34803Y288252D01*
X-37953Y185791D02*
X-36970Y185895D01*
X-36031Y186200D01*
X-35176Y186694D01*
X-34442Y187355D01*
X-33861Y188154D01*
X-33460Y189056D01*
X-33254Y190022D01*
Y191010D01*
X-33460Y191976D01*
X-33861Y192878D01*
X-34442Y193677D01*
X-35176Y194338D01*
X-36031Y194832D01*
X-36970Y195137D01*
X-37953Y195240D01*
X-34803Y105378D02*
X-34937Y106397D01*
X-35330Y107346D01*
X-35956Y108162D01*
X-36771Y108788D01*
X-37721Y109181D01*
X-38740Y109315D01*
X-29370Y91598D02*
X-28256Y92060D01*
X-27795Y93173D01*
X-23858Y99472D02*
X-24877Y99338D01*
X-25827Y98945D01*
X-26642Y98319D01*
X-27268Y97504D01*
X-27661Y96554D01*
X-27795Y95535D01*
X3937Y109315D02*
X2918Y109181D01*
X1969Y108788D01*
X1153Y108162D01*
X527Y107346D01*
X134Y106397D01*
X-0Y105378D01*
X3937Y284315D02*
X14670D01*
X-0Y288252D02*
Y294157D01*
X-23858D02*
X-0D01*
X-27795Y298094D02*
Y300457D01*
X-34803Y302031D02*
X-29370D01*
X-34803Y288252D02*
Y302031D01*
X-55357Y284315D02*
X-38740D01*
X-58425D02*
X-55357D01*
X-58425Y195240D02*
Y284315D01*
Y195240D02*
X-55357D01*
X-37953D01*
X-55357Y185791D02*
X-37953D01*
X-58425D02*
X-55357D01*
X-58425Y109315D02*
Y185791D01*
Y109315D02*
X-55357D01*
X-38740D01*
X-34803Y91598D02*
Y105378D01*
Y91598D02*
X-29370D01*
X-27795Y93173D02*
Y95535D01*
X-23858Y99472D02*
X-0D01*
Y105378D01*
X3937Y109315D02*
X14670D01*
D86*
X459941Y293504D02*
D03*
X471752D02*
D03*
X436024Y239075D02*
D03*
X424409D02*
D03*
X16929Y259252D02*
D03*
X11811Y236713D02*
D03*
D90*
X387865Y197161D02*
X388840D01*
X177821Y78330D02*
Y139842D01*
X384154Y106258D02*
Y109786D01*
X283164Y33949D02*
Y39958D01*
X302000Y15114D02*
X379189D01*
X382579Y20180D02*
Y82677D01*
X381300Y17225D02*
X381354D01*
X370079Y166929D02*
X377044D01*
X177362Y140301D02*
X177821Y139842D01*
X177362Y140301D02*
Y140354D01*
X177362Y77871D02*
X177821Y78330D01*
X177362Y57579D02*
Y77871D01*
X382579Y82677D02*
Y97853D01*
X283164Y39958D02*
X284590Y41384D01*
X384154Y193450D02*
X387865Y197161D01*
X377241Y167126D02*
X384154D01*
X389665Y197933D02*
X403346Y211614D01*
Y227854D01*
X384154Y190945D02*
X389567D01*
X377044Y166929D02*
X377241Y167126D01*
X384154Y106258D02*
X385806Y104607D01*
X372780Y82382D02*
X377558D01*
X384154Y151984D02*
Y167126D01*
Y151984D02*
X389961D01*
X382579Y97853D02*
X385806Y101079D01*
X388840Y197161D02*
X389612Y197933D01*
X384154Y109786D02*
Y151984D01*
Y109786D02*
X388386D01*
X284590Y41384D02*
Y41437D01*
X384154Y190945D02*
Y193450D01*
X385806Y101079D02*
Y104607D01*
X377854Y82677D02*
X382579D01*
X283164Y33949D02*
X302000Y15114D01*
X377417Y103014D02*
X382579Y97853D01*
Y20180D02*
X385452D01*
X388386Y23114D01*
X61772Y362008D02*
X209842D01*
X44567Y344803D02*
X61772Y362008D01*
X384154Y167126D02*
Y190945D01*
X379189Y15114D02*
X381300Y17225D01*
X381354D02*
Y17278D01*
X382579Y18503D01*
Y20180D01*
X377558Y82382D02*
X377854Y82677D01*
D91*
X434424Y146147D02*
Y211737D01*
X411516Y221654D02*
X424508D01*
X434424Y211737D01*
X177366Y272674D02*
Y297421D01*
X187598Y76476D02*
Y183999D01*
X284449Y117827D02*
X293213Y126591D01*
X173031Y35449D02*
Y60867D01*
X407776Y38490D02*
Y69587D01*
X434424Y146147D02*
X441181Y139390D01*
X94727Y103248D02*
X116158Y124679D01*
X407084Y143780D02*
X430383Y167079D01*
X301904Y12008D02*
X439213D01*
X267671Y79761D02*
X297047Y50385D01*
X174787Y300000D02*
X177366Y297421D01*
X171538Y62360D02*
X173031Y60867D01*
X187747Y184148D02*
Y184201D01*
X285706Y196616D02*
X300327Y211236D01*
X187598Y183999D02*
X187747Y184148D01*
X293213Y126591D02*
X296063D01*
X267671Y79761D02*
Y88734D01*
X16929Y259252D02*
X20669Y255512D01*
X177366Y272674D02*
X179795Y270246D01*
X171538Y62360D02*
Y87725D01*
X406201Y16890D02*
Y36915D01*
X112349Y255512D02*
X114810Y253050D01*
X114810Y151951D02*
Y152164D01*
Y151951D02*
X116158Y150603D01*
X76476Y103248D02*
X94727D01*
X406201Y36915D02*
X407776Y38490D01*
X430383Y167079D02*
Y211153D01*
X116158Y124679D02*
Y150603D01*
X402461Y143780D02*
X407084D01*
X407776Y143088D01*
Y69587D02*
Y143088D01*
X405813Y67624D02*
X407776Y69587D01*
X395675Y67624D02*
X405813D01*
X20669Y255512D02*
X112349D01*
X66004Y245472D02*
X94095D01*
X63976Y247342D02*
X64134D01*
X66004Y245472D01*
X160319Y68438D02*
X161709Y67049D01*
X160319Y68438D02*
Y99638D01*
X159252Y38681D02*
X161709Y41138D01*
Y67049D01*
X153937Y106020D02*
X160319Y99638D01*
X171538Y87725D02*
X175050Y91236D01*
X187747Y184307D02*
X200055Y196616D01*
X439213Y12008D02*
X441181Y13976D01*
X179795Y247322D02*
Y270246D01*
X176165Y243693D02*
X179795Y247322D01*
X4626Y231952D02*
Y232165D01*
X76479Y269410D02*
X76794Y269094D01*
X-30512Y236402D02*
X-28232Y238681D01*
X76794Y269094D02*
X99437D01*
X-28232Y238681D02*
Y257366D01*
X63386Y164469D02*
X77837Y150017D01*
X114219Y283876D02*
Y285774D01*
X-33169Y262303D02*
X-28232Y257366D01*
X99437Y269094D02*
X114219Y283876D01*
X53622Y269410D02*
X76479D01*
X55660Y115010D02*
Y160096D01*
X55610Y114961D02*
X55660Y115010D01*
Y160096D02*
X55709Y160145D01*
X101869Y150017D02*
X104134Y152282D01*
X77837Y150017D02*
X101869D01*
X105217Y229823D02*
X108366Y226673D01*
Y195866D02*
Y226673D01*
X42224Y228445D02*
Y237779D01*
Y228445D02*
X55610Y215059D01*
X39322Y289722D02*
X107832D01*
X39281Y289680D02*
X39322Y289722D01*
X107832D02*
X107874Y289764D01*
X114219Y285774D02*
X114370Y285925D01*
X441181Y24016D02*
Y77461D01*
Y13976D02*
Y24016D01*
X449547D01*
X226673Y27165D02*
X286747D01*
X301904Y12008D01*
X441181Y77461D02*
Y139390D01*
X448592Y146800D01*
X441181Y77461D02*
X448661Y84941D01*
X297047Y41253D02*
Y50385D01*
X200055Y196616D02*
X285706D01*
X187598Y76476D02*
X211857D01*
X69341Y220915D02*
X94636D01*
X69291Y220965D02*
X69341Y220915D01*
X94636D02*
X94685Y220866D01*
X211857Y76476D02*
X224114Y88734D01*
X284449Y105512D02*
Y117827D01*
X267671Y88734D02*
X284449Y105512D01*
X224114Y88734D02*
X267671D01*
D93*
X541890Y305709D02*
D03*
Y355709D02*
D03*
Y374016D02*
D03*
Y324016D02*
D03*
D94*
X502518Y258701D02*
D03*
D98*
X324902Y24508D02*
D03*
X328642Y91142D02*
D03*
X328248Y27362D02*
D03*
X321260Y27264D02*
D03*
X411516Y221654D02*
D03*
X372780Y82382D02*
D03*
X430383Y211153D02*
D03*
X377417Y103014D02*
D03*
X389961Y151984D02*
D03*
X388386Y109786D02*
D03*
X395675Y67624D02*
D03*
X388386Y23114D02*
D03*
X403346Y227854D02*
D03*
X177362Y57579D02*
D03*
X177362Y140354D02*
D03*
X194783Y110138D02*
D03*
X166929Y110206D02*
D03*
X382579Y75394D02*
D03*
X322736Y96260D02*
D03*
X328642D02*
D03*
X322736Y91142D02*
D03*
Y179429D02*
D03*
X328642D02*
D03*
Y174311D02*
D03*
X322736D02*
D03*
X173031Y35449D02*
D03*
X136417Y209154D02*
D03*
X175295Y259154D02*
D03*
X144291Y314469D02*
D03*
X117815Y86614D02*
D03*
X114515Y47244D02*
D03*
X169882Y305118D02*
D03*
X166535Y204232D02*
D03*
X109252Y243783D02*
D03*
X94095Y245472D02*
D03*
X153937Y106020D02*
D03*
X159252Y38681D02*
D03*
X169390Y96260D02*
D03*
X402461Y143780D02*
D03*
X406201Y16890D02*
D03*
X44567Y344803D02*
D03*
X32756Y347362D02*
D03*
X28248Y319685D02*
D03*
X174197Y174409D02*
D03*
X176165Y243693D02*
D03*
X174787Y300000D02*
D03*
X63976Y247342D02*
D03*
X2854Y128248D02*
D03*
X381354Y17225D02*
D03*
X278193Y131402D02*
D03*
X360138Y232677D02*
D03*
X364370D02*
D03*
X356004D02*
D03*
X347539D02*
D03*
X351673D02*
D03*
X360138Y147736D02*
D03*
X364370D02*
D03*
X356004D02*
D03*
X347539D02*
D03*
X351673D02*
D03*
X322736Y330217D02*
D03*
X328642D02*
D03*
Y335335D02*
D03*
X322736D02*
D03*
X53622Y269410D02*
D03*
X322736Y256890D02*
D03*
X328642D02*
D03*
Y251772D02*
D03*
X322736D02*
D03*
X370079Y166929D02*
D03*
X172244Y235449D02*
D03*
X127953Y152164D02*
D03*
X-33169Y262303D02*
D03*
X63386Y164469D02*
D03*
X55709Y160145D02*
D03*
X104134Y152282D02*
D03*
X105217Y229823D02*
D03*
X108366Y195866D02*
D03*
X42224Y237779D02*
D03*
X55610Y215059D02*
D03*
Y114961D02*
D03*
X-30512Y236402D02*
D03*
X39281Y289680D02*
D03*
X107874Y289764D02*
D03*
X114370Y285925D02*
D03*
X226673Y27165D02*
D03*
X185925Y63639D02*
D03*
X389665Y197933D02*
D03*
X389567Y190945D02*
D03*
X69291Y220965D02*
D03*
X94685Y220866D02*
D03*
X209842Y362008D02*
D03*
X164469Y51181D02*
D03*
X448592Y146800D02*
D03*
X441181Y13976D02*
D03*
X124668Y264858D02*
D03*
X139633Y96457D02*
D03*
X114810Y152164D02*
D03*
X114810Y253050D02*
D03*
X113583Y29429D02*
D03*
X113288Y299159D02*
D03*
X113272Y189693D02*
D03*
X113583Y134744D02*
D03*
X76476Y103248D02*
D03*
X448661Y84941D02*
D03*
X449547Y24016D02*
D03*
X285881Y211811D02*
D03*
X284590Y41437D02*
D03*
X171807Y158763D02*
D03*
X181282Y272399D02*
D03*
D99*
X297047Y41253D02*
D03*
X300327Y211236D02*
D03*
X296063Y126591D02*
D03*
X175050Y91236D02*
D03*
X187598Y76476D02*
D03*
X187747Y184307D02*
D03*
D102*
X347539Y62303D02*
D03*
X351673D02*
D03*
X356004D02*
D03*
X360138D02*
D03*
X364370D02*
D03*
M02*
