G04*
G04 #@! TF.GenerationSoftware,Altium Limited,Altium Designer,22.9.1 (49)*
G04*
G04 Layer_Color=16711935*
%FSLAX25Y25*%
%MOIN*%
G70*
G04*
G04 #@! TF.SameCoordinates,F2BEA512-F08D-4B97-9B6D-B9E427450466*
G04*
G04*
G04 #@! TF.FilePolarity,Negative*
G04*
G01*
G75*
%ADD20C,0.00100*%
%ADD52C,0.04737*%
%ADD53R,0.11430X0.05918*%
%ADD54R,0.04343X0.03556*%
%ADD56R,0.04147X0.04540*%
%ADD57R,0.04737X0.04737*%
%ADD59R,0.04540X0.04147*%
%ADD62R,0.03556X0.04343*%
%ADD64R,0.11417X0.02559*%
%ADD66R,0.05524X0.03162*%
%ADD74R,0.06115X0.06902*%
%ADD75R,0.04737X0.04737*%
%ADD79R,0.07690X0.03162*%
%ADD80R,0.12808X0.03202*%
%ADD81C,0.13398*%
%ADD82C,0.14087*%
%ADD83C,0.08450*%
%ADD84R,0.07591X0.07591*%
%ADD85C,0.22453*%
%ADD109R,0.24422X0.10642*%
%ADD110R,0.11824X0.09461*%
%ADD111R,0.05918X0.11430*%
%ADD112O,0.09068X0.03359*%
%ADD113R,0.03162X0.07690*%
G36*
X549600Y301933D02*
X549651Y301923D01*
X549701Y301906D01*
X549748Y301883D01*
X549791Y301853D01*
X549831Y301819D01*
X549865Y301779D01*
X549894Y301736D01*
X549918Y301689D01*
X549934Y301639D01*
X549945Y301588D01*
X549948Y301535D01*
Y291693D01*
X549945Y291641D01*
X549934Y291589D01*
X549918Y291540D01*
X549894Y291493D01*
X549865Y291449D01*
X549831Y291409D01*
X549791Y291375D01*
X549748Y291346D01*
X549701Y291323D01*
X549651Y291306D01*
X549600Y291296D01*
X549547Y291292D01*
X534232D01*
X534180Y291296D01*
X534129Y291306D01*
X534079Y291323D01*
X534032Y291346D01*
X533988Y291375D01*
X533949Y291409D01*
X533914Y291449D01*
X533885Y291493D01*
X533862Y291540D01*
X533845Y291589D01*
X533835Y291641D01*
X533831Y291693D01*
Y301535D01*
X533835Y301588D01*
X533845Y301639D01*
X533862Y301689D01*
X533885Y301736D01*
X533914Y301779D01*
X533949Y301819D01*
X533988Y301853D01*
X534032Y301883D01*
X534079Y301906D01*
X534129Y301923D01*
X534180Y301933D01*
X534232Y301936D01*
X536647D01*
X536659Y301936D01*
X536670Y301936D01*
X536685Y301934D01*
X536699Y301933D01*
X536711Y301931D01*
X536722Y301929D01*
X536736Y301926D01*
X536751Y301923D01*
X536762Y301919D01*
X536773Y301916D01*
X536786Y301911D01*
X536801Y301906D01*
X536811Y301901D01*
X536821Y301896D01*
X536834Y301889D01*
X536848Y301883D01*
X536857Y301876D01*
X536867Y301871D01*
X536879Y301862D01*
X536891Y301853D01*
X536900Y301846D01*
X536909Y301839D01*
X536919Y301829D01*
X536931Y301819D01*
X536931Y301819D01*
X536938Y301810D01*
X536946Y301802D01*
X537425Y301266D01*
X538536Y300378D01*
X539808Y299766D01*
X541184Y299451D01*
X542595D01*
X543971Y299766D01*
X545243Y300378D01*
X546355Y301266D01*
X546833Y301802D01*
X546841Y301810D01*
X546848Y301819D01*
X546860Y301829D01*
X546870Y301839D01*
X546879Y301846D01*
X546888Y301853D01*
X546900Y301862D01*
X546912Y301871D01*
X546922Y301876D01*
X546932Y301883D01*
X546945Y301889D01*
X546958Y301896D01*
X546968Y301901D01*
X546979Y301906D01*
X546993Y301911D01*
X547006Y301916D01*
X547017Y301919D01*
X547028Y301923D01*
X547043Y301925D01*
X547057Y301929D01*
X547068Y301931D01*
X547080Y301933D01*
X547094Y301934D01*
X547109Y301936D01*
X547121Y301936D01*
X547132Y301936D01*
X549547Y301936D01*
X549600Y301933D01*
D02*
G37*
G36*
Y370122D02*
X549651Y370112D01*
X549701Y370095D01*
X549748Y370072D01*
X549791Y370042D01*
X549831Y370008D01*
X549865Y369968D01*
X549894Y369925D01*
X549918Y369878D01*
X549934Y369828D01*
X549945Y369777D01*
X549948Y369724D01*
Y359882D01*
X549945Y359830D01*
X549934Y359778D01*
X549918Y359729D01*
X549894Y359681D01*
X549865Y359638D01*
X549831Y359598D01*
X549791Y359564D01*
X549748Y359535D01*
X549701Y359511D01*
X549651Y359495D01*
X549600Y359485D01*
X549547Y359481D01*
X547132D01*
X547121Y359482D01*
X547109Y359482D01*
X547094Y359484D01*
X547080Y359485D01*
X547068Y359487D01*
X547057Y359488D01*
X547043Y359492D01*
X547028Y359495D01*
X547017Y359498D01*
X547006Y359501D01*
X546993Y359507D01*
X546979Y359511D01*
X546968Y359517D01*
X546958Y359521D01*
X546945Y359528D01*
X546932Y359535D01*
X546922Y359541D01*
X546912Y359547D01*
X546900Y359556D01*
X546888Y359564D01*
X546879Y359571D01*
X546870Y359578D01*
X546860Y359589D01*
X546848Y359598D01*
X546841Y359607D01*
X546833Y359615D01*
X546355Y360151D01*
X545243Y361039D01*
X543971Y361652D01*
X542595Y361966D01*
X541184D01*
X539808Y361652D01*
X538536Y361039D01*
X537425Y360151D01*
X536946Y359615D01*
X536938Y359607D01*
X536931Y359598D01*
X536919Y359589D01*
X536909Y359578D01*
X536900Y359571D01*
X536891Y359564D01*
X536879Y359556D01*
X536867Y359547D01*
X536857Y359541D01*
X536848Y359535D01*
X536834Y359528D01*
X536821Y359521D01*
X536811Y359517D01*
X536801Y359511D01*
X536786Y359507D01*
X536773Y359501D01*
X536762Y359498D01*
X536751Y359495D01*
X536736Y359492D01*
X536722Y359488D01*
X536711Y359487D01*
X536699Y359485D01*
X536685Y359484D01*
X536670Y359482D01*
X536659Y359482D01*
X536647Y359481D01*
X534232D01*
X534180Y359485D01*
X534129Y359495D01*
X534079Y359511D01*
X534032Y359535D01*
X533988Y359564D01*
X533949Y359598D01*
X533914Y359638D01*
X533885Y359681D01*
X533862Y359729D01*
X533845Y359778D01*
X533835Y359830D01*
X533831Y359882D01*
Y369724D01*
X533835Y369777D01*
X533845Y369828D01*
X533862Y369878D01*
X533885Y369925D01*
X533914Y369968D01*
X533949Y370008D01*
X533988Y370042D01*
X534032Y370072D01*
X534079Y370095D01*
X534129Y370112D01*
X534180Y370122D01*
X534232Y370125D01*
X549547D01*
X549600Y370122D01*
D02*
G37*
D20*
X-0Y288252D02*
X134Y287233D01*
X527Y286283D01*
X1153Y285468D01*
X1969Y284842D01*
X2918Y284449D01*
X3937Y284315D01*
X-27795Y298095D02*
X-27661Y297076D01*
X-27268Y296126D01*
X-26642Y295311D01*
X-25827Y294685D01*
X-24877Y294292D01*
X-23858Y294158D01*
X-27795Y300457D02*
X-28256Y301570D01*
X-29370Y302031D01*
X-38740Y284315D02*
X-37721Y284449D01*
X-36771Y284842D01*
X-35956Y285468D01*
X-35330Y286283D01*
X-34937Y287233D01*
X-34803Y288252D01*
X-37953Y185791D02*
X-36970Y185895D01*
X-36031Y186200D01*
X-35176Y186694D01*
X-34442Y187355D01*
X-33861Y188154D01*
X-33460Y189056D01*
X-33254Y190022D01*
Y191010D01*
X-33460Y191976D01*
X-33861Y192878D01*
X-34442Y193677D01*
X-35176Y194338D01*
X-36031Y194832D01*
X-36970Y195137D01*
X-37953Y195240D01*
X-34803Y105378D02*
X-34937Y106397D01*
X-35330Y107346D01*
X-35956Y108162D01*
X-36771Y108788D01*
X-37721Y109181D01*
X-38740Y109315D01*
X-29370Y91598D02*
X-28256Y92060D01*
X-27795Y93173D01*
X-23858Y99472D02*
X-24877Y99338D01*
X-25827Y98945D01*
X-26642Y98319D01*
X-27268Y97504D01*
X-27661Y96554D01*
X-27795Y95535D01*
X3937Y109315D02*
X2918Y109181D01*
X1969Y108788D01*
X1153Y108162D01*
X527Y107346D01*
X134Y106397D01*
X-0Y105378D01*
X3937Y284315D02*
X14670D01*
X-0Y288252D02*
Y294157D01*
X-23858D02*
X-0D01*
X-27795Y298094D02*
Y300457D01*
X-34803Y302031D02*
X-29370D01*
X-34803Y288252D02*
Y302031D01*
X-55357Y284315D02*
X-38740D01*
X-58425D02*
X-55357D01*
X-58425Y195240D02*
Y284315D01*
Y195240D02*
X-55357D01*
X-37953D01*
X-55357Y185791D02*
X-37953D01*
X-58425D02*
X-55357D01*
X-58425Y109315D02*
Y185791D01*
Y109315D02*
X-55357D01*
X-38740D01*
X-34803Y91598D02*
Y105378D01*
Y91598D02*
X-29370D01*
X-27795Y93173D02*
Y95535D01*
X-23858Y99472D02*
X-0D01*
Y105378D01*
X3937Y109315D02*
X14670D01*
D52*
X477756Y328346D02*
D03*
X487284Y333189D02*
D03*
X462212Y366799D02*
D03*
X486181Y364173D02*
D03*
Y356299D02*
D03*
X460118Y326968D02*
D03*
X485984Y314528D02*
D03*
Y321220D02*
D03*
X460118Y336732D02*
D03*
D53*
X465748Y298917D02*
D03*
Y309941D02*
D03*
X418504Y222638D02*
D03*
Y233661D02*
D03*
X430217Y222638D02*
D03*
Y233661D02*
D03*
X441929Y222638D02*
D03*
Y233661D02*
D03*
X477461Y298917D02*
D03*
Y309941D02*
D03*
X436032Y313058D02*
D03*
Y324082D02*
D03*
X454035Y298917D02*
D03*
Y309941D02*
D03*
X424319Y313058D02*
D03*
Y324082D02*
D03*
X412607Y313058D02*
D03*
Y324082D02*
D03*
X400894Y313058D02*
D03*
Y324082D02*
D03*
D54*
X173721Y305118D02*
D03*
Y310630D02*
D03*
X229232Y280289D02*
D03*
Y274777D02*
D03*
X229528Y179035D02*
D03*
Y173524D02*
D03*
Y71555D02*
D03*
Y66043D02*
D03*
X171358Y209941D02*
D03*
Y204429D02*
D03*
X173524Y101772D02*
D03*
Y96260D02*
D03*
X92077Y78768D02*
D03*
Y84280D02*
D03*
X54921Y287531D02*
D03*
Y293043D02*
D03*
X92077Y287531D02*
D03*
Y293043D02*
D03*
X92077Y186642D02*
D03*
Y192154D02*
D03*
X54921Y186642D02*
D03*
Y192154D02*
D03*
X188485Y350984D02*
D03*
Y356496D02*
D03*
X225640Y350935D02*
D03*
Y356447D02*
D03*
X124062Y146456D02*
D03*
Y151968D02*
D03*
X150538Y146456D02*
D03*
Y151968D02*
D03*
X155610Y133268D02*
D03*
Y138779D02*
D03*
X123093Y247634D02*
D03*
Y253146D02*
D03*
X149570Y247634D02*
D03*
Y253146D02*
D03*
X155770Y235470D02*
D03*
Y240981D02*
D03*
X155595Y31496D02*
D03*
Y25984D02*
D03*
X150342Y44094D02*
D03*
Y38582D02*
D03*
X123865Y44094D02*
D03*
Y38582D02*
D03*
X167774Y164567D02*
D03*
Y159055D02*
D03*
X168069Y51181D02*
D03*
Y56693D02*
D03*
X54921Y84331D02*
D03*
Y78819D02*
D03*
X168069Y259941D02*
D03*
Y265453D02*
D03*
D56*
X197047Y339862D02*
D03*
X191929D02*
D03*
X197047Y333760D02*
D03*
X191929D02*
D03*
X212008Y323051D02*
D03*
X206890D02*
D03*
X227559Y323051D02*
D03*
X222441D02*
D03*
X93996Y51378D02*
D03*
X88878D02*
D03*
X78445Y51378D02*
D03*
X73327D02*
D03*
X139239Y125491D02*
D03*
X134121D02*
D03*
X124062Y139172D02*
D03*
X118944D02*
D03*
X124259Y159251D02*
D03*
X119141D02*
D03*
X139092Y172883D02*
D03*
X133974D02*
D03*
X123291Y260429D02*
D03*
X118172D02*
D03*
X123291Y240351D02*
D03*
X118172D02*
D03*
X138123Y274061D02*
D03*
X133005D02*
D03*
X138271Y226669D02*
D03*
X133153D02*
D03*
X133924Y17617D02*
D03*
X139042D02*
D03*
X118944Y31298D02*
D03*
X124062D02*
D03*
X118944Y51377D02*
D03*
X124062D02*
D03*
X134169Y65009D02*
D03*
X139287D02*
D03*
X94094Y160334D02*
D03*
X88976D02*
D03*
X93996Y260138D02*
D03*
X88878D02*
D03*
X78543Y160335D02*
D03*
X73425D02*
D03*
X78445Y260138D02*
D03*
X73326D02*
D03*
X58465Y67717D02*
D03*
X63583D02*
D03*
X63484Y270768D02*
D03*
X58366D02*
D03*
X63583Y61910D02*
D03*
X58465D02*
D03*
X63484Y169882D02*
D03*
X58366D02*
D03*
Y175689D02*
D03*
X63484D02*
D03*
X58366Y276575D02*
D03*
X63484D02*
D03*
X522086Y377953D02*
D03*
X527205D02*
D03*
D57*
X119042Y152165D02*
D03*
Y146259D02*
D03*
X118074Y253343D02*
D03*
Y247437D02*
D03*
X118845Y38385D02*
D03*
Y44290D02*
D03*
D59*
X97343Y78965D02*
D03*
Y84083D02*
D03*
X103346Y78965D02*
D03*
Y84083D02*
D03*
X230758Y356250D02*
D03*
Y351132D02*
D03*
X150342Y240588D02*
D03*
Y235470D02*
D03*
X150342Y26180D02*
D03*
Y31298D02*
D03*
X43701Y287728D02*
D03*
Y292846D02*
D03*
X103347Y287728D02*
D03*
Y292846D02*
D03*
X43701Y186838D02*
D03*
Y191957D02*
D03*
X103346Y186838D02*
D03*
Y191957D02*
D03*
X49803Y84134D02*
D03*
Y79016D02*
D03*
X217126Y366161D02*
D03*
Y371280D02*
D03*
X197047Y366161D02*
D03*
Y371280D02*
D03*
X183367Y351181D02*
D03*
Y356299D02*
D03*
X177264Y356378D02*
D03*
Y351260D02*
D03*
X236910Y356220D02*
D03*
Y351102D02*
D03*
X150456Y133386D02*
D03*
Y138504D02*
D03*
X150341Y164369D02*
D03*
Y159251D02*
D03*
X149748Y265785D02*
D03*
Y260666D02*
D03*
X149748Y51377D02*
D03*
Y56495D02*
D03*
X97195Y186838D02*
D03*
Y191957D02*
D03*
X97195Y287728D02*
D03*
Y292846D02*
D03*
X63484Y201870D02*
D03*
Y206988D02*
D03*
X63484Y302756D02*
D03*
Y307874D02*
D03*
X83563Y201870D02*
D03*
Y206988D02*
D03*
X83563Y302756D02*
D03*
Y307874D02*
D03*
X50099Y191957D02*
D03*
Y186838D02*
D03*
X49803Y292846D02*
D03*
Y287728D02*
D03*
X63484Y93996D02*
D03*
Y99114D02*
D03*
X43701Y84134D02*
D03*
Y79016D02*
D03*
X83563Y93996D02*
D03*
Y99114D02*
D03*
D62*
X209843Y366358D02*
D03*
X204331D02*
D03*
Y339882D02*
D03*
X209843D02*
D03*
X133924Y130610D02*
D03*
X139436D02*
D03*
X134170Y167765D02*
D03*
X139682D02*
D03*
X132956Y231788D02*
D03*
X138468D02*
D03*
X133202Y268943D02*
D03*
X138714D02*
D03*
X139239Y22735D02*
D03*
X133727D02*
D03*
X139484Y59891D02*
D03*
X133973D02*
D03*
X70768Y202067D02*
D03*
X76280D02*
D03*
X70768Y302953D02*
D03*
X76280D02*
D03*
X70768Y175591D02*
D03*
X76280D02*
D03*
X70768Y276477D02*
D03*
X76280D02*
D03*
X70768Y94193D02*
D03*
X76280D02*
D03*
X70768Y67716D02*
D03*
X76280D02*
D03*
D64*
X-48976Y113350D02*
D03*
Y119650D02*
D03*
Y122799D02*
D03*
Y125949D02*
D03*
Y129098D02*
D03*
Y135398D02*
D03*
Y138547D02*
D03*
Y144846D02*
D03*
Y147996D02*
D03*
Y179492D02*
D03*
Y198390D02*
D03*
Y229886D02*
D03*
Y236185D02*
D03*
Y242484D02*
D03*
Y248783D02*
D03*
Y255083D02*
D03*
Y223587D02*
D03*
Y210988D02*
D03*
Y173193D02*
D03*
Y160594D02*
D03*
Y261382D02*
D03*
Y267681D02*
D03*
Y273980D02*
D03*
Y204689D02*
D03*
Y154295D02*
D03*
Y217287D02*
D03*
Y166894D02*
D03*
Y280280D02*
D03*
Y277130D02*
D03*
Y270831D02*
D03*
Y264531D02*
D03*
Y258232D02*
D03*
Y251933D02*
D03*
Y245634D02*
D03*
Y239335D02*
D03*
Y233035D02*
D03*
Y226736D02*
D03*
Y220437D02*
D03*
Y214138D02*
D03*
Y207839D02*
D03*
Y201539D02*
D03*
Y182642D02*
D03*
Y176343D02*
D03*
Y170043D02*
D03*
Y163744D02*
D03*
Y157445D02*
D03*
Y151146D02*
D03*
Y141697D02*
D03*
Y132248D02*
D03*
Y116500D02*
D03*
D66*
X173114Y38783D02*
D03*
Y42523D02*
D03*
Y46263D02*
D03*
X163272Y38783D02*
D03*
Y42523D02*
D03*
Y46263D02*
D03*
X173114Y146657D02*
D03*
Y150397D02*
D03*
Y154137D02*
D03*
X163271Y146657D02*
D03*
Y150397D02*
D03*
Y154137D02*
D03*
X173114Y255023D02*
D03*
X163272Y247543D02*
D03*
Y251283D02*
D03*
Y255023D02*
D03*
X173114Y251283D02*
D03*
Y247543D02*
D03*
D74*
X79823Y58268D02*
D03*
X71949D02*
D03*
X221063Y329941D02*
D03*
X228937D02*
D03*
X205512D02*
D03*
X213386D02*
D03*
X87500Y58268D02*
D03*
X95374Y58268D02*
D03*
X79921Y167224D02*
D03*
X72047D02*
D03*
X79823Y267027D02*
D03*
X71949D02*
D03*
X87598Y167224D02*
D03*
X95472D02*
D03*
X87500Y267027D02*
D03*
X95374D02*
D03*
D75*
X204134Y371378D02*
D03*
X210040D02*
D03*
X70571Y207087D02*
D03*
X76477D02*
D03*
X70571Y307973D02*
D03*
X76477D02*
D03*
X70571Y99212D02*
D03*
X76477D02*
D03*
D79*
X217126Y346240D02*
D03*
Y356240D02*
D03*
Y361240D02*
D03*
X197047D02*
D03*
Y351240D02*
D03*
Y346240D02*
D03*
Y356240D02*
D03*
X217126Y351240D02*
D03*
X63484Y282835D02*
D03*
Y287835D02*
D03*
Y292835D02*
D03*
Y297835D02*
D03*
X83563D02*
D03*
Y292835D02*
D03*
Y287835D02*
D03*
Y282835D02*
D03*
X63484Y181949D02*
D03*
Y186949D02*
D03*
Y191949D02*
D03*
Y196949D02*
D03*
X83563D02*
D03*
Y191949D02*
D03*
Y186949D02*
D03*
Y181949D02*
D03*
X63484Y74075D02*
D03*
Y79075D02*
D03*
Y84075D02*
D03*
Y89075D02*
D03*
X83563D02*
D03*
Y84075D02*
D03*
Y79075D02*
D03*
Y74075D02*
D03*
D80*
X502598Y316653D02*
D03*
Y320669D02*
D03*
Y324685D02*
D03*
Y328701D02*
D03*
Y332716D02*
D03*
Y336732D02*
D03*
Y340748D02*
D03*
Y344764D02*
D03*
D81*
X541890Y305709D02*
D03*
Y355709D02*
D03*
Y374016D02*
D03*
Y324016D02*
D03*
D82*
X502518Y89803D02*
D03*
Y202402D02*
D03*
Y258701D02*
D03*
Y33504D02*
D03*
Y146102D02*
D03*
D83*
X527557Y69803D02*
D03*
X487557D02*
D03*
Y109803D02*
D03*
X527557D02*
D03*
Y222402D02*
D03*
X487557D02*
D03*
Y182402D02*
D03*
X527557D02*
D03*
Y238701D02*
D03*
X487557D02*
D03*
Y278701D02*
D03*
X527557D02*
D03*
Y13504D02*
D03*
X487557D02*
D03*
Y53504D02*
D03*
X527557D02*
D03*
Y126102D02*
D03*
X487557D02*
D03*
Y166102D02*
D03*
X527557D02*
D03*
D84*
X123488Y61650D02*
D03*
X123193Y114685D02*
D03*
X123488Y170016D02*
D03*
X123488Y12421D02*
D03*
X123488Y279465D02*
D03*
X123488Y225020D02*
D03*
D85*
X395276Y292815D02*
D03*
X285039D02*
D03*
Y81398D02*
D03*
X395276D02*
D03*
D109*
X381496Y118996D02*
D03*
X342520D02*
D03*
X305020Y118996D02*
D03*
X266043D02*
D03*
X305020Y32283D02*
D03*
X266043D02*
D03*
Y332677D02*
D03*
X305020D02*
D03*
X342520Y32283D02*
D03*
X381496D02*
D03*
X305020Y251870D02*
D03*
X266043D02*
D03*
X305020Y184646D02*
D03*
X266043D02*
D03*
X342520Y251870D02*
D03*
X381496D02*
D03*
Y184646D02*
D03*
Y332677D02*
D03*
X342520D02*
D03*
Y184646D02*
D03*
D110*
X381496Y128248D02*
D03*
Y109744D02*
D03*
X342520Y128248D02*
D03*
Y109744D02*
D03*
X266043Y109744D02*
D03*
Y128248D02*
D03*
X305020Y109744D02*
D03*
Y128248D02*
D03*
Y261122D02*
D03*
Y242618D02*
D03*
X266043Y261122D02*
D03*
Y242618D02*
D03*
X305020Y193898D02*
D03*
Y175394D02*
D03*
X266043Y193898D02*
D03*
Y175394D02*
D03*
X342520Y23031D02*
D03*
Y41535D02*
D03*
X381496Y23031D02*
D03*
Y41535D02*
D03*
X342520Y175394D02*
D03*
Y193898D02*
D03*
X381496Y175394D02*
D03*
Y193898D02*
D03*
X305020Y41535D02*
D03*
Y23031D02*
D03*
X266043Y41535D02*
D03*
Y23031D02*
D03*
X342520Y323425D02*
D03*
Y341929D02*
D03*
X381496Y323425D02*
D03*
Y341929D02*
D03*
X342520Y242618D02*
D03*
Y261122D02*
D03*
X381496Y242618D02*
D03*
Y261122D02*
D03*
X266043Y323425D02*
D03*
Y341929D02*
D03*
X305020D02*
D03*
Y323425D02*
D03*
D111*
X368602Y66831D02*
D03*
X379626D02*
D03*
X368602Y84252D02*
D03*
X379626D02*
D03*
D112*
X181284Y290076D02*
D03*
Y189190D02*
D03*
Y81316D02*
D03*
Y209190D02*
D03*
Y179190D02*
D03*
Y174190D02*
D03*
Y184190D02*
D03*
Y194190D02*
D03*
Y199190D02*
D03*
Y204190D02*
D03*
X219472Y174190D02*
D03*
Y179190D02*
D03*
Y184190D02*
D03*
Y189190D02*
D03*
Y194190D02*
D03*
Y199190D02*
D03*
Y204190D02*
D03*
Y209190D02*
D03*
Y101316D02*
D03*
Y96316D02*
D03*
Y91316D02*
D03*
Y86316D02*
D03*
Y81316D02*
D03*
Y76316D02*
D03*
Y71316D02*
D03*
Y66316D02*
D03*
X181284Y96316D02*
D03*
Y91316D02*
D03*
Y86316D02*
D03*
Y76316D02*
D03*
Y66316D02*
D03*
Y71316D02*
D03*
Y101316D02*
D03*
Y310076D02*
D03*
Y280076D02*
D03*
X219472Y310076D02*
D03*
Y305076D02*
D03*
Y300076D02*
D03*
Y295076D02*
D03*
Y290076D02*
D03*
Y285076D02*
D03*
Y280076D02*
D03*
Y275076D02*
D03*
X181284Y305076D02*
D03*
Y300076D02*
D03*
Y295076D02*
D03*
Y285076D02*
D03*
Y275076D02*
D03*
D113*
X143983Y51377D02*
D03*
X138983D02*
D03*
X133983D02*
D03*
X128983D02*
D03*
Y31298D02*
D03*
X133983D02*
D03*
X138983D02*
D03*
X143983D02*
D03*
X143984Y240588D02*
D03*
X138984D02*
D03*
X133984D02*
D03*
X128984D02*
D03*
Y260666D02*
D03*
X133984D02*
D03*
X138984D02*
D03*
X143984D02*
D03*
X143983Y139172D02*
D03*
X138983D02*
D03*
X133983D02*
D03*
X128983D02*
D03*
Y159251D02*
D03*
X133983D02*
D03*
X138983D02*
D03*
X143983D02*
D03*
M02*
